<?xml version="1.0" encoding="utf-8" standalone="no"?>
<!DOCTYPE svg PUBLIC "-//W3C//DTD SVG 1.1//EN"
  "http://www.w3.org/Graphics/SVG/1.1/DTD/svg11.dtd">
<svg height="345.6pt" version="1.1" viewBox="0 0 460.8 345.6" width="460.8pt" xmlns="http://www.w3.org/2000/svg" xmlns:xlink="http://www.w3.org/1999/xlink">
 <metadata>
  <rdf:RDF xmlns:cc="http://creativecommons.org/ns#" xmlns:dc="http://purl.org/dc/elements/1.1/" xmlns:rdf="http://www.w3.org/1999/02/22-rdf-syntax-ns#">
   <cc:Work>
    <dc:type rdf:resource="http://purl.org/dc/dcmitype/StillImage"/>
    <dc:date>2021-12-05T00:57:24.030252</dc:date>
    <dc:format>image/svg+xml</dc:format>
    <dc:creator>
     <cc:Agent>
      <dc:title>Matplotlib v3.4.1, https://matplotlib.org/</dc:title>
     </cc:Agent>
    </dc:creator>
   </cc:Work>
  </rdf:RDF>
 </metadata>
 <defs>
  <style type="text/css">*{stroke-linecap:butt;stroke-linejoin:round;}</style>
 </defs>
 <g id="figure_1">
  <g id="patch_1">
   <path d="M 0 345.6 
L 460.8 345.6 
L 460.8 0 
L 0 0 
z
" style="fill:#ffffff;"/>
  </g>
  <g id="axes_1">
   <g id="patch_2">
    <path d="M 67.91625 313.06 
L 447.84 313.06 
L 447.84 12.96 
L 67.91625 12.96 
z
" style="fill:#eaeaf2;"/>
   </g>
   <g id="matplotlib.axis_1">
    <g id="xtick_1">
     <g id="line2d_1">
      <path clip-path="url(#pbd47f56087)" d="M 85.185511 313.06 
L 85.185511 12.96 
" style="fill:none;stroke:#ffffff;stroke-linecap:round;"/>
     </g>
     <g id="text_1">
      <!-- 0 -->
      <g style="fill:#262626;" transform="translate(82.126996 330.433594)scale(0.11 -0.11)">
       <defs>
        <path d="M 266 2259 
Q 266 3072 433 3567 
Q 600 4063 929 4331 
Q 1259 4600 1759 4600 
Q 2128 4600 2406 4451 
Q 2684 4303 2865 4023 
Q 3047 3744 3150 3342 
Q 3253 2941 3253 2259 
Q 3253 1453 3087 958 
Q 2922 463 2592 192 
Q 2263 -78 1759 -78 
Q 1097 -78 719 397 
Q 266 969 266 2259 
z
M 844 2259 
Q 844 1131 1108 757 
Q 1372 384 1759 384 
Q 2147 384 2411 759 
Q 2675 1134 2675 2259 
Q 2675 3391 2411 3762 
Q 2147 4134 1753 4134 
Q 1366 4134 1134 3806 
Q 844 3388 844 2259 
z
" id="ArialMT-30" transform="scale(0.015625)"/>
       </defs>
       <use xlink:href="#ArialMT-30"/>
      </g>
     </g>
    </g>
    <g id="xtick_2">
     <g id="line2d_2">
      <path clip-path="url(#pbd47f56087)" d="M 167.439674 313.06 
L 167.439674 12.96 
" style="fill:none;stroke:#ffffff;stroke-linecap:round;"/>
     </g>
     <g id="text_2">
      <!-- 1000 -->
      <g style="fill:#262626;" transform="translate(155.205611 330.433594)scale(0.11 -0.11)">
       <defs>
        <path d="M 2384 0 
L 1822 0 
L 1822 3584 
Q 1619 3391 1289 3197 
Q 959 3003 697 2906 
L 697 3450 
Q 1169 3672 1522 3987 
Q 1875 4303 2022 4600 
L 2384 4600 
L 2384 0 
z
" id="ArialMT-31" transform="scale(0.015625)"/>
       </defs>
       <use xlink:href="#ArialMT-31"/>
       <use x="55.615234" xlink:href="#ArialMT-30"/>
       <use x="111.230469" xlink:href="#ArialMT-30"/>
       <use x="166.845703" xlink:href="#ArialMT-30"/>
      </g>
     </g>
    </g>
    <g id="xtick_3">
     <g id="line2d_3">
      <path clip-path="url(#pbd47f56087)" d="M 249.693836 313.06 
L 249.693836 12.96 
" style="fill:none;stroke:#ffffff;stroke-linecap:round;"/>
     </g>
     <g id="text_3">
      <!-- 2000 -->
      <g style="fill:#262626;" transform="translate(237.459773 330.433594)scale(0.11 -0.11)">
       <defs>
        <path d="M 3222 541 
L 3222 0 
L 194 0 
Q 188 203 259 391 
Q 375 700 629 1000 
Q 884 1300 1366 1694 
Q 2113 2306 2375 2664 
Q 2638 3022 2638 3341 
Q 2638 3675 2398 3904 
Q 2159 4134 1775 4134 
Q 1369 4134 1125 3890 
Q 881 3647 878 3216 
L 300 3275 
Q 359 3922 746 4261 
Q 1134 4600 1788 4600 
Q 2447 4600 2831 4234 
Q 3216 3869 3216 3328 
Q 3216 3053 3103 2787 
Q 2991 2522 2730 2228 
Q 2469 1934 1863 1422 
Q 1356 997 1212 845 
Q 1069 694 975 541 
L 3222 541 
z
" id="ArialMT-32" transform="scale(0.015625)"/>
       </defs>
       <use xlink:href="#ArialMT-32"/>
       <use x="55.615234" xlink:href="#ArialMT-30"/>
       <use x="111.230469" xlink:href="#ArialMT-30"/>
       <use x="166.845703" xlink:href="#ArialMT-30"/>
      </g>
     </g>
    </g>
    <g id="xtick_4">
     <g id="line2d_4">
      <path clip-path="url(#pbd47f56087)" d="M 331.947998 313.06 
L 331.947998 12.96 
" style="fill:none;stroke:#ffffff;stroke-linecap:round;"/>
     </g>
     <g id="text_4">
      <!-- 3000 -->
      <g style="fill:#262626;" transform="translate(319.713936 330.433594)scale(0.11 -0.11)">
       <defs>
        <path d="M 269 1209 
L 831 1284 
Q 928 806 1161 595 
Q 1394 384 1728 384 
Q 2125 384 2398 659 
Q 2672 934 2672 1341 
Q 2672 1728 2419 1979 
Q 2166 2231 1775 2231 
Q 1616 2231 1378 2169 
L 1441 2663 
Q 1497 2656 1531 2656 
Q 1891 2656 2178 2843 
Q 2466 3031 2466 3422 
Q 2466 3731 2256 3934 
Q 2047 4138 1716 4138 
Q 1388 4138 1169 3931 
Q 950 3725 888 3313 
L 325 3413 
Q 428 3978 793 4289 
Q 1159 4600 1703 4600 
Q 2078 4600 2393 4439 
Q 2709 4278 2876 4000 
Q 3044 3722 3044 3409 
Q 3044 3113 2884 2869 
Q 2725 2625 2413 2481 
Q 2819 2388 3044 2092 
Q 3269 1797 3269 1353 
Q 3269 753 2831 336 
Q 2394 -81 1725 -81 
Q 1122 -81 723 278 
Q 325 638 269 1209 
z
" id="ArialMT-33" transform="scale(0.015625)"/>
       </defs>
       <use xlink:href="#ArialMT-33"/>
       <use x="55.615234" xlink:href="#ArialMT-30"/>
       <use x="111.230469" xlink:href="#ArialMT-30"/>
       <use x="166.845703" xlink:href="#ArialMT-30"/>
      </g>
     </g>
    </g>
    <g id="xtick_5">
     <g id="line2d_5">
      <path clip-path="url(#pbd47f56087)" d="M 414.20216 313.06 
L 414.20216 12.96 
" style="fill:none;stroke:#ffffff;stroke-linecap:round;"/>
     </g>
     <g id="text_5">
      <!-- 4000 -->
      <g style="fill:#262626;" transform="translate(401.968098 330.433594)scale(0.11 -0.11)">
       <defs>
        <path d="M 2069 0 
L 2069 1097 
L 81 1097 
L 81 1613 
L 2172 4581 
L 2631 4581 
L 2631 1613 
L 3250 1613 
L 3250 1097 
L 2631 1097 
L 2631 0 
L 2069 0 
z
M 2069 1613 
L 2069 3678 
L 634 1613 
L 2069 1613 
z
" id="ArialMT-34" transform="scale(0.015625)"/>
       </defs>
       <use xlink:href="#ArialMT-34"/>
       <use x="55.615234" xlink:href="#ArialMT-30"/>
       <use x="111.230469" xlink:href="#ArialMT-30"/>
       <use x="166.845703" xlink:href="#ArialMT-30"/>
      </g>
     </g>
    </g>
   </g>
   <g id="matplotlib.axis_2">
    <g id="ytick_1">
     <g id="line2d_6">
      <path clip-path="url(#pbd47f56087)" d="M 67.91625 308.145993 
L 447.84 308.145993 
" style="fill:none;stroke:#ffffff;stroke-linecap:round;"/>
     </g>
     <g id="text_6">
      <!-- 0 -->
      <g style="fill:#262626;" transform="translate(52.299219 312.08279)scale(0.11 -0.11)">
       <use xlink:href="#ArialMT-30"/>
      </g>
     </g>
    </g>
    <g id="ytick_2">
     <g id="line2d_7">
      <path clip-path="url(#pbd47f56087)" d="M 67.91625 269.099452 
L 447.84 269.099452 
" style="fill:none;stroke:#ffffff;stroke-linecap:round;"/>
     </g>
     <g id="text_7">
      <!-- 2000 -->
      <g style="fill:#262626;" transform="translate(33.948125 273.036249)scale(0.11 -0.11)">
       <use xlink:href="#ArialMT-32"/>
       <use x="55.615234" xlink:href="#ArialMT-30"/>
       <use x="111.230469" xlink:href="#ArialMT-30"/>
       <use x="166.845703" xlink:href="#ArialMT-30"/>
      </g>
     </g>
    </g>
    <g id="ytick_3">
     <g id="line2d_8">
      <path clip-path="url(#pbd47f56087)" d="M 67.91625 230.052911 
L 447.84 230.052911 
" style="fill:none;stroke:#ffffff;stroke-linecap:round;"/>
     </g>
     <g id="text_8">
      <!-- 4000 -->
      <g style="fill:#262626;" transform="translate(33.948125 233.989708)scale(0.11 -0.11)">
       <use xlink:href="#ArialMT-34"/>
       <use x="55.615234" xlink:href="#ArialMT-30"/>
       <use x="111.230469" xlink:href="#ArialMT-30"/>
       <use x="166.845703" xlink:href="#ArialMT-30"/>
      </g>
     </g>
    </g>
    <g id="ytick_4">
     <g id="line2d_9">
      <path clip-path="url(#pbd47f56087)" d="M 67.91625 191.00637 
L 447.84 191.00637 
" style="fill:none;stroke:#ffffff;stroke-linecap:round;"/>
     </g>
     <g id="text_9">
      <!-- 6000 -->
      <g style="fill:#262626;" transform="translate(33.948125 194.943167)scale(0.11 -0.11)">
       <defs>
        <path d="M 3184 3459 
L 2625 3416 
Q 2550 3747 2413 3897 
Q 2184 4138 1850 4138 
Q 1581 4138 1378 3988 
Q 1113 3794 959 3422 
Q 806 3050 800 2363 
Q 1003 2672 1297 2822 
Q 1591 2972 1913 2972 
Q 2475 2972 2870 2558 
Q 3266 2144 3266 1488 
Q 3266 1056 3080 686 
Q 2894 316 2569 119 
Q 2244 -78 1831 -78 
Q 1128 -78 684 439 
Q 241 956 241 2144 
Q 241 3472 731 4075 
Q 1159 4600 1884 4600 
Q 2425 4600 2770 4297 
Q 3116 3994 3184 3459 
z
M 888 1484 
Q 888 1194 1011 928 
Q 1134 663 1356 523 
Q 1578 384 1822 384 
Q 2178 384 2434 671 
Q 2691 959 2691 1453 
Q 2691 1928 2437 2201 
Q 2184 2475 1800 2475 
Q 1419 2475 1153 2201 
Q 888 1928 888 1484 
z
" id="ArialMT-36" transform="scale(0.015625)"/>
       </defs>
       <use xlink:href="#ArialMT-36"/>
       <use x="55.615234" xlink:href="#ArialMT-30"/>
       <use x="111.230469" xlink:href="#ArialMT-30"/>
       <use x="166.845703" xlink:href="#ArialMT-30"/>
      </g>
     </g>
    </g>
    <g id="ytick_5">
     <g id="line2d_10">
      <path clip-path="url(#pbd47f56087)" d="M 67.91625 151.959829 
L 447.84 151.959829 
" style="fill:none;stroke:#ffffff;stroke-linecap:round;"/>
     </g>
     <g id="text_10">
      <!-- 8000 -->
      <g style="fill:#262626;" transform="translate(33.948125 155.896626)scale(0.11 -0.11)">
       <defs>
        <path d="M 1131 2484 
Q 781 2613 612 2850 
Q 444 3088 444 3419 
Q 444 3919 803 4259 
Q 1163 4600 1759 4600 
Q 2359 4600 2725 4251 
Q 3091 3903 3091 3403 
Q 3091 3084 2923 2848 
Q 2756 2613 2416 2484 
Q 2838 2347 3058 2040 
Q 3278 1734 3278 1309 
Q 3278 722 2862 322 
Q 2447 -78 1769 -78 
Q 1091 -78 675 323 
Q 259 725 259 1325 
Q 259 1772 486 2073 
Q 713 2375 1131 2484 
z
M 1019 3438 
Q 1019 3113 1228 2906 
Q 1438 2700 1772 2700 
Q 2097 2700 2305 2904 
Q 2513 3109 2513 3406 
Q 2513 3716 2298 3927 
Q 2084 4138 1766 4138 
Q 1444 4138 1231 3931 
Q 1019 3725 1019 3438 
z
M 838 1322 
Q 838 1081 952 856 
Q 1066 631 1291 507 
Q 1516 384 1775 384 
Q 2178 384 2440 643 
Q 2703 903 2703 1303 
Q 2703 1709 2433 1975 
Q 2163 2241 1756 2241 
Q 1359 2241 1098 1978 
Q 838 1716 838 1322 
z
" id="ArialMT-38" transform="scale(0.015625)"/>
       </defs>
       <use xlink:href="#ArialMT-38"/>
       <use x="55.615234" xlink:href="#ArialMT-30"/>
       <use x="111.230469" xlink:href="#ArialMT-30"/>
       <use x="166.845703" xlink:href="#ArialMT-30"/>
      </g>
     </g>
    </g>
    <g id="ytick_6">
     <g id="line2d_11">
      <path clip-path="url(#pbd47f56087)" d="M 67.91625 112.913288 
L 447.84 112.913288 
" style="fill:none;stroke:#ffffff;stroke-linecap:round;"/>
     </g>
     <g id="text_11">
      <!-- 10000 -->
      <g style="fill:#262626;" transform="translate(27.831094 116.850085)scale(0.11 -0.11)">
       <use xlink:href="#ArialMT-31"/>
       <use x="55.615234" xlink:href="#ArialMT-30"/>
       <use x="111.230469" xlink:href="#ArialMT-30"/>
       <use x="166.845703" xlink:href="#ArialMT-30"/>
       <use x="222.460938" xlink:href="#ArialMT-30"/>
      </g>
     </g>
    </g>
    <g id="ytick_7">
     <g id="line2d_12">
      <path clip-path="url(#pbd47f56087)" d="M 67.91625 73.866747 
L 447.84 73.866747 
" style="fill:none;stroke:#ffffff;stroke-linecap:round;"/>
     </g>
     <g id="text_12">
      <!-- 12000 -->
      <g style="fill:#262626;" transform="translate(27.831094 77.803544)scale(0.11 -0.11)">
       <use xlink:href="#ArialMT-31"/>
       <use x="55.615234" xlink:href="#ArialMT-32"/>
       <use x="111.230469" xlink:href="#ArialMT-30"/>
       <use x="166.845703" xlink:href="#ArialMT-30"/>
       <use x="222.460938" xlink:href="#ArialMT-30"/>
      </g>
     </g>
    </g>
    <g id="ytick_8">
     <g id="line2d_13">
      <path clip-path="url(#pbd47f56087)" d="M 67.91625 34.820206 
L 447.84 34.820206 
" style="fill:none;stroke:#ffffff;stroke-linecap:round;"/>
     </g>
     <g id="text_13">
      <!-- 14000 -->
      <g style="fill:#262626;" transform="translate(27.831094 38.757003)scale(0.11 -0.11)">
       <use xlink:href="#ArialMT-31"/>
       <use x="55.615234" xlink:href="#ArialMT-34"/>
       <use x="111.230469" xlink:href="#ArialMT-30"/>
       <use x="166.845703" xlink:href="#ArialMT-30"/>
       <use x="222.460938" xlink:href="#ArialMT-30"/>
      </g>
     </g>
    </g>
    <g id="text_14">
     <!-- runtime (s) -->
     <g style="fill:#262626;" transform="translate(21.305469 191.677812)rotate(-90)scale(0.12 -0.12)">
      <defs>
       <path d="M 416 0 
L 416 3319 
L 922 3319 
L 922 2816 
Q 1116 3169 1280 3281 
Q 1444 3394 1641 3394 
Q 1925 3394 2219 3213 
L 2025 2691 
Q 1819 2813 1613 2813 
Q 1428 2813 1281 2702 
Q 1134 2591 1072 2394 
Q 978 2094 978 1738 
L 978 0 
L 416 0 
z
" id="ArialMT-72" transform="scale(0.015625)"/>
       <path d="M 2597 0 
L 2597 488 
Q 2209 -75 1544 -75 
Q 1250 -75 995 37 
Q 741 150 617 320 
Q 494 491 444 738 
Q 409 903 409 1263 
L 409 3319 
L 972 3319 
L 972 1478 
Q 972 1038 1006 884 
Q 1059 663 1231 536 
Q 1403 409 1656 409 
Q 1909 409 2131 539 
Q 2353 669 2445 892 
Q 2538 1116 2538 1541 
L 2538 3319 
L 3100 3319 
L 3100 0 
L 2597 0 
z
" id="ArialMT-75" transform="scale(0.015625)"/>
       <path d="M 422 0 
L 422 3319 
L 928 3319 
L 928 2847 
Q 1294 3394 1984 3394 
Q 2284 3394 2536 3286 
Q 2788 3178 2913 3003 
Q 3038 2828 3088 2588 
Q 3119 2431 3119 2041 
L 3119 0 
L 2556 0 
L 2556 2019 
Q 2556 2363 2490 2533 
Q 2425 2703 2258 2804 
Q 2091 2906 1866 2906 
Q 1506 2906 1245 2678 
Q 984 2450 984 1813 
L 984 0 
L 422 0 
z
" id="ArialMT-6e" transform="scale(0.015625)"/>
       <path d="M 1650 503 
L 1731 6 
Q 1494 -44 1306 -44 
Q 1000 -44 831 53 
Q 663 150 594 308 
Q 525 466 525 972 
L 525 2881 
L 113 2881 
L 113 3319 
L 525 3319 
L 525 4141 
L 1084 4478 
L 1084 3319 
L 1650 3319 
L 1650 2881 
L 1084 2881 
L 1084 941 
Q 1084 700 1114 631 
Q 1144 563 1211 522 
Q 1278 481 1403 481 
Q 1497 481 1650 503 
z
" id="ArialMT-74" transform="scale(0.015625)"/>
       <path d="M 425 3934 
L 425 4581 
L 988 4581 
L 988 3934 
L 425 3934 
z
M 425 0 
L 425 3319 
L 988 3319 
L 988 0 
L 425 0 
z
" id="ArialMT-69" transform="scale(0.015625)"/>
       <path d="M 422 0 
L 422 3319 
L 925 3319 
L 925 2853 
Q 1081 3097 1340 3245 
Q 1600 3394 1931 3394 
Q 2300 3394 2536 3241 
Q 2772 3088 2869 2813 
Q 3263 3394 3894 3394 
Q 4388 3394 4653 3120 
Q 4919 2847 4919 2278 
L 4919 0 
L 4359 0 
L 4359 2091 
Q 4359 2428 4304 2576 
Q 4250 2725 4106 2815 
Q 3963 2906 3769 2906 
Q 3419 2906 3187 2673 
Q 2956 2441 2956 1928 
L 2956 0 
L 2394 0 
L 2394 2156 
Q 2394 2531 2256 2718 
Q 2119 2906 1806 2906 
Q 1569 2906 1367 2781 
Q 1166 2656 1075 2415 
Q 984 2175 984 1722 
L 984 0 
L 422 0 
z
" id="ArialMT-6d" transform="scale(0.015625)"/>
       <path d="M 2694 1069 
L 3275 997 
Q 3138 488 2766 206 
Q 2394 -75 1816 -75 
Q 1088 -75 661 373 
Q 234 822 234 1631 
Q 234 2469 665 2931 
Q 1097 3394 1784 3394 
Q 2450 3394 2872 2941 
Q 3294 2488 3294 1666 
Q 3294 1616 3291 1516 
L 816 1516 
Q 847 969 1125 678 
Q 1403 388 1819 388 
Q 2128 388 2347 550 
Q 2566 713 2694 1069 
z
M 847 1978 
L 2700 1978 
Q 2663 2397 2488 2606 
Q 2219 2931 1791 2931 
Q 1403 2931 1139 2672 
Q 875 2413 847 1978 
z
" id="ArialMT-65" transform="scale(0.015625)"/>
       <path id="ArialMT-20" transform="scale(0.015625)"/>
       <path d="M 1497 -1347 
Q 1031 -759 709 28 
Q 388 816 388 1659 
Q 388 2403 628 3084 
Q 909 3875 1497 4659 
L 1900 4659 
Q 1522 4009 1400 3731 
Q 1209 3300 1100 2831 
Q 966 2247 966 1656 
Q 966 153 1900 -1347 
L 1497 -1347 
z
" id="ArialMT-28" transform="scale(0.015625)"/>
       <path d="M 197 991 
L 753 1078 
Q 800 744 1014 566 
Q 1228 388 1613 388 
Q 2000 388 2187 545 
Q 2375 703 2375 916 
Q 2375 1106 2209 1216 
Q 2094 1291 1634 1406 
Q 1016 1563 777 1677 
Q 538 1791 414 1992 
Q 291 2194 291 2438 
Q 291 2659 392 2848 
Q 494 3038 669 3163 
Q 800 3259 1026 3326 
Q 1253 3394 1513 3394 
Q 1903 3394 2198 3281 
Q 2494 3169 2634 2976 
Q 2775 2784 2828 2463 
L 2278 2388 
Q 2241 2644 2061 2787 
Q 1881 2931 1553 2931 
Q 1166 2931 1000 2803 
Q 834 2675 834 2503 
Q 834 2394 903 2306 
Q 972 2216 1119 2156 
Q 1203 2125 1616 2013 
Q 2213 1853 2448 1751 
Q 2684 1650 2818 1456 
Q 2953 1263 2953 975 
Q 2953 694 2789 445 
Q 2625 197 2315 61 
Q 2006 -75 1616 -75 
Q 969 -75 630 194 
Q 291 463 197 991 
z
" id="ArialMT-73" transform="scale(0.015625)"/>
       <path d="M 791 -1347 
L 388 -1347 
Q 1322 153 1322 1656 
Q 1322 2244 1188 2822 
Q 1081 3291 891 3722 
Q 769 4003 388 4659 
L 791 4659 
Q 1378 3875 1659 3084 
Q 1900 2403 1900 1659 
Q 1900 816 1576 28 
Q 1253 -759 791 -1347 
z
" id="ArialMT-29" transform="scale(0.015625)"/>
      </defs>
      <use xlink:href="#ArialMT-72"/>
      <use x="33.300781" xlink:href="#ArialMT-75"/>
      <use x="88.916016" xlink:href="#ArialMT-6e"/>
      <use x="144.53125" xlink:href="#ArialMT-74"/>
      <use x="172.314453" xlink:href="#ArialMT-69"/>
      <use x="194.53125" xlink:href="#ArialMT-6d"/>
      <use x="277.832031" xlink:href="#ArialMT-65"/>
      <use x="333.447266" xlink:href="#ArialMT-20"/>
      <use x="361.230469" xlink:href="#ArialMT-28"/>
      <use x="394.53125" xlink:href="#ArialMT-73"/>
      <use x="444.53125" xlink:href="#ArialMT-29"/>
     </g>
    </g>
   </g>
   <g id="line2d_14">
    <path clip-path="url(#pbd47f56087)" d="M 85.185511 298.013415 
L 200.259084 298.013415 
L 200.423593 293.933052 
L 315.414911 293.933052 
L 85.185511 284.874254 
L 87.982153 284.874254 
L 200.259084 284.874254 
L 200.423593 26.932805 
L 290.738663 26.932805 
L 85.185511 298.501497 
L 85.267766 298.501497 
L 200.259084 298.501497 
L 200.423593 296.54917 
L 315.414911 296.54917 
L 85.185511 298.325788 
L 99.57999 298.325788 
L 200.259084 298.325788 
L 200.423593 77.829971 
L 313.852082 77.829971 
L 85.185511 298.57959 
L 85.267766 298.57959 
L 200.259084 298.57959 
L 200.423593 258.595932 
L 315.414911 258.595932 
L 315.57942 287.509896 
L 430.570739 287.509896 
L 85.185511 299.087195 
L 88.475678 299.087195 
L 200.259084 299.087195 
L 200.423593 293.757342 
L 315.414911 293.757342 
L 315.57942 286.924198 
L 430.570739 286.924198 
L 85.185511 299.009102 
L 88.31117 299.009102 
L 200.259084 299.009102 
L 200.423593 104.362095 
L 315.414911 104.362095 
L 85.185511 279.505355 
L 85.35002 279.505355 
L 200.259084 279.505355 
L 200.423593 263.984355 
L 315.414911 263.984355 
L 85.185511 298.150078 
L 85.925799 298.150078 
L 200.259084 298.150078 
L 200.423593 250.064263 
L 315.414911 250.064263 
L 85.185511 299.301951 
L 85.679036 299.301951 
L 200.259084 299.301951 
L 200.423593 261.075388 
L 315.414911 261.075388 
L 85.185511 298.228171 
L 85.843545 298.228171 
L 200.259084 298.228171 
L 200.423593 274.214549 
L 315.414911 274.214549 
L 85.185511 299.048149 
L 86.172561 299.048149 
L 200.259084 299.048149 
L 200.423593 292.37119 
L 315.414911 292.37119 
L 315.57942 294.596843 
L 430.570739 294.596843 
L 85.185511 104.459712 
L 85.35002 104.459712 
L 200.259084 104.459712 
L 200.423593 287.23657 
L 315.414911 287.23657 
L 315.57942 26.698525 
L 362.711055 26.698525 
L 85.185511 298.442927 
L 85.267766 298.442927 
L 200.259084 298.442927 
L 200.423593 294.245424 
L 315.414911 294.245424 
L 85.185511 297.954846 
L 92.012607 297.954846 
L 200.259084 297.954846 
L 200.423593 229.896725 
L 315.414911 229.896725 
L 85.185511 260.040654 
L 86.008053 260.040654 
L 200.259084 260.040654 
L 200.423593 224.098313 
L 315.414911 224.098313 
L 85.185511 291.707399 
L 85.514528 291.707399 
L 200.259084 291.707399 
L 200.423593 296.100135 
L 315.414911 296.100135 
L 85.185511 97.70466 
L 85.35002 97.70466 
L 200.259084 97.70466 
L 200.423593 261.563469 
L 315.414911 261.563469 
L 315.57942 293.640203 
L 430.570739 293.640203 
L 85.185511 298.69673 
L 92.752894 298.69673 
L 200.259084 298.69673 
L 200.423593 138.996377 
L 315.414911 138.996377 
L 85.185511 297.779136 
L 85.35002 297.779136 
L 200.259084 297.779136 
L 200.423593 260.567783 
L 315.414911 260.567783 
L 85.185511 95.713287 
L 85.35002 95.713287 
L 200.259084 95.713287 
L 200.423593 288.505583 
L 315.414911 288.505583 
L 315.57942 292.078341 
L 430.570739 292.078341 
L 85.185511 298.618637 
L 91.025557 298.618637 
L 200.259084 298.618637 
L 200.423593 288.271303 
L 315.414911 288.271303 
L 85.185511 298.81387 
L 87.570882 298.81387 
L 200.259084 298.81387 
L 200.423593 265.721926 
L 315.414911 265.721926 
L 85.185511 297.74009 
L 85.925799 297.74009 
L 200.259084 297.74009 
L 200.423593 264.687193 
L 315.414911 264.687193 
L 85.185511 298.071985 
L 85.925799 298.071985 
L 200.259084 298.071985 
L 200.423593 296.900589 
L 315.414911 296.900589 
L 85.185511 299.048149 
L 97.030111 299.048149 
L 200.259084 299.048149 
L 200.423593 289.130327 
L 315.414911 289.130327 
L 85.185511 298.852916 
L 87.817645 298.852916 
L 200.259084 298.852916 
L 200.423593 286.943721 
L 315.414911 286.943721 
L 85.185511 298.989579 
L 87.241865 298.989579 
L 200.259084 298.989579 
L 200.423593 258.654502 
L 313.358557 258.654502 
L 85.185511 299.184812 
L 85.76129 299.184812 
L 200.259084 299.184812 
L 200.423593 274.741677 
L 315.414911 274.741677 
L 85.185511 299.028625 
L 86.172561 299.028625 
L 200.259084 299.028625 
L 200.423593 285.987081 
L 315.414911 285.987081 
L 85.185511 297.974369 
L 87.241865 297.974369 
L 200.259084 297.974369 
L 200.423593 291.35598 
L 315.414911 291.35598 
L 85.185511 285.889464 
L 89.791744 285.889464 
L 200.259084 285.889464 
L 200.423593 278.724424 
L 315.414911 278.724424 
L 85.185511 298.442927 
L 86.419324 298.442927 
L 200.259084 298.442927 
L 200.423593 214.024306 
L 315.414911 214.024306 
L 85.185511 192.548708 
L 86.33707 192.548708 
L 200.259084 192.548708 
L 200.423593 232.669029 
L 315.414911 232.669029 
L 315.57942 294.050192 
L 430.570739 294.050192 
L 85.185511 298.169602 
L 94.480232 298.169602 
L 200.259084 298.169602 
L 200.423593 186.594111 
L 315.414911 186.594111 
L 85.185511 299.419091 
L 85.432274 299.419091 
L 200.259084 299.419091 
L 200.423593 276.381632 
L 315.414911 276.381632 
L 315.57942 280.110576 
L 430.570739 280.110576 
L 85.185511 298.716253 
L 87.241865 298.716253 
L 200.259084 298.716253 
L 200.423593 284.757115 
L 315.414911 284.757115 
L 85.185511 297.525334 
L 87.159611 297.525334 
L 200.259084 297.525334 
L 200.423593 145.029068 
L 315.414911 145.029068 
L 85.185511 298.560067 
L 85.35002 298.560067 
L 200.259084 298.560067 
L 200.423593 247.662901 
L 315.414911 247.662901 
L 85.185511 197.468572 
L 85.679036 197.468572 
L 198.20273 197.468572 
L 198.367239 273.570281 
L 311.302203 273.570281 
L 311.466712 294.57732 
L 426.458031 294.57732 
L 85.185511 283.585719 
L 88.557932 283.585719 
L 200.259084 283.585719 
L 200.423593 122.870156 
L 315.414911 122.870156 
L 85.185511 299.262905 
L 85.35002 299.262905 
L 200.259084 299.262905 
L 200.423593 296.959159 
L 315.414911 296.959159 
L 85.185511 299.087195 
L 97.194619 299.087195 
L 200.259084 299.087195 
L 200.423593 296.60774 
L 315.414911 296.60774 
L 85.185511 299.165288 
L 95.138265 299.165288 
L 200.259084 299.165288 
L 200.423593 26.600909 
L 307.107241 26.600909 
L 85.185511 226.558245 
L 85.35002 226.558245 
L 200.259084 226.558245 
L 200.423593 284.112847 
L 315.414911 284.112847 
L 315.57942 288.857002 
L 430.570739 288.857002 
L 85.185511 298.560067 
L 89.133711 298.560067 
L 200.259084 298.560067 
L 200.423593 262.598203 
L 315.414911 262.598203 
L 85.185511 299.087195 
L 85.843545 299.087195 
L 200.259084 299.087195 
L 200.423593 297.544857 
L 315.414911 297.544857 
L 85.185511 298.540544 
L 110.84881 298.540544 
L 200.259084 298.540544 
L 200.423593 297.466764 
L 315.414911 297.466764 
L 85.185511 299.262905 
L 99.415481 299.262905 
L 200.259084 299.262905 
L 200.423593 280.676751 
L 315.414911 280.676751 
L 315.57942 290.750759 
L 430.570739 290.750759 
L 85.185511 299.262905 
L 89.627236 299.262905 
L 200.259084 299.262905 
L 200.423593 185.266528 
L 315.414911 185.266528 
L 315.414911 185.266528 
" style="fill:none;stroke:#4c72b0;stroke-linecap:round;stroke-width:1.5;"/>
   </g>
   <g id="patch_3">
    <path d="M 67.91625 313.06 
L 67.91625 12.96 
" style="fill:none;stroke:#ffffff;stroke-linecap:square;stroke-linejoin:miter;stroke-width:1.25;"/>
   </g>
   <g id="patch_4">
    <path d="M 447.84 313.06 
L 447.84 12.96 
" style="fill:none;stroke:#ffffff;stroke-linecap:square;stroke-linejoin:miter;stroke-width:1.25;"/>
   </g>
   <g id="patch_5">
    <path d="M 67.91625 313.06 
L 447.84 313.06 
" style="fill:none;stroke:#ffffff;stroke-linecap:square;stroke-linejoin:miter;stroke-width:1.25;"/>
   </g>
   <g id="patch_6">
    <path d="M 67.91625 12.96 
L 447.84 12.96 
" style="fill:none;stroke:#ffffff;stroke-linecap:square;stroke-linejoin:miter;stroke-width:1.25;"/>
   </g>
  </g>
 </g>
 <defs>
  <clipPath id="pbd47f56087">
   <rect height="300.1" width="379.92375" x="67.91625" y="12.96"/>
  </clipPath>
 </defs>
</svg>
