<?xml version="1.0" encoding="utf-8" standalone="no"?>
<!DOCTYPE svg PUBLIC "-//W3C//DTD SVG 1.1//EN"
  "http://www.w3.org/Graphics/SVG/1.1/DTD/svg11.dtd">
<svg height="345.6pt" version="1.1" viewBox="0 0 460.8 345.6" width="460.8pt" xmlns="http://www.w3.org/2000/svg" xmlns:xlink="http://www.w3.org/1999/xlink">
 <metadata>
  <rdf:RDF xmlns:cc="http://creativecommons.org/ns#" xmlns:dc="http://purl.org/dc/elements/1.1/" xmlns:rdf="http://www.w3.org/1999/02/22-rdf-syntax-ns#">
   <cc:Work>
    <dc:type rdf:resource="http://purl.org/dc/dcmitype/StillImage"/>
    <dc:date>2021-11-20T20:49:46.180504</dc:date>
    <dc:format>image/svg+xml</dc:format>
    <dc:creator>
     <cc:Agent>
      <dc:title>Matplotlib v3.4.3, https://matplotlib.org/</dc:title>
     </cc:Agent>
    </dc:creator>
   </cc:Work>
  </rdf:RDF>
 </metadata>
 <defs>
  <style type="text/css">*{stroke-linecap:butt;stroke-linejoin:round;}</style>
 </defs>
 <g id="figure_1">
  <g id="patch_1">
   <path d="M 0 345.6 
L 460.8 345.6 
L 460.8 0 
L 0 0 
z
" style="fill:#ffffff;"/>
  </g>
  <g id="axes_1">
   <g id="patch_2">
    <path d="M 37.85 298.26 
L 443.837312 298.26 
L 443.837312 27.65625 
L 37.85 27.65625 
z
" style="fill:#eaeaf2;"/>
   </g>
   <g id="matplotlib.axis_1">
    <g id="xtick_1">
     <g id="line2d_1">
      <path clip-path="url(#pae4c2529f2)" d="M 40.257039 298.26 
L 40.257039 27.65625 
" style="fill:none;stroke:#ffffff;stroke-linecap:round;"/>
     </g>
     <g id="text_1">
      <!-- 0 -->
      <g style="fill:#262626;" transform="translate(37.198524 315.633594)scale(0.11 -0.11)">
       <defs>
        <path d="M 266 2259 
Q 266 3072 433 3567 
Q 600 4063 929 4331 
Q 1259 4600 1759 4600 
Q 2128 4600 2406 4451 
Q 2684 4303 2865 4023 
Q 3047 3744 3150 3342 
Q 3253 2941 3253 2259 
Q 3253 1453 3087 958 
Q 2922 463 2592 192 
Q 2263 -78 1759 -78 
Q 1097 -78 719 397 
Q 266 969 266 2259 
z
M 844 2259 
Q 844 1131 1108 757 
Q 1372 384 1759 384 
Q 2147 384 2411 759 
Q 2675 1134 2675 2259 
Q 2675 3391 2411 3762 
Q 2147 4134 1753 4134 
Q 1366 4134 1134 3806 
Q 844 3388 844 2259 
z
" id="ArialMT-30" transform="scale(0.015625)"/>
       </defs>
       <use xlink:href="#ArialMT-30"/>
      </g>
     </g>
    </g>
    <g id="xtick_2">
     <g id="line2d_2">
      <path clip-path="url(#pae4c2529f2)" d="M 120.491686 298.26 
L 120.491686 27.65625 
" style="fill:none;stroke:#ffffff;stroke-linecap:round;"/>
     </g>
     <g id="text_2">
      <!-- 10 -->
      <g style="fill:#262626;" transform="translate(114.374655 315.633594)scale(0.11 -0.11)">
       <defs>
        <path d="M 2384 0 
L 1822 0 
L 1822 3584 
Q 1619 3391 1289 3197 
Q 959 3003 697 2906 
L 697 3450 
Q 1169 3672 1522 3987 
Q 1875 4303 2022 4600 
L 2384 4600 
L 2384 0 
z
" id="ArialMT-31" transform="scale(0.015625)"/>
       </defs>
       <use xlink:href="#ArialMT-31"/>
       <use x="55.615234" xlink:href="#ArialMT-30"/>
      </g>
     </g>
    </g>
    <g id="xtick_3">
     <g id="line2d_3">
      <path clip-path="url(#pae4c2529f2)" d="M 200.726333 298.26 
L 200.726333 27.65625 
" style="fill:none;stroke:#ffffff;stroke-linecap:round;"/>
     </g>
     <g id="text_3">
      <!-- 20 -->
      <g style="fill:#262626;" transform="translate(194.609302 315.633594)scale(0.11 -0.11)">
       <defs>
        <path d="M 3222 541 
L 3222 0 
L 194 0 
Q 188 203 259 391 
Q 375 700 629 1000 
Q 884 1300 1366 1694 
Q 2113 2306 2375 2664 
Q 2638 3022 2638 3341 
Q 2638 3675 2398 3904 
Q 2159 4134 1775 4134 
Q 1369 4134 1125 3890 
Q 881 3647 878 3216 
L 300 3275 
Q 359 3922 746 4261 
Q 1134 4600 1788 4600 
Q 2447 4600 2831 4234 
Q 3216 3869 3216 3328 
Q 3216 3053 3103 2787 
Q 2991 2522 2730 2228 
Q 2469 1934 1863 1422 
Q 1356 997 1212 845 
Q 1069 694 975 541 
L 3222 541 
z
" id="ArialMT-32" transform="scale(0.015625)"/>
       </defs>
       <use xlink:href="#ArialMT-32"/>
       <use x="55.615234" xlink:href="#ArialMT-30"/>
      </g>
     </g>
    </g>
    <g id="xtick_4">
     <g id="line2d_4">
      <path clip-path="url(#pae4c2529f2)" d="M 280.960979 298.26 
L 280.960979 27.65625 
" style="fill:none;stroke:#ffffff;stroke-linecap:round;"/>
     </g>
     <g id="text_4">
      <!-- 30 -->
      <g style="fill:#262626;" transform="translate(274.843948 315.633594)scale(0.11 -0.11)">
       <defs>
        <path d="M 269 1209 
L 831 1284 
Q 928 806 1161 595 
Q 1394 384 1728 384 
Q 2125 384 2398 659 
Q 2672 934 2672 1341 
Q 2672 1728 2419 1979 
Q 2166 2231 1775 2231 
Q 1616 2231 1378 2169 
L 1441 2663 
Q 1497 2656 1531 2656 
Q 1891 2656 2178 2843 
Q 2466 3031 2466 3422 
Q 2466 3731 2256 3934 
Q 2047 4138 1716 4138 
Q 1388 4138 1169 3931 
Q 950 3725 888 3313 
L 325 3413 
Q 428 3978 793 4289 
Q 1159 4600 1703 4600 
Q 2078 4600 2393 4439 
Q 2709 4278 2876 4000 
Q 3044 3722 3044 3409 
Q 3044 3113 2884 2869 
Q 2725 2625 2413 2481 
Q 2819 2388 3044 2092 
Q 3269 1797 3269 1353 
Q 3269 753 2831 336 
Q 2394 -81 1725 -81 
Q 1122 -81 723 278 
Q 325 638 269 1209 
z
" id="ArialMT-33" transform="scale(0.015625)"/>
       </defs>
       <use xlink:href="#ArialMT-33"/>
       <use x="55.615234" xlink:href="#ArialMT-30"/>
      </g>
     </g>
    </g>
    <g id="xtick_5">
     <g id="line2d_5">
      <path clip-path="url(#pae4c2529f2)" d="M 361.195626 298.26 
L 361.195626 27.65625 
" style="fill:none;stroke:#ffffff;stroke-linecap:round;"/>
     </g>
     <g id="text_5">
      <!-- 40 -->
      <g style="fill:#262626;" transform="translate(355.078595 315.633594)scale(0.11 -0.11)">
       <defs>
        <path d="M 2069 0 
L 2069 1097 
L 81 1097 
L 81 1613 
L 2172 4581 
L 2631 4581 
L 2631 1613 
L 3250 1613 
L 3250 1097 
L 2631 1097 
L 2631 0 
L 2069 0 
z
M 2069 1613 
L 2069 3678 
L 634 1613 
L 2069 1613 
z
" id="ArialMT-34" transform="scale(0.015625)"/>
       </defs>
       <use xlink:href="#ArialMT-34"/>
       <use x="55.615234" xlink:href="#ArialMT-30"/>
      </g>
     </g>
    </g>
    <g id="xtick_6">
     <g id="line2d_6">
      <path clip-path="url(#pae4c2529f2)" d="M 441.430273 298.26 
L 441.430273 27.65625 
" style="fill:none;stroke:#ffffff;stroke-linecap:round;"/>
     </g>
     <g id="text_6">
      <!-- 50 -->
      <g style="fill:#262626;" transform="translate(435.313242 315.633594)scale(0.11 -0.11)">
       <defs>
        <path d="M 266 1200 
L 856 1250 
Q 922 819 1161 601 
Q 1400 384 1738 384 
Q 2144 384 2425 690 
Q 2706 997 2706 1503 
Q 2706 1984 2436 2262 
Q 2166 2541 1728 2541 
Q 1456 2541 1237 2417 
Q 1019 2294 894 2097 
L 366 2166 
L 809 4519 
L 3088 4519 
L 3088 3981 
L 1259 3981 
L 1013 2750 
Q 1425 3038 1878 3038 
Q 2478 3038 2890 2622 
Q 3303 2206 3303 1553 
Q 3303 931 2941 478 
Q 2500 -78 1738 -78 
Q 1113 -78 717 272 
Q 322 622 266 1200 
z
" id="ArialMT-35" transform="scale(0.015625)"/>
       </defs>
       <use xlink:href="#ArialMT-35"/>
       <use x="55.615234" xlink:href="#ArialMT-30"/>
      </g>
     </g>
    </g>
    <g id="text_7">
     <!-- Number of processes -->
     <g style="fill:#262626;" transform="translate(183.823969 330.555469)scale(0.12 -0.12)">
      <defs>
       <path d="M 488 0 
L 488 4581 
L 1109 4581 
L 3516 984 
L 3516 4581 
L 4097 4581 
L 4097 0 
L 3475 0 
L 1069 3600 
L 1069 0 
L 488 0 
z
" id="ArialMT-4e" transform="scale(0.015625)"/>
       <path d="M 2597 0 
L 2597 488 
Q 2209 -75 1544 -75 
Q 1250 -75 995 37 
Q 741 150 617 320 
Q 494 491 444 738 
Q 409 903 409 1263 
L 409 3319 
L 972 3319 
L 972 1478 
Q 972 1038 1006 884 
Q 1059 663 1231 536 
Q 1403 409 1656 409 
Q 1909 409 2131 539 
Q 2353 669 2445 892 
Q 2538 1116 2538 1541 
L 2538 3319 
L 3100 3319 
L 3100 0 
L 2597 0 
z
" id="ArialMT-75" transform="scale(0.015625)"/>
       <path d="M 422 0 
L 422 3319 
L 925 3319 
L 925 2853 
Q 1081 3097 1340 3245 
Q 1600 3394 1931 3394 
Q 2300 3394 2536 3241 
Q 2772 3088 2869 2813 
Q 3263 3394 3894 3394 
Q 4388 3394 4653 3120 
Q 4919 2847 4919 2278 
L 4919 0 
L 4359 0 
L 4359 2091 
Q 4359 2428 4304 2576 
Q 4250 2725 4106 2815 
Q 3963 2906 3769 2906 
Q 3419 2906 3187 2673 
Q 2956 2441 2956 1928 
L 2956 0 
L 2394 0 
L 2394 2156 
Q 2394 2531 2256 2718 
Q 2119 2906 1806 2906 
Q 1569 2906 1367 2781 
Q 1166 2656 1075 2415 
Q 984 2175 984 1722 
L 984 0 
L 422 0 
z
" id="ArialMT-6d" transform="scale(0.015625)"/>
       <path d="M 941 0 
L 419 0 
L 419 4581 
L 981 4581 
L 981 2947 
Q 1338 3394 1891 3394 
Q 2197 3394 2470 3270 
Q 2744 3147 2920 2923 
Q 3097 2700 3197 2384 
Q 3297 2069 3297 1709 
Q 3297 856 2875 390 
Q 2453 -75 1863 -75 
Q 1275 -75 941 416 
L 941 0 
z
M 934 1684 
Q 934 1088 1097 822 
Q 1363 388 1816 388 
Q 2184 388 2453 708 
Q 2722 1028 2722 1663 
Q 2722 2313 2464 2622 
Q 2206 2931 1841 2931 
Q 1472 2931 1203 2611 
Q 934 2291 934 1684 
z
" id="ArialMT-62" transform="scale(0.015625)"/>
       <path d="M 2694 1069 
L 3275 997 
Q 3138 488 2766 206 
Q 2394 -75 1816 -75 
Q 1088 -75 661 373 
Q 234 822 234 1631 
Q 234 2469 665 2931 
Q 1097 3394 1784 3394 
Q 2450 3394 2872 2941 
Q 3294 2488 3294 1666 
Q 3294 1616 3291 1516 
L 816 1516 
Q 847 969 1125 678 
Q 1403 388 1819 388 
Q 2128 388 2347 550 
Q 2566 713 2694 1069 
z
M 847 1978 
L 2700 1978 
Q 2663 2397 2488 2606 
Q 2219 2931 1791 2931 
Q 1403 2931 1139 2672 
Q 875 2413 847 1978 
z
" id="ArialMT-65" transform="scale(0.015625)"/>
       <path d="M 416 0 
L 416 3319 
L 922 3319 
L 922 2816 
Q 1116 3169 1280 3281 
Q 1444 3394 1641 3394 
Q 1925 3394 2219 3213 
L 2025 2691 
Q 1819 2813 1613 2813 
Q 1428 2813 1281 2702 
Q 1134 2591 1072 2394 
Q 978 2094 978 1738 
L 978 0 
L 416 0 
z
" id="ArialMT-72" transform="scale(0.015625)"/>
       <path id="ArialMT-20" transform="scale(0.015625)"/>
       <path d="M 213 1659 
Q 213 2581 725 3025 
Q 1153 3394 1769 3394 
Q 2453 3394 2887 2945 
Q 3322 2497 3322 1706 
Q 3322 1066 3130 698 
Q 2938 331 2570 128 
Q 2203 -75 1769 -75 
Q 1072 -75 642 372 
Q 213 819 213 1659 
z
M 791 1659 
Q 791 1022 1069 705 
Q 1347 388 1769 388 
Q 2188 388 2466 706 
Q 2744 1025 2744 1678 
Q 2744 2294 2464 2611 
Q 2184 2928 1769 2928 
Q 1347 2928 1069 2612 
Q 791 2297 791 1659 
z
" id="ArialMT-6f" transform="scale(0.015625)"/>
       <path d="M 556 0 
L 556 2881 
L 59 2881 
L 59 3319 
L 556 3319 
L 556 3672 
Q 556 4006 616 4169 
Q 697 4388 901 4523 
Q 1106 4659 1475 4659 
Q 1713 4659 2000 4603 
L 1916 4113 
Q 1741 4144 1584 4144 
Q 1328 4144 1222 4034 
Q 1116 3925 1116 3625 
L 1116 3319 
L 1763 3319 
L 1763 2881 
L 1116 2881 
L 1116 0 
L 556 0 
z
" id="ArialMT-66" transform="scale(0.015625)"/>
       <path d="M 422 -1272 
L 422 3319 
L 934 3319 
L 934 2888 
Q 1116 3141 1344 3267 
Q 1572 3394 1897 3394 
Q 2322 3394 2647 3175 
Q 2972 2956 3137 2557 
Q 3303 2159 3303 1684 
Q 3303 1175 3120 767 
Q 2938 359 2589 142 
Q 2241 -75 1856 -75 
Q 1575 -75 1351 44 
Q 1128 163 984 344 
L 984 -1272 
L 422 -1272 
z
M 931 1641 
Q 931 1000 1190 694 
Q 1450 388 1819 388 
Q 2194 388 2461 705 
Q 2728 1022 2728 1688 
Q 2728 2322 2467 2637 
Q 2206 2953 1844 2953 
Q 1484 2953 1207 2617 
Q 931 2281 931 1641 
z
" id="ArialMT-70" transform="scale(0.015625)"/>
       <path d="M 2588 1216 
L 3141 1144 
Q 3050 572 2676 248 
Q 2303 -75 1759 -75 
Q 1078 -75 664 370 
Q 250 816 250 1647 
Q 250 2184 428 2587 
Q 606 2991 970 3192 
Q 1334 3394 1763 3394 
Q 2303 3394 2647 3120 
Q 2991 2847 3088 2344 
L 2541 2259 
Q 2463 2594 2264 2762 
Q 2066 2931 1784 2931 
Q 1359 2931 1093 2626 
Q 828 2322 828 1663 
Q 828 994 1084 691 
Q 1341 388 1753 388 
Q 2084 388 2306 591 
Q 2528 794 2588 1216 
z
" id="ArialMT-63" transform="scale(0.015625)"/>
       <path d="M 197 991 
L 753 1078 
Q 800 744 1014 566 
Q 1228 388 1613 388 
Q 2000 388 2187 545 
Q 2375 703 2375 916 
Q 2375 1106 2209 1216 
Q 2094 1291 1634 1406 
Q 1016 1563 777 1677 
Q 538 1791 414 1992 
Q 291 2194 291 2438 
Q 291 2659 392 2848 
Q 494 3038 669 3163 
Q 800 3259 1026 3326 
Q 1253 3394 1513 3394 
Q 1903 3394 2198 3281 
Q 2494 3169 2634 2976 
Q 2775 2784 2828 2463 
L 2278 2388 
Q 2241 2644 2061 2787 
Q 1881 2931 1553 2931 
Q 1166 2931 1000 2803 
Q 834 2675 834 2503 
Q 834 2394 903 2306 
Q 972 2216 1119 2156 
Q 1203 2125 1616 2013 
Q 2213 1853 2448 1751 
Q 2684 1650 2818 1456 
Q 2953 1263 2953 975 
Q 2953 694 2789 445 
Q 2625 197 2315 61 
Q 2006 -75 1616 -75 
Q 969 -75 630 194 
Q 291 463 197 991 
z
" id="ArialMT-73" transform="scale(0.015625)"/>
      </defs>
      <use xlink:href="#ArialMT-4e"/>
      <use x="72.216797" xlink:href="#ArialMT-75"/>
      <use x="127.832031" xlink:href="#ArialMT-6d"/>
      <use x="211.132812" xlink:href="#ArialMT-62"/>
      <use x="266.748047" xlink:href="#ArialMT-65"/>
      <use x="322.363281" xlink:href="#ArialMT-72"/>
      <use x="355.664062" xlink:href="#ArialMT-20"/>
      <use x="383.447266" xlink:href="#ArialMT-6f"/>
      <use x="439.0625" xlink:href="#ArialMT-66"/>
      <use x="466.845703" xlink:href="#ArialMT-20"/>
      <use x="494.628906" xlink:href="#ArialMT-70"/>
      <use x="550.244141" xlink:href="#ArialMT-72"/>
      <use x="583.544922" xlink:href="#ArialMT-6f"/>
      <use x="639.160156" xlink:href="#ArialMT-63"/>
      <use x="689.160156" xlink:href="#ArialMT-65"/>
      <use x="744.775391" xlink:href="#ArialMT-73"/>
      <use x="794.775391" xlink:href="#ArialMT-73"/>
      <use x="844.775391" xlink:href="#ArialMT-65"/>
      <use x="900.390625" xlink:href="#ArialMT-73"/>
     </g>
    </g>
   </g>
   <g id="matplotlib.axis_2">
    <g id="ytick_1">
     <g id="line2d_7">
      <path clip-path="url(#pae4c2529f2)" d="M 37.85 298.26 
L 443.837312 298.26 
" style="fill:none;stroke:#ffffff;stroke-linecap:round;"/>
     </g>
     <g id="text_8">
      <!-- 0.0 -->
      <g style="fill:#262626;" transform="translate(13.06 302.196797)scale(0.11 -0.11)">
       <defs>
        <path d="M 581 0 
L 581 641 
L 1222 641 
L 1222 0 
L 581 0 
z
" id="ArialMT-2e" transform="scale(0.015625)"/>
       </defs>
       <use xlink:href="#ArialMT-30"/>
       <use x="55.615234" xlink:href="#ArialMT-2e"/>
       <use x="83.398438" xlink:href="#ArialMT-30"/>
      </g>
     </g>
    </g>
    <g id="ytick_2">
     <g id="line2d_8">
      <path clip-path="url(#pae4c2529f2)" d="M 37.85 244.13925 
L 443.837312 244.13925 
" style="fill:none;stroke:#ffffff;stroke-linecap:round;"/>
     </g>
     <g id="text_9">
      <!-- 0.2 -->
      <g style="fill:#262626;" transform="translate(13.06 248.076047)scale(0.11 -0.11)">
       <use xlink:href="#ArialMT-30"/>
       <use x="55.615234" xlink:href="#ArialMT-2e"/>
       <use x="83.398438" xlink:href="#ArialMT-32"/>
      </g>
     </g>
    </g>
    <g id="ytick_3">
     <g id="line2d_9">
      <path clip-path="url(#pae4c2529f2)" d="M 37.85 190.0185 
L 443.837312 190.0185 
" style="fill:none;stroke:#ffffff;stroke-linecap:round;"/>
     </g>
     <g id="text_10">
      <!-- 0.4 -->
      <g style="fill:#262626;" transform="translate(13.06 193.955297)scale(0.11 -0.11)">
       <use xlink:href="#ArialMT-30"/>
       <use x="55.615234" xlink:href="#ArialMT-2e"/>
       <use x="83.398438" xlink:href="#ArialMT-34"/>
      </g>
     </g>
    </g>
    <g id="ytick_4">
     <g id="line2d_10">
      <path clip-path="url(#pae4c2529f2)" d="M 37.85 135.89775 
L 443.837312 135.89775 
" style="fill:none;stroke:#ffffff;stroke-linecap:round;"/>
     </g>
     <g id="text_11">
      <!-- 0.6 -->
      <g style="fill:#262626;" transform="translate(13.06 139.834547)scale(0.11 -0.11)">
       <defs>
        <path d="M 3184 3459 
L 2625 3416 
Q 2550 3747 2413 3897 
Q 2184 4138 1850 4138 
Q 1581 4138 1378 3988 
Q 1113 3794 959 3422 
Q 806 3050 800 2363 
Q 1003 2672 1297 2822 
Q 1591 2972 1913 2972 
Q 2475 2972 2870 2558 
Q 3266 2144 3266 1488 
Q 3266 1056 3080 686 
Q 2894 316 2569 119 
Q 2244 -78 1831 -78 
Q 1128 -78 684 439 
Q 241 956 241 2144 
Q 241 3472 731 4075 
Q 1159 4600 1884 4600 
Q 2425 4600 2770 4297 
Q 3116 3994 3184 3459 
z
M 888 1484 
Q 888 1194 1011 928 
Q 1134 663 1356 523 
Q 1578 384 1822 384 
Q 2178 384 2434 671 
Q 2691 959 2691 1453 
Q 2691 1928 2437 2201 
Q 2184 2475 1800 2475 
Q 1419 2475 1153 2201 
Q 888 1928 888 1484 
z
" id="ArialMT-36" transform="scale(0.015625)"/>
       </defs>
       <use xlink:href="#ArialMT-30"/>
       <use x="55.615234" xlink:href="#ArialMT-2e"/>
       <use x="83.398438" xlink:href="#ArialMT-36"/>
      </g>
     </g>
    </g>
    <g id="ytick_5">
     <g id="line2d_11">
      <path clip-path="url(#pae4c2529f2)" d="M 37.85 81.777 
L 443.837312 81.777 
" style="fill:none;stroke:#ffffff;stroke-linecap:round;"/>
     </g>
     <g id="text_12">
      <!-- 0.8 -->
      <g style="fill:#262626;" transform="translate(13.06 85.713797)scale(0.11 -0.11)">
       <defs>
        <path d="M 1131 2484 
Q 781 2613 612 2850 
Q 444 3088 444 3419 
Q 444 3919 803 4259 
Q 1163 4600 1759 4600 
Q 2359 4600 2725 4251 
Q 3091 3903 3091 3403 
Q 3091 3084 2923 2848 
Q 2756 2613 2416 2484 
Q 2838 2347 3058 2040 
Q 3278 1734 3278 1309 
Q 3278 722 2862 322 
Q 2447 -78 1769 -78 
Q 1091 -78 675 323 
Q 259 725 259 1325 
Q 259 1772 486 2073 
Q 713 2375 1131 2484 
z
M 1019 3438 
Q 1019 3113 1228 2906 
Q 1438 2700 1772 2700 
Q 2097 2700 2305 2904 
Q 2513 3109 2513 3406 
Q 2513 3716 2298 3927 
Q 2084 4138 1766 4138 
Q 1444 4138 1231 3931 
Q 1019 3725 1019 3438 
z
M 838 1322 
Q 838 1081 952 856 
Q 1066 631 1291 507 
Q 1516 384 1775 384 
Q 2178 384 2440 643 
Q 2703 903 2703 1303 
Q 2703 1709 2433 1975 
Q 2163 2241 1756 2241 
Q 1359 2241 1098 1978 
Q 838 1716 838 1322 
z
" id="ArialMT-38" transform="scale(0.015625)"/>
       </defs>
       <use xlink:href="#ArialMT-30"/>
       <use x="55.615234" xlink:href="#ArialMT-2e"/>
       <use x="83.398438" xlink:href="#ArialMT-38"/>
      </g>
     </g>
    </g>
    <g id="ytick_6">
     <g id="line2d_12">
      <path clip-path="url(#pae4c2529f2)" d="M 37.85 27.65625 
L 443.837312 27.65625 
" style="fill:none;stroke:#ffffff;stroke-linecap:round;"/>
     </g>
     <g id="text_13">
      <!-- 1.0 -->
      <g style="fill:#262626;" transform="translate(13.06 31.593047)scale(0.11 -0.11)">
       <use xlink:href="#ArialMT-31"/>
       <use x="55.615234" xlink:href="#ArialMT-2e"/>
       <use x="83.398438" xlink:href="#ArialMT-30"/>
      </g>
     </g>
    </g>
   </g>
   <g id="line2d_13">
    <path clip-path="url(#pae4c2529f2)" d="M 56.303969 282.104552 
L 72.350898 287.648088 
L 88.397827 289.99729 
L 104.444757 291.365637 
L 120.491686 292.074771 
L 136.538615 293.005558 
L 152.585545 293.512474 
L 168.632474 293.981613 
L 184.679403 294.265849 
L 200.726333 294.687518 
L 216.773262 297.322329 
L 232.820191 295.00455 
L 248.867121 294.944785 
L 264.91405 295.127099 
L 280.960979 295.358062 
L 297.007909 295.484504 
L 313.054838 295.495206 
L 329.101767 295.707078 
L 345.148697 295.840516 
L 361.195626 295.742701 
L 377.242556 295.791548 
L 393.289485 295.92216 
L 409.336414 295.988403 
L 425.383344 296.54003 
" style="fill:none;stroke:#4c72b0;stroke-linecap:round;stroke-width:1.5;"/>
    <defs>
     <path d="M 0 3 
C 0.795609 3 1.55874 2.683901 2.12132 2.12132 
C 2.683901 1.55874 3 0.795609 3 0 
C 3 -0.795609 2.683901 -1.55874 2.12132 -2.12132 
C 1.55874 -2.683901 0.795609 -3 0 -3 
C -0.795609 -3 -1.55874 -2.683901 -2.12132 -2.12132 
C -2.683901 -1.55874 -3 -0.795609 -3 0 
C -3 0.795609 -2.683901 1.55874 -2.12132 2.12132 
C -1.55874 2.683901 -0.795609 3 0 3 
z
" id="m50ec1d99c0" style="stroke:#4c72b0;"/>
    </defs>
    <g clip-path="url(#pae4c2529f2)">
     <use style="fill:#4c72b0;stroke:#4c72b0;" x="56.303969" xlink:href="#m50ec1d99c0" y="282.104552"/>
     <use style="fill:#4c72b0;stroke:#4c72b0;" x="72.350898" xlink:href="#m50ec1d99c0" y="287.648088"/>
     <use style="fill:#4c72b0;stroke:#4c72b0;" x="88.397827" xlink:href="#m50ec1d99c0" y="289.99729"/>
     <use style="fill:#4c72b0;stroke:#4c72b0;" x="104.444757" xlink:href="#m50ec1d99c0" y="291.365637"/>
     <use style="fill:#4c72b0;stroke:#4c72b0;" x="120.491686" xlink:href="#m50ec1d99c0" y="292.074771"/>
     <use style="fill:#4c72b0;stroke:#4c72b0;" x="136.538615" xlink:href="#m50ec1d99c0" y="293.005558"/>
     <use style="fill:#4c72b0;stroke:#4c72b0;" x="152.585545" xlink:href="#m50ec1d99c0" y="293.512474"/>
     <use style="fill:#4c72b0;stroke:#4c72b0;" x="168.632474" xlink:href="#m50ec1d99c0" y="293.981613"/>
     <use style="fill:#4c72b0;stroke:#4c72b0;" x="184.679403" xlink:href="#m50ec1d99c0" y="294.265849"/>
     <use style="fill:#4c72b0;stroke:#4c72b0;" x="200.726333" xlink:href="#m50ec1d99c0" y="294.687518"/>
     <use style="fill:#4c72b0;stroke:#4c72b0;" x="216.773262" xlink:href="#m50ec1d99c0" y="297.322329"/>
     <use style="fill:#4c72b0;stroke:#4c72b0;" x="232.820191" xlink:href="#m50ec1d99c0" y="295.00455"/>
     <use style="fill:#4c72b0;stroke:#4c72b0;" x="248.867121" xlink:href="#m50ec1d99c0" y="294.944785"/>
     <use style="fill:#4c72b0;stroke:#4c72b0;" x="264.91405" xlink:href="#m50ec1d99c0" y="295.127099"/>
     <use style="fill:#4c72b0;stroke:#4c72b0;" x="280.960979" xlink:href="#m50ec1d99c0" y="295.358062"/>
     <use style="fill:#4c72b0;stroke:#4c72b0;" x="297.007909" xlink:href="#m50ec1d99c0" y="295.484504"/>
     <use style="fill:#4c72b0;stroke:#4c72b0;" x="313.054838" xlink:href="#m50ec1d99c0" y="295.495206"/>
     <use style="fill:#4c72b0;stroke:#4c72b0;" x="329.101767" xlink:href="#m50ec1d99c0" y="295.707078"/>
     <use style="fill:#4c72b0;stroke:#4c72b0;" x="345.148697" xlink:href="#m50ec1d99c0" y="295.840516"/>
     <use style="fill:#4c72b0;stroke:#4c72b0;" x="361.195626" xlink:href="#m50ec1d99c0" y="295.742701"/>
     <use style="fill:#4c72b0;stroke:#4c72b0;" x="377.242556" xlink:href="#m50ec1d99c0" y="295.791548"/>
     <use style="fill:#4c72b0;stroke:#4c72b0;" x="393.289485" xlink:href="#m50ec1d99c0" y="295.92216"/>
     <use style="fill:#4c72b0;stroke:#4c72b0;" x="409.336414" xlink:href="#m50ec1d99c0" y="295.988403"/>
     <use style="fill:#4c72b0;stroke:#4c72b0;" x="425.383344" xlink:href="#m50ec1d99c0" y="296.54003"/>
    </g>
   </g>
   <g id="line2d_14">
    <path clip-path="url(#pae4c2529f2)" d="M 56.303969 273.932996 
L 72.350898 278.459726 
M 104.444757 282.859787 
M 168.632474 280.968849 
M 297.007909 286.082527 
" style="fill:none;stroke:#dd8452;stroke-linecap:round;stroke-width:1.5;"/>
    <defs>
     <path d="M 0 3 
C 0.795609 3 1.55874 2.683901 2.12132 2.12132 
C 2.683901 1.55874 3 0.795609 3 0 
C 3 -0.795609 2.683901 -1.55874 2.12132 -2.12132 
C 1.55874 -2.683901 0.795609 -3 0 -3 
C -0.795609 -3 -1.55874 -2.683901 -2.12132 -2.12132 
C -2.683901 -1.55874 -3 -0.795609 -3 0 
C -3 0.795609 -2.683901 1.55874 -2.12132 2.12132 
C -1.55874 2.683901 -0.795609 3 0 3 
z
" id="m5e5435bee2" style="stroke:#dd8452;"/>
    </defs>
    <g clip-path="url(#pae4c2529f2)">
     <use style="fill:#dd8452;stroke:#dd8452;" x="56.303969" xlink:href="#m5e5435bee2" y="273.932996"/>
     <use style="fill:#dd8452;stroke:#dd8452;" x="72.350898" xlink:href="#m5e5435bee2" y="278.459726"/>
     <use style="fill:#dd8452;stroke:#dd8452;" x="104.444757" xlink:href="#m5e5435bee2" y="282.859787"/>
     <use style="fill:#dd8452;stroke:#dd8452;" x="168.632474" xlink:href="#m5e5435bee2" y="280.968849"/>
     <use style="fill:#dd8452;stroke:#dd8452;" x="297.007909" xlink:href="#m5e5435bee2" y="286.082527"/>
    </g>
   </g>
   <g id="line2d_15">
    <path clip-path="url(#pae4c2529f2)" d="M 56.303969 284.558544 
L 72.350898 292.779383 
L 88.397827 294.757039 
L 104.444757 295.783078 
L 120.491686 295.799966 
L 136.538615 296.651657 
L 152.585545 296.559159 
L 168.632474 297.075624 
L 184.679403 297.196724 
L 200.726333 297.477342 
L 216.773262 297.573182 
L 232.820191 297.479037 
L 248.867121 297.544823 
L 264.91405 297.592872 
L 280.960979 297.655805 
L 297.007909 297.68805 
L 313.054838 297.715663 
L 329.101767 297.74185 
L 345.148697 297.652992 
L 361.195626 297.79979 
L 377.242556 297.828673 
L 393.289485 297.842482 
L 409.336414 297.859773 
L 425.383344 297.777468 
" style="fill:none;stroke:#55a868;stroke-linecap:round;stroke-width:1.5;"/>
    <defs>
     <path d="M 0 3 
C 0.795609 3 1.55874 2.683901 2.12132 2.12132 
C 2.683901 1.55874 3 0.795609 3 0 
C 3 -0.795609 2.683901 -1.55874 2.12132 -2.12132 
C 1.55874 -2.683901 0.795609 -3 0 -3 
C -0.795609 -3 -1.55874 -2.683901 -2.12132 -2.12132 
C -2.683901 -1.55874 -3 -0.795609 -3 0 
C -3 0.795609 -2.683901 1.55874 -2.12132 2.12132 
C -1.55874 2.683901 -0.795609 3 0 3 
z
" id="m720dfce8e6" style="stroke:#55a868;"/>
    </defs>
    <g clip-path="url(#pae4c2529f2)">
     <use style="fill:#55a868;stroke:#55a868;" x="56.303969" xlink:href="#m720dfce8e6" y="284.558544"/>
     <use style="fill:#55a868;stroke:#55a868;" x="72.350898" xlink:href="#m720dfce8e6" y="292.779383"/>
     <use style="fill:#55a868;stroke:#55a868;" x="88.397827" xlink:href="#m720dfce8e6" y="294.757039"/>
     <use style="fill:#55a868;stroke:#55a868;" x="104.444757" xlink:href="#m720dfce8e6" y="295.783078"/>
     <use style="fill:#55a868;stroke:#55a868;" x="120.491686" xlink:href="#m720dfce8e6" y="295.799966"/>
     <use style="fill:#55a868;stroke:#55a868;" x="136.538615" xlink:href="#m720dfce8e6" y="296.651657"/>
     <use style="fill:#55a868;stroke:#55a868;" x="152.585545" xlink:href="#m720dfce8e6" y="296.559159"/>
     <use style="fill:#55a868;stroke:#55a868;" x="168.632474" xlink:href="#m720dfce8e6" y="297.075624"/>
     <use style="fill:#55a868;stroke:#55a868;" x="184.679403" xlink:href="#m720dfce8e6" y="297.196724"/>
     <use style="fill:#55a868;stroke:#55a868;" x="200.726333" xlink:href="#m720dfce8e6" y="297.477342"/>
     <use style="fill:#55a868;stroke:#55a868;" x="216.773262" xlink:href="#m720dfce8e6" y="297.573182"/>
     <use style="fill:#55a868;stroke:#55a868;" x="232.820191" xlink:href="#m720dfce8e6" y="297.479037"/>
     <use style="fill:#55a868;stroke:#55a868;" x="248.867121" xlink:href="#m720dfce8e6" y="297.544823"/>
     <use style="fill:#55a868;stroke:#55a868;" x="264.91405" xlink:href="#m720dfce8e6" y="297.592872"/>
     <use style="fill:#55a868;stroke:#55a868;" x="280.960979" xlink:href="#m720dfce8e6" y="297.655805"/>
     <use style="fill:#55a868;stroke:#55a868;" x="297.007909" xlink:href="#m720dfce8e6" y="297.68805"/>
     <use style="fill:#55a868;stroke:#55a868;" x="313.054838" xlink:href="#m720dfce8e6" y="297.715663"/>
     <use style="fill:#55a868;stroke:#55a868;" x="329.101767" xlink:href="#m720dfce8e6" y="297.74185"/>
     <use style="fill:#55a868;stroke:#55a868;" x="345.148697" xlink:href="#m720dfce8e6" y="297.652992"/>
     <use style="fill:#55a868;stroke:#55a868;" x="361.195626" xlink:href="#m720dfce8e6" y="297.79979"/>
     <use style="fill:#55a868;stroke:#55a868;" x="377.242556" xlink:href="#m720dfce8e6" y="297.828673"/>
     <use style="fill:#55a868;stroke:#55a868;" x="393.289485" xlink:href="#m720dfce8e6" y="297.842482"/>
     <use style="fill:#55a868;stroke:#55a868;" x="409.336414" xlink:href="#m720dfce8e6" y="297.859773"/>
     <use style="fill:#55a868;stroke:#55a868;" x="425.383344" xlink:href="#m720dfce8e6" y="297.777468"/>
    </g>
   </g>
   <g id="line2d_16">
    <path clip-path="url(#pae4c2529f2)" d="M 56.303969 286.481678 
L 72.350898 291.816825 
L 88.397827 292.517382 
L 104.444757 293.080981 
L 120.491686 293.449267 
L 136.538615 292.563079 
L 152.585545 293.201544 
L 168.632474 293.345403 
L 184.679403 293.740029 
L 200.726333 297.091342 
L 216.773262 294.221082 
L 232.820191 293.920809 
L 248.867121 293.895423 
L 264.91405 294.36503 
L 280.960979 294.111842 
L 297.007909 293.964635 
L 313.054838 294.76743 
L 329.101767 294.52749 
L 345.148697 294.728382 
L 361.195626 295.446088 
L 377.242556 294.421649 
L 393.289485 294.462006 
L 409.336414 294.687673 
L 425.383344 294.828785 
" style="fill:none;stroke:#c44e52;stroke-linecap:round;stroke-width:1.5;"/>
    <defs>
     <path d="M 0 3 
C 0.795609 3 1.55874 2.683901 2.12132 2.12132 
C 2.683901 1.55874 3 0.795609 3 0 
C 3 -0.795609 2.683901 -1.55874 2.12132 -2.12132 
C 1.55874 -2.683901 0.795609 -3 0 -3 
C -0.795609 -3 -1.55874 -2.683901 -2.12132 -2.12132 
C -2.683901 -1.55874 -3 -0.795609 -3 0 
C -3 0.795609 -2.683901 1.55874 -2.12132 2.12132 
C -1.55874 2.683901 -0.795609 3 0 3 
z
" id="mc5009974c6" style="stroke:#c44e52;"/>
    </defs>
    <g clip-path="url(#pae4c2529f2)">
     <use style="fill:#c44e52;stroke:#c44e52;" x="56.303969" xlink:href="#mc5009974c6" y="286.481678"/>
     <use style="fill:#c44e52;stroke:#c44e52;" x="72.350898" xlink:href="#mc5009974c6" y="291.816825"/>
     <use style="fill:#c44e52;stroke:#c44e52;" x="88.397827" xlink:href="#mc5009974c6" y="292.517382"/>
     <use style="fill:#c44e52;stroke:#c44e52;" x="104.444757" xlink:href="#mc5009974c6" y="293.080981"/>
     <use style="fill:#c44e52;stroke:#c44e52;" x="120.491686" xlink:href="#mc5009974c6" y="293.449267"/>
     <use style="fill:#c44e52;stroke:#c44e52;" x="136.538615" xlink:href="#mc5009974c6" y="292.563079"/>
     <use style="fill:#c44e52;stroke:#c44e52;" x="152.585545" xlink:href="#mc5009974c6" y="293.201544"/>
     <use style="fill:#c44e52;stroke:#c44e52;" x="168.632474" xlink:href="#mc5009974c6" y="293.345403"/>
     <use style="fill:#c44e52;stroke:#c44e52;" x="184.679403" xlink:href="#mc5009974c6" y="293.740029"/>
     <use style="fill:#c44e52;stroke:#c44e52;" x="200.726333" xlink:href="#mc5009974c6" y="297.091342"/>
     <use style="fill:#c44e52;stroke:#c44e52;" x="216.773262" xlink:href="#mc5009974c6" y="294.221082"/>
     <use style="fill:#c44e52;stroke:#c44e52;" x="232.820191" xlink:href="#mc5009974c6" y="293.920809"/>
     <use style="fill:#c44e52;stroke:#c44e52;" x="248.867121" xlink:href="#mc5009974c6" y="293.895423"/>
     <use style="fill:#c44e52;stroke:#c44e52;" x="264.91405" xlink:href="#mc5009974c6" y="294.36503"/>
     <use style="fill:#c44e52;stroke:#c44e52;" x="280.960979" xlink:href="#mc5009974c6" y="294.111842"/>
     <use style="fill:#c44e52;stroke:#c44e52;" x="297.007909" xlink:href="#mc5009974c6" y="293.964635"/>
     <use style="fill:#c44e52;stroke:#c44e52;" x="313.054838" xlink:href="#mc5009974c6" y="294.76743"/>
     <use style="fill:#c44e52;stroke:#c44e52;" x="329.101767" xlink:href="#mc5009974c6" y="294.52749"/>
     <use style="fill:#c44e52;stroke:#c44e52;" x="345.148697" xlink:href="#mc5009974c6" y="294.728382"/>
     <use style="fill:#c44e52;stroke:#c44e52;" x="361.195626" xlink:href="#mc5009974c6" y="295.446088"/>
     <use style="fill:#c44e52;stroke:#c44e52;" x="377.242556" xlink:href="#mc5009974c6" y="294.421649"/>
     <use style="fill:#c44e52;stroke:#c44e52;" x="393.289485" xlink:href="#mc5009974c6" y="294.462006"/>
     <use style="fill:#c44e52;stroke:#c44e52;" x="409.336414" xlink:href="#mc5009974c6" y="294.687673"/>
     <use style="fill:#c44e52;stroke:#c44e52;" x="425.383344" xlink:href="#mc5009974c6" y="294.828785"/>
    </g>
   </g>
   <g id="line2d_17">
    <path clip-path="url(#pae4c2529f2)" d="M 56.303969 277.036176 
L 72.350898 285.218855 
L 88.397827 292.927777 
L 104.444757 287.999912 
L 120.491686 292.847925 
L 136.538615 291.32126 
L 152.585545 292.424497 
L 168.632474 288.092939 
L 184.679403 292.834327 
L 200.726333 296.418667 
L 216.773262 293.912671 
L 232.820191 293.314888 
L 248.867121 295.96911 
L 264.91405 292.927389 
L 280.960979 293.043512 
L 297.007909 291.231331 
L 313.054838 293.260366 
L 329.101767 293.130071 
L 345.148697 293.875044 
L 361.195626 293.093312 
L 377.242556 294.553099 
L 393.289485 293.721552 
L 409.336414 294.714973 
L 425.383344 293.522931 
" style="fill:none;stroke:#8172b3;stroke-linecap:round;stroke-width:1.5;"/>
    <defs>
     <path d="M 0 3 
C 0.795609 3 1.55874 2.683901 2.12132 2.12132 
C 2.683901 1.55874 3 0.795609 3 0 
C 3 -0.795609 2.683901 -1.55874 2.12132 -2.12132 
C 1.55874 -2.683901 0.795609 -3 0 -3 
C -0.795609 -3 -1.55874 -2.683901 -2.12132 -2.12132 
C -2.683901 -1.55874 -3 -0.795609 -3 0 
C -3 0.795609 -2.683901 1.55874 -2.12132 2.12132 
C -1.55874 2.683901 -0.795609 3 0 3 
z
" id="m3cc5eb2bde" style="stroke:#8172b3;"/>
    </defs>
    <g clip-path="url(#pae4c2529f2)">
     <use style="fill:#8172b3;stroke:#8172b3;" x="56.303969" xlink:href="#m3cc5eb2bde" y="277.036176"/>
     <use style="fill:#8172b3;stroke:#8172b3;" x="72.350898" xlink:href="#m3cc5eb2bde" y="285.218855"/>
     <use style="fill:#8172b3;stroke:#8172b3;" x="88.397827" xlink:href="#m3cc5eb2bde" y="292.927777"/>
     <use style="fill:#8172b3;stroke:#8172b3;" x="104.444757" xlink:href="#m3cc5eb2bde" y="287.999912"/>
     <use style="fill:#8172b3;stroke:#8172b3;" x="120.491686" xlink:href="#m3cc5eb2bde" y="292.847925"/>
     <use style="fill:#8172b3;stroke:#8172b3;" x="136.538615" xlink:href="#m3cc5eb2bde" y="291.32126"/>
     <use style="fill:#8172b3;stroke:#8172b3;" x="152.585545" xlink:href="#m3cc5eb2bde" y="292.424497"/>
     <use style="fill:#8172b3;stroke:#8172b3;" x="168.632474" xlink:href="#m3cc5eb2bde" y="288.092939"/>
     <use style="fill:#8172b3;stroke:#8172b3;" x="184.679403" xlink:href="#m3cc5eb2bde" y="292.834327"/>
     <use style="fill:#8172b3;stroke:#8172b3;" x="200.726333" xlink:href="#m3cc5eb2bde" y="296.418667"/>
     <use style="fill:#8172b3;stroke:#8172b3;" x="216.773262" xlink:href="#m3cc5eb2bde" y="293.912671"/>
     <use style="fill:#8172b3;stroke:#8172b3;" x="232.820191" xlink:href="#m3cc5eb2bde" y="293.314888"/>
     <use style="fill:#8172b3;stroke:#8172b3;" x="248.867121" xlink:href="#m3cc5eb2bde" y="295.96911"/>
     <use style="fill:#8172b3;stroke:#8172b3;" x="264.91405" xlink:href="#m3cc5eb2bde" y="292.927389"/>
     <use style="fill:#8172b3;stroke:#8172b3;" x="280.960979" xlink:href="#m3cc5eb2bde" y="293.043512"/>
     <use style="fill:#8172b3;stroke:#8172b3;" x="297.007909" xlink:href="#m3cc5eb2bde" y="291.231331"/>
     <use style="fill:#8172b3;stroke:#8172b3;" x="313.054838" xlink:href="#m3cc5eb2bde" y="293.260366"/>
     <use style="fill:#8172b3;stroke:#8172b3;" x="329.101767" xlink:href="#m3cc5eb2bde" y="293.130071"/>
     <use style="fill:#8172b3;stroke:#8172b3;" x="345.148697" xlink:href="#m3cc5eb2bde" y="293.875044"/>
     <use style="fill:#8172b3;stroke:#8172b3;" x="361.195626" xlink:href="#m3cc5eb2bde" y="293.093312"/>
     <use style="fill:#8172b3;stroke:#8172b3;" x="377.242556" xlink:href="#m3cc5eb2bde" y="294.553099"/>
     <use style="fill:#8172b3;stroke:#8172b3;" x="393.289485" xlink:href="#m3cc5eb2bde" y="293.721552"/>
     <use style="fill:#8172b3;stroke:#8172b3;" x="409.336414" xlink:href="#m3cc5eb2bde" y="294.714973"/>
     <use style="fill:#8172b3;stroke:#8172b3;" x="425.383344" xlink:href="#m3cc5eb2bde" y="293.522931"/>
    </g>
   </g>
   <g id="line2d_18">
    <path clip-path="url(#pae4c2529f2)" d="M 56.303969 275.229894 
L 72.350898 286.098034 
L 88.397827 293.919117 
L 104.444757 289.933731 
L 120.491686 292.806993 
L 136.538615 291.981457 
L 152.585545 293.614356 
L 168.632474 291.930088 
L 184.679403 293.787211 
L 200.726333 293.979987 
L 216.773262 295.286293 
L 232.820191 294.048013 
L 248.867121 295.230474 
L 264.91405 294.553056 
L 280.960979 294.639883 
L 297.007909 295.57409 
L 313.054838 294.722658 
L 329.101767 295.129553 
L 345.148697 294.861447 
L 361.195626 294.875338 
L 377.242556 295.833012 
L 393.289485 295.122328 
L 409.336414 295.149612 
L 425.383344 295.139378 
" style="fill:none;stroke:#937860;stroke-linecap:round;stroke-width:1.5;"/>
    <defs>
     <path d="M 0 3 
C 0.795609 3 1.55874 2.683901 2.12132 2.12132 
C 2.683901 1.55874 3 0.795609 3 0 
C 3 -0.795609 2.683901 -1.55874 2.12132 -2.12132 
C 1.55874 -2.683901 0.795609 -3 0 -3 
C -0.795609 -3 -1.55874 -2.683901 -2.12132 -2.12132 
C -2.683901 -1.55874 -3 -0.795609 -3 0 
C -3 0.795609 -2.683901 1.55874 -2.12132 2.12132 
C -1.55874 2.683901 -0.795609 3 0 3 
z
" id="m0fbc634abe" style="stroke:#937860;"/>
    </defs>
    <g clip-path="url(#pae4c2529f2)">
     <use style="fill:#937860;stroke:#937860;" x="56.303969" xlink:href="#m0fbc634abe" y="275.229894"/>
     <use style="fill:#937860;stroke:#937860;" x="72.350898" xlink:href="#m0fbc634abe" y="286.098034"/>
     <use style="fill:#937860;stroke:#937860;" x="88.397827" xlink:href="#m0fbc634abe" y="293.919117"/>
     <use style="fill:#937860;stroke:#937860;" x="104.444757" xlink:href="#m0fbc634abe" y="289.933731"/>
     <use style="fill:#937860;stroke:#937860;" x="120.491686" xlink:href="#m0fbc634abe" y="292.806993"/>
     <use style="fill:#937860;stroke:#937860;" x="136.538615" xlink:href="#m0fbc634abe" y="291.981457"/>
     <use style="fill:#937860;stroke:#937860;" x="152.585545" xlink:href="#m0fbc634abe" y="293.614356"/>
     <use style="fill:#937860;stroke:#937860;" x="168.632474" xlink:href="#m0fbc634abe" y="291.930088"/>
     <use style="fill:#937860;stroke:#937860;" x="184.679403" xlink:href="#m0fbc634abe" y="293.787211"/>
     <use style="fill:#937860;stroke:#937860;" x="200.726333" xlink:href="#m0fbc634abe" y="293.979987"/>
     <use style="fill:#937860;stroke:#937860;" x="216.773262" xlink:href="#m0fbc634abe" y="295.286293"/>
     <use style="fill:#937860;stroke:#937860;" x="232.820191" xlink:href="#m0fbc634abe" y="294.048013"/>
     <use style="fill:#937860;stroke:#937860;" x="248.867121" xlink:href="#m0fbc634abe" y="295.230474"/>
     <use style="fill:#937860;stroke:#937860;" x="264.91405" xlink:href="#m0fbc634abe" y="294.553056"/>
     <use style="fill:#937860;stroke:#937860;" x="280.960979" xlink:href="#m0fbc634abe" y="294.639883"/>
     <use style="fill:#937860;stroke:#937860;" x="297.007909" xlink:href="#m0fbc634abe" y="295.57409"/>
     <use style="fill:#937860;stroke:#937860;" x="313.054838" xlink:href="#m0fbc634abe" y="294.722658"/>
     <use style="fill:#937860;stroke:#937860;" x="329.101767" xlink:href="#m0fbc634abe" y="295.129553"/>
     <use style="fill:#937860;stroke:#937860;" x="345.148697" xlink:href="#m0fbc634abe" y="294.861447"/>
     <use style="fill:#937860;stroke:#937860;" x="361.195626" xlink:href="#m0fbc634abe" y="294.875338"/>
     <use style="fill:#937860;stroke:#937860;" x="377.242556" xlink:href="#m0fbc634abe" y="295.833012"/>
     <use style="fill:#937860;stroke:#937860;" x="393.289485" xlink:href="#m0fbc634abe" y="295.122328"/>
     <use style="fill:#937860;stroke:#937860;" x="409.336414" xlink:href="#m0fbc634abe" y="295.149612"/>
     <use style="fill:#937860;stroke:#937860;" x="425.383344" xlink:href="#m0fbc634abe" y="295.139378"/>
    </g>
   </g>
   <g id="line2d_19">
    <path clip-path="url(#pae4c2529f2)" d="M 56.303969 277.036176 
L 72.350898 287.751117 
L 88.397827 289.669405 
L 104.444757 291.091689 
L 120.491686 292.109915 
L 136.538615 291.877694 
L 152.585545 293.416956 
L 168.632474 294.128645 
L 184.679403 294.243272 
L 200.726333 294.82345 
L 216.773262 296.425351 
L 232.820191 295.666354 
L 248.867121 295.154068 
L 264.91405 295.206637 
L 280.960979 295.26162 
L 297.007909 295.473746 
L 313.054838 295.673581 
L 329.101767 296.151399 
L 345.148697 295.818682 
L 361.195626 296.269836 
L 377.242556 296.338486 
L 393.289485 296.185583 
L 409.336414 296.118253 
L 425.383344 296.495193 
" style="fill:none;stroke:#da8bc3;stroke-linecap:round;stroke-width:1.5;"/>
    <defs>
     <path d="M 0 3 
C 0.795609 3 1.55874 2.683901 2.12132 2.12132 
C 2.683901 1.55874 3 0.795609 3 0 
C 3 -0.795609 2.683901 -1.55874 2.12132 -2.12132 
C 1.55874 -2.683901 0.795609 -3 0 -3 
C -0.795609 -3 -1.55874 -2.683901 -2.12132 -2.12132 
C -2.683901 -1.55874 -3 -0.795609 -3 0 
C -3 0.795609 -2.683901 1.55874 -2.12132 2.12132 
C -1.55874 2.683901 -0.795609 3 0 3 
z
" id="madfee95f1f" style="stroke:#da8bc3;"/>
    </defs>
    <g clip-path="url(#pae4c2529f2)">
     <use style="fill:#da8bc3;stroke:#da8bc3;" x="56.303969" xlink:href="#madfee95f1f" y="277.036176"/>
     <use style="fill:#da8bc3;stroke:#da8bc3;" x="72.350898" xlink:href="#madfee95f1f" y="287.751117"/>
     <use style="fill:#da8bc3;stroke:#da8bc3;" x="88.397827" xlink:href="#madfee95f1f" y="289.669405"/>
     <use style="fill:#da8bc3;stroke:#da8bc3;" x="104.444757" xlink:href="#madfee95f1f" y="291.091689"/>
     <use style="fill:#da8bc3;stroke:#da8bc3;" x="120.491686" xlink:href="#madfee95f1f" y="292.109915"/>
     <use style="fill:#da8bc3;stroke:#da8bc3;" x="136.538615" xlink:href="#madfee95f1f" y="291.877694"/>
     <use style="fill:#da8bc3;stroke:#da8bc3;" x="152.585545" xlink:href="#madfee95f1f" y="293.416956"/>
     <use style="fill:#da8bc3;stroke:#da8bc3;" x="168.632474" xlink:href="#madfee95f1f" y="294.128645"/>
     <use style="fill:#da8bc3;stroke:#da8bc3;" x="184.679403" xlink:href="#madfee95f1f" y="294.243272"/>
     <use style="fill:#da8bc3;stroke:#da8bc3;" x="200.726333" xlink:href="#madfee95f1f" y="294.82345"/>
     <use style="fill:#da8bc3;stroke:#da8bc3;" x="216.773262" xlink:href="#madfee95f1f" y="296.425351"/>
     <use style="fill:#da8bc3;stroke:#da8bc3;" x="232.820191" xlink:href="#madfee95f1f" y="295.666354"/>
     <use style="fill:#da8bc3;stroke:#da8bc3;" x="248.867121" xlink:href="#madfee95f1f" y="295.154068"/>
     <use style="fill:#da8bc3;stroke:#da8bc3;" x="264.91405" xlink:href="#madfee95f1f" y="295.206637"/>
     <use style="fill:#da8bc3;stroke:#da8bc3;" x="280.960979" xlink:href="#madfee95f1f" y="295.26162"/>
     <use style="fill:#da8bc3;stroke:#da8bc3;" x="297.007909" xlink:href="#madfee95f1f" y="295.473746"/>
     <use style="fill:#da8bc3;stroke:#da8bc3;" x="313.054838" xlink:href="#madfee95f1f" y="295.673581"/>
     <use style="fill:#da8bc3;stroke:#da8bc3;" x="329.101767" xlink:href="#madfee95f1f" y="296.151399"/>
     <use style="fill:#da8bc3;stroke:#da8bc3;" x="345.148697" xlink:href="#madfee95f1f" y="295.818682"/>
     <use style="fill:#da8bc3;stroke:#da8bc3;" x="361.195626" xlink:href="#madfee95f1f" y="296.269836"/>
     <use style="fill:#da8bc3;stroke:#da8bc3;" x="377.242556" xlink:href="#madfee95f1f" y="296.338486"/>
     <use style="fill:#da8bc3;stroke:#da8bc3;" x="393.289485" xlink:href="#madfee95f1f" y="296.185583"/>
     <use style="fill:#da8bc3;stroke:#da8bc3;" x="409.336414" xlink:href="#madfee95f1f" y="296.118253"/>
     <use style="fill:#da8bc3;stroke:#da8bc3;" x="425.383344" xlink:href="#madfee95f1f" y="296.495193"/>
    </g>
   </g>
   <g id="line2d_20">
    <path clip-path="url(#pae4c2529f2)" d="M 56.303969 277.036176 
L 72.350898 288.464189 
L 88.397827 290.609564 
L 104.444757 290.182204 
L 120.491686 292.296236 
L 136.538615 292.979927 
L 152.585545 293.42779 
L 168.632474 294.159884 
L 184.679403 294.198391 
L 200.726333 294.716897 
L 216.773262 295.180577 
L 232.820191 294.959954 
L 248.867121 295.464752 
L 264.91405 295.189313 
L 280.960979 295.318655 
L 297.007909 295.37356 
L 313.054838 296.115185 
L 329.101767 295.58737 
L 345.148697 296.220067 
L 361.195626 296.253457 
L 377.242556 295.846586 
L 393.289485 295.86792 
L 409.336414 296.055041 
L 425.383344 296.064432 
" style="fill:none;stroke:#8c8c8c;stroke-linecap:round;stroke-width:1.5;"/>
    <defs>
     <path d="M 0 3 
C 0.795609 3 1.55874 2.683901 2.12132 2.12132 
C 2.683901 1.55874 3 0.795609 3 0 
C 3 -0.795609 2.683901 -1.55874 2.12132 -2.12132 
C 1.55874 -2.683901 0.795609 -3 0 -3 
C -0.795609 -3 -1.55874 -2.683901 -2.12132 -2.12132 
C -2.683901 -1.55874 -3 -0.795609 -3 0 
C -3 0.795609 -2.683901 1.55874 -2.12132 2.12132 
C -1.55874 2.683901 -0.795609 3 0 3 
z
" id="ma85a69d616" style="stroke:#8c8c8c;"/>
    </defs>
    <g clip-path="url(#pae4c2529f2)">
     <use style="fill:#8c8c8c;stroke:#8c8c8c;" x="56.303969" xlink:href="#ma85a69d616" y="277.036176"/>
     <use style="fill:#8c8c8c;stroke:#8c8c8c;" x="72.350898" xlink:href="#ma85a69d616" y="288.464189"/>
     <use style="fill:#8c8c8c;stroke:#8c8c8c;" x="88.397827" xlink:href="#ma85a69d616" y="290.609564"/>
     <use style="fill:#8c8c8c;stroke:#8c8c8c;" x="104.444757" xlink:href="#ma85a69d616" y="290.182204"/>
     <use style="fill:#8c8c8c;stroke:#8c8c8c;" x="120.491686" xlink:href="#ma85a69d616" y="292.296236"/>
     <use style="fill:#8c8c8c;stroke:#8c8c8c;" x="136.538615" xlink:href="#ma85a69d616" y="292.979927"/>
     <use style="fill:#8c8c8c;stroke:#8c8c8c;" x="152.585545" xlink:href="#ma85a69d616" y="293.42779"/>
     <use style="fill:#8c8c8c;stroke:#8c8c8c;" x="168.632474" xlink:href="#ma85a69d616" y="294.159884"/>
     <use style="fill:#8c8c8c;stroke:#8c8c8c;" x="184.679403" xlink:href="#ma85a69d616" y="294.198391"/>
     <use style="fill:#8c8c8c;stroke:#8c8c8c;" x="200.726333" xlink:href="#ma85a69d616" y="294.716897"/>
     <use style="fill:#8c8c8c;stroke:#8c8c8c;" x="216.773262" xlink:href="#ma85a69d616" y="295.180577"/>
     <use style="fill:#8c8c8c;stroke:#8c8c8c;" x="232.820191" xlink:href="#ma85a69d616" y="294.959954"/>
     <use style="fill:#8c8c8c;stroke:#8c8c8c;" x="248.867121" xlink:href="#ma85a69d616" y="295.464752"/>
     <use style="fill:#8c8c8c;stroke:#8c8c8c;" x="264.91405" xlink:href="#ma85a69d616" y="295.189313"/>
     <use style="fill:#8c8c8c;stroke:#8c8c8c;" x="280.960979" xlink:href="#ma85a69d616" y="295.318655"/>
     <use style="fill:#8c8c8c;stroke:#8c8c8c;" x="297.007909" xlink:href="#ma85a69d616" y="295.37356"/>
     <use style="fill:#8c8c8c;stroke:#8c8c8c;" x="313.054838" xlink:href="#ma85a69d616" y="296.115185"/>
     <use style="fill:#8c8c8c;stroke:#8c8c8c;" x="329.101767" xlink:href="#ma85a69d616" y="295.58737"/>
     <use style="fill:#8c8c8c;stroke:#8c8c8c;" x="345.148697" xlink:href="#ma85a69d616" y="296.220067"/>
     <use style="fill:#8c8c8c;stroke:#8c8c8c;" x="361.195626" xlink:href="#ma85a69d616" y="296.253457"/>
     <use style="fill:#8c8c8c;stroke:#8c8c8c;" x="377.242556" xlink:href="#ma85a69d616" y="295.846586"/>
     <use style="fill:#8c8c8c;stroke:#8c8c8c;" x="393.289485" xlink:href="#ma85a69d616" y="295.86792"/>
     <use style="fill:#8c8c8c;stroke:#8c8c8c;" x="409.336414" xlink:href="#ma85a69d616" y="296.055041"/>
     <use style="fill:#8c8c8c;stroke:#8c8c8c;" x="425.383344" xlink:href="#ma85a69d616" y="296.064432"/>
    </g>
   </g>
   <g id="line2d_21">
    <path clip-path="url(#pae4c2529f2)" d="M 56.303969 275.065393 
L 72.350898 280.219087 
M 104.444757 283.300493 
M 168.632474 284.896852 
M 297.007909 286.281516 
" style="fill:none;stroke:#ccb974;stroke-linecap:round;stroke-width:1.5;"/>
    <defs>
     <path d="M 0 3 
C 0.795609 3 1.55874 2.683901 2.12132 2.12132 
C 2.683901 1.55874 3 0.795609 3 0 
C 3 -0.795609 2.683901 -1.55874 2.12132 -2.12132 
C 1.55874 -2.683901 0.795609 -3 0 -3 
C -0.795609 -3 -1.55874 -2.683901 -2.12132 -2.12132 
C -2.683901 -1.55874 -3 -0.795609 -3 0 
C -3 0.795609 -2.683901 1.55874 -2.12132 2.12132 
C -1.55874 2.683901 -0.795609 3 0 3 
z
" id="m6f6b8b749d" style="stroke:#ccb974;"/>
    </defs>
    <g clip-path="url(#pae4c2529f2)">
     <use style="fill:#ccb974;stroke:#ccb974;" x="56.303969" xlink:href="#m6f6b8b749d" y="275.065393"/>
     <use style="fill:#ccb974;stroke:#ccb974;" x="72.350898" xlink:href="#m6f6b8b749d" y="280.219087"/>
     <use style="fill:#ccb974;stroke:#ccb974;" x="104.444757" xlink:href="#m6f6b8b749d" y="283.300493"/>
     <use style="fill:#ccb974;stroke:#ccb974;" x="168.632474" xlink:href="#m6f6b8b749d" y="284.896852"/>
     <use style="fill:#ccb974;stroke:#ccb974;" x="297.007909" xlink:href="#m6f6b8b749d" y="286.281516"/>
    </g>
   </g>
   <g id="line2d_22">
    <path clip-path="url(#pae4c2529f2)" d="M 56.303969 267.666788 
L 72.350898 277.93251 
L 88.397827 290.301066 
L 104.444757 280.515301 
L 120.491686 281.103424 
L 136.538615 280.675536 
L 152.585545 283.064038 
L 168.632474 284.753888 
L 184.679403 284.349889 
L 200.726333 286.514229 
L 216.773262 286.307975 
L 232.820191 286.684838 
L 248.867121 286.63723 
L 264.91405 286.411967 
L 280.960979 286.894006 
L 297.007909 285.87888 
L 313.054838 286.272808 
L 329.101767 287.293796 
L 345.148697 287.273278 
L 361.195626 287.543479 
L 377.242556 286.744932 
L 393.289485 286.188679 
L 409.336414 286.258232 
L 425.383344 285.593055 
" style="fill:none;stroke:#64b5cd;stroke-linecap:round;stroke-width:1.5;"/>
    <defs>
     <path d="M 0 3 
C 0.795609 3 1.55874 2.683901 2.12132 2.12132 
C 2.683901 1.55874 3 0.795609 3 0 
C 3 -0.795609 2.683901 -1.55874 2.12132 -2.12132 
C 1.55874 -2.683901 0.795609 -3 0 -3 
C -0.795609 -3 -1.55874 -2.683901 -2.12132 -2.12132 
C -2.683901 -1.55874 -3 -0.795609 -3 0 
C -3 0.795609 -2.683901 1.55874 -2.12132 2.12132 
C -1.55874 2.683901 -0.795609 3 0 3 
z
" id="m0df4df6122" style="stroke:#64b5cd;"/>
    </defs>
    <g clip-path="url(#pae4c2529f2)">
     <use style="fill:#64b5cd;stroke:#64b5cd;" x="56.303969" xlink:href="#m0df4df6122" y="267.666788"/>
     <use style="fill:#64b5cd;stroke:#64b5cd;" x="72.350898" xlink:href="#m0df4df6122" y="277.93251"/>
     <use style="fill:#64b5cd;stroke:#64b5cd;" x="88.397827" xlink:href="#m0df4df6122" y="290.301066"/>
     <use style="fill:#64b5cd;stroke:#64b5cd;" x="104.444757" xlink:href="#m0df4df6122" y="280.515301"/>
     <use style="fill:#64b5cd;stroke:#64b5cd;" x="120.491686" xlink:href="#m0df4df6122" y="281.103424"/>
     <use style="fill:#64b5cd;stroke:#64b5cd;" x="136.538615" xlink:href="#m0df4df6122" y="280.675536"/>
     <use style="fill:#64b5cd;stroke:#64b5cd;" x="152.585545" xlink:href="#m0df4df6122" y="283.064038"/>
     <use style="fill:#64b5cd;stroke:#64b5cd;" x="168.632474" xlink:href="#m0df4df6122" y="284.753888"/>
     <use style="fill:#64b5cd;stroke:#64b5cd;" x="184.679403" xlink:href="#m0df4df6122" y="284.349889"/>
     <use style="fill:#64b5cd;stroke:#64b5cd;" x="200.726333" xlink:href="#m0df4df6122" y="286.514229"/>
     <use style="fill:#64b5cd;stroke:#64b5cd;" x="216.773262" xlink:href="#m0df4df6122" y="286.307975"/>
     <use style="fill:#64b5cd;stroke:#64b5cd;" x="232.820191" xlink:href="#m0df4df6122" y="286.684838"/>
     <use style="fill:#64b5cd;stroke:#64b5cd;" x="248.867121" xlink:href="#m0df4df6122" y="286.63723"/>
     <use style="fill:#64b5cd;stroke:#64b5cd;" x="264.91405" xlink:href="#m0df4df6122" y="286.411967"/>
     <use style="fill:#64b5cd;stroke:#64b5cd;" x="280.960979" xlink:href="#m0df4df6122" y="286.894006"/>
     <use style="fill:#64b5cd;stroke:#64b5cd;" x="297.007909" xlink:href="#m0df4df6122" y="285.87888"/>
     <use style="fill:#64b5cd;stroke:#64b5cd;" x="313.054838" xlink:href="#m0df4df6122" y="286.272808"/>
     <use style="fill:#64b5cd;stroke:#64b5cd;" x="329.101767" xlink:href="#m0df4df6122" y="287.293796"/>
     <use style="fill:#64b5cd;stroke:#64b5cd;" x="345.148697" xlink:href="#m0df4df6122" y="287.273278"/>
     <use style="fill:#64b5cd;stroke:#64b5cd;" x="361.195626" xlink:href="#m0df4df6122" y="287.543479"/>
     <use style="fill:#64b5cd;stroke:#64b5cd;" x="377.242556" xlink:href="#m0df4df6122" y="286.744932"/>
     <use style="fill:#64b5cd;stroke:#64b5cd;" x="393.289485" xlink:href="#m0df4df6122" y="286.188679"/>
     <use style="fill:#64b5cd;stroke:#64b5cd;" x="409.336414" xlink:href="#m0df4df6122" y="286.258232"/>
     <use style="fill:#64b5cd;stroke:#64b5cd;" x="425.383344" xlink:href="#m0df4df6122" y="285.593055"/>
    </g>
   </g>
   <g id="patch_3">
    <path d="M 37.85 298.26 
L 37.85 27.65625 
" style="fill:none;stroke:#ffffff;stroke-linecap:square;stroke-linejoin:miter;stroke-width:1.25;"/>
   </g>
   <g id="patch_4">
    <path d="M 443.837312 298.26 
L 443.837312 27.65625 
" style="fill:none;stroke:#ffffff;stroke-linecap:square;stroke-linejoin:miter;stroke-width:1.25;"/>
   </g>
   <g id="patch_5">
    <path d="M 37.85 298.26 
L 443.837312 298.26 
" style="fill:none;stroke:#ffffff;stroke-linecap:square;stroke-linejoin:miter;stroke-width:1.25;"/>
   </g>
   <g id="patch_6">
    <path d="M 37.85 27.65625 
L 443.837312 27.65625 
" style="fill:none;stroke:#ffffff;stroke-linecap:square;stroke-linejoin:miter;stroke-width:1.25;"/>
   </g>
   <g id="text_14">
    <!-- Compute ratio (64 vector size) -->
    <g style="fill:#262626;" transform="translate(160.484906 21.65625)scale(0.12 -0.12)">
     <defs>
      <path d="M 3763 1606 
L 4369 1453 
Q 4178 706 3683 314 
Q 3188 -78 2472 -78 
Q 1731 -78 1267 223 
Q 803 525 561 1097 
Q 319 1669 319 2325 
Q 319 3041 592 3573 
Q 866 4106 1370 4382 
Q 1875 4659 2481 4659 
Q 3169 4659 3637 4309 
Q 4106 3959 4291 3325 
L 3694 3184 
Q 3534 3684 3231 3912 
Q 2928 4141 2469 4141 
Q 1941 4141 1586 3887 
Q 1231 3634 1087 3207 
Q 944 2781 944 2328 
Q 944 1744 1114 1308 
Q 1284 872 1643 656 
Q 2003 441 2422 441 
Q 2931 441 3284 734 
Q 3638 1028 3763 1606 
z
" id="ArialMT-43" transform="scale(0.015625)"/>
      <path d="M 1650 503 
L 1731 6 
Q 1494 -44 1306 -44 
Q 1000 -44 831 53 
Q 663 150 594 308 
Q 525 466 525 972 
L 525 2881 
L 113 2881 
L 113 3319 
L 525 3319 
L 525 4141 
L 1084 4478 
L 1084 3319 
L 1650 3319 
L 1650 2881 
L 1084 2881 
L 1084 941 
Q 1084 700 1114 631 
Q 1144 563 1211 522 
Q 1278 481 1403 481 
Q 1497 481 1650 503 
z
" id="ArialMT-74" transform="scale(0.015625)"/>
      <path d="M 2588 409 
Q 2275 144 1986 34 
Q 1697 -75 1366 -75 
Q 819 -75 525 192 
Q 231 459 231 875 
Q 231 1119 342 1320 
Q 453 1522 633 1644 
Q 813 1766 1038 1828 
Q 1203 1872 1538 1913 
Q 2219 1994 2541 2106 
Q 2544 2222 2544 2253 
Q 2544 2597 2384 2738 
Q 2169 2928 1744 2928 
Q 1347 2928 1158 2789 
Q 969 2650 878 2297 
L 328 2372 
Q 403 2725 575 2942 
Q 747 3159 1072 3276 
Q 1397 3394 1825 3394 
Q 2250 3394 2515 3294 
Q 2781 3194 2906 3042 
Q 3031 2891 3081 2659 
Q 3109 2516 3109 2141 
L 3109 1391 
Q 3109 606 3145 398 
Q 3181 191 3288 0 
L 2700 0 
Q 2613 175 2588 409 
z
M 2541 1666 
Q 2234 1541 1622 1453 
Q 1275 1403 1131 1340 
Q 988 1278 909 1158 
Q 831 1038 831 891 
Q 831 666 1001 516 
Q 1172 366 1500 366 
Q 1825 366 2078 508 
Q 2331 650 2450 897 
Q 2541 1088 2541 1459 
L 2541 1666 
z
" id="ArialMT-61" transform="scale(0.015625)"/>
      <path d="M 425 3934 
L 425 4581 
L 988 4581 
L 988 3934 
L 425 3934 
z
M 425 0 
L 425 3319 
L 988 3319 
L 988 0 
L 425 0 
z
" id="ArialMT-69" transform="scale(0.015625)"/>
      <path d="M 1497 -1347 
Q 1031 -759 709 28 
Q 388 816 388 1659 
Q 388 2403 628 3084 
Q 909 3875 1497 4659 
L 1900 4659 
Q 1522 4009 1400 3731 
Q 1209 3300 1100 2831 
Q 966 2247 966 1656 
Q 966 153 1900 -1347 
L 1497 -1347 
z
" id="ArialMT-28" transform="scale(0.015625)"/>
      <path d="M 1344 0 
L 81 3319 
L 675 3319 
L 1388 1331 
Q 1503 1009 1600 663 
Q 1675 925 1809 1294 
L 2547 3319 
L 3125 3319 
L 1869 0 
L 1344 0 
z
" id="ArialMT-76" transform="scale(0.015625)"/>
      <path d="M 125 0 
L 125 456 
L 2238 2881 
Q 1878 2863 1603 2863 
L 250 2863 
L 250 3319 
L 2963 3319 
L 2963 2947 
L 1166 841 
L 819 456 
Q 1197 484 1528 484 
L 3063 484 
L 3063 0 
L 125 0 
z
" id="ArialMT-7a" transform="scale(0.015625)"/>
      <path d="M 791 -1347 
L 388 -1347 
Q 1322 153 1322 1656 
Q 1322 2244 1188 2822 
Q 1081 3291 891 3722 
Q 769 4003 388 4659 
L 791 4659 
Q 1378 3875 1659 3084 
Q 1900 2403 1900 1659 
Q 1900 816 1576 28 
Q 1253 -759 791 -1347 
z
" id="ArialMT-29" transform="scale(0.015625)"/>
     </defs>
     <use xlink:href="#ArialMT-43"/>
     <use x="72.216797" xlink:href="#ArialMT-6f"/>
     <use x="127.832031" xlink:href="#ArialMT-6d"/>
     <use x="211.132812" xlink:href="#ArialMT-70"/>
     <use x="266.748047" xlink:href="#ArialMT-75"/>
     <use x="322.363281" xlink:href="#ArialMT-74"/>
     <use x="350.146484" xlink:href="#ArialMT-65"/>
     <use x="405.761719" xlink:href="#ArialMT-20"/>
     <use x="433.544922" xlink:href="#ArialMT-72"/>
     <use x="466.845703" xlink:href="#ArialMT-61"/>
     <use x="522.460938" xlink:href="#ArialMT-74"/>
     <use x="550.244141" xlink:href="#ArialMT-69"/>
     <use x="572.460938" xlink:href="#ArialMT-6f"/>
     <use x="628.076172" xlink:href="#ArialMT-20"/>
     <use x="655.859375" xlink:href="#ArialMT-28"/>
     <use x="689.160156" xlink:href="#ArialMT-36"/>
     <use x="744.775391" xlink:href="#ArialMT-34"/>
     <use x="800.390625" xlink:href="#ArialMT-20"/>
     <use x="828.173828" xlink:href="#ArialMT-76"/>
     <use x="878.173828" xlink:href="#ArialMT-65"/>
     <use x="933.789062" xlink:href="#ArialMT-63"/>
     <use x="983.789062" xlink:href="#ArialMT-74"/>
     <use x="1011.572266" xlink:href="#ArialMT-6f"/>
     <use x="1067.1875" xlink:href="#ArialMT-72"/>
     <use x="1100.488281" xlink:href="#ArialMT-20"/>
     <use x="1128.271484" xlink:href="#ArialMT-73"/>
     <use x="1178.271484" xlink:href="#ArialMT-69"/>
     <use x="1200.488281" xlink:href="#ArialMT-7a"/>
     <use x="1250.488281" xlink:href="#ArialMT-65"/>
     <use x="1306.103516" xlink:href="#ArialMT-29"/>
    </g>
   </g>
   <g id="legend_1">
    <g id="patch_7">
     <path d="M 227.297156 209.436562 
L 436.137312 209.436562 
Q 438.337312 209.436562 438.337312 207.236562 
L 438.337312 35.35625 
Q 438.337312 33.15625 436.137312 33.15625 
L 227.297156 33.15625 
Q 225.097156 33.15625 225.097156 35.35625 
L 225.097156 207.236562 
Q 225.097156 209.436562 227.297156 209.436562 
z
" style="fill:#eaeaf2;opacity:0.8;stroke:#cccccc;stroke-linejoin:miter;"/>
    </g>
    <g id="text_15">
     <!-- implementation -->
     <g style="fill:#262626;" transform="translate(291.032547 46.145625)scale(0.12 -0.12)">
      <defs>
       <path d="M 409 0 
L 409 4581 
L 972 4581 
L 972 0 
L 409 0 
z
" id="ArialMT-6c" transform="scale(0.015625)"/>
       <path d="M 422 0 
L 422 3319 
L 928 3319 
L 928 2847 
Q 1294 3394 1984 3394 
Q 2284 3394 2536 3286 
Q 2788 3178 2913 3003 
Q 3038 2828 3088 2588 
Q 3119 2431 3119 2041 
L 3119 0 
L 2556 0 
L 2556 2019 
Q 2556 2363 2490 2533 
Q 2425 2703 2258 2804 
Q 2091 2906 1866 2906 
Q 1506 2906 1245 2678 
Q 984 2450 984 1813 
L 984 0 
L 422 0 
z
" id="ArialMT-6e" transform="scale(0.015625)"/>
      </defs>
      <use xlink:href="#ArialMT-69"/>
      <use x="22.216797" xlink:href="#ArialMT-6d"/>
      <use x="105.517578" xlink:href="#ArialMT-70"/>
      <use x="161.132812" xlink:href="#ArialMT-6c"/>
      <use x="183.349609" xlink:href="#ArialMT-65"/>
      <use x="238.964844" xlink:href="#ArialMT-6d"/>
      <use x="322.265625" xlink:href="#ArialMT-65"/>
      <use x="377.880859" xlink:href="#ArialMT-6e"/>
      <use x="433.496094" xlink:href="#ArialMT-74"/>
      <use x="461.279297" xlink:href="#ArialMT-61"/>
      <use x="516.894531" xlink:href="#ArialMT-74"/>
      <use x="544.677734" xlink:href="#ArialMT-69"/>
      <use x="566.894531" xlink:href="#ArialMT-6f"/>
      <use x="622.509766" xlink:href="#ArialMT-6e"/>
     </g>
    </g>
    <g id="line2d_23">
     <path d="M 229.497156 58.054219 
L 251.497156 58.054219 
" style="fill:none;stroke:#4c72b0;stroke-linecap:round;stroke-width:1.5;"/>
    </g>
    <g id="line2d_24">
     <g>
      <use style="fill:#4c72b0;stroke:#4c72b0;" x="240.497156" xlink:href="#m50ec1d99c0" y="58.054219"/>
     </g>
    </g>
    <g id="text_16">
     <!-- allreduce -->
     <g style="fill:#262626;" transform="translate(260.297156 61.904219)scale(0.11 -0.11)">
      <defs>
       <path d="M 2575 0 
L 2575 419 
Q 2259 -75 1647 -75 
Q 1250 -75 917 144 
Q 584 363 401 755 
Q 219 1147 219 1656 
Q 219 2153 384 2558 
Q 550 2963 881 3178 
Q 1213 3394 1622 3394 
Q 1922 3394 2156 3267 
Q 2391 3141 2538 2938 
L 2538 4581 
L 3097 4581 
L 3097 0 
L 2575 0 
z
M 797 1656 
Q 797 1019 1065 703 
Q 1334 388 1700 388 
Q 2069 388 2326 689 
Q 2584 991 2584 1609 
Q 2584 2291 2321 2609 
Q 2059 2928 1675 2928 
Q 1300 2928 1048 2622 
Q 797 2316 797 1656 
z
" id="ArialMT-64" transform="scale(0.015625)"/>
      </defs>
      <use xlink:href="#ArialMT-61"/>
      <use x="55.615234" xlink:href="#ArialMT-6c"/>
      <use x="77.832031" xlink:href="#ArialMT-6c"/>
      <use x="100.048828" xlink:href="#ArialMT-72"/>
      <use x="133.349609" xlink:href="#ArialMT-65"/>
      <use x="188.964844" xlink:href="#ArialMT-64"/>
      <use x="244.580078" xlink:href="#ArialMT-75"/>
      <use x="300.195312" xlink:href="#ArialMT-63"/>
      <use x="350.195312" xlink:href="#ArialMT-65"/>
     </g>
    </g>
    <g id="line2d_25">
     <path d="M 229.497156 73.748125 
L 251.497156 73.748125 
" style="fill:none;stroke:#dd8452;stroke-linecap:round;stroke-width:1.5;"/>
    </g>
    <g id="line2d_26">
     <g>
      <use style="fill:#dd8452;stroke:#dd8452;" x="240.497156" xlink:href="#m5e5435bee2" y="73.748125"/>
     </g>
    </g>
    <g id="text_17">
     <!-- allreduce-butterfly -->
     <g style="fill:#262626;" transform="translate(260.297156 77.598125)scale(0.11 -0.11)">
      <defs>
       <path d="M 203 1375 
L 203 1941 
L 1931 1941 
L 1931 1375 
L 203 1375 
z
" id="ArialMT-2d" transform="scale(0.015625)"/>
       <path d="M 397 -1278 
L 334 -750 
Q 519 -800 656 -800 
Q 844 -800 956 -737 
Q 1069 -675 1141 -563 
Q 1194 -478 1313 -144 
Q 1328 -97 1363 -6 
L 103 3319 
L 709 3319 
L 1400 1397 
Q 1534 1031 1641 628 
Q 1738 1016 1872 1384 
L 2581 3319 
L 3144 3319 
L 1881 -56 
Q 1678 -603 1566 -809 
Q 1416 -1088 1222 -1217 
Q 1028 -1347 759 -1347 
Q 597 -1347 397 -1278 
z
" id="ArialMT-79" transform="scale(0.015625)"/>
      </defs>
      <use xlink:href="#ArialMT-61"/>
      <use x="55.615234" xlink:href="#ArialMT-6c"/>
      <use x="77.832031" xlink:href="#ArialMT-6c"/>
      <use x="100.048828" xlink:href="#ArialMT-72"/>
      <use x="133.349609" xlink:href="#ArialMT-65"/>
      <use x="188.964844" xlink:href="#ArialMT-64"/>
      <use x="244.580078" xlink:href="#ArialMT-75"/>
      <use x="300.195312" xlink:href="#ArialMT-63"/>
      <use x="350.195312" xlink:href="#ArialMT-65"/>
      <use x="405.810547" xlink:href="#ArialMT-2d"/>
      <use x="439.111328" xlink:href="#ArialMT-62"/>
      <use x="494.726562" xlink:href="#ArialMT-75"/>
      <use x="550.341797" xlink:href="#ArialMT-74"/>
      <use x="578.125" xlink:href="#ArialMT-74"/>
      <use x="605.908203" xlink:href="#ArialMT-65"/>
      <use x="661.523438" xlink:href="#ArialMT-72"/>
      <use x="694.824219" xlink:href="#ArialMT-66"/>
      <use x="722.607422" xlink:href="#ArialMT-6c"/>
      <use x="744.824219" xlink:href="#ArialMT-79"/>
     </g>
    </g>
    <g id="line2d_27">
     <path d="M 229.497156 89.436875 
L 251.497156 89.436875 
" style="fill:none;stroke:#55a868;stroke-linecap:round;stroke-width:1.5;"/>
    </g>
    <g id="line2d_28">
     <g>
      <use style="fill:#55a868;stroke:#55a868;" x="240.497156" xlink:href="#m720dfce8e6" y="89.436875"/>
     </g>
    </g>
    <g id="text_18">
     <!-- allreduce-native-basic_linear -->
     <g style="fill:#262626;" transform="translate(260.297156 93.286875)scale(0.11 -0.11)">
      <defs>
       <path d="M -97 -1272 
L -97 -866 
L 3631 -866 
L 3631 -1272 
L -97 -1272 
z
" id="ArialMT-5f" transform="scale(0.015625)"/>
      </defs>
      <use xlink:href="#ArialMT-61"/>
      <use x="55.615234" xlink:href="#ArialMT-6c"/>
      <use x="77.832031" xlink:href="#ArialMT-6c"/>
      <use x="100.048828" xlink:href="#ArialMT-72"/>
      <use x="133.349609" xlink:href="#ArialMT-65"/>
      <use x="188.964844" xlink:href="#ArialMT-64"/>
      <use x="244.580078" xlink:href="#ArialMT-75"/>
      <use x="300.195312" xlink:href="#ArialMT-63"/>
      <use x="350.195312" xlink:href="#ArialMT-65"/>
      <use x="405.810547" xlink:href="#ArialMT-2d"/>
      <use x="439.111328" xlink:href="#ArialMT-6e"/>
      <use x="494.726562" xlink:href="#ArialMT-61"/>
      <use x="550.341797" xlink:href="#ArialMT-74"/>
      <use x="578.125" xlink:href="#ArialMT-69"/>
      <use x="600.341797" xlink:href="#ArialMT-76"/>
      <use x="650.341797" xlink:href="#ArialMT-65"/>
      <use x="705.957031" xlink:href="#ArialMT-2d"/>
      <use x="739.257812" xlink:href="#ArialMT-62"/>
      <use x="794.873047" xlink:href="#ArialMT-61"/>
      <use x="850.488281" xlink:href="#ArialMT-73"/>
      <use x="900.488281" xlink:href="#ArialMT-69"/>
      <use x="922.705078" xlink:href="#ArialMT-63"/>
      <use x="972.705078" xlink:href="#ArialMT-5f"/>
      <use x="1028.320312" xlink:href="#ArialMT-6c"/>
      <use x="1050.537109" xlink:href="#ArialMT-69"/>
      <use x="1072.753906" xlink:href="#ArialMT-6e"/>
      <use x="1128.369141" xlink:href="#ArialMT-65"/>
      <use x="1183.984375" xlink:href="#ArialMT-61"/>
      <use x="1239.599609" xlink:href="#ArialMT-72"/>
     </g>
    </g>
    <g id="line2d_29">
     <path d="M 229.497156 104.996719 
L 251.497156 104.996719 
" style="fill:none;stroke:#c44e52;stroke-linecap:round;stroke-width:1.5;"/>
    </g>
    <g id="line2d_30">
     <g>
      <use style="fill:#c44e52;stroke:#c44e52;" x="240.497156" xlink:href="#mc5009974c6" y="104.996719"/>
     </g>
    </g>
    <g id="text_19">
     <!-- allreduce-native-nonoverlapping -->
     <g style="fill:#262626;" transform="translate(260.297156 108.846719)scale(0.11 -0.11)">
      <defs>
       <path d="M 319 -275 
L 866 -356 
Q 900 -609 1056 -725 
Q 1266 -881 1628 -881 
Q 2019 -881 2231 -725 
Q 2444 -569 2519 -288 
Q 2563 -116 2559 434 
Q 2191 0 1641 0 
Q 956 0 581 494 
Q 206 988 206 1678 
Q 206 2153 378 2554 
Q 550 2956 876 3175 
Q 1203 3394 1644 3394 
Q 2231 3394 2613 2919 
L 2613 3319 
L 3131 3319 
L 3131 450 
Q 3131 -325 2973 -648 
Q 2816 -972 2473 -1159 
Q 2131 -1347 1631 -1347 
Q 1038 -1347 672 -1080 
Q 306 -813 319 -275 
z
M 784 1719 
Q 784 1066 1043 766 
Q 1303 466 1694 466 
Q 2081 466 2343 764 
Q 2606 1063 2606 1700 
Q 2606 2309 2336 2618 
Q 2066 2928 1684 2928 
Q 1309 2928 1046 2623 
Q 784 2319 784 1719 
z
" id="ArialMT-67" transform="scale(0.015625)"/>
      </defs>
      <use xlink:href="#ArialMT-61"/>
      <use x="55.615234" xlink:href="#ArialMT-6c"/>
      <use x="77.832031" xlink:href="#ArialMT-6c"/>
      <use x="100.048828" xlink:href="#ArialMT-72"/>
      <use x="133.349609" xlink:href="#ArialMT-65"/>
      <use x="188.964844" xlink:href="#ArialMT-64"/>
      <use x="244.580078" xlink:href="#ArialMT-75"/>
      <use x="300.195312" xlink:href="#ArialMT-63"/>
      <use x="350.195312" xlink:href="#ArialMT-65"/>
      <use x="405.810547" xlink:href="#ArialMT-2d"/>
      <use x="439.111328" xlink:href="#ArialMT-6e"/>
      <use x="494.726562" xlink:href="#ArialMT-61"/>
      <use x="550.341797" xlink:href="#ArialMT-74"/>
      <use x="578.125" xlink:href="#ArialMT-69"/>
      <use x="600.341797" xlink:href="#ArialMT-76"/>
      <use x="650.341797" xlink:href="#ArialMT-65"/>
      <use x="705.957031" xlink:href="#ArialMT-2d"/>
      <use x="739.257812" xlink:href="#ArialMT-6e"/>
      <use x="794.873047" xlink:href="#ArialMT-6f"/>
      <use x="850.488281" xlink:href="#ArialMT-6e"/>
      <use x="906.103516" xlink:href="#ArialMT-6f"/>
      <use x="961.71875" xlink:href="#ArialMT-76"/>
      <use x="1011.71875" xlink:href="#ArialMT-65"/>
      <use x="1067.333984" xlink:href="#ArialMT-72"/>
      <use x="1100.634766" xlink:href="#ArialMT-6c"/>
      <use x="1122.851562" xlink:href="#ArialMT-61"/>
      <use x="1178.466797" xlink:href="#ArialMT-70"/>
      <use x="1234.082031" xlink:href="#ArialMT-70"/>
      <use x="1289.697266" xlink:href="#ArialMT-69"/>
      <use x="1311.914062" xlink:href="#ArialMT-6e"/>
      <use x="1367.529297" xlink:href="#ArialMT-67"/>
     </g>
    </g>
    <g id="line2d_31">
     <path d="M 229.497156 120.685469 
L 251.497156 120.685469 
" style="fill:none;stroke:#8172b3;stroke-linecap:round;stroke-width:1.5;"/>
    </g>
    <g id="line2d_32">
     <g>
      <use style="fill:#8172b3;stroke:#8172b3;" x="240.497156" xlink:href="#m3cc5eb2bde" y="120.685469"/>
     </g>
    </g>
    <g id="text_20">
     <!-- allreduce-native-rabenseifner -->
     <g style="fill:#262626;" transform="translate(260.297156 124.535469)scale(0.11 -0.11)">
      <use xlink:href="#ArialMT-61"/>
      <use x="55.615234" xlink:href="#ArialMT-6c"/>
      <use x="77.832031" xlink:href="#ArialMT-6c"/>
      <use x="100.048828" xlink:href="#ArialMT-72"/>
      <use x="133.349609" xlink:href="#ArialMT-65"/>
      <use x="188.964844" xlink:href="#ArialMT-64"/>
      <use x="244.580078" xlink:href="#ArialMT-75"/>
      <use x="300.195312" xlink:href="#ArialMT-63"/>
      <use x="350.195312" xlink:href="#ArialMT-65"/>
      <use x="405.810547" xlink:href="#ArialMT-2d"/>
      <use x="439.111328" xlink:href="#ArialMT-6e"/>
      <use x="494.726562" xlink:href="#ArialMT-61"/>
      <use x="550.341797" xlink:href="#ArialMT-74"/>
      <use x="578.125" xlink:href="#ArialMT-69"/>
      <use x="600.341797" xlink:href="#ArialMT-76"/>
      <use x="650.341797" xlink:href="#ArialMT-65"/>
      <use x="705.957031" xlink:href="#ArialMT-2d"/>
      <use x="739.257812" xlink:href="#ArialMT-72"/>
      <use x="772.558594" xlink:href="#ArialMT-61"/>
      <use x="828.173828" xlink:href="#ArialMT-62"/>
      <use x="883.789062" xlink:href="#ArialMT-65"/>
      <use x="939.404297" xlink:href="#ArialMT-6e"/>
      <use x="995.019531" xlink:href="#ArialMT-73"/>
      <use x="1045.019531" xlink:href="#ArialMT-65"/>
      <use x="1100.634766" xlink:href="#ArialMT-69"/>
      <use x="1122.851562" xlink:href="#ArialMT-66"/>
      <use x="1150.634766" xlink:href="#ArialMT-6e"/>
      <use x="1206.25" xlink:href="#ArialMT-65"/>
      <use x="1261.865234" xlink:href="#ArialMT-72"/>
     </g>
    </g>
    <g id="line2d_33">
     <path d="M 229.497156 136.245312 
L 251.497156 136.245312 
" style="fill:none;stroke:#937860;stroke-linecap:round;stroke-width:1.5;"/>
    </g>
    <g id="line2d_34">
     <g>
      <use style="fill:#937860;stroke:#937860;" x="240.497156" xlink:href="#m0fbc634abe" y="136.245312"/>
     </g>
    </g>
    <g id="text_21">
     <!-- allreduce-native-recursive_doubling -->
     <g style="fill:#262626;" transform="translate(260.297156 140.095312)scale(0.11 -0.11)">
      <use xlink:href="#ArialMT-61"/>
      <use x="55.615234" xlink:href="#ArialMT-6c"/>
      <use x="77.832031" xlink:href="#ArialMT-6c"/>
      <use x="100.048828" xlink:href="#ArialMT-72"/>
      <use x="133.349609" xlink:href="#ArialMT-65"/>
      <use x="188.964844" xlink:href="#ArialMT-64"/>
      <use x="244.580078" xlink:href="#ArialMT-75"/>
      <use x="300.195312" xlink:href="#ArialMT-63"/>
      <use x="350.195312" xlink:href="#ArialMT-65"/>
      <use x="405.810547" xlink:href="#ArialMT-2d"/>
      <use x="439.111328" xlink:href="#ArialMT-6e"/>
      <use x="494.726562" xlink:href="#ArialMT-61"/>
      <use x="550.341797" xlink:href="#ArialMT-74"/>
      <use x="578.125" xlink:href="#ArialMT-69"/>
      <use x="600.341797" xlink:href="#ArialMT-76"/>
      <use x="650.341797" xlink:href="#ArialMT-65"/>
      <use x="705.957031" xlink:href="#ArialMT-2d"/>
      <use x="739.257812" xlink:href="#ArialMT-72"/>
      <use x="772.558594" xlink:href="#ArialMT-65"/>
      <use x="828.173828" xlink:href="#ArialMT-63"/>
      <use x="878.173828" xlink:href="#ArialMT-75"/>
      <use x="933.789062" xlink:href="#ArialMT-72"/>
      <use x="967.089844" xlink:href="#ArialMT-73"/>
      <use x="1017.089844" xlink:href="#ArialMT-69"/>
      <use x="1039.306641" xlink:href="#ArialMT-76"/>
      <use x="1089.306641" xlink:href="#ArialMT-65"/>
      <use x="1144.921875" xlink:href="#ArialMT-5f"/>
      <use x="1200.537109" xlink:href="#ArialMT-64"/>
      <use x="1256.152344" xlink:href="#ArialMT-6f"/>
      <use x="1311.767578" xlink:href="#ArialMT-75"/>
      <use x="1367.382812" xlink:href="#ArialMT-62"/>
      <use x="1422.998047" xlink:href="#ArialMT-6c"/>
      <use x="1445.214844" xlink:href="#ArialMT-69"/>
      <use x="1467.431641" xlink:href="#ArialMT-6e"/>
      <use x="1523.046875" xlink:href="#ArialMT-67"/>
     </g>
    </g>
    <g id="line2d_35">
     <path d="M 229.497156 151.934063 
L 251.497156 151.934063 
" style="fill:none;stroke:#da8bc3;stroke-linecap:round;stroke-width:1.5;"/>
    </g>
    <g id="line2d_36">
     <g>
      <use style="fill:#da8bc3;stroke:#da8bc3;" x="240.497156" xlink:href="#madfee95f1f" y="151.934063"/>
     </g>
    </g>
    <g id="text_22">
     <!-- allreduce-native-ring -->
     <g style="fill:#262626;" transform="translate(260.297156 155.784063)scale(0.11 -0.11)">
      <use xlink:href="#ArialMT-61"/>
      <use x="55.615234" xlink:href="#ArialMT-6c"/>
      <use x="77.832031" xlink:href="#ArialMT-6c"/>
      <use x="100.048828" xlink:href="#ArialMT-72"/>
      <use x="133.349609" xlink:href="#ArialMT-65"/>
      <use x="188.964844" xlink:href="#ArialMT-64"/>
      <use x="244.580078" xlink:href="#ArialMT-75"/>
      <use x="300.195312" xlink:href="#ArialMT-63"/>
      <use x="350.195312" xlink:href="#ArialMT-65"/>
      <use x="405.810547" xlink:href="#ArialMT-2d"/>
      <use x="439.111328" xlink:href="#ArialMT-6e"/>
      <use x="494.726562" xlink:href="#ArialMT-61"/>
      <use x="550.341797" xlink:href="#ArialMT-74"/>
      <use x="578.125" xlink:href="#ArialMT-69"/>
      <use x="600.341797" xlink:href="#ArialMT-76"/>
      <use x="650.341797" xlink:href="#ArialMT-65"/>
      <use x="705.957031" xlink:href="#ArialMT-2d"/>
      <use x="739.257812" xlink:href="#ArialMT-72"/>
      <use x="772.558594" xlink:href="#ArialMT-69"/>
      <use x="794.775391" xlink:href="#ArialMT-6e"/>
      <use x="850.390625" xlink:href="#ArialMT-67"/>
     </g>
    </g>
    <g id="line2d_37">
     <path d="M 229.497156 167.622812 
L 251.497156 167.622812 
" style="fill:none;stroke:#8c8c8c;stroke-linecap:round;stroke-width:1.5;"/>
    </g>
    <g id="line2d_38">
     <g>
      <use style="fill:#8c8c8c;stroke:#8c8c8c;" x="240.497156" xlink:href="#ma85a69d616" y="167.622812"/>
     </g>
    </g>
    <g id="text_23">
     <!-- allreduce-native-segmented_ring -->
     <g style="fill:#262626;" transform="translate(260.297156 171.472812)scale(0.11 -0.11)">
      <use xlink:href="#ArialMT-61"/>
      <use x="55.615234" xlink:href="#ArialMT-6c"/>
      <use x="77.832031" xlink:href="#ArialMT-6c"/>
      <use x="100.048828" xlink:href="#ArialMT-72"/>
      <use x="133.349609" xlink:href="#ArialMT-65"/>
      <use x="188.964844" xlink:href="#ArialMT-64"/>
      <use x="244.580078" xlink:href="#ArialMT-75"/>
      <use x="300.195312" xlink:href="#ArialMT-63"/>
      <use x="350.195312" xlink:href="#ArialMT-65"/>
      <use x="405.810547" xlink:href="#ArialMT-2d"/>
      <use x="439.111328" xlink:href="#ArialMT-6e"/>
      <use x="494.726562" xlink:href="#ArialMT-61"/>
      <use x="550.341797" xlink:href="#ArialMT-74"/>
      <use x="578.125" xlink:href="#ArialMT-69"/>
      <use x="600.341797" xlink:href="#ArialMT-76"/>
      <use x="650.341797" xlink:href="#ArialMT-65"/>
      <use x="705.957031" xlink:href="#ArialMT-2d"/>
      <use x="739.257812" xlink:href="#ArialMT-73"/>
      <use x="789.257812" xlink:href="#ArialMT-65"/>
      <use x="844.873047" xlink:href="#ArialMT-67"/>
      <use x="900.488281" xlink:href="#ArialMT-6d"/>
      <use x="983.789062" xlink:href="#ArialMT-65"/>
      <use x="1039.404297" xlink:href="#ArialMT-6e"/>
      <use x="1095.019531" xlink:href="#ArialMT-74"/>
      <use x="1122.802734" xlink:href="#ArialMT-65"/>
      <use x="1178.417969" xlink:href="#ArialMT-64"/>
      <use x="1234.033203" xlink:href="#ArialMT-5f"/>
      <use x="1289.648438" xlink:href="#ArialMT-72"/>
      <use x="1322.949219" xlink:href="#ArialMT-69"/>
      <use x="1345.166016" xlink:href="#ArialMT-6e"/>
      <use x="1400.78125" xlink:href="#ArialMT-67"/>
     </g>
    </g>
    <g id="line2d_39">
     <path d="M 229.497156 183.311563 
L 251.497156 183.311563 
" style="fill:none;stroke:#ccb974;stroke-linecap:round;stroke-width:1.5;"/>
    </g>
    <g id="line2d_40">
     <g>
      <use style="fill:#ccb974;stroke:#ccb974;" x="240.497156" xlink:href="#m6f6b8b749d" y="183.311563"/>
     </g>
    </g>
    <g id="text_24">
     <!-- allreduce-rabenseifner -->
     <g style="fill:#262626;" transform="translate(260.297156 187.161563)scale(0.11 -0.11)">
      <use xlink:href="#ArialMT-61"/>
      <use x="55.615234" xlink:href="#ArialMT-6c"/>
      <use x="77.832031" xlink:href="#ArialMT-6c"/>
      <use x="100.048828" xlink:href="#ArialMT-72"/>
      <use x="133.349609" xlink:href="#ArialMT-65"/>
      <use x="188.964844" xlink:href="#ArialMT-64"/>
      <use x="244.580078" xlink:href="#ArialMT-75"/>
      <use x="300.195312" xlink:href="#ArialMT-63"/>
      <use x="350.195312" xlink:href="#ArialMT-65"/>
      <use x="405.810547" xlink:href="#ArialMT-2d"/>
      <use x="439.111328" xlink:href="#ArialMT-72"/>
      <use x="472.412109" xlink:href="#ArialMT-61"/>
      <use x="528.027344" xlink:href="#ArialMT-62"/>
      <use x="583.642578" xlink:href="#ArialMT-65"/>
      <use x="639.257812" xlink:href="#ArialMT-6e"/>
      <use x="694.873047" xlink:href="#ArialMT-73"/>
      <use x="744.873047" xlink:href="#ArialMT-65"/>
      <use x="800.488281" xlink:href="#ArialMT-69"/>
      <use x="822.705078" xlink:href="#ArialMT-66"/>
      <use x="850.488281" xlink:href="#ArialMT-6e"/>
      <use x="906.103516" xlink:href="#ArialMT-65"/>
      <use x="961.71875" xlink:href="#ArialMT-72"/>
     </g>
    </g>
    <g id="line2d_41">
     <path d="M 229.497156 198.871406 
L 251.497156 198.871406 
" style="fill:none;stroke:#64b5cd;stroke-linecap:round;stroke-width:1.5;"/>
    </g>
    <g id="line2d_42">
     <g>
      <use style="fill:#64b5cd;stroke:#64b5cd;" x="240.497156" xlink:href="#m0df4df6122" y="198.871406"/>
     </g>
    </g>
    <g id="text_25">
     <!-- allreduce-ring -->
     <g style="fill:#262626;" transform="translate(260.297156 202.721406)scale(0.11 -0.11)">
      <use xlink:href="#ArialMT-61"/>
      <use x="55.615234" xlink:href="#ArialMT-6c"/>
      <use x="77.832031" xlink:href="#ArialMT-6c"/>
      <use x="100.048828" xlink:href="#ArialMT-72"/>
      <use x="133.349609" xlink:href="#ArialMT-65"/>
      <use x="188.964844" xlink:href="#ArialMT-64"/>
      <use x="244.580078" xlink:href="#ArialMT-75"/>
      <use x="300.195312" xlink:href="#ArialMT-63"/>
      <use x="350.195312" xlink:href="#ArialMT-65"/>
      <use x="405.810547" xlink:href="#ArialMT-2d"/>
      <use x="439.111328" xlink:href="#ArialMT-72"/>
      <use x="472.412109" xlink:href="#ArialMT-69"/>
      <use x="494.628906" xlink:href="#ArialMT-6e"/>
      <use x="550.244141" xlink:href="#ArialMT-67"/>
     </g>
    </g>
   </g>
  </g>
 </g>
 <defs>
  <clipPath id="pae4c2529f2">
   <rect height="270.60375" width="405.987312" x="37.85" y="27.65625"/>
  </clipPath>
 </defs>
</svg>
