<?xml version="1.0" encoding="utf-8" standalone="no"?>
<!DOCTYPE svg PUBLIC "-//W3C//DTD SVG 1.1//EN"
  "http://www.w3.org/Graphics/SVG/1.1/DTD/svg11.dtd">
<svg height="345.6pt" version="1.1" viewBox="0 0 460.8 345.6" width="460.8pt" xmlns="http://www.w3.org/2000/svg" xmlns:xlink="http://www.w3.org/1999/xlink">
 <metadata>
  <rdf:RDF xmlns:cc="http://creativecommons.org/ns#" xmlns:dc="http://purl.org/dc/elements/1.1/" xmlns:rdf="http://www.w3.org/1999/02/22-rdf-syntax-ns#">
   <cc:Work>
    <dc:type rdf:resource="http://purl.org/dc/dcmitype/StillImage"/>
    <dc:date>2021-11-20T20:49:47.536875</dc:date>
    <dc:format>image/svg+xml</dc:format>
    <dc:creator>
     <cc:Agent>
      <dc:title>Matplotlib v3.4.3, https://matplotlib.org/</dc:title>
     </cc:Agent>
    </dc:creator>
   </cc:Work>
  </rdf:RDF>
 </metadata>
 <defs>
  <style type="text/css">*{stroke-linecap:butt;stroke-linejoin:round;}</style>
 </defs>
 <g id="figure_1">
  <g id="patch_1">
   <path d="M 0 345.6 
L 460.8 345.6 
L 460.8 0 
L 0 0 
z
" style="fill:#ffffff;"/>
  </g>
  <g id="axes_1">
   <g id="patch_2">
    <path d="M 37.85 298.26 
L 443.837312 298.26 
L 443.837312 27.65625 
L 37.85 27.65625 
z
" style="fill:#eaeaf2;"/>
   </g>
   <g id="matplotlib.axis_1">
    <g id="xtick_1">
     <g id="line2d_1">
      <path clip-path="url(#pdc860390f8)" d="M 40.257039 298.26 
L 40.257039 27.65625 
" style="fill:none;stroke:#ffffff;stroke-linecap:round;"/>
     </g>
     <g id="text_1">
      <!-- 0 -->
      <g style="fill:#262626;" transform="translate(37.198524 315.633594)scale(0.11 -0.11)">
       <defs>
        <path d="M 266 2259 
Q 266 3072 433 3567 
Q 600 4063 929 4331 
Q 1259 4600 1759 4600 
Q 2128 4600 2406 4451 
Q 2684 4303 2865 4023 
Q 3047 3744 3150 3342 
Q 3253 2941 3253 2259 
Q 3253 1453 3087 958 
Q 2922 463 2592 192 
Q 2263 -78 1759 -78 
Q 1097 -78 719 397 
Q 266 969 266 2259 
z
M 844 2259 
Q 844 1131 1108 757 
Q 1372 384 1759 384 
Q 2147 384 2411 759 
Q 2675 1134 2675 2259 
Q 2675 3391 2411 3762 
Q 2147 4134 1753 4134 
Q 1366 4134 1134 3806 
Q 844 3388 844 2259 
z
" id="ArialMT-30" transform="scale(0.015625)"/>
       </defs>
       <use xlink:href="#ArialMT-30"/>
      </g>
     </g>
    </g>
    <g id="xtick_2">
     <g id="line2d_2">
      <path clip-path="url(#pdc860390f8)" d="M 120.491686 298.26 
L 120.491686 27.65625 
" style="fill:none;stroke:#ffffff;stroke-linecap:round;"/>
     </g>
     <g id="text_2">
      <!-- 10 -->
      <g style="fill:#262626;" transform="translate(114.374655 315.633594)scale(0.11 -0.11)">
       <defs>
        <path d="M 2384 0 
L 1822 0 
L 1822 3584 
Q 1619 3391 1289 3197 
Q 959 3003 697 2906 
L 697 3450 
Q 1169 3672 1522 3987 
Q 1875 4303 2022 4600 
L 2384 4600 
L 2384 0 
z
" id="ArialMT-31" transform="scale(0.015625)"/>
       </defs>
       <use xlink:href="#ArialMT-31"/>
       <use x="55.615234" xlink:href="#ArialMT-30"/>
      </g>
     </g>
    </g>
    <g id="xtick_3">
     <g id="line2d_3">
      <path clip-path="url(#pdc860390f8)" d="M 200.726333 298.26 
L 200.726333 27.65625 
" style="fill:none;stroke:#ffffff;stroke-linecap:round;"/>
     </g>
     <g id="text_3">
      <!-- 20 -->
      <g style="fill:#262626;" transform="translate(194.609302 315.633594)scale(0.11 -0.11)">
       <defs>
        <path d="M 3222 541 
L 3222 0 
L 194 0 
Q 188 203 259 391 
Q 375 700 629 1000 
Q 884 1300 1366 1694 
Q 2113 2306 2375 2664 
Q 2638 3022 2638 3341 
Q 2638 3675 2398 3904 
Q 2159 4134 1775 4134 
Q 1369 4134 1125 3890 
Q 881 3647 878 3216 
L 300 3275 
Q 359 3922 746 4261 
Q 1134 4600 1788 4600 
Q 2447 4600 2831 4234 
Q 3216 3869 3216 3328 
Q 3216 3053 3103 2787 
Q 2991 2522 2730 2228 
Q 2469 1934 1863 1422 
Q 1356 997 1212 845 
Q 1069 694 975 541 
L 3222 541 
z
" id="ArialMT-32" transform="scale(0.015625)"/>
       </defs>
       <use xlink:href="#ArialMT-32"/>
       <use x="55.615234" xlink:href="#ArialMT-30"/>
      </g>
     </g>
    </g>
    <g id="xtick_4">
     <g id="line2d_4">
      <path clip-path="url(#pdc860390f8)" d="M 280.960979 298.26 
L 280.960979 27.65625 
" style="fill:none;stroke:#ffffff;stroke-linecap:round;"/>
     </g>
     <g id="text_4">
      <!-- 30 -->
      <g style="fill:#262626;" transform="translate(274.843948 315.633594)scale(0.11 -0.11)">
       <defs>
        <path d="M 269 1209 
L 831 1284 
Q 928 806 1161 595 
Q 1394 384 1728 384 
Q 2125 384 2398 659 
Q 2672 934 2672 1341 
Q 2672 1728 2419 1979 
Q 2166 2231 1775 2231 
Q 1616 2231 1378 2169 
L 1441 2663 
Q 1497 2656 1531 2656 
Q 1891 2656 2178 2843 
Q 2466 3031 2466 3422 
Q 2466 3731 2256 3934 
Q 2047 4138 1716 4138 
Q 1388 4138 1169 3931 
Q 950 3725 888 3313 
L 325 3413 
Q 428 3978 793 4289 
Q 1159 4600 1703 4600 
Q 2078 4600 2393 4439 
Q 2709 4278 2876 4000 
Q 3044 3722 3044 3409 
Q 3044 3113 2884 2869 
Q 2725 2625 2413 2481 
Q 2819 2388 3044 2092 
Q 3269 1797 3269 1353 
Q 3269 753 2831 336 
Q 2394 -81 1725 -81 
Q 1122 -81 723 278 
Q 325 638 269 1209 
z
" id="ArialMT-33" transform="scale(0.015625)"/>
       </defs>
       <use xlink:href="#ArialMT-33"/>
       <use x="55.615234" xlink:href="#ArialMT-30"/>
      </g>
     </g>
    </g>
    <g id="xtick_5">
     <g id="line2d_5">
      <path clip-path="url(#pdc860390f8)" d="M 361.195626 298.26 
L 361.195626 27.65625 
" style="fill:none;stroke:#ffffff;stroke-linecap:round;"/>
     </g>
     <g id="text_5">
      <!-- 40 -->
      <g style="fill:#262626;" transform="translate(355.078595 315.633594)scale(0.11 -0.11)">
       <defs>
        <path d="M 2069 0 
L 2069 1097 
L 81 1097 
L 81 1613 
L 2172 4581 
L 2631 4581 
L 2631 1613 
L 3250 1613 
L 3250 1097 
L 2631 1097 
L 2631 0 
L 2069 0 
z
M 2069 1613 
L 2069 3678 
L 634 1613 
L 2069 1613 
z
" id="ArialMT-34" transform="scale(0.015625)"/>
       </defs>
       <use xlink:href="#ArialMT-34"/>
       <use x="55.615234" xlink:href="#ArialMT-30"/>
      </g>
     </g>
    </g>
    <g id="xtick_6">
     <g id="line2d_6">
      <path clip-path="url(#pdc860390f8)" d="M 441.430273 298.26 
L 441.430273 27.65625 
" style="fill:none;stroke:#ffffff;stroke-linecap:round;"/>
     </g>
     <g id="text_6">
      <!-- 50 -->
      <g style="fill:#262626;" transform="translate(435.313242 315.633594)scale(0.11 -0.11)">
       <defs>
        <path d="M 266 1200 
L 856 1250 
Q 922 819 1161 601 
Q 1400 384 1738 384 
Q 2144 384 2425 690 
Q 2706 997 2706 1503 
Q 2706 1984 2436 2262 
Q 2166 2541 1728 2541 
Q 1456 2541 1237 2417 
Q 1019 2294 894 2097 
L 366 2166 
L 809 4519 
L 3088 4519 
L 3088 3981 
L 1259 3981 
L 1013 2750 
Q 1425 3038 1878 3038 
Q 2478 3038 2890 2622 
Q 3303 2206 3303 1553 
Q 3303 931 2941 478 
Q 2500 -78 1738 -78 
Q 1113 -78 717 272 
Q 322 622 266 1200 
z
" id="ArialMT-35" transform="scale(0.015625)"/>
       </defs>
       <use xlink:href="#ArialMT-35"/>
       <use x="55.615234" xlink:href="#ArialMT-30"/>
      </g>
     </g>
    </g>
    <g id="text_7">
     <!-- Number of processes -->
     <g style="fill:#262626;" transform="translate(183.823969 330.555469)scale(0.12 -0.12)">
      <defs>
       <path d="M 488 0 
L 488 4581 
L 1109 4581 
L 3516 984 
L 3516 4581 
L 4097 4581 
L 4097 0 
L 3475 0 
L 1069 3600 
L 1069 0 
L 488 0 
z
" id="ArialMT-4e" transform="scale(0.015625)"/>
       <path d="M 2597 0 
L 2597 488 
Q 2209 -75 1544 -75 
Q 1250 -75 995 37 
Q 741 150 617 320 
Q 494 491 444 738 
Q 409 903 409 1263 
L 409 3319 
L 972 3319 
L 972 1478 
Q 972 1038 1006 884 
Q 1059 663 1231 536 
Q 1403 409 1656 409 
Q 1909 409 2131 539 
Q 2353 669 2445 892 
Q 2538 1116 2538 1541 
L 2538 3319 
L 3100 3319 
L 3100 0 
L 2597 0 
z
" id="ArialMT-75" transform="scale(0.015625)"/>
       <path d="M 422 0 
L 422 3319 
L 925 3319 
L 925 2853 
Q 1081 3097 1340 3245 
Q 1600 3394 1931 3394 
Q 2300 3394 2536 3241 
Q 2772 3088 2869 2813 
Q 3263 3394 3894 3394 
Q 4388 3394 4653 3120 
Q 4919 2847 4919 2278 
L 4919 0 
L 4359 0 
L 4359 2091 
Q 4359 2428 4304 2576 
Q 4250 2725 4106 2815 
Q 3963 2906 3769 2906 
Q 3419 2906 3187 2673 
Q 2956 2441 2956 1928 
L 2956 0 
L 2394 0 
L 2394 2156 
Q 2394 2531 2256 2718 
Q 2119 2906 1806 2906 
Q 1569 2906 1367 2781 
Q 1166 2656 1075 2415 
Q 984 2175 984 1722 
L 984 0 
L 422 0 
z
" id="ArialMT-6d" transform="scale(0.015625)"/>
       <path d="M 941 0 
L 419 0 
L 419 4581 
L 981 4581 
L 981 2947 
Q 1338 3394 1891 3394 
Q 2197 3394 2470 3270 
Q 2744 3147 2920 2923 
Q 3097 2700 3197 2384 
Q 3297 2069 3297 1709 
Q 3297 856 2875 390 
Q 2453 -75 1863 -75 
Q 1275 -75 941 416 
L 941 0 
z
M 934 1684 
Q 934 1088 1097 822 
Q 1363 388 1816 388 
Q 2184 388 2453 708 
Q 2722 1028 2722 1663 
Q 2722 2313 2464 2622 
Q 2206 2931 1841 2931 
Q 1472 2931 1203 2611 
Q 934 2291 934 1684 
z
" id="ArialMT-62" transform="scale(0.015625)"/>
       <path d="M 2694 1069 
L 3275 997 
Q 3138 488 2766 206 
Q 2394 -75 1816 -75 
Q 1088 -75 661 373 
Q 234 822 234 1631 
Q 234 2469 665 2931 
Q 1097 3394 1784 3394 
Q 2450 3394 2872 2941 
Q 3294 2488 3294 1666 
Q 3294 1616 3291 1516 
L 816 1516 
Q 847 969 1125 678 
Q 1403 388 1819 388 
Q 2128 388 2347 550 
Q 2566 713 2694 1069 
z
M 847 1978 
L 2700 1978 
Q 2663 2397 2488 2606 
Q 2219 2931 1791 2931 
Q 1403 2931 1139 2672 
Q 875 2413 847 1978 
z
" id="ArialMT-65" transform="scale(0.015625)"/>
       <path d="M 416 0 
L 416 3319 
L 922 3319 
L 922 2816 
Q 1116 3169 1280 3281 
Q 1444 3394 1641 3394 
Q 1925 3394 2219 3213 
L 2025 2691 
Q 1819 2813 1613 2813 
Q 1428 2813 1281 2702 
Q 1134 2591 1072 2394 
Q 978 2094 978 1738 
L 978 0 
L 416 0 
z
" id="ArialMT-72" transform="scale(0.015625)"/>
       <path id="ArialMT-20" transform="scale(0.015625)"/>
       <path d="M 213 1659 
Q 213 2581 725 3025 
Q 1153 3394 1769 3394 
Q 2453 3394 2887 2945 
Q 3322 2497 3322 1706 
Q 3322 1066 3130 698 
Q 2938 331 2570 128 
Q 2203 -75 1769 -75 
Q 1072 -75 642 372 
Q 213 819 213 1659 
z
M 791 1659 
Q 791 1022 1069 705 
Q 1347 388 1769 388 
Q 2188 388 2466 706 
Q 2744 1025 2744 1678 
Q 2744 2294 2464 2611 
Q 2184 2928 1769 2928 
Q 1347 2928 1069 2612 
Q 791 2297 791 1659 
z
" id="ArialMT-6f" transform="scale(0.015625)"/>
       <path d="M 556 0 
L 556 2881 
L 59 2881 
L 59 3319 
L 556 3319 
L 556 3672 
Q 556 4006 616 4169 
Q 697 4388 901 4523 
Q 1106 4659 1475 4659 
Q 1713 4659 2000 4603 
L 1916 4113 
Q 1741 4144 1584 4144 
Q 1328 4144 1222 4034 
Q 1116 3925 1116 3625 
L 1116 3319 
L 1763 3319 
L 1763 2881 
L 1116 2881 
L 1116 0 
L 556 0 
z
" id="ArialMT-66" transform="scale(0.015625)"/>
       <path d="M 422 -1272 
L 422 3319 
L 934 3319 
L 934 2888 
Q 1116 3141 1344 3267 
Q 1572 3394 1897 3394 
Q 2322 3394 2647 3175 
Q 2972 2956 3137 2557 
Q 3303 2159 3303 1684 
Q 3303 1175 3120 767 
Q 2938 359 2589 142 
Q 2241 -75 1856 -75 
Q 1575 -75 1351 44 
Q 1128 163 984 344 
L 984 -1272 
L 422 -1272 
z
M 931 1641 
Q 931 1000 1190 694 
Q 1450 388 1819 388 
Q 2194 388 2461 705 
Q 2728 1022 2728 1688 
Q 2728 2322 2467 2637 
Q 2206 2953 1844 2953 
Q 1484 2953 1207 2617 
Q 931 2281 931 1641 
z
" id="ArialMT-70" transform="scale(0.015625)"/>
       <path d="M 2588 1216 
L 3141 1144 
Q 3050 572 2676 248 
Q 2303 -75 1759 -75 
Q 1078 -75 664 370 
Q 250 816 250 1647 
Q 250 2184 428 2587 
Q 606 2991 970 3192 
Q 1334 3394 1763 3394 
Q 2303 3394 2647 3120 
Q 2991 2847 3088 2344 
L 2541 2259 
Q 2463 2594 2264 2762 
Q 2066 2931 1784 2931 
Q 1359 2931 1093 2626 
Q 828 2322 828 1663 
Q 828 994 1084 691 
Q 1341 388 1753 388 
Q 2084 388 2306 591 
Q 2528 794 2588 1216 
z
" id="ArialMT-63" transform="scale(0.015625)"/>
       <path d="M 197 991 
L 753 1078 
Q 800 744 1014 566 
Q 1228 388 1613 388 
Q 2000 388 2187 545 
Q 2375 703 2375 916 
Q 2375 1106 2209 1216 
Q 2094 1291 1634 1406 
Q 1016 1563 777 1677 
Q 538 1791 414 1992 
Q 291 2194 291 2438 
Q 291 2659 392 2848 
Q 494 3038 669 3163 
Q 800 3259 1026 3326 
Q 1253 3394 1513 3394 
Q 1903 3394 2198 3281 
Q 2494 3169 2634 2976 
Q 2775 2784 2828 2463 
L 2278 2388 
Q 2241 2644 2061 2787 
Q 1881 2931 1553 2931 
Q 1166 2931 1000 2803 
Q 834 2675 834 2503 
Q 834 2394 903 2306 
Q 972 2216 1119 2156 
Q 1203 2125 1616 2013 
Q 2213 1853 2448 1751 
Q 2684 1650 2818 1456 
Q 2953 1263 2953 975 
Q 2953 694 2789 445 
Q 2625 197 2315 61 
Q 2006 -75 1616 -75 
Q 969 -75 630 194 
Q 291 463 197 991 
z
" id="ArialMT-73" transform="scale(0.015625)"/>
      </defs>
      <use xlink:href="#ArialMT-4e"/>
      <use x="72.216797" xlink:href="#ArialMT-75"/>
      <use x="127.832031" xlink:href="#ArialMT-6d"/>
      <use x="211.132812" xlink:href="#ArialMT-62"/>
      <use x="266.748047" xlink:href="#ArialMT-65"/>
      <use x="322.363281" xlink:href="#ArialMT-72"/>
      <use x="355.664062" xlink:href="#ArialMT-20"/>
      <use x="383.447266" xlink:href="#ArialMT-6f"/>
      <use x="439.0625" xlink:href="#ArialMT-66"/>
      <use x="466.845703" xlink:href="#ArialMT-20"/>
      <use x="494.628906" xlink:href="#ArialMT-70"/>
      <use x="550.244141" xlink:href="#ArialMT-72"/>
      <use x="583.544922" xlink:href="#ArialMT-6f"/>
      <use x="639.160156" xlink:href="#ArialMT-63"/>
      <use x="689.160156" xlink:href="#ArialMT-65"/>
      <use x="744.775391" xlink:href="#ArialMT-73"/>
      <use x="794.775391" xlink:href="#ArialMT-73"/>
      <use x="844.775391" xlink:href="#ArialMT-65"/>
      <use x="900.390625" xlink:href="#ArialMT-73"/>
     </g>
    </g>
   </g>
   <g id="matplotlib.axis_2">
    <g id="ytick_1">
     <g id="line2d_7">
      <path clip-path="url(#pdc860390f8)" d="M 37.85 298.26 
L 443.837312 298.26 
" style="fill:none;stroke:#ffffff;stroke-linecap:round;"/>
     </g>
     <g id="text_8">
      <!-- 0.0 -->
      <g style="fill:#262626;" transform="translate(13.06 302.196797)scale(0.11 -0.11)">
       <defs>
        <path d="M 581 0 
L 581 641 
L 1222 641 
L 1222 0 
L 581 0 
z
" id="ArialMT-2e" transform="scale(0.015625)"/>
       </defs>
       <use xlink:href="#ArialMT-30"/>
       <use x="55.615234" xlink:href="#ArialMT-2e"/>
       <use x="83.398438" xlink:href="#ArialMT-30"/>
      </g>
     </g>
    </g>
    <g id="ytick_2">
     <g id="line2d_8">
      <path clip-path="url(#pdc860390f8)" d="M 37.85 244.13925 
L 443.837312 244.13925 
" style="fill:none;stroke:#ffffff;stroke-linecap:round;"/>
     </g>
     <g id="text_9">
      <!-- 0.2 -->
      <g style="fill:#262626;" transform="translate(13.06 248.076047)scale(0.11 -0.11)">
       <use xlink:href="#ArialMT-30"/>
       <use x="55.615234" xlink:href="#ArialMT-2e"/>
       <use x="83.398438" xlink:href="#ArialMT-32"/>
      </g>
     </g>
    </g>
    <g id="ytick_3">
     <g id="line2d_9">
      <path clip-path="url(#pdc860390f8)" d="M 37.85 190.0185 
L 443.837312 190.0185 
" style="fill:none;stroke:#ffffff;stroke-linecap:round;"/>
     </g>
     <g id="text_10">
      <!-- 0.4 -->
      <g style="fill:#262626;" transform="translate(13.06 193.955297)scale(0.11 -0.11)">
       <use xlink:href="#ArialMT-30"/>
       <use x="55.615234" xlink:href="#ArialMT-2e"/>
       <use x="83.398438" xlink:href="#ArialMT-34"/>
      </g>
     </g>
    </g>
    <g id="ytick_4">
     <g id="line2d_10">
      <path clip-path="url(#pdc860390f8)" d="M 37.85 135.89775 
L 443.837312 135.89775 
" style="fill:none;stroke:#ffffff;stroke-linecap:round;"/>
     </g>
     <g id="text_11">
      <!-- 0.6 -->
      <g style="fill:#262626;" transform="translate(13.06 139.834547)scale(0.11 -0.11)">
       <defs>
        <path d="M 3184 3459 
L 2625 3416 
Q 2550 3747 2413 3897 
Q 2184 4138 1850 4138 
Q 1581 4138 1378 3988 
Q 1113 3794 959 3422 
Q 806 3050 800 2363 
Q 1003 2672 1297 2822 
Q 1591 2972 1913 2972 
Q 2475 2972 2870 2558 
Q 3266 2144 3266 1488 
Q 3266 1056 3080 686 
Q 2894 316 2569 119 
Q 2244 -78 1831 -78 
Q 1128 -78 684 439 
Q 241 956 241 2144 
Q 241 3472 731 4075 
Q 1159 4600 1884 4600 
Q 2425 4600 2770 4297 
Q 3116 3994 3184 3459 
z
M 888 1484 
Q 888 1194 1011 928 
Q 1134 663 1356 523 
Q 1578 384 1822 384 
Q 2178 384 2434 671 
Q 2691 959 2691 1453 
Q 2691 1928 2437 2201 
Q 2184 2475 1800 2475 
Q 1419 2475 1153 2201 
Q 888 1928 888 1484 
z
" id="ArialMT-36" transform="scale(0.015625)"/>
       </defs>
       <use xlink:href="#ArialMT-30"/>
       <use x="55.615234" xlink:href="#ArialMT-2e"/>
       <use x="83.398438" xlink:href="#ArialMT-36"/>
      </g>
     </g>
    </g>
    <g id="ytick_5">
     <g id="line2d_11">
      <path clip-path="url(#pdc860390f8)" d="M 37.85 81.777 
L 443.837312 81.777 
" style="fill:none;stroke:#ffffff;stroke-linecap:round;"/>
     </g>
     <g id="text_12">
      <!-- 0.8 -->
      <g style="fill:#262626;" transform="translate(13.06 85.713797)scale(0.11 -0.11)">
       <defs>
        <path d="M 1131 2484 
Q 781 2613 612 2850 
Q 444 3088 444 3419 
Q 444 3919 803 4259 
Q 1163 4600 1759 4600 
Q 2359 4600 2725 4251 
Q 3091 3903 3091 3403 
Q 3091 3084 2923 2848 
Q 2756 2613 2416 2484 
Q 2838 2347 3058 2040 
Q 3278 1734 3278 1309 
Q 3278 722 2862 322 
Q 2447 -78 1769 -78 
Q 1091 -78 675 323 
Q 259 725 259 1325 
Q 259 1772 486 2073 
Q 713 2375 1131 2484 
z
M 1019 3438 
Q 1019 3113 1228 2906 
Q 1438 2700 1772 2700 
Q 2097 2700 2305 2904 
Q 2513 3109 2513 3406 
Q 2513 3716 2298 3927 
Q 2084 4138 1766 4138 
Q 1444 4138 1231 3931 
Q 1019 3725 1019 3438 
z
M 838 1322 
Q 838 1081 952 856 
Q 1066 631 1291 507 
Q 1516 384 1775 384 
Q 2178 384 2440 643 
Q 2703 903 2703 1303 
Q 2703 1709 2433 1975 
Q 2163 2241 1756 2241 
Q 1359 2241 1098 1978 
Q 838 1716 838 1322 
z
" id="ArialMT-38" transform="scale(0.015625)"/>
       </defs>
       <use xlink:href="#ArialMT-30"/>
       <use x="55.615234" xlink:href="#ArialMT-2e"/>
       <use x="83.398438" xlink:href="#ArialMT-38"/>
      </g>
     </g>
    </g>
    <g id="ytick_6">
     <g id="line2d_12">
      <path clip-path="url(#pdc860390f8)" d="M 37.85 27.65625 
L 443.837312 27.65625 
" style="fill:none;stroke:#ffffff;stroke-linecap:round;"/>
     </g>
     <g id="text_13">
      <!-- 1.0 -->
      <g style="fill:#262626;" transform="translate(13.06 31.593047)scale(0.11 -0.11)">
       <use xlink:href="#ArialMT-31"/>
       <use x="55.615234" xlink:href="#ArialMT-2e"/>
       <use x="83.398438" xlink:href="#ArialMT-30"/>
      </g>
     </g>
    </g>
   </g>
   <g id="line2d_13">
    <path clip-path="url(#pdc860390f8)" d="M 56.303969 189.889128 
L 72.350898 212.249512 
L 88.397827 225.745785 
L 104.444757 231.402953 
L 120.491686 227.349677 
L 136.538615 227.168998 
L 152.585545 232.953631 
L 168.632474 229.654675 
L 184.679403 222.754117 
L 200.726333 232.386498 
L 216.773262 230.683419 
L 232.820191 230.135772 
L 248.867121 234.022499 
L 264.91405 229.753444 
L 280.960979 229.959521 
L 297.007909 233.424096 
L 313.054838 290.998042 
L 329.101767 228.136994 
L 345.148697 281.339325 
L 361.195626 229.582726 
L 377.242556 230.119563 
L 393.289485 228.563391 
L 409.336414 227.733133 
L 425.383344 229.999879 
" style="fill:none;stroke:#4c72b0;stroke-linecap:round;stroke-width:1.5;"/>
    <defs>
     <path d="M 0 3 
C 0.795609 3 1.55874 2.683901 2.12132 2.12132 
C 2.683901 1.55874 3 0.795609 3 0 
C 3 -0.795609 2.683901 -1.55874 2.12132 -2.12132 
C 1.55874 -2.683901 0.795609 -3 0 -3 
C -0.795609 -3 -1.55874 -2.683901 -2.12132 -2.12132 
C -2.683901 -1.55874 -3 -0.795609 -3 0 
C -3 0.795609 -2.683901 1.55874 -2.12132 2.12132 
C -1.55874 2.683901 -0.795609 3 0 3 
z
" id="m6583c00f6b" style="stroke:#4c72b0;"/>
    </defs>
    <g clip-path="url(#pdc860390f8)">
     <use style="fill:#4c72b0;stroke:#4c72b0;" x="56.303969" xlink:href="#m6583c00f6b" y="189.889128"/>
     <use style="fill:#4c72b0;stroke:#4c72b0;" x="72.350898" xlink:href="#m6583c00f6b" y="212.249512"/>
     <use style="fill:#4c72b0;stroke:#4c72b0;" x="88.397827" xlink:href="#m6583c00f6b" y="225.745785"/>
     <use style="fill:#4c72b0;stroke:#4c72b0;" x="104.444757" xlink:href="#m6583c00f6b" y="231.402953"/>
     <use style="fill:#4c72b0;stroke:#4c72b0;" x="120.491686" xlink:href="#m6583c00f6b" y="227.349677"/>
     <use style="fill:#4c72b0;stroke:#4c72b0;" x="136.538615" xlink:href="#m6583c00f6b" y="227.168998"/>
     <use style="fill:#4c72b0;stroke:#4c72b0;" x="152.585545" xlink:href="#m6583c00f6b" y="232.953631"/>
     <use style="fill:#4c72b0;stroke:#4c72b0;" x="168.632474" xlink:href="#m6583c00f6b" y="229.654675"/>
     <use style="fill:#4c72b0;stroke:#4c72b0;" x="184.679403" xlink:href="#m6583c00f6b" y="222.754117"/>
     <use style="fill:#4c72b0;stroke:#4c72b0;" x="200.726333" xlink:href="#m6583c00f6b" y="232.386498"/>
     <use style="fill:#4c72b0;stroke:#4c72b0;" x="216.773262" xlink:href="#m6583c00f6b" y="230.683419"/>
     <use style="fill:#4c72b0;stroke:#4c72b0;" x="232.820191" xlink:href="#m6583c00f6b" y="230.135772"/>
     <use style="fill:#4c72b0;stroke:#4c72b0;" x="248.867121" xlink:href="#m6583c00f6b" y="234.022499"/>
     <use style="fill:#4c72b0;stroke:#4c72b0;" x="264.91405" xlink:href="#m6583c00f6b" y="229.753444"/>
     <use style="fill:#4c72b0;stroke:#4c72b0;" x="280.960979" xlink:href="#m6583c00f6b" y="229.959521"/>
     <use style="fill:#4c72b0;stroke:#4c72b0;" x="297.007909" xlink:href="#m6583c00f6b" y="233.424096"/>
     <use style="fill:#4c72b0;stroke:#4c72b0;" x="313.054838" xlink:href="#m6583c00f6b" y="290.998042"/>
     <use style="fill:#4c72b0;stroke:#4c72b0;" x="329.101767" xlink:href="#m6583c00f6b" y="228.136994"/>
     <use style="fill:#4c72b0;stroke:#4c72b0;" x="345.148697" xlink:href="#m6583c00f6b" y="281.339325"/>
     <use style="fill:#4c72b0;stroke:#4c72b0;" x="361.195626" xlink:href="#m6583c00f6b" y="229.582726"/>
     <use style="fill:#4c72b0;stroke:#4c72b0;" x="377.242556" xlink:href="#m6583c00f6b" y="230.119563"/>
     <use style="fill:#4c72b0;stroke:#4c72b0;" x="393.289485" xlink:href="#m6583c00f6b" y="228.563391"/>
     <use style="fill:#4c72b0;stroke:#4c72b0;" x="409.336414" xlink:href="#m6583c00f6b" y="227.733133"/>
     <use style="fill:#4c72b0;stroke:#4c72b0;" x="425.383344" xlink:href="#m6583c00f6b" y="229.999879"/>
    </g>
   </g>
   <g id="line2d_14">
    <path clip-path="url(#pdc860390f8)" d="M 56.303969 246.10814 
L 72.350898 240.478151 
M 104.444757 251.956572 
M 168.632474 246.557347 
M 297.007909 250.313218 
" style="fill:none;stroke:#dd8452;stroke-linecap:round;stroke-width:1.5;"/>
    <defs>
     <path d="M 0 3 
C 0.795609 3 1.55874 2.683901 2.12132 2.12132 
C 2.683901 1.55874 3 0.795609 3 0 
C 3 -0.795609 2.683901 -1.55874 2.12132 -2.12132 
C 1.55874 -2.683901 0.795609 -3 0 -3 
C -0.795609 -3 -1.55874 -2.683901 -2.12132 -2.12132 
C -2.683901 -1.55874 -3 -0.795609 -3 0 
C -3 0.795609 -2.683901 1.55874 -2.12132 2.12132 
C -1.55874 2.683901 -0.795609 3 0 3 
z
" id="m1d30b16bcc" style="stroke:#dd8452;"/>
    </defs>
    <g clip-path="url(#pdc860390f8)">
     <use style="fill:#dd8452;stroke:#dd8452;" x="56.303969" xlink:href="#m1d30b16bcc" y="246.10814"/>
     <use style="fill:#dd8452;stroke:#dd8452;" x="72.350898" xlink:href="#m1d30b16bcc" y="240.478151"/>
     <use style="fill:#dd8452;stroke:#dd8452;" x="104.444757" xlink:href="#m1d30b16bcc" y="251.956572"/>
     <use style="fill:#dd8452;stroke:#dd8452;" x="168.632474" xlink:href="#m1d30b16bcc" y="246.557347"/>
     <use style="fill:#dd8452;stroke:#dd8452;" x="297.007909" xlink:href="#m1d30b16bcc" y="250.313218"/>
    </g>
   </g>
   <g id="line2d_15">
    <path clip-path="url(#pdc860390f8)" d="M 56.303969 224.482976 
L 72.350898 269.580015 
L 88.397827 280.355676 
L 104.444757 285.591766 
L 120.491686 288.454021 
L 136.538615 290.590714 
L 152.585545 291.023111 
L 168.632474 292.723613 
L 184.679403 292.827734 
L 200.726333 294.17494 
L 216.773262 294.0862 
L 232.820191 294.387837 
L 248.867121 294.646318 
L 264.91405 294.973186 
L 280.960979 294.849717 
L 297.007909 295.165675 
L 313.054838 295.379785 
L 329.101767 295.669969 
L 345.148697 295.934251 
L 361.195626 296.085156 
L 377.242556 295.66675 
L 393.289485 296.233409 
L 409.336414 296.339019 
L 425.383344 296.325001 
" style="fill:none;stroke:#55a868;stroke-linecap:round;stroke-width:1.5;"/>
    <defs>
     <path d="M 0 3 
C 0.795609 3 1.55874 2.683901 2.12132 2.12132 
C 2.683901 1.55874 3 0.795609 3 0 
C 3 -0.795609 2.683901 -1.55874 2.12132 -2.12132 
C 1.55874 -2.683901 0.795609 -3 0 -3 
C -0.795609 -3 -1.55874 -2.683901 -2.12132 -2.12132 
C -2.683901 -1.55874 -3 -0.795609 -3 0 
C -3 0.795609 -2.683901 1.55874 -2.12132 2.12132 
C -1.55874 2.683901 -0.795609 3 0 3 
z
" id="m843f13e81e" style="stroke:#55a868;"/>
    </defs>
    <g clip-path="url(#pdc860390f8)">
     <use style="fill:#55a868;stroke:#55a868;" x="56.303969" xlink:href="#m843f13e81e" y="224.482976"/>
     <use style="fill:#55a868;stroke:#55a868;" x="72.350898" xlink:href="#m843f13e81e" y="269.580015"/>
     <use style="fill:#55a868;stroke:#55a868;" x="88.397827" xlink:href="#m843f13e81e" y="280.355676"/>
     <use style="fill:#55a868;stroke:#55a868;" x="104.444757" xlink:href="#m843f13e81e" y="285.591766"/>
     <use style="fill:#55a868;stroke:#55a868;" x="120.491686" xlink:href="#m843f13e81e" y="288.454021"/>
     <use style="fill:#55a868;stroke:#55a868;" x="136.538615" xlink:href="#m843f13e81e" y="290.590714"/>
     <use style="fill:#55a868;stroke:#55a868;" x="152.585545" xlink:href="#m843f13e81e" y="291.023111"/>
     <use style="fill:#55a868;stroke:#55a868;" x="168.632474" xlink:href="#m843f13e81e" y="292.723613"/>
     <use style="fill:#55a868;stroke:#55a868;" x="184.679403" xlink:href="#m843f13e81e" y="292.827734"/>
     <use style="fill:#55a868;stroke:#55a868;" x="200.726333" xlink:href="#m843f13e81e" y="294.17494"/>
     <use style="fill:#55a868;stroke:#55a868;" x="216.773262" xlink:href="#m843f13e81e" y="294.0862"/>
     <use style="fill:#55a868;stroke:#55a868;" x="232.820191" xlink:href="#m843f13e81e" y="294.387837"/>
     <use style="fill:#55a868;stroke:#55a868;" x="248.867121" xlink:href="#m843f13e81e" y="294.646318"/>
     <use style="fill:#55a868;stroke:#55a868;" x="264.91405" xlink:href="#m843f13e81e" y="294.973186"/>
     <use style="fill:#55a868;stroke:#55a868;" x="280.960979" xlink:href="#m843f13e81e" y="294.849717"/>
     <use style="fill:#55a868;stroke:#55a868;" x="297.007909" xlink:href="#m843f13e81e" y="295.165675"/>
     <use style="fill:#55a868;stroke:#55a868;" x="313.054838" xlink:href="#m843f13e81e" y="295.379785"/>
     <use style="fill:#55a868;stroke:#55a868;" x="329.101767" xlink:href="#m843f13e81e" y="295.669969"/>
     <use style="fill:#55a868;stroke:#55a868;" x="345.148697" xlink:href="#m843f13e81e" y="295.934251"/>
     <use style="fill:#55a868;stroke:#55a868;" x="361.195626" xlink:href="#m843f13e81e" y="296.085156"/>
     <use style="fill:#55a868;stroke:#55a868;" x="377.242556" xlink:href="#m843f13e81e" y="295.66675"/>
     <use style="fill:#55a868;stroke:#55a868;" x="393.289485" xlink:href="#m843f13e81e" y="296.233409"/>
     <use style="fill:#55a868;stroke:#55a868;" x="409.336414" xlink:href="#m843f13e81e" y="296.339019"/>
     <use style="fill:#55a868;stroke:#55a868;" x="425.383344" xlink:href="#m843f13e81e" y="296.325001"/>
    </g>
   </g>
   <g id="line2d_16">
    <path clip-path="url(#pdc860390f8)" d="M 56.303969 219.032733 
L 72.350898 225.760272 
L 88.397827 224.437522 
L 104.444757 224.997994 
L 120.491686 248.342967 
L 136.538615 224.825487 
L 152.585545 227.898176 
L 168.632474 231.604268 
L 184.679403 226.936554 
L 200.726333 227.852289 
L 216.773262 230.48185 
L 232.820191 229.325534 
L 248.867121 228.52028 
L 264.91405 229.166473 
L 280.960979 228.15688 
L 297.007909 235.758763 
L 313.054838 228.017782 
L 329.101767 230.967404 
L 345.148697 228.345077 
L 361.195626 236.798535 
L 377.242556 230.040559 
L 393.289485 227.263847 
L 409.336414 226.542629 
L 425.383344 234.029102 
" style="fill:none;stroke:#c44e52;stroke-linecap:round;stroke-width:1.5;"/>
    <defs>
     <path d="M 0 3 
C 0.795609 3 1.55874 2.683901 2.12132 2.12132 
C 2.683901 1.55874 3 0.795609 3 0 
C 3 -0.795609 2.683901 -1.55874 2.12132 -2.12132 
C 1.55874 -2.683901 0.795609 -3 0 -3 
C -0.795609 -3 -1.55874 -2.683901 -2.12132 -2.12132 
C -2.683901 -1.55874 -3 -0.795609 -3 0 
C -3 0.795609 -2.683901 1.55874 -2.12132 2.12132 
C -1.55874 2.683901 -0.795609 3 0 3 
z
" id="m1ebcfca600" style="stroke:#c44e52;"/>
    </defs>
    <g clip-path="url(#pdc860390f8)">
     <use style="fill:#c44e52;stroke:#c44e52;" x="56.303969" xlink:href="#m1ebcfca600" y="219.032733"/>
     <use style="fill:#c44e52;stroke:#c44e52;" x="72.350898" xlink:href="#m1ebcfca600" y="225.760272"/>
     <use style="fill:#c44e52;stroke:#c44e52;" x="88.397827" xlink:href="#m1ebcfca600" y="224.437522"/>
     <use style="fill:#c44e52;stroke:#c44e52;" x="104.444757" xlink:href="#m1ebcfca600" y="224.997994"/>
     <use style="fill:#c44e52;stroke:#c44e52;" x="120.491686" xlink:href="#m1ebcfca600" y="248.342967"/>
     <use style="fill:#c44e52;stroke:#c44e52;" x="136.538615" xlink:href="#m1ebcfca600" y="224.825487"/>
     <use style="fill:#c44e52;stroke:#c44e52;" x="152.585545" xlink:href="#m1ebcfca600" y="227.898176"/>
     <use style="fill:#c44e52;stroke:#c44e52;" x="168.632474" xlink:href="#m1ebcfca600" y="231.604268"/>
     <use style="fill:#c44e52;stroke:#c44e52;" x="184.679403" xlink:href="#m1ebcfca600" y="226.936554"/>
     <use style="fill:#c44e52;stroke:#c44e52;" x="200.726333" xlink:href="#m1ebcfca600" y="227.852289"/>
     <use style="fill:#c44e52;stroke:#c44e52;" x="216.773262" xlink:href="#m1ebcfca600" y="230.48185"/>
     <use style="fill:#c44e52;stroke:#c44e52;" x="232.820191" xlink:href="#m1ebcfca600" y="229.325534"/>
     <use style="fill:#c44e52;stroke:#c44e52;" x="248.867121" xlink:href="#m1ebcfca600" y="228.52028"/>
     <use style="fill:#c44e52;stroke:#c44e52;" x="264.91405" xlink:href="#m1ebcfca600" y="229.166473"/>
     <use style="fill:#c44e52;stroke:#c44e52;" x="280.960979" xlink:href="#m1ebcfca600" y="228.15688"/>
     <use style="fill:#c44e52;stroke:#c44e52;" x="297.007909" xlink:href="#m1ebcfca600" y="235.758763"/>
     <use style="fill:#c44e52;stroke:#c44e52;" x="313.054838" xlink:href="#m1ebcfca600" y="228.017782"/>
     <use style="fill:#c44e52;stroke:#c44e52;" x="329.101767" xlink:href="#m1ebcfca600" y="230.967404"/>
     <use style="fill:#c44e52;stroke:#c44e52;" x="345.148697" xlink:href="#m1ebcfca600" y="228.345077"/>
     <use style="fill:#c44e52;stroke:#c44e52;" x="361.195626" xlink:href="#m1ebcfca600" y="236.798535"/>
     <use style="fill:#c44e52;stroke:#c44e52;" x="377.242556" xlink:href="#m1ebcfca600" y="230.040559"/>
     <use style="fill:#c44e52;stroke:#c44e52;" x="393.289485" xlink:href="#m1ebcfca600" y="227.263847"/>
     <use style="fill:#c44e52;stroke:#c44e52;" x="409.336414" xlink:href="#m1ebcfca600" y="226.542629"/>
     <use style="fill:#c44e52;stroke:#c44e52;" x="425.383344" xlink:href="#m1ebcfca600" y="234.029102"/>
    </g>
   </g>
   <g id="line2d_17">
    <path clip-path="url(#pdc860390f8)" d="M 56.303969 203.142093 
L 72.350898 229.953428 
L 88.397827 255.345827 
L 104.444757 227.891085 
L 120.491686 288.32933 
L 136.538615 261.977353 
L 152.585545 259.270026 
L 168.632474 236.74509 
L 184.679403 258.730533 
L 200.726333 264.968254 
L 216.773262 278.273748 
L 232.820191 277.031181 
L 248.867121 263.662526 
L 264.91405 262.50126 
L 280.960979 255.518117 
L 297.007909 270.71299 
L 313.054838 278.576277 
L 329.101767 263.503701 
L 345.148697 263.577494 
L 361.195626 276.500396 
L 377.242556 262.868894 
L 393.289485 265.212304 
L 409.336414 285.989789 
L 425.383344 274.765283 
" style="fill:none;stroke:#8172b3;stroke-linecap:round;stroke-width:1.5;"/>
    <defs>
     <path d="M 0 3 
C 0.795609 3 1.55874 2.683901 2.12132 2.12132 
C 2.683901 1.55874 3 0.795609 3 0 
C 3 -0.795609 2.683901 -1.55874 2.12132 -2.12132 
C 1.55874 -2.683901 0.795609 -3 0 -3 
C -0.795609 -3 -1.55874 -2.683901 -2.12132 -2.12132 
C -2.683901 -1.55874 -3 -0.795609 -3 0 
C -3 0.795609 -2.683901 1.55874 -2.12132 2.12132 
C -1.55874 2.683901 -0.795609 3 0 3 
z
" id="m6bc4a68e31" style="stroke:#8172b3;"/>
    </defs>
    <g clip-path="url(#pdc860390f8)">
     <use style="fill:#8172b3;stroke:#8172b3;" x="56.303969" xlink:href="#m6bc4a68e31" y="203.142093"/>
     <use style="fill:#8172b3;stroke:#8172b3;" x="72.350898" xlink:href="#m6bc4a68e31" y="229.953428"/>
     <use style="fill:#8172b3;stroke:#8172b3;" x="88.397827" xlink:href="#m6bc4a68e31" y="255.345827"/>
     <use style="fill:#8172b3;stroke:#8172b3;" x="104.444757" xlink:href="#m6bc4a68e31" y="227.891085"/>
     <use style="fill:#8172b3;stroke:#8172b3;" x="120.491686" xlink:href="#m6bc4a68e31" y="288.32933"/>
     <use style="fill:#8172b3;stroke:#8172b3;" x="136.538615" xlink:href="#m6bc4a68e31" y="261.977353"/>
     <use style="fill:#8172b3;stroke:#8172b3;" x="152.585545" xlink:href="#m6bc4a68e31" y="259.270026"/>
     <use style="fill:#8172b3;stroke:#8172b3;" x="168.632474" xlink:href="#m6bc4a68e31" y="236.74509"/>
     <use style="fill:#8172b3;stroke:#8172b3;" x="184.679403" xlink:href="#m6bc4a68e31" y="258.730533"/>
     <use style="fill:#8172b3;stroke:#8172b3;" x="200.726333" xlink:href="#m6bc4a68e31" y="264.968254"/>
     <use style="fill:#8172b3;stroke:#8172b3;" x="216.773262" xlink:href="#m6bc4a68e31" y="278.273748"/>
     <use style="fill:#8172b3;stroke:#8172b3;" x="232.820191" xlink:href="#m6bc4a68e31" y="277.031181"/>
     <use style="fill:#8172b3;stroke:#8172b3;" x="248.867121" xlink:href="#m6bc4a68e31" y="263.662526"/>
     <use style="fill:#8172b3;stroke:#8172b3;" x="264.91405" xlink:href="#m6bc4a68e31" y="262.50126"/>
     <use style="fill:#8172b3;stroke:#8172b3;" x="280.960979" xlink:href="#m6bc4a68e31" y="255.518117"/>
     <use style="fill:#8172b3;stroke:#8172b3;" x="297.007909" xlink:href="#m6bc4a68e31" y="270.71299"/>
     <use style="fill:#8172b3;stroke:#8172b3;" x="313.054838" xlink:href="#m6bc4a68e31" y="278.576277"/>
     <use style="fill:#8172b3;stroke:#8172b3;" x="329.101767" xlink:href="#m6bc4a68e31" y="263.503701"/>
     <use style="fill:#8172b3;stroke:#8172b3;" x="345.148697" xlink:href="#m6bc4a68e31" y="263.577494"/>
     <use style="fill:#8172b3;stroke:#8172b3;" x="361.195626" xlink:href="#m6bc4a68e31" y="276.500396"/>
     <use style="fill:#8172b3;stroke:#8172b3;" x="377.242556" xlink:href="#m6bc4a68e31" y="262.868894"/>
     <use style="fill:#8172b3;stroke:#8172b3;" x="393.289485" xlink:href="#m6bc4a68e31" y="265.212304"/>
     <use style="fill:#8172b3;stroke:#8172b3;" x="409.336414" xlink:href="#m6bc4a68e31" y="285.989789"/>
     <use style="fill:#8172b3;stroke:#8172b3;" x="425.383344" xlink:href="#m6bc4a68e31" y="274.765283"/>
    </g>
   </g>
   <g id="line2d_18">
    <path clip-path="url(#pdc860390f8)" d="M 56.303969 230.933008 
L 72.350898 281.225073 
L 88.397827 264.921618 
L 104.444757 260.086886 
L 120.491686 270.009339 
L 136.538615 296.155972 
L 152.585545 272.429208 
L 168.632474 266.621318 
L 184.679403 276.442999 
L 200.726333 280.733774 
L 216.773262 289.504942 
L 232.820191 273.653427 
L 248.867121 274.975184 
L 264.91405 272.890171 
L 280.960979 273.650051 
L 297.007909 286.509767 
L 313.054838 290.051436 
L 329.101767 283.652121 
L 345.148697 278.915803 
L 361.195626 286.306544 
L 377.242556 277.037248 
L 393.289485 285.550888 
L 409.336414 286.645302 
L 425.383344 286.834401 
" style="fill:none;stroke:#937860;stroke-linecap:round;stroke-width:1.5;"/>
    <defs>
     <path d="M 0 3 
C 0.795609 3 1.55874 2.683901 2.12132 2.12132 
C 2.683901 1.55874 3 0.795609 3 0 
C 3 -0.795609 2.683901 -1.55874 2.12132 -2.12132 
C 1.55874 -2.683901 0.795609 -3 0 -3 
C -0.795609 -3 -1.55874 -2.683901 -2.12132 -2.12132 
C -2.683901 -1.55874 -3 -0.795609 -3 0 
C -3 0.795609 -2.683901 1.55874 -2.12132 2.12132 
C -1.55874 2.683901 -0.795609 3 0 3 
z
" id="m277d086c6c" style="stroke:#937860;"/>
    </defs>
    <g clip-path="url(#pdc860390f8)">
     <use style="fill:#937860;stroke:#937860;" x="56.303969" xlink:href="#m277d086c6c" y="230.933008"/>
     <use style="fill:#937860;stroke:#937860;" x="72.350898" xlink:href="#m277d086c6c" y="281.225073"/>
     <use style="fill:#937860;stroke:#937860;" x="88.397827" xlink:href="#m277d086c6c" y="264.921618"/>
     <use style="fill:#937860;stroke:#937860;" x="104.444757" xlink:href="#m277d086c6c" y="260.086886"/>
     <use style="fill:#937860;stroke:#937860;" x="120.491686" xlink:href="#m277d086c6c" y="270.009339"/>
     <use style="fill:#937860;stroke:#937860;" x="136.538615" xlink:href="#m277d086c6c" y="296.155972"/>
     <use style="fill:#937860;stroke:#937860;" x="152.585545" xlink:href="#m277d086c6c" y="272.429208"/>
     <use style="fill:#937860;stroke:#937860;" x="168.632474" xlink:href="#m277d086c6c" y="266.621318"/>
     <use style="fill:#937860;stroke:#937860;" x="184.679403" xlink:href="#m277d086c6c" y="276.442999"/>
     <use style="fill:#937860;stroke:#937860;" x="200.726333" xlink:href="#m277d086c6c" y="280.733774"/>
     <use style="fill:#937860;stroke:#937860;" x="216.773262" xlink:href="#m277d086c6c" y="289.504942"/>
     <use style="fill:#937860;stroke:#937860;" x="232.820191" xlink:href="#m277d086c6c" y="273.653427"/>
     <use style="fill:#937860;stroke:#937860;" x="248.867121" xlink:href="#m277d086c6c" y="274.975184"/>
     <use style="fill:#937860;stroke:#937860;" x="264.91405" xlink:href="#m277d086c6c" y="272.890171"/>
     <use style="fill:#937860;stroke:#937860;" x="280.960979" xlink:href="#m277d086c6c" y="273.650051"/>
     <use style="fill:#937860;stroke:#937860;" x="297.007909" xlink:href="#m277d086c6c" y="286.509767"/>
     <use style="fill:#937860;stroke:#937860;" x="313.054838" xlink:href="#m277d086c6c" y="290.051436"/>
     <use style="fill:#937860;stroke:#937860;" x="329.101767" xlink:href="#m277d086c6c" y="283.652121"/>
     <use style="fill:#937860;stroke:#937860;" x="345.148697" xlink:href="#m277d086c6c" y="278.915803"/>
     <use style="fill:#937860;stroke:#937860;" x="361.195626" xlink:href="#m277d086c6c" y="286.306544"/>
     <use style="fill:#937860;stroke:#937860;" x="377.242556" xlink:href="#m277d086c6c" y="277.037248"/>
     <use style="fill:#937860;stroke:#937860;" x="393.289485" xlink:href="#m277d086c6c" y="285.550888"/>
     <use style="fill:#937860;stroke:#937860;" x="409.336414" xlink:href="#m277d086c6c" y="286.645302"/>
     <use style="fill:#937860;stroke:#937860;" x="425.383344" xlink:href="#m277d086c6c" y="286.834401"/>
    </g>
   </g>
   <g id="line2d_19">
    <path clip-path="url(#pdc860390f8)" d="M 56.303969 209.972178 
L 72.350898 224.117688 
L 88.397827 219.796781 
L 104.444757 224.182621 
L 120.491686 225.372571 
L 136.538615 281.521686 
L 152.585545 226.643505 
L 168.632474 232.859018 
L 184.679403 229.136061 
L 200.726333 232.282049 
L 216.773262 226.635918 
L 232.820191 235.524179 
L 248.867121 230.75128 
L 264.91405 232.568813 
L 280.960979 230.369806 
L 297.007909 228.820998 
L 313.054838 226.658998 
L 329.101767 285.590229 
L 345.148697 223.788048 
L 361.195626 228.985158 
L 377.242556 227.242338 
L 393.289485 229.743451 
L 409.336414 228.916666 
L 425.383344 224.88618 
" style="fill:none;stroke:#da8bc3;stroke-linecap:round;stroke-width:1.5;"/>
    <defs>
     <path d="M 0 3 
C 0.795609 3 1.55874 2.683901 2.12132 2.12132 
C 2.683901 1.55874 3 0.795609 3 0 
C 3 -0.795609 2.683901 -1.55874 2.12132 -2.12132 
C 1.55874 -2.683901 0.795609 -3 0 -3 
C -0.795609 -3 -1.55874 -2.683901 -2.12132 -2.12132 
C -2.683901 -1.55874 -3 -0.795609 -3 0 
C -3 0.795609 -2.683901 1.55874 -2.12132 2.12132 
C -1.55874 2.683901 -0.795609 3 0 3 
z
" id="me10d913346" style="stroke:#da8bc3;"/>
    </defs>
    <g clip-path="url(#pdc860390f8)">
     <use style="fill:#da8bc3;stroke:#da8bc3;" x="56.303969" xlink:href="#me10d913346" y="209.972178"/>
     <use style="fill:#da8bc3;stroke:#da8bc3;" x="72.350898" xlink:href="#me10d913346" y="224.117688"/>
     <use style="fill:#da8bc3;stroke:#da8bc3;" x="88.397827" xlink:href="#me10d913346" y="219.796781"/>
     <use style="fill:#da8bc3;stroke:#da8bc3;" x="104.444757" xlink:href="#me10d913346" y="224.182621"/>
     <use style="fill:#da8bc3;stroke:#da8bc3;" x="120.491686" xlink:href="#me10d913346" y="225.372571"/>
     <use style="fill:#da8bc3;stroke:#da8bc3;" x="136.538615" xlink:href="#me10d913346" y="281.521686"/>
     <use style="fill:#da8bc3;stroke:#da8bc3;" x="152.585545" xlink:href="#me10d913346" y="226.643505"/>
     <use style="fill:#da8bc3;stroke:#da8bc3;" x="168.632474" xlink:href="#me10d913346" y="232.859018"/>
     <use style="fill:#da8bc3;stroke:#da8bc3;" x="184.679403" xlink:href="#me10d913346" y="229.136061"/>
     <use style="fill:#da8bc3;stroke:#da8bc3;" x="200.726333" xlink:href="#me10d913346" y="232.282049"/>
     <use style="fill:#da8bc3;stroke:#da8bc3;" x="216.773262" xlink:href="#me10d913346" y="226.635918"/>
     <use style="fill:#da8bc3;stroke:#da8bc3;" x="232.820191" xlink:href="#me10d913346" y="235.524179"/>
     <use style="fill:#da8bc3;stroke:#da8bc3;" x="248.867121" xlink:href="#me10d913346" y="230.75128"/>
     <use style="fill:#da8bc3;stroke:#da8bc3;" x="264.91405" xlink:href="#me10d913346" y="232.568813"/>
     <use style="fill:#da8bc3;stroke:#da8bc3;" x="280.960979" xlink:href="#me10d913346" y="230.369806"/>
     <use style="fill:#da8bc3;stroke:#da8bc3;" x="297.007909" xlink:href="#me10d913346" y="228.820998"/>
     <use style="fill:#da8bc3;stroke:#da8bc3;" x="313.054838" xlink:href="#me10d913346" y="226.658998"/>
     <use style="fill:#da8bc3;stroke:#da8bc3;" x="329.101767" xlink:href="#me10d913346" y="285.590229"/>
     <use style="fill:#da8bc3;stroke:#da8bc3;" x="345.148697" xlink:href="#me10d913346" y="223.788048"/>
     <use style="fill:#da8bc3;stroke:#da8bc3;" x="361.195626" xlink:href="#me10d913346" y="228.985158"/>
     <use style="fill:#da8bc3;stroke:#da8bc3;" x="377.242556" xlink:href="#me10d913346" y="227.242338"/>
     <use style="fill:#da8bc3;stroke:#da8bc3;" x="393.289485" xlink:href="#me10d913346" y="229.743451"/>
     <use style="fill:#da8bc3;stroke:#da8bc3;" x="409.336414" xlink:href="#me10d913346" y="228.916666"/>
     <use style="fill:#da8bc3;stroke:#da8bc3;" x="425.383344" xlink:href="#me10d913346" y="224.88618"/>
    </g>
   </g>
   <g id="line2d_20">
    <path clip-path="url(#pdc860390f8)" d="M 56.303969 212.784823 
L 72.350898 220.13504 
L 88.397827 224.138457 
L 104.444757 230.454396 
L 120.491686 230.962038 
L 136.538615 284.570666 
L 152.585545 231.44966 
L 168.632474 233.351461 
L 184.679403 233.322042 
L 200.726333 233.063227 
L 216.773262 231.4956 
L 232.820191 230.071089 
L 248.867121 238.067011 
L 264.91405 227.789348 
L 280.960979 233.231867 
L 297.007909 230.005784 
L 313.054838 227.327929 
L 329.101767 287.380498 
L 345.148697 229.90792 
L 361.195626 226.23496 
L 377.242556 234.403697 
L 393.289485 227.429485 
L 409.336414 233.869691 
L 425.383344 228.755234 
" style="fill:none;stroke:#8c8c8c;stroke-linecap:round;stroke-width:1.5;"/>
    <defs>
     <path d="M 0 3 
C 0.795609 3 1.55874 2.683901 2.12132 2.12132 
C 2.683901 1.55874 3 0.795609 3 0 
C 3 -0.795609 2.683901 -1.55874 2.12132 -2.12132 
C 1.55874 -2.683901 0.795609 -3 0 -3 
C -0.795609 -3 -1.55874 -2.683901 -2.12132 -2.12132 
C -2.683901 -1.55874 -3 -0.795609 -3 0 
C -3 0.795609 -2.683901 1.55874 -2.12132 2.12132 
C -1.55874 2.683901 -0.795609 3 0 3 
z
" id="mefa8b2a597" style="stroke:#8c8c8c;"/>
    </defs>
    <g clip-path="url(#pdc860390f8)">
     <use style="fill:#8c8c8c;stroke:#8c8c8c;" x="56.303969" xlink:href="#mefa8b2a597" y="212.784823"/>
     <use style="fill:#8c8c8c;stroke:#8c8c8c;" x="72.350898" xlink:href="#mefa8b2a597" y="220.13504"/>
     <use style="fill:#8c8c8c;stroke:#8c8c8c;" x="88.397827" xlink:href="#mefa8b2a597" y="224.138457"/>
     <use style="fill:#8c8c8c;stroke:#8c8c8c;" x="104.444757" xlink:href="#mefa8b2a597" y="230.454396"/>
     <use style="fill:#8c8c8c;stroke:#8c8c8c;" x="120.491686" xlink:href="#mefa8b2a597" y="230.962038"/>
     <use style="fill:#8c8c8c;stroke:#8c8c8c;" x="136.538615" xlink:href="#mefa8b2a597" y="284.570666"/>
     <use style="fill:#8c8c8c;stroke:#8c8c8c;" x="152.585545" xlink:href="#mefa8b2a597" y="231.44966"/>
     <use style="fill:#8c8c8c;stroke:#8c8c8c;" x="168.632474" xlink:href="#mefa8b2a597" y="233.351461"/>
     <use style="fill:#8c8c8c;stroke:#8c8c8c;" x="184.679403" xlink:href="#mefa8b2a597" y="233.322042"/>
     <use style="fill:#8c8c8c;stroke:#8c8c8c;" x="200.726333" xlink:href="#mefa8b2a597" y="233.063227"/>
     <use style="fill:#8c8c8c;stroke:#8c8c8c;" x="216.773262" xlink:href="#mefa8b2a597" y="231.4956"/>
     <use style="fill:#8c8c8c;stroke:#8c8c8c;" x="232.820191" xlink:href="#mefa8b2a597" y="230.071089"/>
     <use style="fill:#8c8c8c;stroke:#8c8c8c;" x="248.867121" xlink:href="#mefa8b2a597" y="238.067011"/>
     <use style="fill:#8c8c8c;stroke:#8c8c8c;" x="264.91405" xlink:href="#mefa8b2a597" y="227.789348"/>
     <use style="fill:#8c8c8c;stroke:#8c8c8c;" x="280.960979" xlink:href="#mefa8b2a597" y="233.231867"/>
     <use style="fill:#8c8c8c;stroke:#8c8c8c;" x="297.007909" xlink:href="#mefa8b2a597" y="230.005784"/>
     <use style="fill:#8c8c8c;stroke:#8c8c8c;" x="313.054838" xlink:href="#mefa8b2a597" y="227.327929"/>
     <use style="fill:#8c8c8c;stroke:#8c8c8c;" x="329.101767" xlink:href="#mefa8b2a597" y="287.380498"/>
     <use style="fill:#8c8c8c;stroke:#8c8c8c;" x="345.148697" xlink:href="#mefa8b2a597" y="229.90792"/>
     <use style="fill:#8c8c8c;stroke:#8c8c8c;" x="361.195626" xlink:href="#mefa8b2a597" y="226.23496"/>
     <use style="fill:#8c8c8c;stroke:#8c8c8c;" x="377.242556" xlink:href="#mefa8b2a597" y="234.403697"/>
     <use style="fill:#8c8c8c;stroke:#8c8c8c;" x="393.289485" xlink:href="#mefa8b2a597" y="227.429485"/>
     <use style="fill:#8c8c8c;stroke:#8c8c8c;" x="409.336414" xlink:href="#mefa8b2a597" y="233.869691"/>
     <use style="fill:#8c8c8c;stroke:#8c8c8c;" x="425.383344" xlink:href="#mefa8b2a597" y="228.755234"/>
    </g>
   </g>
   <g id="line2d_21">
    <path clip-path="url(#pdc860390f8)" d="M 56.303969 211.216712 
L 72.350898 225.16586 
M 104.444757 232.664168 
M 168.632474 280.705266 
M 297.007909 277.291822 
" style="fill:none;stroke:#ccb974;stroke-linecap:round;stroke-width:1.5;"/>
    <defs>
     <path d="M 0 3 
C 0.795609 3 1.55874 2.683901 2.12132 2.12132 
C 2.683901 1.55874 3 0.795609 3 0 
C 3 -0.795609 2.683901 -1.55874 2.12132 -2.12132 
C 1.55874 -2.683901 0.795609 -3 0 -3 
C -0.795609 -3 -1.55874 -2.683901 -2.12132 -2.12132 
C -2.683901 -1.55874 -3 -0.795609 -3 0 
C -3 0.795609 -2.683901 1.55874 -2.12132 2.12132 
C -1.55874 2.683901 -0.795609 3 0 3 
z
" id="m7709c30ed4" style="stroke:#ccb974;"/>
    </defs>
    <g clip-path="url(#pdc860390f8)">
     <use style="fill:#ccb974;stroke:#ccb974;" x="56.303969" xlink:href="#m7709c30ed4" y="211.216712"/>
     <use style="fill:#ccb974;stroke:#ccb974;" x="72.350898" xlink:href="#m7709c30ed4" y="225.16586"/>
     <use style="fill:#ccb974;stroke:#ccb974;" x="104.444757" xlink:href="#m7709c30ed4" y="232.664168"/>
     <use style="fill:#ccb974;stroke:#ccb974;" x="168.632474" xlink:href="#m7709c30ed4" y="280.705266"/>
     <use style="fill:#ccb974;stroke:#ccb974;" x="297.007909" xlink:href="#m7709c30ed4" y="277.291822"/>
    </g>
   </g>
   <g id="line2d_22">
    <path clip-path="url(#pdc860390f8)" d="M 56.303969 193.69169 
L 72.350898 208.387754 
L 88.397827 212.653182 
L 104.444757 213.457797 
L 120.491686 211.922945 
L 136.538615 215.382299 
L 152.585545 215.889986 
L 168.632474 211.828951 
L 184.679403 199.331003 
L 200.726333 200.463252 
L 216.773262 196.263319 
L 232.820191 191.458811 
L 248.867121 193.463702 
L 264.91405 193.740481 
L 280.960979 201.352038 
L 297.007909 202.330193 
L 313.054838 196.151668 
L 329.101767 199.210611 
L 345.148697 197.855716 
L 361.195626 202.858806 
L 377.242556 190.930346 
L 393.289485 189.050393 
L 409.336414 201.28192 
L 425.383344 202.205055 
" style="fill:none;stroke:#64b5cd;stroke-linecap:round;stroke-width:1.5;"/>
    <defs>
     <path d="M 0 3 
C 0.795609 3 1.55874 2.683901 2.12132 2.12132 
C 2.683901 1.55874 3 0.795609 3 0 
C 3 -0.795609 2.683901 -1.55874 2.12132 -2.12132 
C 1.55874 -2.683901 0.795609 -3 0 -3 
C -0.795609 -3 -1.55874 -2.683901 -2.12132 -2.12132 
C -2.683901 -1.55874 -3 -0.795609 -3 0 
C -3 0.795609 -2.683901 1.55874 -2.12132 2.12132 
C -1.55874 2.683901 -0.795609 3 0 3 
z
" id="mcff8271371" style="stroke:#64b5cd;"/>
    </defs>
    <g clip-path="url(#pdc860390f8)">
     <use style="fill:#64b5cd;stroke:#64b5cd;" x="56.303969" xlink:href="#mcff8271371" y="193.69169"/>
     <use style="fill:#64b5cd;stroke:#64b5cd;" x="72.350898" xlink:href="#mcff8271371" y="208.387754"/>
     <use style="fill:#64b5cd;stroke:#64b5cd;" x="88.397827" xlink:href="#mcff8271371" y="212.653182"/>
     <use style="fill:#64b5cd;stroke:#64b5cd;" x="104.444757" xlink:href="#mcff8271371" y="213.457797"/>
     <use style="fill:#64b5cd;stroke:#64b5cd;" x="120.491686" xlink:href="#mcff8271371" y="211.922945"/>
     <use style="fill:#64b5cd;stroke:#64b5cd;" x="136.538615" xlink:href="#mcff8271371" y="215.382299"/>
     <use style="fill:#64b5cd;stroke:#64b5cd;" x="152.585545" xlink:href="#mcff8271371" y="215.889986"/>
     <use style="fill:#64b5cd;stroke:#64b5cd;" x="168.632474" xlink:href="#mcff8271371" y="211.828951"/>
     <use style="fill:#64b5cd;stroke:#64b5cd;" x="184.679403" xlink:href="#mcff8271371" y="199.331003"/>
     <use style="fill:#64b5cd;stroke:#64b5cd;" x="200.726333" xlink:href="#mcff8271371" y="200.463252"/>
     <use style="fill:#64b5cd;stroke:#64b5cd;" x="216.773262" xlink:href="#mcff8271371" y="196.263319"/>
     <use style="fill:#64b5cd;stroke:#64b5cd;" x="232.820191" xlink:href="#mcff8271371" y="191.458811"/>
     <use style="fill:#64b5cd;stroke:#64b5cd;" x="248.867121" xlink:href="#mcff8271371" y="193.463702"/>
     <use style="fill:#64b5cd;stroke:#64b5cd;" x="264.91405" xlink:href="#mcff8271371" y="193.740481"/>
     <use style="fill:#64b5cd;stroke:#64b5cd;" x="280.960979" xlink:href="#mcff8271371" y="201.352038"/>
     <use style="fill:#64b5cd;stroke:#64b5cd;" x="297.007909" xlink:href="#mcff8271371" y="202.330193"/>
     <use style="fill:#64b5cd;stroke:#64b5cd;" x="313.054838" xlink:href="#mcff8271371" y="196.151668"/>
     <use style="fill:#64b5cd;stroke:#64b5cd;" x="329.101767" xlink:href="#mcff8271371" y="199.210611"/>
     <use style="fill:#64b5cd;stroke:#64b5cd;" x="345.148697" xlink:href="#mcff8271371" y="197.855716"/>
     <use style="fill:#64b5cd;stroke:#64b5cd;" x="361.195626" xlink:href="#mcff8271371" y="202.858806"/>
     <use style="fill:#64b5cd;stroke:#64b5cd;" x="377.242556" xlink:href="#mcff8271371" y="190.930346"/>
     <use style="fill:#64b5cd;stroke:#64b5cd;" x="393.289485" xlink:href="#mcff8271371" y="189.050393"/>
     <use style="fill:#64b5cd;stroke:#64b5cd;" x="409.336414" xlink:href="#mcff8271371" y="201.28192"/>
     <use style="fill:#64b5cd;stroke:#64b5cd;" x="425.383344" xlink:href="#mcff8271371" y="202.205055"/>
    </g>
   </g>
   <g id="patch_3">
    <path d="M 37.85 298.26 
L 37.85 27.65625 
" style="fill:none;stroke:#ffffff;stroke-linecap:square;stroke-linejoin:miter;stroke-width:1.25;"/>
   </g>
   <g id="patch_4">
    <path d="M 443.837312 298.26 
L 443.837312 27.65625 
" style="fill:none;stroke:#ffffff;stroke-linecap:square;stroke-linejoin:miter;stroke-width:1.25;"/>
   </g>
   <g id="patch_5">
    <path d="M 37.85 298.26 
L 443.837312 298.26 
" style="fill:none;stroke:#ffffff;stroke-linecap:square;stroke-linejoin:miter;stroke-width:1.25;"/>
   </g>
   <g id="patch_6">
    <path d="M 37.85 27.65625 
L 443.837312 27.65625 
" style="fill:none;stroke:#ffffff;stroke-linecap:square;stroke-linejoin:miter;stroke-width:1.25;"/>
   </g>
   <g id="text_14">
    <!-- Compute ratio (8192 vector size) -->
    <g style="fill:#262626;" transform="translate(153.811781 21.65625)scale(0.12 -0.12)">
     <defs>
      <path d="M 3763 1606 
L 4369 1453 
Q 4178 706 3683 314 
Q 3188 -78 2472 -78 
Q 1731 -78 1267 223 
Q 803 525 561 1097 
Q 319 1669 319 2325 
Q 319 3041 592 3573 
Q 866 4106 1370 4382 
Q 1875 4659 2481 4659 
Q 3169 4659 3637 4309 
Q 4106 3959 4291 3325 
L 3694 3184 
Q 3534 3684 3231 3912 
Q 2928 4141 2469 4141 
Q 1941 4141 1586 3887 
Q 1231 3634 1087 3207 
Q 944 2781 944 2328 
Q 944 1744 1114 1308 
Q 1284 872 1643 656 
Q 2003 441 2422 441 
Q 2931 441 3284 734 
Q 3638 1028 3763 1606 
z
" id="ArialMT-43" transform="scale(0.015625)"/>
      <path d="M 1650 503 
L 1731 6 
Q 1494 -44 1306 -44 
Q 1000 -44 831 53 
Q 663 150 594 308 
Q 525 466 525 972 
L 525 2881 
L 113 2881 
L 113 3319 
L 525 3319 
L 525 4141 
L 1084 4478 
L 1084 3319 
L 1650 3319 
L 1650 2881 
L 1084 2881 
L 1084 941 
Q 1084 700 1114 631 
Q 1144 563 1211 522 
Q 1278 481 1403 481 
Q 1497 481 1650 503 
z
" id="ArialMT-74" transform="scale(0.015625)"/>
      <path d="M 2588 409 
Q 2275 144 1986 34 
Q 1697 -75 1366 -75 
Q 819 -75 525 192 
Q 231 459 231 875 
Q 231 1119 342 1320 
Q 453 1522 633 1644 
Q 813 1766 1038 1828 
Q 1203 1872 1538 1913 
Q 2219 1994 2541 2106 
Q 2544 2222 2544 2253 
Q 2544 2597 2384 2738 
Q 2169 2928 1744 2928 
Q 1347 2928 1158 2789 
Q 969 2650 878 2297 
L 328 2372 
Q 403 2725 575 2942 
Q 747 3159 1072 3276 
Q 1397 3394 1825 3394 
Q 2250 3394 2515 3294 
Q 2781 3194 2906 3042 
Q 3031 2891 3081 2659 
Q 3109 2516 3109 2141 
L 3109 1391 
Q 3109 606 3145 398 
Q 3181 191 3288 0 
L 2700 0 
Q 2613 175 2588 409 
z
M 2541 1666 
Q 2234 1541 1622 1453 
Q 1275 1403 1131 1340 
Q 988 1278 909 1158 
Q 831 1038 831 891 
Q 831 666 1001 516 
Q 1172 366 1500 366 
Q 1825 366 2078 508 
Q 2331 650 2450 897 
Q 2541 1088 2541 1459 
L 2541 1666 
z
" id="ArialMT-61" transform="scale(0.015625)"/>
      <path d="M 425 3934 
L 425 4581 
L 988 4581 
L 988 3934 
L 425 3934 
z
M 425 0 
L 425 3319 
L 988 3319 
L 988 0 
L 425 0 
z
" id="ArialMT-69" transform="scale(0.015625)"/>
      <path d="M 1497 -1347 
Q 1031 -759 709 28 
Q 388 816 388 1659 
Q 388 2403 628 3084 
Q 909 3875 1497 4659 
L 1900 4659 
Q 1522 4009 1400 3731 
Q 1209 3300 1100 2831 
Q 966 2247 966 1656 
Q 966 153 1900 -1347 
L 1497 -1347 
z
" id="ArialMT-28" transform="scale(0.015625)"/>
      <path d="M 350 1059 
L 891 1109 
Q 959 728 1153 556 
Q 1347 384 1650 384 
Q 1909 384 2104 503 
Q 2300 622 2425 820 
Q 2550 1019 2634 1356 
Q 2719 1694 2719 2044 
Q 2719 2081 2716 2156 
Q 2547 1888 2255 1720 
Q 1963 1553 1622 1553 
Q 1053 1553 659 1965 
Q 266 2378 266 3053 
Q 266 3750 677 4175 
Q 1088 4600 1706 4600 
Q 2153 4600 2523 4359 
Q 2894 4119 3086 3673 
Q 3278 3228 3278 2384 
Q 3278 1506 3087 986 
Q 2897 466 2520 194 
Q 2144 -78 1638 -78 
Q 1100 -78 759 220 
Q 419 519 350 1059 
z
M 2653 3081 
Q 2653 3566 2395 3850 
Q 2138 4134 1775 4134 
Q 1400 4134 1122 3828 
Q 844 3522 844 3034 
Q 844 2597 1108 2323 
Q 1372 2050 1759 2050 
Q 2150 2050 2401 2323 
Q 2653 2597 2653 3081 
z
" id="ArialMT-39" transform="scale(0.015625)"/>
      <path d="M 1344 0 
L 81 3319 
L 675 3319 
L 1388 1331 
Q 1503 1009 1600 663 
Q 1675 925 1809 1294 
L 2547 3319 
L 3125 3319 
L 1869 0 
L 1344 0 
z
" id="ArialMT-76" transform="scale(0.015625)"/>
      <path d="M 125 0 
L 125 456 
L 2238 2881 
Q 1878 2863 1603 2863 
L 250 2863 
L 250 3319 
L 2963 3319 
L 2963 2947 
L 1166 841 
L 819 456 
Q 1197 484 1528 484 
L 3063 484 
L 3063 0 
L 125 0 
z
" id="ArialMT-7a" transform="scale(0.015625)"/>
      <path d="M 791 -1347 
L 388 -1347 
Q 1322 153 1322 1656 
Q 1322 2244 1188 2822 
Q 1081 3291 891 3722 
Q 769 4003 388 4659 
L 791 4659 
Q 1378 3875 1659 3084 
Q 1900 2403 1900 1659 
Q 1900 816 1576 28 
Q 1253 -759 791 -1347 
z
" id="ArialMT-29" transform="scale(0.015625)"/>
     </defs>
     <use xlink:href="#ArialMT-43"/>
     <use x="72.216797" xlink:href="#ArialMT-6f"/>
     <use x="127.832031" xlink:href="#ArialMT-6d"/>
     <use x="211.132812" xlink:href="#ArialMT-70"/>
     <use x="266.748047" xlink:href="#ArialMT-75"/>
     <use x="322.363281" xlink:href="#ArialMT-74"/>
     <use x="350.146484" xlink:href="#ArialMT-65"/>
     <use x="405.761719" xlink:href="#ArialMT-20"/>
     <use x="433.544922" xlink:href="#ArialMT-72"/>
     <use x="466.845703" xlink:href="#ArialMT-61"/>
     <use x="522.460938" xlink:href="#ArialMT-74"/>
     <use x="550.244141" xlink:href="#ArialMT-69"/>
     <use x="572.460938" xlink:href="#ArialMT-6f"/>
     <use x="628.076172" xlink:href="#ArialMT-20"/>
     <use x="655.859375" xlink:href="#ArialMT-28"/>
     <use x="689.160156" xlink:href="#ArialMT-38"/>
     <use x="744.775391" xlink:href="#ArialMT-31"/>
     <use x="800.390625" xlink:href="#ArialMT-39"/>
     <use x="856.005859" xlink:href="#ArialMT-32"/>
     <use x="911.621094" xlink:href="#ArialMT-20"/>
     <use x="939.404297" xlink:href="#ArialMT-76"/>
     <use x="989.404297" xlink:href="#ArialMT-65"/>
     <use x="1045.019531" xlink:href="#ArialMT-63"/>
     <use x="1095.019531" xlink:href="#ArialMT-74"/>
     <use x="1122.802734" xlink:href="#ArialMT-6f"/>
     <use x="1178.417969" xlink:href="#ArialMT-72"/>
     <use x="1211.71875" xlink:href="#ArialMT-20"/>
     <use x="1239.501953" xlink:href="#ArialMT-73"/>
     <use x="1289.501953" xlink:href="#ArialMT-69"/>
     <use x="1311.71875" xlink:href="#ArialMT-7a"/>
     <use x="1361.71875" xlink:href="#ArialMT-65"/>
     <use x="1417.333984" xlink:href="#ArialMT-29"/>
    </g>
   </g>
   <g id="legend_1">
    <g id="patch_7">
     <path d="M 45.55 209.436562 
L 254.390156 209.436562 
Q 256.590156 209.436562 256.590156 207.236562 
L 256.590156 35.35625 
Q 256.590156 33.15625 254.390156 33.15625 
L 45.55 33.15625 
Q 43.35 33.15625 43.35 35.35625 
L 43.35 207.236562 
Q 43.35 209.436562 45.55 209.436562 
z
" style="fill:#eaeaf2;opacity:0.8;stroke:#cccccc;stroke-linejoin:miter;"/>
    </g>
    <g id="text_15">
     <!-- implementation -->
     <g style="fill:#262626;" transform="translate(109.285391 46.145625)scale(0.12 -0.12)">
      <defs>
       <path d="M 409 0 
L 409 4581 
L 972 4581 
L 972 0 
L 409 0 
z
" id="ArialMT-6c" transform="scale(0.015625)"/>
       <path d="M 422 0 
L 422 3319 
L 928 3319 
L 928 2847 
Q 1294 3394 1984 3394 
Q 2284 3394 2536 3286 
Q 2788 3178 2913 3003 
Q 3038 2828 3088 2588 
Q 3119 2431 3119 2041 
L 3119 0 
L 2556 0 
L 2556 2019 
Q 2556 2363 2490 2533 
Q 2425 2703 2258 2804 
Q 2091 2906 1866 2906 
Q 1506 2906 1245 2678 
Q 984 2450 984 1813 
L 984 0 
L 422 0 
z
" id="ArialMT-6e" transform="scale(0.015625)"/>
      </defs>
      <use xlink:href="#ArialMT-69"/>
      <use x="22.216797" xlink:href="#ArialMT-6d"/>
      <use x="105.517578" xlink:href="#ArialMT-70"/>
      <use x="161.132812" xlink:href="#ArialMT-6c"/>
      <use x="183.349609" xlink:href="#ArialMT-65"/>
      <use x="238.964844" xlink:href="#ArialMT-6d"/>
      <use x="322.265625" xlink:href="#ArialMT-65"/>
      <use x="377.880859" xlink:href="#ArialMT-6e"/>
      <use x="433.496094" xlink:href="#ArialMT-74"/>
      <use x="461.279297" xlink:href="#ArialMT-61"/>
      <use x="516.894531" xlink:href="#ArialMT-74"/>
      <use x="544.677734" xlink:href="#ArialMT-69"/>
      <use x="566.894531" xlink:href="#ArialMT-6f"/>
      <use x="622.509766" xlink:href="#ArialMT-6e"/>
     </g>
    </g>
    <g id="line2d_23">
     <path d="M 47.75 58.054219 
L 69.75 58.054219 
" style="fill:none;stroke:#4c72b0;stroke-linecap:round;stroke-width:1.5;"/>
    </g>
    <g id="line2d_24">
     <g>
      <use style="fill:#4c72b0;stroke:#4c72b0;" x="58.75" xlink:href="#m6583c00f6b" y="58.054219"/>
     </g>
    </g>
    <g id="text_16">
     <!-- allreduce -->
     <g style="fill:#262626;" transform="translate(78.55 61.904219)scale(0.11 -0.11)">
      <defs>
       <path d="M 2575 0 
L 2575 419 
Q 2259 -75 1647 -75 
Q 1250 -75 917 144 
Q 584 363 401 755 
Q 219 1147 219 1656 
Q 219 2153 384 2558 
Q 550 2963 881 3178 
Q 1213 3394 1622 3394 
Q 1922 3394 2156 3267 
Q 2391 3141 2538 2938 
L 2538 4581 
L 3097 4581 
L 3097 0 
L 2575 0 
z
M 797 1656 
Q 797 1019 1065 703 
Q 1334 388 1700 388 
Q 2069 388 2326 689 
Q 2584 991 2584 1609 
Q 2584 2291 2321 2609 
Q 2059 2928 1675 2928 
Q 1300 2928 1048 2622 
Q 797 2316 797 1656 
z
" id="ArialMT-64" transform="scale(0.015625)"/>
      </defs>
      <use xlink:href="#ArialMT-61"/>
      <use x="55.615234" xlink:href="#ArialMT-6c"/>
      <use x="77.832031" xlink:href="#ArialMT-6c"/>
      <use x="100.048828" xlink:href="#ArialMT-72"/>
      <use x="133.349609" xlink:href="#ArialMT-65"/>
      <use x="188.964844" xlink:href="#ArialMT-64"/>
      <use x="244.580078" xlink:href="#ArialMT-75"/>
      <use x="300.195312" xlink:href="#ArialMT-63"/>
      <use x="350.195312" xlink:href="#ArialMT-65"/>
     </g>
    </g>
    <g id="line2d_25">
     <path d="M 47.75 73.748125 
L 69.75 73.748125 
" style="fill:none;stroke:#dd8452;stroke-linecap:round;stroke-width:1.5;"/>
    </g>
    <g id="line2d_26">
     <g>
      <use style="fill:#dd8452;stroke:#dd8452;" x="58.75" xlink:href="#m1d30b16bcc" y="73.748125"/>
     </g>
    </g>
    <g id="text_17">
     <!-- allreduce-butterfly -->
     <g style="fill:#262626;" transform="translate(78.55 77.598125)scale(0.11 -0.11)">
      <defs>
       <path d="M 203 1375 
L 203 1941 
L 1931 1941 
L 1931 1375 
L 203 1375 
z
" id="ArialMT-2d" transform="scale(0.015625)"/>
       <path d="M 397 -1278 
L 334 -750 
Q 519 -800 656 -800 
Q 844 -800 956 -737 
Q 1069 -675 1141 -563 
Q 1194 -478 1313 -144 
Q 1328 -97 1363 -6 
L 103 3319 
L 709 3319 
L 1400 1397 
Q 1534 1031 1641 628 
Q 1738 1016 1872 1384 
L 2581 3319 
L 3144 3319 
L 1881 -56 
Q 1678 -603 1566 -809 
Q 1416 -1088 1222 -1217 
Q 1028 -1347 759 -1347 
Q 597 -1347 397 -1278 
z
" id="ArialMT-79" transform="scale(0.015625)"/>
      </defs>
      <use xlink:href="#ArialMT-61"/>
      <use x="55.615234" xlink:href="#ArialMT-6c"/>
      <use x="77.832031" xlink:href="#ArialMT-6c"/>
      <use x="100.048828" xlink:href="#ArialMT-72"/>
      <use x="133.349609" xlink:href="#ArialMT-65"/>
      <use x="188.964844" xlink:href="#ArialMT-64"/>
      <use x="244.580078" xlink:href="#ArialMT-75"/>
      <use x="300.195312" xlink:href="#ArialMT-63"/>
      <use x="350.195312" xlink:href="#ArialMT-65"/>
      <use x="405.810547" xlink:href="#ArialMT-2d"/>
      <use x="439.111328" xlink:href="#ArialMT-62"/>
      <use x="494.726562" xlink:href="#ArialMT-75"/>
      <use x="550.341797" xlink:href="#ArialMT-74"/>
      <use x="578.125" xlink:href="#ArialMT-74"/>
      <use x="605.908203" xlink:href="#ArialMT-65"/>
      <use x="661.523438" xlink:href="#ArialMT-72"/>
      <use x="694.824219" xlink:href="#ArialMT-66"/>
      <use x="722.607422" xlink:href="#ArialMT-6c"/>
      <use x="744.824219" xlink:href="#ArialMT-79"/>
     </g>
    </g>
    <g id="line2d_27">
     <path d="M 47.75 89.436875 
L 69.75 89.436875 
" style="fill:none;stroke:#55a868;stroke-linecap:round;stroke-width:1.5;"/>
    </g>
    <g id="line2d_28">
     <g>
      <use style="fill:#55a868;stroke:#55a868;" x="58.75" xlink:href="#m843f13e81e" y="89.436875"/>
     </g>
    </g>
    <g id="text_18">
     <!-- allreduce-native-basic_linear -->
     <g style="fill:#262626;" transform="translate(78.55 93.286875)scale(0.11 -0.11)">
      <defs>
       <path d="M -97 -1272 
L -97 -866 
L 3631 -866 
L 3631 -1272 
L -97 -1272 
z
" id="ArialMT-5f" transform="scale(0.015625)"/>
      </defs>
      <use xlink:href="#ArialMT-61"/>
      <use x="55.615234" xlink:href="#ArialMT-6c"/>
      <use x="77.832031" xlink:href="#ArialMT-6c"/>
      <use x="100.048828" xlink:href="#ArialMT-72"/>
      <use x="133.349609" xlink:href="#ArialMT-65"/>
      <use x="188.964844" xlink:href="#ArialMT-64"/>
      <use x="244.580078" xlink:href="#ArialMT-75"/>
      <use x="300.195312" xlink:href="#ArialMT-63"/>
      <use x="350.195312" xlink:href="#ArialMT-65"/>
      <use x="405.810547" xlink:href="#ArialMT-2d"/>
      <use x="439.111328" xlink:href="#ArialMT-6e"/>
      <use x="494.726562" xlink:href="#ArialMT-61"/>
      <use x="550.341797" xlink:href="#ArialMT-74"/>
      <use x="578.125" xlink:href="#ArialMT-69"/>
      <use x="600.341797" xlink:href="#ArialMT-76"/>
      <use x="650.341797" xlink:href="#ArialMT-65"/>
      <use x="705.957031" xlink:href="#ArialMT-2d"/>
      <use x="739.257812" xlink:href="#ArialMT-62"/>
      <use x="794.873047" xlink:href="#ArialMT-61"/>
      <use x="850.488281" xlink:href="#ArialMT-73"/>
      <use x="900.488281" xlink:href="#ArialMT-69"/>
      <use x="922.705078" xlink:href="#ArialMT-63"/>
      <use x="972.705078" xlink:href="#ArialMT-5f"/>
      <use x="1028.320312" xlink:href="#ArialMT-6c"/>
      <use x="1050.537109" xlink:href="#ArialMT-69"/>
      <use x="1072.753906" xlink:href="#ArialMT-6e"/>
      <use x="1128.369141" xlink:href="#ArialMT-65"/>
      <use x="1183.984375" xlink:href="#ArialMT-61"/>
      <use x="1239.599609" xlink:href="#ArialMT-72"/>
     </g>
    </g>
    <g id="line2d_29">
     <path d="M 47.75 104.996719 
L 69.75 104.996719 
" style="fill:none;stroke:#c44e52;stroke-linecap:round;stroke-width:1.5;"/>
    </g>
    <g id="line2d_30">
     <g>
      <use style="fill:#c44e52;stroke:#c44e52;" x="58.75" xlink:href="#m1ebcfca600" y="104.996719"/>
     </g>
    </g>
    <g id="text_19">
     <!-- allreduce-native-nonoverlapping -->
     <g style="fill:#262626;" transform="translate(78.55 108.846719)scale(0.11 -0.11)">
      <defs>
       <path d="M 319 -275 
L 866 -356 
Q 900 -609 1056 -725 
Q 1266 -881 1628 -881 
Q 2019 -881 2231 -725 
Q 2444 -569 2519 -288 
Q 2563 -116 2559 434 
Q 2191 0 1641 0 
Q 956 0 581 494 
Q 206 988 206 1678 
Q 206 2153 378 2554 
Q 550 2956 876 3175 
Q 1203 3394 1644 3394 
Q 2231 3394 2613 2919 
L 2613 3319 
L 3131 3319 
L 3131 450 
Q 3131 -325 2973 -648 
Q 2816 -972 2473 -1159 
Q 2131 -1347 1631 -1347 
Q 1038 -1347 672 -1080 
Q 306 -813 319 -275 
z
M 784 1719 
Q 784 1066 1043 766 
Q 1303 466 1694 466 
Q 2081 466 2343 764 
Q 2606 1063 2606 1700 
Q 2606 2309 2336 2618 
Q 2066 2928 1684 2928 
Q 1309 2928 1046 2623 
Q 784 2319 784 1719 
z
" id="ArialMT-67" transform="scale(0.015625)"/>
      </defs>
      <use xlink:href="#ArialMT-61"/>
      <use x="55.615234" xlink:href="#ArialMT-6c"/>
      <use x="77.832031" xlink:href="#ArialMT-6c"/>
      <use x="100.048828" xlink:href="#ArialMT-72"/>
      <use x="133.349609" xlink:href="#ArialMT-65"/>
      <use x="188.964844" xlink:href="#ArialMT-64"/>
      <use x="244.580078" xlink:href="#ArialMT-75"/>
      <use x="300.195312" xlink:href="#ArialMT-63"/>
      <use x="350.195312" xlink:href="#ArialMT-65"/>
      <use x="405.810547" xlink:href="#ArialMT-2d"/>
      <use x="439.111328" xlink:href="#ArialMT-6e"/>
      <use x="494.726562" xlink:href="#ArialMT-61"/>
      <use x="550.341797" xlink:href="#ArialMT-74"/>
      <use x="578.125" xlink:href="#ArialMT-69"/>
      <use x="600.341797" xlink:href="#ArialMT-76"/>
      <use x="650.341797" xlink:href="#ArialMT-65"/>
      <use x="705.957031" xlink:href="#ArialMT-2d"/>
      <use x="739.257812" xlink:href="#ArialMT-6e"/>
      <use x="794.873047" xlink:href="#ArialMT-6f"/>
      <use x="850.488281" xlink:href="#ArialMT-6e"/>
      <use x="906.103516" xlink:href="#ArialMT-6f"/>
      <use x="961.71875" xlink:href="#ArialMT-76"/>
      <use x="1011.71875" xlink:href="#ArialMT-65"/>
      <use x="1067.333984" xlink:href="#ArialMT-72"/>
      <use x="1100.634766" xlink:href="#ArialMT-6c"/>
      <use x="1122.851562" xlink:href="#ArialMT-61"/>
      <use x="1178.466797" xlink:href="#ArialMT-70"/>
      <use x="1234.082031" xlink:href="#ArialMT-70"/>
      <use x="1289.697266" xlink:href="#ArialMT-69"/>
      <use x="1311.914062" xlink:href="#ArialMT-6e"/>
      <use x="1367.529297" xlink:href="#ArialMT-67"/>
     </g>
    </g>
    <g id="line2d_31">
     <path d="M 47.75 120.685469 
L 69.75 120.685469 
" style="fill:none;stroke:#8172b3;stroke-linecap:round;stroke-width:1.5;"/>
    </g>
    <g id="line2d_32">
     <g>
      <use style="fill:#8172b3;stroke:#8172b3;" x="58.75" xlink:href="#m6bc4a68e31" y="120.685469"/>
     </g>
    </g>
    <g id="text_20">
     <!-- allreduce-native-rabenseifner -->
     <g style="fill:#262626;" transform="translate(78.55 124.535469)scale(0.11 -0.11)">
      <use xlink:href="#ArialMT-61"/>
      <use x="55.615234" xlink:href="#ArialMT-6c"/>
      <use x="77.832031" xlink:href="#ArialMT-6c"/>
      <use x="100.048828" xlink:href="#ArialMT-72"/>
      <use x="133.349609" xlink:href="#ArialMT-65"/>
      <use x="188.964844" xlink:href="#ArialMT-64"/>
      <use x="244.580078" xlink:href="#ArialMT-75"/>
      <use x="300.195312" xlink:href="#ArialMT-63"/>
      <use x="350.195312" xlink:href="#ArialMT-65"/>
      <use x="405.810547" xlink:href="#ArialMT-2d"/>
      <use x="439.111328" xlink:href="#ArialMT-6e"/>
      <use x="494.726562" xlink:href="#ArialMT-61"/>
      <use x="550.341797" xlink:href="#ArialMT-74"/>
      <use x="578.125" xlink:href="#ArialMT-69"/>
      <use x="600.341797" xlink:href="#ArialMT-76"/>
      <use x="650.341797" xlink:href="#ArialMT-65"/>
      <use x="705.957031" xlink:href="#ArialMT-2d"/>
      <use x="739.257812" xlink:href="#ArialMT-72"/>
      <use x="772.558594" xlink:href="#ArialMT-61"/>
      <use x="828.173828" xlink:href="#ArialMT-62"/>
      <use x="883.789062" xlink:href="#ArialMT-65"/>
      <use x="939.404297" xlink:href="#ArialMT-6e"/>
      <use x="995.019531" xlink:href="#ArialMT-73"/>
      <use x="1045.019531" xlink:href="#ArialMT-65"/>
      <use x="1100.634766" xlink:href="#ArialMT-69"/>
      <use x="1122.851562" xlink:href="#ArialMT-66"/>
      <use x="1150.634766" xlink:href="#ArialMT-6e"/>
      <use x="1206.25" xlink:href="#ArialMT-65"/>
      <use x="1261.865234" xlink:href="#ArialMT-72"/>
     </g>
    </g>
    <g id="line2d_33">
     <path d="M 47.75 136.245312 
L 69.75 136.245312 
" style="fill:none;stroke:#937860;stroke-linecap:round;stroke-width:1.5;"/>
    </g>
    <g id="line2d_34">
     <g>
      <use style="fill:#937860;stroke:#937860;" x="58.75" xlink:href="#m277d086c6c" y="136.245312"/>
     </g>
    </g>
    <g id="text_21">
     <!-- allreduce-native-recursive_doubling -->
     <g style="fill:#262626;" transform="translate(78.55 140.095312)scale(0.11 -0.11)">
      <use xlink:href="#ArialMT-61"/>
      <use x="55.615234" xlink:href="#ArialMT-6c"/>
      <use x="77.832031" xlink:href="#ArialMT-6c"/>
      <use x="100.048828" xlink:href="#ArialMT-72"/>
      <use x="133.349609" xlink:href="#ArialMT-65"/>
      <use x="188.964844" xlink:href="#ArialMT-64"/>
      <use x="244.580078" xlink:href="#ArialMT-75"/>
      <use x="300.195312" xlink:href="#ArialMT-63"/>
      <use x="350.195312" xlink:href="#ArialMT-65"/>
      <use x="405.810547" xlink:href="#ArialMT-2d"/>
      <use x="439.111328" xlink:href="#ArialMT-6e"/>
      <use x="494.726562" xlink:href="#ArialMT-61"/>
      <use x="550.341797" xlink:href="#ArialMT-74"/>
      <use x="578.125" xlink:href="#ArialMT-69"/>
      <use x="600.341797" xlink:href="#ArialMT-76"/>
      <use x="650.341797" xlink:href="#ArialMT-65"/>
      <use x="705.957031" xlink:href="#ArialMT-2d"/>
      <use x="739.257812" xlink:href="#ArialMT-72"/>
      <use x="772.558594" xlink:href="#ArialMT-65"/>
      <use x="828.173828" xlink:href="#ArialMT-63"/>
      <use x="878.173828" xlink:href="#ArialMT-75"/>
      <use x="933.789062" xlink:href="#ArialMT-72"/>
      <use x="967.089844" xlink:href="#ArialMT-73"/>
      <use x="1017.089844" xlink:href="#ArialMT-69"/>
      <use x="1039.306641" xlink:href="#ArialMT-76"/>
      <use x="1089.306641" xlink:href="#ArialMT-65"/>
      <use x="1144.921875" xlink:href="#ArialMT-5f"/>
      <use x="1200.537109" xlink:href="#ArialMT-64"/>
      <use x="1256.152344" xlink:href="#ArialMT-6f"/>
      <use x="1311.767578" xlink:href="#ArialMT-75"/>
      <use x="1367.382812" xlink:href="#ArialMT-62"/>
      <use x="1422.998047" xlink:href="#ArialMT-6c"/>
      <use x="1445.214844" xlink:href="#ArialMT-69"/>
      <use x="1467.431641" xlink:href="#ArialMT-6e"/>
      <use x="1523.046875" xlink:href="#ArialMT-67"/>
     </g>
    </g>
    <g id="line2d_35">
     <path d="M 47.75 151.934063 
L 69.75 151.934063 
" style="fill:none;stroke:#da8bc3;stroke-linecap:round;stroke-width:1.5;"/>
    </g>
    <g id="line2d_36">
     <g>
      <use style="fill:#da8bc3;stroke:#da8bc3;" x="58.75" xlink:href="#me10d913346" y="151.934063"/>
     </g>
    </g>
    <g id="text_22">
     <!-- allreduce-native-ring -->
     <g style="fill:#262626;" transform="translate(78.55 155.784063)scale(0.11 -0.11)">
      <use xlink:href="#ArialMT-61"/>
      <use x="55.615234" xlink:href="#ArialMT-6c"/>
      <use x="77.832031" xlink:href="#ArialMT-6c"/>
      <use x="100.048828" xlink:href="#ArialMT-72"/>
      <use x="133.349609" xlink:href="#ArialMT-65"/>
      <use x="188.964844" xlink:href="#ArialMT-64"/>
      <use x="244.580078" xlink:href="#ArialMT-75"/>
      <use x="300.195312" xlink:href="#ArialMT-63"/>
      <use x="350.195312" xlink:href="#ArialMT-65"/>
      <use x="405.810547" xlink:href="#ArialMT-2d"/>
      <use x="439.111328" xlink:href="#ArialMT-6e"/>
      <use x="494.726562" xlink:href="#ArialMT-61"/>
      <use x="550.341797" xlink:href="#ArialMT-74"/>
      <use x="578.125" xlink:href="#ArialMT-69"/>
      <use x="600.341797" xlink:href="#ArialMT-76"/>
      <use x="650.341797" xlink:href="#ArialMT-65"/>
      <use x="705.957031" xlink:href="#ArialMT-2d"/>
      <use x="739.257812" xlink:href="#ArialMT-72"/>
      <use x="772.558594" xlink:href="#ArialMT-69"/>
      <use x="794.775391" xlink:href="#ArialMT-6e"/>
      <use x="850.390625" xlink:href="#ArialMT-67"/>
     </g>
    </g>
    <g id="line2d_37">
     <path d="M 47.75 167.622812 
L 69.75 167.622812 
" style="fill:none;stroke:#8c8c8c;stroke-linecap:round;stroke-width:1.5;"/>
    </g>
    <g id="line2d_38">
     <g>
      <use style="fill:#8c8c8c;stroke:#8c8c8c;" x="58.75" xlink:href="#mefa8b2a597" y="167.622812"/>
     </g>
    </g>
    <g id="text_23">
     <!-- allreduce-native-segmented_ring -->
     <g style="fill:#262626;" transform="translate(78.55 171.472812)scale(0.11 -0.11)">
      <use xlink:href="#ArialMT-61"/>
      <use x="55.615234" xlink:href="#ArialMT-6c"/>
      <use x="77.832031" xlink:href="#ArialMT-6c"/>
      <use x="100.048828" xlink:href="#ArialMT-72"/>
      <use x="133.349609" xlink:href="#ArialMT-65"/>
      <use x="188.964844" xlink:href="#ArialMT-64"/>
      <use x="244.580078" xlink:href="#ArialMT-75"/>
      <use x="300.195312" xlink:href="#ArialMT-63"/>
      <use x="350.195312" xlink:href="#ArialMT-65"/>
      <use x="405.810547" xlink:href="#ArialMT-2d"/>
      <use x="439.111328" xlink:href="#ArialMT-6e"/>
      <use x="494.726562" xlink:href="#ArialMT-61"/>
      <use x="550.341797" xlink:href="#ArialMT-74"/>
      <use x="578.125" xlink:href="#ArialMT-69"/>
      <use x="600.341797" xlink:href="#ArialMT-76"/>
      <use x="650.341797" xlink:href="#ArialMT-65"/>
      <use x="705.957031" xlink:href="#ArialMT-2d"/>
      <use x="739.257812" xlink:href="#ArialMT-73"/>
      <use x="789.257812" xlink:href="#ArialMT-65"/>
      <use x="844.873047" xlink:href="#ArialMT-67"/>
      <use x="900.488281" xlink:href="#ArialMT-6d"/>
      <use x="983.789062" xlink:href="#ArialMT-65"/>
      <use x="1039.404297" xlink:href="#ArialMT-6e"/>
      <use x="1095.019531" xlink:href="#ArialMT-74"/>
      <use x="1122.802734" xlink:href="#ArialMT-65"/>
      <use x="1178.417969" xlink:href="#ArialMT-64"/>
      <use x="1234.033203" xlink:href="#ArialMT-5f"/>
      <use x="1289.648438" xlink:href="#ArialMT-72"/>
      <use x="1322.949219" xlink:href="#ArialMT-69"/>
      <use x="1345.166016" xlink:href="#ArialMT-6e"/>
      <use x="1400.78125" xlink:href="#ArialMT-67"/>
     </g>
    </g>
    <g id="line2d_39">
     <path d="M 47.75 183.311563 
L 69.75 183.311563 
" style="fill:none;stroke:#ccb974;stroke-linecap:round;stroke-width:1.5;"/>
    </g>
    <g id="line2d_40">
     <g>
      <use style="fill:#ccb974;stroke:#ccb974;" x="58.75" xlink:href="#m7709c30ed4" y="183.311563"/>
     </g>
    </g>
    <g id="text_24">
     <!-- allreduce-rabenseifner -->
     <g style="fill:#262626;" transform="translate(78.55 187.161563)scale(0.11 -0.11)">
      <use xlink:href="#ArialMT-61"/>
      <use x="55.615234" xlink:href="#ArialMT-6c"/>
      <use x="77.832031" xlink:href="#ArialMT-6c"/>
      <use x="100.048828" xlink:href="#ArialMT-72"/>
      <use x="133.349609" xlink:href="#ArialMT-65"/>
      <use x="188.964844" xlink:href="#ArialMT-64"/>
      <use x="244.580078" xlink:href="#ArialMT-75"/>
      <use x="300.195312" xlink:href="#ArialMT-63"/>
      <use x="350.195312" xlink:href="#ArialMT-65"/>
      <use x="405.810547" xlink:href="#ArialMT-2d"/>
      <use x="439.111328" xlink:href="#ArialMT-72"/>
      <use x="472.412109" xlink:href="#ArialMT-61"/>
      <use x="528.027344" xlink:href="#ArialMT-62"/>
      <use x="583.642578" xlink:href="#ArialMT-65"/>
      <use x="639.257812" xlink:href="#ArialMT-6e"/>
      <use x="694.873047" xlink:href="#ArialMT-73"/>
      <use x="744.873047" xlink:href="#ArialMT-65"/>
      <use x="800.488281" xlink:href="#ArialMT-69"/>
      <use x="822.705078" xlink:href="#ArialMT-66"/>
      <use x="850.488281" xlink:href="#ArialMT-6e"/>
      <use x="906.103516" xlink:href="#ArialMT-65"/>
      <use x="961.71875" xlink:href="#ArialMT-72"/>
     </g>
    </g>
    <g id="line2d_41">
     <path d="M 47.75 198.871406 
L 69.75 198.871406 
" style="fill:none;stroke:#64b5cd;stroke-linecap:round;stroke-width:1.5;"/>
    </g>
    <g id="line2d_42">
     <g>
      <use style="fill:#64b5cd;stroke:#64b5cd;" x="58.75" xlink:href="#mcff8271371" y="198.871406"/>
     </g>
    </g>
    <g id="text_25">
     <!-- allreduce-ring -->
     <g style="fill:#262626;" transform="translate(78.55 202.721406)scale(0.11 -0.11)">
      <use xlink:href="#ArialMT-61"/>
      <use x="55.615234" xlink:href="#ArialMT-6c"/>
      <use x="77.832031" xlink:href="#ArialMT-6c"/>
      <use x="100.048828" xlink:href="#ArialMT-72"/>
      <use x="133.349609" xlink:href="#ArialMT-65"/>
      <use x="188.964844" xlink:href="#ArialMT-64"/>
      <use x="244.580078" xlink:href="#ArialMT-75"/>
      <use x="300.195312" xlink:href="#ArialMT-63"/>
      <use x="350.195312" xlink:href="#ArialMT-65"/>
      <use x="405.810547" xlink:href="#ArialMT-2d"/>
      <use x="439.111328" xlink:href="#ArialMT-72"/>
      <use x="472.412109" xlink:href="#ArialMT-69"/>
      <use x="494.628906" xlink:href="#ArialMT-6e"/>
      <use x="550.244141" xlink:href="#ArialMT-67"/>
     </g>
    </g>
   </g>
  </g>
 </g>
 <defs>
  <clipPath id="pdc860390f8">
   <rect height="270.60375" width="405.987312" x="37.85" y="27.65625"/>
  </clipPath>
 </defs>
</svg>
