<?xml version="1.0" encoding="utf-8" standalone="no"?>
<!DOCTYPE svg PUBLIC "-//W3C//DTD SVG 1.1//EN"
  "http://www.w3.org/Graphics/SVG/1.1/DTD/svg11.dtd">
<svg height="345.6pt" version="1.1" viewBox="0 0 460.8 345.6" width="460.8pt" xmlns="http://www.w3.org/2000/svg" xmlns:xlink="http://www.w3.org/1999/xlink">
 <metadata>
  <rdf:RDF xmlns:cc="http://creativecommons.org/ns#" xmlns:dc="http://purl.org/dc/elements/1.1/" xmlns:rdf="http://www.w3.org/1999/02/22-rdf-syntax-ns#">
   <cc:Work>
    <dc:type rdf:resource="http://purl.org/dc/dcmitype/StillImage"/>
    <dc:date>2021-11-20T20:49:40.518476</dc:date>
    <dc:format>image/svg+xml</dc:format>
    <dc:creator>
     <cc:Agent>
      <dc:title>Matplotlib v3.4.3, https://matplotlib.org/</dc:title>
     </cc:Agent>
    </dc:creator>
   </cc:Work>
  </rdf:RDF>
 </metadata>
 <defs>
  <style type="text/css">*{stroke-linecap:butt;stroke-linejoin:round;}</style>
 </defs>
 <g id="figure_1">
  <g id="patch_1">
   <path d="M 0 345.6 
L 460.8 345.6 
L 460.8 0 
L 0 0 
z
" style="fill:#ffffff;"/>
  </g>
  <g id="axes_1">
   <g id="patch_2">
    <path d="M 59.598267 298.26 
L 443.837312 298.26 
L 443.837312 27.65625 
L 59.598267 27.65625 
z
" style="fill:#eaeaf2;"/>
   </g>
   <g id="matplotlib.axis_1">
    <g id="xtick_1">
     <g id="line2d_1">
      <path clip-path="url(#p0d170520ca)" d="M 61.876364 298.26 
L 61.876364 27.65625 
" style="fill:none;stroke:#ffffff;stroke-linecap:round;"/>
     </g>
     <g id="text_1">
      <!-- 0 -->
      <g style="fill:#262626;" transform="translate(58.817849 315.633594)scale(0.11 -0.11)">
       <defs>
        <path d="M 266 2259 
Q 266 3072 433 3567 
Q 600 4063 929 4331 
Q 1259 4600 1759 4600 
Q 2128 4600 2406 4451 
Q 2684 4303 2865 4023 
Q 3047 3744 3150 3342 
Q 3253 2941 3253 2259 
Q 3253 1453 3087 958 
Q 2922 463 2592 192 
Q 2263 -78 1759 -78 
Q 1097 -78 719 397 
Q 266 969 266 2259 
z
M 844 2259 
Q 844 1131 1108 757 
Q 1372 384 1759 384 
Q 2147 384 2411 759 
Q 2675 1134 2675 2259 
Q 2675 3391 2411 3762 
Q 2147 4134 1753 4134 
Q 1366 4134 1134 3806 
Q 844 3388 844 2259 
z
" id="ArialMT-30" transform="scale(0.015625)"/>
       </defs>
       <use xlink:href="#ArialMT-30"/>
      </g>
     </g>
    </g>
    <g id="xtick_2">
     <g id="line2d_2">
      <path clip-path="url(#p0d170520ca)" d="M 137.812934 298.26 
L 137.812934 27.65625 
" style="fill:none;stroke:#ffffff;stroke-linecap:round;"/>
     </g>
     <g id="text_2">
      <!-- 10 -->
      <g style="fill:#262626;" transform="translate(131.695903 315.633594)scale(0.11 -0.11)">
       <defs>
        <path d="M 2384 0 
L 1822 0 
L 1822 3584 
Q 1619 3391 1289 3197 
Q 959 3003 697 2906 
L 697 3450 
Q 1169 3672 1522 3987 
Q 1875 4303 2022 4600 
L 2384 4600 
L 2384 0 
z
" id="ArialMT-31" transform="scale(0.015625)"/>
       </defs>
       <use xlink:href="#ArialMT-31"/>
       <use x="55.615234" xlink:href="#ArialMT-30"/>
      </g>
     </g>
    </g>
    <g id="xtick_3">
     <g id="line2d_3">
      <path clip-path="url(#p0d170520ca)" d="M 213.749505 298.26 
L 213.749505 27.65625 
" style="fill:none;stroke:#ffffff;stroke-linecap:round;"/>
     </g>
     <g id="text_3">
      <!-- 20 -->
      <g style="fill:#262626;" transform="translate(207.632473 315.633594)scale(0.11 -0.11)">
       <defs>
        <path d="M 3222 541 
L 3222 0 
L 194 0 
Q 188 203 259 391 
Q 375 700 629 1000 
Q 884 1300 1366 1694 
Q 2113 2306 2375 2664 
Q 2638 3022 2638 3341 
Q 2638 3675 2398 3904 
Q 2159 4134 1775 4134 
Q 1369 4134 1125 3890 
Q 881 3647 878 3216 
L 300 3275 
Q 359 3922 746 4261 
Q 1134 4600 1788 4600 
Q 2447 4600 2831 4234 
Q 3216 3869 3216 3328 
Q 3216 3053 3103 2787 
Q 2991 2522 2730 2228 
Q 2469 1934 1863 1422 
Q 1356 997 1212 845 
Q 1069 694 975 541 
L 3222 541 
z
" id="ArialMT-32" transform="scale(0.015625)"/>
       </defs>
       <use xlink:href="#ArialMT-32"/>
       <use x="55.615234" xlink:href="#ArialMT-30"/>
      </g>
     </g>
    </g>
    <g id="xtick_4">
     <g id="line2d_4">
      <path clip-path="url(#p0d170520ca)" d="M 289.686075 298.26 
L 289.686075 27.65625 
" style="fill:none;stroke:#ffffff;stroke-linecap:round;"/>
     </g>
     <g id="text_4">
      <!-- 30 -->
      <g style="fill:#262626;" transform="translate(283.569044 315.633594)scale(0.11 -0.11)">
       <defs>
        <path d="M 269 1209 
L 831 1284 
Q 928 806 1161 595 
Q 1394 384 1728 384 
Q 2125 384 2398 659 
Q 2672 934 2672 1341 
Q 2672 1728 2419 1979 
Q 2166 2231 1775 2231 
Q 1616 2231 1378 2169 
L 1441 2663 
Q 1497 2656 1531 2656 
Q 1891 2656 2178 2843 
Q 2466 3031 2466 3422 
Q 2466 3731 2256 3934 
Q 2047 4138 1716 4138 
Q 1388 4138 1169 3931 
Q 950 3725 888 3313 
L 325 3413 
Q 428 3978 793 4289 
Q 1159 4600 1703 4600 
Q 2078 4600 2393 4439 
Q 2709 4278 2876 4000 
Q 3044 3722 3044 3409 
Q 3044 3113 2884 2869 
Q 2725 2625 2413 2481 
Q 2819 2388 3044 2092 
Q 3269 1797 3269 1353 
Q 3269 753 2831 336 
Q 2394 -81 1725 -81 
Q 1122 -81 723 278 
Q 325 638 269 1209 
z
" id="ArialMT-33" transform="scale(0.015625)"/>
       </defs>
       <use xlink:href="#ArialMT-33"/>
       <use x="55.615234" xlink:href="#ArialMT-30"/>
      </g>
     </g>
    </g>
    <g id="xtick_5">
     <g id="line2d_5">
      <path clip-path="url(#p0d170520ca)" d="M 365.622645 298.26 
L 365.622645 27.65625 
" style="fill:none;stroke:#ffffff;stroke-linecap:round;"/>
     </g>
     <g id="text_5">
      <!-- 40 -->
      <g style="fill:#262626;" transform="translate(359.505614 315.633594)scale(0.11 -0.11)">
       <defs>
        <path d="M 2069 0 
L 2069 1097 
L 81 1097 
L 81 1613 
L 2172 4581 
L 2631 4581 
L 2631 1613 
L 3250 1613 
L 3250 1097 
L 2631 1097 
L 2631 0 
L 2069 0 
z
M 2069 1613 
L 2069 3678 
L 634 1613 
L 2069 1613 
z
" id="ArialMT-34" transform="scale(0.015625)"/>
       </defs>
       <use xlink:href="#ArialMT-34"/>
       <use x="55.615234" xlink:href="#ArialMT-30"/>
      </g>
     </g>
    </g>
    <g id="xtick_6">
     <g id="line2d_6">
      <path clip-path="url(#p0d170520ca)" d="M 441.559215 298.26 
L 441.559215 27.65625 
" style="fill:none;stroke:#ffffff;stroke-linecap:round;"/>
     </g>
     <g id="text_6">
      <!-- 50 -->
      <g style="fill:#262626;" transform="translate(435.442184 315.633594)scale(0.11 -0.11)">
       <defs>
        <path d="M 266 1200 
L 856 1250 
Q 922 819 1161 601 
Q 1400 384 1738 384 
Q 2144 384 2425 690 
Q 2706 997 2706 1503 
Q 2706 1984 2436 2262 
Q 2166 2541 1728 2541 
Q 1456 2541 1237 2417 
Q 1019 2294 894 2097 
L 366 2166 
L 809 4519 
L 3088 4519 
L 3088 3981 
L 1259 3981 
L 1013 2750 
Q 1425 3038 1878 3038 
Q 2478 3038 2890 2622 
Q 3303 2206 3303 1553 
Q 3303 931 2941 478 
Q 2500 -78 1738 -78 
Q 1113 -78 717 272 
Q 322 622 266 1200 
z
" id="ArialMT-35" transform="scale(0.015625)"/>
       </defs>
       <use xlink:href="#ArialMT-35"/>
       <use x="55.615234" xlink:href="#ArialMT-30"/>
      </g>
     </g>
    </g>
    <g id="text_7">
     <!-- Number of processes -->
     <g style="fill:#262626;" transform="translate(194.698102 330.555469)scale(0.12 -0.12)">
      <defs>
       <path d="M 488 0 
L 488 4581 
L 1109 4581 
L 3516 984 
L 3516 4581 
L 4097 4581 
L 4097 0 
L 3475 0 
L 1069 3600 
L 1069 0 
L 488 0 
z
" id="ArialMT-4e" transform="scale(0.015625)"/>
       <path d="M 2597 0 
L 2597 488 
Q 2209 -75 1544 -75 
Q 1250 -75 995 37 
Q 741 150 617 320 
Q 494 491 444 738 
Q 409 903 409 1263 
L 409 3319 
L 972 3319 
L 972 1478 
Q 972 1038 1006 884 
Q 1059 663 1231 536 
Q 1403 409 1656 409 
Q 1909 409 2131 539 
Q 2353 669 2445 892 
Q 2538 1116 2538 1541 
L 2538 3319 
L 3100 3319 
L 3100 0 
L 2597 0 
z
" id="ArialMT-75" transform="scale(0.015625)"/>
       <path d="M 422 0 
L 422 3319 
L 925 3319 
L 925 2853 
Q 1081 3097 1340 3245 
Q 1600 3394 1931 3394 
Q 2300 3394 2536 3241 
Q 2772 3088 2869 2813 
Q 3263 3394 3894 3394 
Q 4388 3394 4653 3120 
Q 4919 2847 4919 2278 
L 4919 0 
L 4359 0 
L 4359 2091 
Q 4359 2428 4304 2576 
Q 4250 2725 4106 2815 
Q 3963 2906 3769 2906 
Q 3419 2906 3187 2673 
Q 2956 2441 2956 1928 
L 2956 0 
L 2394 0 
L 2394 2156 
Q 2394 2531 2256 2718 
Q 2119 2906 1806 2906 
Q 1569 2906 1367 2781 
Q 1166 2656 1075 2415 
Q 984 2175 984 1722 
L 984 0 
L 422 0 
z
" id="ArialMT-6d" transform="scale(0.015625)"/>
       <path d="M 941 0 
L 419 0 
L 419 4581 
L 981 4581 
L 981 2947 
Q 1338 3394 1891 3394 
Q 2197 3394 2470 3270 
Q 2744 3147 2920 2923 
Q 3097 2700 3197 2384 
Q 3297 2069 3297 1709 
Q 3297 856 2875 390 
Q 2453 -75 1863 -75 
Q 1275 -75 941 416 
L 941 0 
z
M 934 1684 
Q 934 1088 1097 822 
Q 1363 388 1816 388 
Q 2184 388 2453 708 
Q 2722 1028 2722 1663 
Q 2722 2313 2464 2622 
Q 2206 2931 1841 2931 
Q 1472 2931 1203 2611 
Q 934 2291 934 1684 
z
" id="ArialMT-62" transform="scale(0.015625)"/>
       <path d="M 2694 1069 
L 3275 997 
Q 3138 488 2766 206 
Q 2394 -75 1816 -75 
Q 1088 -75 661 373 
Q 234 822 234 1631 
Q 234 2469 665 2931 
Q 1097 3394 1784 3394 
Q 2450 3394 2872 2941 
Q 3294 2488 3294 1666 
Q 3294 1616 3291 1516 
L 816 1516 
Q 847 969 1125 678 
Q 1403 388 1819 388 
Q 2128 388 2347 550 
Q 2566 713 2694 1069 
z
M 847 1978 
L 2700 1978 
Q 2663 2397 2488 2606 
Q 2219 2931 1791 2931 
Q 1403 2931 1139 2672 
Q 875 2413 847 1978 
z
" id="ArialMT-65" transform="scale(0.015625)"/>
       <path d="M 416 0 
L 416 3319 
L 922 3319 
L 922 2816 
Q 1116 3169 1280 3281 
Q 1444 3394 1641 3394 
Q 1925 3394 2219 3213 
L 2025 2691 
Q 1819 2813 1613 2813 
Q 1428 2813 1281 2702 
Q 1134 2591 1072 2394 
Q 978 2094 978 1738 
L 978 0 
L 416 0 
z
" id="ArialMT-72" transform="scale(0.015625)"/>
       <path id="ArialMT-20" transform="scale(0.015625)"/>
       <path d="M 213 1659 
Q 213 2581 725 3025 
Q 1153 3394 1769 3394 
Q 2453 3394 2887 2945 
Q 3322 2497 3322 1706 
Q 3322 1066 3130 698 
Q 2938 331 2570 128 
Q 2203 -75 1769 -75 
Q 1072 -75 642 372 
Q 213 819 213 1659 
z
M 791 1659 
Q 791 1022 1069 705 
Q 1347 388 1769 388 
Q 2188 388 2466 706 
Q 2744 1025 2744 1678 
Q 2744 2294 2464 2611 
Q 2184 2928 1769 2928 
Q 1347 2928 1069 2612 
Q 791 2297 791 1659 
z
" id="ArialMT-6f" transform="scale(0.015625)"/>
       <path d="M 556 0 
L 556 2881 
L 59 2881 
L 59 3319 
L 556 3319 
L 556 3672 
Q 556 4006 616 4169 
Q 697 4388 901 4523 
Q 1106 4659 1475 4659 
Q 1713 4659 2000 4603 
L 1916 4113 
Q 1741 4144 1584 4144 
Q 1328 4144 1222 4034 
Q 1116 3925 1116 3625 
L 1116 3319 
L 1763 3319 
L 1763 2881 
L 1116 2881 
L 1116 0 
L 556 0 
z
" id="ArialMT-66" transform="scale(0.015625)"/>
       <path d="M 422 -1272 
L 422 3319 
L 934 3319 
L 934 2888 
Q 1116 3141 1344 3267 
Q 1572 3394 1897 3394 
Q 2322 3394 2647 3175 
Q 2972 2956 3137 2557 
Q 3303 2159 3303 1684 
Q 3303 1175 3120 767 
Q 2938 359 2589 142 
Q 2241 -75 1856 -75 
Q 1575 -75 1351 44 
Q 1128 163 984 344 
L 984 -1272 
L 422 -1272 
z
M 931 1641 
Q 931 1000 1190 694 
Q 1450 388 1819 388 
Q 2194 388 2461 705 
Q 2728 1022 2728 1688 
Q 2728 2322 2467 2637 
Q 2206 2953 1844 2953 
Q 1484 2953 1207 2617 
Q 931 2281 931 1641 
z
" id="ArialMT-70" transform="scale(0.015625)"/>
       <path d="M 2588 1216 
L 3141 1144 
Q 3050 572 2676 248 
Q 2303 -75 1759 -75 
Q 1078 -75 664 370 
Q 250 816 250 1647 
Q 250 2184 428 2587 
Q 606 2991 970 3192 
Q 1334 3394 1763 3394 
Q 2303 3394 2647 3120 
Q 2991 2847 3088 2344 
L 2541 2259 
Q 2463 2594 2264 2762 
Q 2066 2931 1784 2931 
Q 1359 2931 1093 2626 
Q 828 2322 828 1663 
Q 828 994 1084 691 
Q 1341 388 1753 388 
Q 2084 388 2306 591 
Q 2528 794 2588 1216 
z
" id="ArialMT-63" transform="scale(0.015625)"/>
       <path d="M 197 991 
L 753 1078 
Q 800 744 1014 566 
Q 1228 388 1613 388 
Q 2000 388 2187 545 
Q 2375 703 2375 916 
Q 2375 1106 2209 1216 
Q 2094 1291 1634 1406 
Q 1016 1563 777 1677 
Q 538 1791 414 1992 
Q 291 2194 291 2438 
Q 291 2659 392 2848 
Q 494 3038 669 3163 
Q 800 3259 1026 3326 
Q 1253 3394 1513 3394 
Q 1903 3394 2198 3281 
Q 2494 3169 2634 2976 
Q 2775 2784 2828 2463 
L 2278 2388 
Q 2241 2644 2061 2787 
Q 1881 2931 1553 2931 
Q 1166 2931 1000 2803 
Q 834 2675 834 2503 
Q 834 2394 903 2306 
Q 972 2216 1119 2156 
Q 1203 2125 1616 2013 
Q 2213 1853 2448 1751 
Q 2684 1650 2818 1456 
Q 2953 1263 2953 975 
Q 2953 694 2789 445 
Q 2625 197 2315 61 
Q 2006 -75 1616 -75 
Q 969 -75 630 194 
Q 291 463 197 991 
z
" id="ArialMT-73" transform="scale(0.015625)"/>
      </defs>
      <use xlink:href="#ArialMT-4e"/>
      <use x="72.216797" xlink:href="#ArialMT-75"/>
      <use x="127.832031" xlink:href="#ArialMT-6d"/>
      <use x="211.132812" xlink:href="#ArialMT-62"/>
      <use x="266.748047" xlink:href="#ArialMT-65"/>
      <use x="322.363281" xlink:href="#ArialMT-72"/>
      <use x="355.664062" xlink:href="#ArialMT-20"/>
      <use x="383.447266" xlink:href="#ArialMT-6f"/>
      <use x="439.0625" xlink:href="#ArialMT-66"/>
      <use x="466.845703" xlink:href="#ArialMT-20"/>
      <use x="494.628906" xlink:href="#ArialMT-70"/>
      <use x="550.244141" xlink:href="#ArialMT-72"/>
      <use x="583.544922" xlink:href="#ArialMT-6f"/>
      <use x="639.160156" xlink:href="#ArialMT-63"/>
      <use x="689.160156" xlink:href="#ArialMT-65"/>
      <use x="744.775391" xlink:href="#ArialMT-73"/>
      <use x="794.775391" xlink:href="#ArialMT-73"/>
      <use x="844.775391" xlink:href="#ArialMT-65"/>
      <use x="900.390625" xlink:href="#ArialMT-73"/>
     </g>
    </g>
   </g>
   <g id="matplotlib.axis_2">
    <g id="ytick_1">
     <g id="line2d_7">
      <path clip-path="url(#p0d170520ca)" d="M 59.598267 180.639853 
L 443.837312 180.639853 
" style="fill:none;stroke:#ffffff;stroke-linecap:round;"/>
     </g>
     <g id="text_8">
      <!-- $\mathdefault{10^{-4}}$ -->
      <g style="fill:#262626;" transform="translate(28.318267 186.256728)scale(0.11 -0.11)">
       <defs>
        <path d="M 3381 1997 
L 356 1997 
L 356 2522 
L 3381 2522 
L 3381 1997 
z
" id="ArialMT-2212" transform="scale(0.015625)"/>
       </defs>
       <use transform="translate(0 0.201563)" xlink:href="#ArialMT-31"/>
       <use transform="translate(55.615234 0.201563)" xlink:href="#ArialMT-30"/>
       <use transform="translate(112.972813 69.895313)scale(0.7)" xlink:href="#ArialMT-2212"/>
       <use transform="translate(153.851719 69.895313)scale(0.7)" xlink:href="#ArialMT-34"/>
      </g>
     </g>
    </g>
    <g id="ytick_2"/>
    <g id="ytick_3"/>
    <g id="ytick_4"/>
    <g id="ytick_5"/>
    <g id="ytick_6"/>
    <g id="ytick_7"/>
    <g id="ytick_8"/>
    <g id="ytick_9"/>
    <g id="ytick_10"/>
    <g id="ytick_11"/>
    <g id="ytick_12"/>
    <g id="ytick_13"/>
    <g id="ytick_14"/>
    <g id="ytick_15"/>
    <g id="ytick_16"/>
    <g id="ytick_17"/>
    <g id="text_9">
     <!-- Runtime (s) -->
     <g style="fill:#262626;" transform="translate(21.792642 193.96125)rotate(-90)scale(0.12 -0.12)">
      <defs>
       <path d="M 503 0 
L 503 4581 
L 2534 4581 
Q 3147 4581 3465 4457 
Q 3784 4334 3975 4021 
Q 4166 3709 4166 3331 
Q 4166 2844 3850 2509 
Q 3534 2175 2875 2084 
Q 3116 1969 3241 1856 
Q 3506 1613 3744 1247 
L 4541 0 
L 3778 0 
L 3172 953 
Q 2906 1366 2734 1584 
Q 2563 1803 2427 1890 
Q 2291 1978 2150 2013 
Q 2047 2034 1813 2034 
L 1109 2034 
L 1109 0 
L 503 0 
z
M 1109 2559 
L 2413 2559 
Q 2828 2559 3062 2645 
Q 3297 2731 3419 2920 
Q 3541 3109 3541 3331 
Q 3541 3656 3305 3865 
Q 3069 4075 2559 4075 
L 1109 4075 
L 1109 2559 
z
" id="ArialMT-52" transform="scale(0.015625)"/>
       <path d="M 422 0 
L 422 3319 
L 928 3319 
L 928 2847 
Q 1294 3394 1984 3394 
Q 2284 3394 2536 3286 
Q 2788 3178 2913 3003 
Q 3038 2828 3088 2588 
Q 3119 2431 3119 2041 
L 3119 0 
L 2556 0 
L 2556 2019 
Q 2556 2363 2490 2533 
Q 2425 2703 2258 2804 
Q 2091 2906 1866 2906 
Q 1506 2906 1245 2678 
Q 984 2450 984 1813 
L 984 0 
L 422 0 
z
" id="ArialMT-6e" transform="scale(0.015625)"/>
       <path d="M 1650 503 
L 1731 6 
Q 1494 -44 1306 -44 
Q 1000 -44 831 53 
Q 663 150 594 308 
Q 525 466 525 972 
L 525 2881 
L 113 2881 
L 113 3319 
L 525 3319 
L 525 4141 
L 1084 4478 
L 1084 3319 
L 1650 3319 
L 1650 2881 
L 1084 2881 
L 1084 941 
Q 1084 700 1114 631 
Q 1144 563 1211 522 
Q 1278 481 1403 481 
Q 1497 481 1650 503 
z
" id="ArialMT-74" transform="scale(0.015625)"/>
       <path d="M 425 3934 
L 425 4581 
L 988 4581 
L 988 3934 
L 425 3934 
z
M 425 0 
L 425 3319 
L 988 3319 
L 988 0 
L 425 0 
z
" id="ArialMT-69" transform="scale(0.015625)"/>
       <path d="M 1497 -1347 
Q 1031 -759 709 28 
Q 388 816 388 1659 
Q 388 2403 628 3084 
Q 909 3875 1497 4659 
L 1900 4659 
Q 1522 4009 1400 3731 
Q 1209 3300 1100 2831 
Q 966 2247 966 1656 
Q 966 153 1900 -1347 
L 1497 -1347 
z
" id="ArialMT-28" transform="scale(0.015625)"/>
       <path d="M 791 -1347 
L 388 -1347 
Q 1322 153 1322 1656 
Q 1322 2244 1188 2822 
Q 1081 3291 891 3722 
Q 769 4003 388 4659 
L 791 4659 
Q 1378 3875 1659 3084 
Q 1900 2403 1900 1659 
Q 1900 816 1576 28 
Q 1253 -759 791 -1347 
z
" id="ArialMT-29" transform="scale(0.015625)"/>
      </defs>
      <use xlink:href="#ArialMT-52"/>
      <use x="72.216797" xlink:href="#ArialMT-75"/>
      <use x="127.832031" xlink:href="#ArialMT-6e"/>
      <use x="183.447266" xlink:href="#ArialMT-74"/>
      <use x="211.230469" xlink:href="#ArialMT-69"/>
      <use x="233.447266" xlink:href="#ArialMT-6d"/>
      <use x="316.748047" xlink:href="#ArialMT-65"/>
      <use x="372.363281" xlink:href="#ArialMT-20"/>
      <use x="400.146484" xlink:href="#ArialMT-28"/>
      <use x="433.447266" xlink:href="#ArialMT-73"/>
      <use x="483.447266" xlink:href="#ArialMT-29"/>
     </g>
    </g>
   </g>
   <g id="line2d_8">
    <path clip-path="url(#p0d170520ca)" d="M 77.063678 284.35834 
L 92.250992 243.217852 
L 107.438306 214.037089 
L 122.62562 214.588616 
L 137.812934 199.758805 
L 153.000248 191.050848 
L 168.187563 186.543452 
L 183.374877 194.644081 
L 198.562191 179.323798 
L 213.749505 186.181279 
L 228.936819 183.352826 
L 244.124133 186.181279 
L 259.311447 181.982497 
L 274.498761 186.181279 
L 289.686075 181.307784 
L 304.873389 184.048734 
L 320.060703 175.833522 
L 335.248017 178.033299 
L 350.435331 175.21816 
L 365.622645 174.30567 
L 380.809959 172.224022 
L 395.997273 169.079157 
L 411.184587 169.358983 
L 426.371901 166.612369 
" style="fill:none;stroke:#4c72b0;stroke-linecap:round;stroke-width:1.5;"/>
    <defs>
     <path d="M 0 3 
C 0.795609 3 1.55874 2.683901 2.12132 2.12132 
C 2.683901 1.55874 3 0.795609 3 0 
C 3 -0.795609 2.683901 -1.55874 2.12132 -2.12132 
C 1.55874 -2.683901 0.795609 -3 0 -3 
C -0.795609 -3 -1.55874 -2.683901 -2.12132 -2.12132 
C -2.683901 -1.55874 -3 -0.795609 -3 0 
C -3 0.795609 -2.683901 1.55874 -2.12132 2.12132 
C -1.55874 2.683901 -0.795609 3 0 3 
z
" id="m400438a8aa" style="stroke:#4c72b0;"/>
    </defs>
    <g clip-path="url(#p0d170520ca)">
     <use style="fill:#4c72b0;stroke:#4c72b0;" x="77.063678" xlink:href="#m400438a8aa" y="284.35834"/>
     <use style="fill:#4c72b0;stroke:#4c72b0;" x="92.250992" xlink:href="#m400438a8aa" y="243.217852"/>
     <use style="fill:#4c72b0;stroke:#4c72b0;" x="107.438306" xlink:href="#m400438a8aa" y="214.037089"/>
     <use style="fill:#4c72b0;stroke:#4c72b0;" x="122.62562" xlink:href="#m400438a8aa" y="214.588616"/>
     <use style="fill:#4c72b0;stroke:#4c72b0;" x="137.812934" xlink:href="#m400438a8aa" y="199.758805"/>
     <use style="fill:#4c72b0;stroke:#4c72b0;" x="153.000248" xlink:href="#m400438a8aa" y="191.050848"/>
     <use style="fill:#4c72b0;stroke:#4c72b0;" x="168.187563" xlink:href="#m400438a8aa" y="186.543452"/>
     <use style="fill:#4c72b0;stroke:#4c72b0;" x="183.374877" xlink:href="#m400438a8aa" y="194.644081"/>
     <use style="fill:#4c72b0;stroke:#4c72b0;" x="198.562191" xlink:href="#m400438a8aa" y="179.323798"/>
     <use style="fill:#4c72b0;stroke:#4c72b0;" x="213.749505" xlink:href="#m400438a8aa" y="186.181279"/>
     <use style="fill:#4c72b0;stroke:#4c72b0;" x="228.936819" xlink:href="#m400438a8aa" y="183.352826"/>
     <use style="fill:#4c72b0;stroke:#4c72b0;" x="244.124133" xlink:href="#m400438a8aa" y="186.181279"/>
     <use style="fill:#4c72b0;stroke:#4c72b0;" x="259.311447" xlink:href="#m400438a8aa" y="181.982497"/>
     <use style="fill:#4c72b0;stroke:#4c72b0;" x="274.498761" xlink:href="#m400438a8aa" y="186.181279"/>
     <use style="fill:#4c72b0;stroke:#4c72b0;" x="289.686075" xlink:href="#m400438a8aa" y="181.307784"/>
     <use style="fill:#4c72b0;stroke:#4c72b0;" x="304.873389" xlink:href="#m400438a8aa" y="184.048734"/>
     <use style="fill:#4c72b0;stroke:#4c72b0;" x="320.060703" xlink:href="#m400438a8aa" y="175.833522"/>
     <use style="fill:#4c72b0;stroke:#4c72b0;" x="335.248017" xlink:href="#m400438a8aa" y="178.033299"/>
     <use style="fill:#4c72b0;stroke:#4c72b0;" x="350.435331" xlink:href="#m400438a8aa" y="175.21816"/>
     <use style="fill:#4c72b0;stroke:#4c72b0;" x="365.622645" xlink:href="#m400438a8aa" y="174.30567"/>
     <use style="fill:#4c72b0;stroke:#4c72b0;" x="380.809959" xlink:href="#m400438a8aa" y="172.224022"/>
     <use style="fill:#4c72b0;stroke:#4c72b0;" x="395.997273" xlink:href="#m400438a8aa" y="169.079157"/>
     <use style="fill:#4c72b0;stroke:#4c72b0;" x="411.184587" xlink:href="#m400438a8aa" y="169.358983"/>
     <use style="fill:#4c72b0;stroke:#4c72b0;" x="426.371901" xlink:href="#m400438a8aa" y="166.612369"/>
    </g>
   </g>
   <g id="line2d_9">
    <path clip-path="url(#p0d170520ca)" d="M 77.063678 285.95983 
L 92.250992 246.716481 
M 122.62562 220.371272 
M 183.374877 196.305632 
M 304.873389 182.322439 
" style="fill:none;stroke:#dd8452;stroke-linecap:round;stroke-width:1.5;"/>
    <defs>
     <path d="M 0 3 
C 0.795609 3 1.55874 2.683901 2.12132 2.12132 
C 2.683901 1.55874 3 0.795609 3 0 
C 3 -0.795609 2.683901 -1.55874 2.12132 -2.12132 
C 1.55874 -2.683901 0.795609 -3 0 -3 
C -0.795609 -3 -1.55874 -2.683901 -2.12132 -2.12132 
C -2.683901 -1.55874 -3 -0.795609 -3 0 
C -3 0.795609 -2.683901 1.55874 -2.12132 2.12132 
C -1.55874 2.683901 -0.795609 3 0 3 
z
" id="ma973171eaa" style="stroke:#dd8452;"/>
    </defs>
    <g clip-path="url(#p0d170520ca)">
     <use style="fill:#dd8452;stroke:#dd8452;" x="77.063678" xlink:href="#ma973171eaa" y="285.95983"/>
     <use style="fill:#dd8452;stroke:#dd8452;" x="92.250992" xlink:href="#ma973171eaa" y="246.716481"/>
     <use style="fill:#dd8452;stroke:#dd8452;" x="122.62562" xlink:href="#ma973171eaa" y="220.371272"/>
     <use style="fill:#dd8452;stroke:#dd8452;" x="183.374877" xlink:href="#ma973171eaa" y="196.305632"/>
     <use style="fill:#dd8452;stroke:#dd8452;" x="304.873389" xlink:href="#ma973171eaa" y="182.322439"/>
    </g>
   </g>
   <g id="line2d_10">
    <path clip-path="url(#p0d170520ca)" d="M 77.063678 254.320035 
L 92.250992 215.705594 
L 107.438306 190.278065 
L 122.62562 170.776065 
L 137.812934 130.701781 
L 153.000248 137.634268 
L 168.187563 133.584775 
L 183.374877 124.853848 
L 198.562191 114.629716 
L 213.749505 109.651879 
L 228.936819 103.131102 
L 244.124133 97.477971 
L 259.311447 92.532487 
L 274.498761 85.902096 
L 289.686075 80.976983 
L 304.873389 77.50879 
L 320.060703 69.93188 
L 335.248017 69.869095 
L 350.435331 66.325425 
L 365.622645 61.617407 
L 380.809959 56.396017 
L 395.997273 56.293616 
L 411.184587 52.951277 
L 426.371901 50.468339 
" style="fill:none;stroke:#55a868;stroke-linecap:round;stroke-width:1.5;"/>
    <defs>
     <path d="M 0 3 
C 0.795609 3 1.55874 2.683901 2.12132 2.12132 
C 2.683901 1.55874 3 0.795609 3 0 
C 3 -0.795609 2.683901 -1.55874 2.12132 -2.12132 
C 1.55874 -2.683901 0.795609 -3 0 -3 
C -0.795609 -3 -1.55874 -2.683901 -2.12132 -2.12132 
C -2.683901 -1.55874 -3 -0.795609 -3 0 
C -3 0.795609 -2.683901 1.55874 -2.12132 2.12132 
C -1.55874 2.683901 -0.795609 3 0 3 
z
" id="mb51cc81f54" style="stroke:#55a868;"/>
    </defs>
    <g clip-path="url(#p0d170520ca)">
     <use style="fill:#55a868;stroke:#55a868;" x="77.063678" xlink:href="#mb51cc81f54" y="254.320035"/>
     <use style="fill:#55a868;stroke:#55a868;" x="92.250992" xlink:href="#mb51cc81f54" y="215.705594"/>
     <use style="fill:#55a868;stroke:#55a868;" x="107.438306" xlink:href="#mb51cc81f54" y="190.278065"/>
     <use style="fill:#55a868;stroke:#55a868;" x="122.62562" xlink:href="#mb51cc81f54" y="170.776065"/>
     <use style="fill:#55a868;stroke:#55a868;" x="137.812934" xlink:href="#mb51cc81f54" y="130.701781"/>
     <use style="fill:#55a868;stroke:#55a868;" x="153.000248" xlink:href="#mb51cc81f54" y="137.634268"/>
     <use style="fill:#55a868;stroke:#55a868;" x="168.187563" xlink:href="#mb51cc81f54" y="133.584775"/>
     <use style="fill:#55a868;stroke:#55a868;" x="183.374877" xlink:href="#mb51cc81f54" y="124.853848"/>
     <use style="fill:#55a868;stroke:#55a868;" x="198.562191" xlink:href="#mb51cc81f54" y="114.629716"/>
     <use style="fill:#55a868;stroke:#55a868;" x="213.749505" xlink:href="#mb51cc81f54" y="109.651879"/>
     <use style="fill:#55a868;stroke:#55a868;" x="228.936819" xlink:href="#mb51cc81f54" y="103.131102"/>
     <use style="fill:#55a868;stroke:#55a868;" x="244.124133" xlink:href="#mb51cc81f54" y="97.477971"/>
     <use style="fill:#55a868;stroke:#55a868;" x="259.311447" xlink:href="#mb51cc81f54" y="92.532487"/>
     <use style="fill:#55a868;stroke:#55a868;" x="274.498761" xlink:href="#mb51cc81f54" y="85.902096"/>
     <use style="fill:#55a868;stroke:#55a868;" x="289.686075" xlink:href="#mb51cc81f54" y="80.976983"/>
     <use style="fill:#55a868;stroke:#55a868;" x="304.873389" xlink:href="#mb51cc81f54" y="77.50879"/>
     <use style="fill:#55a868;stroke:#55a868;" x="320.060703" xlink:href="#mb51cc81f54" y="69.93188"/>
     <use style="fill:#55a868;stroke:#55a868;" x="335.248017" xlink:href="#mb51cc81f54" y="69.869095"/>
     <use style="fill:#55a868;stroke:#55a868;" x="350.435331" xlink:href="#mb51cc81f54" y="66.325425"/>
     <use style="fill:#55a868;stroke:#55a868;" x="365.622645" xlink:href="#mb51cc81f54" y="61.617407"/>
     <use style="fill:#55a868;stroke:#55a868;" x="380.809959" xlink:href="#mb51cc81f54" y="56.396017"/>
     <use style="fill:#55a868;stroke:#55a868;" x="395.997273" xlink:href="#mb51cc81f54" y="56.293616"/>
     <use style="fill:#55a868;stroke:#55a868;" x="411.184587" xlink:href="#mb51cc81f54" y="52.951277"/>
     <use style="fill:#55a868;stroke:#55a868;" x="426.371901" xlink:href="#mb51cc81f54" y="50.468339"/>
    </g>
   </g>
   <g id="line2d_11">
    <path clip-path="url(#p0d170520ca)" d="M 77.063678 254.320035 
L 92.250992 213.490101 
L 107.438306 203.401284 
L 122.62562 193.424622 
L 137.812934 193.424622 
L 153.000248 71.45681 
L 168.187563 187.641967 
L 183.374877 185.462801 
L 198.562191 183.699869 
L 213.749505 97.382962 
L 228.936819 178.353582 
L 244.124133 185.462801 
L 259.311447 184.048734 
L 274.498761 183.352826 
L 289.686075 183.699869 
L 304.873389 176.767382 
L 320.060703 176.143353 
L 335.248017 173.108185 
L 350.435331 173.704231 
L 365.622645 172.224022 
L 380.809959 173.40554 
L 395.997273 172.517438 
L 411.184587 171.063144 
L 426.371901 170.776065 
" style="fill:none;stroke:#c44e52;stroke-linecap:round;stroke-width:1.5;"/>
    <defs>
     <path d="M 0 3 
C 0.795609 3 1.55874 2.683901 2.12132 2.12132 
C 2.683901 1.55874 3 0.795609 3 0 
C 3 -0.795609 2.683901 -1.55874 2.12132 -2.12132 
C 1.55874 -2.683901 0.795609 -3 0 -3 
C -0.795609 -3 -1.55874 -2.683901 -2.12132 -2.12132 
C -2.683901 -1.55874 -3 -0.795609 -3 0 
C -3 0.795609 -2.683901 1.55874 -2.12132 2.12132 
C -1.55874 2.683901 -0.795609 3 0 3 
z
" id="m04a8202fc0" style="stroke:#c44e52;"/>
    </defs>
    <g clip-path="url(#p0d170520ca)">
     <use style="fill:#c44e52;stroke:#c44e52;" x="77.063678" xlink:href="#m04a8202fc0" y="254.320035"/>
     <use style="fill:#c44e52;stroke:#c44e52;" x="92.250992" xlink:href="#m04a8202fc0" y="213.490101"/>
     <use style="fill:#c44e52;stroke:#c44e52;" x="107.438306" xlink:href="#m04a8202fc0" y="203.401284"/>
     <use style="fill:#c44e52;stroke:#c44e52;" x="122.62562" xlink:href="#m04a8202fc0" y="193.424622"/>
     <use style="fill:#c44e52;stroke:#c44e52;" x="137.812934" xlink:href="#m04a8202fc0" y="193.424622"/>
     <use style="fill:#c44e52;stroke:#c44e52;" x="153.000248" xlink:href="#m04a8202fc0" y="71.45681"/>
     <use style="fill:#c44e52;stroke:#c44e52;" x="168.187563" xlink:href="#m04a8202fc0" y="187.641967"/>
     <use style="fill:#c44e52;stroke:#c44e52;" x="183.374877" xlink:href="#m04a8202fc0" y="185.462801"/>
     <use style="fill:#c44e52;stroke:#c44e52;" x="198.562191" xlink:href="#m04a8202fc0" y="183.699869"/>
     <use style="fill:#c44e52;stroke:#c44e52;" x="213.749505" xlink:href="#m04a8202fc0" y="97.382962"/>
     <use style="fill:#c44e52;stroke:#c44e52;" x="228.936819" xlink:href="#m04a8202fc0" y="178.353582"/>
     <use style="fill:#c44e52;stroke:#c44e52;" x="244.124133" xlink:href="#m04a8202fc0" y="185.462801"/>
     <use style="fill:#c44e52;stroke:#c44e52;" x="259.311447" xlink:href="#m04a8202fc0" y="184.048734"/>
     <use style="fill:#c44e52;stroke:#c44e52;" x="274.498761" xlink:href="#m04a8202fc0" y="183.352826"/>
     <use style="fill:#c44e52;stroke:#c44e52;" x="289.686075" xlink:href="#m04a8202fc0" y="183.699869"/>
     <use style="fill:#c44e52;stroke:#c44e52;" x="304.873389" xlink:href="#m04a8202fc0" y="176.767382"/>
     <use style="fill:#c44e52;stroke:#c44e52;" x="320.060703" xlink:href="#m04a8202fc0" y="176.143353"/>
     <use style="fill:#c44e52;stroke:#c44e52;" x="335.248017" xlink:href="#m04a8202fc0" y="173.108185"/>
     <use style="fill:#c44e52;stroke:#c44e52;" x="350.435331" xlink:href="#m04a8202fc0" y="173.704231"/>
     <use style="fill:#c44e52;stroke:#c44e52;" x="365.622645" xlink:href="#m04a8202fc0" y="172.224022"/>
     <use style="fill:#c44e52;stroke:#c44e52;" x="380.809959" xlink:href="#m04a8202fc0" y="173.40554"/>
     <use style="fill:#c44e52;stroke:#c44e52;" x="395.997273" xlink:href="#m04a8202fc0" y="172.517438"/>
     <use style="fill:#c44e52;stroke:#c44e52;" x="411.184587" xlink:href="#m04a8202fc0" y="171.063144"/>
     <use style="fill:#c44e52;stroke:#c44e52;" x="426.371901" xlink:href="#m04a8202fc0" y="170.776065"/>
    </g>
   </g>
   <g id="line2d_12">
    <path clip-path="url(#p0d170520ca)" d="M 77.063678 268.898584 
L 92.250992 232.24688 
L 107.438306 198.878545 
L 122.62562 210.820722 
L 137.812934 173.108185 
L 153.000248 179.978568 
L 168.187563 144.791207 
L 183.374877 198.878545 
L 198.562191 178.675416 
L 213.749505 97.763815 
L 228.936819 161.687255 
L 244.124133 185.106453 
L 259.311447 183.007586 
L 274.498761 180.308388 
L 289.686075 178.675416 
L 304.873389 194.644081 
L 320.060703 169.639993 
L 335.248017 173.704231 
L 350.435331 172.224022 
L 365.622645 173.108185 
L 380.809959 169.079157 
L 395.997273 166.612369 
L 411.184587 166.881978 
L 426.371901 171.351468 
" style="fill:none;stroke:#8172b3;stroke-linecap:round;stroke-width:1.5;"/>
    <defs>
     <path d="M 0 3 
C 0.795609 3 1.55874 2.683901 2.12132 2.12132 
C 2.683901 1.55874 3 0.795609 3 0 
C 3 -0.795609 2.683901 -1.55874 2.12132 -2.12132 
C 1.55874 -2.683901 0.795609 -3 0 -3 
C -0.795609 -3 -1.55874 -2.683901 -2.12132 -2.12132 
C -2.683901 -1.55874 -3 -0.795609 -3 0 
C -3 0.795609 -2.683901 1.55874 -2.12132 2.12132 
C -1.55874 2.683901 -0.795609 3 0 3 
z
" id="m8893a940b7" style="stroke:#8172b3;"/>
    </defs>
    <g clip-path="url(#p0d170520ca)">
     <use style="fill:#8172b3;stroke:#8172b3;" x="77.063678" xlink:href="#m8893a940b7" y="268.898584"/>
     <use style="fill:#8172b3;stroke:#8172b3;" x="92.250992" xlink:href="#m8893a940b7" y="232.24688"/>
     <use style="fill:#8172b3;stroke:#8172b3;" x="107.438306" xlink:href="#m8893a940b7" y="198.878545"/>
     <use style="fill:#8172b3;stroke:#8172b3;" x="122.62562" xlink:href="#m8893a940b7" y="210.820722"/>
     <use style="fill:#8172b3;stroke:#8172b3;" x="137.812934" xlink:href="#m8893a940b7" y="173.108185"/>
     <use style="fill:#8172b3;stroke:#8172b3;" x="153.000248" xlink:href="#m8893a940b7" y="179.978568"/>
     <use style="fill:#8172b3;stroke:#8172b3;" x="168.187563" xlink:href="#m8893a940b7" y="144.791207"/>
     <use style="fill:#8172b3;stroke:#8172b3;" x="183.374877" xlink:href="#m8893a940b7" y="198.878545"/>
     <use style="fill:#8172b3;stroke:#8172b3;" x="198.562191" xlink:href="#m8893a940b7" y="178.675416"/>
     <use style="fill:#8172b3;stroke:#8172b3;" x="213.749505" xlink:href="#m8893a940b7" y="97.763815"/>
     <use style="fill:#8172b3;stroke:#8172b3;" x="228.936819" xlink:href="#m8893a940b7" y="161.687255"/>
     <use style="fill:#8172b3;stroke:#8172b3;" x="244.124133" xlink:href="#m8893a940b7" y="185.106453"/>
     <use style="fill:#8172b3;stroke:#8172b3;" x="259.311447" xlink:href="#m8893a940b7" y="183.007586"/>
     <use style="fill:#8172b3;stroke:#8172b3;" x="274.498761" xlink:href="#m8893a940b7" y="180.308388"/>
     <use style="fill:#8172b3;stroke:#8172b3;" x="289.686075" xlink:href="#m8893a940b7" y="178.675416"/>
     <use style="fill:#8172b3;stroke:#8172b3;" x="304.873389" xlink:href="#m8893a940b7" y="194.644081"/>
     <use style="fill:#8172b3;stroke:#8172b3;" x="320.060703" xlink:href="#m8893a940b7" y="169.639993"/>
     <use style="fill:#8172b3;stroke:#8172b3;" x="335.248017" xlink:href="#m8893a940b7" y="173.704231"/>
     <use style="fill:#8172b3;stroke:#8172b3;" x="350.435331" xlink:href="#m8893a940b7" y="172.224022"/>
     <use style="fill:#8172b3;stroke:#8172b3;" x="365.622645" xlink:href="#m8893a940b7" y="173.108185"/>
     <use style="fill:#8172b3;stroke:#8172b3;" x="380.809959" xlink:href="#m8893a940b7" y="169.079157"/>
     <use style="fill:#8172b3;stroke:#8172b3;" x="395.997273" xlink:href="#m8893a940b7" y="166.612369"/>
     <use style="fill:#8172b3;stroke:#8172b3;" x="411.184587" xlink:href="#m8893a940b7" y="166.881978"/>
     <use style="fill:#8172b3;stroke:#8172b3;" x="426.371901" xlink:href="#m8893a940b7" y="171.351468"/>
    </g>
   </g>
   <g id="line2d_13">
    <path clip-path="url(#p0d170520ca)" d="M 77.063678 284.35834 
L 92.250992 239.894228 
L 107.438306 215.705594 
L 122.62562 215.705594 
L 137.812934 198.009793 
L 153.000248 185.462801 
L 168.187563 145.570789 
L 183.374877 193.023058 
L 198.562191 186.90761 
L 213.749505 100.891856 
L 228.936819 185.462801 
L 244.124133 185.821069 
L 259.311447 182.322439 
L 274.498761 183.007586 
L 289.686075 177.397326 
L 304.873389 181.644284 
L 320.060703 176.767382 
L 335.248017 176.454635 
L 350.435331 177.397326 
L 365.622645 171.931896 
L 380.809959 170.205601 
L 395.997273 169.079157 
L 411.184587 170.776065 
L 426.371901 174.00427 
" style="fill:none;stroke:#937860;stroke-linecap:round;stroke-width:1.5;"/>
    <defs>
     <path d="M 0 3 
C 0.795609 3 1.55874 2.683901 2.12132 2.12132 
C 2.683901 1.55874 3 0.795609 3 0 
C 3 -0.795609 2.683901 -1.55874 2.12132 -2.12132 
C 1.55874 -2.683901 0.795609 -3 0 -3 
C -0.795609 -3 -1.55874 -2.683901 -2.12132 -2.12132 
C -2.683901 -1.55874 -3 -0.795609 -3 0 
C -3 0.795609 -2.683901 1.55874 -2.12132 2.12132 
C -1.55874 2.683901 -0.795609 3 0 3 
z
" id="mab43d5c499" style="stroke:#937860;"/>
    </defs>
    <g clip-path="url(#p0d170520ca)">
     <use style="fill:#937860;stroke:#937860;" x="77.063678" xlink:href="#mab43d5c499" y="284.35834"/>
     <use style="fill:#937860;stroke:#937860;" x="92.250992" xlink:href="#mab43d5c499" y="239.894228"/>
     <use style="fill:#937860;stroke:#937860;" x="107.438306" xlink:href="#mab43d5c499" y="215.705594"/>
     <use style="fill:#937860;stroke:#937860;" x="122.62562" xlink:href="#mab43d5c499" y="215.705594"/>
     <use style="fill:#937860;stroke:#937860;" x="137.812934" xlink:href="#mab43d5c499" y="198.009793"/>
     <use style="fill:#937860;stroke:#937860;" x="153.000248" xlink:href="#mab43d5c499" y="185.462801"/>
     <use style="fill:#937860;stroke:#937860;" x="168.187563" xlink:href="#mab43d5c499" y="145.570789"/>
     <use style="fill:#937860;stroke:#937860;" x="183.374877" xlink:href="#mab43d5c499" y="193.023058"/>
     <use style="fill:#937860;stroke:#937860;" x="198.562191" xlink:href="#mab43d5c499" y="186.90761"/>
     <use style="fill:#937860;stroke:#937860;" x="213.749505" xlink:href="#mab43d5c499" y="100.891856"/>
     <use style="fill:#937860;stroke:#937860;" x="228.936819" xlink:href="#mab43d5c499" y="185.462801"/>
     <use style="fill:#937860;stroke:#937860;" x="244.124133" xlink:href="#mab43d5c499" y="185.821069"/>
     <use style="fill:#937860;stroke:#937860;" x="259.311447" xlink:href="#mab43d5c499" y="182.322439"/>
     <use style="fill:#937860;stroke:#937860;" x="274.498761" xlink:href="#mab43d5c499" y="183.007586"/>
     <use style="fill:#937860;stroke:#937860;" x="289.686075" xlink:href="#mab43d5c499" y="177.397326"/>
     <use style="fill:#937860;stroke:#937860;" x="304.873389" xlink:href="#mab43d5c499" y="181.644284"/>
     <use style="fill:#937860;stroke:#937860;" x="320.060703" xlink:href="#mab43d5c499" y="176.767382"/>
     <use style="fill:#937860;stroke:#937860;" x="335.248017" xlink:href="#mab43d5c499" y="176.454635"/>
     <use style="fill:#937860;stroke:#937860;" x="350.435331" xlink:href="#mab43d5c499" y="177.397326"/>
     <use style="fill:#937860;stroke:#937860;" x="365.622645" xlink:href="#mab43d5c499" y="171.931896"/>
     <use style="fill:#937860;stroke:#937860;" x="380.809959" xlink:href="#mab43d5c499" y="170.205601"/>
     <use style="fill:#937860;stroke:#937860;" x="395.997273" xlink:href="#mab43d5c499" y="169.079157"/>
     <use style="fill:#937860;stroke:#937860;" x="411.184587" xlink:href="#mab43d5c499" y="170.776065"/>
     <use style="fill:#937860;stroke:#937860;" x="426.371901" xlink:href="#mab43d5c499" y="174.00427"/>
    </g>
   </g>
   <g id="line2d_14">
    <path clip-path="url(#p0d170520ca)" d="M 77.063678 272.771055 
L 92.250992 210.299475 
L 107.438306 194.235103 
L 122.62562 175.833522 
L 137.812934 161.687255 
L 153.000248 149.612071 
L 168.187563 111.15318 
L 183.374877 148.373676 
L 198.562191 39.95642 
L 213.749505 106.094716 
L 228.936819 128.391283 
L 244.124133 133.912966 
L 259.311447 130.077752 
L 274.498761 124.853848 
L 289.686075 119.611656 
L 304.873389 117.522412 
L 320.060703 112.569758 
L 335.248017 108.183745 
L 350.435331 61.672858 
L 365.622645 103.54647 
L 380.809959 97.382962 
L 395.997273 97.668397 
L 411.184587 94.86776 
L 426.371901 92.444287 
" style="fill:none;stroke:#da8bc3;stroke-linecap:round;stroke-width:1.5;"/>
    <defs>
     <path d="M 0 3 
C 0.795609 3 1.55874 2.683901 2.12132 2.12132 
C 2.683901 1.55874 3 0.795609 3 0 
C 3 -0.795609 2.683901 -1.55874 2.12132 -2.12132 
C 1.55874 -2.683901 0.795609 -3 0 -3 
C -0.795609 -3 -1.55874 -2.683901 -2.12132 -2.12132 
C -2.683901 -1.55874 -3 -0.795609 -3 0 
C -3 0.795609 -2.683901 1.55874 -2.12132 2.12132 
C -1.55874 2.683901 -0.795609 3 0 3 
z
" id="mb3a5d7665d" style="stroke:#da8bc3;"/>
    </defs>
    <g clip-path="url(#p0d170520ca)">
     <use style="fill:#da8bc3;stroke:#da8bc3;" x="77.063678" xlink:href="#mb3a5d7665d" y="272.771055"/>
     <use style="fill:#da8bc3;stroke:#da8bc3;" x="92.250992" xlink:href="#mb3a5d7665d" y="210.299475"/>
     <use style="fill:#da8bc3;stroke:#da8bc3;" x="107.438306" xlink:href="#mb3a5d7665d" y="194.235103"/>
     <use style="fill:#da8bc3;stroke:#da8bc3;" x="122.62562" xlink:href="#mb3a5d7665d" y="175.833522"/>
     <use style="fill:#da8bc3;stroke:#da8bc3;" x="137.812934" xlink:href="#mb3a5d7665d" y="161.687255"/>
     <use style="fill:#da8bc3;stroke:#da8bc3;" x="153.000248" xlink:href="#mb3a5d7665d" y="149.612071"/>
     <use style="fill:#da8bc3;stroke:#da8bc3;" x="168.187563" xlink:href="#mb3a5d7665d" y="111.15318"/>
     <use style="fill:#da8bc3;stroke:#da8bc3;" x="183.374877" xlink:href="#mb3a5d7665d" y="148.373676"/>
     <use style="fill:#da8bc3;stroke:#da8bc3;" x="198.562191" xlink:href="#mb3a5d7665d" y="39.95642"/>
     <use style="fill:#da8bc3;stroke:#da8bc3;" x="213.749505" xlink:href="#mb3a5d7665d" y="106.094716"/>
     <use style="fill:#da8bc3;stroke:#da8bc3;" x="228.936819" xlink:href="#mb3a5d7665d" y="128.391283"/>
     <use style="fill:#da8bc3;stroke:#da8bc3;" x="244.124133" xlink:href="#mb3a5d7665d" y="133.912966"/>
     <use style="fill:#da8bc3;stroke:#da8bc3;" x="259.311447" xlink:href="#mb3a5d7665d" y="130.077752"/>
     <use style="fill:#da8bc3;stroke:#da8bc3;" x="274.498761" xlink:href="#mb3a5d7665d" y="124.853848"/>
     <use style="fill:#da8bc3;stroke:#da8bc3;" x="289.686075" xlink:href="#mb3a5d7665d" y="119.611656"/>
     <use style="fill:#da8bc3;stroke:#da8bc3;" x="304.873389" xlink:href="#mb3a5d7665d" y="117.522412"/>
     <use style="fill:#da8bc3;stroke:#da8bc3;" x="320.060703" xlink:href="#mb3a5d7665d" y="112.569758"/>
     <use style="fill:#da8bc3;stroke:#da8bc3;" x="335.248017" xlink:href="#mb3a5d7665d" y="108.183745"/>
     <use style="fill:#da8bc3;stroke:#da8bc3;" x="350.435331" xlink:href="#mb3a5d7665d" y="61.672858"/>
     <use style="fill:#da8bc3;stroke:#da8bc3;" x="365.622645" xlink:href="#mb3a5d7665d" y="103.54647"/>
     <use style="fill:#da8bc3;stroke:#da8bc3;" x="380.809959" xlink:href="#mb3a5d7665d" y="97.382962"/>
     <use style="fill:#da8bc3;stroke:#da8bc3;" x="395.997273" xlink:href="#mb3a5d7665d" y="97.668397"/>
     <use style="fill:#da8bc3;stroke:#da8bc3;" x="411.184587" xlink:href="#mb3a5d7665d" y="94.86776"/>
     <use style="fill:#da8bc3;stroke:#da8bc3;" x="426.371901" xlink:href="#mb3a5d7665d" y="92.444287"/>
    </g>
   </g>
   <g id="line2d_15">
    <path clip-path="url(#p0d170520ca)" d="M 77.063678 272.771055 
L 92.250992 211.346089 
L 107.438306 196.305632 
L 122.62562 174.30567 
L 137.812934 173.40554 
L 153.000248 140.115678 
L 168.187563 153.693204 
L 183.374877 149.404063 
L 198.562191 41.086284 
L 213.749505 95.603132 
L 228.936819 136.770035 
L 244.124133 133.095507 
L 259.311447 131.490148 
L 274.498761 125.285867 
L 289.686075 120.951593 
L 304.873389 118.168273 
L 320.060703 114.384028 
L 335.248017 107.51693 
L 350.435331 107.406442 
L 365.622645 104.702301 
L 380.809959 101.495115 
L 395.997273 99.505188 
L 411.184587 97.098748 
L 426.371901 93.510491 
" style="fill:none;stroke:#8c8c8c;stroke-linecap:round;stroke-width:1.5;"/>
    <defs>
     <path d="M 0 3 
C 0.795609 3 1.55874 2.683901 2.12132 2.12132 
C 2.683901 1.55874 3 0.795609 3 0 
C 3 -0.795609 2.683901 -1.55874 2.12132 -2.12132 
C 1.55874 -2.683901 0.795609 -3 0 -3 
C -0.795609 -3 -1.55874 -2.683901 -2.12132 -2.12132 
C -2.683901 -1.55874 -3 -0.795609 -3 0 
C -3 0.795609 -2.683901 1.55874 -2.12132 2.12132 
C -1.55874 2.683901 -0.795609 3 0 3 
z
" id="md77dc735f4" style="stroke:#8c8c8c;"/>
    </defs>
    <g clip-path="url(#p0d170520ca)">
     <use style="fill:#8c8c8c;stroke:#8c8c8c;" x="77.063678" xlink:href="#md77dc735f4" y="272.771055"/>
     <use style="fill:#8c8c8c;stroke:#8c8c8c;" x="92.250992" xlink:href="#md77dc735f4" y="211.346089"/>
     <use style="fill:#8c8c8c;stroke:#8c8c8c;" x="107.438306" xlink:href="#md77dc735f4" y="196.305632"/>
     <use style="fill:#8c8c8c;stroke:#8c8c8c;" x="122.62562" xlink:href="#md77dc735f4" y="174.30567"/>
     <use style="fill:#8c8c8c;stroke:#8c8c8c;" x="137.812934" xlink:href="#md77dc735f4" y="173.40554"/>
     <use style="fill:#8c8c8c;stroke:#8c8c8c;" x="153.000248" xlink:href="#md77dc735f4" y="140.115678"/>
     <use style="fill:#8c8c8c;stroke:#8c8c8c;" x="168.187563" xlink:href="#md77dc735f4" y="153.693204"/>
     <use style="fill:#8c8c8c;stroke:#8c8c8c;" x="183.374877" xlink:href="#md77dc735f4" y="149.404063"/>
     <use style="fill:#8c8c8c;stroke:#8c8c8c;" x="198.562191" xlink:href="#md77dc735f4" y="41.086284"/>
     <use style="fill:#8c8c8c;stroke:#8c8c8c;" x="213.749505" xlink:href="#md77dc735f4" y="95.603132"/>
     <use style="fill:#8c8c8c;stroke:#8c8c8c;" x="228.936819" xlink:href="#md77dc735f4" y="136.770035"/>
     <use style="fill:#8c8c8c;stroke:#8c8c8c;" x="244.124133" xlink:href="#md77dc735f4" y="133.095507"/>
     <use style="fill:#8c8c8c;stroke:#8c8c8c;" x="259.311447" xlink:href="#md77dc735f4" y="131.490148"/>
     <use style="fill:#8c8c8c;stroke:#8c8c8c;" x="274.498761" xlink:href="#md77dc735f4" y="125.285867"/>
     <use style="fill:#8c8c8c;stroke:#8c8c8c;" x="289.686075" xlink:href="#md77dc735f4" y="120.951593"/>
     <use style="fill:#8c8c8c;stroke:#8c8c8c;" x="304.873389" xlink:href="#md77dc735f4" y="118.168273"/>
     <use style="fill:#8c8c8c;stroke:#8c8c8c;" x="320.060703" xlink:href="#md77dc735f4" y="114.384028"/>
     <use style="fill:#8c8c8c;stroke:#8c8c8c;" x="335.248017" xlink:href="#md77dc735f4" y="107.51693"/>
     <use style="fill:#8c8c8c;stroke:#8c8c8c;" x="350.435331" xlink:href="#md77dc735f4" y="107.406442"/>
     <use style="fill:#8c8c8c;stroke:#8c8c8c;" x="365.622645" xlink:href="#md77dc735f4" y="104.702301"/>
     <use style="fill:#8c8c8c;stroke:#8c8c8c;" x="380.809959" xlink:href="#md77dc735f4" y="101.495115"/>
     <use style="fill:#8c8c8c;stroke:#8c8c8c;" x="395.997273" xlink:href="#md77dc735f4" y="99.505188"/>
     <use style="fill:#8c8c8c;stroke:#8c8c8c;" x="411.184587" xlink:href="#md77dc735f4" y="97.098748"/>
     <use style="fill:#8c8c8c;stroke:#8c8c8c;" x="426.371901" xlink:href="#md77dc735f4" y="93.510491"/>
    </g>
   </g>
   <g id="line2d_16">
    <path clip-path="url(#p0d170520ca)" d="M 77.063678 229.418427 
L 92.250992 189.135482 
M 122.62562 174.912603 
M 183.374877 155.946254 
M 304.873389 153.693204 
" style="fill:none;stroke:#ccb974;stroke-linecap:round;stroke-width:1.5;"/>
    <defs>
     <path d="M 0 3 
C 0.795609 3 1.55874 2.683901 2.12132 2.12132 
C 2.683901 1.55874 3 0.795609 3 0 
C 3 -0.795609 2.683901 -1.55874 2.12132 -2.12132 
C 1.55874 -2.683901 0.795609 -3 0 -3 
C -0.795609 -3 -1.55874 -2.683901 -2.12132 -2.12132 
C -2.683901 -1.55874 -3 -0.795609 -3 0 
C -3 0.795609 -2.683901 1.55874 -2.12132 2.12132 
C -1.55874 2.683901 -0.795609 3 0 3 
z
" id="m82c0aa4a6d" style="stroke:#ccb974;"/>
    </defs>
    <g clip-path="url(#p0d170520ca)">
     <use style="fill:#ccb974;stroke:#ccb974;" x="77.063678" xlink:href="#m82c0aa4a6d" y="229.418427"/>
     <use style="fill:#ccb974;stroke:#ccb974;" x="92.250992" xlink:href="#m82c0aa4a6d" y="189.135482"/>
     <use style="fill:#ccb974;stroke:#ccb974;" x="122.62562" xlink:href="#m82c0aa4a6d" y="174.912603"/>
     <use style="fill:#ccb974;stroke:#ccb974;" x="183.374877" xlink:href="#m82c0aa4a6d" y="155.946254"/>
     <use style="fill:#ccb974;stroke:#ccb974;" x="304.873389" xlink:href="#m82c0aa4a6d" y="153.693204"/>
    </g>
   </g>
   <g id="line2d_17">
    <path clip-path="url(#p0d170520ca)" d="M 77.063678 270.164501 
L 92.250992 208.759825 
L 107.438306 193.828627 
L 122.62562 179.650376 
L 137.812934 174.00427 
L 153.000248 147.763026 
L 168.187563 151.3 
L 183.374877 148.373676 
L 198.562191 145.179855 
L 213.749505 137.983133 
L 228.936819 135.242183 
L 244.124133 131.016006 
L 259.311447 129.767921 
L 274.498761 121.768717 
L 289.686075 119.74444 
L 304.873389 114.752902 
L 320.060703 111.15318 
L 335.248017 107.076075 
L 350.435331 98.339217 
L 365.622645 98.050893 
L 380.809959 94.230917 
L 395.997273 97.573115 
L 411.184587 91.481736 
L 426.371901 89.513082 
" style="fill:none;stroke:#64b5cd;stroke-linecap:round;stroke-width:1.5;"/>
    <defs>
     <path d="M 0 3 
C 0.795609 3 1.55874 2.683901 2.12132 2.12132 
C 2.683901 1.55874 3 0.795609 3 0 
C 3 -0.795609 2.683901 -1.55874 2.12132 -2.12132 
C 1.55874 -2.683901 0.795609 -3 0 -3 
C -0.795609 -3 -1.55874 -2.683901 -2.12132 -2.12132 
C -2.683901 -1.55874 -3 -0.795609 -3 0 
C -3 0.795609 -2.683901 1.55874 -2.12132 2.12132 
C -1.55874 2.683901 -0.795609 3 0 3 
z
" id="mae7f845293" style="stroke:#64b5cd;"/>
    </defs>
    <g clip-path="url(#p0d170520ca)">
     <use style="fill:#64b5cd;stroke:#64b5cd;" x="77.063678" xlink:href="#mae7f845293" y="270.164501"/>
     <use style="fill:#64b5cd;stroke:#64b5cd;" x="92.250992" xlink:href="#mae7f845293" y="208.759825"/>
     <use style="fill:#64b5cd;stroke:#64b5cd;" x="107.438306" xlink:href="#mae7f845293" y="193.828627"/>
     <use style="fill:#64b5cd;stroke:#64b5cd;" x="122.62562" xlink:href="#mae7f845293" y="179.650376"/>
     <use style="fill:#64b5cd;stroke:#64b5cd;" x="137.812934" xlink:href="#mae7f845293" y="174.00427"/>
     <use style="fill:#64b5cd;stroke:#64b5cd;" x="153.000248" xlink:href="#mae7f845293" y="147.763026"/>
     <use style="fill:#64b5cd;stroke:#64b5cd;" x="168.187563" xlink:href="#mae7f845293" y="151.3"/>
     <use style="fill:#64b5cd;stroke:#64b5cd;" x="183.374877" xlink:href="#mae7f845293" y="148.373676"/>
     <use style="fill:#64b5cd;stroke:#64b5cd;" x="198.562191" xlink:href="#mae7f845293" y="145.179855"/>
     <use style="fill:#64b5cd;stroke:#64b5cd;" x="213.749505" xlink:href="#mae7f845293" y="137.983133"/>
     <use style="fill:#64b5cd;stroke:#64b5cd;" x="228.936819" xlink:href="#mae7f845293" y="135.242183"/>
     <use style="fill:#64b5cd;stroke:#64b5cd;" x="244.124133" xlink:href="#mae7f845293" y="131.016006"/>
     <use style="fill:#64b5cd;stroke:#64b5cd;" x="259.311447" xlink:href="#mae7f845293" y="129.767921"/>
     <use style="fill:#64b5cd;stroke:#64b5cd;" x="274.498761" xlink:href="#mae7f845293" y="121.768717"/>
     <use style="fill:#64b5cd;stroke:#64b5cd;" x="289.686075" xlink:href="#mae7f845293" y="119.74444"/>
     <use style="fill:#64b5cd;stroke:#64b5cd;" x="304.873389" xlink:href="#mae7f845293" y="114.752902"/>
     <use style="fill:#64b5cd;stroke:#64b5cd;" x="320.060703" xlink:href="#mae7f845293" y="111.15318"/>
     <use style="fill:#64b5cd;stroke:#64b5cd;" x="335.248017" xlink:href="#mae7f845293" y="107.076075"/>
     <use style="fill:#64b5cd;stroke:#64b5cd;" x="350.435331" xlink:href="#mae7f845293" y="98.339217"/>
     <use style="fill:#64b5cd;stroke:#64b5cd;" x="365.622645" xlink:href="#mae7f845293" y="98.050893"/>
     <use style="fill:#64b5cd;stroke:#64b5cd;" x="380.809959" xlink:href="#mae7f845293" y="94.230917"/>
     <use style="fill:#64b5cd;stroke:#64b5cd;" x="395.997273" xlink:href="#mae7f845293" y="97.573115"/>
     <use style="fill:#64b5cd;stroke:#64b5cd;" x="411.184587" xlink:href="#mae7f845293" y="91.481736"/>
     <use style="fill:#64b5cd;stroke:#64b5cd;" x="426.371901" xlink:href="#mae7f845293" y="89.513082"/>
    </g>
   </g>
   <g id="patch_3">
    <path d="M 59.598267 298.26 
L 59.598267 27.65625 
" style="fill:none;stroke:#ffffff;stroke-linecap:square;stroke-linejoin:miter;stroke-width:1.25;"/>
   </g>
   <g id="patch_4">
    <path d="M 443.837312 298.26 
L 443.837312 27.65625 
" style="fill:none;stroke:#ffffff;stroke-linecap:square;stroke-linejoin:miter;stroke-width:1.25;"/>
   </g>
   <g id="patch_5">
    <path d="M 59.598267 298.26 
L 443.837312 298.26 
" style="fill:none;stroke:#ffffff;stroke-linecap:square;stroke-linejoin:miter;stroke-width:1.25;"/>
   </g>
   <g id="patch_6">
    <path d="M 59.598267 27.65625 
L 443.837312 27.65625 
" style="fill:none;stroke:#ffffff;stroke-linecap:square;stroke-linejoin:miter;stroke-width:1.25;"/>
   </g>
   <g id="text_10">
    <!-- Runtime (32 vector size) -->
    <g style="fill:#262626;" transform="translate(186.70029 21.65625)scale(0.12 -0.12)">
     <defs>
      <path d="M 1344 0 
L 81 3319 
L 675 3319 
L 1388 1331 
Q 1503 1009 1600 663 
Q 1675 925 1809 1294 
L 2547 3319 
L 3125 3319 
L 1869 0 
L 1344 0 
z
" id="ArialMT-76" transform="scale(0.015625)"/>
      <path d="M 125 0 
L 125 456 
L 2238 2881 
Q 1878 2863 1603 2863 
L 250 2863 
L 250 3319 
L 2963 3319 
L 2963 2947 
L 1166 841 
L 819 456 
Q 1197 484 1528 484 
L 3063 484 
L 3063 0 
L 125 0 
z
" id="ArialMT-7a" transform="scale(0.015625)"/>
     </defs>
     <use xlink:href="#ArialMT-52"/>
     <use x="72.216797" xlink:href="#ArialMT-75"/>
     <use x="127.832031" xlink:href="#ArialMT-6e"/>
     <use x="183.447266" xlink:href="#ArialMT-74"/>
     <use x="211.230469" xlink:href="#ArialMT-69"/>
     <use x="233.447266" xlink:href="#ArialMT-6d"/>
     <use x="316.748047" xlink:href="#ArialMT-65"/>
     <use x="372.363281" xlink:href="#ArialMT-20"/>
     <use x="400.146484" xlink:href="#ArialMT-28"/>
     <use x="433.447266" xlink:href="#ArialMT-33"/>
     <use x="489.0625" xlink:href="#ArialMT-32"/>
     <use x="544.677734" xlink:href="#ArialMT-20"/>
     <use x="572.460938" xlink:href="#ArialMT-76"/>
     <use x="622.460938" xlink:href="#ArialMT-65"/>
     <use x="678.076172" xlink:href="#ArialMT-63"/>
     <use x="728.076172" xlink:href="#ArialMT-74"/>
     <use x="755.859375" xlink:href="#ArialMT-6f"/>
     <use x="811.474609" xlink:href="#ArialMT-72"/>
     <use x="844.775391" xlink:href="#ArialMT-20"/>
     <use x="872.558594" xlink:href="#ArialMT-73"/>
     <use x="922.558594" xlink:href="#ArialMT-69"/>
     <use x="944.775391" xlink:href="#ArialMT-7a"/>
     <use x="994.775391" xlink:href="#ArialMT-65"/>
     <use x="1050.390625" xlink:href="#ArialMT-29"/>
    </g>
   </g>
   <g id="legend_1">
    <g id="patch_7">
     <path d="M 227.297156 292.76 
L 436.137312 292.76 
Q 438.337312 292.76 438.337312 290.56 
L 438.337312 118.679687 
Q 438.337312 116.479687 436.137312 116.479687 
L 227.297156 116.479687 
Q 225.097156 116.479687 225.097156 118.679687 
L 225.097156 290.56 
Q 225.097156 292.76 227.297156 292.76 
z
" style="fill:#eaeaf2;opacity:0.8;stroke:#cccccc;stroke-linejoin:miter;"/>
    </g>
    <g id="text_11">
     <!-- implementation -->
     <g style="fill:#262626;" transform="translate(291.032547 129.469062)scale(0.12 -0.12)">
      <defs>
       <path d="M 409 0 
L 409 4581 
L 972 4581 
L 972 0 
L 409 0 
z
" id="ArialMT-6c" transform="scale(0.015625)"/>
       <path d="M 2588 409 
Q 2275 144 1986 34 
Q 1697 -75 1366 -75 
Q 819 -75 525 192 
Q 231 459 231 875 
Q 231 1119 342 1320 
Q 453 1522 633 1644 
Q 813 1766 1038 1828 
Q 1203 1872 1538 1913 
Q 2219 1994 2541 2106 
Q 2544 2222 2544 2253 
Q 2544 2597 2384 2738 
Q 2169 2928 1744 2928 
Q 1347 2928 1158 2789 
Q 969 2650 878 2297 
L 328 2372 
Q 403 2725 575 2942 
Q 747 3159 1072 3276 
Q 1397 3394 1825 3394 
Q 2250 3394 2515 3294 
Q 2781 3194 2906 3042 
Q 3031 2891 3081 2659 
Q 3109 2516 3109 2141 
L 3109 1391 
Q 3109 606 3145 398 
Q 3181 191 3288 0 
L 2700 0 
Q 2613 175 2588 409 
z
M 2541 1666 
Q 2234 1541 1622 1453 
Q 1275 1403 1131 1340 
Q 988 1278 909 1158 
Q 831 1038 831 891 
Q 831 666 1001 516 
Q 1172 366 1500 366 
Q 1825 366 2078 508 
Q 2331 650 2450 897 
Q 2541 1088 2541 1459 
L 2541 1666 
z
" id="ArialMT-61" transform="scale(0.015625)"/>
      </defs>
      <use xlink:href="#ArialMT-69"/>
      <use x="22.216797" xlink:href="#ArialMT-6d"/>
      <use x="105.517578" xlink:href="#ArialMT-70"/>
      <use x="161.132812" xlink:href="#ArialMT-6c"/>
      <use x="183.349609" xlink:href="#ArialMT-65"/>
      <use x="238.964844" xlink:href="#ArialMT-6d"/>
      <use x="322.265625" xlink:href="#ArialMT-65"/>
      <use x="377.880859" xlink:href="#ArialMT-6e"/>
      <use x="433.496094" xlink:href="#ArialMT-74"/>
      <use x="461.279297" xlink:href="#ArialMT-61"/>
      <use x="516.894531" xlink:href="#ArialMT-74"/>
      <use x="544.677734" xlink:href="#ArialMT-69"/>
      <use x="566.894531" xlink:href="#ArialMT-6f"/>
      <use x="622.509766" xlink:href="#ArialMT-6e"/>
     </g>
    </g>
    <g id="line2d_18">
     <path d="M 229.497156 141.377656 
L 251.497156 141.377656 
" style="fill:none;stroke:#4c72b0;stroke-linecap:round;stroke-width:1.5;"/>
    </g>
    <g id="line2d_19">
     <g>
      <use style="fill:#4c72b0;stroke:#4c72b0;" x="240.497156" xlink:href="#m400438a8aa" y="141.377656"/>
     </g>
    </g>
    <g id="text_12">
     <!-- allreduce -->
     <g style="fill:#262626;" transform="translate(260.297156 145.227656)scale(0.11 -0.11)">
      <defs>
       <path d="M 2575 0 
L 2575 419 
Q 2259 -75 1647 -75 
Q 1250 -75 917 144 
Q 584 363 401 755 
Q 219 1147 219 1656 
Q 219 2153 384 2558 
Q 550 2963 881 3178 
Q 1213 3394 1622 3394 
Q 1922 3394 2156 3267 
Q 2391 3141 2538 2938 
L 2538 4581 
L 3097 4581 
L 3097 0 
L 2575 0 
z
M 797 1656 
Q 797 1019 1065 703 
Q 1334 388 1700 388 
Q 2069 388 2326 689 
Q 2584 991 2584 1609 
Q 2584 2291 2321 2609 
Q 2059 2928 1675 2928 
Q 1300 2928 1048 2622 
Q 797 2316 797 1656 
z
" id="ArialMT-64" transform="scale(0.015625)"/>
      </defs>
      <use xlink:href="#ArialMT-61"/>
      <use x="55.615234" xlink:href="#ArialMT-6c"/>
      <use x="77.832031" xlink:href="#ArialMT-6c"/>
      <use x="100.048828" xlink:href="#ArialMT-72"/>
      <use x="133.349609" xlink:href="#ArialMT-65"/>
      <use x="188.964844" xlink:href="#ArialMT-64"/>
      <use x="244.580078" xlink:href="#ArialMT-75"/>
      <use x="300.195312" xlink:href="#ArialMT-63"/>
      <use x="350.195312" xlink:href="#ArialMT-65"/>
     </g>
    </g>
    <g id="line2d_20">
     <path d="M 229.497156 157.071562 
L 251.497156 157.071562 
" style="fill:none;stroke:#dd8452;stroke-linecap:round;stroke-width:1.5;"/>
    </g>
    <g id="line2d_21">
     <g>
      <use style="fill:#dd8452;stroke:#dd8452;" x="240.497156" xlink:href="#ma973171eaa" y="157.071562"/>
     </g>
    </g>
    <g id="text_13">
     <!-- allreduce-butterfly -->
     <g style="fill:#262626;" transform="translate(260.297156 160.921562)scale(0.11 -0.11)">
      <defs>
       <path d="M 203 1375 
L 203 1941 
L 1931 1941 
L 1931 1375 
L 203 1375 
z
" id="ArialMT-2d" transform="scale(0.015625)"/>
       <path d="M 397 -1278 
L 334 -750 
Q 519 -800 656 -800 
Q 844 -800 956 -737 
Q 1069 -675 1141 -563 
Q 1194 -478 1313 -144 
Q 1328 -97 1363 -6 
L 103 3319 
L 709 3319 
L 1400 1397 
Q 1534 1031 1641 628 
Q 1738 1016 1872 1384 
L 2581 3319 
L 3144 3319 
L 1881 -56 
Q 1678 -603 1566 -809 
Q 1416 -1088 1222 -1217 
Q 1028 -1347 759 -1347 
Q 597 -1347 397 -1278 
z
" id="ArialMT-79" transform="scale(0.015625)"/>
      </defs>
      <use xlink:href="#ArialMT-61"/>
      <use x="55.615234" xlink:href="#ArialMT-6c"/>
      <use x="77.832031" xlink:href="#ArialMT-6c"/>
      <use x="100.048828" xlink:href="#ArialMT-72"/>
      <use x="133.349609" xlink:href="#ArialMT-65"/>
      <use x="188.964844" xlink:href="#ArialMT-64"/>
      <use x="244.580078" xlink:href="#ArialMT-75"/>
      <use x="300.195312" xlink:href="#ArialMT-63"/>
      <use x="350.195312" xlink:href="#ArialMT-65"/>
      <use x="405.810547" xlink:href="#ArialMT-2d"/>
      <use x="439.111328" xlink:href="#ArialMT-62"/>
      <use x="494.726562" xlink:href="#ArialMT-75"/>
      <use x="550.341797" xlink:href="#ArialMT-74"/>
      <use x="578.125" xlink:href="#ArialMT-74"/>
      <use x="605.908203" xlink:href="#ArialMT-65"/>
      <use x="661.523438" xlink:href="#ArialMT-72"/>
      <use x="694.824219" xlink:href="#ArialMT-66"/>
      <use x="722.607422" xlink:href="#ArialMT-6c"/>
      <use x="744.824219" xlink:href="#ArialMT-79"/>
     </g>
    </g>
    <g id="line2d_22">
     <path d="M 229.497156 172.760312 
L 251.497156 172.760312 
" style="fill:none;stroke:#55a868;stroke-linecap:round;stroke-width:1.5;"/>
    </g>
    <g id="line2d_23">
     <g>
      <use style="fill:#55a868;stroke:#55a868;" x="240.497156" xlink:href="#mb51cc81f54" y="172.760312"/>
     </g>
    </g>
    <g id="text_14">
     <!-- allreduce-native-basic_linear -->
     <g style="fill:#262626;" transform="translate(260.297156 176.610312)scale(0.11 -0.11)">
      <defs>
       <path d="M -97 -1272 
L -97 -866 
L 3631 -866 
L 3631 -1272 
L -97 -1272 
z
" id="ArialMT-5f" transform="scale(0.015625)"/>
      </defs>
      <use xlink:href="#ArialMT-61"/>
      <use x="55.615234" xlink:href="#ArialMT-6c"/>
      <use x="77.832031" xlink:href="#ArialMT-6c"/>
      <use x="100.048828" xlink:href="#ArialMT-72"/>
      <use x="133.349609" xlink:href="#ArialMT-65"/>
      <use x="188.964844" xlink:href="#ArialMT-64"/>
      <use x="244.580078" xlink:href="#ArialMT-75"/>
      <use x="300.195312" xlink:href="#ArialMT-63"/>
      <use x="350.195312" xlink:href="#ArialMT-65"/>
      <use x="405.810547" xlink:href="#ArialMT-2d"/>
      <use x="439.111328" xlink:href="#ArialMT-6e"/>
      <use x="494.726562" xlink:href="#ArialMT-61"/>
      <use x="550.341797" xlink:href="#ArialMT-74"/>
      <use x="578.125" xlink:href="#ArialMT-69"/>
      <use x="600.341797" xlink:href="#ArialMT-76"/>
      <use x="650.341797" xlink:href="#ArialMT-65"/>
      <use x="705.957031" xlink:href="#ArialMT-2d"/>
      <use x="739.257812" xlink:href="#ArialMT-62"/>
      <use x="794.873047" xlink:href="#ArialMT-61"/>
      <use x="850.488281" xlink:href="#ArialMT-73"/>
      <use x="900.488281" xlink:href="#ArialMT-69"/>
      <use x="922.705078" xlink:href="#ArialMT-63"/>
      <use x="972.705078" xlink:href="#ArialMT-5f"/>
      <use x="1028.320312" xlink:href="#ArialMT-6c"/>
      <use x="1050.537109" xlink:href="#ArialMT-69"/>
      <use x="1072.753906" xlink:href="#ArialMT-6e"/>
      <use x="1128.369141" xlink:href="#ArialMT-65"/>
      <use x="1183.984375" xlink:href="#ArialMT-61"/>
      <use x="1239.599609" xlink:href="#ArialMT-72"/>
     </g>
    </g>
    <g id="line2d_24">
     <path d="M 229.497156 188.320156 
L 251.497156 188.320156 
" style="fill:none;stroke:#c44e52;stroke-linecap:round;stroke-width:1.5;"/>
    </g>
    <g id="line2d_25">
     <g>
      <use style="fill:#c44e52;stroke:#c44e52;" x="240.497156" xlink:href="#m04a8202fc0" y="188.320156"/>
     </g>
    </g>
    <g id="text_15">
     <!-- allreduce-native-nonoverlapping -->
     <g style="fill:#262626;" transform="translate(260.297156 192.170156)scale(0.11 -0.11)">
      <defs>
       <path d="M 319 -275 
L 866 -356 
Q 900 -609 1056 -725 
Q 1266 -881 1628 -881 
Q 2019 -881 2231 -725 
Q 2444 -569 2519 -288 
Q 2563 -116 2559 434 
Q 2191 0 1641 0 
Q 956 0 581 494 
Q 206 988 206 1678 
Q 206 2153 378 2554 
Q 550 2956 876 3175 
Q 1203 3394 1644 3394 
Q 2231 3394 2613 2919 
L 2613 3319 
L 3131 3319 
L 3131 450 
Q 3131 -325 2973 -648 
Q 2816 -972 2473 -1159 
Q 2131 -1347 1631 -1347 
Q 1038 -1347 672 -1080 
Q 306 -813 319 -275 
z
M 784 1719 
Q 784 1066 1043 766 
Q 1303 466 1694 466 
Q 2081 466 2343 764 
Q 2606 1063 2606 1700 
Q 2606 2309 2336 2618 
Q 2066 2928 1684 2928 
Q 1309 2928 1046 2623 
Q 784 2319 784 1719 
z
" id="ArialMT-67" transform="scale(0.015625)"/>
      </defs>
      <use xlink:href="#ArialMT-61"/>
      <use x="55.615234" xlink:href="#ArialMT-6c"/>
      <use x="77.832031" xlink:href="#ArialMT-6c"/>
      <use x="100.048828" xlink:href="#ArialMT-72"/>
      <use x="133.349609" xlink:href="#ArialMT-65"/>
      <use x="188.964844" xlink:href="#ArialMT-64"/>
      <use x="244.580078" xlink:href="#ArialMT-75"/>
      <use x="300.195312" xlink:href="#ArialMT-63"/>
      <use x="350.195312" xlink:href="#ArialMT-65"/>
      <use x="405.810547" xlink:href="#ArialMT-2d"/>
      <use x="439.111328" xlink:href="#ArialMT-6e"/>
      <use x="494.726562" xlink:href="#ArialMT-61"/>
      <use x="550.341797" xlink:href="#ArialMT-74"/>
      <use x="578.125" xlink:href="#ArialMT-69"/>
      <use x="600.341797" xlink:href="#ArialMT-76"/>
      <use x="650.341797" xlink:href="#ArialMT-65"/>
      <use x="705.957031" xlink:href="#ArialMT-2d"/>
      <use x="739.257812" xlink:href="#ArialMT-6e"/>
      <use x="794.873047" xlink:href="#ArialMT-6f"/>
      <use x="850.488281" xlink:href="#ArialMT-6e"/>
      <use x="906.103516" xlink:href="#ArialMT-6f"/>
      <use x="961.71875" xlink:href="#ArialMT-76"/>
      <use x="1011.71875" xlink:href="#ArialMT-65"/>
      <use x="1067.333984" xlink:href="#ArialMT-72"/>
      <use x="1100.634766" xlink:href="#ArialMT-6c"/>
      <use x="1122.851562" xlink:href="#ArialMT-61"/>
      <use x="1178.466797" xlink:href="#ArialMT-70"/>
      <use x="1234.082031" xlink:href="#ArialMT-70"/>
      <use x="1289.697266" xlink:href="#ArialMT-69"/>
      <use x="1311.914062" xlink:href="#ArialMT-6e"/>
      <use x="1367.529297" xlink:href="#ArialMT-67"/>
     </g>
    </g>
    <g id="line2d_26">
     <path d="M 229.497156 204.008906 
L 251.497156 204.008906 
" style="fill:none;stroke:#8172b3;stroke-linecap:round;stroke-width:1.5;"/>
    </g>
    <g id="line2d_27">
     <g>
      <use style="fill:#8172b3;stroke:#8172b3;" x="240.497156" xlink:href="#m8893a940b7" y="204.008906"/>
     </g>
    </g>
    <g id="text_16">
     <!-- allreduce-native-rabenseifner -->
     <g style="fill:#262626;" transform="translate(260.297156 207.858906)scale(0.11 -0.11)">
      <use xlink:href="#ArialMT-61"/>
      <use x="55.615234" xlink:href="#ArialMT-6c"/>
      <use x="77.832031" xlink:href="#ArialMT-6c"/>
      <use x="100.048828" xlink:href="#ArialMT-72"/>
      <use x="133.349609" xlink:href="#ArialMT-65"/>
      <use x="188.964844" xlink:href="#ArialMT-64"/>
      <use x="244.580078" xlink:href="#ArialMT-75"/>
      <use x="300.195312" xlink:href="#ArialMT-63"/>
      <use x="350.195312" xlink:href="#ArialMT-65"/>
      <use x="405.810547" xlink:href="#ArialMT-2d"/>
      <use x="439.111328" xlink:href="#ArialMT-6e"/>
      <use x="494.726562" xlink:href="#ArialMT-61"/>
      <use x="550.341797" xlink:href="#ArialMT-74"/>
      <use x="578.125" xlink:href="#ArialMT-69"/>
      <use x="600.341797" xlink:href="#ArialMT-76"/>
      <use x="650.341797" xlink:href="#ArialMT-65"/>
      <use x="705.957031" xlink:href="#ArialMT-2d"/>
      <use x="739.257812" xlink:href="#ArialMT-72"/>
      <use x="772.558594" xlink:href="#ArialMT-61"/>
      <use x="828.173828" xlink:href="#ArialMT-62"/>
      <use x="883.789062" xlink:href="#ArialMT-65"/>
      <use x="939.404297" xlink:href="#ArialMT-6e"/>
      <use x="995.019531" xlink:href="#ArialMT-73"/>
      <use x="1045.019531" xlink:href="#ArialMT-65"/>
      <use x="1100.634766" xlink:href="#ArialMT-69"/>
      <use x="1122.851562" xlink:href="#ArialMT-66"/>
      <use x="1150.634766" xlink:href="#ArialMT-6e"/>
      <use x="1206.25" xlink:href="#ArialMT-65"/>
      <use x="1261.865234" xlink:href="#ArialMT-72"/>
     </g>
    </g>
    <g id="line2d_28">
     <path d="M 229.497156 219.56875 
L 251.497156 219.56875 
" style="fill:none;stroke:#937860;stroke-linecap:round;stroke-width:1.5;"/>
    </g>
    <g id="line2d_29">
     <g>
      <use style="fill:#937860;stroke:#937860;" x="240.497156" xlink:href="#mab43d5c499" y="219.56875"/>
     </g>
    </g>
    <g id="text_17">
     <!-- allreduce-native-recursive_doubling -->
     <g style="fill:#262626;" transform="translate(260.297156 223.41875)scale(0.11 -0.11)">
      <use xlink:href="#ArialMT-61"/>
      <use x="55.615234" xlink:href="#ArialMT-6c"/>
      <use x="77.832031" xlink:href="#ArialMT-6c"/>
      <use x="100.048828" xlink:href="#ArialMT-72"/>
      <use x="133.349609" xlink:href="#ArialMT-65"/>
      <use x="188.964844" xlink:href="#ArialMT-64"/>
      <use x="244.580078" xlink:href="#ArialMT-75"/>
      <use x="300.195312" xlink:href="#ArialMT-63"/>
      <use x="350.195312" xlink:href="#ArialMT-65"/>
      <use x="405.810547" xlink:href="#ArialMT-2d"/>
      <use x="439.111328" xlink:href="#ArialMT-6e"/>
      <use x="494.726562" xlink:href="#ArialMT-61"/>
      <use x="550.341797" xlink:href="#ArialMT-74"/>
      <use x="578.125" xlink:href="#ArialMT-69"/>
      <use x="600.341797" xlink:href="#ArialMT-76"/>
      <use x="650.341797" xlink:href="#ArialMT-65"/>
      <use x="705.957031" xlink:href="#ArialMT-2d"/>
      <use x="739.257812" xlink:href="#ArialMT-72"/>
      <use x="772.558594" xlink:href="#ArialMT-65"/>
      <use x="828.173828" xlink:href="#ArialMT-63"/>
      <use x="878.173828" xlink:href="#ArialMT-75"/>
      <use x="933.789062" xlink:href="#ArialMT-72"/>
      <use x="967.089844" xlink:href="#ArialMT-73"/>
      <use x="1017.089844" xlink:href="#ArialMT-69"/>
      <use x="1039.306641" xlink:href="#ArialMT-76"/>
      <use x="1089.306641" xlink:href="#ArialMT-65"/>
      <use x="1144.921875" xlink:href="#ArialMT-5f"/>
      <use x="1200.537109" xlink:href="#ArialMT-64"/>
      <use x="1256.152344" xlink:href="#ArialMT-6f"/>
      <use x="1311.767578" xlink:href="#ArialMT-75"/>
      <use x="1367.382812" xlink:href="#ArialMT-62"/>
      <use x="1422.998047" xlink:href="#ArialMT-6c"/>
      <use x="1445.214844" xlink:href="#ArialMT-69"/>
      <use x="1467.431641" xlink:href="#ArialMT-6e"/>
      <use x="1523.046875" xlink:href="#ArialMT-67"/>
     </g>
    </g>
    <g id="line2d_30">
     <path d="M 229.497156 235.2575 
L 251.497156 235.2575 
" style="fill:none;stroke:#da8bc3;stroke-linecap:round;stroke-width:1.5;"/>
    </g>
    <g id="line2d_31">
     <g>
      <use style="fill:#da8bc3;stroke:#da8bc3;" x="240.497156" xlink:href="#mb3a5d7665d" y="235.2575"/>
     </g>
    </g>
    <g id="text_18">
     <!-- allreduce-native-ring -->
     <g style="fill:#262626;" transform="translate(260.297156 239.1075)scale(0.11 -0.11)">
      <use xlink:href="#ArialMT-61"/>
      <use x="55.615234" xlink:href="#ArialMT-6c"/>
      <use x="77.832031" xlink:href="#ArialMT-6c"/>
      <use x="100.048828" xlink:href="#ArialMT-72"/>
      <use x="133.349609" xlink:href="#ArialMT-65"/>
      <use x="188.964844" xlink:href="#ArialMT-64"/>
      <use x="244.580078" xlink:href="#ArialMT-75"/>
      <use x="300.195312" xlink:href="#ArialMT-63"/>
      <use x="350.195312" xlink:href="#ArialMT-65"/>
      <use x="405.810547" xlink:href="#ArialMT-2d"/>
      <use x="439.111328" xlink:href="#ArialMT-6e"/>
      <use x="494.726562" xlink:href="#ArialMT-61"/>
      <use x="550.341797" xlink:href="#ArialMT-74"/>
      <use x="578.125" xlink:href="#ArialMT-69"/>
      <use x="600.341797" xlink:href="#ArialMT-76"/>
      <use x="650.341797" xlink:href="#ArialMT-65"/>
      <use x="705.957031" xlink:href="#ArialMT-2d"/>
      <use x="739.257812" xlink:href="#ArialMT-72"/>
      <use x="772.558594" xlink:href="#ArialMT-69"/>
      <use x="794.775391" xlink:href="#ArialMT-6e"/>
      <use x="850.390625" xlink:href="#ArialMT-67"/>
     </g>
    </g>
    <g id="line2d_32">
     <path d="M 229.497156 250.94625 
L 251.497156 250.94625 
" style="fill:none;stroke:#8c8c8c;stroke-linecap:round;stroke-width:1.5;"/>
    </g>
    <g id="line2d_33">
     <g>
      <use style="fill:#8c8c8c;stroke:#8c8c8c;" x="240.497156" xlink:href="#md77dc735f4" y="250.94625"/>
     </g>
    </g>
    <g id="text_19">
     <!-- allreduce-native-segmented_ring -->
     <g style="fill:#262626;" transform="translate(260.297156 254.79625)scale(0.11 -0.11)">
      <use xlink:href="#ArialMT-61"/>
      <use x="55.615234" xlink:href="#ArialMT-6c"/>
      <use x="77.832031" xlink:href="#ArialMT-6c"/>
      <use x="100.048828" xlink:href="#ArialMT-72"/>
      <use x="133.349609" xlink:href="#ArialMT-65"/>
      <use x="188.964844" xlink:href="#ArialMT-64"/>
      <use x="244.580078" xlink:href="#ArialMT-75"/>
      <use x="300.195312" xlink:href="#ArialMT-63"/>
      <use x="350.195312" xlink:href="#ArialMT-65"/>
      <use x="405.810547" xlink:href="#ArialMT-2d"/>
      <use x="439.111328" xlink:href="#ArialMT-6e"/>
      <use x="494.726562" xlink:href="#ArialMT-61"/>
      <use x="550.341797" xlink:href="#ArialMT-74"/>
      <use x="578.125" xlink:href="#ArialMT-69"/>
      <use x="600.341797" xlink:href="#ArialMT-76"/>
      <use x="650.341797" xlink:href="#ArialMT-65"/>
      <use x="705.957031" xlink:href="#ArialMT-2d"/>
      <use x="739.257812" xlink:href="#ArialMT-73"/>
      <use x="789.257812" xlink:href="#ArialMT-65"/>
      <use x="844.873047" xlink:href="#ArialMT-67"/>
      <use x="900.488281" xlink:href="#ArialMT-6d"/>
      <use x="983.789062" xlink:href="#ArialMT-65"/>
      <use x="1039.404297" xlink:href="#ArialMT-6e"/>
      <use x="1095.019531" xlink:href="#ArialMT-74"/>
      <use x="1122.802734" xlink:href="#ArialMT-65"/>
      <use x="1178.417969" xlink:href="#ArialMT-64"/>
      <use x="1234.033203" xlink:href="#ArialMT-5f"/>
      <use x="1289.648438" xlink:href="#ArialMT-72"/>
      <use x="1322.949219" xlink:href="#ArialMT-69"/>
      <use x="1345.166016" xlink:href="#ArialMT-6e"/>
      <use x="1400.78125" xlink:href="#ArialMT-67"/>
     </g>
    </g>
    <g id="line2d_34">
     <path d="M 229.497156 266.635 
L 251.497156 266.635 
" style="fill:none;stroke:#ccb974;stroke-linecap:round;stroke-width:1.5;"/>
    </g>
    <g id="line2d_35">
     <g>
      <use style="fill:#ccb974;stroke:#ccb974;" x="240.497156" xlink:href="#m82c0aa4a6d" y="266.635"/>
     </g>
    </g>
    <g id="text_20">
     <!-- allreduce-rabenseifner -->
     <g style="fill:#262626;" transform="translate(260.297156 270.485)scale(0.11 -0.11)">
      <use xlink:href="#ArialMT-61"/>
      <use x="55.615234" xlink:href="#ArialMT-6c"/>
      <use x="77.832031" xlink:href="#ArialMT-6c"/>
      <use x="100.048828" xlink:href="#ArialMT-72"/>
      <use x="133.349609" xlink:href="#ArialMT-65"/>
      <use x="188.964844" xlink:href="#ArialMT-64"/>
      <use x="244.580078" xlink:href="#ArialMT-75"/>
      <use x="300.195312" xlink:href="#ArialMT-63"/>
      <use x="350.195312" xlink:href="#ArialMT-65"/>
      <use x="405.810547" xlink:href="#ArialMT-2d"/>
      <use x="439.111328" xlink:href="#ArialMT-72"/>
      <use x="472.412109" xlink:href="#ArialMT-61"/>
      <use x="528.027344" xlink:href="#ArialMT-62"/>
      <use x="583.642578" xlink:href="#ArialMT-65"/>
      <use x="639.257812" xlink:href="#ArialMT-6e"/>
      <use x="694.873047" xlink:href="#ArialMT-73"/>
      <use x="744.873047" xlink:href="#ArialMT-65"/>
      <use x="800.488281" xlink:href="#ArialMT-69"/>
      <use x="822.705078" xlink:href="#ArialMT-66"/>
      <use x="850.488281" xlink:href="#ArialMT-6e"/>
      <use x="906.103516" xlink:href="#ArialMT-65"/>
      <use x="961.71875" xlink:href="#ArialMT-72"/>
     </g>
    </g>
    <g id="line2d_36">
     <path d="M 229.497156 282.194844 
L 251.497156 282.194844 
" style="fill:none;stroke:#64b5cd;stroke-linecap:round;stroke-width:1.5;"/>
    </g>
    <g id="line2d_37">
     <g>
      <use style="fill:#64b5cd;stroke:#64b5cd;" x="240.497156" xlink:href="#mae7f845293" y="282.194844"/>
     </g>
    </g>
    <g id="text_21">
     <!-- allreduce-ring -->
     <g style="fill:#262626;" transform="translate(260.297156 286.044844)scale(0.11 -0.11)">
      <use xlink:href="#ArialMT-61"/>
      <use x="55.615234" xlink:href="#ArialMT-6c"/>
      <use x="77.832031" xlink:href="#ArialMT-6c"/>
      <use x="100.048828" xlink:href="#ArialMT-72"/>
      <use x="133.349609" xlink:href="#ArialMT-65"/>
      <use x="188.964844" xlink:href="#ArialMT-64"/>
      <use x="244.580078" xlink:href="#ArialMT-75"/>
      <use x="300.195312" xlink:href="#ArialMT-63"/>
      <use x="350.195312" xlink:href="#ArialMT-65"/>
      <use x="405.810547" xlink:href="#ArialMT-2d"/>
      <use x="439.111328" xlink:href="#ArialMT-72"/>
      <use x="472.412109" xlink:href="#ArialMT-69"/>
      <use x="494.628906" xlink:href="#ArialMT-6e"/>
      <use x="550.244141" xlink:href="#ArialMT-67"/>
     </g>
    </g>
   </g>
  </g>
 </g>
 <defs>
  <clipPath id="p0d170520ca">
   <rect height="270.60375" width="384.239045" x="59.598267" y="27.65625"/>
  </clipPath>
 </defs>
</svg>
