<?xml version="1.0" encoding="utf-8" standalone="no"?>
<!DOCTYPE svg PUBLIC "-//W3C//DTD SVG 1.1//EN"
  "http://www.w3.org/Graphics/SVG/1.1/DTD/svg11.dtd">
<svg height="345.6pt" version="1.1" viewBox="0 0 460.8 345.6" width="460.8pt" xmlns="http://www.w3.org/2000/svg" xmlns:xlink="http://www.w3.org/1999/xlink">
 <metadata>
  <rdf:RDF xmlns:cc="http://creativecommons.org/ns#" xmlns:dc="http://purl.org/dc/elements/1.1/" xmlns:rdf="http://www.w3.org/1999/02/22-rdf-syntax-ns#">
   <cc:Work>
    <dc:type rdf:resource="http://purl.org/dc/dcmitype/StillImage"/>
    <dc:date>2021-11-20T20:49:41.827399</dc:date>
    <dc:format>image/svg+xml</dc:format>
    <dc:creator>
     <cc:Agent>
      <dc:title>Matplotlib v3.4.3, https://matplotlib.org/</dc:title>
     </cc:Agent>
    </dc:creator>
   </cc:Work>
  </rdf:RDF>
 </metadata>
 <defs>
  <style type="text/css">*{stroke-linecap:butt;stroke-linejoin:round;}</style>
 </defs>
 <g id="figure_1">
  <g id="patch_1">
   <path d="M 0 345.6 
L 460.8 345.6 
L 460.8 0 
L 0 0 
z
" style="fill:#ffffff;"/>
  </g>
  <g id="axes_1">
   <g id="patch_2">
    <path d="M 59.497017 298.26 
L 443.837312 298.26 
L 443.837312 27.65625 
L 59.497017 27.65625 
z
" style="fill:#eaeaf2;"/>
   </g>
   <g id="matplotlib.axis_1">
    <g id="xtick_1">
     <g id="line2d_1">
      <path clip-path="url(#pc5510c1ae8)" d="M 61.775715 298.26 
L 61.775715 27.65625 
" style="fill:none;stroke:#ffffff;stroke-linecap:round;"/>
     </g>
     <g id="text_1">
      <!-- 0 -->
      <g style="fill:#262626;" transform="translate(58.717199 315.633594)scale(0.11 -0.11)">
       <defs>
        <path d="M 266 2259 
Q 266 3072 433 3567 
Q 600 4063 929 4331 
Q 1259 4600 1759 4600 
Q 2128 4600 2406 4451 
Q 2684 4303 2865 4023 
Q 3047 3744 3150 3342 
Q 3253 2941 3253 2259 
Q 3253 1453 3087 958 
Q 2922 463 2592 192 
Q 2263 -78 1759 -78 
Q 1097 -78 719 397 
Q 266 969 266 2259 
z
M 844 2259 
Q 844 1131 1108 757 
Q 1372 384 1759 384 
Q 2147 384 2411 759 
Q 2675 1134 2675 2259 
Q 2675 3391 2411 3762 
Q 2147 4134 1753 4134 
Q 1366 4134 1134 3806 
Q 844 3388 844 2259 
z
" id="ArialMT-30" transform="scale(0.015625)"/>
       </defs>
       <use xlink:href="#ArialMT-30"/>
      </g>
     </g>
    </g>
    <g id="xtick_2">
     <g id="line2d_2">
      <path clip-path="url(#pc5510c1ae8)" d="M 137.732295 298.26 
L 137.732295 27.65625 
" style="fill:none;stroke:#ffffff;stroke-linecap:round;"/>
     </g>
     <g id="text_2">
      <!-- 10 -->
      <g style="fill:#262626;" transform="translate(131.615263 315.633594)scale(0.11 -0.11)">
       <defs>
        <path d="M 2384 0 
L 1822 0 
L 1822 3584 
Q 1619 3391 1289 3197 
Q 959 3003 697 2906 
L 697 3450 
Q 1169 3672 1522 3987 
Q 1875 4303 2022 4600 
L 2384 4600 
L 2384 0 
z
" id="ArialMT-31" transform="scale(0.015625)"/>
       </defs>
       <use xlink:href="#ArialMT-31"/>
       <use x="55.615234" xlink:href="#ArialMT-30"/>
      </g>
     </g>
    </g>
    <g id="xtick_3">
     <g id="line2d_3">
      <path clip-path="url(#pc5510c1ae8)" d="M 213.688875 298.26 
L 213.688875 27.65625 
" style="fill:none;stroke:#ffffff;stroke-linecap:round;"/>
     </g>
     <g id="text_3">
      <!-- 20 -->
      <g style="fill:#262626;" transform="translate(207.571843 315.633594)scale(0.11 -0.11)">
       <defs>
        <path d="M 3222 541 
L 3222 0 
L 194 0 
Q 188 203 259 391 
Q 375 700 629 1000 
Q 884 1300 1366 1694 
Q 2113 2306 2375 2664 
Q 2638 3022 2638 3341 
Q 2638 3675 2398 3904 
Q 2159 4134 1775 4134 
Q 1369 4134 1125 3890 
Q 881 3647 878 3216 
L 300 3275 
Q 359 3922 746 4261 
Q 1134 4600 1788 4600 
Q 2447 4600 2831 4234 
Q 3216 3869 3216 3328 
Q 3216 3053 3103 2787 
Q 2991 2522 2730 2228 
Q 2469 1934 1863 1422 
Q 1356 997 1212 845 
Q 1069 694 975 541 
L 3222 541 
z
" id="ArialMT-32" transform="scale(0.015625)"/>
       </defs>
       <use xlink:href="#ArialMT-32"/>
       <use x="55.615234" xlink:href="#ArialMT-30"/>
      </g>
     </g>
    </g>
    <g id="xtick_4">
     <g id="line2d_4">
      <path clip-path="url(#pc5510c1ae8)" d="M 289.645455 298.26 
L 289.645455 27.65625 
" style="fill:none;stroke:#ffffff;stroke-linecap:round;"/>
     </g>
     <g id="text_4">
      <!-- 30 -->
      <g style="fill:#262626;" transform="translate(283.528423 315.633594)scale(0.11 -0.11)">
       <defs>
        <path d="M 269 1209 
L 831 1284 
Q 928 806 1161 595 
Q 1394 384 1728 384 
Q 2125 384 2398 659 
Q 2672 934 2672 1341 
Q 2672 1728 2419 1979 
Q 2166 2231 1775 2231 
Q 1616 2231 1378 2169 
L 1441 2663 
Q 1497 2656 1531 2656 
Q 1891 2656 2178 2843 
Q 2466 3031 2466 3422 
Q 2466 3731 2256 3934 
Q 2047 4138 1716 4138 
Q 1388 4138 1169 3931 
Q 950 3725 888 3313 
L 325 3413 
Q 428 3978 793 4289 
Q 1159 4600 1703 4600 
Q 2078 4600 2393 4439 
Q 2709 4278 2876 4000 
Q 3044 3722 3044 3409 
Q 3044 3113 2884 2869 
Q 2725 2625 2413 2481 
Q 2819 2388 3044 2092 
Q 3269 1797 3269 1353 
Q 3269 753 2831 336 
Q 2394 -81 1725 -81 
Q 1122 -81 723 278 
Q 325 638 269 1209 
z
" id="ArialMT-33" transform="scale(0.015625)"/>
       </defs>
       <use xlink:href="#ArialMT-33"/>
       <use x="55.615234" xlink:href="#ArialMT-30"/>
      </g>
     </g>
    </g>
    <g id="xtick_5">
     <g id="line2d_5">
      <path clip-path="url(#pc5510c1ae8)" d="M 365.602035 298.26 
L 365.602035 27.65625 
" style="fill:none;stroke:#ffffff;stroke-linecap:round;"/>
     </g>
     <g id="text_5">
      <!-- 40 -->
      <g style="fill:#262626;" transform="translate(359.485004 315.633594)scale(0.11 -0.11)">
       <defs>
        <path d="M 2069 0 
L 2069 1097 
L 81 1097 
L 81 1613 
L 2172 4581 
L 2631 4581 
L 2631 1613 
L 3250 1613 
L 3250 1097 
L 2631 1097 
L 2631 0 
L 2069 0 
z
M 2069 1613 
L 2069 3678 
L 634 1613 
L 2069 1613 
z
" id="ArialMT-34" transform="scale(0.015625)"/>
       </defs>
       <use xlink:href="#ArialMT-34"/>
       <use x="55.615234" xlink:href="#ArialMT-30"/>
      </g>
     </g>
    </g>
    <g id="xtick_6">
     <g id="line2d_6">
      <path clip-path="url(#pc5510c1ae8)" d="M 441.558615 298.26 
L 441.558615 27.65625 
" style="fill:none;stroke:#ffffff;stroke-linecap:round;"/>
     </g>
     <g id="text_6">
      <!-- 50 -->
      <g style="fill:#262626;" transform="translate(435.441584 315.633594)scale(0.11 -0.11)">
       <defs>
        <path d="M 266 1200 
L 856 1250 
Q 922 819 1161 601 
Q 1400 384 1738 384 
Q 2144 384 2425 690 
Q 2706 997 2706 1503 
Q 2706 1984 2436 2262 
Q 2166 2541 1728 2541 
Q 1456 2541 1237 2417 
Q 1019 2294 894 2097 
L 366 2166 
L 809 4519 
L 3088 4519 
L 3088 3981 
L 1259 3981 
L 1013 2750 
Q 1425 3038 1878 3038 
Q 2478 3038 2890 2622 
Q 3303 2206 3303 1553 
Q 3303 931 2941 478 
Q 2500 -78 1738 -78 
Q 1113 -78 717 272 
Q 322 622 266 1200 
z
" id="ArialMT-35" transform="scale(0.015625)"/>
       </defs>
       <use xlink:href="#ArialMT-35"/>
       <use x="55.615234" xlink:href="#ArialMT-30"/>
      </g>
     </g>
    </g>
    <g id="text_7">
     <!-- Number of processes -->
     <g style="fill:#262626;" transform="translate(194.647477 330.555469)scale(0.12 -0.12)">
      <defs>
       <path d="M 488 0 
L 488 4581 
L 1109 4581 
L 3516 984 
L 3516 4581 
L 4097 4581 
L 4097 0 
L 3475 0 
L 1069 3600 
L 1069 0 
L 488 0 
z
" id="ArialMT-4e" transform="scale(0.015625)"/>
       <path d="M 2597 0 
L 2597 488 
Q 2209 -75 1544 -75 
Q 1250 -75 995 37 
Q 741 150 617 320 
Q 494 491 444 738 
Q 409 903 409 1263 
L 409 3319 
L 972 3319 
L 972 1478 
Q 972 1038 1006 884 
Q 1059 663 1231 536 
Q 1403 409 1656 409 
Q 1909 409 2131 539 
Q 2353 669 2445 892 
Q 2538 1116 2538 1541 
L 2538 3319 
L 3100 3319 
L 3100 0 
L 2597 0 
z
" id="ArialMT-75" transform="scale(0.015625)"/>
       <path d="M 422 0 
L 422 3319 
L 925 3319 
L 925 2853 
Q 1081 3097 1340 3245 
Q 1600 3394 1931 3394 
Q 2300 3394 2536 3241 
Q 2772 3088 2869 2813 
Q 3263 3394 3894 3394 
Q 4388 3394 4653 3120 
Q 4919 2847 4919 2278 
L 4919 0 
L 4359 0 
L 4359 2091 
Q 4359 2428 4304 2576 
Q 4250 2725 4106 2815 
Q 3963 2906 3769 2906 
Q 3419 2906 3187 2673 
Q 2956 2441 2956 1928 
L 2956 0 
L 2394 0 
L 2394 2156 
Q 2394 2531 2256 2718 
Q 2119 2906 1806 2906 
Q 1569 2906 1367 2781 
Q 1166 2656 1075 2415 
Q 984 2175 984 1722 
L 984 0 
L 422 0 
z
" id="ArialMT-6d" transform="scale(0.015625)"/>
       <path d="M 941 0 
L 419 0 
L 419 4581 
L 981 4581 
L 981 2947 
Q 1338 3394 1891 3394 
Q 2197 3394 2470 3270 
Q 2744 3147 2920 2923 
Q 3097 2700 3197 2384 
Q 3297 2069 3297 1709 
Q 3297 856 2875 390 
Q 2453 -75 1863 -75 
Q 1275 -75 941 416 
L 941 0 
z
M 934 1684 
Q 934 1088 1097 822 
Q 1363 388 1816 388 
Q 2184 388 2453 708 
Q 2722 1028 2722 1663 
Q 2722 2313 2464 2622 
Q 2206 2931 1841 2931 
Q 1472 2931 1203 2611 
Q 934 2291 934 1684 
z
" id="ArialMT-62" transform="scale(0.015625)"/>
       <path d="M 2694 1069 
L 3275 997 
Q 3138 488 2766 206 
Q 2394 -75 1816 -75 
Q 1088 -75 661 373 
Q 234 822 234 1631 
Q 234 2469 665 2931 
Q 1097 3394 1784 3394 
Q 2450 3394 2872 2941 
Q 3294 2488 3294 1666 
Q 3294 1616 3291 1516 
L 816 1516 
Q 847 969 1125 678 
Q 1403 388 1819 388 
Q 2128 388 2347 550 
Q 2566 713 2694 1069 
z
M 847 1978 
L 2700 1978 
Q 2663 2397 2488 2606 
Q 2219 2931 1791 2931 
Q 1403 2931 1139 2672 
Q 875 2413 847 1978 
z
" id="ArialMT-65" transform="scale(0.015625)"/>
       <path d="M 416 0 
L 416 3319 
L 922 3319 
L 922 2816 
Q 1116 3169 1280 3281 
Q 1444 3394 1641 3394 
Q 1925 3394 2219 3213 
L 2025 2691 
Q 1819 2813 1613 2813 
Q 1428 2813 1281 2702 
Q 1134 2591 1072 2394 
Q 978 2094 978 1738 
L 978 0 
L 416 0 
z
" id="ArialMT-72" transform="scale(0.015625)"/>
       <path id="ArialMT-20" transform="scale(0.015625)"/>
       <path d="M 213 1659 
Q 213 2581 725 3025 
Q 1153 3394 1769 3394 
Q 2453 3394 2887 2945 
Q 3322 2497 3322 1706 
Q 3322 1066 3130 698 
Q 2938 331 2570 128 
Q 2203 -75 1769 -75 
Q 1072 -75 642 372 
Q 213 819 213 1659 
z
M 791 1659 
Q 791 1022 1069 705 
Q 1347 388 1769 388 
Q 2188 388 2466 706 
Q 2744 1025 2744 1678 
Q 2744 2294 2464 2611 
Q 2184 2928 1769 2928 
Q 1347 2928 1069 2612 
Q 791 2297 791 1659 
z
" id="ArialMT-6f" transform="scale(0.015625)"/>
       <path d="M 556 0 
L 556 2881 
L 59 2881 
L 59 3319 
L 556 3319 
L 556 3672 
Q 556 4006 616 4169 
Q 697 4388 901 4523 
Q 1106 4659 1475 4659 
Q 1713 4659 2000 4603 
L 1916 4113 
Q 1741 4144 1584 4144 
Q 1328 4144 1222 4034 
Q 1116 3925 1116 3625 
L 1116 3319 
L 1763 3319 
L 1763 2881 
L 1116 2881 
L 1116 0 
L 556 0 
z
" id="ArialMT-66" transform="scale(0.015625)"/>
       <path d="M 422 -1272 
L 422 3319 
L 934 3319 
L 934 2888 
Q 1116 3141 1344 3267 
Q 1572 3394 1897 3394 
Q 2322 3394 2647 3175 
Q 2972 2956 3137 2557 
Q 3303 2159 3303 1684 
Q 3303 1175 3120 767 
Q 2938 359 2589 142 
Q 2241 -75 1856 -75 
Q 1575 -75 1351 44 
Q 1128 163 984 344 
L 984 -1272 
L 422 -1272 
z
M 931 1641 
Q 931 1000 1190 694 
Q 1450 388 1819 388 
Q 2194 388 2461 705 
Q 2728 1022 2728 1688 
Q 2728 2322 2467 2637 
Q 2206 2953 1844 2953 
Q 1484 2953 1207 2617 
Q 931 2281 931 1641 
z
" id="ArialMT-70" transform="scale(0.015625)"/>
       <path d="M 2588 1216 
L 3141 1144 
Q 3050 572 2676 248 
Q 2303 -75 1759 -75 
Q 1078 -75 664 370 
Q 250 816 250 1647 
Q 250 2184 428 2587 
Q 606 2991 970 3192 
Q 1334 3394 1763 3394 
Q 2303 3394 2647 3120 
Q 2991 2847 3088 2344 
L 2541 2259 
Q 2463 2594 2264 2762 
Q 2066 2931 1784 2931 
Q 1359 2931 1093 2626 
Q 828 2322 828 1663 
Q 828 994 1084 691 
Q 1341 388 1753 388 
Q 2084 388 2306 591 
Q 2528 794 2588 1216 
z
" id="ArialMT-63" transform="scale(0.015625)"/>
       <path d="M 197 991 
L 753 1078 
Q 800 744 1014 566 
Q 1228 388 1613 388 
Q 2000 388 2187 545 
Q 2375 703 2375 916 
Q 2375 1106 2209 1216 
Q 2094 1291 1634 1406 
Q 1016 1563 777 1677 
Q 538 1791 414 1992 
Q 291 2194 291 2438 
Q 291 2659 392 2848 
Q 494 3038 669 3163 
Q 800 3259 1026 3326 
Q 1253 3394 1513 3394 
Q 1903 3394 2198 3281 
Q 2494 3169 2634 2976 
Q 2775 2784 2828 2463 
L 2278 2388 
Q 2241 2644 2061 2787 
Q 1881 2931 1553 2931 
Q 1166 2931 1000 2803 
Q 834 2675 834 2503 
Q 834 2394 903 2306 
Q 972 2216 1119 2156 
Q 1203 2125 1616 2013 
Q 2213 1853 2448 1751 
Q 2684 1650 2818 1456 
Q 2953 1263 2953 975 
Q 2953 694 2789 445 
Q 2625 197 2315 61 
Q 2006 -75 1616 -75 
Q 969 -75 630 194 
Q 291 463 197 991 
z
" id="ArialMT-73" transform="scale(0.015625)"/>
      </defs>
      <use xlink:href="#ArialMT-4e"/>
      <use x="72.216797" xlink:href="#ArialMT-75"/>
      <use x="127.832031" xlink:href="#ArialMT-6d"/>
      <use x="211.132812" xlink:href="#ArialMT-62"/>
      <use x="266.748047" xlink:href="#ArialMT-65"/>
      <use x="322.363281" xlink:href="#ArialMT-72"/>
      <use x="355.664062" xlink:href="#ArialMT-20"/>
      <use x="383.447266" xlink:href="#ArialMT-6f"/>
      <use x="439.0625" xlink:href="#ArialMT-66"/>
      <use x="466.845703" xlink:href="#ArialMT-20"/>
      <use x="494.628906" xlink:href="#ArialMT-70"/>
      <use x="550.244141" xlink:href="#ArialMT-72"/>
      <use x="583.544922" xlink:href="#ArialMT-6f"/>
      <use x="639.160156" xlink:href="#ArialMT-63"/>
      <use x="689.160156" xlink:href="#ArialMT-65"/>
      <use x="744.775391" xlink:href="#ArialMT-73"/>
      <use x="794.775391" xlink:href="#ArialMT-73"/>
      <use x="844.775391" xlink:href="#ArialMT-65"/>
      <use x="900.390625" xlink:href="#ArialMT-73"/>
     </g>
    </g>
   </g>
   <g id="matplotlib.axis_2">
    <g id="ytick_1">
     <g id="line2d_7">
      <path clip-path="url(#pc5510c1ae8)" d="M 59.497017 231.320348 
L 443.837312 231.320348 
" style="fill:none;stroke:#ffffff;stroke-linecap:round;"/>
     </g>
     <g id="text_8">
      <!-- $\mathdefault{10^{-2}}$ -->
      <g style="fill:#262626;" transform="translate(28.217017 236.992223)scale(0.11 -0.11)">
       <defs>
        <path d="M 3381 1997 
L 356 1997 
L 356 2522 
L 3381 2522 
L 3381 1997 
z
" id="ArialMT-2212" transform="scale(0.015625)"/>
       </defs>
       <use transform="translate(0 0.99375)" xlink:href="#ArialMT-31"/>
       <use transform="translate(55.615234 0.99375)" xlink:href="#ArialMT-30"/>
       <use transform="translate(112.972813 70.6875)scale(0.7)" xlink:href="#ArialMT-2212"/>
       <use transform="translate(153.851719 70.6875)scale(0.7)" xlink:href="#ArialMT-32"/>
      </g>
     </g>
    </g>
    <g id="ytick_2">
     <g id="line2d_8">
      <path clip-path="url(#pc5510c1ae8)" d="M 59.497017 149.409064 
L 443.837312 149.409064 
" style="fill:none;stroke:#ffffff;stroke-linecap:round;"/>
     </g>
     <g id="text_9">
      <!-- $\mathdefault{10^{-1}}$ -->
      <g style="fill:#262626;" transform="translate(28.217017 155.080939)scale(0.11 -0.11)">
       <use transform="translate(0 0.99375)" xlink:href="#ArialMT-31"/>
       <use transform="translate(55.615234 0.99375)" xlink:href="#ArialMT-30"/>
       <use transform="translate(112.972813 70.6875)scale(0.7)" xlink:href="#ArialMT-2212"/>
       <use transform="translate(153.851719 70.6875)scale(0.7)" xlink:href="#ArialMT-31"/>
      </g>
     </g>
    </g>
    <g id="ytick_3">
     <g id="line2d_9">
      <path clip-path="url(#pc5510c1ae8)" d="M 59.497017 67.497781 
L 443.837312 67.497781 
" style="fill:none;stroke:#ffffff;stroke-linecap:round;"/>
     </g>
     <g id="text_10">
      <!-- $\mathdefault{10^{0}}$ -->
      <g style="fill:#262626;" transform="translate(32.727017 73.169656)scale(0.11 -0.11)">
       <use transform="translate(0 0.99375)" xlink:href="#ArialMT-31"/>
       <use transform="translate(55.615234 0.99375)" xlink:href="#ArialMT-30"/>
       <use transform="translate(112.972813 70.6875)scale(0.7)" xlink:href="#ArialMT-30"/>
      </g>
     </g>
    </g>
    <g id="ytick_4"/>
    <g id="ytick_5"/>
    <g id="ytick_6"/>
    <g id="ytick_7"/>
    <g id="ytick_8"/>
    <g id="ytick_9"/>
    <g id="ytick_10"/>
    <g id="ytick_11"/>
    <g id="ytick_12"/>
    <g id="ytick_13"/>
    <g id="ytick_14"/>
    <g id="ytick_15"/>
    <g id="ytick_16"/>
    <g id="ytick_17"/>
    <g id="ytick_18"/>
    <g id="ytick_19"/>
    <g id="ytick_20"/>
    <g id="ytick_21"/>
    <g id="ytick_22"/>
    <g id="ytick_23"/>
    <g id="ytick_24"/>
    <g id="ytick_25"/>
    <g id="ytick_26"/>
    <g id="ytick_27"/>
    <g id="ytick_28"/>
    <g id="ytick_29"/>
    <g id="text_11">
     <!-- Runtime (s) -->
     <g style="fill:#262626;" transform="translate(21.691392 193.96125)rotate(-90)scale(0.12 -0.12)">
      <defs>
       <path d="M 503 0 
L 503 4581 
L 2534 4581 
Q 3147 4581 3465 4457 
Q 3784 4334 3975 4021 
Q 4166 3709 4166 3331 
Q 4166 2844 3850 2509 
Q 3534 2175 2875 2084 
Q 3116 1969 3241 1856 
Q 3506 1613 3744 1247 
L 4541 0 
L 3778 0 
L 3172 953 
Q 2906 1366 2734 1584 
Q 2563 1803 2427 1890 
Q 2291 1978 2150 2013 
Q 2047 2034 1813 2034 
L 1109 2034 
L 1109 0 
L 503 0 
z
M 1109 2559 
L 2413 2559 
Q 2828 2559 3062 2645 
Q 3297 2731 3419 2920 
Q 3541 3109 3541 3331 
Q 3541 3656 3305 3865 
Q 3069 4075 2559 4075 
L 1109 4075 
L 1109 2559 
z
" id="ArialMT-52" transform="scale(0.015625)"/>
       <path d="M 422 0 
L 422 3319 
L 928 3319 
L 928 2847 
Q 1294 3394 1984 3394 
Q 2284 3394 2536 3286 
Q 2788 3178 2913 3003 
Q 3038 2828 3088 2588 
Q 3119 2431 3119 2041 
L 3119 0 
L 2556 0 
L 2556 2019 
Q 2556 2363 2490 2533 
Q 2425 2703 2258 2804 
Q 2091 2906 1866 2906 
Q 1506 2906 1245 2678 
Q 984 2450 984 1813 
L 984 0 
L 422 0 
z
" id="ArialMT-6e" transform="scale(0.015625)"/>
       <path d="M 1650 503 
L 1731 6 
Q 1494 -44 1306 -44 
Q 1000 -44 831 53 
Q 663 150 594 308 
Q 525 466 525 972 
L 525 2881 
L 113 2881 
L 113 3319 
L 525 3319 
L 525 4141 
L 1084 4478 
L 1084 3319 
L 1650 3319 
L 1650 2881 
L 1084 2881 
L 1084 941 
Q 1084 700 1114 631 
Q 1144 563 1211 522 
Q 1278 481 1403 481 
Q 1497 481 1650 503 
z
" id="ArialMT-74" transform="scale(0.015625)"/>
       <path d="M 425 3934 
L 425 4581 
L 988 4581 
L 988 3934 
L 425 3934 
z
M 425 0 
L 425 3319 
L 988 3319 
L 988 0 
L 425 0 
z
" id="ArialMT-69" transform="scale(0.015625)"/>
       <path d="M 1497 -1347 
Q 1031 -759 709 28 
Q 388 816 388 1659 
Q 388 2403 628 3084 
Q 909 3875 1497 4659 
L 1900 4659 
Q 1522 4009 1400 3731 
Q 1209 3300 1100 2831 
Q 966 2247 966 1656 
Q 966 153 1900 -1347 
L 1497 -1347 
z
" id="ArialMT-28" transform="scale(0.015625)"/>
       <path d="M 791 -1347 
L 388 -1347 
Q 1322 153 1322 1656 
Q 1322 2244 1188 2822 
Q 1081 3291 891 3722 
Q 769 4003 388 4659 
L 791 4659 
Q 1378 3875 1659 3084 
Q 1900 2403 1900 1659 
Q 1900 816 1576 28 
Q 1253 -759 791 -1347 
z
" id="ArialMT-29" transform="scale(0.015625)"/>
      </defs>
      <use xlink:href="#ArialMT-52"/>
      <use x="72.216797" xlink:href="#ArialMT-75"/>
      <use x="127.832031" xlink:href="#ArialMT-6e"/>
      <use x="183.447266" xlink:href="#ArialMT-74"/>
      <use x="211.230469" xlink:href="#ArialMT-69"/>
      <use x="233.447266" xlink:href="#ArialMT-6d"/>
      <use x="316.748047" xlink:href="#ArialMT-65"/>
      <use x="372.363281" xlink:href="#ArialMT-20"/>
      <use x="400.146484" xlink:href="#ArialMT-28"/>
      <use x="433.447266" xlink:href="#ArialMT-73"/>
      <use x="483.447266" xlink:href="#ArialMT-29"/>
     </g>
    </g>
   </g>
   <g id="line2d_10">
    <path clip-path="url(#pc5510c1ae8)" d="M 76.967031 282.648266 
L 92.158347 267.585215 
L 107.349663 261.82232 
L 122.540979 257.934092 
L 137.732295 264.273651 
L 152.923611 262.533731 
L 168.114927 262.567965 
L 183.306243 259.239376 
L 198.497559 258.418454 
L 213.688875 248.214102 
L 228.880191 257.157125 
L 244.071507 257.563939 
L 259.262823 255.026887 
L 274.454139 256.646001 
L 289.645455 256.476043 
L 304.836771 256.335628 
L 320.028087 254.391842 
L 335.219403 255.88573 
L 350.410719 253.901909 
L 365.602035 254.310282 
L 380.793351 253.547973 
L 395.984667 253.508126 
L 411.175983 252.137675 
L 426.367299 253.481586 
" style="fill:none;stroke:#4c72b0;stroke-linecap:round;stroke-width:1.5;"/>
    <defs>
     <path d="M 0 3 
C 0.795609 3 1.55874 2.683901 2.12132 2.12132 
C 2.683901 1.55874 3 0.795609 3 0 
C 3 -0.795609 2.683901 -1.55874 2.12132 -2.12132 
C 1.55874 -2.683901 0.795609 -3 0 -3 
C -0.795609 -3 -1.55874 -2.683901 -2.12132 -2.12132 
C -2.683901 -1.55874 -3 -0.795609 -3 0 
C -3 0.795609 -2.683901 1.55874 -2.12132 2.12132 
C -1.55874 2.683901 -0.795609 3 0 3 
z
" id="m42265179d9" style="stroke:#4c72b0;"/>
    </defs>
    <g clip-path="url(#pc5510c1ae8)">
     <use style="fill:#4c72b0;stroke:#4c72b0;" x="76.967031" xlink:href="#m42265179d9" y="282.648266"/>
     <use style="fill:#4c72b0;stroke:#4c72b0;" x="92.158347" xlink:href="#m42265179d9" y="267.585215"/>
     <use style="fill:#4c72b0;stroke:#4c72b0;" x="107.349663" xlink:href="#m42265179d9" y="261.82232"/>
     <use style="fill:#4c72b0;stroke:#4c72b0;" x="122.540979" xlink:href="#m42265179d9" y="257.934092"/>
     <use style="fill:#4c72b0;stroke:#4c72b0;" x="137.732295" xlink:href="#m42265179d9" y="264.273651"/>
     <use style="fill:#4c72b0;stroke:#4c72b0;" x="152.923611" xlink:href="#m42265179d9" y="262.533731"/>
     <use style="fill:#4c72b0;stroke:#4c72b0;" x="168.114927" xlink:href="#m42265179d9" y="262.567965"/>
     <use style="fill:#4c72b0;stroke:#4c72b0;" x="183.306243" xlink:href="#m42265179d9" y="259.239376"/>
     <use style="fill:#4c72b0;stroke:#4c72b0;" x="198.497559" xlink:href="#m42265179d9" y="258.418454"/>
     <use style="fill:#4c72b0;stroke:#4c72b0;" x="213.688875" xlink:href="#m42265179d9" y="248.214102"/>
     <use style="fill:#4c72b0;stroke:#4c72b0;" x="228.880191" xlink:href="#m42265179d9" y="257.157125"/>
     <use style="fill:#4c72b0;stroke:#4c72b0;" x="244.071507" xlink:href="#m42265179d9" y="257.563939"/>
     <use style="fill:#4c72b0;stroke:#4c72b0;" x="259.262823" xlink:href="#m42265179d9" y="255.026887"/>
     <use style="fill:#4c72b0;stroke:#4c72b0;" x="274.454139" xlink:href="#m42265179d9" y="256.646001"/>
     <use style="fill:#4c72b0;stroke:#4c72b0;" x="289.645455" xlink:href="#m42265179d9" y="256.476043"/>
     <use style="fill:#4c72b0;stroke:#4c72b0;" x="304.836771" xlink:href="#m42265179d9" y="256.335628"/>
     <use style="fill:#4c72b0;stroke:#4c72b0;" x="320.028087" xlink:href="#m42265179d9" y="254.391842"/>
     <use style="fill:#4c72b0;stroke:#4c72b0;" x="335.219403" xlink:href="#m42265179d9" y="255.88573"/>
     <use style="fill:#4c72b0;stroke:#4c72b0;" x="350.410719" xlink:href="#m42265179d9" y="253.901909"/>
     <use style="fill:#4c72b0;stroke:#4c72b0;" x="365.602035" xlink:href="#m42265179d9" y="254.310282"/>
     <use style="fill:#4c72b0;stroke:#4c72b0;" x="380.793351" xlink:href="#m42265179d9" y="253.547973"/>
     <use style="fill:#4c72b0;stroke:#4c72b0;" x="395.984667" xlink:href="#m42265179d9" y="253.508126"/>
     <use style="fill:#4c72b0;stroke:#4c72b0;" x="411.175983" xlink:href="#m42265179d9" y="252.137675"/>
     <use style="fill:#4c72b0;stroke:#4c72b0;" x="426.367299" xlink:href="#m42265179d9" y="253.481586"/>
    </g>
   </g>
   <g id="line2d_11">
    <path clip-path="url(#pc5510c1ae8)" d="M 76.967031 285.95983 
L 92.158347 262.679455 
M 122.540979 247.813132 
M 183.306243 238.086181 
M 304.836771 221.694145 
" style="fill:none;stroke:#dd8452;stroke-linecap:round;stroke-width:1.5;"/>
    <defs>
     <path d="M 0 3 
C 0.795609 3 1.55874 2.683901 2.12132 2.12132 
C 2.683901 1.55874 3 0.795609 3 0 
C 3 -0.795609 2.683901 -1.55874 2.12132 -2.12132 
C 1.55874 -2.683901 0.795609 -3 0 -3 
C -0.795609 -3 -1.55874 -2.683901 -2.12132 -2.12132 
C -2.683901 -1.55874 -3 -0.795609 -3 0 
C -3 0.795609 -2.683901 1.55874 -2.12132 2.12132 
C -1.55874 2.683901 -0.795609 3 0 3 
z
" id="m6cf11e255f" style="stroke:#dd8452;"/>
    </defs>
    <g clip-path="url(#pc5510c1ae8)">
     <use style="fill:#dd8452;stroke:#dd8452;" x="76.967031" xlink:href="#m6cf11e255f" y="285.95983"/>
     <use style="fill:#dd8452;stroke:#dd8452;" x="92.158347" xlink:href="#m6cf11e255f" y="262.679455"/>
     <use style="fill:#dd8452;stroke:#dd8452;" x="122.540979" xlink:href="#m6cf11e255f" y="247.813132"/>
     <use style="fill:#dd8452;stroke:#dd8452;" x="183.306243" xlink:href="#m6cf11e255f" y="238.086181"/>
     <use style="fill:#dd8452;stroke:#dd8452;" x="304.836771" xlink:href="#m6cf11e255f" y="221.694145"/>
    </g>
   </g>
   <g id="line2d_12">
    <path clip-path="url(#pc5510c1ae8)" d="M 76.967031 255.567822 
L 92.158347 221.114036 
L 107.349663 205.274213 
L 122.540979 194.573201 
L 137.732295 186.109425 
L 152.923611 179.545239 
L 168.114927 173.404941 
L 183.306243 168.467947 
L 198.497559 164.126639 
L 213.688875 160.292737 
L 228.880191 156.931754 
L 244.071507 154.056549 
L 259.262823 151.188659 
L 274.454139 148.196281 
L 289.645455 145.469464 
L 304.836771 143.205673 
L 320.028087 141.345049 
L 335.219403 139.354335 
L 350.410719 137.553165 
L 365.602035 135.142311 
L 380.793351 133.580518 
L 395.984667 132.243688 
L 411.175983 130.354335 
L 426.367299 128.878459 
" style="fill:none;stroke:#55a868;stroke-linecap:round;stroke-width:1.5;"/>
    <defs>
     <path d="M 0 3 
C 0.795609 3 1.55874 2.683901 2.12132 2.12132 
C 2.683901 1.55874 3 0.795609 3 0 
C 3 -0.795609 2.683901 -1.55874 2.12132 -2.12132 
C 1.55874 -2.683901 0.795609 -3 0 -3 
C -0.795609 -3 -1.55874 -2.683901 -2.12132 -2.12132 
C -2.683901 -1.55874 -3 -0.795609 -3 0 
C -3 0.795609 -2.683901 1.55874 -2.12132 2.12132 
C -1.55874 2.683901 -0.795609 3 0 3 
z
" id="ma278c63f4e" style="stroke:#55a868;"/>
    </defs>
    <g clip-path="url(#pc5510c1ae8)">
     <use style="fill:#55a868;stroke:#55a868;" x="76.967031" xlink:href="#ma278c63f4e" y="255.567822"/>
     <use style="fill:#55a868;stroke:#55a868;" x="92.158347" xlink:href="#ma278c63f4e" y="221.114036"/>
     <use style="fill:#55a868;stroke:#55a868;" x="107.349663" xlink:href="#ma278c63f4e" y="205.274213"/>
     <use style="fill:#55a868;stroke:#55a868;" x="122.540979" xlink:href="#ma278c63f4e" y="194.573201"/>
     <use style="fill:#55a868;stroke:#55a868;" x="137.732295" xlink:href="#ma278c63f4e" y="186.109425"/>
     <use style="fill:#55a868;stroke:#55a868;" x="152.923611" xlink:href="#ma278c63f4e" y="179.545239"/>
     <use style="fill:#55a868;stroke:#55a868;" x="168.114927" xlink:href="#ma278c63f4e" y="173.404941"/>
     <use style="fill:#55a868;stroke:#55a868;" x="183.306243" xlink:href="#ma278c63f4e" y="168.467947"/>
     <use style="fill:#55a868;stroke:#55a868;" x="198.497559" xlink:href="#ma278c63f4e" y="164.126639"/>
     <use style="fill:#55a868;stroke:#55a868;" x="213.688875" xlink:href="#ma278c63f4e" y="160.292737"/>
     <use style="fill:#55a868;stroke:#55a868;" x="228.880191" xlink:href="#ma278c63f4e" y="156.931754"/>
     <use style="fill:#55a868;stroke:#55a868;" x="244.071507" xlink:href="#ma278c63f4e" y="154.056549"/>
     <use style="fill:#55a868;stroke:#55a868;" x="259.262823" xlink:href="#ma278c63f4e" y="151.188659"/>
     <use style="fill:#55a868;stroke:#55a868;" x="274.454139" xlink:href="#ma278c63f4e" y="148.196281"/>
     <use style="fill:#55a868;stroke:#55a868;" x="289.645455" xlink:href="#ma278c63f4e" y="145.469464"/>
     <use style="fill:#55a868;stroke:#55a868;" x="304.836771" xlink:href="#ma278c63f4e" y="143.205673"/>
     <use style="fill:#55a868;stroke:#55a868;" x="320.028087" xlink:href="#ma278c63f4e" y="141.345049"/>
     <use style="fill:#55a868;stroke:#55a868;" x="335.219403" xlink:href="#ma278c63f4e" y="139.354335"/>
     <use style="fill:#55a868;stroke:#55a868;" x="350.410719" xlink:href="#ma278c63f4e" y="137.553165"/>
     <use style="fill:#55a868;stroke:#55a868;" x="365.602035" xlink:href="#ma278c63f4e" y="135.142311"/>
     <use style="fill:#55a868;stroke:#55a868;" x="380.793351" xlink:href="#ma278c63f4e" y="133.580518"/>
     <use style="fill:#55a868;stroke:#55a868;" x="395.984667" xlink:href="#ma278c63f4e" y="132.243688"/>
     <use style="fill:#55a868;stroke:#55a868;" x="411.175983" xlink:href="#ma278c63f4e" y="130.354335"/>
     <use style="fill:#55a868;stroke:#55a868;" x="426.367299" xlink:href="#ma278c63f4e" y="128.878459"/>
    </g>
   </g>
   <g id="line2d_13">
    <path clip-path="url(#pc5510c1ae8)" d="M 76.967031 265.211171 
L 92.158347 252.791898 
L 107.349663 246.647591 
L 122.540979 246.399424 
L 137.732295 246.779193 
L 152.923611 245.750435 
L 168.114927 249.972774 
L 183.306243 247.196395 
L 198.497559 246.705107 
L 213.688875 239.970249 
L 228.880191 242.05579 
L 244.071507 244.044157 
L 259.262823 234.236302 
L 274.454139 242.075037 
L 289.645455 241.981305 
L 304.836771 241.228459 
L 320.028087 240.627279 
L 335.219403 218.763639 
L 350.410719 239.647353 
L 365.602035 237.762812 
L 380.793351 238.805479 
L 395.984667 234.577724 
L 411.175983 235.652227 
L 426.367299 235.708523 
" style="fill:none;stroke:#c44e52;stroke-linecap:round;stroke-width:1.5;"/>
    <defs>
     <path d="M 0 3 
C 0.795609 3 1.55874 2.683901 2.12132 2.12132 
C 2.683901 1.55874 3 0.795609 3 0 
C 3 -0.795609 2.683901 -1.55874 2.12132 -2.12132 
C 1.55874 -2.683901 0.795609 -3 0 -3 
C -0.795609 -3 -1.55874 -2.683901 -2.12132 -2.12132 
C -2.683901 -1.55874 -3 -0.795609 -3 0 
C -3 0.795609 -2.683901 1.55874 -2.12132 2.12132 
C -1.55874 2.683901 -0.795609 3 0 3 
z
" id="m05a4dbd8e8" style="stroke:#c44e52;"/>
    </defs>
    <g clip-path="url(#pc5510c1ae8)">
     <use style="fill:#c44e52;stroke:#c44e52;" x="76.967031" xlink:href="#m05a4dbd8e8" y="265.211171"/>
     <use style="fill:#c44e52;stroke:#c44e52;" x="92.158347" xlink:href="#m05a4dbd8e8" y="252.791898"/>
     <use style="fill:#c44e52;stroke:#c44e52;" x="107.349663" xlink:href="#m05a4dbd8e8" y="246.647591"/>
     <use style="fill:#c44e52;stroke:#c44e52;" x="122.540979" xlink:href="#m05a4dbd8e8" y="246.399424"/>
     <use style="fill:#c44e52;stroke:#c44e52;" x="137.732295" xlink:href="#m05a4dbd8e8" y="246.779193"/>
     <use style="fill:#c44e52;stroke:#c44e52;" x="152.923611" xlink:href="#m05a4dbd8e8" y="245.750435"/>
     <use style="fill:#c44e52;stroke:#c44e52;" x="168.114927" xlink:href="#m05a4dbd8e8" y="249.972774"/>
     <use style="fill:#c44e52;stroke:#c44e52;" x="183.306243" xlink:href="#m05a4dbd8e8" y="247.196395"/>
     <use style="fill:#c44e52;stroke:#c44e52;" x="198.497559" xlink:href="#m05a4dbd8e8" y="246.705107"/>
     <use style="fill:#c44e52;stroke:#c44e52;" x="213.688875" xlink:href="#m05a4dbd8e8" y="239.970249"/>
     <use style="fill:#c44e52;stroke:#c44e52;" x="228.880191" xlink:href="#m05a4dbd8e8" y="242.05579"/>
     <use style="fill:#c44e52;stroke:#c44e52;" x="244.071507" xlink:href="#m05a4dbd8e8" y="244.044157"/>
     <use style="fill:#c44e52;stroke:#c44e52;" x="259.262823" xlink:href="#m05a4dbd8e8" y="234.236302"/>
     <use style="fill:#c44e52;stroke:#c44e52;" x="274.454139" xlink:href="#m05a4dbd8e8" y="242.075037"/>
     <use style="fill:#c44e52;stroke:#c44e52;" x="289.645455" xlink:href="#m05a4dbd8e8" y="241.981305"/>
     <use style="fill:#c44e52;stroke:#c44e52;" x="304.836771" xlink:href="#m05a4dbd8e8" y="241.228459"/>
     <use style="fill:#c44e52;stroke:#c44e52;" x="320.028087" xlink:href="#m05a4dbd8e8" y="240.627279"/>
     <use style="fill:#c44e52;stroke:#c44e52;" x="335.219403" xlink:href="#m05a4dbd8e8" y="218.763639"/>
     <use style="fill:#c44e52;stroke:#c44e52;" x="350.410719" xlink:href="#m05a4dbd8e8" y="239.647353"/>
     <use style="fill:#c44e52;stroke:#c44e52;" x="365.602035" xlink:href="#m05a4dbd8e8" y="237.762812"/>
     <use style="fill:#c44e52;stroke:#c44e52;" x="380.793351" xlink:href="#m05a4dbd8e8" y="238.805479"/>
     <use style="fill:#c44e52;stroke:#c44e52;" x="395.984667" xlink:href="#m05a4dbd8e8" y="234.577724"/>
     <use style="fill:#c44e52;stroke:#c44e52;" x="411.175983" xlink:href="#m05a4dbd8e8" y="235.652227"/>
     <use style="fill:#c44e52;stroke:#c44e52;" x="426.367299" xlink:href="#m05a4dbd8e8" y="235.708523"/>
    </g>
   </g>
   <g id="line2d_14">
    <path clip-path="url(#pc5510c1ae8)" d="M 76.967031 266.45472 
L 92.158347 256.541037 
L 107.349663 234.847741 
L 122.540979 250.56664 
L 137.732295 233.940222 
L 152.923611 233.426995 
L 168.114927 232.57115 
L 183.306243 247.610111 
L 198.497559 231.593532 
L 213.688875 227.160432 
L 228.880191 215.239984 
L 244.071507 231.471858 
L 259.262823 229.371901 
L 274.454139 230.010741 
L 289.645455 230.0176 
L 304.836771 246.746247 
L 320.028087 230.041614 
L 335.219403 229.884102 
L 350.410719 229.887519 
L 365.602035 229.766424 
L 380.793351 229.398853 
L 395.984667 229.217321 
L 411.175983 229.025035 
L 426.367299 229.18883 
" style="fill:none;stroke:#8172b3;stroke-linecap:round;stroke-width:1.5;"/>
    <defs>
     <path d="M 0 3 
C 0.795609 3 1.55874 2.683901 2.12132 2.12132 
C 2.683901 1.55874 3 0.795609 3 0 
C 3 -0.795609 2.683901 -1.55874 2.12132 -2.12132 
C 1.55874 -2.683901 0.795609 -3 0 -3 
C -0.795609 -3 -1.55874 -2.683901 -2.12132 -2.12132 
C -2.683901 -1.55874 -3 -0.795609 -3 0 
C -3 0.795609 -2.683901 1.55874 -2.12132 2.12132 
C -1.55874 2.683901 -0.795609 3 0 3 
z
" id="m38d31eb4c0" style="stroke:#8172b3;"/>
    </defs>
    <g clip-path="url(#pc5510c1ae8)">
     <use style="fill:#8172b3;stroke:#8172b3;" x="76.967031" xlink:href="#m38d31eb4c0" y="266.45472"/>
     <use style="fill:#8172b3;stroke:#8172b3;" x="92.158347" xlink:href="#m38d31eb4c0" y="256.541037"/>
     <use style="fill:#8172b3;stroke:#8172b3;" x="107.349663" xlink:href="#m38d31eb4c0" y="234.847741"/>
     <use style="fill:#8172b3;stroke:#8172b3;" x="122.540979" xlink:href="#m38d31eb4c0" y="250.56664"/>
     <use style="fill:#8172b3;stroke:#8172b3;" x="137.732295" xlink:href="#m38d31eb4c0" y="233.940222"/>
     <use style="fill:#8172b3;stroke:#8172b3;" x="152.923611" xlink:href="#m38d31eb4c0" y="233.426995"/>
     <use style="fill:#8172b3;stroke:#8172b3;" x="168.114927" xlink:href="#m38d31eb4c0" y="232.57115"/>
     <use style="fill:#8172b3;stroke:#8172b3;" x="183.306243" xlink:href="#m38d31eb4c0" y="247.610111"/>
     <use style="fill:#8172b3;stroke:#8172b3;" x="198.497559" xlink:href="#m38d31eb4c0" y="231.593532"/>
     <use style="fill:#8172b3;stroke:#8172b3;" x="213.688875" xlink:href="#m38d31eb4c0" y="227.160432"/>
     <use style="fill:#8172b3;stroke:#8172b3;" x="228.880191" xlink:href="#m38d31eb4c0" y="215.239984"/>
     <use style="fill:#8172b3;stroke:#8172b3;" x="244.071507" xlink:href="#m38d31eb4c0" y="231.471858"/>
     <use style="fill:#8172b3;stroke:#8172b3;" x="259.262823" xlink:href="#m38d31eb4c0" y="229.371901"/>
     <use style="fill:#8172b3;stroke:#8172b3;" x="274.454139" xlink:href="#m38d31eb4c0" y="230.010741"/>
     <use style="fill:#8172b3;stroke:#8172b3;" x="289.645455" xlink:href="#m38d31eb4c0" y="230.0176"/>
     <use style="fill:#8172b3;stroke:#8172b3;" x="304.836771" xlink:href="#m38d31eb4c0" y="246.746247"/>
     <use style="fill:#8172b3;stroke:#8172b3;" x="320.028087" xlink:href="#m38d31eb4c0" y="230.041614"/>
     <use style="fill:#8172b3;stroke:#8172b3;" x="335.219403" xlink:href="#m38d31eb4c0" y="229.884102"/>
     <use style="fill:#8172b3;stroke:#8172b3;" x="350.410719" xlink:href="#m38d31eb4c0" y="229.887519"/>
     <use style="fill:#8172b3;stroke:#8172b3;" x="365.602035" xlink:href="#m38d31eb4c0" y="229.766424"/>
     <use style="fill:#8172b3;stroke:#8172b3;" x="380.793351" xlink:href="#m38d31eb4c0" y="229.398853"/>
     <use style="fill:#8172b3;stroke:#8172b3;" x="395.984667" xlink:href="#m38d31eb4c0" y="229.217321"/>
     <use style="fill:#8172b3;stroke:#8172b3;" x="411.175983" xlink:href="#m38d31eb4c0" y="229.025035"/>
     <use style="fill:#8172b3;stroke:#8172b3;" x="426.367299" xlink:href="#m38d31eb4c0" y="229.18883"/>
    </g>
   </g>
   <g id="line2d_15">
    <path clip-path="url(#pc5510c1ae8)" d="M 76.967031 256.06358 
L 92.158347 240.410745 
L 107.349663 226.36398 
L 122.540979 231.991873 
L 137.732295 221.933781 
L 152.923611 221.648037 
L 168.114927 220.7118 
L 183.306243 225.933338 
L 198.497559 215.708237 
L 213.688875 201.949215 
L 228.880191 204.659464 
L 244.071507 215.553751 
L 259.262823 207.818643 
L 274.454139 214.488515 
L 289.645455 215.306825 
L 304.836771 215.720855 
L 320.028087 210.902178 
L 335.219403 209.509114 
L 350.410719 209.090568 
L 365.602035 207.940121 
L 380.793351 50.260711 
L 395.984667 39.960702 
L 411.175983 208.500391 
L 426.367299 39.95642 
" style="fill:none;stroke:#937860;stroke-linecap:round;stroke-width:1.5;"/>
    <defs>
     <path d="M 0 3 
C 0.795609 3 1.55874 2.683901 2.12132 2.12132 
C 2.683901 1.55874 3 0.795609 3 0 
C 3 -0.795609 2.683901 -1.55874 2.12132 -2.12132 
C 1.55874 -2.683901 0.795609 -3 0 -3 
C -0.795609 -3 -1.55874 -2.683901 -2.12132 -2.12132 
C -2.683901 -1.55874 -3 -0.795609 -3 0 
C -3 0.795609 -2.683901 1.55874 -2.12132 2.12132 
C -1.55874 2.683901 -0.795609 3 0 3 
z
" id="m0d3ead22ad" style="stroke:#937860;"/>
    </defs>
    <g clip-path="url(#pc5510c1ae8)">
     <use style="fill:#937860;stroke:#937860;" x="76.967031" xlink:href="#m0d3ead22ad" y="256.06358"/>
     <use style="fill:#937860;stroke:#937860;" x="92.158347" xlink:href="#m0d3ead22ad" y="240.410745"/>
     <use style="fill:#937860;stroke:#937860;" x="107.349663" xlink:href="#m0d3ead22ad" y="226.36398"/>
     <use style="fill:#937860;stroke:#937860;" x="122.540979" xlink:href="#m0d3ead22ad" y="231.991873"/>
     <use style="fill:#937860;stroke:#937860;" x="137.732295" xlink:href="#m0d3ead22ad" y="221.933781"/>
     <use style="fill:#937860;stroke:#937860;" x="152.923611" xlink:href="#m0d3ead22ad" y="221.648037"/>
     <use style="fill:#937860;stroke:#937860;" x="168.114927" xlink:href="#m0d3ead22ad" y="220.7118"/>
     <use style="fill:#937860;stroke:#937860;" x="183.306243" xlink:href="#m0d3ead22ad" y="225.933338"/>
     <use style="fill:#937860;stroke:#937860;" x="198.497559" xlink:href="#m0d3ead22ad" y="215.708237"/>
     <use style="fill:#937860;stroke:#937860;" x="213.688875" xlink:href="#m0d3ead22ad" y="201.949215"/>
     <use style="fill:#937860;stroke:#937860;" x="228.880191" xlink:href="#m0d3ead22ad" y="204.659464"/>
     <use style="fill:#937860;stroke:#937860;" x="244.071507" xlink:href="#m0d3ead22ad" y="215.553751"/>
     <use style="fill:#937860;stroke:#937860;" x="259.262823" xlink:href="#m0d3ead22ad" y="207.818643"/>
     <use style="fill:#937860;stroke:#937860;" x="274.454139" xlink:href="#m0d3ead22ad" y="214.488515"/>
     <use style="fill:#937860;stroke:#937860;" x="289.645455" xlink:href="#m0d3ead22ad" y="215.306825"/>
     <use style="fill:#937860;stroke:#937860;" x="304.836771" xlink:href="#m0d3ead22ad" y="215.720855"/>
     <use style="fill:#937860;stroke:#937860;" x="320.028087" xlink:href="#m0d3ead22ad" y="210.902178"/>
     <use style="fill:#937860;stroke:#937860;" x="335.219403" xlink:href="#m0d3ead22ad" y="209.509114"/>
     <use style="fill:#937860;stroke:#937860;" x="350.410719" xlink:href="#m0d3ead22ad" y="209.090568"/>
     <use style="fill:#937860;stroke:#937860;" x="365.602035" xlink:href="#m0d3ead22ad" y="207.940121"/>
     <use style="fill:#937860;stroke:#937860;" x="380.793351" xlink:href="#m0d3ead22ad" y="50.260711"/>
     <use style="fill:#937860;stroke:#937860;" x="395.984667" xlink:href="#m0d3ead22ad" y="39.960702"/>
     <use style="fill:#937860;stroke:#937860;" x="411.175983" xlink:href="#m0d3ead22ad" y="208.500391"/>
     <use style="fill:#937860;stroke:#937860;" x="426.367299" xlink:href="#m0d3ead22ad" y="39.95642"/>
    </g>
   </g>
   <g id="line2d_16">
    <path clip-path="url(#pc5510c1ae8)" d="M 76.967031 259.509423 
L 92.158347 268.625687 
L 107.349663 261.513418 
L 122.540979 258.445134 
L 137.732295 264.273651 
L 152.923611 263.570962 
L 168.114927 262.550844 
L 183.306243 260.630856 
L 198.497559 261.372384 
L 213.688875 257.994278 
L 228.880191 241.395698 
L 244.071507 257.560219 
L 259.262823 250.177688 
L 274.454139 256.631505 
L 289.645455 256.41837 
L 304.836771 256.220828 
L 320.028087 255.733486 
L 335.219403 254.878268 
L 350.410719 255.256216 
L 365.602035 253.369011 
L 380.793351 253.634462 
L 395.984667 254.03639 
L 411.175983 252.192003 
L 426.367299 250.867333 
" style="fill:none;stroke:#da8bc3;stroke-linecap:round;stroke-width:1.5;"/>
    <defs>
     <path d="M 0 3 
C 0.795609 3 1.55874 2.683901 2.12132 2.12132 
C 2.683901 1.55874 3 0.795609 3 0 
C 3 -0.795609 2.683901 -1.55874 2.12132 -2.12132 
C 1.55874 -2.683901 0.795609 -3 0 -3 
C -0.795609 -3 -1.55874 -2.683901 -2.12132 -2.12132 
C -2.683901 -1.55874 -3 -0.795609 -3 0 
C -3 0.795609 -2.683901 1.55874 -2.12132 2.12132 
C -1.55874 2.683901 -0.795609 3 0 3 
z
" id="m7f8e8889f9" style="stroke:#da8bc3;"/>
    </defs>
    <g clip-path="url(#pc5510c1ae8)">
     <use style="fill:#da8bc3;stroke:#da8bc3;" x="76.967031" xlink:href="#m7f8e8889f9" y="259.509423"/>
     <use style="fill:#da8bc3;stroke:#da8bc3;" x="92.158347" xlink:href="#m7f8e8889f9" y="268.625687"/>
     <use style="fill:#da8bc3;stroke:#da8bc3;" x="107.349663" xlink:href="#m7f8e8889f9" y="261.513418"/>
     <use style="fill:#da8bc3;stroke:#da8bc3;" x="122.540979" xlink:href="#m7f8e8889f9" y="258.445134"/>
     <use style="fill:#da8bc3;stroke:#da8bc3;" x="137.732295" xlink:href="#m7f8e8889f9" y="264.273651"/>
     <use style="fill:#da8bc3;stroke:#da8bc3;" x="152.923611" xlink:href="#m7f8e8889f9" y="263.570962"/>
     <use style="fill:#da8bc3;stroke:#da8bc3;" x="168.114927" xlink:href="#m7f8e8889f9" y="262.550844"/>
     <use style="fill:#da8bc3;stroke:#da8bc3;" x="183.306243" xlink:href="#m7f8e8889f9" y="260.630856"/>
     <use style="fill:#da8bc3;stroke:#da8bc3;" x="198.497559" xlink:href="#m7f8e8889f9" y="261.372384"/>
     <use style="fill:#da8bc3;stroke:#da8bc3;" x="213.688875" xlink:href="#m7f8e8889f9" y="257.994278"/>
     <use style="fill:#da8bc3;stroke:#da8bc3;" x="228.880191" xlink:href="#m7f8e8889f9" y="241.395698"/>
     <use style="fill:#da8bc3;stroke:#da8bc3;" x="244.071507" xlink:href="#m7f8e8889f9" y="257.560219"/>
     <use style="fill:#da8bc3;stroke:#da8bc3;" x="259.262823" xlink:href="#m7f8e8889f9" y="250.177688"/>
     <use style="fill:#da8bc3;stroke:#da8bc3;" x="274.454139" xlink:href="#m7f8e8889f9" y="256.631505"/>
     <use style="fill:#da8bc3;stroke:#da8bc3;" x="289.645455" xlink:href="#m7f8e8889f9" y="256.41837"/>
     <use style="fill:#da8bc3;stroke:#da8bc3;" x="304.836771" xlink:href="#m7f8e8889f9" y="256.220828"/>
     <use style="fill:#da8bc3;stroke:#da8bc3;" x="320.028087" xlink:href="#m7f8e8889f9" y="255.733486"/>
     <use style="fill:#da8bc3;stroke:#da8bc3;" x="335.219403" xlink:href="#m7f8e8889f9" y="254.878268"/>
     <use style="fill:#da8bc3;stroke:#da8bc3;" x="350.410719" xlink:href="#m7f8e8889f9" y="255.256216"/>
     <use style="fill:#da8bc3;stroke:#da8bc3;" x="365.602035" xlink:href="#m7f8e8889f9" y="253.369011"/>
     <use style="fill:#da8bc3;stroke:#da8bc3;" x="380.793351" xlink:href="#m7f8e8889f9" y="253.634462"/>
     <use style="fill:#da8bc3;stroke:#da8bc3;" x="395.984667" xlink:href="#m7f8e8889f9" y="254.03639"/>
     <use style="fill:#da8bc3;stroke:#da8bc3;" x="411.175983" xlink:href="#m7f8e8889f9" y="252.192003"/>
     <use style="fill:#da8bc3;stroke:#da8bc3;" x="426.367299" xlink:href="#m7f8e8889f9" y="250.867333"/>
    </g>
   </g>
   <g id="line2d_17">
    <path clip-path="url(#pc5510c1ae8)" d="M 76.967031 259.079879 
L 92.158347 268.081645 
L 107.349663 261.546683 
L 122.540979 258.878613 
L 137.732295 264.507986 
L 152.923611 262.964045 
L 168.114927 262.520902 
L 183.306243 259.333073 
L 198.497559 261.314473 
L 213.688875 257.02499 
L 228.880191 241.228459 
L 244.071507 257.694361 
L 259.262823 257.308212 
L 274.454139 256.693155 
L 289.645455 256.429176 
L 304.836771 255.921229 
L 320.028087 256.060015 
L 335.219403 255.487033 
L 350.410719 254.599985 
L 365.602035 252.896134 
L 380.793351 254.140964 
L 395.984667 253.359095 
L 411.175983 252.830951 
L 426.367299 251.759685 
" style="fill:none;stroke:#8c8c8c;stroke-linecap:round;stroke-width:1.5;"/>
    <defs>
     <path d="M 0 3 
C 0.795609 3 1.55874 2.683901 2.12132 2.12132 
C 2.683901 1.55874 3 0.795609 3 0 
C 3 -0.795609 2.683901 -1.55874 2.12132 -2.12132 
C 1.55874 -2.683901 0.795609 -3 0 -3 
C -0.795609 -3 -1.55874 -2.683901 -2.12132 -2.12132 
C -2.683901 -1.55874 -3 -0.795609 -3 0 
C -3 0.795609 -2.683901 1.55874 -2.12132 2.12132 
C -1.55874 2.683901 -0.795609 3 0 3 
z
" id="m32a100e765" style="stroke:#8c8c8c;"/>
    </defs>
    <g clip-path="url(#pc5510c1ae8)">
     <use style="fill:#8c8c8c;stroke:#8c8c8c;" x="76.967031" xlink:href="#m32a100e765" y="259.079879"/>
     <use style="fill:#8c8c8c;stroke:#8c8c8c;" x="92.158347" xlink:href="#m32a100e765" y="268.081645"/>
     <use style="fill:#8c8c8c;stroke:#8c8c8c;" x="107.349663" xlink:href="#m32a100e765" y="261.546683"/>
     <use style="fill:#8c8c8c;stroke:#8c8c8c;" x="122.540979" xlink:href="#m32a100e765" y="258.878613"/>
     <use style="fill:#8c8c8c;stroke:#8c8c8c;" x="137.732295" xlink:href="#m32a100e765" y="264.507986"/>
     <use style="fill:#8c8c8c;stroke:#8c8c8c;" x="152.923611" xlink:href="#m32a100e765" y="262.964045"/>
     <use style="fill:#8c8c8c;stroke:#8c8c8c;" x="168.114927" xlink:href="#m32a100e765" y="262.520902"/>
     <use style="fill:#8c8c8c;stroke:#8c8c8c;" x="183.306243" xlink:href="#m32a100e765" y="259.333073"/>
     <use style="fill:#8c8c8c;stroke:#8c8c8c;" x="198.497559" xlink:href="#m32a100e765" y="261.314473"/>
     <use style="fill:#8c8c8c;stroke:#8c8c8c;" x="213.688875" xlink:href="#m32a100e765" y="257.02499"/>
     <use style="fill:#8c8c8c;stroke:#8c8c8c;" x="228.880191" xlink:href="#m32a100e765" y="241.228459"/>
     <use style="fill:#8c8c8c;stroke:#8c8c8c;" x="244.071507" xlink:href="#m32a100e765" y="257.694361"/>
     <use style="fill:#8c8c8c;stroke:#8c8c8c;" x="259.262823" xlink:href="#m32a100e765" y="257.308212"/>
     <use style="fill:#8c8c8c;stroke:#8c8c8c;" x="274.454139" xlink:href="#m32a100e765" y="256.693155"/>
     <use style="fill:#8c8c8c;stroke:#8c8c8c;" x="289.645455" xlink:href="#m32a100e765" y="256.429176"/>
     <use style="fill:#8c8c8c;stroke:#8c8c8c;" x="304.836771" xlink:href="#m32a100e765" y="255.921229"/>
     <use style="fill:#8c8c8c;stroke:#8c8c8c;" x="320.028087" xlink:href="#m32a100e765" y="256.060015"/>
     <use style="fill:#8c8c8c;stroke:#8c8c8c;" x="335.219403" xlink:href="#m32a100e765" y="255.487033"/>
     <use style="fill:#8c8c8c;stroke:#8c8c8c;" x="350.410719" xlink:href="#m32a100e765" y="254.599985"/>
     <use style="fill:#8c8c8c;stroke:#8c8c8c;" x="365.602035" xlink:href="#m32a100e765" y="252.896134"/>
     <use style="fill:#8c8c8c;stroke:#8c8c8c;" x="380.793351" xlink:href="#m32a100e765" y="254.140964"/>
     <use style="fill:#8c8c8c;stroke:#8c8c8c;" x="395.984667" xlink:href="#m32a100e765" y="253.359095"/>
     <use style="fill:#8c8c8c;stroke:#8c8c8c;" x="411.175983" xlink:href="#m32a100e765" y="252.830951"/>
     <use style="fill:#8c8c8c;stroke:#8c8c8c;" x="426.367299" xlink:href="#m32a100e765" y="251.759685"/>
    </g>
   </g>
   <g id="line2d_18">
    <path clip-path="url(#pc5510c1ae8)" d="M 76.967031 242.910211 
L 92.158347 234.773184 
M 122.540979 230.050194 
M 183.306243 225.459543 
M 304.836771 219.804719 
" style="fill:none;stroke:#ccb974;stroke-linecap:round;stroke-width:1.5;"/>
    <defs>
     <path d="M 0 3 
C 0.795609 3 1.55874 2.683901 2.12132 2.12132 
C 2.683901 1.55874 3 0.795609 3 0 
C 3 -0.795609 2.683901 -1.55874 2.12132 -2.12132 
C 1.55874 -2.683901 0.795609 -3 0 -3 
C -0.795609 -3 -1.55874 -2.683901 -2.12132 -2.12132 
C -2.683901 -1.55874 -3 -0.795609 -3 0 
C -3 0.795609 -2.683901 1.55874 -2.12132 2.12132 
C -1.55874 2.683901 -0.795609 3 0 3 
z
" id="md6c74e147c" style="stroke:#ccb974;"/>
    </defs>
    <g clip-path="url(#pc5510c1ae8)">
     <use style="fill:#ccb974;stroke:#ccb974;" x="76.967031" xlink:href="#md6c74e147c" y="242.910211"/>
     <use style="fill:#ccb974;stroke:#ccb974;" x="92.158347" xlink:href="#md6c74e147c" y="234.773184"/>
     <use style="fill:#ccb974;stroke:#ccb974;" x="122.540979" xlink:href="#md6c74e147c" y="230.050194"/>
     <use style="fill:#ccb974;stroke:#ccb974;" x="183.306243" xlink:href="#md6c74e147c" y="225.459543"/>
     <use style="fill:#ccb974;stroke:#ccb974;" x="304.836771" xlink:href="#md6c74e147c" y="219.804719"/>
    </g>
   </g>
   <g id="line2d_19">
    <path clip-path="url(#pc5510c1ae8)" d="M 76.967031 282.723634 
L 92.158347 269.749864 
L 107.349663 266.449945 
L 122.540979 265.484299 
L 137.732295 264.539649 
L 152.923611 263.504966 
L 168.114927 262.392862 
L 183.306243 258.64779 
L 198.497559 258.334734 
L 213.688875 258.024409 
L 228.880191 257.175516 
L 244.071507 257.582541 
L 259.262823 257.014001 
L 274.454139 256.700415 
L 289.645455 256.099257 
L 304.836771 255.963874 
L 320.028087 255.758225 
L 335.219403 255.203966 
L 350.410719 255.179609 
L 365.602035 253.671117 
L 380.793351 253.498171 
L 395.984667 253.445126 
L 411.175983 253.501489 
L 426.367299 251.539199 
" style="fill:none;stroke:#64b5cd;stroke-linecap:round;stroke-width:1.5;"/>
    <defs>
     <path d="M 0 3 
C 0.795609 3 1.55874 2.683901 2.12132 2.12132 
C 2.683901 1.55874 3 0.795609 3 0 
C 3 -0.795609 2.683901 -1.55874 2.12132 -2.12132 
C 1.55874 -2.683901 0.795609 -3 0 -3 
C -0.795609 -3 -1.55874 -2.683901 -2.12132 -2.12132 
C -2.683901 -1.55874 -3 -0.795609 -3 0 
C -3 0.795609 -2.683901 1.55874 -2.12132 2.12132 
C -1.55874 2.683901 -0.795609 3 0 3 
z
" id="m45630f68f9" style="stroke:#64b5cd;"/>
    </defs>
    <g clip-path="url(#pc5510c1ae8)">
     <use style="fill:#64b5cd;stroke:#64b5cd;" x="76.967031" xlink:href="#m45630f68f9" y="282.723634"/>
     <use style="fill:#64b5cd;stroke:#64b5cd;" x="92.158347" xlink:href="#m45630f68f9" y="269.749864"/>
     <use style="fill:#64b5cd;stroke:#64b5cd;" x="107.349663" xlink:href="#m45630f68f9" y="266.449945"/>
     <use style="fill:#64b5cd;stroke:#64b5cd;" x="122.540979" xlink:href="#m45630f68f9" y="265.484299"/>
     <use style="fill:#64b5cd;stroke:#64b5cd;" x="137.732295" xlink:href="#m45630f68f9" y="264.539649"/>
     <use style="fill:#64b5cd;stroke:#64b5cd;" x="152.923611" xlink:href="#m45630f68f9" y="263.504966"/>
     <use style="fill:#64b5cd;stroke:#64b5cd;" x="168.114927" xlink:href="#m45630f68f9" y="262.392862"/>
     <use style="fill:#64b5cd;stroke:#64b5cd;" x="183.306243" xlink:href="#m45630f68f9" y="258.64779"/>
     <use style="fill:#64b5cd;stroke:#64b5cd;" x="198.497559" xlink:href="#m45630f68f9" y="258.334734"/>
     <use style="fill:#64b5cd;stroke:#64b5cd;" x="213.688875" xlink:href="#m45630f68f9" y="258.024409"/>
     <use style="fill:#64b5cd;stroke:#64b5cd;" x="228.880191" xlink:href="#m45630f68f9" y="257.175516"/>
     <use style="fill:#64b5cd;stroke:#64b5cd;" x="244.071507" xlink:href="#m45630f68f9" y="257.582541"/>
     <use style="fill:#64b5cd;stroke:#64b5cd;" x="259.262823" xlink:href="#m45630f68f9" y="257.014001"/>
     <use style="fill:#64b5cd;stroke:#64b5cd;" x="274.454139" xlink:href="#m45630f68f9" y="256.700415"/>
     <use style="fill:#64b5cd;stroke:#64b5cd;" x="289.645455" xlink:href="#m45630f68f9" y="256.099257"/>
     <use style="fill:#64b5cd;stroke:#64b5cd;" x="304.836771" xlink:href="#m45630f68f9" y="255.963874"/>
     <use style="fill:#64b5cd;stroke:#64b5cd;" x="320.028087" xlink:href="#m45630f68f9" y="255.758225"/>
     <use style="fill:#64b5cd;stroke:#64b5cd;" x="335.219403" xlink:href="#m45630f68f9" y="255.203966"/>
     <use style="fill:#64b5cd;stroke:#64b5cd;" x="350.410719" xlink:href="#m45630f68f9" y="255.179609"/>
     <use style="fill:#64b5cd;stroke:#64b5cd;" x="365.602035" xlink:href="#m45630f68f9" y="253.671117"/>
     <use style="fill:#64b5cd;stroke:#64b5cd;" x="380.793351" xlink:href="#m45630f68f9" y="253.498171"/>
     <use style="fill:#64b5cd;stroke:#64b5cd;" x="395.984667" xlink:href="#m45630f68f9" y="253.445126"/>
     <use style="fill:#64b5cd;stroke:#64b5cd;" x="411.175983" xlink:href="#m45630f68f9" y="253.501489"/>
     <use style="fill:#64b5cd;stroke:#64b5cd;" x="426.367299" xlink:href="#m45630f68f9" y="251.539199"/>
    </g>
   </g>
   <g id="patch_3">
    <path d="M 59.497017 298.26 
L 59.497017 27.65625 
" style="fill:none;stroke:#ffffff;stroke-linecap:square;stroke-linejoin:miter;stroke-width:1.25;"/>
   </g>
   <g id="patch_4">
    <path d="M 443.837312 298.26 
L 443.837312 27.65625 
" style="fill:none;stroke:#ffffff;stroke-linecap:square;stroke-linejoin:miter;stroke-width:1.25;"/>
   </g>
   <g id="patch_5">
    <path d="M 59.497017 298.26 
L 443.837312 298.26 
" style="fill:none;stroke:#ffffff;stroke-linecap:square;stroke-linejoin:miter;stroke-width:1.25;"/>
   </g>
   <g id="patch_6">
    <path d="M 59.497017 27.65625 
L 443.837312 27.65625 
" style="fill:none;stroke:#ffffff;stroke-linecap:square;stroke-linejoin:miter;stroke-width:1.25;"/>
   </g>
   <g id="text_12">
    <!-- Runtime (512 vector size) -->
    <g style="fill:#262626;" transform="translate(183.313102 21.65625)scale(0.12 -0.12)">
     <defs>
      <path d="M 1344 0 
L 81 3319 
L 675 3319 
L 1388 1331 
Q 1503 1009 1600 663 
Q 1675 925 1809 1294 
L 2547 3319 
L 3125 3319 
L 1869 0 
L 1344 0 
z
" id="ArialMT-76" transform="scale(0.015625)"/>
      <path d="M 125 0 
L 125 456 
L 2238 2881 
Q 1878 2863 1603 2863 
L 250 2863 
L 250 3319 
L 2963 3319 
L 2963 2947 
L 1166 841 
L 819 456 
Q 1197 484 1528 484 
L 3063 484 
L 3063 0 
L 125 0 
z
" id="ArialMT-7a" transform="scale(0.015625)"/>
     </defs>
     <use xlink:href="#ArialMT-52"/>
     <use x="72.216797" xlink:href="#ArialMT-75"/>
     <use x="127.832031" xlink:href="#ArialMT-6e"/>
     <use x="183.447266" xlink:href="#ArialMT-74"/>
     <use x="211.230469" xlink:href="#ArialMT-69"/>
     <use x="233.447266" xlink:href="#ArialMT-6d"/>
     <use x="316.748047" xlink:href="#ArialMT-65"/>
     <use x="372.363281" xlink:href="#ArialMT-20"/>
     <use x="400.146484" xlink:href="#ArialMT-28"/>
     <use x="433.447266" xlink:href="#ArialMT-35"/>
     <use x="489.0625" xlink:href="#ArialMT-31"/>
     <use x="544.677734" xlink:href="#ArialMT-32"/>
     <use x="600.292969" xlink:href="#ArialMT-20"/>
     <use x="628.076172" xlink:href="#ArialMT-76"/>
     <use x="678.076172" xlink:href="#ArialMT-65"/>
     <use x="733.691406" xlink:href="#ArialMT-63"/>
     <use x="783.691406" xlink:href="#ArialMT-74"/>
     <use x="811.474609" xlink:href="#ArialMT-6f"/>
     <use x="867.089844" xlink:href="#ArialMT-72"/>
     <use x="900.390625" xlink:href="#ArialMT-20"/>
     <use x="928.173828" xlink:href="#ArialMT-73"/>
     <use x="978.173828" xlink:href="#ArialMT-69"/>
     <use x="1000.390625" xlink:href="#ArialMT-7a"/>
     <use x="1050.390625" xlink:href="#ArialMT-65"/>
     <use x="1106.005859" xlink:href="#ArialMT-29"/>
    </g>
   </g>
   <g id="legend_1">
    <g id="patch_7">
     <path d="M 67.197017 209.436562 
L 276.037173 209.436562 
Q 278.237173 209.436562 278.237173 207.236562 
L 278.237173 35.35625 
Q 278.237173 33.15625 276.037173 33.15625 
L 67.197017 33.15625 
Q 64.997017 33.15625 64.997017 35.35625 
L 64.997017 207.236562 
Q 64.997017 209.436562 67.197017 209.436562 
z
" style="fill:#eaeaf2;opacity:0.8;stroke:#cccccc;stroke-linejoin:miter;"/>
    </g>
    <g id="text_13">
     <!-- implementation -->
     <g style="fill:#262626;" transform="translate(130.932408 46.145625)scale(0.12 -0.12)">
      <defs>
       <path d="M 409 0 
L 409 4581 
L 972 4581 
L 972 0 
L 409 0 
z
" id="ArialMT-6c" transform="scale(0.015625)"/>
       <path d="M 2588 409 
Q 2275 144 1986 34 
Q 1697 -75 1366 -75 
Q 819 -75 525 192 
Q 231 459 231 875 
Q 231 1119 342 1320 
Q 453 1522 633 1644 
Q 813 1766 1038 1828 
Q 1203 1872 1538 1913 
Q 2219 1994 2541 2106 
Q 2544 2222 2544 2253 
Q 2544 2597 2384 2738 
Q 2169 2928 1744 2928 
Q 1347 2928 1158 2789 
Q 969 2650 878 2297 
L 328 2372 
Q 403 2725 575 2942 
Q 747 3159 1072 3276 
Q 1397 3394 1825 3394 
Q 2250 3394 2515 3294 
Q 2781 3194 2906 3042 
Q 3031 2891 3081 2659 
Q 3109 2516 3109 2141 
L 3109 1391 
Q 3109 606 3145 398 
Q 3181 191 3288 0 
L 2700 0 
Q 2613 175 2588 409 
z
M 2541 1666 
Q 2234 1541 1622 1453 
Q 1275 1403 1131 1340 
Q 988 1278 909 1158 
Q 831 1038 831 891 
Q 831 666 1001 516 
Q 1172 366 1500 366 
Q 1825 366 2078 508 
Q 2331 650 2450 897 
Q 2541 1088 2541 1459 
L 2541 1666 
z
" id="ArialMT-61" transform="scale(0.015625)"/>
      </defs>
      <use xlink:href="#ArialMT-69"/>
      <use x="22.216797" xlink:href="#ArialMT-6d"/>
      <use x="105.517578" xlink:href="#ArialMT-70"/>
      <use x="161.132812" xlink:href="#ArialMT-6c"/>
      <use x="183.349609" xlink:href="#ArialMT-65"/>
      <use x="238.964844" xlink:href="#ArialMT-6d"/>
      <use x="322.265625" xlink:href="#ArialMT-65"/>
      <use x="377.880859" xlink:href="#ArialMT-6e"/>
      <use x="433.496094" xlink:href="#ArialMT-74"/>
      <use x="461.279297" xlink:href="#ArialMT-61"/>
      <use x="516.894531" xlink:href="#ArialMT-74"/>
      <use x="544.677734" xlink:href="#ArialMT-69"/>
      <use x="566.894531" xlink:href="#ArialMT-6f"/>
      <use x="622.509766" xlink:href="#ArialMT-6e"/>
     </g>
    </g>
    <g id="line2d_20">
     <path d="M 69.397017 58.054219 
L 91.397017 58.054219 
" style="fill:none;stroke:#4c72b0;stroke-linecap:round;stroke-width:1.5;"/>
    </g>
    <g id="line2d_21">
     <g>
      <use style="fill:#4c72b0;stroke:#4c72b0;" x="80.397017" xlink:href="#m42265179d9" y="58.054219"/>
     </g>
    </g>
    <g id="text_14">
     <!-- allreduce -->
     <g style="fill:#262626;" transform="translate(100.197017 61.904219)scale(0.11 -0.11)">
      <defs>
       <path d="M 2575 0 
L 2575 419 
Q 2259 -75 1647 -75 
Q 1250 -75 917 144 
Q 584 363 401 755 
Q 219 1147 219 1656 
Q 219 2153 384 2558 
Q 550 2963 881 3178 
Q 1213 3394 1622 3394 
Q 1922 3394 2156 3267 
Q 2391 3141 2538 2938 
L 2538 4581 
L 3097 4581 
L 3097 0 
L 2575 0 
z
M 797 1656 
Q 797 1019 1065 703 
Q 1334 388 1700 388 
Q 2069 388 2326 689 
Q 2584 991 2584 1609 
Q 2584 2291 2321 2609 
Q 2059 2928 1675 2928 
Q 1300 2928 1048 2622 
Q 797 2316 797 1656 
z
" id="ArialMT-64" transform="scale(0.015625)"/>
      </defs>
      <use xlink:href="#ArialMT-61"/>
      <use x="55.615234" xlink:href="#ArialMT-6c"/>
      <use x="77.832031" xlink:href="#ArialMT-6c"/>
      <use x="100.048828" xlink:href="#ArialMT-72"/>
      <use x="133.349609" xlink:href="#ArialMT-65"/>
      <use x="188.964844" xlink:href="#ArialMT-64"/>
      <use x="244.580078" xlink:href="#ArialMT-75"/>
      <use x="300.195312" xlink:href="#ArialMT-63"/>
      <use x="350.195312" xlink:href="#ArialMT-65"/>
     </g>
    </g>
    <g id="line2d_22">
     <path d="M 69.397017 73.748125 
L 91.397017 73.748125 
" style="fill:none;stroke:#dd8452;stroke-linecap:round;stroke-width:1.5;"/>
    </g>
    <g id="line2d_23">
     <g>
      <use style="fill:#dd8452;stroke:#dd8452;" x="80.397017" xlink:href="#m6cf11e255f" y="73.748125"/>
     </g>
    </g>
    <g id="text_15">
     <!-- allreduce-butterfly -->
     <g style="fill:#262626;" transform="translate(100.197017 77.598125)scale(0.11 -0.11)">
      <defs>
       <path d="M 203 1375 
L 203 1941 
L 1931 1941 
L 1931 1375 
L 203 1375 
z
" id="ArialMT-2d" transform="scale(0.015625)"/>
       <path d="M 397 -1278 
L 334 -750 
Q 519 -800 656 -800 
Q 844 -800 956 -737 
Q 1069 -675 1141 -563 
Q 1194 -478 1313 -144 
Q 1328 -97 1363 -6 
L 103 3319 
L 709 3319 
L 1400 1397 
Q 1534 1031 1641 628 
Q 1738 1016 1872 1384 
L 2581 3319 
L 3144 3319 
L 1881 -56 
Q 1678 -603 1566 -809 
Q 1416 -1088 1222 -1217 
Q 1028 -1347 759 -1347 
Q 597 -1347 397 -1278 
z
" id="ArialMT-79" transform="scale(0.015625)"/>
      </defs>
      <use xlink:href="#ArialMT-61"/>
      <use x="55.615234" xlink:href="#ArialMT-6c"/>
      <use x="77.832031" xlink:href="#ArialMT-6c"/>
      <use x="100.048828" xlink:href="#ArialMT-72"/>
      <use x="133.349609" xlink:href="#ArialMT-65"/>
      <use x="188.964844" xlink:href="#ArialMT-64"/>
      <use x="244.580078" xlink:href="#ArialMT-75"/>
      <use x="300.195312" xlink:href="#ArialMT-63"/>
      <use x="350.195312" xlink:href="#ArialMT-65"/>
      <use x="405.810547" xlink:href="#ArialMT-2d"/>
      <use x="439.111328" xlink:href="#ArialMT-62"/>
      <use x="494.726562" xlink:href="#ArialMT-75"/>
      <use x="550.341797" xlink:href="#ArialMT-74"/>
      <use x="578.125" xlink:href="#ArialMT-74"/>
      <use x="605.908203" xlink:href="#ArialMT-65"/>
      <use x="661.523438" xlink:href="#ArialMT-72"/>
      <use x="694.824219" xlink:href="#ArialMT-66"/>
      <use x="722.607422" xlink:href="#ArialMT-6c"/>
      <use x="744.824219" xlink:href="#ArialMT-79"/>
     </g>
    </g>
    <g id="line2d_24">
     <path d="M 69.397017 89.436875 
L 91.397017 89.436875 
" style="fill:none;stroke:#55a868;stroke-linecap:round;stroke-width:1.5;"/>
    </g>
    <g id="line2d_25">
     <g>
      <use style="fill:#55a868;stroke:#55a868;" x="80.397017" xlink:href="#ma278c63f4e" y="89.436875"/>
     </g>
    </g>
    <g id="text_16">
     <!-- allreduce-native-basic_linear -->
     <g style="fill:#262626;" transform="translate(100.197017 93.286875)scale(0.11 -0.11)">
      <defs>
       <path d="M -97 -1272 
L -97 -866 
L 3631 -866 
L 3631 -1272 
L -97 -1272 
z
" id="ArialMT-5f" transform="scale(0.015625)"/>
      </defs>
      <use xlink:href="#ArialMT-61"/>
      <use x="55.615234" xlink:href="#ArialMT-6c"/>
      <use x="77.832031" xlink:href="#ArialMT-6c"/>
      <use x="100.048828" xlink:href="#ArialMT-72"/>
      <use x="133.349609" xlink:href="#ArialMT-65"/>
      <use x="188.964844" xlink:href="#ArialMT-64"/>
      <use x="244.580078" xlink:href="#ArialMT-75"/>
      <use x="300.195312" xlink:href="#ArialMT-63"/>
      <use x="350.195312" xlink:href="#ArialMT-65"/>
      <use x="405.810547" xlink:href="#ArialMT-2d"/>
      <use x="439.111328" xlink:href="#ArialMT-6e"/>
      <use x="494.726562" xlink:href="#ArialMT-61"/>
      <use x="550.341797" xlink:href="#ArialMT-74"/>
      <use x="578.125" xlink:href="#ArialMT-69"/>
      <use x="600.341797" xlink:href="#ArialMT-76"/>
      <use x="650.341797" xlink:href="#ArialMT-65"/>
      <use x="705.957031" xlink:href="#ArialMT-2d"/>
      <use x="739.257812" xlink:href="#ArialMT-62"/>
      <use x="794.873047" xlink:href="#ArialMT-61"/>
      <use x="850.488281" xlink:href="#ArialMT-73"/>
      <use x="900.488281" xlink:href="#ArialMT-69"/>
      <use x="922.705078" xlink:href="#ArialMT-63"/>
      <use x="972.705078" xlink:href="#ArialMT-5f"/>
      <use x="1028.320312" xlink:href="#ArialMT-6c"/>
      <use x="1050.537109" xlink:href="#ArialMT-69"/>
      <use x="1072.753906" xlink:href="#ArialMT-6e"/>
      <use x="1128.369141" xlink:href="#ArialMT-65"/>
      <use x="1183.984375" xlink:href="#ArialMT-61"/>
      <use x="1239.599609" xlink:href="#ArialMT-72"/>
     </g>
    </g>
    <g id="line2d_26">
     <path d="M 69.397017 104.996719 
L 91.397017 104.996719 
" style="fill:none;stroke:#c44e52;stroke-linecap:round;stroke-width:1.5;"/>
    </g>
    <g id="line2d_27">
     <g>
      <use style="fill:#c44e52;stroke:#c44e52;" x="80.397017" xlink:href="#m05a4dbd8e8" y="104.996719"/>
     </g>
    </g>
    <g id="text_17">
     <!-- allreduce-native-nonoverlapping -->
     <g style="fill:#262626;" transform="translate(100.197017 108.846719)scale(0.11 -0.11)">
      <defs>
       <path d="M 319 -275 
L 866 -356 
Q 900 -609 1056 -725 
Q 1266 -881 1628 -881 
Q 2019 -881 2231 -725 
Q 2444 -569 2519 -288 
Q 2563 -116 2559 434 
Q 2191 0 1641 0 
Q 956 0 581 494 
Q 206 988 206 1678 
Q 206 2153 378 2554 
Q 550 2956 876 3175 
Q 1203 3394 1644 3394 
Q 2231 3394 2613 2919 
L 2613 3319 
L 3131 3319 
L 3131 450 
Q 3131 -325 2973 -648 
Q 2816 -972 2473 -1159 
Q 2131 -1347 1631 -1347 
Q 1038 -1347 672 -1080 
Q 306 -813 319 -275 
z
M 784 1719 
Q 784 1066 1043 766 
Q 1303 466 1694 466 
Q 2081 466 2343 764 
Q 2606 1063 2606 1700 
Q 2606 2309 2336 2618 
Q 2066 2928 1684 2928 
Q 1309 2928 1046 2623 
Q 784 2319 784 1719 
z
" id="ArialMT-67" transform="scale(0.015625)"/>
      </defs>
      <use xlink:href="#ArialMT-61"/>
      <use x="55.615234" xlink:href="#ArialMT-6c"/>
      <use x="77.832031" xlink:href="#ArialMT-6c"/>
      <use x="100.048828" xlink:href="#ArialMT-72"/>
      <use x="133.349609" xlink:href="#ArialMT-65"/>
      <use x="188.964844" xlink:href="#ArialMT-64"/>
      <use x="244.580078" xlink:href="#ArialMT-75"/>
      <use x="300.195312" xlink:href="#ArialMT-63"/>
      <use x="350.195312" xlink:href="#ArialMT-65"/>
      <use x="405.810547" xlink:href="#ArialMT-2d"/>
      <use x="439.111328" xlink:href="#ArialMT-6e"/>
      <use x="494.726562" xlink:href="#ArialMT-61"/>
      <use x="550.341797" xlink:href="#ArialMT-74"/>
      <use x="578.125" xlink:href="#ArialMT-69"/>
      <use x="600.341797" xlink:href="#ArialMT-76"/>
      <use x="650.341797" xlink:href="#ArialMT-65"/>
      <use x="705.957031" xlink:href="#ArialMT-2d"/>
      <use x="739.257812" xlink:href="#ArialMT-6e"/>
      <use x="794.873047" xlink:href="#ArialMT-6f"/>
      <use x="850.488281" xlink:href="#ArialMT-6e"/>
      <use x="906.103516" xlink:href="#ArialMT-6f"/>
      <use x="961.71875" xlink:href="#ArialMT-76"/>
      <use x="1011.71875" xlink:href="#ArialMT-65"/>
      <use x="1067.333984" xlink:href="#ArialMT-72"/>
      <use x="1100.634766" xlink:href="#ArialMT-6c"/>
      <use x="1122.851562" xlink:href="#ArialMT-61"/>
      <use x="1178.466797" xlink:href="#ArialMT-70"/>
      <use x="1234.082031" xlink:href="#ArialMT-70"/>
      <use x="1289.697266" xlink:href="#ArialMT-69"/>
      <use x="1311.914062" xlink:href="#ArialMT-6e"/>
      <use x="1367.529297" xlink:href="#ArialMT-67"/>
     </g>
    </g>
    <g id="line2d_28">
     <path d="M 69.397017 120.685469 
L 91.397017 120.685469 
" style="fill:none;stroke:#8172b3;stroke-linecap:round;stroke-width:1.5;"/>
    </g>
    <g id="line2d_29">
     <g>
      <use style="fill:#8172b3;stroke:#8172b3;" x="80.397017" xlink:href="#m38d31eb4c0" y="120.685469"/>
     </g>
    </g>
    <g id="text_18">
     <!-- allreduce-native-rabenseifner -->
     <g style="fill:#262626;" transform="translate(100.197017 124.535469)scale(0.11 -0.11)">
      <use xlink:href="#ArialMT-61"/>
      <use x="55.615234" xlink:href="#ArialMT-6c"/>
      <use x="77.832031" xlink:href="#ArialMT-6c"/>
      <use x="100.048828" xlink:href="#ArialMT-72"/>
      <use x="133.349609" xlink:href="#ArialMT-65"/>
      <use x="188.964844" xlink:href="#ArialMT-64"/>
      <use x="244.580078" xlink:href="#ArialMT-75"/>
      <use x="300.195312" xlink:href="#ArialMT-63"/>
      <use x="350.195312" xlink:href="#ArialMT-65"/>
      <use x="405.810547" xlink:href="#ArialMT-2d"/>
      <use x="439.111328" xlink:href="#ArialMT-6e"/>
      <use x="494.726562" xlink:href="#ArialMT-61"/>
      <use x="550.341797" xlink:href="#ArialMT-74"/>
      <use x="578.125" xlink:href="#ArialMT-69"/>
      <use x="600.341797" xlink:href="#ArialMT-76"/>
      <use x="650.341797" xlink:href="#ArialMT-65"/>
      <use x="705.957031" xlink:href="#ArialMT-2d"/>
      <use x="739.257812" xlink:href="#ArialMT-72"/>
      <use x="772.558594" xlink:href="#ArialMT-61"/>
      <use x="828.173828" xlink:href="#ArialMT-62"/>
      <use x="883.789062" xlink:href="#ArialMT-65"/>
      <use x="939.404297" xlink:href="#ArialMT-6e"/>
      <use x="995.019531" xlink:href="#ArialMT-73"/>
      <use x="1045.019531" xlink:href="#ArialMT-65"/>
      <use x="1100.634766" xlink:href="#ArialMT-69"/>
      <use x="1122.851562" xlink:href="#ArialMT-66"/>
      <use x="1150.634766" xlink:href="#ArialMT-6e"/>
      <use x="1206.25" xlink:href="#ArialMT-65"/>
      <use x="1261.865234" xlink:href="#ArialMT-72"/>
     </g>
    </g>
    <g id="line2d_30">
     <path d="M 69.397017 136.245312 
L 91.397017 136.245312 
" style="fill:none;stroke:#937860;stroke-linecap:round;stroke-width:1.5;"/>
    </g>
    <g id="line2d_31">
     <g>
      <use style="fill:#937860;stroke:#937860;" x="80.397017" xlink:href="#m0d3ead22ad" y="136.245312"/>
     </g>
    </g>
    <g id="text_19">
     <!-- allreduce-native-recursive_doubling -->
     <g style="fill:#262626;" transform="translate(100.197017 140.095312)scale(0.11 -0.11)">
      <use xlink:href="#ArialMT-61"/>
      <use x="55.615234" xlink:href="#ArialMT-6c"/>
      <use x="77.832031" xlink:href="#ArialMT-6c"/>
      <use x="100.048828" xlink:href="#ArialMT-72"/>
      <use x="133.349609" xlink:href="#ArialMT-65"/>
      <use x="188.964844" xlink:href="#ArialMT-64"/>
      <use x="244.580078" xlink:href="#ArialMT-75"/>
      <use x="300.195312" xlink:href="#ArialMT-63"/>
      <use x="350.195312" xlink:href="#ArialMT-65"/>
      <use x="405.810547" xlink:href="#ArialMT-2d"/>
      <use x="439.111328" xlink:href="#ArialMT-6e"/>
      <use x="494.726562" xlink:href="#ArialMT-61"/>
      <use x="550.341797" xlink:href="#ArialMT-74"/>
      <use x="578.125" xlink:href="#ArialMT-69"/>
      <use x="600.341797" xlink:href="#ArialMT-76"/>
      <use x="650.341797" xlink:href="#ArialMT-65"/>
      <use x="705.957031" xlink:href="#ArialMT-2d"/>
      <use x="739.257812" xlink:href="#ArialMT-72"/>
      <use x="772.558594" xlink:href="#ArialMT-65"/>
      <use x="828.173828" xlink:href="#ArialMT-63"/>
      <use x="878.173828" xlink:href="#ArialMT-75"/>
      <use x="933.789062" xlink:href="#ArialMT-72"/>
      <use x="967.089844" xlink:href="#ArialMT-73"/>
      <use x="1017.089844" xlink:href="#ArialMT-69"/>
      <use x="1039.306641" xlink:href="#ArialMT-76"/>
      <use x="1089.306641" xlink:href="#ArialMT-65"/>
      <use x="1144.921875" xlink:href="#ArialMT-5f"/>
      <use x="1200.537109" xlink:href="#ArialMT-64"/>
      <use x="1256.152344" xlink:href="#ArialMT-6f"/>
      <use x="1311.767578" xlink:href="#ArialMT-75"/>
      <use x="1367.382812" xlink:href="#ArialMT-62"/>
      <use x="1422.998047" xlink:href="#ArialMT-6c"/>
      <use x="1445.214844" xlink:href="#ArialMT-69"/>
      <use x="1467.431641" xlink:href="#ArialMT-6e"/>
      <use x="1523.046875" xlink:href="#ArialMT-67"/>
     </g>
    </g>
    <g id="line2d_32">
     <path d="M 69.397017 151.934063 
L 91.397017 151.934063 
" style="fill:none;stroke:#da8bc3;stroke-linecap:round;stroke-width:1.5;"/>
    </g>
    <g id="line2d_33">
     <g>
      <use style="fill:#da8bc3;stroke:#da8bc3;" x="80.397017" xlink:href="#m7f8e8889f9" y="151.934063"/>
     </g>
    </g>
    <g id="text_20">
     <!-- allreduce-native-ring -->
     <g style="fill:#262626;" transform="translate(100.197017 155.784063)scale(0.11 -0.11)">
      <use xlink:href="#ArialMT-61"/>
      <use x="55.615234" xlink:href="#ArialMT-6c"/>
      <use x="77.832031" xlink:href="#ArialMT-6c"/>
      <use x="100.048828" xlink:href="#ArialMT-72"/>
      <use x="133.349609" xlink:href="#ArialMT-65"/>
      <use x="188.964844" xlink:href="#ArialMT-64"/>
      <use x="244.580078" xlink:href="#ArialMT-75"/>
      <use x="300.195312" xlink:href="#ArialMT-63"/>
      <use x="350.195312" xlink:href="#ArialMT-65"/>
      <use x="405.810547" xlink:href="#ArialMT-2d"/>
      <use x="439.111328" xlink:href="#ArialMT-6e"/>
      <use x="494.726562" xlink:href="#ArialMT-61"/>
      <use x="550.341797" xlink:href="#ArialMT-74"/>
      <use x="578.125" xlink:href="#ArialMT-69"/>
      <use x="600.341797" xlink:href="#ArialMT-76"/>
      <use x="650.341797" xlink:href="#ArialMT-65"/>
      <use x="705.957031" xlink:href="#ArialMT-2d"/>
      <use x="739.257812" xlink:href="#ArialMT-72"/>
      <use x="772.558594" xlink:href="#ArialMT-69"/>
      <use x="794.775391" xlink:href="#ArialMT-6e"/>
      <use x="850.390625" xlink:href="#ArialMT-67"/>
     </g>
    </g>
    <g id="line2d_34">
     <path d="M 69.397017 167.622812 
L 91.397017 167.622812 
" style="fill:none;stroke:#8c8c8c;stroke-linecap:round;stroke-width:1.5;"/>
    </g>
    <g id="line2d_35">
     <g>
      <use style="fill:#8c8c8c;stroke:#8c8c8c;" x="80.397017" xlink:href="#m32a100e765" y="167.622812"/>
     </g>
    </g>
    <g id="text_21">
     <!-- allreduce-native-segmented_ring -->
     <g style="fill:#262626;" transform="translate(100.197017 171.472812)scale(0.11 -0.11)">
      <use xlink:href="#ArialMT-61"/>
      <use x="55.615234" xlink:href="#ArialMT-6c"/>
      <use x="77.832031" xlink:href="#ArialMT-6c"/>
      <use x="100.048828" xlink:href="#ArialMT-72"/>
      <use x="133.349609" xlink:href="#ArialMT-65"/>
      <use x="188.964844" xlink:href="#ArialMT-64"/>
      <use x="244.580078" xlink:href="#ArialMT-75"/>
      <use x="300.195312" xlink:href="#ArialMT-63"/>
      <use x="350.195312" xlink:href="#ArialMT-65"/>
      <use x="405.810547" xlink:href="#ArialMT-2d"/>
      <use x="439.111328" xlink:href="#ArialMT-6e"/>
      <use x="494.726562" xlink:href="#ArialMT-61"/>
      <use x="550.341797" xlink:href="#ArialMT-74"/>
      <use x="578.125" xlink:href="#ArialMT-69"/>
      <use x="600.341797" xlink:href="#ArialMT-76"/>
      <use x="650.341797" xlink:href="#ArialMT-65"/>
      <use x="705.957031" xlink:href="#ArialMT-2d"/>
      <use x="739.257812" xlink:href="#ArialMT-73"/>
      <use x="789.257812" xlink:href="#ArialMT-65"/>
      <use x="844.873047" xlink:href="#ArialMT-67"/>
      <use x="900.488281" xlink:href="#ArialMT-6d"/>
      <use x="983.789062" xlink:href="#ArialMT-65"/>
      <use x="1039.404297" xlink:href="#ArialMT-6e"/>
      <use x="1095.019531" xlink:href="#ArialMT-74"/>
      <use x="1122.802734" xlink:href="#ArialMT-65"/>
      <use x="1178.417969" xlink:href="#ArialMT-64"/>
      <use x="1234.033203" xlink:href="#ArialMT-5f"/>
      <use x="1289.648438" xlink:href="#ArialMT-72"/>
      <use x="1322.949219" xlink:href="#ArialMT-69"/>
      <use x="1345.166016" xlink:href="#ArialMT-6e"/>
      <use x="1400.78125" xlink:href="#ArialMT-67"/>
     </g>
    </g>
    <g id="line2d_36">
     <path d="M 69.397017 183.311563 
L 91.397017 183.311563 
" style="fill:none;stroke:#ccb974;stroke-linecap:round;stroke-width:1.5;"/>
    </g>
    <g id="line2d_37">
     <g>
      <use style="fill:#ccb974;stroke:#ccb974;" x="80.397017" xlink:href="#md6c74e147c" y="183.311563"/>
     </g>
    </g>
    <g id="text_22">
     <!-- allreduce-rabenseifner -->
     <g style="fill:#262626;" transform="translate(100.197017 187.161563)scale(0.11 -0.11)">
      <use xlink:href="#ArialMT-61"/>
      <use x="55.615234" xlink:href="#ArialMT-6c"/>
      <use x="77.832031" xlink:href="#ArialMT-6c"/>
      <use x="100.048828" xlink:href="#ArialMT-72"/>
      <use x="133.349609" xlink:href="#ArialMT-65"/>
      <use x="188.964844" xlink:href="#ArialMT-64"/>
      <use x="244.580078" xlink:href="#ArialMT-75"/>
      <use x="300.195312" xlink:href="#ArialMT-63"/>
      <use x="350.195312" xlink:href="#ArialMT-65"/>
      <use x="405.810547" xlink:href="#ArialMT-2d"/>
      <use x="439.111328" xlink:href="#ArialMT-72"/>
      <use x="472.412109" xlink:href="#ArialMT-61"/>
      <use x="528.027344" xlink:href="#ArialMT-62"/>
      <use x="583.642578" xlink:href="#ArialMT-65"/>
      <use x="639.257812" xlink:href="#ArialMT-6e"/>
      <use x="694.873047" xlink:href="#ArialMT-73"/>
      <use x="744.873047" xlink:href="#ArialMT-65"/>
      <use x="800.488281" xlink:href="#ArialMT-69"/>
      <use x="822.705078" xlink:href="#ArialMT-66"/>
      <use x="850.488281" xlink:href="#ArialMT-6e"/>
      <use x="906.103516" xlink:href="#ArialMT-65"/>
      <use x="961.71875" xlink:href="#ArialMT-72"/>
     </g>
    </g>
    <g id="line2d_38">
     <path d="M 69.397017 198.871406 
L 91.397017 198.871406 
" style="fill:none;stroke:#64b5cd;stroke-linecap:round;stroke-width:1.5;"/>
    </g>
    <g id="line2d_39">
     <g>
      <use style="fill:#64b5cd;stroke:#64b5cd;" x="80.397017" xlink:href="#m45630f68f9" y="198.871406"/>
     </g>
    </g>
    <g id="text_23">
     <!-- allreduce-ring -->
     <g style="fill:#262626;" transform="translate(100.197017 202.721406)scale(0.11 -0.11)">
      <use xlink:href="#ArialMT-61"/>
      <use x="55.615234" xlink:href="#ArialMT-6c"/>
      <use x="77.832031" xlink:href="#ArialMT-6c"/>
      <use x="100.048828" xlink:href="#ArialMT-72"/>
      <use x="133.349609" xlink:href="#ArialMT-65"/>
      <use x="188.964844" xlink:href="#ArialMT-64"/>
      <use x="244.580078" xlink:href="#ArialMT-75"/>
      <use x="300.195312" xlink:href="#ArialMT-63"/>
      <use x="350.195312" xlink:href="#ArialMT-65"/>
      <use x="405.810547" xlink:href="#ArialMT-2d"/>
      <use x="439.111328" xlink:href="#ArialMT-72"/>
      <use x="472.412109" xlink:href="#ArialMT-69"/>
      <use x="494.628906" xlink:href="#ArialMT-6e"/>
      <use x="550.244141" xlink:href="#ArialMT-67"/>
     </g>
    </g>
   </g>
  </g>
 </g>
 <defs>
  <clipPath id="pc5510c1ae8">
   <rect height="270.60375" width="384.340295" x="59.497017" y="27.65625"/>
  </clipPath>
 </defs>
</svg>
