<?xml version="1.0" encoding="utf-8" standalone="no"?>
<!DOCTYPE svg PUBLIC "-//W3C//DTD SVG 1.1//EN"
  "http://www.w3.org/Graphics/SVG/1.1/DTD/svg11.dtd">
<svg height="345.6pt" version="1.1" viewBox="0 0 460.8 345.6" width="460.8pt" xmlns="http://www.w3.org/2000/svg" xmlns:xlink="http://www.w3.org/1999/xlink">
 <metadata>
  <rdf:RDF xmlns:cc="http://creativecommons.org/ns#" xmlns:dc="http://purl.org/dc/elements/1.1/" xmlns:rdf="http://www.w3.org/1999/02/22-rdf-syntax-ns#">
   <cc:Work>
    <dc:type rdf:resource="http://purl.org/dc/dcmitype/StillImage"/>
    <dc:date>2021-11-20T20:49:42.802314</dc:date>
    <dc:format>image/svg+xml</dc:format>
    <dc:creator>
     <cc:Agent>
      <dc:title>Matplotlib v3.4.3, https://matplotlib.org/</dc:title>
     </cc:Agent>
    </dc:creator>
   </cc:Work>
  </rdf:RDF>
 </metadata>
 <defs>
  <style type="text/css">*{stroke-linecap:butt;stroke-linejoin:round;}</style>
 </defs>
 <g id="figure_1">
  <g id="patch_1">
   <path d="M 0 345.6 
L 460.8 345.6 
L 460.8 0 
L 0 0 
z
" style="fill:#ffffff;"/>
  </g>
  <g id="axes_1">
   <g id="patch_2">
    <path d="M 55.087263 298.26 
L 443.837312 298.26 
L 443.837312 27.65625 
L 55.087263 27.65625 
z
" style="fill:#eaeaf2;"/>
   </g>
   <g id="matplotlib.axis_1">
    <g id="xtick_1">
     <g id="line2d_1">
      <path clip-path="url(#p04d3d674c2)" d="M 57.392105 298.26 
L 57.392105 27.65625 
" style="fill:none;stroke:#ffffff;stroke-linecap:round;"/>
     </g>
     <g id="text_1">
      <!-- 0 -->
      <g style="fill:#262626;" transform="translate(54.33359 315.633594)scale(0.11 -0.11)">
       <defs>
        <path d="M 266 2259 
Q 266 3072 433 3567 
Q 600 4063 929 4331 
Q 1259 4600 1759 4600 
Q 2128 4600 2406 4451 
Q 2684 4303 2865 4023 
Q 3047 3744 3150 3342 
Q 3253 2941 3253 2259 
Q 3253 1453 3087 958 
Q 2922 463 2592 192 
Q 2263 -78 1759 -78 
Q 1097 -78 719 397 
Q 266 969 266 2259 
z
M 844 2259 
Q 844 1131 1108 757 
Q 1372 384 1759 384 
Q 2147 384 2411 759 
Q 2675 1134 2675 2259 
Q 2675 3391 2411 3762 
Q 2147 4134 1753 4134 
Q 1366 4134 1134 3806 
Q 844 3388 844 2259 
z
" id="ArialMT-30" transform="scale(0.015625)"/>
       </defs>
       <use xlink:href="#ArialMT-30"/>
      </g>
     </g>
    </g>
    <g id="xtick_2">
     <g id="line2d_2">
      <path clip-path="url(#p04d3d674c2)" d="M 134.220178 298.26 
L 134.220178 27.65625 
" style="fill:none;stroke:#ffffff;stroke-linecap:round;"/>
     </g>
     <g id="text_2">
      <!-- 10 -->
      <g style="fill:#262626;" transform="translate(128.103147 315.633594)scale(0.11 -0.11)">
       <defs>
        <path d="M 2384 0 
L 1822 0 
L 1822 3584 
Q 1619 3391 1289 3197 
Q 959 3003 697 2906 
L 697 3450 
Q 1169 3672 1522 3987 
Q 1875 4303 2022 4600 
L 2384 4600 
L 2384 0 
z
" id="ArialMT-31" transform="scale(0.015625)"/>
       </defs>
       <use xlink:href="#ArialMT-31"/>
       <use x="55.615234" xlink:href="#ArialMT-30"/>
      </g>
     </g>
    </g>
    <g id="xtick_3">
     <g id="line2d_3">
      <path clip-path="url(#p04d3d674c2)" d="M 211.048251 298.26 
L 211.048251 27.65625 
" style="fill:none;stroke:#ffffff;stroke-linecap:round;"/>
     </g>
     <g id="text_3">
      <!-- 20 -->
      <g style="fill:#262626;" transform="translate(204.93122 315.633594)scale(0.11 -0.11)">
       <defs>
        <path d="M 3222 541 
L 3222 0 
L 194 0 
Q 188 203 259 391 
Q 375 700 629 1000 
Q 884 1300 1366 1694 
Q 2113 2306 2375 2664 
Q 2638 3022 2638 3341 
Q 2638 3675 2398 3904 
Q 2159 4134 1775 4134 
Q 1369 4134 1125 3890 
Q 881 3647 878 3216 
L 300 3275 
Q 359 3922 746 4261 
Q 1134 4600 1788 4600 
Q 2447 4600 2831 4234 
Q 3216 3869 3216 3328 
Q 3216 3053 3103 2787 
Q 2991 2522 2730 2228 
Q 2469 1934 1863 1422 
Q 1356 997 1212 845 
Q 1069 694 975 541 
L 3222 541 
z
" id="ArialMT-32" transform="scale(0.015625)"/>
       </defs>
       <use xlink:href="#ArialMT-32"/>
       <use x="55.615234" xlink:href="#ArialMT-30"/>
      </g>
     </g>
    </g>
    <g id="xtick_4">
     <g id="line2d_4">
      <path clip-path="url(#p04d3d674c2)" d="M 287.876324 298.26 
L 287.876324 27.65625 
" style="fill:none;stroke:#ffffff;stroke-linecap:round;"/>
     </g>
     <g id="text_4">
      <!-- 30 -->
      <g style="fill:#262626;" transform="translate(281.759293 315.633594)scale(0.11 -0.11)">
       <defs>
        <path d="M 269 1209 
L 831 1284 
Q 928 806 1161 595 
Q 1394 384 1728 384 
Q 2125 384 2398 659 
Q 2672 934 2672 1341 
Q 2672 1728 2419 1979 
Q 2166 2231 1775 2231 
Q 1616 2231 1378 2169 
L 1441 2663 
Q 1497 2656 1531 2656 
Q 1891 2656 2178 2843 
Q 2466 3031 2466 3422 
Q 2466 3731 2256 3934 
Q 2047 4138 1716 4138 
Q 1388 4138 1169 3931 
Q 950 3725 888 3313 
L 325 3413 
Q 428 3978 793 4289 
Q 1159 4600 1703 4600 
Q 2078 4600 2393 4439 
Q 2709 4278 2876 4000 
Q 3044 3722 3044 3409 
Q 3044 3113 2884 2869 
Q 2725 2625 2413 2481 
Q 2819 2388 3044 2092 
Q 3269 1797 3269 1353 
Q 3269 753 2831 336 
Q 2394 -81 1725 -81 
Q 1122 -81 723 278 
Q 325 638 269 1209 
z
" id="ArialMT-33" transform="scale(0.015625)"/>
       </defs>
       <use xlink:href="#ArialMT-33"/>
       <use x="55.615234" xlink:href="#ArialMT-30"/>
      </g>
     </g>
    </g>
    <g id="xtick_5">
     <g id="line2d_5">
      <path clip-path="url(#p04d3d674c2)" d="M 364.704397 298.26 
L 364.704397 27.65625 
" style="fill:none;stroke:#ffffff;stroke-linecap:round;"/>
     </g>
     <g id="text_5">
      <!-- 40 -->
      <g style="fill:#262626;" transform="translate(358.587366 315.633594)scale(0.11 -0.11)">
       <defs>
        <path d="M 2069 0 
L 2069 1097 
L 81 1097 
L 81 1613 
L 2172 4581 
L 2631 4581 
L 2631 1613 
L 3250 1613 
L 3250 1097 
L 2631 1097 
L 2631 0 
L 2069 0 
z
M 2069 1613 
L 2069 3678 
L 634 1613 
L 2069 1613 
z
" id="ArialMT-34" transform="scale(0.015625)"/>
       </defs>
       <use xlink:href="#ArialMT-34"/>
       <use x="55.615234" xlink:href="#ArialMT-30"/>
      </g>
     </g>
    </g>
    <g id="xtick_6">
     <g id="line2d_6">
      <path clip-path="url(#p04d3d674c2)" d="M 441.53247 298.26 
L 441.53247 27.65625 
" style="fill:none;stroke:#ffffff;stroke-linecap:round;"/>
     </g>
     <g id="text_6">
      <!-- 50 -->
      <g style="fill:#262626;" transform="translate(435.415439 315.633594)scale(0.11 -0.11)">
       <defs>
        <path d="M 266 1200 
L 856 1250 
Q 922 819 1161 601 
Q 1400 384 1738 384 
Q 2144 384 2425 690 
Q 2706 997 2706 1503 
Q 2706 1984 2436 2262 
Q 2166 2541 1728 2541 
Q 1456 2541 1237 2417 
Q 1019 2294 894 2097 
L 366 2166 
L 809 4519 
L 3088 4519 
L 3088 3981 
L 1259 3981 
L 1013 2750 
Q 1425 3038 1878 3038 
Q 2478 3038 2890 2622 
Q 3303 2206 3303 1553 
Q 3303 931 2941 478 
Q 2500 -78 1738 -78 
Q 1113 -78 717 272 
Q 322 622 266 1200 
z
" id="ArialMT-35" transform="scale(0.015625)"/>
       </defs>
       <use xlink:href="#ArialMT-35"/>
       <use x="55.615234" xlink:href="#ArialMT-30"/>
      </g>
     </g>
    </g>
    <g id="text_7">
     <!-- Number of processes -->
     <g style="fill:#262626;" transform="translate(192.4426 330.555469)scale(0.12 -0.12)">
      <defs>
       <path d="M 488 0 
L 488 4581 
L 1109 4581 
L 3516 984 
L 3516 4581 
L 4097 4581 
L 4097 0 
L 3475 0 
L 1069 3600 
L 1069 0 
L 488 0 
z
" id="ArialMT-4e" transform="scale(0.015625)"/>
       <path d="M 2597 0 
L 2597 488 
Q 2209 -75 1544 -75 
Q 1250 -75 995 37 
Q 741 150 617 320 
Q 494 491 444 738 
Q 409 903 409 1263 
L 409 3319 
L 972 3319 
L 972 1478 
Q 972 1038 1006 884 
Q 1059 663 1231 536 
Q 1403 409 1656 409 
Q 1909 409 2131 539 
Q 2353 669 2445 892 
Q 2538 1116 2538 1541 
L 2538 3319 
L 3100 3319 
L 3100 0 
L 2597 0 
z
" id="ArialMT-75" transform="scale(0.015625)"/>
       <path d="M 422 0 
L 422 3319 
L 925 3319 
L 925 2853 
Q 1081 3097 1340 3245 
Q 1600 3394 1931 3394 
Q 2300 3394 2536 3241 
Q 2772 3088 2869 2813 
Q 3263 3394 3894 3394 
Q 4388 3394 4653 3120 
Q 4919 2847 4919 2278 
L 4919 0 
L 4359 0 
L 4359 2091 
Q 4359 2428 4304 2576 
Q 4250 2725 4106 2815 
Q 3963 2906 3769 2906 
Q 3419 2906 3187 2673 
Q 2956 2441 2956 1928 
L 2956 0 
L 2394 0 
L 2394 2156 
Q 2394 2531 2256 2718 
Q 2119 2906 1806 2906 
Q 1569 2906 1367 2781 
Q 1166 2656 1075 2415 
Q 984 2175 984 1722 
L 984 0 
L 422 0 
z
" id="ArialMT-6d" transform="scale(0.015625)"/>
       <path d="M 941 0 
L 419 0 
L 419 4581 
L 981 4581 
L 981 2947 
Q 1338 3394 1891 3394 
Q 2197 3394 2470 3270 
Q 2744 3147 2920 2923 
Q 3097 2700 3197 2384 
Q 3297 2069 3297 1709 
Q 3297 856 2875 390 
Q 2453 -75 1863 -75 
Q 1275 -75 941 416 
L 941 0 
z
M 934 1684 
Q 934 1088 1097 822 
Q 1363 388 1816 388 
Q 2184 388 2453 708 
Q 2722 1028 2722 1663 
Q 2722 2313 2464 2622 
Q 2206 2931 1841 2931 
Q 1472 2931 1203 2611 
Q 934 2291 934 1684 
z
" id="ArialMT-62" transform="scale(0.015625)"/>
       <path d="M 2694 1069 
L 3275 997 
Q 3138 488 2766 206 
Q 2394 -75 1816 -75 
Q 1088 -75 661 373 
Q 234 822 234 1631 
Q 234 2469 665 2931 
Q 1097 3394 1784 3394 
Q 2450 3394 2872 2941 
Q 3294 2488 3294 1666 
Q 3294 1616 3291 1516 
L 816 1516 
Q 847 969 1125 678 
Q 1403 388 1819 388 
Q 2128 388 2347 550 
Q 2566 713 2694 1069 
z
M 847 1978 
L 2700 1978 
Q 2663 2397 2488 2606 
Q 2219 2931 1791 2931 
Q 1403 2931 1139 2672 
Q 875 2413 847 1978 
z
" id="ArialMT-65" transform="scale(0.015625)"/>
       <path d="M 416 0 
L 416 3319 
L 922 3319 
L 922 2816 
Q 1116 3169 1280 3281 
Q 1444 3394 1641 3394 
Q 1925 3394 2219 3213 
L 2025 2691 
Q 1819 2813 1613 2813 
Q 1428 2813 1281 2702 
Q 1134 2591 1072 2394 
Q 978 2094 978 1738 
L 978 0 
L 416 0 
z
" id="ArialMT-72" transform="scale(0.015625)"/>
       <path id="ArialMT-20" transform="scale(0.015625)"/>
       <path d="M 213 1659 
Q 213 2581 725 3025 
Q 1153 3394 1769 3394 
Q 2453 3394 2887 2945 
Q 3322 2497 3322 1706 
Q 3322 1066 3130 698 
Q 2938 331 2570 128 
Q 2203 -75 1769 -75 
Q 1072 -75 642 372 
Q 213 819 213 1659 
z
M 791 1659 
Q 791 1022 1069 705 
Q 1347 388 1769 388 
Q 2188 388 2466 706 
Q 2744 1025 2744 1678 
Q 2744 2294 2464 2611 
Q 2184 2928 1769 2928 
Q 1347 2928 1069 2612 
Q 791 2297 791 1659 
z
" id="ArialMT-6f" transform="scale(0.015625)"/>
       <path d="M 556 0 
L 556 2881 
L 59 2881 
L 59 3319 
L 556 3319 
L 556 3672 
Q 556 4006 616 4169 
Q 697 4388 901 4523 
Q 1106 4659 1475 4659 
Q 1713 4659 2000 4603 
L 1916 4113 
Q 1741 4144 1584 4144 
Q 1328 4144 1222 4034 
Q 1116 3925 1116 3625 
L 1116 3319 
L 1763 3319 
L 1763 2881 
L 1116 2881 
L 1116 0 
L 556 0 
z
" id="ArialMT-66" transform="scale(0.015625)"/>
       <path d="M 422 -1272 
L 422 3319 
L 934 3319 
L 934 2888 
Q 1116 3141 1344 3267 
Q 1572 3394 1897 3394 
Q 2322 3394 2647 3175 
Q 2972 2956 3137 2557 
Q 3303 2159 3303 1684 
Q 3303 1175 3120 767 
Q 2938 359 2589 142 
Q 2241 -75 1856 -75 
Q 1575 -75 1351 44 
Q 1128 163 984 344 
L 984 -1272 
L 422 -1272 
z
M 931 1641 
Q 931 1000 1190 694 
Q 1450 388 1819 388 
Q 2194 388 2461 705 
Q 2728 1022 2728 1688 
Q 2728 2322 2467 2637 
Q 2206 2953 1844 2953 
Q 1484 2953 1207 2617 
Q 931 2281 931 1641 
z
" id="ArialMT-70" transform="scale(0.015625)"/>
       <path d="M 2588 1216 
L 3141 1144 
Q 3050 572 2676 248 
Q 2303 -75 1759 -75 
Q 1078 -75 664 370 
Q 250 816 250 1647 
Q 250 2184 428 2587 
Q 606 2991 970 3192 
Q 1334 3394 1763 3394 
Q 2303 3394 2647 3120 
Q 2991 2847 3088 2344 
L 2541 2259 
Q 2463 2594 2264 2762 
Q 2066 2931 1784 2931 
Q 1359 2931 1093 2626 
Q 828 2322 828 1663 
Q 828 994 1084 691 
Q 1341 388 1753 388 
Q 2084 388 2306 591 
Q 2528 794 2588 1216 
z
" id="ArialMT-63" transform="scale(0.015625)"/>
       <path d="M 197 991 
L 753 1078 
Q 800 744 1014 566 
Q 1228 388 1613 388 
Q 2000 388 2187 545 
Q 2375 703 2375 916 
Q 2375 1106 2209 1216 
Q 2094 1291 1634 1406 
Q 1016 1563 777 1677 
Q 538 1791 414 1992 
Q 291 2194 291 2438 
Q 291 2659 392 2848 
Q 494 3038 669 3163 
Q 800 3259 1026 3326 
Q 1253 3394 1513 3394 
Q 1903 3394 2198 3281 
Q 2494 3169 2634 2976 
Q 2775 2784 2828 2463 
L 2278 2388 
Q 2241 2644 2061 2787 
Q 1881 2931 1553 2931 
Q 1166 2931 1000 2803 
Q 834 2675 834 2503 
Q 834 2394 903 2306 
Q 972 2216 1119 2156 
Q 1203 2125 1616 2013 
Q 2213 1853 2448 1751 
Q 2684 1650 2818 1456 
Q 2953 1263 2953 975 
Q 2953 694 2789 445 
Q 2625 197 2315 61 
Q 2006 -75 1616 -75 
Q 969 -75 630 194 
Q 291 463 197 991 
z
" id="ArialMT-73" transform="scale(0.015625)"/>
      </defs>
      <use xlink:href="#ArialMT-4e"/>
      <use x="72.216797" xlink:href="#ArialMT-75"/>
      <use x="127.832031" xlink:href="#ArialMT-6d"/>
      <use x="211.132812" xlink:href="#ArialMT-62"/>
      <use x="266.748047" xlink:href="#ArialMT-65"/>
      <use x="322.363281" xlink:href="#ArialMT-72"/>
      <use x="355.664062" xlink:href="#ArialMT-20"/>
      <use x="383.447266" xlink:href="#ArialMT-6f"/>
      <use x="439.0625" xlink:href="#ArialMT-66"/>
      <use x="466.845703" xlink:href="#ArialMT-20"/>
      <use x="494.628906" xlink:href="#ArialMT-70"/>
      <use x="550.244141" xlink:href="#ArialMT-72"/>
      <use x="583.544922" xlink:href="#ArialMT-6f"/>
      <use x="639.160156" xlink:href="#ArialMT-63"/>
      <use x="689.160156" xlink:href="#ArialMT-65"/>
      <use x="744.775391" xlink:href="#ArialMT-73"/>
      <use x="794.775391" xlink:href="#ArialMT-73"/>
      <use x="844.775391" xlink:href="#ArialMT-65"/>
      <use x="900.390625" xlink:href="#ArialMT-73"/>
     </g>
    </g>
   </g>
   <g id="matplotlib.axis_2">
    <g id="ytick_1">
     <g id="line2d_7">
      <path clip-path="url(#p04d3d674c2)" d="M 55.087263 186.808712 
L 443.837312 186.808712 
" style="fill:none;stroke:#ffffff;stroke-linecap:round;"/>
     </g>
     <g id="text_8">
      <!-- $\mathdefault{10^{0}}$ -->
      <g style="fill:#262626;" transform="translate(28.317263 192.480587)scale(0.11 -0.11)">
       <use transform="translate(0 0.99375)" xlink:href="#ArialMT-31"/>
       <use transform="translate(55.615234 0.99375)" xlink:href="#ArialMT-30"/>
       <use transform="translate(112.972813 70.6875)scale(0.7)" xlink:href="#ArialMT-30"/>
      </g>
     </g>
    </g>
    <g id="ytick_2">
     <g id="line2d_8">
      <path clip-path="url(#p04d3d674c2)" d="M 55.087263 49.596166 
L 443.837312 49.596166 
" style="fill:none;stroke:#ffffff;stroke-linecap:round;"/>
     </g>
     <g id="text_9">
      <!-- $\mathdefault{10^{1}}$ -->
      <g style="fill:#262626;" transform="translate(28.317263 55.268041)scale(0.11 -0.11)">
       <use transform="translate(0 0.99375)" xlink:href="#ArialMT-31"/>
       <use transform="translate(55.615234 0.99375)" xlink:href="#ArialMT-30"/>
       <use transform="translate(112.972813 70.6875)scale(0.7)" xlink:href="#ArialMT-31"/>
      </g>
     </g>
    </g>
    <g id="ytick_3"/>
    <g id="ytick_4"/>
    <g id="ytick_5"/>
    <g id="ytick_6"/>
    <g id="ytick_7"/>
    <g id="ytick_8"/>
    <g id="ytick_9"/>
    <g id="ytick_10"/>
    <g id="ytick_11"/>
    <g id="ytick_12"/>
    <g id="ytick_13"/>
    <g id="ytick_14"/>
    <g id="ytick_15"/>
    <g id="ytick_16"/>
    <g id="ytick_17"/>
    <g id="ytick_18"/>
    <g id="text_10">
     <!-- Runtime (s) -->
     <g style="fill:#262626;" transform="translate(21.791638 193.96125)rotate(-90)scale(0.12 -0.12)">
      <defs>
       <path d="M 503 0 
L 503 4581 
L 2534 4581 
Q 3147 4581 3465 4457 
Q 3784 4334 3975 4021 
Q 4166 3709 4166 3331 
Q 4166 2844 3850 2509 
Q 3534 2175 2875 2084 
Q 3116 1969 3241 1856 
Q 3506 1613 3744 1247 
L 4541 0 
L 3778 0 
L 3172 953 
Q 2906 1366 2734 1584 
Q 2563 1803 2427 1890 
Q 2291 1978 2150 2013 
Q 2047 2034 1813 2034 
L 1109 2034 
L 1109 0 
L 503 0 
z
M 1109 2559 
L 2413 2559 
Q 2828 2559 3062 2645 
Q 3297 2731 3419 2920 
Q 3541 3109 3541 3331 
Q 3541 3656 3305 3865 
Q 3069 4075 2559 4075 
L 1109 4075 
L 1109 2559 
z
" id="ArialMT-52" transform="scale(0.015625)"/>
       <path d="M 422 0 
L 422 3319 
L 928 3319 
L 928 2847 
Q 1294 3394 1984 3394 
Q 2284 3394 2536 3286 
Q 2788 3178 2913 3003 
Q 3038 2828 3088 2588 
Q 3119 2431 3119 2041 
L 3119 0 
L 2556 0 
L 2556 2019 
Q 2556 2363 2490 2533 
Q 2425 2703 2258 2804 
Q 2091 2906 1866 2906 
Q 1506 2906 1245 2678 
Q 984 2450 984 1813 
L 984 0 
L 422 0 
z
" id="ArialMT-6e" transform="scale(0.015625)"/>
       <path d="M 1650 503 
L 1731 6 
Q 1494 -44 1306 -44 
Q 1000 -44 831 53 
Q 663 150 594 308 
Q 525 466 525 972 
L 525 2881 
L 113 2881 
L 113 3319 
L 525 3319 
L 525 4141 
L 1084 4478 
L 1084 3319 
L 1650 3319 
L 1650 2881 
L 1084 2881 
L 1084 941 
Q 1084 700 1114 631 
Q 1144 563 1211 522 
Q 1278 481 1403 481 
Q 1497 481 1650 503 
z
" id="ArialMT-74" transform="scale(0.015625)"/>
       <path d="M 425 3934 
L 425 4581 
L 988 4581 
L 988 3934 
L 425 3934 
z
M 425 0 
L 425 3319 
L 988 3319 
L 988 0 
L 425 0 
z
" id="ArialMT-69" transform="scale(0.015625)"/>
       <path d="M 1497 -1347 
Q 1031 -759 709 28 
Q 388 816 388 1659 
Q 388 2403 628 3084 
Q 909 3875 1497 4659 
L 1900 4659 
Q 1522 4009 1400 3731 
Q 1209 3300 1100 2831 
Q 966 2247 966 1656 
Q 966 153 1900 -1347 
L 1497 -1347 
z
" id="ArialMT-28" transform="scale(0.015625)"/>
       <path d="M 791 -1347 
L 388 -1347 
Q 1322 153 1322 1656 
Q 1322 2244 1188 2822 
Q 1081 3291 891 3722 
Q 769 4003 388 4659 
L 791 4659 
Q 1378 3875 1659 3084 
Q 1900 2403 1900 1659 
Q 1900 816 1576 28 
Q 1253 -759 791 -1347 
z
" id="ArialMT-29" transform="scale(0.015625)"/>
      </defs>
      <use xlink:href="#ArialMT-52"/>
      <use x="72.216797" xlink:href="#ArialMT-75"/>
      <use x="127.832031" xlink:href="#ArialMT-6e"/>
      <use x="183.447266" xlink:href="#ArialMT-74"/>
      <use x="211.230469" xlink:href="#ArialMT-69"/>
      <use x="233.447266" xlink:href="#ArialMT-6d"/>
      <use x="316.748047" xlink:href="#ArialMT-65"/>
      <use x="372.363281" xlink:href="#ArialMT-20"/>
      <use x="400.146484" xlink:href="#ArialMT-28"/>
      <use x="433.447266" xlink:href="#ArialMT-73"/>
      <use x="483.447266" xlink:href="#ArialMT-29"/>
     </g>
    </g>
   </g>
   <g id="line2d_9">
    <path clip-path="url(#p04d3d674c2)" d="M 72.75772 274.855073 
L 88.123335 255.593758 
L 103.488949 252.805068 
L 118.854564 250.876041 
L 134.220178 249.754244 
L 149.585793 249.547593 
L 164.951408 240.708634 
L 180.317022 247.126546 
L 195.682637 240.543449 
L 211.048251 243.858582 
L 226.413866 245.849452 
L 241.77948 248.22239 
L 257.145095 246.501897 
L 272.51071 245.235359 
L 287.876324 246.631524 
L 303.241939 246.704095 
L 318.607553 245.214791 
L 333.973168 245.569723 
L 349.338783 244.664963 
L 364.704397 245.391873 
L 380.070012 245.347135 
L 395.435626 242.406081 
L 410.801241 244.739431 
L 426.166855 243.496309 
" style="fill:none;stroke:#4c72b0;stroke-linecap:round;stroke-width:1.5;"/>
    <defs>
     <path d="M 0 3 
C 0.795609 3 1.55874 2.683901 2.12132 2.12132 
C 2.683901 1.55874 3 0.795609 3 0 
C 3 -0.795609 2.683901 -1.55874 2.12132 -2.12132 
C 1.55874 -2.683901 0.795609 -3 0 -3 
C -0.795609 -3 -1.55874 -2.683901 -2.12132 -2.12132 
C -2.683901 -1.55874 -3 -0.795609 -3 0 
C -3 0.795609 -2.683901 1.55874 -2.12132 2.12132 
C -1.55874 2.683901 -0.795609 3 0 3 
z
" id="m72f7195794" style="stroke:#4c72b0;"/>
    </defs>
    <g clip-path="url(#p04d3d674c2)">
     <use style="fill:#4c72b0;stroke:#4c72b0;" x="72.75772" xlink:href="#m72f7195794" y="274.855073"/>
     <use style="fill:#4c72b0;stroke:#4c72b0;" x="88.123335" xlink:href="#m72f7195794" y="255.593758"/>
     <use style="fill:#4c72b0;stroke:#4c72b0;" x="103.488949" xlink:href="#m72f7195794" y="252.805068"/>
     <use style="fill:#4c72b0;stroke:#4c72b0;" x="118.854564" xlink:href="#m72f7195794" y="250.876041"/>
     <use style="fill:#4c72b0;stroke:#4c72b0;" x="134.220178" xlink:href="#m72f7195794" y="249.754244"/>
     <use style="fill:#4c72b0;stroke:#4c72b0;" x="149.585793" xlink:href="#m72f7195794" y="249.547593"/>
     <use style="fill:#4c72b0;stroke:#4c72b0;" x="164.951408" xlink:href="#m72f7195794" y="240.708634"/>
     <use style="fill:#4c72b0;stroke:#4c72b0;" x="180.317022" xlink:href="#m72f7195794" y="247.126546"/>
     <use style="fill:#4c72b0;stroke:#4c72b0;" x="195.682637" xlink:href="#m72f7195794" y="240.543449"/>
     <use style="fill:#4c72b0;stroke:#4c72b0;" x="211.048251" xlink:href="#m72f7195794" y="243.858582"/>
     <use style="fill:#4c72b0;stroke:#4c72b0;" x="226.413866" xlink:href="#m72f7195794" y="245.849452"/>
     <use style="fill:#4c72b0;stroke:#4c72b0;" x="241.77948" xlink:href="#m72f7195794" y="248.22239"/>
     <use style="fill:#4c72b0;stroke:#4c72b0;" x="257.145095" xlink:href="#m72f7195794" y="246.501897"/>
     <use style="fill:#4c72b0;stroke:#4c72b0;" x="272.51071" xlink:href="#m72f7195794" y="245.235359"/>
     <use style="fill:#4c72b0;stroke:#4c72b0;" x="287.876324" xlink:href="#m72f7195794" y="246.631524"/>
     <use style="fill:#4c72b0;stroke:#4c72b0;" x="303.241939" xlink:href="#m72f7195794" y="246.704095"/>
     <use style="fill:#4c72b0;stroke:#4c72b0;" x="318.607553" xlink:href="#m72f7195794" y="245.214791"/>
     <use style="fill:#4c72b0;stroke:#4c72b0;" x="333.973168" xlink:href="#m72f7195794" y="245.569723"/>
     <use style="fill:#4c72b0;stroke:#4c72b0;" x="349.338783" xlink:href="#m72f7195794" y="244.664963"/>
     <use style="fill:#4c72b0;stroke:#4c72b0;" x="364.704397" xlink:href="#m72f7195794" y="245.391873"/>
     <use style="fill:#4c72b0;stroke:#4c72b0;" x="380.070012" xlink:href="#m72f7195794" y="245.347135"/>
     <use style="fill:#4c72b0;stroke:#4c72b0;" x="395.435626" xlink:href="#m72f7195794" y="242.406081"/>
     <use style="fill:#4c72b0;stroke:#4c72b0;" x="410.801241" xlink:href="#m72f7195794" y="244.739431"/>
     <use style="fill:#4c72b0;stroke:#4c72b0;" x="426.166855" xlink:href="#m72f7195794" y="243.496309"/>
    </g>
   </g>
   <g id="line2d_10">
    <path clip-path="url(#p04d3d674c2)" d="M 72.75772 285.95983 
L 88.123335 252.17871 
M 118.854564 234.010299 
M 180.317022 127.978224 
M 303.241939 123.71295 
" style="fill:none;stroke:#dd8452;stroke-linecap:round;stroke-width:1.5;"/>
    <defs>
     <path d="M 0 3 
C 0.795609 3 1.55874 2.683901 2.12132 2.12132 
C 2.683901 1.55874 3 0.795609 3 0 
C 3 -0.795609 2.683901 -1.55874 2.12132 -2.12132 
C 1.55874 -2.683901 0.795609 -3 0 -3 
C -0.795609 -3 -1.55874 -2.683901 -2.12132 -2.12132 
C -2.683901 -1.55874 -3 -0.795609 -3 0 
C -3 0.795609 -2.683901 1.55874 -2.12132 2.12132 
C -1.55874 2.683901 -0.795609 3 0 3 
z
" id="m26e82f5a5d" style="stroke:#dd8452;"/>
    </defs>
    <g clip-path="url(#p04d3d674c2)">
     <use style="fill:#dd8452;stroke:#dd8452;" x="72.75772" xlink:href="#m26e82f5a5d" y="285.95983"/>
     <use style="fill:#dd8452;stroke:#dd8452;" x="88.123335" xlink:href="#m26e82f5a5d" y="252.17871"/>
     <use style="fill:#dd8452;stroke:#dd8452;" x="118.854564" xlink:href="#m26e82f5a5d" y="234.010299"/>
     <use style="fill:#dd8452;stroke:#dd8452;" x="180.317022" xlink:href="#m26e82f5a5d" y="127.978224"/>
     <use style="fill:#dd8452;stroke:#dd8452;" x="303.241939" xlink:href="#m26e82f5a5d" y="123.71295"/>
    </g>
   </g>
   <g id="line2d_11">
    <path clip-path="url(#p04d3d674c2)" d="M 72.75772 233.859636 
L 88.123335 194.18371 
L 103.488949 167.647876 
L 118.854564 150.359156 
L 134.220178 135.476051 
L 149.585793 124.619374 
L 164.951408 115.264509 
L 180.317022 106.976013 
L 195.682637 99.732202 
L 211.048251 93.00222 
L 226.413866 86.411499 
L 241.77948 82.147254 
L 257.145095 76.781951 
L 272.51071 72.192947 
L 287.876324 68.161783 
L 303.241939 64.225064 
L 318.607553 60.9536 
L 333.973168 56.917734 
L 349.338783 54.120153 
L 364.704397 50.669406 
L 380.070012 47.915593 
L 395.435626 44.952053 
L 410.801241 42.202936 
L 426.166855 39.95642 
" style="fill:none;stroke:#55a868;stroke-linecap:round;stroke-width:1.5;"/>
    <defs>
     <path d="M 0 3 
C 0.795609 3 1.55874 2.683901 2.12132 2.12132 
C 2.683901 1.55874 3 0.795609 3 0 
C 3 -0.795609 2.683901 -1.55874 2.12132 -2.12132 
C 1.55874 -2.683901 0.795609 -3 0 -3 
C -0.795609 -3 -1.55874 -2.683901 -2.12132 -2.12132 
C -2.683901 -1.55874 -3 -0.795609 -3 0 
C -3 0.795609 -2.683901 1.55874 -2.12132 2.12132 
C -1.55874 2.683901 -0.795609 3 0 3 
z
" id="m2a33300ee9" style="stroke:#55a868;"/>
    </defs>
    <g clip-path="url(#p04d3d674c2)">
     <use style="fill:#55a868;stroke:#55a868;" x="72.75772" xlink:href="#m2a33300ee9" y="233.859636"/>
     <use style="fill:#55a868;stroke:#55a868;" x="88.123335" xlink:href="#m2a33300ee9" y="194.18371"/>
     <use style="fill:#55a868;stroke:#55a868;" x="103.488949" xlink:href="#m2a33300ee9" y="167.647876"/>
     <use style="fill:#55a868;stroke:#55a868;" x="118.854564" xlink:href="#m2a33300ee9" y="150.359156"/>
     <use style="fill:#55a868;stroke:#55a868;" x="134.220178" xlink:href="#m2a33300ee9" y="135.476051"/>
     <use style="fill:#55a868;stroke:#55a868;" x="149.585793" xlink:href="#m2a33300ee9" y="124.619374"/>
     <use style="fill:#55a868;stroke:#55a868;" x="164.951408" xlink:href="#m2a33300ee9" y="115.264509"/>
     <use style="fill:#55a868;stroke:#55a868;" x="180.317022" xlink:href="#m2a33300ee9" y="106.976013"/>
     <use style="fill:#55a868;stroke:#55a868;" x="195.682637" xlink:href="#m2a33300ee9" y="99.732202"/>
     <use style="fill:#55a868;stroke:#55a868;" x="211.048251" xlink:href="#m2a33300ee9" y="93.00222"/>
     <use style="fill:#55a868;stroke:#55a868;" x="226.413866" xlink:href="#m2a33300ee9" y="86.411499"/>
     <use style="fill:#55a868;stroke:#55a868;" x="241.77948" xlink:href="#m2a33300ee9" y="82.147254"/>
     <use style="fill:#55a868;stroke:#55a868;" x="257.145095" xlink:href="#m2a33300ee9" y="76.781951"/>
     <use style="fill:#55a868;stroke:#55a868;" x="272.51071" xlink:href="#m2a33300ee9" y="72.192947"/>
     <use style="fill:#55a868;stroke:#55a868;" x="287.876324" xlink:href="#m2a33300ee9" y="68.161783"/>
     <use style="fill:#55a868;stroke:#55a868;" x="303.241939" xlink:href="#m2a33300ee9" y="64.225064"/>
     <use style="fill:#55a868;stroke:#55a868;" x="318.607553" xlink:href="#m2a33300ee9" y="60.9536"/>
     <use style="fill:#55a868;stroke:#55a868;" x="333.973168" xlink:href="#m2a33300ee9" y="56.917734"/>
     <use style="fill:#55a868;stroke:#55a868;" x="349.338783" xlink:href="#m2a33300ee9" y="54.120153"/>
     <use style="fill:#55a868;stroke:#55a868;" x="364.704397" xlink:href="#m2a33300ee9" y="50.669406"/>
     <use style="fill:#55a868;stroke:#55a868;" x="380.070012" xlink:href="#m2a33300ee9" y="47.915593"/>
     <use style="fill:#55a868;stroke:#55a868;" x="395.435626" xlink:href="#m2a33300ee9" y="44.952053"/>
     <use style="fill:#55a868;stroke:#55a868;" x="410.801241" xlink:href="#m2a33300ee9" y="42.202936"/>
     <use style="fill:#55a868;stroke:#55a868;" x="426.166855" xlink:href="#m2a33300ee9" y="39.95642"/>
    </g>
   </g>
   <g id="line2d_12">
    <path clip-path="url(#p04d3d674c2)" d="M 72.75772 239.84588 
L 88.123335 250.219944 
L 103.488949 250.053684 
L 118.854564 253.498084 
L 134.220178 251.939935 
L 149.585793 250.414474 
L 164.951408 248.146196 
L 180.317022 248.073431 
L 195.682637 140.9927 
L 211.048251 250.293305 
L 226.413866 247.256308 
L 241.77948 246.602179 
L 257.145095 250.230913 
L 272.51071 249.343359 
L 287.876324 249.691728 
L 303.241939 250.257953 
L 318.607553 247.987361 
L 333.973168 247.030863 
L 349.338783 246.746605 
L 364.704397 247.851518 
L 380.070012 245.733766 
L 395.435626 247.607612 
L 410.801241 246.088589 
L 426.166855 247.810701 
" style="fill:none;stroke:#c44e52;stroke-linecap:round;stroke-width:1.5;"/>
    <defs>
     <path d="M 0 3 
C 0.795609 3 1.55874 2.683901 2.12132 2.12132 
C 2.683901 1.55874 3 0.795609 3 0 
C 3 -0.795609 2.683901 -1.55874 2.12132 -2.12132 
C 1.55874 -2.683901 0.795609 -3 0 -3 
C -0.795609 -3 -1.55874 -2.683901 -2.12132 -2.12132 
C -2.683901 -1.55874 -3 -0.795609 -3 0 
C -3 0.795609 -2.683901 1.55874 -2.12132 2.12132 
C -1.55874 2.683901 -0.795609 3 0 3 
z
" id="ma9d5ce86c3" style="stroke:#c44e52;"/>
    </defs>
    <g clip-path="url(#p04d3d674c2)">
     <use style="fill:#c44e52;stroke:#c44e52;" x="72.75772" xlink:href="#ma9d5ce86c3" y="239.84588"/>
     <use style="fill:#c44e52;stroke:#c44e52;" x="88.123335" xlink:href="#ma9d5ce86c3" y="250.219944"/>
     <use style="fill:#c44e52;stroke:#c44e52;" x="103.488949" xlink:href="#ma9d5ce86c3" y="250.053684"/>
     <use style="fill:#c44e52;stroke:#c44e52;" x="118.854564" xlink:href="#ma9d5ce86c3" y="253.498084"/>
     <use style="fill:#c44e52;stroke:#c44e52;" x="134.220178" xlink:href="#ma9d5ce86c3" y="251.939935"/>
     <use style="fill:#c44e52;stroke:#c44e52;" x="149.585793" xlink:href="#ma9d5ce86c3" y="250.414474"/>
     <use style="fill:#c44e52;stroke:#c44e52;" x="164.951408" xlink:href="#ma9d5ce86c3" y="248.146196"/>
     <use style="fill:#c44e52;stroke:#c44e52;" x="180.317022" xlink:href="#ma9d5ce86c3" y="248.073431"/>
     <use style="fill:#c44e52;stroke:#c44e52;" x="195.682637" xlink:href="#ma9d5ce86c3" y="140.9927"/>
     <use style="fill:#c44e52;stroke:#c44e52;" x="211.048251" xlink:href="#ma9d5ce86c3" y="250.293305"/>
     <use style="fill:#c44e52;stroke:#c44e52;" x="226.413866" xlink:href="#ma9d5ce86c3" y="247.256308"/>
     <use style="fill:#c44e52;stroke:#c44e52;" x="241.77948" xlink:href="#ma9d5ce86c3" y="246.602179"/>
     <use style="fill:#c44e52;stroke:#c44e52;" x="257.145095" xlink:href="#ma9d5ce86c3" y="250.230913"/>
     <use style="fill:#c44e52;stroke:#c44e52;" x="272.51071" xlink:href="#ma9d5ce86c3" y="249.343359"/>
     <use style="fill:#c44e52;stroke:#c44e52;" x="287.876324" xlink:href="#ma9d5ce86c3" y="249.691728"/>
     <use style="fill:#c44e52;stroke:#c44e52;" x="303.241939" xlink:href="#ma9d5ce86c3" y="250.257953"/>
     <use style="fill:#c44e52;stroke:#c44e52;" x="318.607553" xlink:href="#ma9d5ce86c3" y="247.987361"/>
     <use style="fill:#c44e52;stroke:#c44e52;" x="333.973168" xlink:href="#ma9d5ce86c3" y="247.030863"/>
     <use style="fill:#c44e52;stroke:#c44e52;" x="349.338783" xlink:href="#ma9d5ce86c3" y="246.746605"/>
     <use style="fill:#c44e52;stroke:#c44e52;" x="364.704397" xlink:href="#ma9d5ce86c3" y="247.851518"/>
     <use style="fill:#c44e52;stroke:#c44e52;" x="380.070012" xlink:href="#ma9d5ce86c3" y="245.733766"/>
     <use style="fill:#c44e52;stroke:#c44e52;" x="395.435626" xlink:href="#ma9d5ce86c3" y="247.607612"/>
     <use style="fill:#c44e52;stroke:#c44e52;" x="410.801241" xlink:href="#ma9d5ce86c3" y="246.088589"/>
     <use style="fill:#c44e52;stroke:#c44e52;" x="426.166855" xlink:href="#ma9d5ce86c3" y="247.810701"/>
    </g>
   </g>
   <g id="line2d_13">
    <path clip-path="url(#p04d3d674c2)" d="M 72.75772 244.843731 
L 88.123335 252.329628 
L 103.488949 218.881283 
L 118.854564 248.363351 
L 134.220178 218.611699 
L 149.585793 216.273335 
L 164.951408 217.244972 
L 180.317022 136.636704 
L 195.682637 215.626488 
L 211.048251 216.353996 
L 226.413866 215.750134 
L 241.77948 215.773092 
L 257.145095 214.52995 
L 272.51071 215.416066 
L 287.876324 213.739676 
L 303.241939 132.084172 
L 318.607553 213.334575 
L 333.973168 126.798913 
L 349.338783 127.993169 
L 364.704397 126.865039 
L 380.070012 213.109746 
L 395.435626 126.981089 
L 410.801241 127.829933 
L 426.166855 127.007046 
" style="fill:none;stroke:#8172b3;stroke-linecap:round;stroke-width:1.5;"/>
    <defs>
     <path d="M 0 3 
C 0.795609 3 1.55874 2.683901 2.12132 2.12132 
C 2.683901 1.55874 3 0.795609 3 0 
C 3 -0.795609 2.683901 -1.55874 2.12132 -2.12132 
C 1.55874 -2.683901 0.795609 -3 0 -3 
C -0.795609 -3 -1.55874 -2.683901 -2.12132 -2.12132 
C -2.683901 -1.55874 -3 -0.795609 -3 0 
C -3 0.795609 -2.683901 1.55874 -2.12132 2.12132 
C -1.55874 2.683901 -0.795609 3 0 3 
z
" id="ma17aedbfa7" style="stroke:#8172b3;"/>
    </defs>
    <g clip-path="url(#p04d3d674c2)">
     <use style="fill:#8172b3;stroke:#8172b3;" x="72.75772" xlink:href="#ma17aedbfa7" y="244.843731"/>
     <use style="fill:#8172b3;stroke:#8172b3;" x="88.123335" xlink:href="#ma17aedbfa7" y="252.329628"/>
     <use style="fill:#8172b3;stroke:#8172b3;" x="103.488949" xlink:href="#ma17aedbfa7" y="218.881283"/>
     <use style="fill:#8172b3;stroke:#8172b3;" x="118.854564" xlink:href="#ma17aedbfa7" y="248.363351"/>
     <use style="fill:#8172b3;stroke:#8172b3;" x="134.220178" xlink:href="#ma17aedbfa7" y="218.611699"/>
     <use style="fill:#8172b3;stroke:#8172b3;" x="149.585793" xlink:href="#ma17aedbfa7" y="216.273335"/>
     <use style="fill:#8172b3;stroke:#8172b3;" x="164.951408" xlink:href="#ma17aedbfa7" y="217.244972"/>
     <use style="fill:#8172b3;stroke:#8172b3;" x="180.317022" xlink:href="#ma17aedbfa7" y="136.636704"/>
     <use style="fill:#8172b3;stroke:#8172b3;" x="195.682637" xlink:href="#ma17aedbfa7" y="215.626488"/>
     <use style="fill:#8172b3;stroke:#8172b3;" x="211.048251" xlink:href="#ma17aedbfa7" y="216.353996"/>
     <use style="fill:#8172b3;stroke:#8172b3;" x="226.413866" xlink:href="#ma17aedbfa7" y="215.750134"/>
     <use style="fill:#8172b3;stroke:#8172b3;" x="241.77948" xlink:href="#ma17aedbfa7" y="215.773092"/>
     <use style="fill:#8172b3;stroke:#8172b3;" x="257.145095" xlink:href="#ma17aedbfa7" y="214.52995"/>
     <use style="fill:#8172b3;stroke:#8172b3;" x="272.51071" xlink:href="#ma17aedbfa7" y="215.416066"/>
     <use style="fill:#8172b3;stroke:#8172b3;" x="287.876324" xlink:href="#ma17aedbfa7" y="213.739676"/>
     <use style="fill:#8172b3;stroke:#8172b3;" x="303.241939" xlink:href="#ma17aedbfa7" y="132.084172"/>
     <use style="fill:#8172b3;stroke:#8172b3;" x="318.607553" xlink:href="#ma17aedbfa7" y="213.334575"/>
     <use style="fill:#8172b3;stroke:#8172b3;" x="333.973168" xlink:href="#ma17aedbfa7" y="126.798913"/>
     <use style="fill:#8172b3;stroke:#8172b3;" x="349.338783" xlink:href="#ma17aedbfa7" y="127.993169"/>
     <use style="fill:#8172b3;stroke:#8172b3;" x="364.704397" xlink:href="#ma17aedbfa7" y="126.865039"/>
     <use style="fill:#8172b3;stroke:#8172b3;" x="380.070012" xlink:href="#ma17aedbfa7" y="213.109746"/>
     <use style="fill:#8172b3;stroke:#8172b3;" x="395.435626" xlink:href="#ma17aedbfa7" y="126.981089"/>
     <use style="fill:#8172b3;stroke:#8172b3;" x="410.801241" xlink:href="#ma17aedbfa7" y="127.829933"/>
     <use style="fill:#8172b3;stroke:#8172b3;" x="426.166855" xlink:href="#ma17aedbfa7" y="127.007046"/>
    </g>
   </g>
   <g id="line2d_14">
    <path clip-path="url(#p04d3d674c2)" d="M 72.75772 249.530006 
L 88.123335 226.656659 
L 103.488949 203.805976 
L 118.854564 216.479163 
L 134.220178 195.662349 
L 149.585793 194.760759 
L 164.951408 194.333111 
L 180.317022 202.269914 
L 195.682637 121.029272 
L 211.048251 187.94782 
L 226.413866 187.189398 
L 241.77948 186.005093 
L 257.145095 185.535054 
L 272.51071 185.854891 
L 287.876324 185.342496 
L 303.241939 120.624009 
L 318.607553 118.71648 
L 333.973168 117.998567 
L 349.338783 116.726984 
L 364.704397 116.649769 
L 380.070012 116.598219 
L 395.435626 115.47547 
L 410.801241 116.687519 
L 426.166855 116.67467 
" style="fill:none;stroke:#937860;stroke-linecap:round;stroke-width:1.5;"/>
    <defs>
     <path d="M 0 3 
C 0.795609 3 1.55874 2.683901 2.12132 2.12132 
C 2.683901 1.55874 3 0.795609 3 0 
C 3 -0.795609 2.683901 -1.55874 2.12132 -2.12132 
C 1.55874 -2.683901 0.795609 -3 0 -3 
C -0.795609 -3 -1.55874 -2.683901 -2.12132 -2.12132 
C -2.683901 -1.55874 -3 -0.795609 -3 0 
C -3 0.795609 -2.683901 1.55874 -2.12132 2.12132 
C -1.55874 2.683901 -0.795609 3 0 3 
z
" id="mb57bcff47a" style="stroke:#937860;"/>
    </defs>
    <g clip-path="url(#p04d3d674c2)">
     <use style="fill:#937860;stroke:#937860;" x="72.75772" xlink:href="#mb57bcff47a" y="249.530006"/>
     <use style="fill:#937860;stroke:#937860;" x="88.123335" xlink:href="#mb57bcff47a" y="226.656659"/>
     <use style="fill:#937860;stroke:#937860;" x="103.488949" xlink:href="#mb57bcff47a" y="203.805976"/>
     <use style="fill:#937860;stroke:#937860;" x="118.854564" xlink:href="#mb57bcff47a" y="216.479163"/>
     <use style="fill:#937860;stroke:#937860;" x="134.220178" xlink:href="#mb57bcff47a" y="195.662349"/>
     <use style="fill:#937860;stroke:#937860;" x="149.585793" xlink:href="#mb57bcff47a" y="194.760759"/>
     <use style="fill:#937860;stroke:#937860;" x="164.951408" xlink:href="#mb57bcff47a" y="194.333111"/>
     <use style="fill:#937860;stroke:#937860;" x="180.317022" xlink:href="#mb57bcff47a" y="202.269914"/>
     <use style="fill:#937860;stroke:#937860;" x="195.682637" xlink:href="#mb57bcff47a" y="121.029272"/>
     <use style="fill:#937860;stroke:#937860;" x="211.048251" xlink:href="#mb57bcff47a" y="187.94782"/>
     <use style="fill:#937860;stroke:#937860;" x="226.413866" xlink:href="#mb57bcff47a" y="187.189398"/>
     <use style="fill:#937860;stroke:#937860;" x="241.77948" xlink:href="#mb57bcff47a" y="186.005093"/>
     <use style="fill:#937860;stroke:#937860;" x="257.145095" xlink:href="#mb57bcff47a" y="185.535054"/>
     <use style="fill:#937860;stroke:#937860;" x="272.51071" xlink:href="#mb57bcff47a" y="185.854891"/>
     <use style="fill:#937860;stroke:#937860;" x="287.876324" xlink:href="#mb57bcff47a" y="185.342496"/>
     <use style="fill:#937860;stroke:#937860;" x="303.241939" xlink:href="#mb57bcff47a" y="120.624009"/>
     <use style="fill:#937860;stroke:#937860;" x="318.607553" xlink:href="#mb57bcff47a" y="118.71648"/>
     <use style="fill:#937860;stroke:#937860;" x="333.973168" xlink:href="#mb57bcff47a" y="117.998567"/>
     <use style="fill:#937860;stroke:#937860;" x="349.338783" xlink:href="#mb57bcff47a" y="116.726984"/>
     <use style="fill:#937860;stroke:#937860;" x="364.704397" xlink:href="#mb57bcff47a" y="116.649769"/>
     <use style="fill:#937860;stroke:#937860;" x="380.070012" xlink:href="#mb57bcff47a" y="116.598219"/>
     <use style="fill:#937860;stroke:#937860;" x="395.435626" xlink:href="#mb57bcff47a" y="115.47547"/>
     <use style="fill:#937860;stroke:#937860;" x="410.801241" xlink:href="#mb57bcff47a" y="116.687519"/>
     <use style="fill:#937860;stroke:#937860;" x="426.166855" xlink:href="#mb57bcff47a" y="116.67467"/>
    </g>
   </g>
   <g id="line2d_15">
    <path clip-path="url(#p04d3d674c2)" d="M 72.75772 272.336531 
L 88.123335 251.561694 
L 103.488949 250.684788 
L 118.854564 251.140568 
L 134.220178 249.642019 
L 149.585793 247.485991 
L 164.951408 246.982424 
L 180.317022 247.484754 
L 195.682637 246.469778 
L 211.048251 249.657244 
L 226.413866 248.680182 
L 241.77948 243.569716 
L 257.145095 246.642258 
L 272.51071 246.670565 
L 287.876324 247.224929 
L 303.241939 246.57431 
L 318.607553 246.299493 
L 333.973168 246.015315 
L 349.338783 245.718871 
L 364.704397 244.028639 
L 380.070012 245.535866 
L 395.435626 244.247127 
L 410.801241 244.322716 
L 426.166855 244.698014 
" style="fill:none;stroke:#da8bc3;stroke-linecap:round;stroke-width:1.5;"/>
    <defs>
     <path d="M 0 3 
C 0.795609 3 1.55874 2.683901 2.12132 2.12132 
C 2.683901 1.55874 3 0.795609 3 0 
C 3 -0.795609 2.683901 -1.55874 2.12132 -2.12132 
C 1.55874 -2.683901 0.795609 -3 0 -3 
C -0.795609 -3 -1.55874 -2.683901 -2.12132 -2.12132 
C -2.683901 -1.55874 -3 -0.795609 -3 0 
C -3 0.795609 -2.683901 1.55874 -2.12132 2.12132 
C -1.55874 2.683901 -0.795609 3 0 3 
z
" id="m2c0f4bf1ce" style="stroke:#da8bc3;"/>
    </defs>
    <g clip-path="url(#p04d3d674c2)">
     <use style="fill:#da8bc3;stroke:#da8bc3;" x="72.75772" xlink:href="#m2c0f4bf1ce" y="272.336531"/>
     <use style="fill:#da8bc3;stroke:#da8bc3;" x="88.123335" xlink:href="#m2c0f4bf1ce" y="251.561694"/>
     <use style="fill:#da8bc3;stroke:#da8bc3;" x="103.488949" xlink:href="#m2c0f4bf1ce" y="250.684788"/>
     <use style="fill:#da8bc3;stroke:#da8bc3;" x="118.854564" xlink:href="#m2c0f4bf1ce" y="251.140568"/>
     <use style="fill:#da8bc3;stroke:#da8bc3;" x="134.220178" xlink:href="#m2c0f4bf1ce" y="249.642019"/>
     <use style="fill:#da8bc3;stroke:#da8bc3;" x="149.585793" xlink:href="#m2c0f4bf1ce" y="247.485991"/>
     <use style="fill:#da8bc3;stroke:#da8bc3;" x="164.951408" xlink:href="#m2c0f4bf1ce" y="246.982424"/>
     <use style="fill:#da8bc3;stroke:#da8bc3;" x="180.317022" xlink:href="#m2c0f4bf1ce" y="247.484754"/>
     <use style="fill:#da8bc3;stroke:#da8bc3;" x="195.682637" xlink:href="#m2c0f4bf1ce" y="246.469778"/>
     <use style="fill:#da8bc3;stroke:#da8bc3;" x="211.048251" xlink:href="#m2c0f4bf1ce" y="249.657244"/>
     <use style="fill:#da8bc3;stroke:#da8bc3;" x="226.413866" xlink:href="#m2c0f4bf1ce" y="248.680182"/>
     <use style="fill:#da8bc3;stroke:#da8bc3;" x="241.77948" xlink:href="#m2c0f4bf1ce" y="243.569716"/>
     <use style="fill:#da8bc3;stroke:#da8bc3;" x="257.145095" xlink:href="#m2c0f4bf1ce" y="246.642258"/>
     <use style="fill:#da8bc3;stroke:#da8bc3;" x="272.51071" xlink:href="#m2c0f4bf1ce" y="246.670565"/>
     <use style="fill:#da8bc3;stroke:#da8bc3;" x="287.876324" xlink:href="#m2c0f4bf1ce" y="247.224929"/>
     <use style="fill:#da8bc3;stroke:#da8bc3;" x="303.241939" xlink:href="#m2c0f4bf1ce" y="246.57431"/>
     <use style="fill:#da8bc3;stroke:#da8bc3;" x="318.607553" xlink:href="#m2c0f4bf1ce" y="246.299493"/>
     <use style="fill:#da8bc3;stroke:#da8bc3;" x="333.973168" xlink:href="#m2c0f4bf1ce" y="246.015315"/>
     <use style="fill:#da8bc3;stroke:#da8bc3;" x="349.338783" xlink:href="#m2c0f4bf1ce" y="245.718871"/>
     <use style="fill:#da8bc3;stroke:#da8bc3;" x="364.704397" xlink:href="#m2c0f4bf1ce" y="244.028639"/>
     <use style="fill:#da8bc3;stroke:#da8bc3;" x="380.070012" xlink:href="#m2c0f4bf1ce" y="245.535866"/>
     <use style="fill:#da8bc3;stroke:#da8bc3;" x="395.435626" xlink:href="#m2c0f4bf1ce" y="244.247127"/>
     <use style="fill:#da8bc3;stroke:#da8bc3;" x="410.801241" xlink:href="#m2c0f4bf1ce" y="244.322716"/>
     <use style="fill:#da8bc3;stroke:#da8bc3;" x="426.166855" xlink:href="#m2c0f4bf1ce" y="244.698014"/>
    </g>
   </g>
   <g id="line2d_16">
    <path clip-path="url(#p04d3d674c2)" d="M 72.75772 267.166456 
L 88.123335 252.494565 
L 103.488949 251.582099 
L 118.854564 250.18757 
L 134.220178 249.748332 
L 149.585793 248.201099 
L 164.951408 247.328246 
L 180.317022 247.238727 
L 195.682637 243.62512 
L 211.048251 248.348872 
L 226.413866 249.097011 
L 241.77948 246.980707 
L 257.145095 246.598116 
L 272.51071 246.987414 
L 287.876324 246.726975 
L 303.241939 246.372552 
L 318.607553 246.180995 
L 333.973168 245.742898 
L 349.338783 245.734487 
L 364.704397 244.123437 
L 380.070012 243.131931 
L 395.435626 243.519379 
L 410.801241 243.724698 
L 426.166855 244.445019 
" style="fill:none;stroke:#8c8c8c;stroke-linecap:round;stroke-width:1.5;"/>
    <defs>
     <path d="M 0 3 
C 0.795609 3 1.55874 2.683901 2.12132 2.12132 
C 2.683901 1.55874 3 0.795609 3 0 
C 3 -0.795609 2.683901 -1.55874 2.12132 -2.12132 
C 1.55874 -2.683901 0.795609 -3 0 -3 
C -0.795609 -3 -1.55874 -2.683901 -2.12132 -2.12132 
C -2.683901 -1.55874 -3 -0.795609 -3 0 
C -3 0.795609 -2.683901 1.55874 -2.12132 2.12132 
C -1.55874 2.683901 -0.795609 3 0 3 
z
" id="md52e6384b7" style="stroke:#8c8c8c;"/>
    </defs>
    <g clip-path="url(#p04d3d674c2)">
     <use style="fill:#8c8c8c;stroke:#8c8c8c;" x="72.75772" xlink:href="#md52e6384b7" y="267.166456"/>
     <use style="fill:#8c8c8c;stroke:#8c8c8c;" x="88.123335" xlink:href="#md52e6384b7" y="252.494565"/>
     <use style="fill:#8c8c8c;stroke:#8c8c8c;" x="103.488949" xlink:href="#md52e6384b7" y="251.582099"/>
     <use style="fill:#8c8c8c;stroke:#8c8c8c;" x="118.854564" xlink:href="#md52e6384b7" y="250.18757"/>
     <use style="fill:#8c8c8c;stroke:#8c8c8c;" x="134.220178" xlink:href="#md52e6384b7" y="249.748332"/>
     <use style="fill:#8c8c8c;stroke:#8c8c8c;" x="149.585793" xlink:href="#md52e6384b7" y="248.201099"/>
     <use style="fill:#8c8c8c;stroke:#8c8c8c;" x="164.951408" xlink:href="#md52e6384b7" y="247.328246"/>
     <use style="fill:#8c8c8c;stroke:#8c8c8c;" x="180.317022" xlink:href="#md52e6384b7" y="247.238727"/>
     <use style="fill:#8c8c8c;stroke:#8c8c8c;" x="195.682637" xlink:href="#md52e6384b7" y="243.62512"/>
     <use style="fill:#8c8c8c;stroke:#8c8c8c;" x="211.048251" xlink:href="#md52e6384b7" y="248.348872"/>
     <use style="fill:#8c8c8c;stroke:#8c8c8c;" x="226.413866" xlink:href="#md52e6384b7" y="249.097011"/>
     <use style="fill:#8c8c8c;stroke:#8c8c8c;" x="241.77948" xlink:href="#md52e6384b7" y="246.980707"/>
     <use style="fill:#8c8c8c;stroke:#8c8c8c;" x="257.145095" xlink:href="#md52e6384b7" y="246.598116"/>
     <use style="fill:#8c8c8c;stroke:#8c8c8c;" x="272.51071" xlink:href="#md52e6384b7" y="246.987414"/>
     <use style="fill:#8c8c8c;stroke:#8c8c8c;" x="287.876324" xlink:href="#md52e6384b7" y="246.726975"/>
     <use style="fill:#8c8c8c;stroke:#8c8c8c;" x="303.241939" xlink:href="#md52e6384b7" y="246.372552"/>
     <use style="fill:#8c8c8c;stroke:#8c8c8c;" x="318.607553" xlink:href="#md52e6384b7" y="246.180995"/>
     <use style="fill:#8c8c8c;stroke:#8c8c8c;" x="333.973168" xlink:href="#md52e6384b7" y="245.742898"/>
     <use style="fill:#8c8c8c;stroke:#8c8c8c;" x="349.338783" xlink:href="#md52e6384b7" y="245.734487"/>
     <use style="fill:#8c8c8c;stroke:#8c8c8c;" x="364.704397" xlink:href="#md52e6384b7" y="244.123437"/>
     <use style="fill:#8c8c8c;stroke:#8c8c8c;" x="380.070012" xlink:href="#md52e6384b7" y="243.131931"/>
     <use style="fill:#8c8c8c;stroke:#8c8c8c;" x="395.435626" xlink:href="#md52e6384b7" y="243.519379"/>
     <use style="fill:#8c8c8c;stroke:#8c8c8c;" x="410.801241" xlink:href="#md52e6384b7" y="243.724698"/>
     <use style="fill:#8c8c8c;stroke:#8c8c8c;" x="426.166855" xlink:href="#md52e6384b7" y="244.445019"/>
    </g>
   </g>
   <g id="line2d_17">
    <path clip-path="url(#p04d3d674c2)" d="M 72.75772 238.459881 
L 88.123335 220.728715 
M 118.854564 216.589563 
M 180.317022 99.50355 
M 303.241939 94.013404 
" style="fill:none;stroke:#ccb974;stroke-linecap:round;stroke-width:1.5;"/>
    <defs>
     <path d="M 0 3 
C 0.795609 3 1.55874 2.683901 2.12132 2.12132 
C 2.683901 1.55874 3 0.795609 3 0 
C 3 -0.795609 2.683901 -1.55874 2.12132 -2.12132 
C 1.55874 -2.683901 0.795609 -3 0 -3 
C -0.795609 -3 -1.55874 -2.683901 -2.12132 -2.12132 
C -2.683901 -1.55874 -3 -0.795609 -3 0 
C -3 0.795609 -2.683901 1.55874 -2.12132 2.12132 
C -1.55874 2.683901 -0.795609 3 0 3 
z
" id="m0b046de471" style="stroke:#ccb974;"/>
    </defs>
    <g clip-path="url(#p04d3d674c2)">
     <use style="fill:#ccb974;stroke:#ccb974;" x="72.75772" xlink:href="#m0b046de471" y="238.459881"/>
     <use style="fill:#ccb974;stroke:#ccb974;" x="88.123335" xlink:href="#m0b046de471" y="220.728715"/>
     <use style="fill:#ccb974;stroke:#ccb974;" x="118.854564" xlink:href="#m0b046de471" y="216.589563"/>
     <use style="fill:#ccb974;stroke:#ccb974;" x="180.317022" xlink:href="#m0b046de471" y="99.50355"/>
     <use style="fill:#ccb974;stroke:#ccb974;" x="303.241939" xlink:href="#m0b046de471" y="94.013404"/>
    </g>
   </g>
   <g id="line2d_18">
    <path clip-path="url(#p04d3d674c2)" d="M 72.75772 252.889178 
L 88.123335 233.39416 
L 103.488949 250.442031 
L 118.854564 252.034582 
L 134.220178 247.163534 
L 149.585793 246.009521 
L 164.951408 245.093753 
L 180.317022 243.948446 
L 195.682637 243.980946 
L 211.048251 242.920848 
L 226.413866 244.228694 
L 241.77948 243.269715 
L 257.145095 241.491128 
L 272.51071 243.287239 
L 287.876324 242.822297 
L 303.241939 243.084568 
L 318.607553 240.290131 
L 333.973168 240.906915 
L 349.338783 240.515046 
L 364.704397 241.649989 
L 380.070012 240.965664 
L 395.435626 241.609617 
L 410.801241 240.868299 
L 426.166855 239.634388 
" style="fill:none;stroke:#64b5cd;stroke-linecap:round;stroke-width:1.5;"/>
    <defs>
     <path d="M 0 3 
C 0.795609 3 1.55874 2.683901 2.12132 2.12132 
C 2.683901 1.55874 3 0.795609 3 0 
C 3 -0.795609 2.683901 -1.55874 2.12132 -2.12132 
C 1.55874 -2.683901 0.795609 -3 0 -3 
C -0.795609 -3 -1.55874 -2.683901 -2.12132 -2.12132 
C -2.683901 -1.55874 -3 -0.795609 -3 0 
C -3 0.795609 -2.683901 1.55874 -2.12132 2.12132 
C -1.55874 2.683901 -0.795609 3 0 3 
z
" id="m311a530bdb" style="stroke:#64b5cd;"/>
    </defs>
    <g clip-path="url(#p04d3d674c2)">
     <use style="fill:#64b5cd;stroke:#64b5cd;" x="72.75772" xlink:href="#m311a530bdb" y="252.889178"/>
     <use style="fill:#64b5cd;stroke:#64b5cd;" x="88.123335" xlink:href="#m311a530bdb" y="233.39416"/>
     <use style="fill:#64b5cd;stroke:#64b5cd;" x="103.488949" xlink:href="#m311a530bdb" y="250.442031"/>
     <use style="fill:#64b5cd;stroke:#64b5cd;" x="118.854564" xlink:href="#m311a530bdb" y="252.034582"/>
     <use style="fill:#64b5cd;stroke:#64b5cd;" x="134.220178" xlink:href="#m311a530bdb" y="247.163534"/>
     <use style="fill:#64b5cd;stroke:#64b5cd;" x="149.585793" xlink:href="#m311a530bdb" y="246.009521"/>
     <use style="fill:#64b5cd;stroke:#64b5cd;" x="164.951408" xlink:href="#m311a530bdb" y="245.093753"/>
     <use style="fill:#64b5cd;stroke:#64b5cd;" x="180.317022" xlink:href="#m311a530bdb" y="243.948446"/>
     <use style="fill:#64b5cd;stroke:#64b5cd;" x="195.682637" xlink:href="#m311a530bdb" y="243.980946"/>
     <use style="fill:#64b5cd;stroke:#64b5cd;" x="211.048251" xlink:href="#m311a530bdb" y="242.920848"/>
     <use style="fill:#64b5cd;stroke:#64b5cd;" x="226.413866" xlink:href="#m311a530bdb" y="244.228694"/>
     <use style="fill:#64b5cd;stroke:#64b5cd;" x="241.77948" xlink:href="#m311a530bdb" y="243.269715"/>
     <use style="fill:#64b5cd;stroke:#64b5cd;" x="257.145095" xlink:href="#m311a530bdb" y="241.491128"/>
     <use style="fill:#64b5cd;stroke:#64b5cd;" x="272.51071" xlink:href="#m311a530bdb" y="243.287239"/>
     <use style="fill:#64b5cd;stroke:#64b5cd;" x="287.876324" xlink:href="#m311a530bdb" y="242.822297"/>
     <use style="fill:#64b5cd;stroke:#64b5cd;" x="303.241939" xlink:href="#m311a530bdb" y="243.084568"/>
     <use style="fill:#64b5cd;stroke:#64b5cd;" x="318.607553" xlink:href="#m311a530bdb" y="240.290131"/>
     <use style="fill:#64b5cd;stroke:#64b5cd;" x="333.973168" xlink:href="#m311a530bdb" y="240.906915"/>
     <use style="fill:#64b5cd;stroke:#64b5cd;" x="349.338783" xlink:href="#m311a530bdb" y="240.515046"/>
     <use style="fill:#64b5cd;stroke:#64b5cd;" x="364.704397" xlink:href="#m311a530bdb" y="241.649989"/>
     <use style="fill:#64b5cd;stroke:#64b5cd;" x="380.070012" xlink:href="#m311a530bdb" y="240.965664"/>
     <use style="fill:#64b5cd;stroke:#64b5cd;" x="395.435626" xlink:href="#m311a530bdb" y="241.609617"/>
     <use style="fill:#64b5cd;stroke:#64b5cd;" x="410.801241" xlink:href="#m311a530bdb" y="240.868299"/>
     <use style="fill:#64b5cd;stroke:#64b5cd;" x="426.166855" xlink:href="#m311a530bdb" y="239.634388"/>
    </g>
   </g>
   <g id="patch_3">
    <path d="M 55.087263 298.26 
L 55.087263 27.65625 
" style="fill:none;stroke:#ffffff;stroke-linecap:square;stroke-linejoin:miter;stroke-width:1.25;"/>
   </g>
   <g id="patch_4">
    <path d="M 443.837312 298.26 
L 443.837312 27.65625 
" style="fill:none;stroke:#ffffff;stroke-linecap:square;stroke-linejoin:miter;stroke-width:1.25;"/>
   </g>
   <g id="patch_5">
    <path d="M 55.087263 298.26 
L 443.837312 298.26 
" style="fill:none;stroke:#ffffff;stroke-linecap:square;stroke-linejoin:miter;stroke-width:1.25;"/>
   </g>
   <g id="patch_6">
    <path d="M 55.087263 27.65625 
L 443.837312 27.65625 
" style="fill:none;stroke:#ffffff;stroke-linecap:square;stroke-linejoin:miter;stroke-width:1.25;"/>
   </g>
   <g id="text_11">
    <!-- Runtime (4096 vector size) -->
    <g style="fill:#262626;" transform="translate(177.771663 21.65625)scale(0.12 -0.12)">
     <defs>
      <path d="M 350 1059 
L 891 1109 
Q 959 728 1153 556 
Q 1347 384 1650 384 
Q 1909 384 2104 503 
Q 2300 622 2425 820 
Q 2550 1019 2634 1356 
Q 2719 1694 2719 2044 
Q 2719 2081 2716 2156 
Q 2547 1888 2255 1720 
Q 1963 1553 1622 1553 
Q 1053 1553 659 1965 
Q 266 2378 266 3053 
Q 266 3750 677 4175 
Q 1088 4600 1706 4600 
Q 2153 4600 2523 4359 
Q 2894 4119 3086 3673 
Q 3278 3228 3278 2384 
Q 3278 1506 3087 986 
Q 2897 466 2520 194 
Q 2144 -78 1638 -78 
Q 1100 -78 759 220 
Q 419 519 350 1059 
z
M 2653 3081 
Q 2653 3566 2395 3850 
Q 2138 4134 1775 4134 
Q 1400 4134 1122 3828 
Q 844 3522 844 3034 
Q 844 2597 1108 2323 
Q 1372 2050 1759 2050 
Q 2150 2050 2401 2323 
Q 2653 2597 2653 3081 
z
" id="ArialMT-39" transform="scale(0.015625)"/>
      <path d="M 3184 3459 
L 2625 3416 
Q 2550 3747 2413 3897 
Q 2184 4138 1850 4138 
Q 1581 4138 1378 3988 
Q 1113 3794 959 3422 
Q 806 3050 800 2363 
Q 1003 2672 1297 2822 
Q 1591 2972 1913 2972 
Q 2475 2972 2870 2558 
Q 3266 2144 3266 1488 
Q 3266 1056 3080 686 
Q 2894 316 2569 119 
Q 2244 -78 1831 -78 
Q 1128 -78 684 439 
Q 241 956 241 2144 
Q 241 3472 731 4075 
Q 1159 4600 1884 4600 
Q 2425 4600 2770 4297 
Q 3116 3994 3184 3459 
z
M 888 1484 
Q 888 1194 1011 928 
Q 1134 663 1356 523 
Q 1578 384 1822 384 
Q 2178 384 2434 671 
Q 2691 959 2691 1453 
Q 2691 1928 2437 2201 
Q 2184 2475 1800 2475 
Q 1419 2475 1153 2201 
Q 888 1928 888 1484 
z
" id="ArialMT-36" transform="scale(0.015625)"/>
      <path d="M 1344 0 
L 81 3319 
L 675 3319 
L 1388 1331 
Q 1503 1009 1600 663 
Q 1675 925 1809 1294 
L 2547 3319 
L 3125 3319 
L 1869 0 
L 1344 0 
z
" id="ArialMT-76" transform="scale(0.015625)"/>
      <path d="M 125 0 
L 125 456 
L 2238 2881 
Q 1878 2863 1603 2863 
L 250 2863 
L 250 3319 
L 2963 3319 
L 2963 2947 
L 1166 841 
L 819 456 
Q 1197 484 1528 484 
L 3063 484 
L 3063 0 
L 125 0 
z
" id="ArialMT-7a" transform="scale(0.015625)"/>
     </defs>
     <use xlink:href="#ArialMT-52"/>
     <use x="72.216797" xlink:href="#ArialMT-75"/>
     <use x="127.832031" xlink:href="#ArialMT-6e"/>
     <use x="183.447266" xlink:href="#ArialMT-74"/>
     <use x="211.230469" xlink:href="#ArialMT-69"/>
     <use x="233.447266" xlink:href="#ArialMT-6d"/>
     <use x="316.748047" xlink:href="#ArialMT-65"/>
     <use x="372.363281" xlink:href="#ArialMT-20"/>
     <use x="400.146484" xlink:href="#ArialMT-28"/>
     <use x="433.447266" xlink:href="#ArialMT-34"/>
     <use x="489.0625" xlink:href="#ArialMT-30"/>
     <use x="544.677734" xlink:href="#ArialMT-39"/>
     <use x="600.292969" xlink:href="#ArialMT-36"/>
     <use x="655.908203" xlink:href="#ArialMT-20"/>
     <use x="683.691406" xlink:href="#ArialMT-76"/>
     <use x="733.691406" xlink:href="#ArialMT-65"/>
     <use x="789.306641" xlink:href="#ArialMT-63"/>
     <use x="839.306641" xlink:href="#ArialMT-74"/>
     <use x="867.089844" xlink:href="#ArialMT-6f"/>
     <use x="922.705078" xlink:href="#ArialMT-72"/>
     <use x="956.005859" xlink:href="#ArialMT-20"/>
     <use x="983.789062" xlink:href="#ArialMT-73"/>
     <use x="1033.789062" xlink:href="#ArialMT-69"/>
     <use x="1056.005859" xlink:href="#ArialMT-7a"/>
     <use x="1106.005859" xlink:href="#ArialMT-65"/>
     <use x="1161.621094" xlink:href="#ArialMT-29"/>
    </g>
   </g>
   <g id="legend_1">
    <g id="patch_7">
     <path d="M 62.787263 209.436562 
L 271.62742 209.436562 
Q 273.82742 209.436562 273.82742 207.236562 
L 273.82742 35.35625 
Q 273.82742 33.15625 271.62742 33.15625 
L 62.787263 33.15625 
Q 60.587263 33.15625 60.587263 35.35625 
L 60.587263 207.236562 
Q 60.587263 209.436562 62.787263 209.436562 
z
" style="fill:#eaeaf2;opacity:0.8;stroke:#cccccc;stroke-linejoin:miter;"/>
    </g>
    <g id="text_12">
     <!-- implementation -->
     <g style="fill:#262626;" transform="translate(126.522654 46.145625)scale(0.12 -0.12)">
      <defs>
       <path d="M 409 0 
L 409 4581 
L 972 4581 
L 972 0 
L 409 0 
z
" id="ArialMT-6c" transform="scale(0.015625)"/>
       <path d="M 2588 409 
Q 2275 144 1986 34 
Q 1697 -75 1366 -75 
Q 819 -75 525 192 
Q 231 459 231 875 
Q 231 1119 342 1320 
Q 453 1522 633 1644 
Q 813 1766 1038 1828 
Q 1203 1872 1538 1913 
Q 2219 1994 2541 2106 
Q 2544 2222 2544 2253 
Q 2544 2597 2384 2738 
Q 2169 2928 1744 2928 
Q 1347 2928 1158 2789 
Q 969 2650 878 2297 
L 328 2372 
Q 403 2725 575 2942 
Q 747 3159 1072 3276 
Q 1397 3394 1825 3394 
Q 2250 3394 2515 3294 
Q 2781 3194 2906 3042 
Q 3031 2891 3081 2659 
Q 3109 2516 3109 2141 
L 3109 1391 
Q 3109 606 3145 398 
Q 3181 191 3288 0 
L 2700 0 
Q 2613 175 2588 409 
z
M 2541 1666 
Q 2234 1541 1622 1453 
Q 1275 1403 1131 1340 
Q 988 1278 909 1158 
Q 831 1038 831 891 
Q 831 666 1001 516 
Q 1172 366 1500 366 
Q 1825 366 2078 508 
Q 2331 650 2450 897 
Q 2541 1088 2541 1459 
L 2541 1666 
z
" id="ArialMT-61" transform="scale(0.015625)"/>
      </defs>
      <use xlink:href="#ArialMT-69"/>
      <use x="22.216797" xlink:href="#ArialMT-6d"/>
      <use x="105.517578" xlink:href="#ArialMT-70"/>
      <use x="161.132812" xlink:href="#ArialMT-6c"/>
      <use x="183.349609" xlink:href="#ArialMT-65"/>
      <use x="238.964844" xlink:href="#ArialMT-6d"/>
      <use x="322.265625" xlink:href="#ArialMT-65"/>
      <use x="377.880859" xlink:href="#ArialMT-6e"/>
      <use x="433.496094" xlink:href="#ArialMT-74"/>
      <use x="461.279297" xlink:href="#ArialMT-61"/>
      <use x="516.894531" xlink:href="#ArialMT-74"/>
      <use x="544.677734" xlink:href="#ArialMT-69"/>
      <use x="566.894531" xlink:href="#ArialMT-6f"/>
      <use x="622.509766" xlink:href="#ArialMT-6e"/>
     </g>
    </g>
    <g id="line2d_19">
     <path d="M 64.987263 58.054219 
L 86.987263 58.054219 
" style="fill:none;stroke:#4c72b0;stroke-linecap:round;stroke-width:1.5;"/>
    </g>
    <g id="line2d_20">
     <g>
      <use style="fill:#4c72b0;stroke:#4c72b0;" x="75.987263" xlink:href="#m72f7195794" y="58.054219"/>
     </g>
    </g>
    <g id="text_13">
     <!-- allreduce -->
     <g style="fill:#262626;" transform="translate(95.787263 61.904219)scale(0.11 -0.11)">
      <defs>
       <path d="M 2575 0 
L 2575 419 
Q 2259 -75 1647 -75 
Q 1250 -75 917 144 
Q 584 363 401 755 
Q 219 1147 219 1656 
Q 219 2153 384 2558 
Q 550 2963 881 3178 
Q 1213 3394 1622 3394 
Q 1922 3394 2156 3267 
Q 2391 3141 2538 2938 
L 2538 4581 
L 3097 4581 
L 3097 0 
L 2575 0 
z
M 797 1656 
Q 797 1019 1065 703 
Q 1334 388 1700 388 
Q 2069 388 2326 689 
Q 2584 991 2584 1609 
Q 2584 2291 2321 2609 
Q 2059 2928 1675 2928 
Q 1300 2928 1048 2622 
Q 797 2316 797 1656 
z
" id="ArialMT-64" transform="scale(0.015625)"/>
      </defs>
      <use xlink:href="#ArialMT-61"/>
      <use x="55.615234" xlink:href="#ArialMT-6c"/>
      <use x="77.832031" xlink:href="#ArialMT-6c"/>
      <use x="100.048828" xlink:href="#ArialMT-72"/>
      <use x="133.349609" xlink:href="#ArialMT-65"/>
      <use x="188.964844" xlink:href="#ArialMT-64"/>
      <use x="244.580078" xlink:href="#ArialMT-75"/>
      <use x="300.195312" xlink:href="#ArialMT-63"/>
      <use x="350.195312" xlink:href="#ArialMT-65"/>
     </g>
    </g>
    <g id="line2d_21">
     <path d="M 64.987263 73.748125 
L 86.987263 73.748125 
" style="fill:none;stroke:#dd8452;stroke-linecap:round;stroke-width:1.5;"/>
    </g>
    <g id="line2d_22">
     <g>
      <use style="fill:#dd8452;stroke:#dd8452;" x="75.987263" xlink:href="#m26e82f5a5d" y="73.748125"/>
     </g>
    </g>
    <g id="text_14">
     <!-- allreduce-butterfly -->
     <g style="fill:#262626;" transform="translate(95.787263 77.598125)scale(0.11 -0.11)">
      <defs>
       <path d="M 203 1375 
L 203 1941 
L 1931 1941 
L 1931 1375 
L 203 1375 
z
" id="ArialMT-2d" transform="scale(0.015625)"/>
       <path d="M 397 -1278 
L 334 -750 
Q 519 -800 656 -800 
Q 844 -800 956 -737 
Q 1069 -675 1141 -563 
Q 1194 -478 1313 -144 
Q 1328 -97 1363 -6 
L 103 3319 
L 709 3319 
L 1400 1397 
Q 1534 1031 1641 628 
Q 1738 1016 1872 1384 
L 2581 3319 
L 3144 3319 
L 1881 -56 
Q 1678 -603 1566 -809 
Q 1416 -1088 1222 -1217 
Q 1028 -1347 759 -1347 
Q 597 -1347 397 -1278 
z
" id="ArialMT-79" transform="scale(0.015625)"/>
      </defs>
      <use xlink:href="#ArialMT-61"/>
      <use x="55.615234" xlink:href="#ArialMT-6c"/>
      <use x="77.832031" xlink:href="#ArialMT-6c"/>
      <use x="100.048828" xlink:href="#ArialMT-72"/>
      <use x="133.349609" xlink:href="#ArialMT-65"/>
      <use x="188.964844" xlink:href="#ArialMT-64"/>
      <use x="244.580078" xlink:href="#ArialMT-75"/>
      <use x="300.195312" xlink:href="#ArialMT-63"/>
      <use x="350.195312" xlink:href="#ArialMT-65"/>
      <use x="405.810547" xlink:href="#ArialMT-2d"/>
      <use x="439.111328" xlink:href="#ArialMT-62"/>
      <use x="494.726562" xlink:href="#ArialMT-75"/>
      <use x="550.341797" xlink:href="#ArialMT-74"/>
      <use x="578.125" xlink:href="#ArialMT-74"/>
      <use x="605.908203" xlink:href="#ArialMT-65"/>
      <use x="661.523438" xlink:href="#ArialMT-72"/>
      <use x="694.824219" xlink:href="#ArialMT-66"/>
      <use x="722.607422" xlink:href="#ArialMT-6c"/>
      <use x="744.824219" xlink:href="#ArialMT-79"/>
     </g>
    </g>
    <g id="line2d_23">
     <path d="M 64.987263 89.436875 
L 86.987263 89.436875 
" style="fill:none;stroke:#55a868;stroke-linecap:round;stroke-width:1.5;"/>
    </g>
    <g id="line2d_24">
     <g>
      <use style="fill:#55a868;stroke:#55a868;" x="75.987263" xlink:href="#m2a33300ee9" y="89.436875"/>
     </g>
    </g>
    <g id="text_15">
     <!-- allreduce-native-basic_linear -->
     <g style="fill:#262626;" transform="translate(95.787263 93.286875)scale(0.11 -0.11)">
      <defs>
       <path d="M -97 -1272 
L -97 -866 
L 3631 -866 
L 3631 -1272 
L -97 -1272 
z
" id="ArialMT-5f" transform="scale(0.015625)"/>
      </defs>
      <use xlink:href="#ArialMT-61"/>
      <use x="55.615234" xlink:href="#ArialMT-6c"/>
      <use x="77.832031" xlink:href="#ArialMT-6c"/>
      <use x="100.048828" xlink:href="#ArialMT-72"/>
      <use x="133.349609" xlink:href="#ArialMT-65"/>
      <use x="188.964844" xlink:href="#ArialMT-64"/>
      <use x="244.580078" xlink:href="#ArialMT-75"/>
      <use x="300.195312" xlink:href="#ArialMT-63"/>
      <use x="350.195312" xlink:href="#ArialMT-65"/>
      <use x="405.810547" xlink:href="#ArialMT-2d"/>
      <use x="439.111328" xlink:href="#ArialMT-6e"/>
      <use x="494.726562" xlink:href="#ArialMT-61"/>
      <use x="550.341797" xlink:href="#ArialMT-74"/>
      <use x="578.125" xlink:href="#ArialMT-69"/>
      <use x="600.341797" xlink:href="#ArialMT-76"/>
      <use x="650.341797" xlink:href="#ArialMT-65"/>
      <use x="705.957031" xlink:href="#ArialMT-2d"/>
      <use x="739.257812" xlink:href="#ArialMT-62"/>
      <use x="794.873047" xlink:href="#ArialMT-61"/>
      <use x="850.488281" xlink:href="#ArialMT-73"/>
      <use x="900.488281" xlink:href="#ArialMT-69"/>
      <use x="922.705078" xlink:href="#ArialMT-63"/>
      <use x="972.705078" xlink:href="#ArialMT-5f"/>
      <use x="1028.320312" xlink:href="#ArialMT-6c"/>
      <use x="1050.537109" xlink:href="#ArialMT-69"/>
      <use x="1072.753906" xlink:href="#ArialMT-6e"/>
      <use x="1128.369141" xlink:href="#ArialMT-65"/>
      <use x="1183.984375" xlink:href="#ArialMT-61"/>
      <use x="1239.599609" xlink:href="#ArialMT-72"/>
     </g>
    </g>
    <g id="line2d_25">
     <path d="M 64.987263 104.996719 
L 86.987263 104.996719 
" style="fill:none;stroke:#c44e52;stroke-linecap:round;stroke-width:1.5;"/>
    </g>
    <g id="line2d_26">
     <g>
      <use style="fill:#c44e52;stroke:#c44e52;" x="75.987263" xlink:href="#ma9d5ce86c3" y="104.996719"/>
     </g>
    </g>
    <g id="text_16">
     <!-- allreduce-native-nonoverlapping -->
     <g style="fill:#262626;" transform="translate(95.787263 108.846719)scale(0.11 -0.11)">
      <defs>
       <path d="M 319 -275 
L 866 -356 
Q 900 -609 1056 -725 
Q 1266 -881 1628 -881 
Q 2019 -881 2231 -725 
Q 2444 -569 2519 -288 
Q 2563 -116 2559 434 
Q 2191 0 1641 0 
Q 956 0 581 494 
Q 206 988 206 1678 
Q 206 2153 378 2554 
Q 550 2956 876 3175 
Q 1203 3394 1644 3394 
Q 2231 3394 2613 2919 
L 2613 3319 
L 3131 3319 
L 3131 450 
Q 3131 -325 2973 -648 
Q 2816 -972 2473 -1159 
Q 2131 -1347 1631 -1347 
Q 1038 -1347 672 -1080 
Q 306 -813 319 -275 
z
M 784 1719 
Q 784 1066 1043 766 
Q 1303 466 1694 466 
Q 2081 466 2343 764 
Q 2606 1063 2606 1700 
Q 2606 2309 2336 2618 
Q 2066 2928 1684 2928 
Q 1309 2928 1046 2623 
Q 784 2319 784 1719 
z
" id="ArialMT-67" transform="scale(0.015625)"/>
      </defs>
      <use xlink:href="#ArialMT-61"/>
      <use x="55.615234" xlink:href="#ArialMT-6c"/>
      <use x="77.832031" xlink:href="#ArialMT-6c"/>
      <use x="100.048828" xlink:href="#ArialMT-72"/>
      <use x="133.349609" xlink:href="#ArialMT-65"/>
      <use x="188.964844" xlink:href="#ArialMT-64"/>
      <use x="244.580078" xlink:href="#ArialMT-75"/>
      <use x="300.195312" xlink:href="#ArialMT-63"/>
      <use x="350.195312" xlink:href="#ArialMT-65"/>
      <use x="405.810547" xlink:href="#ArialMT-2d"/>
      <use x="439.111328" xlink:href="#ArialMT-6e"/>
      <use x="494.726562" xlink:href="#ArialMT-61"/>
      <use x="550.341797" xlink:href="#ArialMT-74"/>
      <use x="578.125" xlink:href="#ArialMT-69"/>
      <use x="600.341797" xlink:href="#ArialMT-76"/>
      <use x="650.341797" xlink:href="#ArialMT-65"/>
      <use x="705.957031" xlink:href="#ArialMT-2d"/>
      <use x="739.257812" xlink:href="#ArialMT-6e"/>
      <use x="794.873047" xlink:href="#ArialMT-6f"/>
      <use x="850.488281" xlink:href="#ArialMT-6e"/>
      <use x="906.103516" xlink:href="#ArialMT-6f"/>
      <use x="961.71875" xlink:href="#ArialMT-76"/>
      <use x="1011.71875" xlink:href="#ArialMT-65"/>
      <use x="1067.333984" xlink:href="#ArialMT-72"/>
      <use x="1100.634766" xlink:href="#ArialMT-6c"/>
      <use x="1122.851562" xlink:href="#ArialMT-61"/>
      <use x="1178.466797" xlink:href="#ArialMT-70"/>
      <use x="1234.082031" xlink:href="#ArialMT-70"/>
      <use x="1289.697266" xlink:href="#ArialMT-69"/>
      <use x="1311.914062" xlink:href="#ArialMT-6e"/>
      <use x="1367.529297" xlink:href="#ArialMT-67"/>
     </g>
    </g>
    <g id="line2d_27">
     <path d="M 64.987263 120.685469 
L 86.987263 120.685469 
" style="fill:none;stroke:#8172b3;stroke-linecap:round;stroke-width:1.5;"/>
    </g>
    <g id="line2d_28">
     <g>
      <use style="fill:#8172b3;stroke:#8172b3;" x="75.987263" xlink:href="#ma17aedbfa7" y="120.685469"/>
     </g>
    </g>
    <g id="text_17">
     <!-- allreduce-native-rabenseifner -->
     <g style="fill:#262626;" transform="translate(95.787263 124.535469)scale(0.11 -0.11)">
      <use xlink:href="#ArialMT-61"/>
      <use x="55.615234" xlink:href="#ArialMT-6c"/>
      <use x="77.832031" xlink:href="#ArialMT-6c"/>
      <use x="100.048828" xlink:href="#ArialMT-72"/>
      <use x="133.349609" xlink:href="#ArialMT-65"/>
      <use x="188.964844" xlink:href="#ArialMT-64"/>
      <use x="244.580078" xlink:href="#ArialMT-75"/>
      <use x="300.195312" xlink:href="#ArialMT-63"/>
      <use x="350.195312" xlink:href="#ArialMT-65"/>
      <use x="405.810547" xlink:href="#ArialMT-2d"/>
      <use x="439.111328" xlink:href="#ArialMT-6e"/>
      <use x="494.726562" xlink:href="#ArialMT-61"/>
      <use x="550.341797" xlink:href="#ArialMT-74"/>
      <use x="578.125" xlink:href="#ArialMT-69"/>
      <use x="600.341797" xlink:href="#ArialMT-76"/>
      <use x="650.341797" xlink:href="#ArialMT-65"/>
      <use x="705.957031" xlink:href="#ArialMT-2d"/>
      <use x="739.257812" xlink:href="#ArialMT-72"/>
      <use x="772.558594" xlink:href="#ArialMT-61"/>
      <use x="828.173828" xlink:href="#ArialMT-62"/>
      <use x="883.789062" xlink:href="#ArialMT-65"/>
      <use x="939.404297" xlink:href="#ArialMT-6e"/>
      <use x="995.019531" xlink:href="#ArialMT-73"/>
      <use x="1045.019531" xlink:href="#ArialMT-65"/>
      <use x="1100.634766" xlink:href="#ArialMT-69"/>
      <use x="1122.851562" xlink:href="#ArialMT-66"/>
      <use x="1150.634766" xlink:href="#ArialMT-6e"/>
      <use x="1206.25" xlink:href="#ArialMT-65"/>
      <use x="1261.865234" xlink:href="#ArialMT-72"/>
     </g>
    </g>
    <g id="line2d_29">
     <path d="M 64.987263 136.245312 
L 86.987263 136.245312 
" style="fill:none;stroke:#937860;stroke-linecap:round;stroke-width:1.5;"/>
    </g>
    <g id="line2d_30">
     <g>
      <use style="fill:#937860;stroke:#937860;" x="75.987263" xlink:href="#mb57bcff47a" y="136.245312"/>
     </g>
    </g>
    <g id="text_18">
     <!-- allreduce-native-recursive_doubling -->
     <g style="fill:#262626;" transform="translate(95.787263 140.095312)scale(0.11 -0.11)">
      <use xlink:href="#ArialMT-61"/>
      <use x="55.615234" xlink:href="#ArialMT-6c"/>
      <use x="77.832031" xlink:href="#ArialMT-6c"/>
      <use x="100.048828" xlink:href="#ArialMT-72"/>
      <use x="133.349609" xlink:href="#ArialMT-65"/>
      <use x="188.964844" xlink:href="#ArialMT-64"/>
      <use x="244.580078" xlink:href="#ArialMT-75"/>
      <use x="300.195312" xlink:href="#ArialMT-63"/>
      <use x="350.195312" xlink:href="#ArialMT-65"/>
      <use x="405.810547" xlink:href="#ArialMT-2d"/>
      <use x="439.111328" xlink:href="#ArialMT-6e"/>
      <use x="494.726562" xlink:href="#ArialMT-61"/>
      <use x="550.341797" xlink:href="#ArialMT-74"/>
      <use x="578.125" xlink:href="#ArialMT-69"/>
      <use x="600.341797" xlink:href="#ArialMT-76"/>
      <use x="650.341797" xlink:href="#ArialMT-65"/>
      <use x="705.957031" xlink:href="#ArialMT-2d"/>
      <use x="739.257812" xlink:href="#ArialMT-72"/>
      <use x="772.558594" xlink:href="#ArialMT-65"/>
      <use x="828.173828" xlink:href="#ArialMT-63"/>
      <use x="878.173828" xlink:href="#ArialMT-75"/>
      <use x="933.789062" xlink:href="#ArialMT-72"/>
      <use x="967.089844" xlink:href="#ArialMT-73"/>
      <use x="1017.089844" xlink:href="#ArialMT-69"/>
      <use x="1039.306641" xlink:href="#ArialMT-76"/>
      <use x="1089.306641" xlink:href="#ArialMT-65"/>
      <use x="1144.921875" xlink:href="#ArialMT-5f"/>
      <use x="1200.537109" xlink:href="#ArialMT-64"/>
      <use x="1256.152344" xlink:href="#ArialMT-6f"/>
      <use x="1311.767578" xlink:href="#ArialMT-75"/>
      <use x="1367.382812" xlink:href="#ArialMT-62"/>
      <use x="1422.998047" xlink:href="#ArialMT-6c"/>
      <use x="1445.214844" xlink:href="#ArialMT-69"/>
      <use x="1467.431641" xlink:href="#ArialMT-6e"/>
      <use x="1523.046875" xlink:href="#ArialMT-67"/>
     </g>
    </g>
    <g id="line2d_31">
     <path d="M 64.987263 151.934063 
L 86.987263 151.934063 
" style="fill:none;stroke:#da8bc3;stroke-linecap:round;stroke-width:1.5;"/>
    </g>
    <g id="line2d_32">
     <g>
      <use style="fill:#da8bc3;stroke:#da8bc3;" x="75.987263" xlink:href="#m2c0f4bf1ce" y="151.934063"/>
     </g>
    </g>
    <g id="text_19">
     <!-- allreduce-native-ring -->
     <g style="fill:#262626;" transform="translate(95.787263 155.784063)scale(0.11 -0.11)">
      <use xlink:href="#ArialMT-61"/>
      <use x="55.615234" xlink:href="#ArialMT-6c"/>
      <use x="77.832031" xlink:href="#ArialMT-6c"/>
      <use x="100.048828" xlink:href="#ArialMT-72"/>
      <use x="133.349609" xlink:href="#ArialMT-65"/>
      <use x="188.964844" xlink:href="#ArialMT-64"/>
      <use x="244.580078" xlink:href="#ArialMT-75"/>
      <use x="300.195312" xlink:href="#ArialMT-63"/>
      <use x="350.195312" xlink:href="#ArialMT-65"/>
      <use x="405.810547" xlink:href="#ArialMT-2d"/>
      <use x="439.111328" xlink:href="#ArialMT-6e"/>
      <use x="494.726562" xlink:href="#ArialMT-61"/>
      <use x="550.341797" xlink:href="#ArialMT-74"/>
      <use x="578.125" xlink:href="#ArialMT-69"/>
      <use x="600.341797" xlink:href="#ArialMT-76"/>
      <use x="650.341797" xlink:href="#ArialMT-65"/>
      <use x="705.957031" xlink:href="#ArialMT-2d"/>
      <use x="739.257812" xlink:href="#ArialMT-72"/>
      <use x="772.558594" xlink:href="#ArialMT-69"/>
      <use x="794.775391" xlink:href="#ArialMT-6e"/>
      <use x="850.390625" xlink:href="#ArialMT-67"/>
     </g>
    </g>
    <g id="line2d_33">
     <path d="M 64.987263 167.622812 
L 86.987263 167.622812 
" style="fill:none;stroke:#8c8c8c;stroke-linecap:round;stroke-width:1.5;"/>
    </g>
    <g id="line2d_34">
     <g>
      <use style="fill:#8c8c8c;stroke:#8c8c8c;" x="75.987263" xlink:href="#md52e6384b7" y="167.622812"/>
     </g>
    </g>
    <g id="text_20">
     <!-- allreduce-native-segmented_ring -->
     <g style="fill:#262626;" transform="translate(95.787263 171.472812)scale(0.11 -0.11)">
      <use xlink:href="#ArialMT-61"/>
      <use x="55.615234" xlink:href="#ArialMT-6c"/>
      <use x="77.832031" xlink:href="#ArialMT-6c"/>
      <use x="100.048828" xlink:href="#ArialMT-72"/>
      <use x="133.349609" xlink:href="#ArialMT-65"/>
      <use x="188.964844" xlink:href="#ArialMT-64"/>
      <use x="244.580078" xlink:href="#ArialMT-75"/>
      <use x="300.195312" xlink:href="#ArialMT-63"/>
      <use x="350.195312" xlink:href="#ArialMT-65"/>
      <use x="405.810547" xlink:href="#ArialMT-2d"/>
      <use x="439.111328" xlink:href="#ArialMT-6e"/>
      <use x="494.726562" xlink:href="#ArialMT-61"/>
      <use x="550.341797" xlink:href="#ArialMT-74"/>
      <use x="578.125" xlink:href="#ArialMT-69"/>
      <use x="600.341797" xlink:href="#ArialMT-76"/>
      <use x="650.341797" xlink:href="#ArialMT-65"/>
      <use x="705.957031" xlink:href="#ArialMT-2d"/>
      <use x="739.257812" xlink:href="#ArialMT-73"/>
      <use x="789.257812" xlink:href="#ArialMT-65"/>
      <use x="844.873047" xlink:href="#ArialMT-67"/>
      <use x="900.488281" xlink:href="#ArialMT-6d"/>
      <use x="983.789062" xlink:href="#ArialMT-65"/>
      <use x="1039.404297" xlink:href="#ArialMT-6e"/>
      <use x="1095.019531" xlink:href="#ArialMT-74"/>
      <use x="1122.802734" xlink:href="#ArialMT-65"/>
      <use x="1178.417969" xlink:href="#ArialMT-64"/>
      <use x="1234.033203" xlink:href="#ArialMT-5f"/>
      <use x="1289.648438" xlink:href="#ArialMT-72"/>
      <use x="1322.949219" xlink:href="#ArialMT-69"/>
      <use x="1345.166016" xlink:href="#ArialMT-6e"/>
      <use x="1400.78125" xlink:href="#ArialMT-67"/>
     </g>
    </g>
    <g id="line2d_35">
     <path d="M 64.987263 183.311563 
L 86.987263 183.311563 
" style="fill:none;stroke:#ccb974;stroke-linecap:round;stroke-width:1.5;"/>
    </g>
    <g id="line2d_36">
     <g>
      <use style="fill:#ccb974;stroke:#ccb974;" x="75.987263" xlink:href="#m0b046de471" y="183.311563"/>
     </g>
    </g>
    <g id="text_21">
     <!-- allreduce-rabenseifner -->
     <g style="fill:#262626;" transform="translate(95.787263 187.161563)scale(0.11 -0.11)">
      <use xlink:href="#ArialMT-61"/>
      <use x="55.615234" xlink:href="#ArialMT-6c"/>
      <use x="77.832031" xlink:href="#ArialMT-6c"/>
      <use x="100.048828" xlink:href="#ArialMT-72"/>
      <use x="133.349609" xlink:href="#ArialMT-65"/>
      <use x="188.964844" xlink:href="#ArialMT-64"/>
      <use x="244.580078" xlink:href="#ArialMT-75"/>
      <use x="300.195312" xlink:href="#ArialMT-63"/>
      <use x="350.195312" xlink:href="#ArialMT-65"/>
      <use x="405.810547" xlink:href="#ArialMT-2d"/>
      <use x="439.111328" xlink:href="#ArialMT-72"/>
      <use x="472.412109" xlink:href="#ArialMT-61"/>
      <use x="528.027344" xlink:href="#ArialMT-62"/>
      <use x="583.642578" xlink:href="#ArialMT-65"/>
      <use x="639.257812" xlink:href="#ArialMT-6e"/>
      <use x="694.873047" xlink:href="#ArialMT-73"/>
      <use x="744.873047" xlink:href="#ArialMT-65"/>
      <use x="800.488281" xlink:href="#ArialMT-69"/>
      <use x="822.705078" xlink:href="#ArialMT-66"/>
      <use x="850.488281" xlink:href="#ArialMT-6e"/>
      <use x="906.103516" xlink:href="#ArialMT-65"/>
      <use x="961.71875" xlink:href="#ArialMT-72"/>
     </g>
    </g>
    <g id="line2d_37">
     <path d="M 64.987263 198.871406 
L 86.987263 198.871406 
" style="fill:none;stroke:#64b5cd;stroke-linecap:round;stroke-width:1.5;"/>
    </g>
    <g id="line2d_38">
     <g>
      <use style="fill:#64b5cd;stroke:#64b5cd;" x="75.987263" xlink:href="#m311a530bdb" y="198.871406"/>
     </g>
    </g>
    <g id="text_22">
     <!-- allreduce-ring -->
     <g style="fill:#262626;" transform="translate(95.787263 202.721406)scale(0.11 -0.11)">
      <use xlink:href="#ArialMT-61"/>
      <use x="55.615234" xlink:href="#ArialMT-6c"/>
      <use x="77.832031" xlink:href="#ArialMT-6c"/>
      <use x="100.048828" xlink:href="#ArialMT-72"/>
      <use x="133.349609" xlink:href="#ArialMT-65"/>
      <use x="188.964844" xlink:href="#ArialMT-64"/>
      <use x="244.580078" xlink:href="#ArialMT-75"/>
      <use x="300.195312" xlink:href="#ArialMT-63"/>
      <use x="350.195312" xlink:href="#ArialMT-65"/>
      <use x="405.810547" xlink:href="#ArialMT-2d"/>
      <use x="439.111328" xlink:href="#ArialMT-72"/>
      <use x="472.412109" xlink:href="#ArialMT-69"/>
      <use x="494.628906" xlink:href="#ArialMT-6e"/>
      <use x="550.244141" xlink:href="#ArialMT-67"/>
     </g>
    </g>
   </g>
  </g>
 </g>
 <defs>
  <clipPath id="p04d3d674c2">
   <rect height="270.60375" width="388.750049" x="55.087263" y="27.65625"/>
  </clipPath>
 </defs>
</svg>
