<?xml version="1.0" encoding="utf-8" standalone="no"?>
<!DOCTYPE svg PUBLIC "-//W3C//DTD SVG 1.1//EN"
  "http://www.w3.org/Graphics/SVG/1.1/DTD/svg11.dtd">
<svg height="345.6pt" version="1.1" viewBox="0 0 460.8 345.6" width="460.8pt" xmlns="http://www.w3.org/2000/svg" xmlns:xlink="http://www.w3.org/1999/xlink">
 <metadata>
  <rdf:RDF xmlns:cc="http://creativecommons.org/ns#" xmlns:dc="http://purl.org/dc/elements/1.1/" xmlns:rdf="http://www.w3.org/1999/02/22-rdf-syntax-ns#">
   <cc:Work>
    <dc:type rdf:resource="http://purl.org/dc/dcmitype/StillImage"/>
    <dc:date>2021-11-20T20:49:40.813936</dc:date>
    <dc:format>image/svg+xml</dc:format>
    <dc:creator>
     <cc:Agent>
      <dc:title>Matplotlib v3.4.3, https://matplotlib.org/</dc:title>
     </cc:Agent>
    </dc:creator>
   </cc:Work>
  </rdf:RDF>
 </metadata>
 <defs>
  <style type="text/css">*{stroke-linecap:butt;stroke-linejoin:round;}</style>
 </defs>
 <g id="figure_1">
  <g id="patch_1">
   <path d="M 0 345.6 
L 460.8 345.6 
L 460.8 0 
L 0 0 
z
" style="fill:#ffffff;"/>
  </g>
  <g id="axes_1">
   <g id="patch_2">
    <path d="M 59.598267 298.26 
L 443.837312 298.26 
L 443.837312 27.65625 
L 59.598267 27.65625 
z
" style="fill:#eaeaf2;"/>
   </g>
   <g id="matplotlib.axis_1">
    <g id="xtick_1">
     <g id="line2d_1">
      <path clip-path="url(#pd64336e419)" d="M 61.876364 298.26 
L 61.876364 27.65625 
" style="fill:none;stroke:#ffffff;stroke-linecap:round;"/>
     </g>
     <g id="text_1">
      <!-- 0 -->
      <g style="fill:#262626;" transform="translate(58.817849 315.633594)scale(0.11 -0.11)">
       <defs>
        <path d="M 266 2259 
Q 266 3072 433 3567 
Q 600 4063 929 4331 
Q 1259 4600 1759 4600 
Q 2128 4600 2406 4451 
Q 2684 4303 2865 4023 
Q 3047 3744 3150 3342 
Q 3253 2941 3253 2259 
Q 3253 1453 3087 958 
Q 2922 463 2592 192 
Q 2263 -78 1759 -78 
Q 1097 -78 719 397 
Q 266 969 266 2259 
z
M 844 2259 
Q 844 1131 1108 757 
Q 1372 384 1759 384 
Q 2147 384 2411 759 
Q 2675 1134 2675 2259 
Q 2675 3391 2411 3762 
Q 2147 4134 1753 4134 
Q 1366 4134 1134 3806 
Q 844 3388 844 2259 
z
" id="ArialMT-30" transform="scale(0.015625)"/>
       </defs>
       <use xlink:href="#ArialMT-30"/>
      </g>
     </g>
    </g>
    <g id="xtick_2">
     <g id="line2d_2">
      <path clip-path="url(#pd64336e419)" d="M 137.812934 298.26 
L 137.812934 27.65625 
" style="fill:none;stroke:#ffffff;stroke-linecap:round;"/>
     </g>
     <g id="text_2">
      <!-- 10 -->
      <g style="fill:#262626;" transform="translate(131.695903 315.633594)scale(0.11 -0.11)">
       <defs>
        <path d="M 2384 0 
L 1822 0 
L 1822 3584 
Q 1619 3391 1289 3197 
Q 959 3003 697 2906 
L 697 3450 
Q 1169 3672 1522 3987 
Q 1875 4303 2022 4600 
L 2384 4600 
L 2384 0 
z
" id="ArialMT-31" transform="scale(0.015625)"/>
       </defs>
       <use xlink:href="#ArialMT-31"/>
       <use x="55.615234" xlink:href="#ArialMT-30"/>
      </g>
     </g>
    </g>
    <g id="xtick_3">
     <g id="line2d_3">
      <path clip-path="url(#pd64336e419)" d="M 213.749505 298.26 
L 213.749505 27.65625 
" style="fill:none;stroke:#ffffff;stroke-linecap:round;"/>
     </g>
     <g id="text_3">
      <!-- 20 -->
      <g style="fill:#262626;" transform="translate(207.632473 315.633594)scale(0.11 -0.11)">
       <defs>
        <path d="M 3222 541 
L 3222 0 
L 194 0 
Q 188 203 259 391 
Q 375 700 629 1000 
Q 884 1300 1366 1694 
Q 2113 2306 2375 2664 
Q 2638 3022 2638 3341 
Q 2638 3675 2398 3904 
Q 2159 4134 1775 4134 
Q 1369 4134 1125 3890 
Q 881 3647 878 3216 
L 300 3275 
Q 359 3922 746 4261 
Q 1134 4600 1788 4600 
Q 2447 4600 2831 4234 
Q 3216 3869 3216 3328 
Q 3216 3053 3103 2787 
Q 2991 2522 2730 2228 
Q 2469 1934 1863 1422 
Q 1356 997 1212 845 
Q 1069 694 975 541 
L 3222 541 
z
" id="ArialMT-32" transform="scale(0.015625)"/>
       </defs>
       <use xlink:href="#ArialMT-32"/>
       <use x="55.615234" xlink:href="#ArialMT-30"/>
      </g>
     </g>
    </g>
    <g id="xtick_4">
     <g id="line2d_4">
      <path clip-path="url(#pd64336e419)" d="M 289.686075 298.26 
L 289.686075 27.65625 
" style="fill:none;stroke:#ffffff;stroke-linecap:round;"/>
     </g>
     <g id="text_4">
      <!-- 30 -->
      <g style="fill:#262626;" transform="translate(283.569044 315.633594)scale(0.11 -0.11)">
       <defs>
        <path d="M 269 1209 
L 831 1284 
Q 928 806 1161 595 
Q 1394 384 1728 384 
Q 2125 384 2398 659 
Q 2672 934 2672 1341 
Q 2672 1728 2419 1979 
Q 2166 2231 1775 2231 
Q 1616 2231 1378 2169 
L 1441 2663 
Q 1497 2656 1531 2656 
Q 1891 2656 2178 2843 
Q 2466 3031 2466 3422 
Q 2466 3731 2256 3934 
Q 2047 4138 1716 4138 
Q 1388 4138 1169 3931 
Q 950 3725 888 3313 
L 325 3413 
Q 428 3978 793 4289 
Q 1159 4600 1703 4600 
Q 2078 4600 2393 4439 
Q 2709 4278 2876 4000 
Q 3044 3722 3044 3409 
Q 3044 3113 2884 2869 
Q 2725 2625 2413 2481 
Q 2819 2388 3044 2092 
Q 3269 1797 3269 1353 
Q 3269 753 2831 336 
Q 2394 -81 1725 -81 
Q 1122 -81 723 278 
Q 325 638 269 1209 
z
" id="ArialMT-33" transform="scale(0.015625)"/>
       </defs>
       <use xlink:href="#ArialMT-33"/>
       <use x="55.615234" xlink:href="#ArialMT-30"/>
      </g>
     </g>
    </g>
    <g id="xtick_5">
     <g id="line2d_5">
      <path clip-path="url(#pd64336e419)" d="M 365.622645 298.26 
L 365.622645 27.65625 
" style="fill:none;stroke:#ffffff;stroke-linecap:round;"/>
     </g>
     <g id="text_5">
      <!-- 40 -->
      <g style="fill:#262626;" transform="translate(359.505614 315.633594)scale(0.11 -0.11)">
       <defs>
        <path d="M 2069 0 
L 2069 1097 
L 81 1097 
L 81 1613 
L 2172 4581 
L 2631 4581 
L 2631 1613 
L 3250 1613 
L 3250 1097 
L 2631 1097 
L 2631 0 
L 2069 0 
z
M 2069 1613 
L 2069 3678 
L 634 1613 
L 2069 1613 
z
" id="ArialMT-34" transform="scale(0.015625)"/>
       </defs>
       <use xlink:href="#ArialMT-34"/>
       <use x="55.615234" xlink:href="#ArialMT-30"/>
      </g>
     </g>
    </g>
    <g id="xtick_6">
     <g id="line2d_6">
      <path clip-path="url(#pd64336e419)" d="M 441.559215 298.26 
L 441.559215 27.65625 
" style="fill:none;stroke:#ffffff;stroke-linecap:round;"/>
     </g>
     <g id="text_6">
      <!-- 50 -->
      <g style="fill:#262626;" transform="translate(435.442184 315.633594)scale(0.11 -0.11)">
       <defs>
        <path d="M 266 1200 
L 856 1250 
Q 922 819 1161 601 
Q 1400 384 1738 384 
Q 2144 384 2425 690 
Q 2706 997 2706 1503 
Q 2706 1984 2436 2262 
Q 2166 2541 1728 2541 
Q 1456 2541 1237 2417 
Q 1019 2294 894 2097 
L 366 2166 
L 809 4519 
L 3088 4519 
L 3088 3981 
L 1259 3981 
L 1013 2750 
Q 1425 3038 1878 3038 
Q 2478 3038 2890 2622 
Q 3303 2206 3303 1553 
Q 3303 931 2941 478 
Q 2500 -78 1738 -78 
Q 1113 -78 717 272 
Q 322 622 266 1200 
z
" id="ArialMT-35" transform="scale(0.015625)"/>
       </defs>
       <use xlink:href="#ArialMT-35"/>
       <use x="55.615234" xlink:href="#ArialMT-30"/>
      </g>
     </g>
    </g>
    <g id="text_7">
     <!-- Number of processes -->
     <g style="fill:#262626;" transform="translate(194.698102 330.555469)scale(0.12 -0.12)">
      <defs>
       <path d="M 488 0 
L 488 4581 
L 1109 4581 
L 3516 984 
L 3516 4581 
L 4097 4581 
L 4097 0 
L 3475 0 
L 1069 3600 
L 1069 0 
L 488 0 
z
" id="ArialMT-4e" transform="scale(0.015625)"/>
       <path d="M 2597 0 
L 2597 488 
Q 2209 -75 1544 -75 
Q 1250 -75 995 37 
Q 741 150 617 320 
Q 494 491 444 738 
Q 409 903 409 1263 
L 409 3319 
L 972 3319 
L 972 1478 
Q 972 1038 1006 884 
Q 1059 663 1231 536 
Q 1403 409 1656 409 
Q 1909 409 2131 539 
Q 2353 669 2445 892 
Q 2538 1116 2538 1541 
L 2538 3319 
L 3100 3319 
L 3100 0 
L 2597 0 
z
" id="ArialMT-75" transform="scale(0.015625)"/>
       <path d="M 422 0 
L 422 3319 
L 925 3319 
L 925 2853 
Q 1081 3097 1340 3245 
Q 1600 3394 1931 3394 
Q 2300 3394 2536 3241 
Q 2772 3088 2869 2813 
Q 3263 3394 3894 3394 
Q 4388 3394 4653 3120 
Q 4919 2847 4919 2278 
L 4919 0 
L 4359 0 
L 4359 2091 
Q 4359 2428 4304 2576 
Q 4250 2725 4106 2815 
Q 3963 2906 3769 2906 
Q 3419 2906 3187 2673 
Q 2956 2441 2956 1928 
L 2956 0 
L 2394 0 
L 2394 2156 
Q 2394 2531 2256 2718 
Q 2119 2906 1806 2906 
Q 1569 2906 1367 2781 
Q 1166 2656 1075 2415 
Q 984 2175 984 1722 
L 984 0 
L 422 0 
z
" id="ArialMT-6d" transform="scale(0.015625)"/>
       <path d="M 941 0 
L 419 0 
L 419 4581 
L 981 4581 
L 981 2947 
Q 1338 3394 1891 3394 
Q 2197 3394 2470 3270 
Q 2744 3147 2920 2923 
Q 3097 2700 3197 2384 
Q 3297 2069 3297 1709 
Q 3297 856 2875 390 
Q 2453 -75 1863 -75 
Q 1275 -75 941 416 
L 941 0 
z
M 934 1684 
Q 934 1088 1097 822 
Q 1363 388 1816 388 
Q 2184 388 2453 708 
Q 2722 1028 2722 1663 
Q 2722 2313 2464 2622 
Q 2206 2931 1841 2931 
Q 1472 2931 1203 2611 
Q 934 2291 934 1684 
z
" id="ArialMT-62" transform="scale(0.015625)"/>
       <path d="M 2694 1069 
L 3275 997 
Q 3138 488 2766 206 
Q 2394 -75 1816 -75 
Q 1088 -75 661 373 
Q 234 822 234 1631 
Q 234 2469 665 2931 
Q 1097 3394 1784 3394 
Q 2450 3394 2872 2941 
Q 3294 2488 3294 1666 
Q 3294 1616 3291 1516 
L 816 1516 
Q 847 969 1125 678 
Q 1403 388 1819 388 
Q 2128 388 2347 550 
Q 2566 713 2694 1069 
z
M 847 1978 
L 2700 1978 
Q 2663 2397 2488 2606 
Q 2219 2931 1791 2931 
Q 1403 2931 1139 2672 
Q 875 2413 847 1978 
z
" id="ArialMT-65" transform="scale(0.015625)"/>
       <path d="M 416 0 
L 416 3319 
L 922 3319 
L 922 2816 
Q 1116 3169 1280 3281 
Q 1444 3394 1641 3394 
Q 1925 3394 2219 3213 
L 2025 2691 
Q 1819 2813 1613 2813 
Q 1428 2813 1281 2702 
Q 1134 2591 1072 2394 
Q 978 2094 978 1738 
L 978 0 
L 416 0 
z
" id="ArialMT-72" transform="scale(0.015625)"/>
       <path id="ArialMT-20" transform="scale(0.015625)"/>
       <path d="M 213 1659 
Q 213 2581 725 3025 
Q 1153 3394 1769 3394 
Q 2453 3394 2887 2945 
Q 3322 2497 3322 1706 
Q 3322 1066 3130 698 
Q 2938 331 2570 128 
Q 2203 -75 1769 -75 
Q 1072 -75 642 372 
Q 213 819 213 1659 
z
M 791 1659 
Q 791 1022 1069 705 
Q 1347 388 1769 388 
Q 2188 388 2466 706 
Q 2744 1025 2744 1678 
Q 2744 2294 2464 2611 
Q 2184 2928 1769 2928 
Q 1347 2928 1069 2612 
Q 791 2297 791 1659 
z
" id="ArialMT-6f" transform="scale(0.015625)"/>
       <path d="M 556 0 
L 556 2881 
L 59 2881 
L 59 3319 
L 556 3319 
L 556 3672 
Q 556 4006 616 4169 
Q 697 4388 901 4523 
Q 1106 4659 1475 4659 
Q 1713 4659 2000 4603 
L 1916 4113 
Q 1741 4144 1584 4144 
Q 1328 4144 1222 4034 
Q 1116 3925 1116 3625 
L 1116 3319 
L 1763 3319 
L 1763 2881 
L 1116 2881 
L 1116 0 
L 556 0 
z
" id="ArialMT-66" transform="scale(0.015625)"/>
       <path d="M 422 -1272 
L 422 3319 
L 934 3319 
L 934 2888 
Q 1116 3141 1344 3267 
Q 1572 3394 1897 3394 
Q 2322 3394 2647 3175 
Q 2972 2956 3137 2557 
Q 3303 2159 3303 1684 
Q 3303 1175 3120 767 
Q 2938 359 2589 142 
Q 2241 -75 1856 -75 
Q 1575 -75 1351 44 
Q 1128 163 984 344 
L 984 -1272 
L 422 -1272 
z
M 931 1641 
Q 931 1000 1190 694 
Q 1450 388 1819 388 
Q 2194 388 2461 705 
Q 2728 1022 2728 1688 
Q 2728 2322 2467 2637 
Q 2206 2953 1844 2953 
Q 1484 2953 1207 2617 
Q 931 2281 931 1641 
z
" id="ArialMT-70" transform="scale(0.015625)"/>
       <path d="M 2588 1216 
L 3141 1144 
Q 3050 572 2676 248 
Q 2303 -75 1759 -75 
Q 1078 -75 664 370 
Q 250 816 250 1647 
Q 250 2184 428 2587 
Q 606 2991 970 3192 
Q 1334 3394 1763 3394 
Q 2303 3394 2647 3120 
Q 2991 2847 3088 2344 
L 2541 2259 
Q 2463 2594 2264 2762 
Q 2066 2931 1784 2931 
Q 1359 2931 1093 2626 
Q 828 2322 828 1663 
Q 828 994 1084 691 
Q 1341 388 1753 388 
Q 2084 388 2306 591 
Q 2528 794 2588 1216 
z
" id="ArialMT-63" transform="scale(0.015625)"/>
       <path d="M 197 991 
L 753 1078 
Q 800 744 1014 566 
Q 1228 388 1613 388 
Q 2000 388 2187 545 
Q 2375 703 2375 916 
Q 2375 1106 2209 1216 
Q 2094 1291 1634 1406 
Q 1016 1563 777 1677 
Q 538 1791 414 1992 
Q 291 2194 291 2438 
Q 291 2659 392 2848 
Q 494 3038 669 3163 
Q 800 3259 1026 3326 
Q 1253 3394 1513 3394 
Q 1903 3394 2198 3281 
Q 2494 3169 2634 2976 
Q 2775 2784 2828 2463 
L 2278 2388 
Q 2241 2644 2061 2787 
Q 1881 2931 1553 2931 
Q 1166 2931 1000 2803 
Q 834 2675 834 2503 
Q 834 2394 903 2306 
Q 972 2216 1119 2156 
Q 1203 2125 1616 2013 
Q 2213 1853 2448 1751 
Q 2684 1650 2818 1456 
Q 2953 1263 2953 975 
Q 2953 694 2789 445 
Q 2625 197 2315 61 
Q 2006 -75 1616 -75 
Q 969 -75 630 194 
Q 291 463 197 991 
z
" id="ArialMT-73" transform="scale(0.015625)"/>
      </defs>
      <use xlink:href="#ArialMT-4e"/>
      <use x="72.216797" xlink:href="#ArialMT-75"/>
      <use x="127.832031" xlink:href="#ArialMT-6d"/>
      <use x="211.132812" xlink:href="#ArialMT-62"/>
      <use x="266.748047" xlink:href="#ArialMT-65"/>
      <use x="322.363281" xlink:href="#ArialMT-72"/>
      <use x="355.664062" xlink:href="#ArialMT-20"/>
      <use x="383.447266" xlink:href="#ArialMT-6f"/>
      <use x="439.0625" xlink:href="#ArialMT-66"/>
      <use x="466.845703" xlink:href="#ArialMT-20"/>
      <use x="494.628906" xlink:href="#ArialMT-70"/>
      <use x="550.244141" xlink:href="#ArialMT-72"/>
      <use x="583.544922" xlink:href="#ArialMT-6f"/>
      <use x="639.160156" xlink:href="#ArialMT-63"/>
      <use x="689.160156" xlink:href="#ArialMT-65"/>
      <use x="744.775391" xlink:href="#ArialMT-73"/>
      <use x="794.775391" xlink:href="#ArialMT-73"/>
      <use x="844.775391" xlink:href="#ArialMT-65"/>
      <use x="900.390625" xlink:href="#ArialMT-73"/>
     </g>
    </g>
   </g>
   <g id="matplotlib.axis_2">
    <g id="ytick_1">
     <g id="line2d_7">
      <path clip-path="url(#pd64336e419)" d="M 59.598267 240.536102 
L 443.837312 240.536102 
" style="fill:none;stroke:#ffffff;stroke-linecap:round;"/>
     </g>
     <g id="text_8">
      <!-- $\mathdefault{10^{-4}}$ -->
      <g style="fill:#262626;" transform="translate(28.318267 246.152977)scale(0.11 -0.11)">
       <defs>
        <path d="M 3381 1997 
L 356 1997 
L 356 2522 
L 3381 2522 
L 3381 1997 
z
" id="ArialMT-2212" transform="scale(0.015625)"/>
       </defs>
       <use transform="translate(0 0.201563)" xlink:href="#ArialMT-31"/>
       <use transform="translate(55.615234 0.201563)" xlink:href="#ArialMT-30"/>
       <use transform="translate(112.972813 69.895313)scale(0.7)" xlink:href="#ArialMT-2212"/>
       <use transform="translate(153.851719 69.895313)scale(0.7)" xlink:href="#ArialMT-34"/>
      </g>
     </g>
    </g>
    <g id="ytick_2">
     <g id="line2d_8">
      <path clip-path="url(#pd64336e419)" d="M 59.598267 102.0078 
L 443.837312 102.0078 
" style="fill:none;stroke:#ffffff;stroke-linecap:round;"/>
     </g>
     <g id="text_9">
      <!-- $\mathdefault{10^{-3}}$ -->
      <g style="fill:#262626;" transform="translate(28.318267 107.679675)scale(0.11 -0.11)">
       <use transform="translate(0 0.99375)" xlink:href="#ArialMT-31"/>
       <use transform="translate(55.615234 0.99375)" xlink:href="#ArialMT-30"/>
       <use transform="translate(112.972813 70.6875)scale(0.7)" xlink:href="#ArialMT-2212"/>
       <use transform="translate(153.851719 70.6875)scale(0.7)" xlink:href="#ArialMT-33"/>
      </g>
     </g>
    </g>
    <g id="ytick_3"/>
    <g id="ytick_4"/>
    <g id="ytick_5"/>
    <g id="ytick_6"/>
    <g id="ytick_7"/>
    <g id="ytick_8"/>
    <g id="ytick_9"/>
    <g id="ytick_10"/>
    <g id="ytick_11"/>
    <g id="ytick_12"/>
    <g id="ytick_13"/>
    <g id="ytick_14"/>
    <g id="ytick_15"/>
    <g id="ytick_16"/>
    <g id="ytick_17"/>
    <g id="ytick_18"/>
    <g id="text_10">
     <!-- Runtime (s) -->
     <g style="fill:#262626;" transform="translate(21.792642 193.96125)rotate(-90)scale(0.12 -0.12)">
      <defs>
       <path d="M 503 0 
L 503 4581 
L 2534 4581 
Q 3147 4581 3465 4457 
Q 3784 4334 3975 4021 
Q 4166 3709 4166 3331 
Q 4166 2844 3850 2509 
Q 3534 2175 2875 2084 
Q 3116 1969 3241 1856 
Q 3506 1613 3744 1247 
L 4541 0 
L 3778 0 
L 3172 953 
Q 2906 1366 2734 1584 
Q 2563 1803 2427 1890 
Q 2291 1978 2150 2013 
Q 2047 2034 1813 2034 
L 1109 2034 
L 1109 0 
L 503 0 
z
M 1109 2559 
L 2413 2559 
Q 2828 2559 3062 2645 
Q 3297 2731 3419 2920 
Q 3541 3109 3541 3331 
Q 3541 3656 3305 3865 
Q 3069 4075 2559 4075 
L 1109 4075 
L 1109 2559 
z
" id="ArialMT-52" transform="scale(0.015625)"/>
       <path d="M 422 0 
L 422 3319 
L 928 3319 
L 928 2847 
Q 1294 3394 1984 3394 
Q 2284 3394 2536 3286 
Q 2788 3178 2913 3003 
Q 3038 2828 3088 2588 
Q 3119 2431 3119 2041 
L 3119 0 
L 2556 0 
L 2556 2019 
Q 2556 2363 2490 2533 
Q 2425 2703 2258 2804 
Q 2091 2906 1866 2906 
Q 1506 2906 1245 2678 
Q 984 2450 984 1813 
L 984 0 
L 422 0 
z
" id="ArialMT-6e" transform="scale(0.015625)"/>
       <path d="M 1650 503 
L 1731 6 
Q 1494 -44 1306 -44 
Q 1000 -44 831 53 
Q 663 150 594 308 
Q 525 466 525 972 
L 525 2881 
L 113 2881 
L 113 3319 
L 525 3319 
L 525 4141 
L 1084 4478 
L 1084 3319 
L 1650 3319 
L 1650 2881 
L 1084 2881 
L 1084 941 
Q 1084 700 1114 631 
Q 1144 563 1211 522 
Q 1278 481 1403 481 
Q 1497 481 1650 503 
z
" id="ArialMT-74" transform="scale(0.015625)"/>
       <path d="M 425 3934 
L 425 4581 
L 988 4581 
L 988 3934 
L 425 3934 
z
M 425 0 
L 425 3319 
L 988 3319 
L 988 0 
L 425 0 
z
" id="ArialMT-69" transform="scale(0.015625)"/>
       <path d="M 1497 -1347 
Q 1031 -759 709 28 
Q 388 816 388 1659 
Q 388 2403 628 3084 
Q 909 3875 1497 4659 
L 1900 4659 
Q 1522 4009 1400 3731 
Q 1209 3300 1100 2831 
Q 966 2247 966 1656 
Q 966 153 1900 -1347 
L 1497 -1347 
z
" id="ArialMT-28" transform="scale(0.015625)"/>
       <path d="M 791 -1347 
L 388 -1347 
Q 1322 153 1322 1656 
Q 1322 2244 1188 2822 
Q 1081 3291 891 3722 
Q 769 4003 388 4659 
L 791 4659 
Q 1378 3875 1659 3084 
Q 1900 2403 1900 1659 
Q 1900 816 1576 28 
Q 1253 -759 791 -1347 
z
" id="ArialMT-29" transform="scale(0.015625)"/>
      </defs>
      <use xlink:href="#ArialMT-52"/>
      <use x="72.216797" xlink:href="#ArialMT-75"/>
      <use x="127.832031" xlink:href="#ArialMT-6e"/>
      <use x="183.447266" xlink:href="#ArialMT-74"/>
      <use x="211.230469" xlink:href="#ArialMT-69"/>
      <use x="233.447266" xlink:href="#ArialMT-6d"/>
      <use x="316.748047" xlink:href="#ArialMT-65"/>
      <use x="372.363281" xlink:href="#ArialMT-20"/>
      <use x="400.146484" xlink:href="#ArialMT-28"/>
      <use x="433.447266" xlink:href="#ArialMT-73"/>
      <use x="483.447266" xlink:href="#ArialMT-29"/>
     </g>
    </g>
   </g>
   <g id="line2d_9">
    <path clip-path="url(#pd64336e419)" d="M 77.063678 263.297609 
L 92.250992 238.466441 
L 107.438306 225.684487 
L 122.62562 214.169775 
L 137.812934 205.845845 
L 153.000248 197.056609 
L 168.187563 188.117284 
L 183.374877 185.050255 
L 198.562191 180.891527 
L 213.749505 174.843728 
L 228.936819 108.648072 
L 244.124133 169.625769 
L 259.311447 169.348737 
L 274.498761 165.945808 
L 289.686075 162.395892 
L 304.873389 161.338248 
L 320.060703 158.966243 
L 335.248017 156.01616 
L 350.435331 151.949125 
L 365.622645 153.628175 
L 380.809959 151.811296 
L 395.997273 149.980872 
L 411.184587 146.605199 
L 426.371901 142.694815 
" style="fill:none;stroke:#4c72b0;stroke-linecap:round;stroke-width:1.5;"/>
    <defs>
     <path d="M 0 3 
C 0.795609 3 1.55874 2.683901 2.12132 2.12132 
C 2.683901 1.55874 3 0.795609 3 0 
C 3 -0.795609 2.683901 -1.55874 2.12132 -2.12132 
C 1.55874 -2.683901 0.795609 -3 0 -3 
C -0.795609 -3 -1.55874 -2.683901 -2.12132 -2.12132 
C -2.683901 -1.55874 -3 -0.795609 -3 0 
C -3 0.795609 -2.683901 1.55874 -2.12132 2.12132 
C -1.55874 2.683901 -0.795609 3 0 3 
z
" id="mafbcb75f43" style="stroke:#4c72b0;"/>
    </defs>
    <g clip-path="url(#pd64336e419)">
     <use style="fill:#4c72b0;stroke:#4c72b0;" x="77.063678" xlink:href="#mafbcb75f43" y="263.297609"/>
     <use style="fill:#4c72b0;stroke:#4c72b0;" x="92.250992" xlink:href="#mafbcb75f43" y="238.466441"/>
     <use style="fill:#4c72b0;stroke:#4c72b0;" x="107.438306" xlink:href="#mafbcb75f43" y="225.684487"/>
     <use style="fill:#4c72b0;stroke:#4c72b0;" x="122.62562" xlink:href="#mafbcb75f43" y="214.169775"/>
     <use style="fill:#4c72b0;stroke:#4c72b0;" x="137.812934" xlink:href="#mafbcb75f43" y="205.845845"/>
     <use style="fill:#4c72b0;stroke:#4c72b0;" x="153.000248" xlink:href="#mafbcb75f43" y="197.056609"/>
     <use style="fill:#4c72b0;stroke:#4c72b0;" x="168.187563" xlink:href="#mafbcb75f43" y="188.117284"/>
     <use style="fill:#4c72b0;stroke:#4c72b0;" x="183.374877" xlink:href="#mafbcb75f43" y="185.050255"/>
     <use style="fill:#4c72b0;stroke:#4c72b0;" x="198.562191" xlink:href="#mafbcb75f43" y="180.891527"/>
     <use style="fill:#4c72b0;stroke:#4c72b0;" x="213.749505" xlink:href="#mafbcb75f43" y="174.843728"/>
     <use style="fill:#4c72b0;stroke:#4c72b0;" x="228.936819" xlink:href="#mafbcb75f43" y="108.648072"/>
     <use style="fill:#4c72b0;stroke:#4c72b0;" x="244.124133" xlink:href="#mafbcb75f43" y="169.625769"/>
     <use style="fill:#4c72b0;stroke:#4c72b0;" x="259.311447" xlink:href="#mafbcb75f43" y="169.348737"/>
     <use style="fill:#4c72b0;stroke:#4c72b0;" x="274.498761" xlink:href="#mafbcb75f43" y="165.945808"/>
     <use style="fill:#4c72b0;stroke:#4c72b0;" x="289.686075" xlink:href="#mafbcb75f43" y="162.395892"/>
     <use style="fill:#4c72b0;stroke:#4c72b0;" x="304.873389" xlink:href="#mafbcb75f43" y="161.338248"/>
     <use style="fill:#4c72b0;stroke:#4c72b0;" x="320.060703" xlink:href="#mafbcb75f43" y="158.966243"/>
     <use style="fill:#4c72b0;stroke:#4c72b0;" x="335.248017" xlink:href="#mafbcb75f43" y="156.01616"/>
     <use style="fill:#4c72b0;stroke:#4c72b0;" x="350.435331" xlink:href="#mafbcb75f43" y="151.949125"/>
     <use style="fill:#4c72b0;stroke:#4c72b0;" x="365.622645" xlink:href="#mafbcb75f43" y="153.628175"/>
     <use style="fill:#4c72b0;stroke:#4c72b0;" x="380.809959" xlink:href="#mafbcb75f43" y="151.811296"/>
     <use style="fill:#4c72b0;stroke:#4c72b0;" x="395.997273" xlink:href="#mafbcb75f43" y="149.980872"/>
     <use style="fill:#4c72b0;stroke:#4c72b0;" x="411.184587" xlink:href="#mafbcb75f43" y="146.605199"/>
     <use style="fill:#4c72b0;stroke:#4c72b0;" x="426.371901" xlink:href="#mafbcb75f43" y="142.694815"/>
    </g>
   </g>
   <g id="line2d_10">
    <path clip-path="url(#pd64336e419)" d="M 77.063678 282.237277 
L 92.250992 252.475323 
M 122.62562 227.594555 
M 183.374877 212.448009 
M 304.873389 194.764443 
" style="fill:none;stroke:#dd8452;stroke-linecap:round;stroke-width:1.5;"/>
    <defs>
     <path d="M 0 3 
C 0.795609 3 1.55874 2.683901 2.12132 2.12132 
C 2.683901 1.55874 3 0.795609 3 0 
C 3 -0.795609 2.683901 -1.55874 2.12132 -2.12132 
C 1.55874 -2.683901 0.795609 -3 0 -3 
C -0.795609 -3 -1.55874 -2.683901 -2.12132 -2.12132 
C -2.683901 -1.55874 -3 -0.795609 -3 0 
C -3 0.795609 -2.683901 1.55874 -2.12132 2.12132 
C -1.55874 2.683901 -0.795609 3 0 3 
z
" id="m5203b9ee48" style="stroke:#dd8452;"/>
    </defs>
    <g clip-path="url(#pd64336e419)">
     <use style="fill:#dd8452;stroke:#dd8452;" x="77.063678" xlink:href="#m5203b9ee48" y="282.237277"/>
     <use style="fill:#dd8452;stroke:#dd8452;" x="92.250992" xlink:href="#m5203b9ee48" y="252.475323"/>
     <use style="fill:#dd8452;stroke:#dd8452;" x="122.62562" xlink:href="#m5203b9ee48" y="227.594555"/>
     <use style="fill:#dd8452;stroke:#dd8452;" x="183.374877" xlink:href="#m5203b9ee48" y="212.448009"/>
     <use style="fill:#dd8452;stroke:#dd8452;" x="304.873389" xlink:href="#m5203b9ee48" y="194.764443"/>
    </g>
   </g>
   <g id="line2d_11">
    <path clip-path="url(#pd64336e419)" d="M 77.063678 253.960882 
L 92.250992 199.136493 
L 107.438306 172.468601 
L 122.62562 151.811296 
L 137.812934 138.084401 
L 153.000248 125.877295 
L 168.187563 115.658611 
L 183.374877 108.079713 
L 198.562191 100.934513 
L 213.749505 85.46463 
L 228.936819 88.247053 
L 244.124133 82.521697 
L 259.311447 77.51399 
L 274.498761 72.909812 
L 289.686075 66.997306 
L 304.873389 63.582823 
L 320.060703 60.74439 
L 335.248017 57.356985 
L 350.435331 54.150184 
L 365.622645 50.489305 
L 380.809959 46.689635 
L 395.997273 45.560857 
L 411.184587 42.25171 
L 426.371901 39.95642 
" style="fill:none;stroke:#55a868;stroke-linecap:round;stroke-width:1.5;"/>
    <defs>
     <path d="M 0 3 
C 0.795609 3 1.55874 2.683901 2.12132 2.12132 
C 2.683901 1.55874 3 0.795609 3 0 
C 3 -0.795609 2.683901 -1.55874 2.12132 -2.12132 
C 1.55874 -2.683901 0.795609 -3 0 -3 
C -0.795609 -3 -1.55874 -2.683901 -2.12132 -2.12132 
C -2.683901 -1.55874 -3 -0.795609 -3 0 
C -3 0.795609 -2.683901 1.55874 -2.12132 2.12132 
C -1.55874 2.683901 -0.795609 3 0 3 
z
" id="m32a016117d" style="stroke:#55a868;"/>
    </defs>
    <g clip-path="url(#pd64336e419)">
     <use style="fill:#55a868;stroke:#55a868;" x="77.063678" xlink:href="#m32a016117d" y="253.960882"/>
     <use style="fill:#55a868;stroke:#55a868;" x="92.250992" xlink:href="#m32a016117d" y="199.136493"/>
     <use style="fill:#55a868;stroke:#55a868;" x="107.438306" xlink:href="#m32a016117d" y="172.468601"/>
     <use style="fill:#55a868;stroke:#55a868;" x="122.62562" xlink:href="#m32a016117d" y="151.811296"/>
     <use style="fill:#55a868;stroke:#55a868;" x="137.812934" xlink:href="#m32a016117d" y="138.084401"/>
     <use style="fill:#55a868;stroke:#55a868;" x="153.000248" xlink:href="#m32a016117d" y="125.877295"/>
     <use style="fill:#55a868;stroke:#55a868;" x="168.187563" xlink:href="#m32a016117d" y="115.658611"/>
     <use style="fill:#55a868;stroke:#55a868;" x="183.374877" xlink:href="#m32a016117d" y="108.079713"/>
     <use style="fill:#55a868;stroke:#55a868;" x="198.562191" xlink:href="#m32a016117d" y="100.934513"/>
     <use style="fill:#55a868;stroke:#55a868;" x="213.749505" xlink:href="#m32a016117d" y="85.46463"/>
     <use style="fill:#55a868;stroke:#55a868;" x="228.936819" xlink:href="#m32a016117d" y="88.247053"/>
     <use style="fill:#55a868;stroke:#55a868;" x="244.124133" xlink:href="#m32a016117d" y="82.521697"/>
     <use style="fill:#55a868;stroke:#55a868;" x="259.311447" xlink:href="#m32a016117d" y="77.51399"/>
     <use style="fill:#55a868;stroke:#55a868;" x="274.498761" xlink:href="#m32a016117d" y="72.909812"/>
     <use style="fill:#55a868;stroke:#55a868;" x="289.686075" xlink:href="#m32a016117d" y="66.997306"/>
     <use style="fill:#55a868;stroke:#55a868;" x="304.873389" xlink:href="#m32a016117d" y="63.582823"/>
     <use style="fill:#55a868;stroke:#55a868;" x="320.060703" xlink:href="#m32a016117d" y="60.74439"/>
     <use style="fill:#55a868;stroke:#55a868;" x="335.248017" xlink:href="#m32a016117d" y="57.356985"/>
     <use style="fill:#55a868;stroke:#55a868;" x="350.435331" xlink:href="#m32a016117d" y="54.150184"/>
     <use style="fill:#55a868;stroke:#55a868;" x="365.622645" xlink:href="#m32a016117d" y="50.489305"/>
     <use style="fill:#55a868;stroke:#55a868;" x="380.809959" xlink:href="#m32a016117d" y="46.689635"/>
     <use style="fill:#55a868;stroke:#55a868;" x="395.997273" xlink:href="#m32a016117d" y="45.560857"/>
     <use style="fill:#55a868;stroke:#55a868;" x="411.184587" xlink:href="#m32a016117d" y="42.25171"/>
     <use style="fill:#55a868;stroke:#55a868;" x="426.371901" xlink:href="#m32a016117d" y="39.95642"/>
    </g>
   </g>
   <g id="line2d_12">
    <path clip-path="url(#pd64336e419)" d="M 77.063678 257.843654 
L 92.250992 211.698316 
L 107.438306 204.508855 
L 122.62562 196.186781 
L 137.812934 191.748856 
L 153.000248 201.134396 
L 168.187563 196.620123 
L 183.374877 195.187625 
L 198.562191 192.151279 
L 213.749505 97.210779 
L 228.936819 184.692501 
L 244.124133 185.530593 
L 259.311447 185.651279 
L 274.498761 187.11872 
L 289.686075 185.893381 
L 304.873389 184.692501 
L 320.060703 178.163858 
L 335.248017 176.273794 
L 350.435331 174.141244 
L 365.622645 173.151714 
L 380.809959 178.270623 
L 395.997273 175.350573 
L 411.184587 177.632856 
L 426.371901 175.964477 
" style="fill:none;stroke:#c44e52;stroke-linecap:round;stroke-width:1.5;"/>
    <defs>
     <path d="M 0 3 
C 0.795609 3 1.55874 2.683901 2.12132 2.12132 
C 2.683901 1.55874 3 0.795609 3 0 
C 3 -0.795609 2.683901 -1.55874 2.12132 -2.12132 
C 1.55874 -2.683901 0.795609 -3 0 -3 
C -0.795609 -3 -1.55874 -2.683901 -2.12132 -2.12132 
C -2.683901 -1.55874 -3 -0.795609 -3 0 
C -3 0.795609 -2.683901 1.55874 -2.12132 2.12132 
C -1.55874 2.683901 -0.795609 3 0 3 
z
" id="ma2ba602011" style="stroke:#c44e52;"/>
    </defs>
    <g clip-path="url(#pd64336e419)">
     <use style="fill:#c44e52;stroke:#c44e52;" x="77.063678" xlink:href="#ma2ba602011" y="257.843654"/>
     <use style="fill:#c44e52;stroke:#c44e52;" x="92.250992" xlink:href="#ma2ba602011" y="211.698316"/>
     <use style="fill:#c44e52;stroke:#c44e52;" x="107.438306" xlink:href="#ma2ba602011" y="204.508855"/>
     <use style="fill:#c44e52;stroke:#c44e52;" x="122.62562" xlink:href="#ma2ba602011" y="196.186781"/>
     <use style="fill:#c44e52;stroke:#c44e52;" x="137.812934" xlink:href="#ma2ba602011" y="191.748856"/>
     <use style="fill:#c44e52;stroke:#c44e52;" x="153.000248" xlink:href="#ma2ba602011" y="201.134396"/>
     <use style="fill:#c44e52;stroke:#c44e52;" x="168.187563" xlink:href="#ma2ba602011" y="196.620123"/>
     <use style="fill:#c44e52;stroke:#c44e52;" x="183.374877" xlink:href="#ma2ba602011" y="195.187625"/>
     <use style="fill:#c44e52;stroke:#c44e52;" x="198.562191" xlink:href="#ma2ba602011" y="192.151279"/>
     <use style="fill:#c44e52;stroke:#c44e52;" x="213.749505" xlink:href="#ma2ba602011" y="97.210779"/>
     <use style="fill:#c44e52;stroke:#c44e52;" x="228.936819" xlink:href="#ma2ba602011" y="184.692501"/>
     <use style="fill:#c44e52;stroke:#c44e52;" x="244.124133" xlink:href="#ma2ba602011" y="185.530593"/>
     <use style="fill:#c44e52;stroke:#c44e52;" x="259.311447" xlink:href="#ma2ba602011" y="185.651279"/>
     <use style="fill:#c44e52;stroke:#c44e52;" x="274.498761" xlink:href="#ma2ba602011" y="187.11872"/>
     <use style="fill:#c44e52;stroke:#c44e52;" x="289.686075" xlink:href="#ma2ba602011" y="185.893381"/>
     <use style="fill:#c44e52;stroke:#c44e52;" x="304.873389" xlink:href="#ma2ba602011" y="184.692501"/>
     <use style="fill:#c44e52;stroke:#c44e52;" x="320.060703" xlink:href="#ma2ba602011" y="178.163858"/>
     <use style="fill:#c44e52;stroke:#c44e52;" x="335.248017" xlink:href="#ma2ba602011" y="176.273794"/>
     <use style="fill:#c44e52;stroke:#c44e52;" x="350.435331" xlink:href="#ma2ba602011" y="174.141244"/>
     <use style="fill:#c44e52;stroke:#c44e52;" x="365.622645" xlink:href="#ma2ba602011" y="173.151714"/>
     <use style="fill:#c44e52;stroke:#c44e52;" x="380.809959" xlink:href="#ma2ba602011" y="178.270623"/>
     <use style="fill:#c44e52;stroke:#c44e52;" x="395.997273" xlink:href="#ma2ba602011" y="175.350573"/>
     <use style="fill:#c44e52;stroke:#c44e52;" x="411.184587" xlink:href="#ma2ba602011" y="177.632856"/>
     <use style="fill:#c44e52;stroke:#c44e52;" x="426.371901" xlink:href="#ma2ba602011" y="175.964477"/>
    </g>
   </g>
   <g id="line2d_13">
    <path clip-path="url(#pd64336e419)" d="M 77.063678 279.877677 
L 92.250992 250.313579 
L 107.438306 211.142114 
L 122.62562 237.314979 
L 137.812934 197.939198 
L 153.000248 202.079369 
L 168.187563 202.557481 
L 183.374877 227.837634 
L 198.562191 197.939198 
L 213.749505 125.743254 
L 228.936819 190.165552 
L 244.124133 197.202811 
L 259.311447 153.133593 
L 274.498761 197.496285 
L 289.686075 196.910762 
L 304.873389 214.36416 
L 320.060703 193.237757 
L 335.248017 195.046233 
L 350.435331 194.344218 
L 365.622645 195.32935 
L 380.809959 191.216445 
L 395.997273 190.688704 
L 411.184587 189.132701 
L 426.371901 189.004833 
" style="fill:none;stroke:#8172b3;stroke-linecap:round;stroke-width:1.5;"/>
    <defs>
     <path d="M 0 3 
C 0.795609 3 1.55874 2.683901 2.12132 2.12132 
C 2.683901 1.55874 3 0.795609 3 0 
C 3 -0.795609 2.683901 -1.55874 2.12132 -2.12132 
C 1.55874 -2.683901 0.795609 -3 0 -3 
C -0.795609 -3 -1.55874 -2.683901 -2.12132 -2.12132 
C -2.683901 -1.55874 -3 -0.795609 -3 0 
C -3 0.795609 -2.683901 1.55874 -2.12132 2.12132 
C -1.55874 2.683901 -0.795609 3 0 3 
z
" id="m9a6b4ba02f" style="stroke:#8172b3;"/>
    </defs>
    <g clip-path="url(#pd64336e419)">
     <use style="fill:#8172b3;stroke:#8172b3;" x="77.063678" xlink:href="#m9a6b4ba02f" y="279.877677"/>
     <use style="fill:#8172b3;stroke:#8172b3;" x="92.250992" xlink:href="#m9a6b4ba02f" y="250.313579"/>
     <use style="fill:#8172b3;stroke:#8172b3;" x="107.438306" xlink:href="#m9a6b4ba02f" y="211.142114"/>
     <use style="fill:#8172b3;stroke:#8172b3;" x="122.62562" xlink:href="#m9a6b4ba02f" y="237.314979"/>
     <use style="fill:#8172b3;stroke:#8172b3;" x="137.812934" xlink:href="#m9a6b4ba02f" y="197.939198"/>
     <use style="fill:#8172b3;stroke:#8172b3;" x="153.000248" xlink:href="#m9a6b4ba02f" y="202.079369"/>
     <use style="fill:#8172b3;stroke:#8172b3;" x="168.187563" xlink:href="#m9a6b4ba02f" y="202.557481"/>
     <use style="fill:#8172b3;stroke:#8172b3;" x="183.374877" xlink:href="#m9a6b4ba02f" y="227.837634"/>
     <use style="fill:#8172b3;stroke:#8172b3;" x="198.562191" xlink:href="#m9a6b4ba02f" y="197.939198"/>
     <use style="fill:#8172b3;stroke:#8172b3;" x="213.749505" xlink:href="#m9a6b4ba02f" y="125.743254"/>
     <use style="fill:#8172b3;stroke:#8172b3;" x="228.936819" xlink:href="#m9a6b4ba02f" y="190.165552"/>
     <use style="fill:#8172b3;stroke:#8172b3;" x="244.124133" xlink:href="#m9a6b4ba02f" y="197.202811"/>
     <use style="fill:#8172b3;stroke:#8172b3;" x="259.311447" xlink:href="#m9a6b4ba02f" y="153.133593"/>
     <use style="fill:#8172b3;stroke:#8172b3;" x="274.498761" xlink:href="#m9a6b4ba02f" y="197.496285"/>
     <use style="fill:#8172b3;stroke:#8172b3;" x="289.686075" xlink:href="#m9a6b4ba02f" y="196.910762"/>
     <use style="fill:#8172b3;stroke:#8172b3;" x="304.873389" xlink:href="#m9a6b4ba02f" y="214.36416"/>
     <use style="fill:#8172b3;stroke:#8172b3;" x="320.060703" xlink:href="#m9a6b4ba02f" y="193.237757"/>
     <use style="fill:#8172b3;stroke:#8172b3;" x="335.248017" xlink:href="#m9a6b4ba02f" y="195.046233"/>
     <use style="fill:#8172b3;stroke:#8172b3;" x="350.435331" xlink:href="#m9a6b4ba02f" y="194.344218"/>
     <use style="fill:#8172b3;stroke:#8172b3;" x="365.622645" xlink:href="#m9a6b4ba02f" y="195.32935"/>
     <use style="fill:#8172b3;stroke:#8172b3;" x="380.809959" xlink:href="#m9a6b4ba02f" y="191.216445"/>
     <use style="fill:#8172b3;stroke:#8172b3;" x="395.997273" xlink:href="#m9a6b4ba02f" y="190.688704"/>
     <use style="fill:#8172b3;stroke:#8172b3;" x="411.184587" xlink:href="#m9a6b4ba02f" y="189.132701"/>
     <use style="fill:#8172b3;stroke:#8172b3;" x="426.371901" xlink:href="#m9a6b4ba02f" y="189.004833"/>
    </g>
   </g>
   <g id="line2d_14">
    <path clip-path="url(#pd64336e419)" d="M 77.063678 285.95983 
L 92.250992 247.209976 
L 107.438306 183.282388 
L 122.62562 223.8332 
L 137.812934 199.136493 
L 153.000248 194.483967 
L 168.187563 188.243277 
L 183.374877 207.386352 
L 198.562191 187.11872 
L 213.749505 183.63183 
L 228.936819 176.377254 
L 244.124133 184.930767 
L 259.311447 177.527216 
L 274.498761 176.480893 
L 289.686075 175.350573 
L 304.873389 156.833693 
L 320.060703 173.842672 
L 335.248017 176.170512 
L 350.435331 170.935726 
L 365.622645 177.632856 
L 380.809959 165.16728 
L 395.997273 167.712809 
L 411.184587 165.512049 
L 426.371901 172.178196 
" style="fill:none;stroke:#937860;stroke-linecap:round;stroke-width:1.5;"/>
    <defs>
     <path d="M 0 3 
C 0.795609 3 1.55874 2.683901 2.12132 2.12132 
C 2.683901 1.55874 3 0.795609 3 0 
C 3 -0.795609 2.683901 -1.55874 2.12132 -2.12132 
C 1.55874 -2.683901 0.795609 -3 0 -3 
C -0.795609 -3 -1.55874 -2.683901 -2.12132 -2.12132 
C -2.683901 -1.55874 -3 -0.795609 -3 0 
C -3 0.795609 -2.683901 1.55874 -2.12132 2.12132 
C -1.55874 2.683901 -0.795609 3 0 3 
z
" id="m7d0e7bd369" style="stroke:#937860;"/>
    </defs>
    <g clip-path="url(#pd64336e419)">
     <use style="fill:#937860;stroke:#937860;" x="77.063678" xlink:href="#m7d0e7bd369" y="285.95983"/>
     <use style="fill:#937860;stroke:#937860;" x="92.250992" xlink:href="#m7d0e7bd369" y="247.209976"/>
     <use style="fill:#937860;stroke:#937860;" x="107.438306" xlink:href="#m7d0e7bd369" y="183.282388"/>
     <use style="fill:#937860;stroke:#937860;" x="122.62562" xlink:href="#m7d0e7bd369" y="223.8332"/>
     <use style="fill:#937860;stroke:#937860;" x="137.812934" xlink:href="#m7d0e7bd369" y="199.136493"/>
     <use style="fill:#937860;stroke:#937860;" x="153.000248" xlink:href="#m7d0e7bd369" y="194.483967"/>
     <use style="fill:#937860;stroke:#937860;" x="168.187563" xlink:href="#m7d0e7bd369" y="188.243277"/>
     <use style="fill:#937860;stroke:#937860;" x="183.374877" xlink:href="#m7d0e7bd369" y="207.386352"/>
     <use style="fill:#937860;stroke:#937860;" x="198.562191" xlink:href="#m7d0e7bd369" y="187.11872"/>
     <use style="fill:#937860;stroke:#937860;" x="213.749505" xlink:href="#m7d0e7bd369" y="183.63183"/>
     <use style="fill:#937860;stroke:#937860;" x="228.936819" xlink:href="#m7d0e7bd369" y="176.377254"/>
     <use style="fill:#937860;stroke:#937860;" x="244.124133" xlink:href="#m7d0e7bd369" y="184.930767"/>
     <use style="fill:#937860;stroke:#937860;" x="259.311447" xlink:href="#m7d0e7bd369" y="177.527216"/>
     <use style="fill:#937860;stroke:#937860;" x="274.498761" xlink:href="#m7d0e7bd369" y="176.480893"/>
     <use style="fill:#937860;stroke:#937860;" x="289.686075" xlink:href="#m7d0e7bd369" y="175.350573"/>
     <use style="fill:#937860;stroke:#937860;" x="304.873389" xlink:href="#m7d0e7bd369" y="156.833693"/>
     <use style="fill:#937860;stroke:#937860;" x="320.060703" xlink:href="#m7d0e7bd369" y="173.842672"/>
     <use style="fill:#937860;stroke:#937860;" x="335.248017" xlink:href="#m7d0e7bd369" y="176.170512"/>
     <use style="fill:#937860;stroke:#937860;" x="350.435331" xlink:href="#m7d0e7bd369" y="170.935726"/>
     <use style="fill:#937860;stroke:#937860;" x="365.622645" xlink:href="#m7d0e7bd369" y="177.632856"/>
     <use style="fill:#937860;stroke:#937860;" x="380.809959" xlink:href="#m7d0e7bd369" y="165.16728"/>
     <use style="fill:#937860;stroke:#937860;" x="395.997273" xlink:href="#m7d0e7bd369" y="167.712809"/>
     <use style="fill:#937860;stroke:#937860;" x="411.184587" xlink:href="#m7d0e7bd369" y="165.512049"/>
     <use style="fill:#937860;stroke:#937860;" x="426.371901" xlink:href="#m7d0e7bd369" y="172.178196"/>
    </g>
   </g>
   <g id="line2d_15">
    <path clip-path="url(#pd64336e419)" d="M 77.063678 279.877677 
L 92.250992 237.030524 
L 107.438306 226.156349 
L 122.62562 214.951112 
L 137.812934 206.184787 
L 153.000248 195.756538 
L 168.187563 190.820206 
L 183.374877 182.934964 
L 198.562191 180.225519 
L 213.749505 171.793158 
L 228.936819 134.314745 
L 244.124133 169.625769 
L 259.311447 167.802537 
L 274.498761 166.47048 
L 289.686075 163.222307 
L 304.873389 159.433221 
L 320.060703 155.795111 
L 335.248017 154.055363 
L 350.435331 154.34185 
L 365.622645 151.949125 
L 380.809959 151.058833 
L 395.997273 149.316825 
L 411.184587 147.048734 
L 426.371901 143.58877 
" style="fill:none;stroke:#da8bc3;stroke-linecap:round;stroke-width:1.5;"/>
    <defs>
     <path d="M 0 3 
C 0.795609 3 1.55874 2.683901 2.12132 2.12132 
C 2.683901 1.55874 3 0.795609 3 0 
C 3 -0.795609 2.683901 -1.55874 2.12132 -2.12132 
C 1.55874 -2.683901 0.795609 -3 0 -3 
C -0.795609 -3 -1.55874 -2.683901 -2.12132 -2.12132 
C -2.683901 -1.55874 -3 -0.795609 -3 0 
C -3 0.795609 -2.683901 1.55874 -2.12132 2.12132 
C -1.55874 2.683901 -0.795609 3 0 3 
z
" id="mae3c0f1317" style="stroke:#da8bc3;"/>
    </defs>
    <g clip-path="url(#pd64336e419)">
     <use style="fill:#da8bc3;stroke:#da8bc3;" x="77.063678" xlink:href="#mae3c0f1317" y="279.877677"/>
     <use style="fill:#da8bc3;stroke:#da8bc3;" x="92.250992" xlink:href="#mae3c0f1317" y="237.030524"/>
     <use style="fill:#da8bc3;stroke:#da8bc3;" x="107.438306" xlink:href="#mae3c0f1317" y="226.156349"/>
     <use style="fill:#da8bc3;stroke:#da8bc3;" x="122.62562" xlink:href="#mae3c0f1317" y="214.951112"/>
     <use style="fill:#da8bc3;stroke:#da8bc3;" x="137.812934" xlink:href="#mae3c0f1317" y="206.184787"/>
     <use style="fill:#da8bc3;stroke:#da8bc3;" x="153.000248" xlink:href="#mae3c0f1317" y="195.756538"/>
     <use style="fill:#da8bc3;stroke:#da8bc3;" x="168.187563" xlink:href="#mae3c0f1317" y="190.820206"/>
     <use style="fill:#da8bc3;stroke:#da8bc3;" x="183.374877" xlink:href="#mae3c0f1317" y="182.934964"/>
     <use style="fill:#da8bc3;stroke:#da8bc3;" x="198.562191" xlink:href="#mae3c0f1317" y="180.225519"/>
     <use style="fill:#da8bc3;stroke:#da8bc3;" x="213.749505" xlink:href="#mae3c0f1317" y="171.793158"/>
     <use style="fill:#da8bc3;stroke:#da8bc3;" x="228.936819" xlink:href="#mae3c0f1317" y="134.314745"/>
     <use style="fill:#da8bc3;stroke:#da8bc3;" x="244.124133" xlink:href="#mae3c0f1317" y="169.625769"/>
     <use style="fill:#da8bc3;stroke:#da8bc3;" x="259.311447" xlink:href="#mae3c0f1317" y="167.802537"/>
     <use style="fill:#da8bc3;stroke:#da8bc3;" x="274.498761" xlink:href="#mae3c0f1317" y="166.47048"/>
     <use style="fill:#da8bc3;stroke:#da8bc3;" x="289.686075" xlink:href="#mae3c0f1317" y="163.222307"/>
     <use style="fill:#da8bc3;stroke:#da8bc3;" x="304.873389" xlink:href="#mae3c0f1317" y="159.433221"/>
     <use style="fill:#da8bc3;stroke:#da8bc3;" x="320.060703" xlink:href="#mae3c0f1317" y="155.795111"/>
     <use style="fill:#da8bc3;stroke:#da8bc3;" x="335.248017" xlink:href="#mae3c0f1317" y="154.055363"/>
     <use style="fill:#da8bc3;stroke:#da8bc3;" x="350.435331" xlink:href="#mae3c0f1317" y="154.34185"/>
     <use style="fill:#da8bc3;stroke:#da8bc3;" x="365.622645" xlink:href="#mae3c0f1317" y="151.949125"/>
     <use style="fill:#da8bc3;stroke:#da8bc3;" x="380.809959" xlink:href="#mae3c0f1317" y="151.058833"/>
     <use style="fill:#da8bc3;stroke:#da8bc3;" x="395.997273" xlink:href="#mae3c0f1317" y="149.316825"/>
     <use style="fill:#da8bc3;stroke:#da8bc3;" x="411.184587" xlink:href="#mae3c0f1317" y="147.048734"/>
     <use style="fill:#da8bc3;stroke:#da8bc3;" x="426.371901" xlink:href="#mae3c0f1317" y="143.58877"/>
    </g>
   </g>
   <g id="line2d_16">
    <path clip-path="url(#pd64336e419)" d="M 77.063678 281.04591 
L 92.250992 235.351473 
L 107.438306 220.078752 
L 122.62562 213.590361 
L 137.812934 203.525256 
L 153.000248 196.620123 
L 168.187563 191.482061 
L 183.374877 182.360345 
L 198.562191 179.348825 
L 213.749505 172.955746 
L 228.936819 164.483612 
L 244.124133 170.841206 
L 259.311447 166.382717 
L 274.498761 164.739078 
L 289.686075 161.661701 
L 304.873389 161.824082 
L 320.060703 135.143865 
L 335.248017 156.238024 
L 350.435331 154.2701 
L 365.622645 151.194946 
L 380.809959 150.450105 
L 395.997273 149.780887 
L 411.184587 147.495563 
L 426.371901 144.863053 
" style="fill:none;stroke:#8c8c8c;stroke-linecap:round;stroke-width:1.5;"/>
    <defs>
     <path d="M 0 3 
C 0.795609 3 1.55874 2.683901 2.12132 2.12132 
C 2.683901 1.55874 3 0.795609 3 0 
C 3 -0.795609 2.683901 -1.55874 2.12132 -2.12132 
C 1.55874 -2.683901 0.795609 -3 0 -3 
C -0.795609 -3 -1.55874 -2.683901 -2.12132 -2.12132 
C -2.683901 -1.55874 -3 -0.795609 -3 0 
C -3 0.795609 -2.683901 1.55874 -2.12132 2.12132 
C -1.55874 2.683901 -0.795609 3 0 3 
z
" id="m134d1a7470" style="stroke:#8c8c8c;"/>
    </defs>
    <g clip-path="url(#pd64336e419)">
     <use style="fill:#8c8c8c;stroke:#8c8c8c;" x="77.063678" xlink:href="#m134d1a7470" y="281.04591"/>
     <use style="fill:#8c8c8c;stroke:#8c8c8c;" x="92.250992" xlink:href="#m134d1a7470" y="235.351473"/>
     <use style="fill:#8c8c8c;stroke:#8c8c8c;" x="107.438306" xlink:href="#m134d1a7470" y="220.078752"/>
     <use style="fill:#8c8c8c;stroke:#8c8c8c;" x="122.62562" xlink:href="#m134d1a7470" y="213.590361"/>
     <use style="fill:#8c8c8c;stroke:#8c8c8c;" x="137.812934" xlink:href="#m134d1a7470" y="203.525256"/>
     <use style="fill:#8c8c8c;stroke:#8c8c8c;" x="153.000248" xlink:href="#m134d1a7470" y="196.620123"/>
     <use style="fill:#8c8c8c;stroke:#8c8c8c;" x="168.187563" xlink:href="#m134d1a7470" y="191.482061"/>
     <use style="fill:#8c8c8c;stroke:#8c8c8c;" x="183.374877" xlink:href="#m134d1a7470" y="182.360345"/>
     <use style="fill:#8c8c8c;stroke:#8c8c8c;" x="198.562191" xlink:href="#m134d1a7470" y="179.348825"/>
     <use style="fill:#8c8c8c;stroke:#8c8c8c;" x="213.749505" xlink:href="#m134d1a7470" y="172.955746"/>
     <use style="fill:#8c8c8c;stroke:#8c8c8c;" x="228.936819" xlink:href="#m134d1a7470" y="164.483612"/>
     <use style="fill:#8c8c8c;stroke:#8c8c8c;" x="244.124133" xlink:href="#m134d1a7470" y="170.841206"/>
     <use style="fill:#8c8c8c;stroke:#8c8c8c;" x="259.311447" xlink:href="#m134d1a7470" y="166.382717"/>
     <use style="fill:#8c8c8c;stroke:#8c8c8c;" x="274.498761" xlink:href="#m134d1a7470" y="164.739078"/>
     <use style="fill:#8c8c8c;stroke:#8c8c8c;" x="289.686075" xlink:href="#m134d1a7470" y="161.661701"/>
     <use style="fill:#8c8c8c;stroke:#8c8c8c;" x="304.873389" xlink:href="#m134d1a7470" y="161.824082"/>
     <use style="fill:#8c8c8c;stroke:#8c8c8c;" x="320.060703" xlink:href="#m134d1a7470" y="135.143865"/>
     <use style="fill:#8c8c8c;stroke:#8c8c8c;" x="335.248017" xlink:href="#m134d1a7470" y="156.238024"/>
     <use style="fill:#8c8c8c;stroke:#8c8c8c;" x="350.435331" xlink:href="#m134d1a7470" y="154.2701"/>
     <use style="fill:#8c8c8c;stroke:#8c8c8c;" x="365.622645" xlink:href="#m134d1a7470" y="151.194946"/>
     <use style="fill:#8c8c8c;stroke:#8c8c8c;" x="380.809959" xlink:href="#m134d1a7470" y="150.450105"/>
     <use style="fill:#8c8c8c;stroke:#8c8c8c;" x="395.997273" xlink:href="#m134d1a7470" y="149.780887"/>
     <use style="fill:#8c8c8c;stroke:#8c8c8c;" x="411.184587" xlink:href="#m134d1a7470" y="147.495563"/>
     <use style="fill:#8c8c8c;stroke:#8c8c8c;" x="426.371901" xlink:href="#m134d1a7470" y="144.863053"/>
    </g>
   </g>
   <g id="line2d_17">
    <path clip-path="url(#pd64336e419)" d="M 77.063678 237.600785 
L 92.250992 211.512343 
M 122.62562 198.684711 
M 183.374877 186.625585 
M 304.873389 184.692501 
" style="fill:none;stroke:#ccb974;stroke-linecap:round;stroke-width:1.5;"/>
    <defs>
     <path d="M 0 3 
C 0.795609 3 1.55874 2.683901 2.12132 2.12132 
C 2.683901 1.55874 3 0.795609 3 0 
C 3 -0.795609 2.683901 -1.55874 2.12132 -2.12132 
C 1.55874 -2.683901 0.795609 -3 0 -3 
C -0.795609 -3 -1.55874 -2.683901 -2.12132 -2.12132 
C -2.683901 -1.55874 -3 -0.795609 -3 0 
C -3 0.795609 -2.683901 1.55874 -2.12132 2.12132 
C -1.55874 2.683901 -0.795609 3 0 3 
z
" id="md48789addf" style="stroke:#ccb974;"/>
    </defs>
    <g clip-path="url(#pd64336e419)">
     <use style="fill:#ccb974;stroke:#ccb974;" x="77.063678" xlink:href="#md48789addf" y="237.600785"/>
     <use style="fill:#ccb974;stroke:#ccb974;" x="92.250992" xlink:href="#md48789addf" y="211.512343"/>
     <use style="fill:#ccb974;stroke:#ccb974;" x="122.62562" xlink:href="#md48789addf" y="198.684711"/>
     <use style="fill:#ccb974;stroke:#ccb974;" x="183.374877" xlink:href="#md48789addf" y="186.625585"/>
     <use style="fill:#ccb974;stroke:#ccb974;" x="304.873389" xlink:href="#md48789addf" y="184.692501"/>
    </g>
   </g>
   <g id="line2d_18">
    <path clip-path="url(#pd64336e419)" d="M 77.063678 278.166792 
L 92.250992 239.050544 
L 107.438306 166.999769 
L 122.62562 214.169775 
L 137.812934 204.674362 
L 153.000248 196.475329 
L 168.187563 190.035472 
L 183.374877 180.33601 
L 198.562191 179.240131 
L 213.749505 171.315299 
L 228.936819 170.746834 
L 244.124133 169.256676 
L 259.311447 167.444428 
L 274.498761 165.253287 
L 289.686075 161.016525 
L 304.873389 160.616776 
L 320.060703 157.510947 
L 335.248017 151.4681 
L 350.435331 150.923027 
L 365.622645 148.856315 
L 380.809959 148.204498 
L 395.997273 148.139703 
L 411.184587 144.679351 
L 426.371901 143.889732 
" style="fill:none;stroke:#64b5cd;stroke-linecap:round;stroke-width:1.5;"/>
    <defs>
     <path d="M 0 3 
C 0.795609 3 1.55874 2.683901 2.12132 2.12132 
C 2.683901 1.55874 3 0.795609 3 0 
C 3 -0.795609 2.683901 -1.55874 2.12132 -2.12132 
C 1.55874 -2.683901 0.795609 -3 0 -3 
C -0.795609 -3 -1.55874 -2.683901 -2.12132 -2.12132 
C -2.683901 -1.55874 -3 -0.795609 -3 0 
C -3 0.795609 -2.683901 1.55874 -2.12132 2.12132 
C -1.55874 2.683901 -0.795609 3 0 3 
z
" id="mb021c0ff5a" style="stroke:#64b5cd;"/>
    </defs>
    <g clip-path="url(#pd64336e419)">
     <use style="fill:#64b5cd;stroke:#64b5cd;" x="77.063678" xlink:href="#mb021c0ff5a" y="278.166792"/>
     <use style="fill:#64b5cd;stroke:#64b5cd;" x="92.250992" xlink:href="#mb021c0ff5a" y="239.050544"/>
     <use style="fill:#64b5cd;stroke:#64b5cd;" x="107.438306" xlink:href="#mb021c0ff5a" y="166.999769"/>
     <use style="fill:#64b5cd;stroke:#64b5cd;" x="122.62562" xlink:href="#mb021c0ff5a" y="214.169775"/>
     <use style="fill:#64b5cd;stroke:#64b5cd;" x="137.812934" xlink:href="#mb021c0ff5a" y="204.674362"/>
     <use style="fill:#64b5cd;stroke:#64b5cd;" x="153.000248" xlink:href="#mb021c0ff5a" y="196.475329"/>
     <use style="fill:#64b5cd;stroke:#64b5cd;" x="168.187563" xlink:href="#mb021c0ff5a" y="190.035472"/>
     <use style="fill:#64b5cd;stroke:#64b5cd;" x="183.374877" xlink:href="#mb021c0ff5a" y="180.33601"/>
     <use style="fill:#64b5cd;stroke:#64b5cd;" x="198.562191" xlink:href="#mb021c0ff5a" y="179.240131"/>
     <use style="fill:#64b5cd;stroke:#64b5cd;" x="213.749505" xlink:href="#mb021c0ff5a" y="171.315299"/>
     <use style="fill:#64b5cd;stroke:#64b5cd;" x="228.936819" xlink:href="#mb021c0ff5a" y="170.746834"/>
     <use style="fill:#64b5cd;stroke:#64b5cd;" x="244.124133" xlink:href="#mb021c0ff5a" y="169.256676"/>
     <use style="fill:#64b5cd;stroke:#64b5cd;" x="259.311447" xlink:href="#mb021c0ff5a" y="167.444428"/>
     <use style="fill:#64b5cd;stroke:#64b5cd;" x="274.498761" xlink:href="#mb021c0ff5a" y="165.253287"/>
     <use style="fill:#64b5cd;stroke:#64b5cd;" x="289.686075" xlink:href="#mb021c0ff5a" y="161.016525"/>
     <use style="fill:#64b5cd;stroke:#64b5cd;" x="304.873389" xlink:href="#mb021c0ff5a" y="160.616776"/>
     <use style="fill:#64b5cd;stroke:#64b5cd;" x="320.060703" xlink:href="#mb021c0ff5a" y="157.510947"/>
     <use style="fill:#64b5cd;stroke:#64b5cd;" x="335.248017" xlink:href="#mb021c0ff5a" y="151.4681"/>
     <use style="fill:#64b5cd;stroke:#64b5cd;" x="350.435331" xlink:href="#mb021c0ff5a" y="150.923027"/>
     <use style="fill:#64b5cd;stroke:#64b5cd;" x="365.622645" xlink:href="#mb021c0ff5a" y="148.856315"/>
     <use style="fill:#64b5cd;stroke:#64b5cd;" x="380.809959" xlink:href="#mb021c0ff5a" y="148.204498"/>
     <use style="fill:#64b5cd;stroke:#64b5cd;" x="395.997273" xlink:href="#mb021c0ff5a" y="148.139703"/>
     <use style="fill:#64b5cd;stroke:#64b5cd;" x="411.184587" xlink:href="#mb021c0ff5a" y="144.679351"/>
     <use style="fill:#64b5cd;stroke:#64b5cd;" x="426.371901" xlink:href="#mb021c0ff5a" y="143.889732"/>
    </g>
   </g>
   <g id="patch_3">
    <path d="M 59.598267 298.26 
L 59.598267 27.65625 
" style="fill:none;stroke:#ffffff;stroke-linecap:square;stroke-linejoin:miter;stroke-width:1.25;"/>
   </g>
   <g id="patch_4">
    <path d="M 443.837312 298.26 
L 443.837312 27.65625 
" style="fill:none;stroke:#ffffff;stroke-linecap:square;stroke-linejoin:miter;stroke-width:1.25;"/>
   </g>
   <g id="patch_5">
    <path d="M 59.598267 298.26 
L 443.837312 298.26 
" style="fill:none;stroke:#ffffff;stroke-linecap:square;stroke-linejoin:miter;stroke-width:1.25;"/>
   </g>
   <g id="patch_6">
    <path d="M 59.598267 27.65625 
L 443.837312 27.65625 
" style="fill:none;stroke:#ffffff;stroke-linecap:square;stroke-linejoin:miter;stroke-width:1.25;"/>
   </g>
   <g id="text_11">
    <!-- Runtime (64 vector size) -->
    <g style="fill:#262626;" transform="translate(186.70029 21.65625)scale(0.12 -0.12)">
     <defs>
      <path d="M 3184 3459 
L 2625 3416 
Q 2550 3747 2413 3897 
Q 2184 4138 1850 4138 
Q 1581 4138 1378 3988 
Q 1113 3794 959 3422 
Q 806 3050 800 2363 
Q 1003 2672 1297 2822 
Q 1591 2972 1913 2972 
Q 2475 2972 2870 2558 
Q 3266 2144 3266 1488 
Q 3266 1056 3080 686 
Q 2894 316 2569 119 
Q 2244 -78 1831 -78 
Q 1128 -78 684 439 
Q 241 956 241 2144 
Q 241 3472 731 4075 
Q 1159 4600 1884 4600 
Q 2425 4600 2770 4297 
Q 3116 3994 3184 3459 
z
M 888 1484 
Q 888 1194 1011 928 
Q 1134 663 1356 523 
Q 1578 384 1822 384 
Q 2178 384 2434 671 
Q 2691 959 2691 1453 
Q 2691 1928 2437 2201 
Q 2184 2475 1800 2475 
Q 1419 2475 1153 2201 
Q 888 1928 888 1484 
z
" id="ArialMT-36" transform="scale(0.015625)"/>
      <path d="M 1344 0 
L 81 3319 
L 675 3319 
L 1388 1331 
Q 1503 1009 1600 663 
Q 1675 925 1809 1294 
L 2547 3319 
L 3125 3319 
L 1869 0 
L 1344 0 
z
" id="ArialMT-76" transform="scale(0.015625)"/>
      <path d="M 125 0 
L 125 456 
L 2238 2881 
Q 1878 2863 1603 2863 
L 250 2863 
L 250 3319 
L 2963 3319 
L 2963 2947 
L 1166 841 
L 819 456 
Q 1197 484 1528 484 
L 3063 484 
L 3063 0 
L 125 0 
z
" id="ArialMT-7a" transform="scale(0.015625)"/>
     </defs>
     <use xlink:href="#ArialMT-52"/>
     <use x="72.216797" xlink:href="#ArialMT-75"/>
     <use x="127.832031" xlink:href="#ArialMT-6e"/>
     <use x="183.447266" xlink:href="#ArialMT-74"/>
     <use x="211.230469" xlink:href="#ArialMT-69"/>
     <use x="233.447266" xlink:href="#ArialMT-6d"/>
     <use x="316.748047" xlink:href="#ArialMT-65"/>
     <use x="372.363281" xlink:href="#ArialMT-20"/>
     <use x="400.146484" xlink:href="#ArialMT-28"/>
     <use x="433.447266" xlink:href="#ArialMT-36"/>
     <use x="489.0625" xlink:href="#ArialMT-34"/>
     <use x="544.677734" xlink:href="#ArialMT-20"/>
     <use x="572.460938" xlink:href="#ArialMT-76"/>
     <use x="622.460938" xlink:href="#ArialMT-65"/>
     <use x="678.076172" xlink:href="#ArialMT-63"/>
     <use x="728.076172" xlink:href="#ArialMT-74"/>
     <use x="755.859375" xlink:href="#ArialMT-6f"/>
     <use x="811.474609" xlink:href="#ArialMT-72"/>
     <use x="844.775391" xlink:href="#ArialMT-20"/>
     <use x="872.558594" xlink:href="#ArialMT-73"/>
     <use x="922.558594" xlink:href="#ArialMT-69"/>
     <use x="944.775391" xlink:href="#ArialMT-7a"/>
     <use x="994.775391" xlink:href="#ArialMT-65"/>
     <use x="1050.390625" xlink:href="#ArialMT-29"/>
    </g>
   </g>
   <g id="legend_1">
    <g id="patch_7">
     <path d="M 67.298267 209.436562 
L 276.138423 209.436562 
Q 278.338423 209.436562 278.338423 207.236562 
L 278.338423 35.35625 
Q 278.338423 33.15625 276.138423 33.15625 
L 67.298267 33.15625 
Q 65.098267 33.15625 65.098267 35.35625 
L 65.098267 207.236562 
Q 65.098267 209.436562 67.298267 209.436562 
z
" style="fill:#eaeaf2;opacity:0.8;stroke:#cccccc;stroke-linejoin:miter;"/>
    </g>
    <g id="text_12">
     <!-- implementation -->
     <g style="fill:#262626;" transform="translate(131.033658 46.145625)scale(0.12 -0.12)">
      <defs>
       <path d="M 409 0 
L 409 4581 
L 972 4581 
L 972 0 
L 409 0 
z
" id="ArialMT-6c" transform="scale(0.015625)"/>
       <path d="M 2588 409 
Q 2275 144 1986 34 
Q 1697 -75 1366 -75 
Q 819 -75 525 192 
Q 231 459 231 875 
Q 231 1119 342 1320 
Q 453 1522 633 1644 
Q 813 1766 1038 1828 
Q 1203 1872 1538 1913 
Q 2219 1994 2541 2106 
Q 2544 2222 2544 2253 
Q 2544 2597 2384 2738 
Q 2169 2928 1744 2928 
Q 1347 2928 1158 2789 
Q 969 2650 878 2297 
L 328 2372 
Q 403 2725 575 2942 
Q 747 3159 1072 3276 
Q 1397 3394 1825 3394 
Q 2250 3394 2515 3294 
Q 2781 3194 2906 3042 
Q 3031 2891 3081 2659 
Q 3109 2516 3109 2141 
L 3109 1391 
Q 3109 606 3145 398 
Q 3181 191 3288 0 
L 2700 0 
Q 2613 175 2588 409 
z
M 2541 1666 
Q 2234 1541 1622 1453 
Q 1275 1403 1131 1340 
Q 988 1278 909 1158 
Q 831 1038 831 891 
Q 831 666 1001 516 
Q 1172 366 1500 366 
Q 1825 366 2078 508 
Q 2331 650 2450 897 
Q 2541 1088 2541 1459 
L 2541 1666 
z
" id="ArialMT-61" transform="scale(0.015625)"/>
      </defs>
      <use xlink:href="#ArialMT-69"/>
      <use x="22.216797" xlink:href="#ArialMT-6d"/>
      <use x="105.517578" xlink:href="#ArialMT-70"/>
      <use x="161.132812" xlink:href="#ArialMT-6c"/>
      <use x="183.349609" xlink:href="#ArialMT-65"/>
      <use x="238.964844" xlink:href="#ArialMT-6d"/>
      <use x="322.265625" xlink:href="#ArialMT-65"/>
      <use x="377.880859" xlink:href="#ArialMT-6e"/>
      <use x="433.496094" xlink:href="#ArialMT-74"/>
      <use x="461.279297" xlink:href="#ArialMT-61"/>
      <use x="516.894531" xlink:href="#ArialMT-74"/>
      <use x="544.677734" xlink:href="#ArialMT-69"/>
      <use x="566.894531" xlink:href="#ArialMT-6f"/>
      <use x="622.509766" xlink:href="#ArialMT-6e"/>
     </g>
    </g>
    <g id="line2d_19">
     <path d="M 69.498267 58.054219 
L 91.498267 58.054219 
" style="fill:none;stroke:#4c72b0;stroke-linecap:round;stroke-width:1.5;"/>
    </g>
    <g id="line2d_20">
     <g>
      <use style="fill:#4c72b0;stroke:#4c72b0;" x="80.498267" xlink:href="#mafbcb75f43" y="58.054219"/>
     </g>
    </g>
    <g id="text_13">
     <!-- allreduce -->
     <g style="fill:#262626;" transform="translate(100.298267 61.904219)scale(0.11 -0.11)">
      <defs>
       <path d="M 2575 0 
L 2575 419 
Q 2259 -75 1647 -75 
Q 1250 -75 917 144 
Q 584 363 401 755 
Q 219 1147 219 1656 
Q 219 2153 384 2558 
Q 550 2963 881 3178 
Q 1213 3394 1622 3394 
Q 1922 3394 2156 3267 
Q 2391 3141 2538 2938 
L 2538 4581 
L 3097 4581 
L 3097 0 
L 2575 0 
z
M 797 1656 
Q 797 1019 1065 703 
Q 1334 388 1700 388 
Q 2069 388 2326 689 
Q 2584 991 2584 1609 
Q 2584 2291 2321 2609 
Q 2059 2928 1675 2928 
Q 1300 2928 1048 2622 
Q 797 2316 797 1656 
z
" id="ArialMT-64" transform="scale(0.015625)"/>
      </defs>
      <use xlink:href="#ArialMT-61"/>
      <use x="55.615234" xlink:href="#ArialMT-6c"/>
      <use x="77.832031" xlink:href="#ArialMT-6c"/>
      <use x="100.048828" xlink:href="#ArialMT-72"/>
      <use x="133.349609" xlink:href="#ArialMT-65"/>
      <use x="188.964844" xlink:href="#ArialMT-64"/>
      <use x="244.580078" xlink:href="#ArialMT-75"/>
      <use x="300.195312" xlink:href="#ArialMT-63"/>
      <use x="350.195312" xlink:href="#ArialMT-65"/>
     </g>
    </g>
    <g id="line2d_21">
     <path d="M 69.498267 73.748125 
L 91.498267 73.748125 
" style="fill:none;stroke:#dd8452;stroke-linecap:round;stroke-width:1.5;"/>
    </g>
    <g id="line2d_22">
     <g>
      <use style="fill:#dd8452;stroke:#dd8452;" x="80.498267" xlink:href="#m5203b9ee48" y="73.748125"/>
     </g>
    </g>
    <g id="text_14">
     <!-- allreduce-butterfly -->
     <g style="fill:#262626;" transform="translate(100.298267 77.598125)scale(0.11 -0.11)">
      <defs>
       <path d="M 203 1375 
L 203 1941 
L 1931 1941 
L 1931 1375 
L 203 1375 
z
" id="ArialMT-2d" transform="scale(0.015625)"/>
       <path d="M 397 -1278 
L 334 -750 
Q 519 -800 656 -800 
Q 844 -800 956 -737 
Q 1069 -675 1141 -563 
Q 1194 -478 1313 -144 
Q 1328 -97 1363 -6 
L 103 3319 
L 709 3319 
L 1400 1397 
Q 1534 1031 1641 628 
Q 1738 1016 1872 1384 
L 2581 3319 
L 3144 3319 
L 1881 -56 
Q 1678 -603 1566 -809 
Q 1416 -1088 1222 -1217 
Q 1028 -1347 759 -1347 
Q 597 -1347 397 -1278 
z
" id="ArialMT-79" transform="scale(0.015625)"/>
      </defs>
      <use xlink:href="#ArialMT-61"/>
      <use x="55.615234" xlink:href="#ArialMT-6c"/>
      <use x="77.832031" xlink:href="#ArialMT-6c"/>
      <use x="100.048828" xlink:href="#ArialMT-72"/>
      <use x="133.349609" xlink:href="#ArialMT-65"/>
      <use x="188.964844" xlink:href="#ArialMT-64"/>
      <use x="244.580078" xlink:href="#ArialMT-75"/>
      <use x="300.195312" xlink:href="#ArialMT-63"/>
      <use x="350.195312" xlink:href="#ArialMT-65"/>
      <use x="405.810547" xlink:href="#ArialMT-2d"/>
      <use x="439.111328" xlink:href="#ArialMT-62"/>
      <use x="494.726562" xlink:href="#ArialMT-75"/>
      <use x="550.341797" xlink:href="#ArialMT-74"/>
      <use x="578.125" xlink:href="#ArialMT-74"/>
      <use x="605.908203" xlink:href="#ArialMT-65"/>
      <use x="661.523438" xlink:href="#ArialMT-72"/>
      <use x="694.824219" xlink:href="#ArialMT-66"/>
      <use x="722.607422" xlink:href="#ArialMT-6c"/>
      <use x="744.824219" xlink:href="#ArialMT-79"/>
     </g>
    </g>
    <g id="line2d_23">
     <path d="M 69.498267 89.436875 
L 91.498267 89.436875 
" style="fill:none;stroke:#55a868;stroke-linecap:round;stroke-width:1.5;"/>
    </g>
    <g id="line2d_24">
     <g>
      <use style="fill:#55a868;stroke:#55a868;" x="80.498267" xlink:href="#m32a016117d" y="89.436875"/>
     </g>
    </g>
    <g id="text_15">
     <!-- allreduce-native-basic_linear -->
     <g style="fill:#262626;" transform="translate(100.298267 93.286875)scale(0.11 -0.11)">
      <defs>
       <path d="M -97 -1272 
L -97 -866 
L 3631 -866 
L 3631 -1272 
L -97 -1272 
z
" id="ArialMT-5f" transform="scale(0.015625)"/>
      </defs>
      <use xlink:href="#ArialMT-61"/>
      <use x="55.615234" xlink:href="#ArialMT-6c"/>
      <use x="77.832031" xlink:href="#ArialMT-6c"/>
      <use x="100.048828" xlink:href="#ArialMT-72"/>
      <use x="133.349609" xlink:href="#ArialMT-65"/>
      <use x="188.964844" xlink:href="#ArialMT-64"/>
      <use x="244.580078" xlink:href="#ArialMT-75"/>
      <use x="300.195312" xlink:href="#ArialMT-63"/>
      <use x="350.195312" xlink:href="#ArialMT-65"/>
      <use x="405.810547" xlink:href="#ArialMT-2d"/>
      <use x="439.111328" xlink:href="#ArialMT-6e"/>
      <use x="494.726562" xlink:href="#ArialMT-61"/>
      <use x="550.341797" xlink:href="#ArialMT-74"/>
      <use x="578.125" xlink:href="#ArialMT-69"/>
      <use x="600.341797" xlink:href="#ArialMT-76"/>
      <use x="650.341797" xlink:href="#ArialMT-65"/>
      <use x="705.957031" xlink:href="#ArialMT-2d"/>
      <use x="739.257812" xlink:href="#ArialMT-62"/>
      <use x="794.873047" xlink:href="#ArialMT-61"/>
      <use x="850.488281" xlink:href="#ArialMT-73"/>
      <use x="900.488281" xlink:href="#ArialMT-69"/>
      <use x="922.705078" xlink:href="#ArialMT-63"/>
      <use x="972.705078" xlink:href="#ArialMT-5f"/>
      <use x="1028.320312" xlink:href="#ArialMT-6c"/>
      <use x="1050.537109" xlink:href="#ArialMT-69"/>
      <use x="1072.753906" xlink:href="#ArialMT-6e"/>
      <use x="1128.369141" xlink:href="#ArialMT-65"/>
      <use x="1183.984375" xlink:href="#ArialMT-61"/>
      <use x="1239.599609" xlink:href="#ArialMT-72"/>
     </g>
    </g>
    <g id="line2d_25">
     <path d="M 69.498267 104.996719 
L 91.498267 104.996719 
" style="fill:none;stroke:#c44e52;stroke-linecap:round;stroke-width:1.5;"/>
    </g>
    <g id="line2d_26">
     <g>
      <use style="fill:#c44e52;stroke:#c44e52;" x="80.498267" xlink:href="#ma2ba602011" y="104.996719"/>
     </g>
    </g>
    <g id="text_16">
     <!-- allreduce-native-nonoverlapping -->
     <g style="fill:#262626;" transform="translate(100.298267 108.846719)scale(0.11 -0.11)">
      <defs>
       <path d="M 319 -275 
L 866 -356 
Q 900 -609 1056 -725 
Q 1266 -881 1628 -881 
Q 2019 -881 2231 -725 
Q 2444 -569 2519 -288 
Q 2563 -116 2559 434 
Q 2191 0 1641 0 
Q 956 0 581 494 
Q 206 988 206 1678 
Q 206 2153 378 2554 
Q 550 2956 876 3175 
Q 1203 3394 1644 3394 
Q 2231 3394 2613 2919 
L 2613 3319 
L 3131 3319 
L 3131 450 
Q 3131 -325 2973 -648 
Q 2816 -972 2473 -1159 
Q 2131 -1347 1631 -1347 
Q 1038 -1347 672 -1080 
Q 306 -813 319 -275 
z
M 784 1719 
Q 784 1066 1043 766 
Q 1303 466 1694 466 
Q 2081 466 2343 764 
Q 2606 1063 2606 1700 
Q 2606 2309 2336 2618 
Q 2066 2928 1684 2928 
Q 1309 2928 1046 2623 
Q 784 2319 784 1719 
z
" id="ArialMT-67" transform="scale(0.015625)"/>
      </defs>
      <use xlink:href="#ArialMT-61"/>
      <use x="55.615234" xlink:href="#ArialMT-6c"/>
      <use x="77.832031" xlink:href="#ArialMT-6c"/>
      <use x="100.048828" xlink:href="#ArialMT-72"/>
      <use x="133.349609" xlink:href="#ArialMT-65"/>
      <use x="188.964844" xlink:href="#ArialMT-64"/>
      <use x="244.580078" xlink:href="#ArialMT-75"/>
      <use x="300.195312" xlink:href="#ArialMT-63"/>
      <use x="350.195312" xlink:href="#ArialMT-65"/>
      <use x="405.810547" xlink:href="#ArialMT-2d"/>
      <use x="439.111328" xlink:href="#ArialMT-6e"/>
      <use x="494.726562" xlink:href="#ArialMT-61"/>
      <use x="550.341797" xlink:href="#ArialMT-74"/>
      <use x="578.125" xlink:href="#ArialMT-69"/>
      <use x="600.341797" xlink:href="#ArialMT-76"/>
      <use x="650.341797" xlink:href="#ArialMT-65"/>
      <use x="705.957031" xlink:href="#ArialMT-2d"/>
      <use x="739.257812" xlink:href="#ArialMT-6e"/>
      <use x="794.873047" xlink:href="#ArialMT-6f"/>
      <use x="850.488281" xlink:href="#ArialMT-6e"/>
      <use x="906.103516" xlink:href="#ArialMT-6f"/>
      <use x="961.71875" xlink:href="#ArialMT-76"/>
      <use x="1011.71875" xlink:href="#ArialMT-65"/>
      <use x="1067.333984" xlink:href="#ArialMT-72"/>
      <use x="1100.634766" xlink:href="#ArialMT-6c"/>
      <use x="1122.851562" xlink:href="#ArialMT-61"/>
      <use x="1178.466797" xlink:href="#ArialMT-70"/>
      <use x="1234.082031" xlink:href="#ArialMT-70"/>
      <use x="1289.697266" xlink:href="#ArialMT-69"/>
      <use x="1311.914062" xlink:href="#ArialMT-6e"/>
      <use x="1367.529297" xlink:href="#ArialMT-67"/>
     </g>
    </g>
    <g id="line2d_27">
     <path d="M 69.498267 120.685469 
L 91.498267 120.685469 
" style="fill:none;stroke:#8172b3;stroke-linecap:round;stroke-width:1.5;"/>
    </g>
    <g id="line2d_28">
     <g>
      <use style="fill:#8172b3;stroke:#8172b3;" x="80.498267" xlink:href="#m9a6b4ba02f" y="120.685469"/>
     </g>
    </g>
    <g id="text_17">
     <!-- allreduce-native-rabenseifner -->
     <g style="fill:#262626;" transform="translate(100.298267 124.535469)scale(0.11 -0.11)">
      <use xlink:href="#ArialMT-61"/>
      <use x="55.615234" xlink:href="#ArialMT-6c"/>
      <use x="77.832031" xlink:href="#ArialMT-6c"/>
      <use x="100.048828" xlink:href="#ArialMT-72"/>
      <use x="133.349609" xlink:href="#ArialMT-65"/>
      <use x="188.964844" xlink:href="#ArialMT-64"/>
      <use x="244.580078" xlink:href="#ArialMT-75"/>
      <use x="300.195312" xlink:href="#ArialMT-63"/>
      <use x="350.195312" xlink:href="#ArialMT-65"/>
      <use x="405.810547" xlink:href="#ArialMT-2d"/>
      <use x="439.111328" xlink:href="#ArialMT-6e"/>
      <use x="494.726562" xlink:href="#ArialMT-61"/>
      <use x="550.341797" xlink:href="#ArialMT-74"/>
      <use x="578.125" xlink:href="#ArialMT-69"/>
      <use x="600.341797" xlink:href="#ArialMT-76"/>
      <use x="650.341797" xlink:href="#ArialMT-65"/>
      <use x="705.957031" xlink:href="#ArialMT-2d"/>
      <use x="739.257812" xlink:href="#ArialMT-72"/>
      <use x="772.558594" xlink:href="#ArialMT-61"/>
      <use x="828.173828" xlink:href="#ArialMT-62"/>
      <use x="883.789062" xlink:href="#ArialMT-65"/>
      <use x="939.404297" xlink:href="#ArialMT-6e"/>
      <use x="995.019531" xlink:href="#ArialMT-73"/>
      <use x="1045.019531" xlink:href="#ArialMT-65"/>
      <use x="1100.634766" xlink:href="#ArialMT-69"/>
      <use x="1122.851562" xlink:href="#ArialMT-66"/>
      <use x="1150.634766" xlink:href="#ArialMT-6e"/>
      <use x="1206.25" xlink:href="#ArialMT-65"/>
      <use x="1261.865234" xlink:href="#ArialMT-72"/>
     </g>
    </g>
    <g id="line2d_29">
     <path d="M 69.498267 136.245312 
L 91.498267 136.245312 
" style="fill:none;stroke:#937860;stroke-linecap:round;stroke-width:1.5;"/>
    </g>
    <g id="line2d_30">
     <g>
      <use style="fill:#937860;stroke:#937860;" x="80.498267" xlink:href="#m7d0e7bd369" y="136.245312"/>
     </g>
    </g>
    <g id="text_18">
     <!-- allreduce-native-recursive_doubling -->
     <g style="fill:#262626;" transform="translate(100.298267 140.095312)scale(0.11 -0.11)">
      <use xlink:href="#ArialMT-61"/>
      <use x="55.615234" xlink:href="#ArialMT-6c"/>
      <use x="77.832031" xlink:href="#ArialMT-6c"/>
      <use x="100.048828" xlink:href="#ArialMT-72"/>
      <use x="133.349609" xlink:href="#ArialMT-65"/>
      <use x="188.964844" xlink:href="#ArialMT-64"/>
      <use x="244.580078" xlink:href="#ArialMT-75"/>
      <use x="300.195312" xlink:href="#ArialMT-63"/>
      <use x="350.195312" xlink:href="#ArialMT-65"/>
      <use x="405.810547" xlink:href="#ArialMT-2d"/>
      <use x="439.111328" xlink:href="#ArialMT-6e"/>
      <use x="494.726562" xlink:href="#ArialMT-61"/>
      <use x="550.341797" xlink:href="#ArialMT-74"/>
      <use x="578.125" xlink:href="#ArialMT-69"/>
      <use x="600.341797" xlink:href="#ArialMT-76"/>
      <use x="650.341797" xlink:href="#ArialMT-65"/>
      <use x="705.957031" xlink:href="#ArialMT-2d"/>
      <use x="739.257812" xlink:href="#ArialMT-72"/>
      <use x="772.558594" xlink:href="#ArialMT-65"/>
      <use x="828.173828" xlink:href="#ArialMT-63"/>
      <use x="878.173828" xlink:href="#ArialMT-75"/>
      <use x="933.789062" xlink:href="#ArialMT-72"/>
      <use x="967.089844" xlink:href="#ArialMT-73"/>
      <use x="1017.089844" xlink:href="#ArialMT-69"/>
      <use x="1039.306641" xlink:href="#ArialMT-76"/>
      <use x="1089.306641" xlink:href="#ArialMT-65"/>
      <use x="1144.921875" xlink:href="#ArialMT-5f"/>
      <use x="1200.537109" xlink:href="#ArialMT-64"/>
      <use x="1256.152344" xlink:href="#ArialMT-6f"/>
      <use x="1311.767578" xlink:href="#ArialMT-75"/>
      <use x="1367.382812" xlink:href="#ArialMT-62"/>
      <use x="1422.998047" xlink:href="#ArialMT-6c"/>
      <use x="1445.214844" xlink:href="#ArialMT-69"/>
      <use x="1467.431641" xlink:href="#ArialMT-6e"/>
      <use x="1523.046875" xlink:href="#ArialMT-67"/>
     </g>
    </g>
    <g id="line2d_31">
     <path d="M 69.498267 151.934063 
L 91.498267 151.934063 
" style="fill:none;stroke:#da8bc3;stroke-linecap:round;stroke-width:1.5;"/>
    </g>
    <g id="line2d_32">
     <g>
      <use style="fill:#da8bc3;stroke:#da8bc3;" x="80.498267" xlink:href="#mae3c0f1317" y="151.934063"/>
     </g>
    </g>
    <g id="text_19">
     <!-- allreduce-native-ring -->
     <g style="fill:#262626;" transform="translate(100.298267 155.784063)scale(0.11 -0.11)">
      <use xlink:href="#ArialMT-61"/>
      <use x="55.615234" xlink:href="#ArialMT-6c"/>
      <use x="77.832031" xlink:href="#ArialMT-6c"/>
      <use x="100.048828" xlink:href="#ArialMT-72"/>
      <use x="133.349609" xlink:href="#ArialMT-65"/>
      <use x="188.964844" xlink:href="#ArialMT-64"/>
      <use x="244.580078" xlink:href="#ArialMT-75"/>
      <use x="300.195312" xlink:href="#ArialMT-63"/>
      <use x="350.195312" xlink:href="#ArialMT-65"/>
      <use x="405.810547" xlink:href="#ArialMT-2d"/>
      <use x="439.111328" xlink:href="#ArialMT-6e"/>
      <use x="494.726562" xlink:href="#ArialMT-61"/>
      <use x="550.341797" xlink:href="#ArialMT-74"/>
      <use x="578.125" xlink:href="#ArialMT-69"/>
      <use x="600.341797" xlink:href="#ArialMT-76"/>
      <use x="650.341797" xlink:href="#ArialMT-65"/>
      <use x="705.957031" xlink:href="#ArialMT-2d"/>
      <use x="739.257812" xlink:href="#ArialMT-72"/>
      <use x="772.558594" xlink:href="#ArialMT-69"/>
      <use x="794.775391" xlink:href="#ArialMT-6e"/>
      <use x="850.390625" xlink:href="#ArialMT-67"/>
     </g>
    </g>
    <g id="line2d_33">
     <path d="M 69.498267 167.622812 
L 91.498267 167.622812 
" style="fill:none;stroke:#8c8c8c;stroke-linecap:round;stroke-width:1.5;"/>
    </g>
    <g id="line2d_34">
     <g>
      <use style="fill:#8c8c8c;stroke:#8c8c8c;" x="80.498267" xlink:href="#m134d1a7470" y="167.622812"/>
     </g>
    </g>
    <g id="text_20">
     <!-- allreduce-native-segmented_ring -->
     <g style="fill:#262626;" transform="translate(100.298267 171.472812)scale(0.11 -0.11)">
      <use xlink:href="#ArialMT-61"/>
      <use x="55.615234" xlink:href="#ArialMT-6c"/>
      <use x="77.832031" xlink:href="#ArialMT-6c"/>
      <use x="100.048828" xlink:href="#ArialMT-72"/>
      <use x="133.349609" xlink:href="#ArialMT-65"/>
      <use x="188.964844" xlink:href="#ArialMT-64"/>
      <use x="244.580078" xlink:href="#ArialMT-75"/>
      <use x="300.195312" xlink:href="#ArialMT-63"/>
      <use x="350.195312" xlink:href="#ArialMT-65"/>
      <use x="405.810547" xlink:href="#ArialMT-2d"/>
      <use x="439.111328" xlink:href="#ArialMT-6e"/>
      <use x="494.726562" xlink:href="#ArialMT-61"/>
      <use x="550.341797" xlink:href="#ArialMT-74"/>
      <use x="578.125" xlink:href="#ArialMT-69"/>
      <use x="600.341797" xlink:href="#ArialMT-76"/>
      <use x="650.341797" xlink:href="#ArialMT-65"/>
      <use x="705.957031" xlink:href="#ArialMT-2d"/>
      <use x="739.257812" xlink:href="#ArialMT-73"/>
      <use x="789.257812" xlink:href="#ArialMT-65"/>
      <use x="844.873047" xlink:href="#ArialMT-67"/>
      <use x="900.488281" xlink:href="#ArialMT-6d"/>
      <use x="983.789062" xlink:href="#ArialMT-65"/>
      <use x="1039.404297" xlink:href="#ArialMT-6e"/>
      <use x="1095.019531" xlink:href="#ArialMT-74"/>
      <use x="1122.802734" xlink:href="#ArialMT-65"/>
      <use x="1178.417969" xlink:href="#ArialMT-64"/>
      <use x="1234.033203" xlink:href="#ArialMT-5f"/>
      <use x="1289.648438" xlink:href="#ArialMT-72"/>
      <use x="1322.949219" xlink:href="#ArialMT-69"/>
      <use x="1345.166016" xlink:href="#ArialMT-6e"/>
      <use x="1400.78125" xlink:href="#ArialMT-67"/>
     </g>
    </g>
    <g id="line2d_35">
     <path d="M 69.498267 183.311563 
L 91.498267 183.311563 
" style="fill:none;stroke:#ccb974;stroke-linecap:round;stroke-width:1.5;"/>
    </g>
    <g id="line2d_36">
     <g>
      <use style="fill:#ccb974;stroke:#ccb974;" x="80.498267" xlink:href="#md48789addf" y="183.311563"/>
     </g>
    </g>
    <g id="text_21">
     <!-- allreduce-rabenseifner -->
     <g style="fill:#262626;" transform="translate(100.298267 187.161563)scale(0.11 -0.11)">
      <use xlink:href="#ArialMT-61"/>
      <use x="55.615234" xlink:href="#ArialMT-6c"/>
      <use x="77.832031" xlink:href="#ArialMT-6c"/>
      <use x="100.048828" xlink:href="#ArialMT-72"/>
      <use x="133.349609" xlink:href="#ArialMT-65"/>
      <use x="188.964844" xlink:href="#ArialMT-64"/>
      <use x="244.580078" xlink:href="#ArialMT-75"/>
      <use x="300.195312" xlink:href="#ArialMT-63"/>
      <use x="350.195312" xlink:href="#ArialMT-65"/>
      <use x="405.810547" xlink:href="#ArialMT-2d"/>
      <use x="439.111328" xlink:href="#ArialMT-72"/>
      <use x="472.412109" xlink:href="#ArialMT-61"/>
      <use x="528.027344" xlink:href="#ArialMT-62"/>
      <use x="583.642578" xlink:href="#ArialMT-65"/>
      <use x="639.257812" xlink:href="#ArialMT-6e"/>
      <use x="694.873047" xlink:href="#ArialMT-73"/>
      <use x="744.873047" xlink:href="#ArialMT-65"/>
      <use x="800.488281" xlink:href="#ArialMT-69"/>
      <use x="822.705078" xlink:href="#ArialMT-66"/>
      <use x="850.488281" xlink:href="#ArialMT-6e"/>
      <use x="906.103516" xlink:href="#ArialMT-65"/>
      <use x="961.71875" xlink:href="#ArialMT-72"/>
     </g>
    </g>
    <g id="line2d_37">
     <path d="M 69.498267 198.871406 
L 91.498267 198.871406 
" style="fill:none;stroke:#64b5cd;stroke-linecap:round;stroke-width:1.5;"/>
    </g>
    <g id="line2d_38">
     <g>
      <use style="fill:#64b5cd;stroke:#64b5cd;" x="80.498267" xlink:href="#mb021c0ff5a" y="198.871406"/>
     </g>
    </g>
    <g id="text_22">
     <!-- allreduce-ring -->
     <g style="fill:#262626;" transform="translate(100.298267 202.721406)scale(0.11 -0.11)">
      <use xlink:href="#ArialMT-61"/>
      <use x="55.615234" xlink:href="#ArialMT-6c"/>
      <use x="77.832031" xlink:href="#ArialMT-6c"/>
      <use x="100.048828" xlink:href="#ArialMT-72"/>
      <use x="133.349609" xlink:href="#ArialMT-65"/>
      <use x="188.964844" xlink:href="#ArialMT-64"/>
      <use x="244.580078" xlink:href="#ArialMT-75"/>
      <use x="300.195312" xlink:href="#ArialMT-63"/>
      <use x="350.195312" xlink:href="#ArialMT-65"/>
      <use x="405.810547" xlink:href="#ArialMT-2d"/>
      <use x="439.111328" xlink:href="#ArialMT-72"/>
      <use x="472.412109" xlink:href="#ArialMT-69"/>
      <use x="494.628906" xlink:href="#ArialMT-6e"/>
      <use x="550.244141" xlink:href="#ArialMT-67"/>
     </g>
    </g>
   </g>
  </g>
 </g>
 <defs>
  <clipPath id="pd64336e419">
   <rect height="270.60375" width="384.239045" x="59.598267" y="27.65625"/>
  </clipPath>
 </defs>
</svg>
