<?xml version="1.0" encoding="utf-8" standalone="no"?>
<!DOCTYPE svg PUBLIC "-//W3C//DTD SVG 1.1//EN"
  "http://www.w3.org/Graphics/SVG/1.1/DTD/svg11.dtd">
<svg height="345.6pt" version="1.1" viewBox="0 0 460.8 345.6" width="460.8pt" xmlns="http://www.w3.org/2000/svg" xmlns:xlink="http://www.w3.org/1999/xlink">
 <metadata>
  <rdf:RDF xmlns:cc="http://creativecommons.org/ns#" xmlns:dc="http://purl.org/dc/elements/1.1/" xmlns:rdf="http://www.w3.org/1999/02/22-rdf-syntax-ns#">
   <cc:Work>
    <dc:type rdf:resource="http://purl.org/dc/dcmitype/StillImage"/>
    <dc:date>2021-11-20T20:49:49.206547</dc:date>
    <dc:format>image/svg+xml</dc:format>
    <dc:creator>
     <cc:Agent>
      <dc:title>Matplotlib v3.4.3, https://matplotlib.org/</dc:title>
     </cc:Agent>
    </dc:creator>
   </cc:Work>
  </rdf:RDF>
 </metadata>
 <defs>
  <style type="text/css">*{stroke-linecap:butt;stroke-linejoin:round;}</style>
 </defs>
 <g id="figure_1">
  <g id="patch_1">
   <path d="M 0 345.6 
L 460.8 345.6 
L 460.8 0 
L 0 0 
z
" style="fill:#ffffff;"/>
  </g>
  <g id="axes_1">
   <g id="patch_2">
    <path d="M 72.573039 298.26 
L 447.84 298.26 
L 447.84 27.65625 
L 72.573039 27.65625 
z
" style="fill:#eaeaf2;"/>
   </g>
   <g id="matplotlib.axis_1">
    <g id="xtick_1">
     <g id="line2d_1">
      <path clip-path="url(#p123cc4f641)" d="M 80.883146 298.26 
L 80.883146 27.65625 
" style="fill:none;stroke:#ffffff;stroke-linecap:round;"/>
     </g>
     <g id="text_1">
      <!-- 0 -->
      <g style="fill:#262626;" transform="translate(77.824631 315.633594)scale(0.11 -0.11)">
       <defs>
        <path d="M 266 2259 
Q 266 3072 433 3567 
Q 600 4063 929 4331 
Q 1259 4600 1759 4600 
Q 2128 4600 2406 4451 
Q 2684 4303 2865 4023 
Q 3047 3744 3150 3342 
Q 3253 2941 3253 2259 
Q 3253 1453 3087 958 
Q 2922 463 2592 192 
Q 2263 -78 1759 -78 
Q 1097 -78 719 397 
Q 266 969 266 2259 
z
M 844 2259 
Q 844 1131 1108 757 
Q 1372 384 1759 384 
Q 2147 384 2411 759 
Q 2675 1134 2675 2259 
Q 2675 3391 2411 3762 
Q 2147 4134 1753 4134 
Q 1366 4134 1134 3806 
Q 844 3388 844 2259 
z
" id="ArialMT-30" transform="scale(0.015625)"/>
       </defs>
       <use xlink:href="#ArialMT-30"/>
      </g>
     </g>
    </g>
    <g id="xtick_2">
     <g id="line2d_2">
      <path clip-path="url(#p123cc4f641)" d="M 124.620554 298.26 
L 124.620554 27.65625 
" style="fill:none;stroke:#ffffff;stroke-linecap:round;"/>
     </g>
     <g id="text_2">
      <!-- 5 -->
      <g style="fill:#262626;" transform="translate(121.562039 315.633594)scale(0.11 -0.11)">
       <defs>
        <path d="M 266 1200 
L 856 1250 
Q 922 819 1161 601 
Q 1400 384 1738 384 
Q 2144 384 2425 690 
Q 2706 997 2706 1503 
Q 2706 1984 2436 2262 
Q 2166 2541 1728 2541 
Q 1456 2541 1237 2417 
Q 1019 2294 894 2097 
L 366 2166 
L 809 4519 
L 3088 4519 
L 3088 3981 
L 1259 3981 
L 1013 2750 
Q 1425 3038 1878 3038 
Q 2478 3038 2890 2622 
Q 3303 2206 3303 1553 
Q 3303 931 2941 478 
Q 2500 -78 1738 -78 
Q 1113 -78 717 272 
Q 322 622 266 1200 
z
" id="ArialMT-35" transform="scale(0.015625)"/>
       </defs>
       <use xlink:href="#ArialMT-35"/>
      </g>
     </g>
    </g>
    <g id="xtick_3">
     <g id="line2d_3">
      <path clip-path="url(#p123cc4f641)" d="M 168.357962 298.26 
L 168.357962 27.65625 
" style="fill:none;stroke:#ffffff;stroke-linecap:round;"/>
     </g>
     <g id="text_3">
      <!-- 10 -->
      <g style="fill:#262626;" transform="translate(162.240931 315.633594)scale(0.11 -0.11)">
       <defs>
        <path d="M 2384 0 
L 1822 0 
L 1822 3584 
Q 1619 3391 1289 3197 
Q 959 3003 697 2906 
L 697 3450 
Q 1169 3672 1522 3987 
Q 1875 4303 2022 4600 
L 2384 4600 
L 2384 0 
z
" id="ArialMT-31" transform="scale(0.015625)"/>
       </defs>
       <use xlink:href="#ArialMT-31"/>
       <use x="55.615234" xlink:href="#ArialMT-30"/>
      </g>
     </g>
    </g>
    <g id="xtick_4">
     <g id="line2d_4">
      <path clip-path="url(#p123cc4f641)" d="M 212.09537 298.26 
L 212.09537 27.65625 
" style="fill:none;stroke:#ffffff;stroke-linecap:round;"/>
     </g>
     <g id="text_4">
      <!-- 15 -->
      <g style="fill:#262626;" transform="translate(205.978339 315.633594)scale(0.11 -0.11)">
       <use xlink:href="#ArialMT-31"/>
       <use x="55.615234" xlink:href="#ArialMT-35"/>
      </g>
     </g>
    </g>
    <g id="xtick_5">
     <g id="line2d_5">
      <path clip-path="url(#p123cc4f641)" d="M 255.832779 298.26 
L 255.832779 27.65625 
" style="fill:none;stroke:#ffffff;stroke-linecap:round;"/>
     </g>
     <g id="text_5">
      <!-- 20 -->
      <g style="fill:#262626;" transform="translate(249.715747 315.633594)scale(0.11 -0.11)">
       <defs>
        <path d="M 3222 541 
L 3222 0 
L 194 0 
Q 188 203 259 391 
Q 375 700 629 1000 
Q 884 1300 1366 1694 
Q 2113 2306 2375 2664 
Q 2638 3022 2638 3341 
Q 2638 3675 2398 3904 
Q 2159 4134 1775 4134 
Q 1369 4134 1125 3890 
Q 881 3647 878 3216 
L 300 3275 
Q 359 3922 746 4261 
Q 1134 4600 1788 4600 
Q 2447 4600 2831 4234 
Q 3216 3869 3216 3328 
Q 3216 3053 3103 2787 
Q 2991 2522 2730 2228 
Q 2469 1934 1863 1422 
Q 1356 997 1212 845 
Q 1069 694 975 541 
L 3222 541 
z
" id="ArialMT-32" transform="scale(0.015625)"/>
       </defs>
       <use xlink:href="#ArialMT-32"/>
       <use x="55.615234" xlink:href="#ArialMT-30"/>
      </g>
     </g>
    </g>
    <g id="xtick_6">
     <g id="line2d_6">
      <path clip-path="url(#p123cc4f641)" d="M 299.570187 298.26 
L 299.570187 27.65625 
" style="fill:none;stroke:#ffffff;stroke-linecap:round;"/>
     </g>
     <g id="text_6">
      <!-- 25 -->
      <g style="fill:#262626;" transform="translate(293.453155 315.633594)scale(0.11 -0.11)">
       <use xlink:href="#ArialMT-32"/>
       <use x="55.615234" xlink:href="#ArialMT-35"/>
      </g>
     </g>
    </g>
    <g id="xtick_7">
     <g id="line2d_7">
      <path clip-path="url(#p123cc4f641)" d="M 343.307595 298.26 
L 343.307595 27.65625 
" style="fill:none;stroke:#ffffff;stroke-linecap:round;"/>
     </g>
     <g id="text_7">
      <!-- 30 -->
      <g style="fill:#262626;" transform="translate(337.190563 315.633594)scale(0.11 -0.11)">
       <defs>
        <path d="M 269 1209 
L 831 1284 
Q 928 806 1161 595 
Q 1394 384 1728 384 
Q 2125 384 2398 659 
Q 2672 934 2672 1341 
Q 2672 1728 2419 1979 
Q 2166 2231 1775 2231 
Q 1616 2231 1378 2169 
L 1441 2663 
Q 1497 2656 1531 2656 
Q 1891 2656 2178 2843 
Q 2466 3031 2466 3422 
Q 2466 3731 2256 3934 
Q 2047 4138 1716 4138 
Q 1388 4138 1169 3931 
Q 950 3725 888 3313 
L 325 3413 
Q 428 3978 793 4289 
Q 1159 4600 1703 4600 
Q 2078 4600 2393 4439 
Q 2709 4278 2876 4000 
Q 3044 3722 3044 3409 
Q 3044 3113 2884 2869 
Q 2725 2625 2413 2481 
Q 2819 2388 3044 2092 
Q 3269 1797 3269 1353 
Q 3269 753 2831 336 
Q 2394 -81 1725 -81 
Q 1122 -81 723 278 
Q 325 638 269 1209 
z
" id="ArialMT-33" transform="scale(0.015625)"/>
       </defs>
       <use xlink:href="#ArialMT-33"/>
       <use x="55.615234" xlink:href="#ArialMT-30"/>
      </g>
     </g>
    </g>
    <g id="xtick_8">
     <g id="line2d_8">
      <path clip-path="url(#p123cc4f641)" d="M 387.045003 298.26 
L 387.045003 27.65625 
" style="fill:none;stroke:#ffffff;stroke-linecap:round;"/>
     </g>
     <g id="text_8">
      <!-- 35 -->
      <g style="fill:#262626;" transform="translate(380.927972 315.633594)scale(0.11 -0.11)">
       <use xlink:href="#ArialMT-33"/>
       <use x="55.615234" xlink:href="#ArialMT-35"/>
      </g>
     </g>
    </g>
    <g id="xtick_9">
     <g id="line2d_9">
      <path clip-path="url(#p123cc4f641)" d="M 430.782411 298.26 
L 430.782411 27.65625 
" style="fill:none;stroke:#ffffff;stroke-linecap:round;"/>
     </g>
     <g id="text_9">
      <!-- 40 -->
      <g style="fill:#262626;" transform="translate(424.66538 315.633594)scale(0.11 -0.11)">
       <defs>
        <path d="M 2069 0 
L 2069 1097 
L 81 1097 
L 81 1613 
L 2172 4581 
L 2631 4581 
L 2631 1613 
L 3250 1613 
L 3250 1097 
L 2631 1097 
L 2631 0 
L 2069 0 
z
M 2069 1613 
L 2069 3678 
L 634 1613 
L 2069 1613 
z
" id="ArialMT-34" transform="scale(0.015625)"/>
       </defs>
       <use xlink:href="#ArialMT-34"/>
       <use x="55.615234" xlink:href="#ArialMT-30"/>
      </g>
     </g>
    </g>
    <g id="text_10">
     <!-- Iteration -->
     <g style="fill:#262626;" transform="translate(238.528707 330.409219)scale(0.12 -0.12)">
      <defs>
       <path d="M 597 0 
L 597 4581 
L 1203 4581 
L 1203 0 
L 597 0 
z
" id="ArialMT-49" transform="scale(0.015625)"/>
       <path d="M 1650 503 
L 1731 6 
Q 1494 -44 1306 -44 
Q 1000 -44 831 53 
Q 663 150 594 308 
Q 525 466 525 972 
L 525 2881 
L 113 2881 
L 113 3319 
L 525 3319 
L 525 4141 
L 1084 4478 
L 1084 3319 
L 1650 3319 
L 1650 2881 
L 1084 2881 
L 1084 941 
Q 1084 700 1114 631 
Q 1144 563 1211 522 
Q 1278 481 1403 481 
Q 1497 481 1650 503 
z
" id="ArialMT-74" transform="scale(0.015625)"/>
       <path d="M 2694 1069 
L 3275 997 
Q 3138 488 2766 206 
Q 2394 -75 1816 -75 
Q 1088 -75 661 373 
Q 234 822 234 1631 
Q 234 2469 665 2931 
Q 1097 3394 1784 3394 
Q 2450 3394 2872 2941 
Q 3294 2488 3294 1666 
Q 3294 1616 3291 1516 
L 816 1516 
Q 847 969 1125 678 
Q 1403 388 1819 388 
Q 2128 388 2347 550 
Q 2566 713 2694 1069 
z
M 847 1978 
L 2700 1978 
Q 2663 2397 2488 2606 
Q 2219 2931 1791 2931 
Q 1403 2931 1139 2672 
Q 875 2413 847 1978 
z
" id="ArialMT-65" transform="scale(0.015625)"/>
       <path d="M 416 0 
L 416 3319 
L 922 3319 
L 922 2816 
Q 1116 3169 1280 3281 
Q 1444 3394 1641 3394 
Q 1925 3394 2219 3213 
L 2025 2691 
Q 1819 2813 1613 2813 
Q 1428 2813 1281 2702 
Q 1134 2591 1072 2394 
Q 978 2094 978 1738 
L 978 0 
L 416 0 
z
" id="ArialMT-72" transform="scale(0.015625)"/>
       <path d="M 2588 409 
Q 2275 144 1986 34 
Q 1697 -75 1366 -75 
Q 819 -75 525 192 
Q 231 459 231 875 
Q 231 1119 342 1320 
Q 453 1522 633 1644 
Q 813 1766 1038 1828 
Q 1203 1872 1538 1913 
Q 2219 1994 2541 2106 
Q 2544 2222 2544 2253 
Q 2544 2597 2384 2738 
Q 2169 2928 1744 2928 
Q 1347 2928 1158 2789 
Q 969 2650 878 2297 
L 328 2372 
Q 403 2725 575 2942 
Q 747 3159 1072 3276 
Q 1397 3394 1825 3394 
Q 2250 3394 2515 3294 
Q 2781 3194 2906 3042 
Q 3031 2891 3081 2659 
Q 3109 2516 3109 2141 
L 3109 1391 
Q 3109 606 3145 398 
Q 3181 191 3288 0 
L 2700 0 
Q 2613 175 2588 409 
z
M 2541 1666 
Q 2234 1541 1622 1453 
Q 1275 1403 1131 1340 
Q 988 1278 909 1158 
Q 831 1038 831 891 
Q 831 666 1001 516 
Q 1172 366 1500 366 
Q 1825 366 2078 508 
Q 2331 650 2450 897 
Q 2541 1088 2541 1459 
L 2541 1666 
z
" id="ArialMT-61" transform="scale(0.015625)"/>
       <path d="M 425 3934 
L 425 4581 
L 988 4581 
L 988 3934 
L 425 3934 
z
M 425 0 
L 425 3319 
L 988 3319 
L 988 0 
L 425 0 
z
" id="ArialMT-69" transform="scale(0.015625)"/>
       <path d="M 213 1659 
Q 213 2581 725 3025 
Q 1153 3394 1769 3394 
Q 2453 3394 2887 2945 
Q 3322 2497 3322 1706 
Q 3322 1066 3130 698 
Q 2938 331 2570 128 
Q 2203 -75 1769 -75 
Q 1072 -75 642 372 
Q 213 819 213 1659 
z
M 791 1659 
Q 791 1022 1069 705 
Q 1347 388 1769 388 
Q 2188 388 2466 706 
Q 2744 1025 2744 1678 
Q 2744 2294 2464 2611 
Q 2184 2928 1769 2928 
Q 1347 2928 1069 2612 
Q 791 2297 791 1659 
z
" id="ArialMT-6f" transform="scale(0.015625)"/>
       <path d="M 422 0 
L 422 3319 
L 928 3319 
L 928 2847 
Q 1294 3394 1984 3394 
Q 2284 3394 2536 3286 
Q 2788 3178 2913 3003 
Q 3038 2828 3088 2588 
Q 3119 2431 3119 2041 
L 3119 0 
L 2556 0 
L 2556 2019 
Q 2556 2363 2490 2533 
Q 2425 2703 2258 2804 
Q 2091 2906 1866 2906 
Q 1506 2906 1245 2678 
Q 984 2450 984 1813 
L 984 0 
L 422 0 
z
" id="ArialMT-6e" transform="scale(0.015625)"/>
      </defs>
      <use xlink:href="#ArialMT-49"/>
      <use x="27.783203" xlink:href="#ArialMT-74"/>
      <use x="55.566406" xlink:href="#ArialMT-65"/>
      <use x="111.181641" xlink:href="#ArialMT-72"/>
      <use x="144.482422" xlink:href="#ArialMT-61"/>
      <use x="200.097656" xlink:href="#ArialMT-74"/>
      <use x="227.880859" xlink:href="#ArialMT-69"/>
      <use x="250.097656" xlink:href="#ArialMT-6f"/>
      <use x="305.712891" xlink:href="#ArialMT-6e"/>
     </g>
    </g>
   </g>
   <g id="matplotlib.axis_2">
    <g id="ytick_1">
     <g id="line2d_10">
      <path clip-path="url(#p123cc4f641)" d="M 72.573039 131.195185 
L 447.84 131.195185 
" style="fill:none;stroke:#ffffff;stroke-linecap:round;"/>
     </g>
     <g id="text_11">
      <!-- $\mathdefault{10^{0}}$ -->
      <g style="fill:#262626;" transform="translate(45.803039 136.86706)scale(0.11 -0.11)">
       <use transform="translate(0 0.99375)" xlink:href="#ArialMT-31"/>
       <use transform="translate(55.615234 0.99375)" xlink:href="#ArialMT-30"/>
       <use transform="translate(112.972813 70.6875)scale(0.7)" xlink:href="#ArialMT-30"/>
      </g>
     </g>
    </g>
    <g id="ytick_2">
     <g id="text_12">
      <!-- $\mathdefault{3\times10^{-1}}$ -->
      <g style="fill:#262626;" transform="translate(27.113039 297.229116)scale(0.11 -0.11)">
       <defs>
        <path d="M 503 1278 
L 1488 2263 
L 506 3244 
L 888 3625 
L 1869 2644 
L 2847 3622 
L 3222 3244 
L 2247 2266 
L 3228 1284 
L 2847 903 
L 1866 1884 
L 881 900 
L 503 1278 
z
" id="ArialMT-d7" transform="scale(0.015625)"/>
        <path d="M 3381 1997 
L 356 1997 
L 356 2522 
L 3381 2522 
L 3381 1997 
z
" id="ArialMT-2212" transform="scale(0.015625)"/>
       </defs>
       <use transform="translate(0 0.99375)" xlink:href="#ArialMT-33"/>
       <use transform="translate(72.275391 0.99375)" xlink:href="#ArialMT-d7"/>
       <use transform="translate(147.333984 0.99375)" xlink:href="#ArialMT-31"/>
       <use transform="translate(202.949219 0.99375)" xlink:href="#ArialMT-30"/>
       <use transform="translate(260.306797 70.6875)scale(0.7)" xlink:href="#ArialMT-2212"/>
       <use transform="translate(301.185703 70.6875)scale(0.7)" xlink:href="#ArialMT-31"/>
      </g>
     </g>
    </g>
    <g id="ytick_3">
     <g id="text_13">
      <!-- $\mathdefault{4\times10^{-1}}$ -->
      <g style="fill:#262626;" transform="translate(27.113039 258.911565)scale(0.11 -0.11)">
       <use transform="translate(0 0.99375)" xlink:href="#ArialMT-34"/>
       <use transform="translate(72.275391 0.99375)" xlink:href="#ArialMT-d7"/>
       <use transform="translate(147.333984 0.99375)" xlink:href="#ArialMT-31"/>
       <use transform="translate(202.949219 0.99375)" xlink:href="#ArialMT-30"/>
       <use transform="translate(260.306797 70.6875)scale(0.7)" xlink:href="#ArialMT-2212"/>
       <use transform="translate(301.185703 70.6875)scale(0.7)" xlink:href="#ArialMT-31"/>
      </g>
     </g>
    </g>
    <g id="ytick_4"/>
    <g id="ytick_5">
     <g id="text_14">
      <!-- $\mathdefault{6\times10^{-1}}$ -->
      <g style="fill:#262626;" transform="translate(27.113039 204.906011)scale(0.11 -0.11)">
       <defs>
        <path d="M 3184 3459 
L 2625 3416 
Q 2550 3747 2413 3897 
Q 2184 4138 1850 4138 
Q 1581 4138 1378 3988 
Q 1113 3794 959 3422 
Q 806 3050 800 2363 
Q 1003 2672 1297 2822 
Q 1591 2972 1913 2972 
Q 2475 2972 2870 2558 
Q 3266 2144 3266 1488 
Q 3266 1056 3080 686 
Q 2894 316 2569 119 
Q 2244 -78 1831 -78 
Q 1128 -78 684 439 
Q 241 956 241 2144 
Q 241 3472 731 4075 
Q 1159 4600 1884 4600 
Q 2425 4600 2770 4297 
Q 3116 3994 3184 3459 
z
M 888 1484 
Q 888 1194 1011 928 
Q 1134 663 1356 523 
Q 1578 384 1822 384 
Q 2178 384 2434 671 
Q 2691 959 2691 1453 
Q 2691 1928 2437 2201 
Q 2184 2475 1800 2475 
Q 1419 2475 1153 2201 
Q 888 1928 888 1484 
z
" id="ArialMT-36" transform="scale(0.015625)"/>
       </defs>
       <use transform="translate(0 0.99375)" xlink:href="#ArialMT-36"/>
       <use transform="translate(72.275391 0.99375)" xlink:href="#ArialMT-d7"/>
       <use transform="translate(147.333984 0.99375)" xlink:href="#ArialMT-31"/>
       <use transform="translate(202.949219 0.99375)" xlink:href="#ArialMT-30"/>
       <use transform="translate(260.306797 70.6875)scale(0.7)" xlink:href="#ArialMT-2212"/>
       <use transform="translate(301.185703 70.6875)scale(0.7)" xlink:href="#ArialMT-31"/>
      </g>
     </g>
    </g>
    <g id="ytick_6"/>
    <g id="ytick_7"/>
    <g id="ytick_8"/>
    <g id="ytick_9">
     <g id="text_15">
      <!-- $\mathdefault{2\times10^{0}}$ -->
      <g style="fill:#262626;" transform="translate(31.623039 44.543956)scale(0.11 -0.11)">
       <use transform="translate(0 0.99375)" xlink:href="#ArialMT-32"/>
       <use transform="translate(72.275391 0.99375)" xlink:href="#ArialMT-d7"/>
       <use transform="translate(147.333984 0.99375)" xlink:href="#ArialMT-31"/>
       <use transform="translate(202.949219 0.99375)" xlink:href="#ArialMT-30"/>
       <use transform="translate(260.306797 70.6875)scale(0.7)" xlink:href="#ArialMT-30"/>
      </g>
     </g>
    </g>
    <g id="text_16">
     <!-- Runtime (s) -->
     <g style="fill:#262626;" transform="translate(20.587414 193.96125)rotate(-90)scale(0.12 -0.12)">
      <defs>
       <path d="M 503 0 
L 503 4581 
L 2534 4581 
Q 3147 4581 3465 4457 
Q 3784 4334 3975 4021 
Q 4166 3709 4166 3331 
Q 4166 2844 3850 2509 
Q 3534 2175 2875 2084 
Q 3116 1969 3241 1856 
Q 3506 1613 3744 1247 
L 4541 0 
L 3778 0 
L 3172 953 
Q 2906 1366 2734 1584 
Q 2563 1803 2427 1890 
Q 2291 1978 2150 2013 
Q 2047 2034 1813 2034 
L 1109 2034 
L 1109 0 
L 503 0 
z
M 1109 2559 
L 2413 2559 
Q 2828 2559 3062 2645 
Q 3297 2731 3419 2920 
Q 3541 3109 3541 3331 
Q 3541 3656 3305 3865 
Q 3069 4075 2559 4075 
L 1109 4075 
L 1109 2559 
z
" id="ArialMT-52" transform="scale(0.015625)"/>
       <path d="M 2597 0 
L 2597 488 
Q 2209 -75 1544 -75 
Q 1250 -75 995 37 
Q 741 150 617 320 
Q 494 491 444 738 
Q 409 903 409 1263 
L 409 3319 
L 972 3319 
L 972 1478 
Q 972 1038 1006 884 
Q 1059 663 1231 536 
Q 1403 409 1656 409 
Q 1909 409 2131 539 
Q 2353 669 2445 892 
Q 2538 1116 2538 1541 
L 2538 3319 
L 3100 3319 
L 3100 0 
L 2597 0 
z
" id="ArialMT-75" transform="scale(0.015625)"/>
       <path d="M 422 0 
L 422 3319 
L 925 3319 
L 925 2853 
Q 1081 3097 1340 3245 
Q 1600 3394 1931 3394 
Q 2300 3394 2536 3241 
Q 2772 3088 2869 2813 
Q 3263 3394 3894 3394 
Q 4388 3394 4653 3120 
Q 4919 2847 4919 2278 
L 4919 0 
L 4359 0 
L 4359 2091 
Q 4359 2428 4304 2576 
Q 4250 2725 4106 2815 
Q 3963 2906 3769 2906 
Q 3419 2906 3187 2673 
Q 2956 2441 2956 1928 
L 2956 0 
L 2394 0 
L 2394 2156 
Q 2394 2531 2256 2718 
Q 2119 2906 1806 2906 
Q 1569 2906 1367 2781 
Q 1166 2656 1075 2415 
Q 984 2175 984 1722 
L 984 0 
L 422 0 
z
" id="ArialMT-6d" transform="scale(0.015625)"/>
       <path id="ArialMT-20" transform="scale(0.015625)"/>
       <path d="M 1497 -1347 
Q 1031 -759 709 28 
Q 388 816 388 1659 
Q 388 2403 628 3084 
Q 909 3875 1497 4659 
L 1900 4659 
Q 1522 4009 1400 3731 
Q 1209 3300 1100 2831 
Q 966 2247 966 1656 
Q 966 153 1900 -1347 
L 1497 -1347 
z
" id="ArialMT-28" transform="scale(0.015625)"/>
       <path d="M 197 991 
L 753 1078 
Q 800 744 1014 566 
Q 1228 388 1613 388 
Q 2000 388 2187 545 
Q 2375 703 2375 916 
Q 2375 1106 2209 1216 
Q 2094 1291 1634 1406 
Q 1016 1563 777 1677 
Q 538 1791 414 1992 
Q 291 2194 291 2438 
Q 291 2659 392 2848 
Q 494 3038 669 3163 
Q 800 3259 1026 3326 
Q 1253 3394 1513 3394 
Q 1903 3394 2198 3281 
Q 2494 3169 2634 2976 
Q 2775 2784 2828 2463 
L 2278 2388 
Q 2241 2644 2061 2787 
Q 1881 2931 1553 2931 
Q 1166 2931 1000 2803 
Q 834 2675 834 2503 
Q 834 2394 903 2306 
Q 972 2216 1119 2156 
Q 1203 2125 1616 2013 
Q 2213 1853 2448 1751 
Q 2684 1650 2818 1456 
Q 2953 1263 2953 975 
Q 2953 694 2789 445 
Q 2625 197 2315 61 
Q 2006 -75 1616 -75 
Q 969 -75 630 194 
Q 291 463 197 991 
z
" id="ArialMT-73" transform="scale(0.015625)"/>
       <path d="M 791 -1347 
L 388 -1347 
Q 1322 153 1322 1656 
Q 1322 2244 1188 2822 
Q 1081 3291 891 3722 
Q 769 4003 388 4659 
L 791 4659 
Q 1378 3875 1659 3084 
Q 1900 2403 1900 1659 
Q 1900 816 1576 28 
Q 1253 -759 791 -1347 
z
" id="ArialMT-29" transform="scale(0.015625)"/>
      </defs>
      <use xlink:href="#ArialMT-52"/>
      <use x="72.216797" xlink:href="#ArialMT-75"/>
      <use x="127.832031" xlink:href="#ArialMT-6e"/>
      <use x="183.447266" xlink:href="#ArialMT-74"/>
      <use x="211.230469" xlink:href="#ArialMT-69"/>
      <use x="233.447266" xlink:href="#ArialMT-6d"/>
      <use x="316.748047" xlink:href="#ArialMT-65"/>
      <use x="372.363281" xlink:href="#ArialMT-20"/>
      <use x="400.146484" xlink:href="#ArialMT-28"/>
      <use x="433.447266" xlink:href="#ArialMT-73"/>
      <use x="483.447266" xlink:href="#ArialMT-29"/>
     </g>
    </g>
   </g>
   <g id="line2d_11">
    <path clip-path="url(#p123cc4f641)" d="M 89.630628 266.317526 
L 98.378109 284.932311 
L 107.125591 284.926819 
L 115.873073 283.803287 
L 124.620554 284.834341 
L 133.368036 285.124235 
L 142.115518 285.379577 
L 150.862999 285.054451 
L 159.610481 285.426634 
L 168.357962 284.701859 
L 177.105444 285.430874 
L 185.852926 285.544984 
L 194.600407 283.880801 
L 203.347889 285.787954 
L 212.09537 284.586783 
L 220.842852 285.219031 
L 229.590334 285.239354 
L 238.337815 284.372913 
L 247.085297 285.087435 
L 255.832779 284.657587 
L 264.58026 285.926203 
L 273.327742 284.88205 
L 282.075223 283.877029 
L 290.822705 285.95983 
L 299.570187 284.668127 
L 308.317668 285.031198 
L 317.06515 285.241894 
L 325.812631 283.909304 
L 334.560113 285.359657 
L 343.307595 284.666862 
L 352.055076 285.279584 
L 360.802558 285.662591 
L 369.55004 283.988138 
L 378.297521 285.136504 
L 387.045003 284.42761 
L 395.792484 285.753521 
L 404.539966 284.947942 
L 413.287448 284.43729 
L 422.034929 284.900632 
L 430.782411 284.693847 
" style="fill:none;stroke:#4c72b0;stroke-linecap:round;stroke-width:1.5;"/>
   </g>
   <g id="line2d_12">
    <path clip-path="url(#p123cc4f641)" d="M 89.630628 278.587505 
L 98.378109 277.961037 
L 107.125591 277.858848 
L 115.873073 277.876475 
L 124.620554 278.292589 
L 133.368036 276.377725 
L 142.115518 276.923162 
L 150.862999 277.467647 
L 159.610481 277.027423 
L 168.357962 276.552942 
L 177.105444 276.615236 
L 185.852926 277.056487 
L 194.600407 276.689073 
L 203.347889 276.357126 
L 212.09537 277.381402 
L 220.842852 276.589839 
L 229.590334 276.924356 
L 238.337815 277.252138 
L 247.085297 276.445485 
L 255.832779 276.29337 
L 264.58026 277.33431 
L 273.327742 276.768514 
L 282.075223 276.473234 
L 290.822705 277.0322 
L 299.570187 276.838064 
L 308.317668 277.467248 
L 317.06515 277.584727 
L 325.812631 277.27487 
L 334.560113 277.279656 
L 343.307595 277.970659 
L 352.055076 278.511802 
L 360.802558 277.951015 
L 369.55004 278.880652 
L 378.297521 278.506167 
L 387.045003 278.64431 
L 395.792484 278.176894 
L 404.539966 277.900515 
L 413.287448 276.670412 
L 422.034929 279.114585 
L 430.782411 278.119084 
" style="fill:none;stroke:#dd8452;stroke-linecap:round;stroke-width:1.5;"/>
   </g>
   <g id="line2d_13">
    <path clip-path="url(#p123cc4f641)" d="M 89.630628 147.923843 
L 98.378109 147.729775 
L 107.125591 148.351004 
L 115.873073 147.719822 
L 124.620554 147.648067 
L 133.368036 147.684241 
L 142.115518 148.199889 
L 150.862999 147.974293 
L 159.610481 148.140731 
L 168.357962 147.572735 
L 177.105444 147.639929 
L 185.852926 147.57153 
L 194.600407 147.232164 
L 203.347889 147.488113 
L 212.09537 147.351055 
L 220.842852 147.220897 
L 229.590334 147.122537 
L 238.337815 147.088166 
L 247.085297 147.470201 
L 255.832779 147.674594 
L 264.58026 147.530116 
L 273.327742 147.863751 
L 282.075223 147.778341 
L 290.822705 148.513212 
L 299.570187 147.866166 
L 308.317668 147.854544 
L 317.06515 147.912215 
L 325.812631 147.526502 
L 334.560113 148.103223 
L 343.307595 147.839903 
L 352.055076 147.818776 
L 360.802558 147.722536 
L 369.55004 147.746816 
L 378.297521 147.689819 
L 387.045003 147.573789 
L 395.792484 147.225404 
L 404.539966 147.354212 
L 413.287448 147.15001 
L 422.034929 147.350002 
L 430.782411 147.251847 
" style="fill:none;stroke:#55a868;stroke-linecap:round;stroke-width:1.5;"/>
   </g>
   <g id="line2d_14">
    <path clip-path="url(#p123cc4f641)" d="M 89.630628 266.479253 
L 98.378109 274.067668 
L 107.125591 273.701796 
L 115.873073 273.518266 
L 124.620554 273.151578 
L 133.368036 273.74296 
L 142.115518 272.754279 
L 150.862999 273.476397 
L 159.610481 273.233966 
L 168.357962 273.116395 
L 177.105444 272.609014 
L 185.852926 273.125286 
L 194.600407 273.016309 
L 203.347889 272.120057 
L 212.09537 272.802478 
L 220.842852 271.123501 
L 229.590334 272.380073 
L 238.337815 272.538943 
L 247.085297 272.903561 
L 255.832779 273.04567 
L 264.58026 273.336538 
L 273.327742 272.878476 
L 282.075223 273.139591 
L 290.822705 272.954131 
L 299.570187 272.885036 
L 308.317668 273.240543 
L 317.06515 272.637515 
L 325.812631 272.96417 
L 334.560113 273.167432 
L 343.307595 273.316017 
L 352.055076 272.407756 
L 360.802558 272.712263 
L 369.55004 272.537404 
L 378.297521 272.698389 
L 387.045003 273.099386 
L 395.792484 273.277694 
L 404.539966 272.623649 
L 413.287448 272.190292 
L 422.034929 272.310506 
L 430.782411 272.671416 
" style="fill:none;stroke:#c44e52;stroke-linecap:round;stroke-width:1.5;"/>
   </g>
   <g id="line2d_15">
    <path clip-path="url(#p123cc4f641)" d="M 89.630628 271.703632 
L 98.378109 277.806781 
L 107.125591 272.549336 
L 115.873073 276.376537 
L 124.620554 277.319547 
L 133.368036 269.220418 
L 142.115518 267.07123 
L 150.862999 39.95642 
L 159.610481 270.52579 
L 168.357962 277.809985 
L 177.105444 276.011782 
L 185.852926 276.687882 
L 194.600407 278.234327 
L 203.347889 277.872068 
L 212.09537 276.960161 
L 220.842852 277.685106 
L 229.590334 277.489217 
L 238.337815 277.030209 
L 247.085297 278.233524 
L 255.832779 278.727345 
L 264.58026 272.968418 
L 273.327742 46.093962 
L 282.075223 278.276113 
L 290.822705 277.742327 
L 299.570187 278.342032 
L 308.317668 278.331579 
L 317.06515 278.305852 
L 325.812631 278.319117 
L 334.560113 277.416133 
L 343.307595 278.451433 
L 352.055076 277.973465 
L 360.802558 276.792356 
L 369.55004 277.947006 
L 378.297521 278.427695 
L 387.045003 276.972895 
L 395.792484 277.603517 
L 404.539966 278.569381 
L 413.287448 276.983241 
L 422.034929 278.090991 
L 430.782411 277.869664 
" style="fill:none;stroke:#8172b3;stroke-linecap:round;stroke-width:1.5;"/>
   </g>
   <g id="line2d_16">
    <path clip-path="url(#p123cc4f641)" d="M 89.630628 224.692897 
L 98.378109 222.176612 
L 107.125591 223.868517 
L 115.873073 222.938295 
L 124.620554 223.673684 
L 133.368036 223.522019 
L 142.115518 223.13046 
L 150.862999 223.32849 
L 159.610481 218.69245 
L 168.357962 219.288526 
L 177.105444 219.808243 
L 185.852926 220.48015 
L 194.600407 217.559686 
L 203.347889 220.676883 
L 212.09537 219.498754 
L 220.842852 220.366672 
L 229.590334 219.034836 
L 238.337815 222.212219 
L 247.085297 218.03408 
L 255.832779 222.025588 
L 264.58026 221.133221 
L 273.327742 219.860845 
L 282.075223 219.36132 
L 290.822705 221.024937 
L 299.570187 219.381461 
L 308.317668 219.968704 
L 317.06515 218.598454 
L 325.812631 220.842833 
L 334.560113 218.351454 
L 343.307595 220.489784 
L 352.055076 219.816015 
L 360.802558 220.15611 
L 369.55004 219.034321 
L 378.297521 221.317819 
L 387.045003 219.525121 
L 395.792484 220.452813 
L 404.539966 219.445262 
L 413.287448 221.028075 
L 422.034929 217.62313 
L 430.782411 219.324144 
" style="fill:none;stroke:#937860;stroke-linecap:round;stroke-width:1.5;"/>
   </g>
   <g id="line2d_17">
    <path clip-path="url(#p123cc4f641)" d="M 89.630628 267.56273 
L 98.378109 276.534696 
L 107.125591 272.685673 
L 115.873073 271.06182 
L 124.620554 275.198839 
L 133.368036 270.664245 
L 142.115518 275.703587 
L 150.862999 271.684891 
L 159.610481 272.522394 
L 168.357962 271.150162 
L 177.105444 267.96676 
L 185.852926 267.136634 
L 194.600407 267.521208 
L 203.347889 270.807022 
L 212.09537 273.009742 
L 220.842852 276.348017 
L 229.590334 276.653737 
L 238.337815 276.712106 
L 247.085297 276.978466 
L 255.832779 276.621586 
L 264.58026 276.001115 
L 273.327742 277.015082 
L 282.075223 276.365445 
L 290.822705 276.857544 
L 299.570187 278.199784 
L 308.317668 275.703587 
L 317.06515 276.871858 
L 325.812631 276.038254 
L 334.560113 275.246753 
L 343.307595 276.161202 
L 352.055076 278.259638 
L 360.802558 275.322194 
L 369.55004 277.571135 
L 378.297521 277.961438 
L 387.045003 275.580273 
L 395.792484 277.279257 
L 404.539966 276.855159 
L 413.287448 275.854636 
L 422.034929 276.346828 
L 430.782411 268.760931 
" style="fill:none;stroke:#da8bc3;stroke-linecap:round;stroke-width:1.5;"/>
   </g>
   <g id="line2d_18">
    <path clip-path="url(#p123cc4f641)" d="M 89.630628 265.862071 
L 98.378109 276.631111 
L 107.125591 273.027512 
L 115.873073 275.48068 
L 124.620554 275.607841 
L 133.368036 276.059594 
L 142.115518 275.785992 
L 150.862999 276.13866 
L 159.610481 273.928355 
L 168.357962 278.853205 
L 177.105444 278.643504 
L 185.852926 278.182114 
L 194.600407 278.972722 
L 203.347889 271.33961 
L 212.09537 278.986861 
L 220.842852 278.418442 
L 229.590334 277.646705 
L 238.337815 278.719281 
L 247.085297 277.391381 
L 255.832779 278.767268 
L 264.58026 278.80317 
L 273.327742 278.737425 
L 282.075223 279.060408 
L 290.822705 276.693044 
L 299.570187 278.95818 
L 308.317668 272.031453 
L 317.06515 269.382328 
L 325.812631 267.966388 
L 334.560113 277.695108 
L 343.307595 278.675744 
L 352.055076 278.052473 
L 360.802558 279.182538 
L 369.55004 278.205005 
L 378.297521 279.01474 
L 387.045003 279.208435 
L 395.792484 277.973465 
L 404.539966 279.276841 
L 413.287448 276.926742 
L 422.034929 279.191035 
L 430.782411 277.42851 
" style="fill:none;stroke:#8c8c8c;stroke-linecap:round;stroke-width:1.5;"/>
   </g>
   <g id="line2d_19">
    <path clip-path="url(#p123cc4f641)" d="M 89.630628 215.151431 
L 98.378109 207.803531 
L 107.125591 207.536045 
L 115.873073 207.313903 
L 124.620554 207.455974 
L 133.368036 207.21228 
L 142.115518 208.329187 
L 150.862999 208.514943 
L 159.610481 207.724956 
L 168.357962 206.498162 
L 177.105444 205.392954 
L 185.852926 206.890241 
L 194.600407 205.921067 
L 203.347889 206.30349 
L 212.09537 206.461361 
L 220.842852 207.702008 
L 229.590334 204.975349 
L 238.337815 205.798112 
L 247.085297 208.029575 
L 255.832779 208.198766 
L 264.58026 207.485729 
L 273.327742 208.007996 
L 282.075223 207.717148 
L 290.822705 206.84346 
L 299.570187 206.313088 
L 308.317668 206.721059 
L 317.06515 206.854977 
L 325.812631 207.126044 
L 334.560113 206.281721 
L 343.307595 206.638896 
L 352.055076 205.907063 
L 360.802558 205.667349 
L 369.55004 206.89706 
L 378.297521 206.047641 
L 387.045003 206.583757 
L 395.792484 206.444019 
L 404.539966 208.041432 
L 413.287448 208.227025 
L 422.034929 208.439991 
L 430.782411 208.246026 
" style="fill:none;stroke:#ccb974;stroke-linecap:round;stroke-width:1.5;"/>
   </g>
   <g id="line2d_20">
    <path clip-path="url(#p123cc4f641)" d="M 89.630628 241.539424 
L 98.378109 235.933627 
L 107.125591 239.68288 
L 115.873073 237.287928 
L 124.620554 240.126941 
L 133.368036 238.567231 
L 142.115518 239.709651 
L 150.862999 238.019575 
L 159.610481 239.072533 
L 168.357962 237.980076 
L 177.105444 238.297289 
L 185.852926 239.121941 
L 194.600407 235.921931 
L 203.347889 236.005873 
L 212.09537 234.834317 
L 220.842852 235.169991 
L 229.590334 235.984809 
L 238.337815 235.39405 
L 247.085297 234.845048 
L 255.832779 234.233903 
L 264.58026 234.952113 
L 273.327742 234.441355 
L 282.075223 235.247351 
L 290.822705 231.158031 
L 299.570187 228.992171 
L 308.317668 230.775188 
L 317.06515 230.151591 
L 325.812631 235.125224 
L 334.560113 236.126467 
L 343.307595 234.652605 
L 352.055076 234.329499 
L 360.802558 236.071425 
L 369.55004 234.371687 
L 378.297521 234.375155 
L 387.045003 235.897665 
L 395.792484 234.658108 
L 404.539966 235.975449 
L 413.287448 234.255558 
L 422.034929 235.074952 
L 430.782411 232.814139 
" style="fill:none;stroke:#64b5cd;stroke-linecap:round;stroke-width:1.5;"/>
   </g>
   <g id="patch_3">
    <path d="M 72.573039 298.26 
L 72.573039 27.65625 
" style="fill:none;stroke:#ffffff;stroke-linecap:square;stroke-linejoin:miter;stroke-width:1.25;"/>
   </g>
   <g id="patch_4">
    <path d="M 447.84 298.26 
L 447.84 27.65625 
" style="fill:none;stroke:#ffffff;stroke-linecap:square;stroke-linejoin:miter;stroke-width:1.25;"/>
   </g>
   <g id="patch_5">
    <path d="M 72.573039 298.26 
L 447.84 298.26 
" style="fill:none;stroke:#ffffff;stroke-linecap:square;stroke-linejoin:miter;stroke-width:1.25;"/>
   </g>
   <g id="patch_6">
    <path d="M 72.573039 27.65625 
L 447.84 27.65625 
" style="fill:none;stroke:#ffffff;stroke-linecap:square;stroke-linejoin:miter;stroke-width:1.25;"/>
   </g>
   <g id="text_17">
    <!-- Runtime across repetition number (4096 vector size, 4 nodes) -->
    <g style="fill:#262626;" transform="translate(96.138394 21.65625)scale(0.12 -0.12)">
     <defs>
      <path d="M 2588 1216 
L 3141 1144 
Q 3050 572 2676 248 
Q 2303 -75 1759 -75 
Q 1078 -75 664 370 
Q 250 816 250 1647 
Q 250 2184 428 2587 
Q 606 2991 970 3192 
Q 1334 3394 1763 3394 
Q 2303 3394 2647 3120 
Q 2991 2847 3088 2344 
L 2541 2259 
Q 2463 2594 2264 2762 
Q 2066 2931 1784 2931 
Q 1359 2931 1093 2626 
Q 828 2322 828 1663 
Q 828 994 1084 691 
Q 1341 388 1753 388 
Q 2084 388 2306 591 
Q 2528 794 2588 1216 
z
" id="ArialMT-63" transform="scale(0.015625)"/>
      <path d="M 422 -1272 
L 422 3319 
L 934 3319 
L 934 2888 
Q 1116 3141 1344 3267 
Q 1572 3394 1897 3394 
Q 2322 3394 2647 3175 
Q 2972 2956 3137 2557 
Q 3303 2159 3303 1684 
Q 3303 1175 3120 767 
Q 2938 359 2589 142 
Q 2241 -75 1856 -75 
Q 1575 -75 1351 44 
Q 1128 163 984 344 
L 984 -1272 
L 422 -1272 
z
M 931 1641 
Q 931 1000 1190 694 
Q 1450 388 1819 388 
Q 2194 388 2461 705 
Q 2728 1022 2728 1688 
Q 2728 2322 2467 2637 
Q 2206 2953 1844 2953 
Q 1484 2953 1207 2617 
Q 931 2281 931 1641 
z
" id="ArialMT-70" transform="scale(0.015625)"/>
      <path d="M 941 0 
L 419 0 
L 419 4581 
L 981 4581 
L 981 2947 
Q 1338 3394 1891 3394 
Q 2197 3394 2470 3270 
Q 2744 3147 2920 2923 
Q 3097 2700 3197 2384 
Q 3297 2069 3297 1709 
Q 3297 856 2875 390 
Q 2453 -75 1863 -75 
Q 1275 -75 941 416 
L 941 0 
z
M 934 1684 
Q 934 1088 1097 822 
Q 1363 388 1816 388 
Q 2184 388 2453 708 
Q 2722 1028 2722 1663 
Q 2722 2313 2464 2622 
Q 2206 2931 1841 2931 
Q 1472 2931 1203 2611 
Q 934 2291 934 1684 
z
" id="ArialMT-62" transform="scale(0.015625)"/>
      <path d="M 350 1059 
L 891 1109 
Q 959 728 1153 556 
Q 1347 384 1650 384 
Q 1909 384 2104 503 
Q 2300 622 2425 820 
Q 2550 1019 2634 1356 
Q 2719 1694 2719 2044 
Q 2719 2081 2716 2156 
Q 2547 1888 2255 1720 
Q 1963 1553 1622 1553 
Q 1053 1553 659 1965 
Q 266 2378 266 3053 
Q 266 3750 677 4175 
Q 1088 4600 1706 4600 
Q 2153 4600 2523 4359 
Q 2894 4119 3086 3673 
Q 3278 3228 3278 2384 
Q 3278 1506 3087 986 
Q 2897 466 2520 194 
Q 2144 -78 1638 -78 
Q 1100 -78 759 220 
Q 419 519 350 1059 
z
M 2653 3081 
Q 2653 3566 2395 3850 
Q 2138 4134 1775 4134 
Q 1400 4134 1122 3828 
Q 844 3522 844 3034 
Q 844 2597 1108 2323 
Q 1372 2050 1759 2050 
Q 2150 2050 2401 2323 
Q 2653 2597 2653 3081 
z
" id="ArialMT-39" transform="scale(0.015625)"/>
      <path d="M 1344 0 
L 81 3319 
L 675 3319 
L 1388 1331 
Q 1503 1009 1600 663 
Q 1675 925 1809 1294 
L 2547 3319 
L 3125 3319 
L 1869 0 
L 1344 0 
z
" id="ArialMT-76" transform="scale(0.015625)"/>
      <path d="M 125 0 
L 125 456 
L 2238 2881 
Q 1878 2863 1603 2863 
L 250 2863 
L 250 3319 
L 2963 3319 
L 2963 2947 
L 1166 841 
L 819 456 
Q 1197 484 1528 484 
L 3063 484 
L 3063 0 
L 125 0 
z
" id="ArialMT-7a" transform="scale(0.015625)"/>
      <path d="M 569 0 
L 569 641 
L 1209 641 
L 1209 0 
Q 1209 -353 1084 -570 
Q 959 -788 688 -906 
L 531 -666 
Q 709 -588 793 -436 
Q 878 -284 888 0 
L 569 0 
z
" id="ArialMT-2c" transform="scale(0.015625)"/>
      <path d="M 2575 0 
L 2575 419 
Q 2259 -75 1647 -75 
Q 1250 -75 917 144 
Q 584 363 401 755 
Q 219 1147 219 1656 
Q 219 2153 384 2558 
Q 550 2963 881 3178 
Q 1213 3394 1622 3394 
Q 1922 3394 2156 3267 
Q 2391 3141 2538 2938 
L 2538 4581 
L 3097 4581 
L 3097 0 
L 2575 0 
z
M 797 1656 
Q 797 1019 1065 703 
Q 1334 388 1700 388 
Q 2069 388 2326 689 
Q 2584 991 2584 1609 
Q 2584 2291 2321 2609 
Q 2059 2928 1675 2928 
Q 1300 2928 1048 2622 
Q 797 2316 797 1656 
z
" id="ArialMT-64" transform="scale(0.015625)"/>
     </defs>
     <use xlink:href="#ArialMT-52"/>
     <use x="72.216797" xlink:href="#ArialMT-75"/>
     <use x="127.832031" xlink:href="#ArialMT-6e"/>
     <use x="183.447266" xlink:href="#ArialMT-74"/>
     <use x="211.230469" xlink:href="#ArialMT-69"/>
     <use x="233.447266" xlink:href="#ArialMT-6d"/>
     <use x="316.748047" xlink:href="#ArialMT-65"/>
     <use x="372.363281" xlink:href="#ArialMT-20"/>
     <use x="400.146484" xlink:href="#ArialMT-61"/>
     <use x="455.761719" xlink:href="#ArialMT-63"/>
     <use x="505.761719" xlink:href="#ArialMT-72"/>
     <use x="539.0625" xlink:href="#ArialMT-6f"/>
     <use x="594.677734" xlink:href="#ArialMT-73"/>
     <use x="644.677734" xlink:href="#ArialMT-73"/>
     <use x="694.677734" xlink:href="#ArialMT-20"/>
     <use x="722.460938" xlink:href="#ArialMT-72"/>
     <use x="755.761719" xlink:href="#ArialMT-65"/>
     <use x="811.376953" xlink:href="#ArialMT-70"/>
     <use x="866.992188" xlink:href="#ArialMT-65"/>
     <use x="922.607422" xlink:href="#ArialMT-74"/>
     <use x="950.390625" xlink:href="#ArialMT-69"/>
     <use x="972.607422" xlink:href="#ArialMT-74"/>
     <use x="1000.390625" xlink:href="#ArialMT-69"/>
     <use x="1022.607422" xlink:href="#ArialMT-6f"/>
     <use x="1078.222656" xlink:href="#ArialMT-6e"/>
     <use x="1133.837891" xlink:href="#ArialMT-20"/>
     <use x="1161.621094" xlink:href="#ArialMT-6e"/>
     <use x="1217.236328" xlink:href="#ArialMT-75"/>
     <use x="1272.851562" xlink:href="#ArialMT-6d"/>
     <use x="1356.152344" xlink:href="#ArialMT-62"/>
     <use x="1411.767578" xlink:href="#ArialMT-65"/>
     <use x="1467.382812" xlink:href="#ArialMT-72"/>
     <use x="1500.683594" xlink:href="#ArialMT-20"/>
     <use x="1528.466797" xlink:href="#ArialMT-28"/>
     <use x="1561.767578" xlink:href="#ArialMT-34"/>
     <use x="1617.382812" xlink:href="#ArialMT-30"/>
     <use x="1672.998047" xlink:href="#ArialMT-39"/>
     <use x="1728.613281" xlink:href="#ArialMT-36"/>
     <use x="1784.228516" xlink:href="#ArialMT-20"/>
     <use x="1812.011719" xlink:href="#ArialMT-76"/>
     <use x="1862.011719" xlink:href="#ArialMT-65"/>
     <use x="1917.626953" xlink:href="#ArialMT-63"/>
     <use x="1967.626953" xlink:href="#ArialMT-74"/>
     <use x="1995.410156" xlink:href="#ArialMT-6f"/>
     <use x="2051.025391" xlink:href="#ArialMT-72"/>
     <use x="2084.326172" xlink:href="#ArialMT-20"/>
     <use x="2112.109375" xlink:href="#ArialMT-73"/>
     <use x="2162.109375" xlink:href="#ArialMT-69"/>
     <use x="2184.326172" xlink:href="#ArialMT-7a"/>
     <use x="2234.326172" xlink:href="#ArialMT-65"/>
     <use x="2289.941406" xlink:href="#ArialMT-2c"/>
     <use x="2317.724609" xlink:href="#ArialMT-20"/>
     <use x="2345.507812" xlink:href="#ArialMT-34"/>
     <use x="2401.123047" xlink:href="#ArialMT-20"/>
     <use x="2428.90625" xlink:href="#ArialMT-6e"/>
     <use x="2484.521484" xlink:href="#ArialMT-6f"/>
     <use x="2540.136719" xlink:href="#ArialMT-64"/>
     <use x="2595.751953" xlink:href="#ArialMT-65"/>
     <use x="2651.367188" xlink:href="#ArialMT-73"/>
     <use x="2701.367188" xlink:href="#ArialMT-29"/>
    </g>
   </g>
   <g id="legend_1">
    <g id="patch_7">
     <path d="M 231.299844 209.436562 
L 440.14 209.436562 
Q 442.34 209.436562 442.34 207.236562 
L 442.34 35.35625 
Q 442.34 33.15625 440.14 33.15625 
L 231.299844 33.15625 
Q 229.099844 33.15625 229.099844 35.35625 
L 229.099844 207.236562 
Q 229.099844 209.436562 231.299844 209.436562 
z
" style="fill:#eaeaf2;opacity:0.8;stroke:#cccccc;stroke-linejoin:miter;"/>
    </g>
    <g id="text_18">
     <!-- implementation -->
     <g style="fill:#262626;" transform="translate(295.035234 46.145625)scale(0.12 -0.12)">
      <defs>
       <path d="M 409 0 
L 409 4581 
L 972 4581 
L 972 0 
L 409 0 
z
" id="ArialMT-6c" transform="scale(0.015625)"/>
      </defs>
      <use xlink:href="#ArialMT-69"/>
      <use x="22.216797" xlink:href="#ArialMT-6d"/>
      <use x="105.517578" xlink:href="#ArialMT-70"/>
      <use x="161.132812" xlink:href="#ArialMT-6c"/>
      <use x="183.349609" xlink:href="#ArialMT-65"/>
      <use x="238.964844" xlink:href="#ArialMT-6d"/>
      <use x="322.265625" xlink:href="#ArialMT-65"/>
      <use x="377.880859" xlink:href="#ArialMT-6e"/>
      <use x="433.496094" xlink:href="#ArialMT-74"/>
      <use x="461.279297" xlink:href="#ArialMT-61"/>
      <use x="516.894531" xlink:href="#ArialMT-74"/>
      <use x="544.677734" xlink:href="#ArialMT-69"/>
      <use x="566.894531" xlink:href="#ArialMT-6f"/>
      <use x="622.509766" xlink:href="#ArialMT-6e"/>
     </g>
    </g>
    <g id="line2d_21">
     <path d="M 233.499844 58.054219 
L 255.499844 58.054219 
" style="fill:none;stroke:#4c72b0;stroke-linecap:round;stroke-width:1.5;"/>
    </g>
    <g id="line2d_22"/>
    <g id="text_19">
     <!-- allreduce -->
     <g style="fill:#262626;" transform="translate(264.299844 61.904219)scale(0.11 -0.11)">
      <use xlink:href="#ArialMT-61"/>
      <use x="55.615234" xlink:href="#ArialMT-6c"/>
      <use x="77.832031" xlink:href="#ArialMT-6c"/>
      <use x="100.048828" xlink:href="#ArialMT-72"/>
      <use x="133.349609" xlink:href="#ArialMT-65"/>
      <use x="188.964844" xlink:href="#ArialMT-64"/>
      <use x="244.580078" xlink:href="#ArialMT-75"/>
      <use x="300.195312" xlink:href="#ArialMT-63"/>
      <use x="350.195312" xlink:href="#ArialMT-65"/>
     </g>
    </g>
    <g id="line2d_23">
     <path d="M 233.499844 73.748125 
L 255.499844 73.748125 
" style="fill:none;stroke:#dd8452;stroke-linecap:round;stroke-width:1.5;"/>
    </g>
    <g id="line2d_24"/>
    <g id="text_20">
     <!-- allreduce-butterfly -->
     <g style="fill:#262626;" transform="translate(264.299844 77.598125)scale(0.11 -0.11)">
      <defs>
       <path d="M 203 1375 
L 203 1941 
L 1931 1941 
L 1931 1375 
L 203 1375 
z
" id="ArialMT-2d" transform="scale(0.015625)"/>
       <path d="M 556 0 
L 556 2881 
L 59 2881 
L 59 3319 
L 556 3319 
L 556 3672 
Q 556 4006 616 4169 
Q 697 4388 901 4523 
Q 1106 4659 1475 4659 
Q 1713 4659 2000 4603 
L 1916 4113 
Q 1741 4144 1584 4144 
Q 1328 4144 1222 4034 
Q 1116 3925 1116 3625 
L 1116 3319 
L 1763 3319 
L 1763 2881 
L 1116 2881 
L 1116 0 
L 556 0 
z
" id="ArialMT-66" transform="scale(0.015625)"/>
       <path d="M 397 -1278 
L 334 -750 
Q 519 -800 656 -800 
Q 844 -800 956 -737 
Q 1069 -675 1141 -563 
Q 1194 -478 1313 -144 
Q 1328 -97 1363 -6 
L 103 3319 
L 709 3319 
L 1400 1397 
Q 1534 1031 1641 628 
Q 1738 1016 1872 1384 
L 2581 3319 
L 3144 3319 
L 1881 -56 
Q 1678 -603 1566 -809 
Q 1416 -1088 1222 -1217 
Q 1028 -1347 759 -1347 
Q 597 -1347 397 -1278 
z
" id="ArialMT-79" transform="scale(0.015625)"/>
      </defs>
      <use xlink:href="#ArialMT-61"/>
      <use x="55.615234" xlink:href="#ArialMT-6c"/>
      <use x="77.832031" xlink:href="#ArialMT-6c"/>
      <use x="100.048828" xlink:href="#ArialMT-72"/>
      <use x="133.349609" xlink:href="#ArialMT-65"/>
      <use x="188.964844" xlink:href="#ArialMT-64"/>
      <use x="244.580078" xlink:href="#ArialMT-75"/>
      <use x="300.195312" xlink:href="#ArialMT-63"/>
      <use x="350.195312" xlink:href="#ArialMT-65"/>
      <use x="405.810547" xlink:href="#ArialMT-2d"/>
      <use x="439.111328" xlink:href="#ArialMT-62"/>
      <use x="494.726562" xlink:href="#ArialMT-75"/>
      <use x="550.341797" xlink:href="#ArialMT-74"/>
      <use x="578.125" xlink:href="#ArialMT-74"/>
      <use x="605.908203" xlink:href="#ArialMT-65"/>
      <use x="661.523438" xlink:href="#ArialMT-72"/>
      <use x="694.824219" xlink:href="#ArialMT-66"/>
      <use x="722.607422" xlink:href="#ArialMT-6c"/>
      <use x="744.824219" xlink:href="#ArialMT-79"/>
     </g>
    </g>
    <g id="line2d_25">
     <path d="M 233.499844 89.436875 
L 255.499844 89.436875 
" style="fill:none;stroke:#55a868;stroke-linecap:round;stroke-width:1.5;"/>
    </g>
    <g id="line2d_26"/>
    <g id="text_21">
     <!-- allreduce-native-basic_linear -->
     <g style="fill:#262626;" transform="translate(264.299844 93.286875)scale(0.11 -0.11)">
      <defs>
       <path d="M -97 -1272 
L -97 -866 
L 3631 -866 
L 3631 -1272 
L -97 -1272 
z
" id="ArialMT-5f" transform="scale(0.015625)"/>
      </defs>
      <use xlink:href="#ArialMT-61"/>
      <use x="55.615234" xlink:href="#ArialMT-6c"/>
      <use x="77.832031" xlink:href="#ArialMT-6c"/>
      <use x="100.048828" xlink:href="#ArialMT-72"/>
      <use x="133.349609" xlink:href="#ArialMT-65"/>
      <use x="188.964844" xlink:href="#ArialMT-64"/>
      <use x="244.580078" xlink:href="#ArialMT-75"/>
      <use x="300.195312" xlink:href="#ArialMT-63"/>
      <use x="350.195312" xlink:href="#ArialMT-65"/>
      <use x="405.810547" xlink:href="#ArialMT-2d"/>
      <use x="439.111328" xlink:href="#ArialMT-6e"/>
      <use x="494.726562" xlink:href="#ArialMT-61"/>
      <use x="550.341797" xlink:href="#ArialMT-74"/>
      <use x="578.125" xlink:href="#ArialMT-69"/>
      <use x="600.341797" xlink:href="#ArialMT-76"/>
      <use x="650.341797" xlink:href="#ArialMT-65"/>
      <use x="705.957031" xlink:href="#ArialMT-2d"/>
      <use x="739.257812" xlink:href="#ArialMT-62"/>
      <use x="794.873047" xlink:href="#ArialMT-61"/>
      <use x="850.488281" xlink:href="#ArialMT-73"/>
      <use x="900.488281" xlink:href="#ArialMT-69"/>
      <use x="922.705078" xlink:href="#ArialMT-63"/>
      <use x="972.705078" xlink:href="#ArialMT-5f"/>
      <use x="1028.320312" xlink:href="#ArialMT-6c"/>
      <use x="1050.537109" xlink:href="#ArialMT-69"/>
      <use x="1072.753906" xlink:href="#ArialMT-6e"/>
      <use x="1128.369141" xlink:href="#ArialMT-65"/>
      <use x="1183.984375" xlink:href="#ArialMT-61"/>
      <use x="1239.599609" xlink:href="#ArialMT-72"/>
     </g>
    </g>
    <g id="line2d_27">
     <path d="M 233.499844 104.996719 
L 255.499844 104.996719 
" style="fill:none;stroke:#c44e52;stroke-linecap:round;stroke-width:1.5;"/>
    </g>
    <g id="line2d_28"/>
    <g id="text_22">
     <!-- allreduce-native-nonoverlapping -->
     <g style="fill:#262626;" transform="translate(264.299844 108.846719)scale(0.11 -0.11)">
      <defs>
       <path d="M 319 -275 
L 866 -356 
Q 900 -609 1056 -725 
Q 1266 -881 1628 -881 
Q 2019 -881 2231 -725 
Q 2444 -569 2519 -288 
Q 2563 -116 2559 434 
Q 2191 0 1641 0 
Q 956 0 581 494 
Q 206 988 206 1678 
Q 206 2153 378 2554 
Q 550 2956 876 3175 
Q 1203 3394 1644 3394 
Q 2231 3394 2613 2919 
L 2613 3319 
L 3131 3319 
L 3131 450 
Q 3131 -325 2973 -648 
Q 2816 -972 2473 -1159 
Q 2131 -1347 1631 -1347 
Q 1038 -1347 672 -1080 
Q 306 -813 319 -275 
z
M 784 1719 
Q 784 1066 1043 766 
Q 1303 466 1694 466 
Q 2081 466 2343 764 
Q 2606 1063 2606 1700 
Q 2606 2309 2336 2618 
Q 2066 2928 1684 2928 
Q 1309 2928 1046 2623 
Q 784 2319 784 1719 
z
" id="ArialMT-67" transform="scale(0.015625)"/>
      </defs>
      <use xlink:href="#ArialMT-61"/>
      <use x="55.615234" xlink:href="#ArialMT-6c"/>
      <use x="77.832031" xlink:href="#ArialMT-6c"/>
      <use x="100.048828" xlink:href="#ArialMT-72"/>
      <use x="133.349609" xlink:href="#ArialMT-65"/>
      <use x="188.964844" xlink:href="#ArialMT-64"/>
      <use x="244.580078" xlink:href="#ArialMT-75"/>
      <use x="300.195312" xlink:href="#ArialMT-63"/>
      <use x="350.195312" xlink:href="#ArialMT-65"/>
      <use x="405.810547" xlink:href="#ArialMT-2d"/>
      <use x="439.111328" xlink:href="#ArialMT-6e"/>
      <use x="494.726562" xlink:href="#ArialMT-61"/>
      <use x="550.341797" xlink:href="#ArialMT-74"/>
      <use x="578.125" xlink:href="#ArialMT-69"/>
      <use x="600.341797" xlink:href="#ArialMT-76"/>
      <use x="650.341797" xlink:href="#ArialMT-65"/>
      <use x="705.957031" xlink:href="#ArialMT-2d"/>
      <use x="739.257812" xlink:href="#ArialMT-6e"/>
      <use x="794.873047" xlink:href="#ArialMT-6f"/>
      <use x="850.488281" xlink:href="#ArialMT-6e"/>
      <use x="906.103516" xlink:href="#ArialMT-6f"/>
      <use x="961.71875" xlink:href="#ArialMT-76"/>
      <use x="1011.71875" xlink:href="#ArialMT-65"/>
      <use x="1067.333984" xlink:href="#ArialMT-72"/>
      <use x="1100.634766" xlink:href="#ArialMT-6c"/>
      <use x="1122.851562" xlink:href="#ArialMT-61"/>
      <use x="1178.466797" xlink:href="#ArialMT-70"/>
      <use x="1234.082031" xlink:href="#ArialMT-70"/>
      <use x="1289.697266" xlink:href="#ArialMT-69"/>
      <use x="1311.914062" xlink:href="#ArialMT-6e"/>
      <use x="1367.529297" xlink:href="#ArialMT-67"/>
     </g>
    </g>
    <g id="line2d_29">
     <path d="M 233.499844 120.685469 
L 255.499844 120.685469 
" style="fill:none;stroke:#8172b3;stroke-linecap:round;stroke-width:1.5;"/>
    </g>
    <g id="line2d_30"/>
    <g id="text_23">
     <!-- allreduce-native-rabenseifner -->
     <g style="fill:#262626;" transform="translate(264.299844 124.535469)scale(0.11 -0.11)">
      <use xlink:href="#ArialMT-61"/>
      <use x="55.615234" xlink:href="#ArialMT-6c"/>
      <use x="77.832031" xlink:href="#ArialMT-6c"/>
      <use x="100.048828" xlink:href="#ArialMT-72"/>
      <use x="133.349609" xlink:href="#ArialMT-65"/>
      <use x="188.964844" xlink:href="#ArialMT-64"/>
      <use x="244.580078" xlink:href="#ArialMT-75"/>
      <use x="300.195312" xlink:href="#ArialMT-63"/>
      <use x="350.195312" xlink:href="#ArialMT-65"/>
      <use x="405.810547" xlink:href="#ArialMT-2d"/>
      <use x="439.111328" xlink:href="#ArialMT-6e"/>
      <use x="494.726562" xlink:href="#ArialMT-61"/>
      <use x="550.341797" xlink:href="#ArialMT-74"/>
      <use x="578.125" xlink:href="#ArialMT-69"/>
      <use x="600.341797" xlink:href="#ArialMT-76"/>
      <use x="650.341797" xlink:href="#ArialMT-65"/>
      <use x="705.957031" xlink:href="#ArialMT-2d"/>
      <use x="739.257812" xlink:href="#ArialMT-72"/>
      <use x="772.558594" xlink:href="#ArialMT-61"/>
      <use x="828.173828" xlink:href="#ArialMT-62"/>
      <use x="883.789062" xlink:href="#ArialMT-65"/>
      <use x="939.404297" xlink:href="#ArialMT-6e"/>
      <use x="995.019531" xlink:href="#ArialMT-73"/>
      <use x="1045.019531" xlink:href="#ArialMT-65"/>
      <use x="1100.634766" xlink:href="#ArialMT-69"/>
      <use x="1122.851562" xlink:href="#ArialMT-66"/>
      <use x="1150.634766" xlink:href="#ArialMT-6e"/>
      <use x="1206.25" xlink:href="#ArialMT-65"/>
      <use x="1261.865234" xlink:href="#ArialMT-72"/>
     </g>
    </g>
    <g id="line2d_31">
     <path d="M 233.499844 136.245312 
L 255.499844 136.245312 
" style="fill:none;stroke:#937860;stroke-linecap:round;stroke-width:1.5;"/>
    </g>
    <g id="line2d_32"/>
    <g id="text_24">
     <!-- allreduce-native-recursive_doubling -->
     <g style="fill:#262626;" transform="translate(264.299844 140.095312)scale(0.11 -0.11)">
      <use xlink:href="#ArialMT-61"/>
      <use x="55.615234" xlink:href="#ArialMT-6c"/>
      <use x="77.832031" xlink:href="#ArialMT-6c"/>
      <use x="100.048828" xlink:href="#ArialMT-72"/>
      <use x="133.349609" xlink:href="#ArialMT-65"/>
      <use x="188.964844" xlink:href="#ArialMT-64"/>
      <use x="244.580078" xlink:href="#ArialMT-75"/>
      <use x="300.195312" xlink:href="#ArialMT-63"/>
      <use x="350.195312" xlink:href="#ArialMT-65"/>
      <use x="405.810547" xlink:href="#ArialMT-2d"/>
      <use x="439.111328" xlink:href="#ArialMT-6e"/>
      <use x="494.726562" xlink:href="#ArialMT-61"/>
      <use x="550.341797" xlink:href="#ArialMT-74"/>
      <use x="578.125" xlink:href="#ArialMT-69"/>
      <use x="600.341797" xlink:href="#ArialMT-76"/>
      <use x="650.341797" xlink:href="#ArialMT-65"/>
      <use x="705.957031" xlink:href="#ArialMT-2d"/>
      <use x="739.257812" xlink:href="#ArialMT-72"/>
      <use x="772.558594" xlink:href="#ArialMT-65"/>
      <use x="828.173828" xlink:href="#ArialMT-63"/>
      <use x="878.173828" xlink:href="#ArialMT-75"/>
      <use x="933.789062" xlink:href="#ArialMT-72"/>
      <use x="967.089844" xlink:href="#ArialMT-73"/>
      <use x="1017.089844" xlink:href="#ArialMT-69"/>
      <use x="1039.306641" xlink:href="#ArialMT-76"/>
      <use x="1089.306641" xlink:href="#ArialMT-65"/>
      <use x="1144.921875" xlink:href="#ArialMT-5f"/>
      <use x="1200.537109" xlink:href="#ArialMT-64"/>
      <use x="1256.152344" xlink:href="#ArialMT-6f"/>
      <use x="1311.767578" xlink:href="#ArialMT-75"/>
      <use x="1367.382812" xlink:href="#ArialMT-62"/>
      <use x="1422.998047" xlink:href="#ArialMT-6c"/>
      <use x="1445.214844" xlink:href="#ArialMT-69"/>
      <use x="1467.431641" xlink:href="#ArialMT-6e"/>
      <use x="1523.046875" xlink:href="#ArialMT-67"/>
     </g>
    </g>
    <g id="line2d_33">
     <path d="M 233.499844 151.934063 
L 255.499844 151.934063 
" style="fill:none;stroke:#da8bc3;stroke-linecap:round;stroke-width:1.5;"/>
    </g>
    <g id="line2d_34"/>
    <g id="text_25">
     <!-- allreduce-native-ring -->
     <g style="fill:#262626;" transform="translate(264.299844 155.784063)scale(0.11 -0.11)">
      <use xlink:href="#ArialMT-61"/>
      <use x="55.615234" xlink:href="#ArialMT-6c"/>
      <use x="77.832031" xlink:href="#ArialMT-6c"/>
      <use x="100.048828" xlink:href="#ArialMT-72"/>
      <use x="133.349609" xlink:href="#ArialMT-65"/>
      <use x="188.964844" xlink:href="#ArialMT-64"/>
      <use x="244.580078" xlink:href="#ArialMT-75"/>
      <use x="300.195312" xlink:href="#ArialMT-63"/>
      <use x="350.195312" xlink:href="#ArialMT-65"/>
      <use x="405.810547" xlink:href="#ArialMT-2d"/>
      <use x="439.111328" xlink:href="#ArialMT-6e"/>
      <use x="494.726562" xlink:href="#ArialMT-61"/>
      <use x="550.341797" xlink:href="#ArialMT-74"/>
      <use x="578.125" xlink:href="#ArialMT-69"/>
      <use x="600.341797" xlink:href="#ArialMT-76"/>
      <use x="650.341797" xlink:href="#ArialMT-65"/>
      <use x="705.957031" xlink:href="#ArialMT-2d"/>
      <use x="739.257812" xlink:href="#ArialMT-72"/>
      <use x="772.558594" xlink:href="#ArialMT-69"/>
      <use x="794.775391" xlink:href="#ArialMT-6e"/>
      <use x="850.390625" xlink:href="#ArialMT-67"/>
     </g>
    </g>
    <g id="line2d_35">
     <path d="M 233.499844 167.622812 
L 255.499844 167.622812 
" style="fill:none;stroke:#8c8c8c;stroke-linecap:round;stroke-width:1.5;"/>
    </g>
    <g id="line2d_36"/>
    <g id="text_26">
     <!-- allreduce-native-segmented_ring -->
     <g style="fill:#262626;" transform="translate(264.299844 171.472812)scale(0.11 -0.11)">
      <use xlink:href="#ArialMT-61"/>
      <use x="55.615234" xlink:href="#ArialMT-6c"/>
      <use x="77.832031" xlink:href="#ArialMT-6c"/>
      <use x="100.048828" xlink:href="#ArialMT-72"/>
      <use x="133.349609" xlink:href="#ArialMT-65"/>
      <use x="188.964844" xlink:href="#ArialMT-64"/>
      <use x="244.580078" xlink:href="#ArialMT-75"/>
      <use x="300.195312" xlink:href="#ArialMT-63"/>
      <use x="350.195312" xlink:href="#ArialMT-65"/>
      <use x="405.810547" xlink:href="#ArialMT-2d"/>
      <use x="439.111328" xlink:href="#ArialMT-6e"/>
      <use x="494.726562" xlink:href="#ArialMT-61"/>
      <use x="550.341797" xlink:href="#ArialMT-74"/>
      <use x="578.125" xlink:href="#ArialMT-69"/>
      <use x="600.341797" xlink:href="#ArialMT-76"/>
      <use x="650.341797" xlink:href="#ArialMT-65"/>
      <use x="705.957031" xlink:href="#ArialMT-2d"/>
      <use x="739.257812" xlink:href="#ArialMT-73"/>
      <use x="789.257812" xlink:href="#ArialMT-65"/>
      <use x="844.873047" xlink:href="#ArialMT-67"/>
      <use x="900.488281" xlink:href="#ArialMT-6d"/>
      <use x="983.789062" xlink:href="#ArialMT-65"/>
      <use x="1039.404297" xlink:href="#ArialMT-6e"/>
      <use x="1095.019531" xlink:href="#ArialMT-74"/>
      <use x="1122.802734" xlink:href="#ArialMT-65"/>
      <use x="1178.417969" xlink:href="#ArialMT-64"/>
      <use x="1234.033203" xlink:href="#ArialMT-5f"/>
      <use x="1289.648438" xlink:href="#ArialMT-72"/>
      <use x="1322.949219" xlink:href="#ArialMT-69"/>
      <use x="1345.166016" xlink:href="#ArialMT-6e"/>
      <use x="1400.78125" xlink:href="#ArialMT-67"/>
     </g>
    </g>
    <g id="line2d_37">
     <path d="M 233.499844 183.311563 
L 255.499844 183.311563 
" style="fill:none;stroke:#ccb974;stroke-linecap:round;stroke-width:1.5;"/>
    </g>
    <g id="line2d_38"/>
    <g id="text_27">
     <!-- allreduce-rabenseifner -->
     <g style="fill:#262626;" transform="translate(264.299844 187.161563)scale(0.11 -0.11)">
      <use xlink:href="#ArialMT-61"/>
      <use x="55.615234" xlink:href="#ArialMT-6c"/>
      <use x="77.832031" xlink:href="#ArialMT-6c"/>
      <use x="100.048828" xlink:href="#ArialMT-72"/>
      <use x="133.349609" xlink:href="#ArialMT-65"/>
      <use x="188.964844" xlink:href="#ArialMT-64"/>
      <use x="244.580078" xlink:href="#ArialMT-75"/>
      <use x="300.195312" xlink:href="#ArialMT-63"/>
      <use x="350.195312" xlink:href="#ArialMT-65"/>
      <use x="405.810547" xlink:href="#ArialMT-2d"/>
      <use x="439.111328" xlink:href="#ArialMT-72"/>
      <use x="472.412109" xlink:href="#ArialMT-61"/>
      <use x="528.027344" xlink:href="#ArialMT-62"/>
      <use x="583.642578" xlink:href="#ArialMT-65"/>
      <use x="639.257812" xlink:href="#ArialMT-6e"/>
      <use x="694.873047" xlink:href="#ArialMT-73"/>
      <use x="744.873047" xlink:href="#ArialMT-65"/>
      <use x="800.488281" xlink:href="#ArialMT-69"/>
      <use x="822.705078" xlink:href="#ArialMT-66"/>
      <use x="850.488281" xlink:href="#ArialMT-6e"/>
      <use x="906.103516" xlink:href="#ArialMT-65"/>
      <use x="961.71875" xlink:href="#ArialMT-72"/>
     </g>
    </g>
    <g id="line2d_39">
     <path d="M 233.499844 198.871406 
L 255.499844 198.871406 
" style="fill:none;stroke:#64b5cd;stroke-linecap:round;stroke-width:1.5;"/>
    </g>
    <g id="line2d_40"/>
    <g id="text_28">
     <!-- allreduce-ring -->
     <g style="fill:#262626;" transform="translate(264.299844 202.721406)scale(0.11 -0.11)">
      <use xlink:href="#ArialMT-61"/>
      <use x="55.615234" xlink:href="#ArialMT-6c"/>
      <use x="77.832031" xlink:href="#ArialMT-6c"/>
      <use x="100.048828" xlink:href="#ArialMT-72"/>
      <use x="133.349609" xlink:href="#ArialMT-65"/>
      <use x="188.964844" xlink:href="#ArialMT-64"/>
      <use x="244.580078" xlink:href="#ArialMT-75"/>
      <use x="300.195312" xlink:href="#ArialMT-63"/>
      <use x="350.195312" xlink:href="#ArialMT-65"/>
      <use x="405.810547" xlink:href="#ArialMT-2d"/>
      <use x="439.111328" xlink:href="#ArialMT-72"/>
      <use x="472.412109" xlink:href="#ArialMT-69"/>
      <use x="494.628906" xlink:href="#ArialMT-6e"/>
      <use x="550.244141" xlink:href="#ArialMT-67"/>
     </g>
    </g>
   </g>
  </g>
 </g>
 <defs>
  <clipPath id="p123cc4f641">
   <rect height="270.60375" width="375.266961" x="72.573039" y="27.65625"/>
  </clipPath>
 </defs>
</svg>
