<?xml version="1.0" encoding="utf-8" standalone="no"?>
<!DOCTYPE svg PUBLIC "-//W3C//DTD SVG 1.1//EN"
  "http://www.w3.org/Graphics/SVG/1.1/DTD/svg11.dtd">
<svg height="345.6pt" version="1.1" viewBox="0 0 460.8 345.6" width="460.8pt" xmlns="http://www.w3.org/2000/svg" xmlns:xlink="http://www.w3.org/1999/xlink">
 <metadata>
  <rdf:RDF xmlns:cc="http://creativecommons.org/ns#" xmlns:dc="http://purl.org/dc/elements/1.1/" xmlns:rdf="http://www.w3.org/1999/02/22-rdf-syntax-ns#">
   <cc:Work>
    <dc:type rdf:resource="http://purl.org/dc/dcmitype/StillImage"/>
    <dc:date>2021-11-17T11:13:35.943525</dc:date>
    <dc:format>image/svg+xml</dc:format>
    <dc:creator>
     <cc:Agent>
      <dc:title>Matplotlib v3.4.3, https://matplotlib.org/</dc:title>
     </cc:Agent>
    </dc:creator>
   </cc:Work>
  </rdf:RDF>
 </metadata>
 <defs>
  <style type="text/css">*{stroke-linecap:butt;stroke-linejoin:round;}</style>
 </defs>
 <g id="figure_1">
  <g id="patch_1">
   <path d="M 0 345.6 
L 460.8 345.6 
L 460.8 0 
L 0 0 
z
" style="fill:#ffffff;"/>
  </g>
  <g id="axes_1">
   <g id="patch_2">
    <path d="M 33.64 303.64 
L 445.817312 303.64 
L 445.817312 26.88 
L 33.64 26.88 
z
" style="fill:#ffffff;"/>
   </g>
   <g id="matplotlib.axis_1">
    <g id="xtick_1">
     <g id="line2d_1">
      <defs>
       <path d="M 0 0 
L 0 3.5 
" id="m2c193ad41e" style="stroke:#000000;stroke-width:0.8;"/>
      </defs>
      <g>
       <use style="stroke:#000000;stroke-width:0.8;" x="36.083739" xlink:href="#m2c193ad41e" y="303.64"/>
      </g>
     </g>
     <g id="text_1">
      <!-- 0 -->
      <g transform="translate(32.902489 318.238437)scale(0.1 -0.1)">
       <defs>
        <path d="M 2034 4250 
Q 1547 4250 1301 3770 
Q 1056 3291 1056 2328 
Q 1056 1369 1301 889 
Q 1547 409 2034 409 
Q 2525 409 2770 889 
Q 3016 1369 3016 2328 
Q 3016 3291 2770 3770 
Q 2525 4250 2034 4250 
z
M 2034 4750 
Q 2819 4750 3233 4129 
Q 3647 3509 3647 2328 
Q 3647 1150 3233 529 
Q 2819 -91 2034 -91 
Q 1250 -91 836 529 
Q 422 1150 422 2328 
Q 422 3509 836 4129 
Q 1250 4750 2034 4750 
z
" id="DejaVuSans-30" transform="scale(0.015625)"/>
       </defs>
       <use xlink:href="#DejaVuSans-30"/>
      </g>
     </g>
    </g>
    <g id="xtick_2">
     <g id="line2d_2">
      <g>
       <use style="stroke:#000000;stroke-width:0.8;" x="117.541706" xlink:href="#m2c193ad41e" y="303.64"/>
      </g>
     </g>
     <g id="text_2">
      <!-- 10 -->
      <g transform="translate(111.179206 318.238437)scale(0.1 -0.1)">
       <defs>
        <path d="M 794 531 
L 1825 531 
L 1825 4091 
L 703 3866 
L 703 4441 
L 1819 4666 
L 2450 4666 
L 2450 531 
L 3481 531 
L 3481 0 
L 794 0 
L 794 531 
z
" id="DejaVuSans-31" transform="scale(0.015625)"/>
       </defs>
       <use xlink:href="#DejaVuSans-31"/>
       <use x="63.623047" xlink:href="#DejaVuSans-30"/>
      </g>
     </g>
    </g>
    <g id="xtick_3">
     <g id="line2d_3">
      <g>
       <use style="stroke:#000000;stroke-width:0.8;" x="198.999673" xlink:href="#m2c193ad41e" y="303.64"/>
      </g>
     </g>
     <g id="text_3">
      <!-- 20 -->
      <g transform="translate(192.637173 318.238437)scale(0.1 -0.1)">
       <defs>
        <path d="M 1228 531 
L 3431 531 
L 3431 0 
L 469 0 
L 469 531 
Q 828 903 1448 1529 
Q 2069 2156 2228 2338 
Q 2531 2678 2651 2914 
Q 2772 3150 2772 3378 
Q 2772 3750 2511 3984 
Q 2250 4219 1831 4219 
Q 1534 4219 1204 4116 
Q 875 4013 500 3803 
L 500 4441 
Q 881 4594 1212 4672 
Q 1544 4750 1819 4750 
Q 2544 4750 2975 4387 
Q 3406 4025 3406 3419 
Q 3406 3131 3298 2873 
Q 3191 2616 2906 2266 
Q 2828 2175 2409 1742 
Q 1991 1309 1228 531 
z
" id="DejaVuSans-32" transform="scale(0.015625)"/>
       </defs>
       <use xlink:href="#DejaVuSans-32"/>
       <use x="63.623047" xlink:href="#DejaVuSans-30"/>
      </g>
     </g>
    </g>
    <g id="xtick_4">
     <g id="line2d_4">
      <g>
       <use style="stroke:#000000;stroke-width:0.8;" x="280.45764" xlink:href="#m2c193ad41e" y="303.64"/>
      </g>
     </g>
     <g id="text_4">
      <!-- 30 -->
      <g transform="translate(274.09514 318.238437)scale(0.1 -0.1)">
       <defs>
        <path d="M 2597 2516 
Q 3050 2419 3304 2112 
Q 3559 1806 3559 1356 
Q 3559 666 3084 287 
Q 2609 -91 1734 -91 
Q 1441 -91 1130 -33 
Q 819 25 488 141 
L 488 750 
Q 750 597 1062 519 
Q 1375 441 1716 441 
Q 2309 441 2620 675 
Q 2931 909 2931 1356 
Q 2931 1769 2642 2001 
Q 2353 2234 1838 2234 
L 1294 2234 
L 1294 2753 
L 1863 2753 
Q 2328 2753 2575 2939 
Q 2822 3125 2822 3475 
Q 2822 3834 2567 4026 
Q 2313 4219 1838 4219 
Q 1578 4219 1281 4162 
Q 984 4106 628 3988 
L 628 4550 
Q 988 4650 1302 4700 
Q 1616 4750 1894 4750 
Q 2613 4750 3031 4423 
Q 3450 4097 3450 3541 
Q 3450 3153 3228 2886 
Q 3006 2619 2597 2516 
z
" id="DejaVuSans-33" transform="scale(0.015625)"/>
       </defs>
       <use xlink:href="#DejaVuSans-33"/>
       <use x="63.623047" xlink:href="#DejaVuSans-30"/>
      </g>
     </g>
    </g>
    <g id="xtick_5">
     <g id="line2d_5">
      <g>
       <use style="stroke:#000000;stroke-width:0.8;" x="361.915606" xlink:href="#m2c193ad41e" y="303.64"/>
      </g>
     </g>
     <g id="text_5">
      <!-- 40 -->
      <g transform="translate(355.553106 318.238437)scale(0.1 -0.1)">
       <defs>
        <path d="M 2419 4116 
L 825 1625 
L 2419 1625 
L 2419 4116 
z
M 2253 4666 
L 3047 4666 
L 3047 1625 
L 3713 1625 
L 3713 1100 
L 3047 1100 
L 3047 0 
L 2419 0 
L 2419 1100 
L 313 1100 
L 313 1709 
L 2253 4666 
z
" id="DejaVuSans-34" transform="scale(0.015625)"/>
       </defs>
       <use xlink:href="#DejaVuSans-34"/>
       <use x="63.623047" xlink:href="#DejaVuSans-30"/>
      </g>
     </g>
    </g>
    <g id="xtick_6">
     <g id="line2d_6">
      <g>
       <use style="stroke:#000000;stroke-width:0.8;" x="443.373573" xlink:href="#m2c193ad41e" y="303.64"/>
      </g>
     </g>
     <g id="text_6">
      <!-- 50 -->
      <g transform="translate(437.011073 318.238437)scale(0.1 -0.1)">
       <defs>
        <path d="M 691 4666 
L 3169 4666 
L 3169 4134 
L 1269 4134 
L 1269 2991 
Q 1406 3038 1543 3061 
Q 1681 3084 1819 3084 
Q 2600 3084 3056 2656 
Q 3513 2228 3513 1497 
Q 3513 744 3044 326 
Q 2575 -91 1722 -91 
Q 1428 -91 1123 -41 
Q 819 9 494 109 
L 494 744 
Q 775 591 1075 516 
Q 1375 441 1709 441 
Q 2250 441 2565 725 
Q 2881 1009 2881 1497 
Q 2881 1984 2565 2268 
Q 2250 2553 1709 2553 
Q 1456 2553 1204 2497 
Q 953 2441 691 2322 
L 691 4666 
z
" id="DejaVuSans-35" transform="scale(0.015625)"/>
       </defs>
       <use xlink:href="#DejaVuSans-35"/>
       <use x="63.623047" xlink:href="#DejaVuSans-30"/>
      </g>
     </g>
    </g>
    <g id="text_7">
     <!-- Number of processes -->
     <g transform="translate(186.752094 331.916562)scale(0.1 -0.1)">
      <defs>
       <path d="M 628 4666 
L 1478 4666 
L 3547 763 
L 3547 4666 
L 4159 4666 
L 4159 0 
L 3309 0 
L 1241 3903 
L 1241 0 
L 628 0 
L 628 4666 
z
" id="DejaVuSans-4e" transform="scale(0.015625)"/>
       <path d="M 544 1381 
L 544 3500 
L 1119 3500 
L 1119 1403 
Q 1119 906 1312 657 
Q 1506 409 1894 409 
Q 2359 409 2629 706 
Q 2900 1003 2900 1516 
L 2900 3500 
L 3475 3500 
L 3475 0 
L 2900 0 
L 2900 538 
Q 2691 219 2414 64 
Q 2138 -91 1772 -91 
Q 1169 -91 856 284 
Q 544 659 544 1381 
z
M 1991 3584 
L 1991 3584 
z
" id="DejaVuSans-75" transform="scale(0.015625)"/>
       <path d="M 3328 2828 
Q 3544 3216 3844 3400 
Q 4144 3584 4550 3584 
Q 5097 3584 5394 3201 
Q 5691 2819 5691 2113 
L 5691 0 
L 5113 0 
L 5113 2094 
Q 5113 2597 4934 2840 
Q 4756 3084 4391 3084 
Q 3944 3084 3684 2787 
Q 3425 2491 3425 1978 
L 3425 0 
L 2847 0 
L 2847 2094 
Q 2847 2600 2669 2842 
Q 2491 3084 2119 3084 
Q 1678 3084 1418 2786 
Q 1159 2488 1159 1978 
L 1159 0 
L 581 0 
L 581 3500 
L 1159 3500 
L 1159 2956 
Q 1356 3278 1631 3431 
Q 1906 3584 2284 3584 
Q 2666 3584 2933 3390 
Q 3200 3197 3328 2828 
z
" id="DejaVuSans-6d" transform="scale(0.015625)"/>
       <path d="M 3116 1747 
Q 3116 2381 2855 2742 
Q 2594 3103 2138 3103 
Q 1681 3103 1420 2742 
Q 1159 2381 1159 1747 
Q 1159 1113 1420 752 
Q 1681 391 2138 391 
Q 2594 391 2855 752 
Q 3116 1113 3116 1747 
z
M 1159 2969 
Q 1341 3281 1617 3432 
Q 1894 3584 2278 3584 
Q 2916 3584 3314 3078 
Q 3713 2572 3713 1747 
Q 3713 922 3314 415 
Q 2916 -91 2278 -91 
Q 1894 -91 1617 61 
Q 1341 213 1159 525 
L 1159 0 
L 581 0 
L 581 4863 
L 1159 4863 
L 1159 2969 
z
" id="DejaVuSans-62" transform="scale(0.015625)"/>
       <path d="M 3597 1894 
L 3597 1613 
L 953 1613 
Q 991 1019 1311 708 
Q 1631 397 2203 397 
Q 2534 397 2845 478 
Q 3156 559 3463 722 
L 3463 178 
Q 3153 47 2828 -22 
Q 2503 -91 2169 -91 
Q 1331 -91 842 396 
Q 353 884 353 1716 
Q 353 2575 817 3079 
Q 1281 3584 2069 3584 
Q 2775 3584 3186 3129 
Q 3597 2675 3597 1894 
z
M 3022 2063 
Q 3016 2534 2758 2815 
Q 2500 3097 2075 3097 
Q 1594 3097 1305 2825 
Q 1016 2553 972 2059 
L 3022 2063 
z
" id="DejaVuSans-65" transform="scale(0.015625)"/>
       <path d="M 2631 2963 
Q 2534 3019 2420 3045 
Q 2306 3072 2169 3072 
Q 1681 3072 1420 2755 
Q 1159 2438 1159 1844 
L 1159 0 
L 581 0 
L 581 3500 
L 1159 3500 
L 1159 2956 
Q 1341 3275 1631 3429 
Q 1922 3584 2338 3584 
Q 2397 3584 2469 3576 
Q 2541 3569 2628 3553 
L 2631 2963 
z
" id="DejaVuSans-72" transform="scale(0.015625)"/>
       <path id="DejaVuSans-20" transform="scale(0.015625)"/>
       <path d="M 1959 3097 
Q 1497 3097 1228 2736 
Q 959 2375 959 1747 
Q 959 1119 1226 758 
Q 1494 397 1959 397 
Q 2419 397 2687 759 
Q 2956 1122 2956 1747 
Q 2956 2369 2687 2733 
Q 2419 3097 1959 3097 
z
M 1959 3584 
Q 2709 3584 3137 3096 
Q 3566 2609 3566 1747 
Q 3566 888 3137 398 
Q 2709 -91 1959 -91 
Q 1206 -91 779 398 
Q 353 888 353 1747 
Q 353 2609 779 3096 
Q 1206 3584 1959 3584 
z
" id="DejaVuSans-6f" transform="scale(0.015625)"/>
       <path d="M 2375 4863 
L 2375 4384 
L 1825 4384 
Q 1516 4384 1395 4259 
Q 1275 4134 1275 3809 
L 1275 3500 
L 2222 3500 
L 2222 3053 
L 1275 3053 
L 1275 0 
L 697 0 
L 697 3053 
L 147 3053 
L 147 3500 
L 697 3500 
L 697 3744 
Q 697 4328 969 4595 
Q 1241 4863 1831 4863 
L 2375 4863 
z
" id="DejaVuSans-66" transform="scale(0.015625)"/>
       <path d="M 1159 525 
L 1159 -1331 
L 581 -1331 
L 581 3500 
L 1159 3500 
L 1159 2969 
Q 1341 3281 1617 3432 
Q 1894 3584 2278 3584 
Q 2916 3584 3314 3078 
Q 3713 2572 3713 1747 
Q 3713 922 3314 415 
Q 2916 -91 2278 -91 
Q 1894 -91 1617 61 
Q 1341 213 1159 525 
z
M 3116 1747 
Q 3116 2381 2855 2742 
Q 2594 3103 2138 3103 
Q 1681 3103 1420 2742 
Q 1159 2381 1159 1747 
Q 1159 1113 1420 752 
Q 1681 391 2138 391 
Q 2594 391 2855 752 
Q 3116 1113 3116 1747 
z
" id="DejaVuSans-70" transform="scale(0.015625)"/>
       <path d="M 3122 3366 
L 3122 2828 
Q 2878 2963 2633 3030 
Q 2388 3097 2138 3097 
Q 1578 3097 1268 2742 
Q 959 2388 959 1747 
Q 959 1106 1268 751 
Q 1578 397 2138 397 
Q 2388 397 2633 464 
Q 2878 531 3122 666 
L 3122 134 
Q 2881 22 2623 -34 
Q 2366 -91 2075 -91 
Q 1284 -91 818 406 
Q 353 903 353 1747 
Q 353 2603 823 3093 
Q 1294 3584 2113 3584 
Q 2378 3584 2631 3529 
Q 2884 3475 3122 3366 
z
" id="DejaVuSans-63" transform="scale(0.015625)"/>
       <path d="M 2834 3397 
L 2834 2853 
Q 2591 2978 2328 3040 
Q 2066 3103 1784 3103 
Q 1356 3103 1142 2972 
Q 928 2841 928 2578 
Q 928 2378 1081 2264 
Q 1234 2150 1697 2047 
L 1894 2003 
Q 2506 1872 2764 1633 
Q 3022 1394 3022 966 
Q 3022 478 2636 193 
Q 2250 -91 1575 -91 
Q 1294 -91 989 -36 
Q 684 19 347 128 
L 347 722 
Q 666 556 975 473 
Q 1284 391 1588 391 
Q 1994 391 2212 530 
Q 2431 669 2431 922 
Q 2431 1156 2273 1281 
Q 2116 1406 1581 1522 
L 1381 1569 
Q 847 1681 609 1914 
Q 372 2147 372 2553 
Q 372 3047 722 3315 
Q 1072 3584 1716 3584 
Q 2034 3584 2315 3537 
Q 2597 3491 2834 3397 
z
" id="DejaVuSans-73" transform="scale(0.015625)"/>
      </defs>
      <use xlink:href="#DejaVuSans-4e"/>
      <use x="74.804688" xlink:href="#DejaVuSans-75"/>
      <use x="138.183594" xlink:href="#DejaVuSans-6d"/>
      <use x="235.595703" xlink:href="#DejaVuSans-62"/>
      <use x="299.072266" xlink:href="#DejaVuSans-65"/>
      <use x="360.595703" xlink:href="#DejaVuSans-72"/>
      <use x="401.708984" xlink:href="#DejaVuSans-20"/>
      <use x="433.496094" xlink:href="#DejaVuSans-6f"/>
      <use x="494.677734" xlink:href="#DejaVuSans-66"/>
      <use x="529.882812" xlink:href="#DejaVuSans-20"/>
      <use x="561.669922" xlink:href="#DejaVuSans-70"/>
      <use x="625.146484" xlink:href="#DejaVuSans-72"/>
      <use x="664.009766" xlink:href="#DejaVuSans-6f"/>
      <use x="725.191406" xlink:href="#DejaVuSans-63"/>
      <use x="780.171875" xlink:href="#DejaVuSans-65"/>
      <use x="841.695312" xlink:href="#DejaVuSans-73"/>
      <use x="893.794922" xlink:href="#DejaVuSans-73"/>
      <use x="945.894531" xlink:href="#DejaVuSans-65"/>
      <use x="1007.417969" xlink:href="#DejaVuSans-73"/>
     </g>
    </g>
   </g>
   <g id="matplotlib.axis_2">
    <g id="ytick_1">
     <g id="line2d_7">
      <defs>
       <path d="M 0 0 
L -3.5 0 
" id="mcde4e5ddae" style="stroke:#000000;stroke-width:0.8;"/>
      </defs>
      <g>
       <use style="stroke:#000000;stroke-width:0.8;" x="33.64" xlink:href="#mcde4e5ddae" y="303.64"/>
      </g>
     </g>
     <g id="text_8">
      <!-- 0.0 -->
      <g transform="translate(10.736875 307.439219)scale(0.1 -0.1)">
       <defs>
        <path d="M 684 794 
L 1344 794 
L 1344 0 
L 684 0 
L 684 794 
z
" id="DejaVuSans-2e" transform="scale(0.015625)"/>
       </defs>
       <use xlink:href="#DejaVuSans-30"/>
       <use x="63.623047" xlink:href="#DejaVuSans-2e"/>
       <use x="95.410156" xlink:href="#DejaVuSans-30"/>
      </g>
     </g>
    </g>
    <g id="ytick_2">
     <g id="line2d_8">
      <g>
       <use style="stroke:#000000;stroke-width:0.8;" x="33.64" xlink:href="#mcde4e5ddae" y="248.288"/>
      </g>
     </g>
     <g id="text_9">
      <!-- 0.2 -->
      <g transform="translate(10.736875 252.087219)scale(0.1 -0.1)">
       <use xlink:href="#DejaVuSans-30"/>
       <use x="63.623047" xlink:href="#DejaVuSans-2e"/>
       <use x="95.410156" xlink:href="#DejaVuSans-32"/>
      </g>
     </g>
    </g>
    <g id="ytick_3">
     <g id="line2d_9">
      <g>
       <use style="stroke:#000000;stroke-width:0.8;" x="33.64" xlink:href="#mcde4e5ddae" y="192.936"/>
      </g>
     </g>
     <g id="text_10">
      <!-- 0.4 -->
      <g transform="translate(10.736875 196.735219)scale(0.1 -0.1)">
       <use xlink:href="#DejaVuSans-30"/>
       <use x="63.623047" xlink:href="#DejaVuSans-2e"/>
       <use x="95.410156" xlink:href="#DejaVuSans-34"/>
      </g>
     </g>
    </g>
    <g id="ytick_4">
     <g id="line2d_10">
      <g>
       <use style="stroke:#000000;stroke-width:0.8;" x="33.64" xlink:href="#mcde4e5ddae" y="137.584"/>
      </g>
     </g>
     <g id="text_11">
      <!-- 0.6 -->
      <g transform="translate(10.736875 141.383219)scale(0.1 -0.1)">
       <defs>
        <path d="M 2113 2584 
Q 1688 2584 1439 2293 
Q 1191 2003 1191 1497 
Q 1191 994 1439 701 
Q 1688 409 2113 409 
Q 2538 409 2786 701 
Q 3034 994 3034 1497 
Q 3034 2003 2786 2293 
Q 2538 2584 2113 2584 
z
M 3366 4563 
L 3366 3988 
Q 3128 4100 2886 4159 
Q 2644 4219 2406 4219 
Q 1781 4219 1451 3797 
Q 1122 3375 1075 2522 
Q 1259 2794 1537 2939 
Q 1816 3084 2150 3084 
Q 2853 3084 3261 2657 
Q 3669 2231 3669 1497 
Q 3669 778 3244 343 
Q 2819 -91 2113 -91 
Q 1303 -91 875 529 
Q 447 1150 447 2328 
Q 447 3434 972 4092 
Q 1497 4750 2381 4750 
Q 2619 4750 2861 4703 
Q 3103 4656 3366 4563 
z
" id="DejaVuSans-36" transform="scale(0.015625)"/>
       </defs>
       <use xlink:href="#DejaVuSans-30"/>
       <use x="63.623047" xlink:href="#DejaVuSans-2e"/>
       <use x="95.410156" xlink:href="#DejaVuSans-36"/>
      </g>
     </g>
    </g>
    <g id="ytick_5">
     <g id="line2d_11">
      <g>
       <use style="stroke:#000000;stroke-width:0.8;" x="33.64" xlink:href="#mcde4e5ddae" y="82.232"/>
      </g>
     </g>
     <g id="text_12">
      <!-- 0.8 -->
      <g transform="translate(10.736875 86.031219)scale(0.1 -0.1)">
       <defs>
        <path d="M 2034 2216 
Q 1584 2216 1326 1975 
Q 1069 1734 1069 1313 
Q 1069 891 1326 650 
Q 1584 409 2034 409 
Q 2484 409 2743 651 
Q 3003 894 3003 1313 
Q 3003 1734 2745 1975 
Q 2488 2216 2034 2216 
z
M 1403 2484 
Q 997 2584 770 2862 
Q 544 3141 544 3541 
Q 544 4100 942 4425 
Q 1341 4750 2034 4750 
Q 2731 4750 3128 4425 
Q 3525 4100 3525 3541 
Q 3525 3141 3298 2862 
Q 3072 2584 2669 2484 
Q 3125 2378 3379 2068 
Q 3634 1759 3634 1313 
Q 3634 634 3220 271 
Q 2806 -91 2034 -91 
Q 1263 -91 848 271 
Q 434 634 434 1313 
Q 434 1759 690 2068 
Q 947 2378 1403 2484 
z
M 1172 3481 
Q 1172 3119 1398 2916 
Q 1625 2713 2034 2713 
Q 2441 2713 2670 2916 
Q 2900 3119 2900 3481 
Q 2900 3844 2670 4047 
Q 2441 4250 2034 4250 
Q 1625 4250 1398 4047 
Q 1172 3844 1172 3481 
z
" id="DejaVuSans-38" transform="scale(0.015625)"/>
       </defs>
       <use xlink:href="#DejaVuSans-30"/>
       <use x="63.623047" xlink:href="#DejaVuSans-2e"/>
       <use x="95.410156" xlink:href="#DejaVuSans-38"/>
      </g>
     </g>
    </g>
    <g id="ytick_6">
     <g id="line2d_12">
      <g>
       <use style="stroke:#000000;stroke-width:0.8;" x="33.64" xlink:href="#mcde4e5ddae" y="26.88"/>
      </g>
     </g>
     <g id="text_13">
      <!-- 1.0 -->
      <g transform="translate(10.736875 30.679219)scale(0.1 -0.1)">
       <use xlink:href="#DejaVuSans-31"/>
       <use x="63.623047" xlink:href="#DejaVuSans-2e"/>
       <use x="95.410156" xlink:href="#DejaVuSans-30"/>
      </g>
     </g>
    </g>
   </g>
   <g id="line2d_13">
    <path clip-path="url(#pf68882f1c8)" d="M 52.375332 276.682857 
L 68.666926 286.72995 
L 84.958519 289.324828 
L 101.250112 290.544101 
L 117.541706 291.84625 
L 133.833299 292.926549 
L 150.124893 294.5339 
L 166.416486 294.455442 
L 182.708079 295.366643 
L 198.999673 295.328881 
L 215.291266 295.980486 
L 231.582859 298.453711 
L 247.874453 296.438954 
L 264.166046 296.69786 
L 280.45764 296.997692 
L 296.749233 299.438524 
L 313.040826 297.383177 
L 329.33242 297.570585 
L 345.624013 299.072693 
L 361.915606 302.687869 
L 378.2072 298.26253 
L 394.498793 298.616853 
L 410.790387 298.411503 
L 427.08198 298.309154 
" style="fill:none;stroke:#1f77b4;stroke-linecap:square;stroke-width:1.5;"/>
    <defs>
     <path d="M 0 3 
C 0.795609 3 1.55874 2.683901 2.12132 2.12132 
C 2.683901 1.55874 3 0.795609 3 0 
C 3 -0.795609 2.683901 -1.55874 2.12132 -2.12132 
C 1.55874 -2.683901 0.795609 -3 0 -3 
C -0.795609 -3 -1.55874 -2.683901 -2.12132 -2.12132 
C -2.683901 -1.55874 -3 -0.795609 -3 0 
C -3 0.795609 -2.683901 1.55874 -2.12132 2.12132 
C -1.55874 2.683901 -0.795609 3 0 3 
z
" id="m20dba5e227" style="stroke:#1f77b4;"/>
    </defs>
    <g clip-path="url(#pf68882f1c8)">
     <use style="fill:#1f77b4;stroke:#1f77b4;" x="52.375332" xlink:href="#m20dba5e227" y="276.682857"/>
     <use style="fill:#1f77b4;stroke:#1f77b4;" x="68.666926" xlink:href="#m20dba5e227" y="286.72995"/>
     <use style="fill:#1f77b4;stroke:#1f77b4;" x="84.958519" xlink:href="#m20dba5e227" y="289.324828"/>
     <use style="fill:#1f77b4;stroke:#1f77b4;" x="101.250112" xlink:href="#m20dba5e227" y="290.544101"/>
     <use style="fill:#1f77b4;stroke:#1f77b4;" x="117.541706" xlink:href="#m20dba5e227" y="291.84625"/>
     <use style="fill:#1f77b4;stroke:#1f77b4;" x="133.833299" xlink:href="#m20dba5e227" y="292.926549"/>
     <use style="fill:#1f77b4;stroke:#1f77b4;" x="150.124893" xlink:href="#m20dba5e227" y="294.5339"/>
     <use style="fill:#1f77b4;stroke:#1f77b4;" x="166.416486" xlink:href="#m20dba5e227" y="294.455442"/>
     <use style="fill:#1f77b4;stroke:#1f77b4;" x="182.708079" xlink:href="#m20dba5e227" y="295.366643"/>
     <use style="fill:#1f77b4;stroke:#1f77b4;" x="198.999673" xlink:href="#m20dba5e227" y="295.328881"/>
     <use style="fill:#1f77b4;stroke:#1f77b4;" x="215.291266" xlink:href="#m20dba5e227" y="295.980486"/>
     <use style="fill:#1f77b4;stroke:#1f77b4;" x="231.582859" xlink:href="#m20dba5e227" y="298.453711"/>
     <use style="fill:#1f77b4;stroke:#1f77b4;" x="247.874453" xlink:href="#m20dba5e227" y="296.438954"/>
     <use style="fill:#1f77b4;stroke:#1f77b4;" x="264.166046" xlink:href="#m20dba5e227" y="296.69786"/>
     <use style="fill:#1f77b4;stroke:#1f77b4;" x="280.45764" xlink:href="#m20dba5e227" y="296.997692"/>
     <use style="fill:#1f77b4;stroke:#1f77b4;" x="296.749233" xlink:href="#m20dba5e227" y="299.438524"/>
     <use style="fill:#1f77b4;stroke:#1f77b4;" x="313.040826" xlink:href="#m20dba5e227" y="297.383177"/>
     <use style="fill:#1f77b4;stroke:#1f77b4;" x="329.33242" xlink:href="#m20dba5e227" y="297.570585"/>
     <use style="fill:#1f77b4;stroke:#1f77b4;" x="345.624013" xlink:href="#m20dba5e227" y="299.072693"/>
     <use style="fill:#1f77b4;stroke:#1f77b4;" x="361.915606" xlink:href="#m20dba5e227" y="302.687869"/>
     <use style="fill:#1f77b4;stroke:#1f77b4;" x="378.2072" xlink:href="#m20dba5e227" y="298.26253"/>
     <use style="fill:#1f77b4;stroke:#1f77b4;" x="394.498793" xlink:href="#m20dba5e227" y="298.616853"/>
     <use style="fill:#1f77b4;stroke:#1f77b4;" x="410.790387" xlink:href="#m20dba5e227" y="298.411503"/>
     <use style="fill:#1f77b4;stroke:#1f77b4;" x="427.08198" xlink:href="#m20dba5e227" y="298.309154"/>
    </g>
   </g>
   <g id="line2d_14">
    <path clip-path="url(#pf68882f1c8)" d="M 52.375332 265.535362 
L 68.666926 280.400611 
M 101.250112 282.350769 
M 166.416486 286.263867 
M 296.749233 293.134522 
" style="fill:none;stroke:#ff7f0e;stroke-linecap:square;stroke-width:1.5;"/>
    <defs>
     <path d="M 0 3 
C 0.795609 3 1.55874 2.683901 2.12132 2.12132 
C 2.683901 1.55874 3 0.795609 3 0 
C 3 -0.795609 2.683901 -1.55874 2.12132 -2.12132 
C 1.55874 -2.683901 0.795609 -3 0 -3 
C -0.795609 -3 -1.55874 -2.683901 -2.12132 -2.12132 
C -2.683901 -1.55874 -3 -0.795609 -3 0 
C -3 0.795609 -2.683901 1.55874 -2.12132 2.12132 
C -1.55874 2.683901 -0.795609 3 0 3 
z
" id="m4cf0ae0ec8" style="stroke:#ff7f0e;"/>
    </defs>
    <g clip-path="url(#pf68882f1c8)">
     <use style="fill:#ff7f0e;stroke:#ff7f0e;" x="52.375332" xlink:href="#m4cf0ae0ec8" y="265.535362"/>
     <use style="fill:#ff7f0e;stroke:#ff7f0e;" x="68.666926" xlink:href="#m4cf0ae0ec8" y="280.400611"/>
     <use style="fill:#ff7f0e;stroke:#ff7f0e;" x="101.250112" xlink:href="#m4cf0ae0ec8" y="282.350769"/>
     <use style="fill:#ff7f0e;stroke:#ff7f0e;" x="166.416486" xlink:href="#m4cf0ae0ec8" y="286.263867"/>
     <use style="fill:#ff7f0e;stroke:#ff7f0e;" x="296.749233" xlink:href="#m4cf0ae0ec8" y="293.134522"/>
    </g>
   </g>
   <g id="line2d_15">
    <path clip-path="url(#pf68882f1c8)" d="M 52.375332 288.907529 
L 68.666926 298.432151 
L 84.958519 300.035474 
L 101.250112 301.478411 
L 117.541706 301.482275 
L 133.833299 301.876781 
L 150.124893 302.394335 
L 166.416486 302.621295 
L 182.708079 302.576364 
L 198.999673 302.817708 
L 215.291266 302.681339 
L 231.582859 302.789739 
L 247.874453 302.989448 
L 264.166046 303.63719 
L 280.45764 303.637576 
L 296.749233 303.636896 
L 313.040826 303.63681 
L 329.33242 303.637321 
L 345.624013 303.637448 
L 361.915606 303.637576 
L 378.2072 303.637321 
L 394.498793 303.63766 
L 410.790387 303.637193 
L 427.08198 303.637427 
" style="fill:none;stroke:#2ca02c;stroke-linecap:square;stroke-width:1.5;"/>
    <defs>
     <path d="M 0 3 
C 0.795609 3 1.55874 2.683901 2.12132 2.12132 
C 2.683901 1.55874 3 0.795609 3 0 
C 3 -0.795609 2.683901 -1.55874 2.12132 -2.12132 
C 1.55874 -2.683901 0.795609 -3 0 -3 
C -0.795609 -3 -1.55874 -2.683901 -2.12132 -2.12132 
C -2.683901 -1.55874 -3 -0.795609 -3 0 
C -3 0.795609 -2.683901 1.55874 -2.12132 2.12132 
C -1.55874 2.683901 -0.795609 3 0 3 
z
" id="m545072ed24" style="stroke:#2ca02c;"/>
    </defs>
    <g clip-path="url(#pf68882f1c8)">
     <use style="fill:#2ca02c;stroke:#2ca02c;" x="52.375332" xlink:href="#m545072ed24" y="288.907529"/>
     <use style="fill:#2ca02c;stroke:#2ca02c;" x="68.666926" xlink:href="#m545072ed24" y="298.432151"/>
     <use style="fill:#2ca02c;stroke:#2ca02c;" x="84.958519" xlink:href="#m545072ed24" y="300.035474"/>
     <use style="fill:#2ca02c;stroke:#2ca02c;" x="101.250112" xlink:href="#m545072ed24" y="301.478411"/>
     <use style="fill:#2ca02c;stroke:#2ca02c;" x="117.541706" xlink:href="#m545072ed24" y="301.482275"/>
     <use style="fill:#2ca02c;stroke:#2ca02c;" x="133.833299" xlink:href="#m545072ed24" y="301.876781"/>
     <use style="fill:#2ca02c;stroke:#2ca02c;" x="150.124893" xlink:href="#m545072ed24" y="302.394335"/>
     <use style="fill:#2ca02c;stroke:#2ca02c;" x="166.416486" xlink:href="#m545072ed24" y="302.621295"/>
     <use style="fill:#2ca02c;stroke:#2ca02c;" x="182.708079" xlink:href="#m545072ed24" y="302.576364"/>
     <use style="fill:#2ca02c;stroke:#2ca02c;" x="198.999673" xlink:href="#m545072ed24" y="302.817708"/>
     <use style="fill:#2ca02c;stroke:#2ca02c;" x="215.291266" xlink:href="#m545072ed24" y="302.681339"/>
     <use style="fill:#2ca02c;stroke:#2ca02c;" x="231.582859" xlink:href="#m545072ed24" y="302.789739"/>
     <use style="fill:#2ca02c;stroke:#2ca02c;" x="247.874453" xlink:href="#m545072ed24" y="302.989448"/>
     <use style="fill:#2ca02c;stroke:#2ca02c;" x="264.166046" xlink:href="#m545072ed24" y="303.63719"/>
     <use style="fill:#2ca02c;stroke:#2ca02c;" x="280.45764" xlink:href="#m545072ed24" y="303.637576"/>
     <use style="fill:#2ca02c;stroke:#2ca02c;" x="296.749233" xlink:href="#m545072ed24" y="303.636896"/>
     <use style="fill:#2ca02c;stroke:#2ca02c;" x="313.040826" xlink:href="#m545072ed24" y="303.63681"/>
     <use style="fill:#2ca02c;stroke:#2ca02c;" x="329.33242" xlink:href="#m545072ed24" y="303.637321"/>
     <use style="fill:#2ca02c;stroke:#2ca02c;" x="345.624013" xlink:href="#m545072ed24" y="303.637448"/>
     <use style="fill:#2ca02c;stroke:#2ca02c;" x="361.915606" xlink:href="#m545072ed24" y="303.637576"/>
     <use style="fill:#2ca02c;stroke:#2ca02c;" x="378.2072" xlink:href="#m545072ed24" y="303.637321"/>
     <use style="fill:#2ca02c;stroke:#2ca02c;" x="394.498793" xlink:href="#m545072ed24" y="303.63766"/>
     <use style="fill:#2ca02c;stroke:#2ca02c;" x="410.790387" xlink:href="#m545072ed24" y="303.637193"/>
     <use style="fill:#2ca02c;stroke:#2ca02c;" x="427.08198" xlink:href="#m545072ed24" y="303.637427"/>
    </g>
   </g>
   <g id="line2d_16">
    <path clip-path="url(#pf68882f1c8)" d="M 52.375332 273.576307 
L 68.666926 266.520171 
L 84.958519 296.716284 
L 101.250112 274.169758 
L 117.541706 296.115509 
L 133.833299 296.003789 
L 150.124893 297.780801 
L 166.416486 278.821848 
L 182.708079 296.800772 
L 198.999673 291.647997 
L 215.291266 296.48686 
L 231.582859 287.866114 
L 247.874453 290.642959 
L 264.166046 296.680397 
L 280.45764 297.260445 
L 296.749233 299.816702 
L 313.040826 297.013659 
L 329.33242 289.206566 
L 345.624013 298.088272 
L 361.915606 289.16885 
L 378.2072 291.492227 
L 394.498793 295.400834 
L 410.790387 297.824948 
L 427.08198 292.202672 
" style="fill:none;stroke:#d62728;stroke-linecap:square;stroke-width:1.5;"/>
    <defs>
     <path d="M 0 3 
C 0.795609 3 1.55874 2.683901 2.12132 2.12132 
C 2.683901 1.55874 3 0.795609 3 0 
C 3 -0.795609 2.683901 -1.55874 2.12132 -2.12132 
C 1.55874 -2.683901 0.795609 -3 0 -3 
C -0.795609 -3 -1.55874 -2.683901 -2.12132 -2.12132 
C -2.683901 -1.55874 -3 -0.795609 -3 0 
C -3 0.795609 -2.683901 1.55874 -2.12132 2.12132 
C -1.55874 2.683901 -0.795609 3 0 3 
z
" id="m50bc493086" style="stroke:#d62728;"/>
    </defs>
    <g clip-path="url(#pf68882f1c8)">
     <use style="fill:#d62728;stroke:#d62728;" x="52.375332" xlink:href="#m50bc493086" y="273.576307"/>
     <use style="fill:#d62728;stroke:#d62728;" x="68.666926" xlink:href="#m50bc493086" y="266.520171"/>
     <use style="fill:#d62728;stroke:#d62728;" x="84.958519" xlink:href="#m50bc493086" y="296.716284"/>
     <use style="fill:#d62728;stroke:#d62728;" x="101.250112" xlink:href="#m50bc493086" y="274.169758"/>
     <use style="fill:#d62728;stroke:#d62728;" x="117.541706" xlink:href="#m50bc493086" y="296.115509"/>
     <use style="fill:#d62728;stroke:#d62728;" x="133.833299" xlink:href="#m50bc493086" y="296.003789"/>
     <use style="fill:#d62728;stroke:#d62728;" x="150.124893" xlink:href="#m50bc493086" y="297.780801"/>
     <use style="fill:#d62728;stroke:#d62728;" x="166.416486" xlink:href="#m50bc493086" y="278.821848"/>
     <use style="fill:#d62728;stroke:#d62728;" x="182.708079" xlink:href="#m50bc493086" y="296.800772"/>
     <use style="fill:#d62728;stroke:#d62728;" x="198.999673" xlink:href="#m50bc493086" y="291.647997"/>
     <use style="fill:#d62728;stroke:#d62728;" x="215.291266" xlink:href="#m50bc493086" y="296.48686"/>
     <use style="fill:#d62728;stroke:#d62728;" x="231.582859" xlink:href="#m50bc493086" y="287.866114"/>
     <use style="fill:#d62728;stroke:#d62728;" x="247.874453" xlink:href="#m50bc493086" y="290.642959"/>
     <use style="fill:#d62728;stroke:#d62728;" x="264.166046" xlink:href="#m50bc493086" y="296.680397"/>
     <use style="fill:#d62728;stroke:#d62728;" x="280.45764" xlink:href="#m50bc493086" y="297.260445"/>
     <use style="fill:#d62728;stroke:#d62728;" x="296.749233" xlink:href="#m50bc493086" y="299.816702"/>
     <use style="fill:#d62728;stroke:#d62728;" x="313.040826" xlink:href="#m50bc493086" y="297.013659"/>
     <use style="fill:#d62728;stroke:#d62728;" x="329.33242" xlink:href="#m50bc493086" y="289.206566"/>
     <use style="fill:#d62728;stroke:#d62728;" x="345.624013" xlink:href="#m50bc493086" y="298.088272"/>
     <use style="fill:#d62728;stroke:#d62728;" x="361.915606" xlink:href="#m50bc493086" y="289.16885"/>
     <use style="fill:#d62728;stroke:#d62728;" x="378.2072" xlink:href="#m50bc493086" y="291.492227"/>
     <use style="fill:#d62728;stroke:#d62728;" x="394.498793" xlink:href="#m50bc493086" y="295.400834"/>
     <use style="fill:#d62728;stroke:#d62728;" x="410.790387" xlink:href="#m50bc493086" y="297.824948"/>
     <use style="fill:#d62728;stroke:#d62728;" x="427.08198" xlink:href="#m50bc493086" y="292.202672"/>
    </g>
   </g>
   <g id="line2d_17">
    <path clip-path="url(#pf68882f1c8)" d="M 52.375332 276.506667 
L 68.666926 286.196835 
L 84.958519 289.324828 
L 101.250112 291.571875 
L 117.541706 292.011429 
L 133.833299 293.022609 
L 150.124893 294.465624 
L 166.416486 293.003604 
L 182.708079 294.909314 
L 198.999673 295.253333 
L 215.291266 297.404393 
L 231.582859 296.015751 
L 247.874453 296.266288 
L 264.166046 296.867732 
L 280.45764 296.325928 
L 296.749233 299.545561 
L 313.040826 297.223601 
L 329.33242 297.768996 
L 345.624013 299.243757 
L 361.915606 297.780436 
L 378.2072 298.396915 
L 394.498793 298.659582 
L 410.790387 298.368362 
L 427.08198 298.634889 
" style="fill:none;stroke:#9467bd;stroke-linecap:square;stroke-width:1.5;"/>
    <defs>
     <path d="M 0 3 
C 0.795609 3 1.55874 2.683901 2.12132 2.12132 
C 2.683901 1.55874 3 0.795609 3 0 
C 3 -0.795609 2.683901 -1.55874 2.12132 -2.12132 
C 1.55874 -2.683901 0.795609 -3 0 -3 
C -0.795609 -3 -1.55874 -2.683901 -2.12132 -2.12132 
C -2.683901 -1.55874 -3 -0.795609 -3 0 
C -3 0.795609 -2.683901 1.55874 -2.12132 2.12132 
C -1.55874 2.683901 -0.795609 3 0 3 
z
" id="md95b937ef1" style="stroke:#9467bd;"/>
    </defs>
    <g clip-path="url(#pf68882f1c8)">
     <use style="fill:#9467bd;stroke:#9467bd;" x="52.375332" xlink:href="#md95b937ef1" y="276.506667"/>
     <use style="fill:#9467bd;stroke:#9467bd;" x="68.666926" xlink:href="#md95b937ef1" y="286.196835"/>
     <use style="fill:#9467bd;stroke:#9467bd;" x="84.958519" xlink:href="#md95b937ef1" y="289.324828"/>
     <use style="fill:#9467bd;stroke:#9467bd;" x="101.250112" xlink:href="#md95b937ef1" y="291.571875"/>
     <use style="fill:#9467bd;stroke:#9467bd;" x="117.541706" xlink:href="#md95b937ef1" y="292.011429"/>
     <use style="fill:#9467bd;stroke:#9467bd;" x="133.833299" xlink:href="#md95b937ef1" y="293.022609"/>
     <use style="fill:#9467bd;stroke:#9467bd;" x="150.124893" xlink:href="#md95b937ef1" y="294.465624"/>
     <use style="fill:#9467bd;stroke:#9467bd;" x="166.416486" xlink:href="#md95b937ef1" y="293.003604"/>
     <use style="fill:#9467bd;stroke:#9467bd;" x="182.708079" xlink:href="#md95b937ef1" y="294.909314"/>
     <use style="fill:#9467bd;stroke:#9467bd;" x="198.999673" xlink:href="#md95b937ef1" y="295.253333"/>
     <use style="fill:#9467bd;stroke:#9467bd;" x="215.291266" xlink:href="#md95b937ef1" y="297.404393"/>
     <use style="fill:#9467bd;stroke:#9467bd;" x="231.582859" xlink:href="#md95b937ef1" y="296.015751"/>
     <use style="fill:#9467bd;stroke:#9467bd;" x="247.874453" xlink:href="#md95b937ef1" y="296.266288"/>
     <use style="fill:#9467bd;stroke:#9467bd;" x="264.166046" xlink:href="#md95b937ef1" y="296.867732"/>
     <use style="fill:#9467bd;stroke:#9467bd;" x="280.45764" xlink:href="#md95b937ef1" y="296.325928"/>
     <use style="fill:#9467bd;stroke:#9467bd;" x="296.749233" xlink:href="#md95b937ef1" y="299.545561"/>
     <use style="fill:#9467bd;stroke:#9467bd;" x="313.040826" xlink:href="#md95b937ef1" y="297.223601"/>
     <use style="fill:#9467bd;stroke:#9467bd;" x="329.33242" xlink:href="#md95b937ef1" y="297.768996"/>
     <use style="fill:#9467bd;stroke:#9467bd;" x="345.624013" xlink:href="#md95b937ef1" y="299.243757"/>
     <use style="fill:#9467bd;stroke:#9467bd;" x="361.915606" xlink:href="#md95b937ef1" y="297.780436"/>
     <use style="fill:#9467bd;stroke:#9467bd;" x="378.2072" xlink:href="#md95b937ef1" y="298.396915"/>
     <use style="fill:#9467bd;stroke:#9467bd;" x="394.498793" xlink:href="#md95b937ef1" y="298.659582"/>
     <use style="fill:#9467bd;stroke:#9467bd;" x="410.790387" xlink:href="#md95b937ef1" y="298.368362"/>
     <use style="fill:#9467bd;stroke:#9467bd;" x="427.08198" xlink:href="#md95b937ef1" y="298.634889"/>
    </g>
   </g>
   <g id="line2d_18">
    <path clip-path="url(#pf68882f1c8)" d="M 52.375332 274.482596 
L 68.666926 277.720773 
M 101.250112 282.407726 
M 166.416486 285.233148 
M 296.749233 289.521652 
" style="fill:none;stroke:#8c564b;stroke-linecap:square;stroke-width:1.5;"/>
    <defs>
     <path d="M 0 3 
C 0.795609 3 1.55874 2.683901 2.12132 2.12132 
C 2.683901 1.55874 3 0.795609 3 0 
C 3 -0.795609 2.683901 -1.55874 2.12132 -2.12132 
C 1.55874 -2.683901 0.795609 -3 0 -3 
C -0.795609 -3 -1.55874 -2.683901 -2.12132 -2.12132 
C -2.683901 -1.55874 -3 -0.795609 -3 0 
C -3 0.795609 -2.683901 1.55874 -2.12132 2.12132 
C -1.55874 2.683901 -0.795609 3 0 3 
z
" id="mdd4ff67a83" style="stroke:#8c564b;"/>
    </defs>
    <g clip-path="url(#pf68882f1c8)">
     <use style="fill:#8c564b;stroke:#8c564b;" x="52.375332" xlink:href="#mdd4ff67a83" y="274.482596"/>
     <use style="fill:#8c564b;stroke:#8c564b;" x="68.666926" xlink:href="#mdd4ff67a83" y="277.720773"/>
     <use style="fill:#8c564b;stroke:#8c564b;" x="101.250112" xlink:href="#mdd4ff67a83" y="282.407726"/>
     <use style="fill:#8c564b;stroke:#8c564b;" x="166.416486" xlink:href="#mdd4ff67a83" y="285.233148"/>
     <use style="fill:#8c564b;stroke:#8c564b;" x="296.749233" xlink:href="#mdd4ff67a83" y="289.521652"/>
    </g>
   </g>
   <g id="line2d_19">
    <path clip-path="url(#pf68882f1c8)" d="M 52.375332 224.565714 
L 68.666926 272.392903 
L 84.958519 251.0556 
L 101.250112 273.898627 
L 117.541706 276.830678 
L 133.833299 280.161645 
L 150.124893 281.185282 
L 166.416486 282.87556 
L 182.708079 283.629636 
L 198.999673 283.399763 
L 215.291266 285.196773 
L 231.582859 292.298598 
L 247.874453 284.864541 
L 264.166046 284.584342 
L 280.45764 293.373762 
L 296.749233 286.029496 
L 313.040826 292.6834 
L 329.33242 285.282267 
L 345.624013 297.334814 
L 361.915606 288.018862 
L 378.2072 287.733808 
L 394.498793 290.910337 
L 410.790387 288.002061 
L 427.08198 288.282969 
" style="fill:none;stroke:#e377c2;stroke-linecap:square;stroke-width:1.5;"/>
    <defs>
     <path d="M 0 3 
C 0.795609 3 1.55874 2.683901 2.12132 2.12132 
C 2.683901 1.55874 3 0.795609 3 0 
C 3 -0.795609 2.683901 -1.55874 2.12132 -2.12132 
C 1.55874 -2.683901 0.795609 -3 0 -3 
C -0.795609 -3 -1.55874 -2.683901 -2.12132 -2.12132 
C -2.683901 -1.55874 -3 -0.795609 -3 0 
C -3 0.795609 -2.683901 1.55874 -2.12132 2.12132 
C -1.55874 2.683901 -0.795609 3 0 3 
z
" id="m4eee0a43df" style="stroke:#e377c2;"/>
    </defs>
    <g clip-path="url(#pf68882f1c8)">
     <use style="fill:#e377c2;stroke:#e377c2;" x="52.375332" xlink:href="#m4eee0a43df" y="224.565714"/>
     <use style="fill:#e377c2;stroke:#e377c2;" x="68.666926" xlink:href="#m4eee0a43df" y="272.392903"/>
     <use style="fill:#e377c2;stroke:#e377c2;" x="84.958519" xlink:href="#m4eee0a43df" y="251.0556"/>
     <use style="fill:#e377c2;stroke:#e377c2;" x="101.250112" xlink:href="#m4eee0a43df" y="273.898627"/>
     <use style="fill:#e377c2;stroke:#e377c2;" x="117.541706" xlink:href="#m4eee0a43df" y="276.830678"/>
     <use style="fill:#e377c2;stroke:#e377c2;" x="133.833299" xlink:href="#m4eee0a43df" y="280.161645"/>
     <use style="fill:#e377c2;stroke:#e377c2;" x="150.124893" xlink:href="#m4eee0a43df" y="281.185282"/>
     <use style="fill:#e377c2;stroke:#e377c2;" x="166.416486" xlink:href="#m4eee0a43df" y="282.87556"/>
     <use style="fill:#e377c2;stroke:#e377c2;" x="182.708079" xlink:href="#m4eee0a43df" y="283.629636"/>
     <use style="fill:#e377c2;stroke:#e377c2;" x="198.999673" xlink:href="#m4eee0a43df" y="283.399763"/>
     <use style="fill:#e377c2;stroke:#e377c2;" x="215.291266" xlink:href="#m4eee0a43df" y="285.196773"/>
     <use style="fill:#e377c2;stroke:#e377c2;" x="231.582859" xlink:href="#m4eee0a43df" y="292.298598"/>
     <use style="fill:#e377c2;stroke:#e377c2;" x="247.874453" xlink:href="#m4eee0a43df" y="284.864541"/>
     <use style="fill:#e377c2;stroke:#e377c2;" x="264.166046" xlink:href="#m4eee0a43df" y="284.584342"/>
     <use style="fill:#e377c2;stroke:#e377c2;" x="280.45764" xlink:href="#m4eee0a43df" y="293.373762"/>
     <use style="fill:#e377c2;stroke:#e377c2;" x="296.749233" xlink:href="#m4eee0a43df" y="286.029496"/>
     <use style="fill:#e377c2;stroke:#e377c2;" x="313.040826" xlink:href="#m4eee0a43df" y="292.6834"/>
     <use style="fill:#e377c2;stroke:#e377c2;" x="329.33242" xlink:href="#m4eee0a43df" y="285.282267"/>
     <use style="fill:#e377c2;stroke:#e377c2;" x="345.624013" xlink:href="#m4eee0a43df" y="297.334814"/>
     <use style="fill:#e377c2;stroke:#e377c2;" x="361.915606" xlink:href="#m4eee0a43df" y="288.018862"/>
     <use style="fill:#e377c2;stroke:#e377c2;" x="378.2072" xlink:href="#m4eee0a43df" y="287.733808"/>
     <use style="fill:#e377c2;stroke:#e377c2;" x="394.498793" xlink:href="#m4eee0a43df" y="290.910337"/>
     <use style="fill:#e377c2;stroke:#e377c2;" x="410.790387" xlink:href="#m4eee0a43df" y="288.002061"/>
     <use style="fill:#e377c2;stroke:#e377c2;" x="427.08198" xlink:href="#m4eee0a43df" y="288.282969"/>
    </g>
   </g>
   <g id="patch_3">
    <path d="M 33.64 303.64 
L 33.64 26.88 
" style="fill:none;stroke:#000000;stroke-linecap:square;stroke-linejoin:miter;stroke-width:0.8;"/>
   </g>
   <g id="patch_4">
    <path d="M 445.817312 303.64 
L 445.817312 26.88 
" style="fill:none;stroke:#000000;stroke-linecap:square;stroke-linejoin:miter;stroke-width:0.8;"/>
   </g>
   <g id="patch_5">
    <path d="M 33.64 303.64 
L 445.817312 303.64 
" style="fill:none;stroke:#000000;stroke-linecap:square;stroke-linejoin:miter;stroke-width:0.8;"/>
   </g>
   <g id="patch_6">
    <path d="M 33.64 26.88 
L 445.817312 26.88 
" style="fill:none;stroke:#000000;stroke-linecap:square;stroke-linejoin:miter;stroke-width:0.8;"/>
   </g>
   <g id="text_14">
    <!-- Compute ratio (128 vector size) -->
    <g transform="translate(144.106469 20.88)scale(0.12 -0.12)">
     <defs>
      <path d="M 4122 4306 
L 4122 3641 
Q 3803 3938 3442 4084 
Q 3081 4231 2675 4231 
Q 1875 4231 1450 3742 
Q 1025 3253 1025 2328 
Q 1025 1406 1450 917 
Q 1875 428 2675 428 
Q 3081 428 3442 575 
Q 3803 722 4122 1019 
L 4122 359 
Q 3791 134 3420 21 
Q 3050 -91 2638 -91 
Q 1578 -91 968 557 
Q 359 1206 359 2328 
Q 359 3453 968 4101 
Q 1578 4750 2638 4750 
Q 3056 4750 3426 4639 
Q 3797 4528 4122 4306 
z
" id="DejaVuSans-43" transform="scale(0.015625)"/>
      <path d="M 1172 4494 
L 1172 3500 
L 2356 3500 
L 2356 3053 
L 1172 3053 
L 1172 1153 
Q 1172 725 1289 603 
Q 1406 481 1766 481 
L 2356 481 
L 2356 0 
L 1766 0 
Q 1100 0 847 248 
Q 594 497 594 1153 
L 594 3053 
L 172 3053 
L 172 3500 
L 594 3500 
L 594 4494 
L 1172 4494 
z
" id="DejaVuSans-74" transform="scale(0.015625)"/>
      <path d="M 2194 1759 
Q 1497 1759 1228 1600 
Q 959 1441 959 1056 
Q 959 750 1161 570 
Q 1363 391 1709 391 
Q 2188 391 2477 730 
Q 2766 1069 2766 1631 
L 2766 1759 
L 2194 1759 
z
M 3341 1997 
L 3341 0 
L 2766 0 
L 2766 531 
Q 2569 213 2275 61 
Q 1981 -91 1556 -91 
Q 1019 -91 701 211 
Q 384 513 384 1019 
Q 384 1609 779 1909 
Q 1175 2209 1959 2209 
L 2766 2209 
L 2766 2266 
Q 2766 2663 2505 2880 
Q 2244 3097 1772 3097 
Q 1472 3097 1187 3025 
Q 903 2953 641 2809 
L 641 3341 
Q 956 3463 1253 3523 
Q 1550 3584 1831 3584 
Q 2591 3584 2966 3190 
Q 3341 2797 3341 1997 
z
" id="DejaVuSans-61" transform="scale(0.015625)"/>
      <path d="M 603 3500 
L 1178 3500 
L 1178 0 
L 603 0 
L 603 3500 
z
M 603 4863 
L 1178 4863 
L 1178 4134 
L 603 4134 
L 603 4863 
z
" id="DejaVuSans-69" transform="scale(0.015625)"/>
      <path d="M 1984 4856 
Q 1566 4138 1362 3434 
Q 1159 2731 1159 2009 
Q 1159 1288 1364 580 
Q 1569 -128 1984 -844 
L 1484 -844 
Q 1016 -109 783 600 
Q 550 1309 550 2009 
Q 550 2706 781 3412 
Q 1013 4119 1484 4856 
L 1984 4856 
z
" id="DejaVuSans-28" transform="scale(0.015625)"/>
      <path d="M 191 3500 
L 800 3500 
L 1894 563 
L 2988 3500 
L 3597 3500 
L 2284 0 
L 1503 0 
L 191 3500 
z
" id="DejaVuSans-76" transform="scale(0.015625)"/>
      <path d="M 353 3500 
L 3084 3500 
L 3084 2975 
L 922 459 
L 3084 459 
L 3084 0 
L 275 0 
L 275 525 
L 2438 3041 
L 353 3041 
L 353 3500 
z
" id="DejaVuSans-7a" transform="scale(0.015625)"/>
      <path d="M 513 4856 
L 1013 4856 
Q 1481 4119 1714 3412 
Q 1947 2706 1947 2009 
Q 1947 1309 1714 600 
Q 1481 -109 1013 -844 
L 513 -844 
Q 928 -128 1133 580 
Q 1338 1288 1338 2009 
Q 1338 2731 1133 3434 
Q 928 4138 513 4856 
z
" id="DejaVuSans-29" transform="scale(0.015625)"/>
     </defs>
     <use xlink:href="#DejaVuSans-43"/>
     <use x="69.824219" xlink:href="#DejaVuSans-6f"/>
     <use x="131.005859" xlink:href="#DejaVuSans-6d"/>
     <use x="228.417969" xlink:href="#DejaVuSans-70"/>
     <use x="291.894531" xlink:href="#DejaVuSans-75"/>
     <use x="355.273438" xlink:href="#DejaVuSans-74"/>
     <use x="394.482422" xlink:href="#DejaVuSans-65"/>
     <use x="456.005859" xlink:href="#DejaVuSans-20"/>
     <use x="487.792969" xlink:href="#DejaVuSans-72"/>
     <use x="528.90625" xlink:href="#DejaVuSans-61"/>
     <use x="590.185547" xlink:href="#DejaVuSans-74"/>
     <use x="629.394531" xlink:href="#DejaVuSans-69"/>
     <use x="657.177734" xlink:href="#DejaVuSans-6f"/>
     <use x="718.359375" xlink:href="#DejaVuSans-20"/>
     <use x="750.146484" xlink:href="#DejaVuSans-28"/>
     <use x="789.160156" xlink:href="#DejaVuSans-31"/>
     <use x="852.783203" xlink:href="#DejaVuSans-32"/>
     <use x="916.40625" xlink:href="#DejaVuSans-38"/>
     <use x="980.029297" xlink:href="#DejaVuSans-20"/>
     <use x="1011.816406" xlink:href="#DejaVuSans-76"/>
     <use x="1070.996094" xlink:href="#DejaVuSans-65"/>
     <use x="1132.519531" xlink:href="#DejaVuSans-63"/>
     <use x="1187.5" xlink:href="#DejaVuSans-74"/>
     <use x="1226.708984" xlink:href="#DejaVuSans-6f"/>
     <use x="1287.890625" xlink:href="#DejaVuSans-72"/>
     <use x="1329.003906" xlink:href="#DejaVuSans-20"/>
     <use x="1360.791016" xlink:href="#DejaVuSans-73"/>
     <use x="1412.890625" xlink:href="#DejaVuSans-69"/>
     <use x="1440.673828" xlink:href="#DejaVuSans-7a"/>
     <use x="1493.164062" xlink:href="#DejaVuSans-65"/>
     <use x="1554.6875" xlink:href="#DejaVuSans-29"/>
    </g>
   </g>
   <g id="legend_1">
    <g id="patch_7">
     <path d="M 258.964187 152.583125 
L 438.817312 152.583125 
Q 440.817312 152.583125 440.817312 150.583125 
L 440.817312 33.88 
Q 440.817312 31.88 438.817312 31.88 
L 258.964187 31.88 
Q 256.964187 31.88 256.964187 33.88 
L 256.964187 150.583125 
Q 256.964187 152.583125 258.964187 152.583125 
z
" style="fill:#ffffff;opacity:0.8;stroke:#cccccc;stroke-linejoin:miter;"/>
    </g>
    <g id="text_15">
     <!-- implementation -->
     <g transform="translate(309.274344 43.478437)scale(0.1 -0.1)">
      <defs>
       <path d="M 603 4863 
L 1178 4863 
L 1178 0 
L 603 0 
L 603 4863 
z
" id="DejaVuSans-6c" transform="scale(0.015625)"/>
       <path d="M 3513 2113 
L 3513 0 
L 2938 0 
L 2938 2094 
Q 2938 2591 2744 2837 
Q 2550 3084 2163 3084 
Q 1697 3084 1428 2787 
Q 1159 2491 1159 1978 
L 1159 0 
L 581 0 
L 581 3500 
L 1159 3500 
L 1159 2956 
Q 1366 3272 1645 3428 
Q 1925 3584 2291 3584 
Q 2894 3584 3203 3211 
Q 3513 2838 3513 2113 
z
" id="DejaVuSans-6e" transform="scale(0.015625)"/>
      </defs>
      <use xlink:href="#DejaVuSans-69"/>
      <use x="27.783203" xlink:href="#DejaVuSans-6d"/>
      <use x="125.195312" xlink:href="#DejaVuSans-70"/>
      <use x="188.671875" xlink:href="#DejaVuSans-6c"/>
      <use x="216.455078" xlink:href="#DejaVuSans-65"/>
      <use x="277.978516" xlink:href="#DejaVuSans-6d"/>
      <use x="375.390625" xlink:href="#DejaVuSans-65"/>
      <use x="436.914062" xlink:href="#DejaVuSans-6e"/>
      <use x="500.292969" xlink:href="#DejaVuSans-74"/>
      <use x="539.501953" xlink:href="#DejaVuSans-61"/>
      <use x="600.78125" xlink:href="#DejaVuSans-74"/>
      <use x="639.990234" xlink:href="#DejaVuSans-69"/>
      <use x="667.773438" xlink:href="#DejaVuSans-6f"/>
      <use x="728.955078" xlink:href="#DejaVuSans-6e"/>
     </g>
    </g>
    <g id="line2d_20">
     <path d="M 260.964187 54.656563 
L 280.964187 54.656563 
" style="fill:none;stroke:#1f77b4;stroke-linecap:square;stroke-width:1.5;"/>
    </g>
    <g id="line2d_21">
     <g>
      <use style="fill:#1f77b4;stroke:#1f77b4;" x="270.964187" xlink:href="#m20dba5e227" y="54.656563"/>
     </g>
    </g>
    <g id="text_16">
     <!-- allreduce -->
     <g transform="translate(288.964187 58.156563)scale(0.1 -0.1)">
      <defs>
       <path d="M 2906 2969 
L 2906 4863 
L 3481 4863 
L 3481 0 
L 2906 0 
L 2906 525 
Q 2725 213 2448 61 
Q 2172 -91 1784 -91 
Q 1150 -91 751 415 
Q 353 922 353 1747 
Q 353 2572 751 3078 
Q 1150 3584 1784 3584 
Q 2172 3584 2448 3432 
Q 2725 3281 2906 2969 
z
M 947 1747 
Q 947 1113 1208 752 
Q 1469 391 1925 391 
Q 2381 391 2643 752 
Q 2906 1113 2906 1747 
Q 2906 2381 2643 2742 
Q 2381 3103 1925 3103 
Q 1469 3103 1208 2742 
Q 947 2381 947 1747 
z
" id="DejaVuSans-64" transform="scale(0.015625)"/>
      </defs>
      <use xlink:href="#DejaVuSans-61"/>
      <use x="61.279297" xlink:href="#DejaVuSans-6c"/>
      <use x="89.0625" xlink:href="#DejaVuSans-6c"/>
      <use x="116.845703" xlink:href="#DejaVuSans-72"/>
      <use x="155.708984" xlink:href="#DejaVuSans-65"/>
      <use x="217.232422" xlink:href="#DejaVuSans-64"/>
      <use x="280.708984" xlink:href="#DejaVuSans-75"/>
      <use x="344.087891" xlink:href="#DejaVuSans-63"/>
      <use x="399.068359" xlink:href="#DejaVuSans-65"/>
     </g>
    </g>
    <g id="line2d_22">
     <path d="M 260.964187 69.334688 
L 280.964187 69.334688 
" style="fill:none;stroke:#ff7f0e;stroke-linecap:square;stroke-width:1.5;"/>
    </g>
    <g id="line2d_23">
     <g>
      <use style="fill:#ff7f0e;stroke:#ff7f0e;" x="270.964187" xlink:href="#m4cf0ae0ec8" y="69.334688"/>
     </g>
    </g>
    <g id="text_17">
     <!-- allreduce-butterfly -->
     <g transform="translate(288.964187 72.834688)scale(0.1 -0.1)">
      <defs>
       <path d="M 313 2009 
L 1997 2009 
L 1997 1497 
L 313 1497 
L 313 2009 
z
" id="DejaVuSans-2d" transform="scale(0.015625)"/>
       <path d="M 2059 -325 
Q 1816 -950 1584 -1140 
Q 1353 -1331 966 -1331 
L 506 -1331 
L 506 -850 
L 844 -850 
Q 1081 -850 1212 -737 
Q 1344 -625 1503 -206 
L 1606 56 
L 191 3500 
L 800 3500 
L 1894 763 
L 2988 3500 
L 3597 3500 
L 2059 -325 
z
" id="DejaVuSans-79" transform="scale(0.015625)"/>
      </defs>
      <use xlink:href="#DejaVuSans-61"/>
      <use x="61.279297" xlink:href="#DejaVuSans-6c"/>
      <use x="89.0625" xlink:href="#DejaVuSans-6c"/>
      <use x="116.845703" xlink:href="#DejaVuSans-72"/>
      <use x="155.708984" xlink:href="#DejaVuSans-65"/>
      <use x="217.232422" xlink:href="#DejaVuSans-64"/>
      <use x="280.708984" xlink:href="#DejaVuSans-75"/>
      <use x="344.087891" xlink:href="#DejaVuSans-63"/>
      <use x="399.068359" xlink:href="#DejaVuSans-65"/>
      <use x="460.591797" xlink:href="#DejaVuSans-2d"/>
      <use x="496.675781" xlink:href="#DejaVuSans-62"/>
      <use x="560.152344" xlink:href="#DejaVuSans-75"/>
      <use x="623.53125" xlink:href="#DejaVuSans-74"/>
      <use x="662.740234" xlink:href="#DejaVuSans-74"/>
      <use x="701.949219" xlink:href="#DejaVuSans-65"/>
      <use x="763.472656" xlink:href="#DejaVuSans-72"/>
      <use x="804.585938" xlink:href="#DejaVuSans-66"/>
      <use x="839.791016" xlink:href="#DejaVuSans-6c"/>
      <use x="867.574219" xlink:href="#DejaVuSans-79"/>
     </g>
    </g>
    <g id="line2d_24">
     <path d="M 260.964187 84.012812 
L 280.964187 84.012812 
" style="fill:none;stroke:#2ca02c;stroke-linecap:square;stroke-width:1.5;"/>
    </g>
    <g id="line2d_25">
     <g>
      <use style="fill:#2ca02c;stroke:#2ca02c;" x="270.964187" xlink:href="#m545072ed24" y="84.012812"/>
     </g>
    </g>
    <g id="text_18">
     <!-- allreduce-native-basic_linear -->
     <g transform="translate(288.964187 87.512812)scale(0.1 -0.1)">
      <defs>
       <path d="M 3263 -1063 
L 3263 -1509 
L -63 -1509 
L -63 -1063 
L 3263 -1063 
z
" id="DejaVuSans-5f" transform="scale(0.015625)"/>
      </defs>
      <use xlink:href="#DejaVuSans-61"/>
      <use x="61.279297" xlink:href="#DejaVuSans-6c"/>
      <use x="89.0625" xlink:href="#DejaVuSans-6c"/>
      <use x="116.845703" xlink:href="#DejaVuSans-72"/>
      <use x="155.708984" xlink:href="#DejaVuSans-65"/>
      <use x="217.232422" xlink:href="#DejaVuSans-64"/>
      <use x="280.708984" xlink:href="#DejaVuSans-75"/>
      <use x="344.087891" xlink:href="#DejaVuSans-63"/>
      <use x="399.068359" xlink:href="#DejaVuSans-65"/>
      <use x="460.591797" xlink:href="#DejaVuSans-2d"/>
      <use x="496.675781" xlink:href="#DejaVuSans-6e"/>
      <use x="560.054688" xlink:href="#DejaVuSans-61"/>
      <use x="621.333984" xlink:href="#DejaVuSans-74"/>
      <use x="660.542969" xlink:href="#DejaVuSans-69"/>
      <use x="688.326172" xlink:href="#DejaVuSans-76"/>
      <use x="747.505859" xlink:href="#DejaVuSans-65"/>
      <use x="809.029297" xlink:href="#DejaVuSans-2d"/>
      <use x="845.113281" xlink:href="#DejaVuSans-62"/>
      <use x="908.589844" xlink:href="#DejaVuSans-61"/>
      <use x="969.869141" xlink:href="#DejaVuSans-73"/>
      <use x="1021.96875" xlink:href="#DejaVuSans-69"/>
      <use x="1049.751953" xlink:href="#DejaVuSans-63"/>
      <use x="1104.732422" xlink:href="#DejaVuSans-5f"/>
      <use x="1154.732422" xlink:href="#DejaVuSans-6c"/>
      <use x="1182.515625" xlink:href="#DejaVuSans-69"/>
      <use x="1210.298828" xlink:href="#DejaVuSans-6e"/>
      <use x="1273.677734" xlink:href="#DejaVuSans-65"/>
      <use x="1335.201172" xlink:href="#DejaVuSans-61"/>
      <use x="1396.480469" xlink:href="#DejaVuSans-72"/>
     </g>
    </g>
    <g id="line2d_26">
     <path d="M 260.964187 98.969063 
L 280.964187 98.969063 
" style="fill:none;stroke:#d62728;stroke-linecap:square;stroke-width:1.5;"/>
    </g>
    <g id="line2d_27">
     <g>
      <use style="fill:#d62728;stroke:#d62728;" x="270.964187" xlink:href="#m50bc493086" y="98.969063"/>
     </g>
    </g>
    <g id="text_19">
     <!-- allreduce-native-rabenseifner -->
     <g transform="translate(288.964187 102.469063)scale(0.1 -0.1)">
      <use xlink:href="#DejaVuSans-61"/>
      <use x="61.279297" xlink:href="#DejaVuSans-6c"/>
      <use x="89.0625" xlink:href="#DejaVuSans-6c"/>
      <use x="116.845703" xlink:href="#DejaVuSans-72"/>
      <use x="155.708984" xlink:href="#DejaVuSans-65"/>
      <use x="217.232422" xlink:href="#DejaVuSans-64"/>
      <use x="280.708984" xlink:href="#DejaVuSans-75"/>
      <use x="344.087891" xlink:href="#DejaVuSans-63"/>
      <use x="399.068359" xlink:href="#DejaVuSans-65"/>
      <use x="460.591797" xlink:href="#DejaVuSans-2d"/>
      <use x="496.675781" xlink:href="#DejaVuSans-6e"/>
      <use x="560.054688" xlink:href="#DejaVuSans-61"/>
      <use x="621.333984" xlink:href="#DejaVuSans-74"/>
      <use x="660.542969" xlink:href="#DejaVuSans-69"/>
      <use x="688.326172" xlink:href="#DejaVuSans-76"/>
      <use x="747.505859" xlink:href="#DejaVuSans-65"/>
      <use x="809.029297" xlink:href="#DejaVuSans-2d"/>
      <use x="845.113281" xlink:href="#DejaVuSans-72"/>
      <use x="886.226562" xlink:href="#DejaVuSans-61"/>
      <use x="947.505859" xlink:href="#DejaVuSans-62"/>
      <use x="1010.982422" xlink:href="#DejaVuSans-65"/>
      <use x="1072.505859" xlink:href="#DejaVuSans-6e"/>
      <use x="1135.884766" xlink:href="#DejaVuSans-73"/>
      <use x="1187.984375" xlink:href="#DejaVuSans-65"/>
      <use x="1249.507812" xlink:href="#DejaVuSans-69"/>
      <use x="1277.291016" xlink:href="#DejaVuSans-66"/>
      <use x="1312.496094" xlink:href="#DejaVuSans-6e"/>
      <use x="1375.875" xlink:href="#DejaVuSans-65"/>
      <use x="1437.398438" xlink:href="#DejaVuSans-72"/>
     </g>
    </g>
    <g id="line2d_28">
     <path d="M 260.964187 113.647188 
L 280.964187 113.647188 
" style="fill:none;stroke:#9467bd;stroke-linecap:square;stroke-width:1.5;"/>
    </g>
    <g id="line2d_29">
     <g>
      <use style="fill:#9467bd;stroke:#9467bd;" x="270.964187" xlink:href="#md95b937ef1" y="113.647188"/>
     </g>
    </g>
    <g id="text_20">
     <!-- allreduce-native-ring -->
     <g transform="translate(288.964187 117.147188)scale(0.1 -0.1)">
      <defs>
       <path d="M 2906 1791 
Q 2906 2416 2648 2759 
Q 2391 3103 1925 3103 
Q 1463 3103 1205 2759 
Q 947 2416 947 1791 
Q 947 1169 1205 825 
Q 1463 481 1925 481 
Q 2391 481 2648 825 
Q 2906 1169 2906 1791 
z
M 3481 434 
Q 3481 -459 3084 -895 
Q 2688 -1331 1869 -1331 
Q 1566 -1331 1297 -1286 
Q 1028 -1241 775 -1147 
L 775 -588 
Q 1028 -725 1275 -790 
Q 1522 -856 1778 -856 
Q 2344 -856 2625 -561 
Q 2906 -266 2906 331 
L 2906 616 
Q 2728 306 2450 153 
Q 2172 0 1784 0 
Q 1141 0 747 490 
Q 353 981 353 1791 
Q 353 2603 747 3093 
Q 1141 3584 1784 3584 
Q 2172 3584 2450 3431 
Q 2728 3278 2906 2969 
L 2906 3500 
L 3481 3500 
L 3481 434 
z
" id="DejaVuSans-67" transform="scale(0.015625)"/>
      </defs>
      <use xlink:href="#DejaVuSans-61"/>
      <use x="61.279297" xlink:href="#DejaVuSans-6c"/>
      <use x="89.0625" xlink:href="#DejaVuSans-6c"/>
      <use x="116.845703" xlink:href="#DejaVuSans-72"/>
      <use x="155.708984" xlink:href="#DejaVuSans-65"/>
      <use x="217.232422" xlink:href="#DejaVuSans-64"/>
      <use x="280.708984" xlink:href="#DejaVuSans-75"/>
      <use x="344.087891" xlink:href="#DejaVuSans-63"/>
      <use x="399.068359" xlink:href="#DejaVuSans-65"/>
      <use x="460.591797" xlink:href="#DejaVuSans-2d"/>
      <use x="496.675781" xlink:href="#DejaVuSans-6e"/>
      <use x="560.054688" xlink:href="#DejaVuSans-61"/>
      <use x="621.333984" xlink:href="#DejaVuSans-74"/>
      <use x="660.542969" xlink:href="#DejaVuSans-69"/>
      <use x="688.326172" xlink:href="#DejaVuSans-76"/>
      <use x="747.505859" xlink:href="#DejaVuSans-65"/>
      <use x="809.029297" xlink:href="#DejaVuSans-2d"/>
      <use x="845.113281" xlink:href="#DejaVuSans-72"/>
      <use x="886.226562" xlink:href="#DejaVuSans-69"/>
      <use x="914.009766" xlink:href="#DejaVuSans-6e"/>
      <use x="977.388672" xlink:href="#DejaVuSans-67"/>
     </g>
    </g>
    <g id="line2d_30">
     <path d="M 260.964187 128.325312 
L 280.964187 128.325312 
" style="fill:none;stroke:#8c564b;stroke-linecap:square;stroke-width:1.5;"/>
    </g>
    <g id="line2d_31">
     <g>
      <use style="fill:#8c564b;stroke:#8c564b;" x="270.964187" xlink:href="#mdd4ff67a83" y="128.325312"/>
     </g>
    </g>
    <g id="text_21">
     <!-- allreduce-rabenseifner -->
     <g transform="translate(288.964187 131.825312)scale(0.1 -0.1)">
      <use xlink:href="#DejaVuSans-61"/>
      <use x="61.279297" xlink:href="#DejaVuSans-6c"/>
      <use x="89.0625" xlink:href="#DejaVuSans-6c"/>
      <use x="116.845703" xlink:href="#DejaVuSans-72"/>
      <use x="155.708984" xlink:href="#DejaVuSans-65"/>
      <use x="217.232422" xlink:href="#DejaVuSans-64"/>
      <use x="280.708984" xlink:href="#DejaVuSans-75"/>
      <use x="344.087891" xlink:href="#DejaVuSans-63"/>
      <use x="399.068359" xlink:href="#DejaVuSans-65"/>
      <use x="460.591797" xlink:href="#DejaVuSans-2d"/>
      <use x="496.675781" xlink:href="#DejaVuSans-72"/>
      <use x="537.789062" xlink:href="#DejaVuSans-61"/>
      <use x="599.068359" xlink:href="#DejaVuSans-62"/>
      <use x="662.544922" xlink:href="#DejaVuSans-65"/>
      <use x="724.068359" xlink:href="#DejaVuSans-6e"/>
      <use x="787.447266" xlink:href="#DejaVuSans-73"/>
      <use x="839.546875" xlink:href="#DejaVuSans-65"/>
      <use x="901.070312" xlink:href="#DejaVuSans-69"/>
      <use x="928.853516" xlink:href="#DejaVuSans-66"/>
      <use x="964.058594" xlink:href="#DejaVuSans-6e"/>
      <use x="1027.4375" xlink:href="#DejaVuSans-65"/>
      <use x="1088.960938" xlink:href="#DejaVuSans-72"/>
     </g>
    </g>
    <g id="line2d_32">
     <path d="M 260.964187 143.003438 
L 280.964187 143.003438 
" style="fill:none;stroke:#e377c2;stroke-linecap:square;stroke-width:1.5;"/>
    </g>
    <g id="line2d_33">
     <g>
      <use style="fill:#e377c2;stroke:#e377c2;" x="270.964187" xlink:href="#m4eee0a43df" y="143.003438"/>
     </g>
    </g>
    <g id="text_22">
     <!-- allreduce-ring -->
     <g transform="translate(288.964187 146.503438)scale(0.1 -0.1)">
      <use xlink:href="#DejaVuSans-61"/>
      <use x="61.279297" xlink:href="#DejaVuSans-6c"/>
      <use x="89.0625" xlink:href="#DejaVuSans-6c"/>
      <use x="116.845703" xlink:href="#DejaVuSans-72"/>
      <use x="155.708984" xlink:href="#DejaVuSans-65"/>
      <use x="217.232422" xlink:href="#DejaVuSans-64"/>
      <use x="280.708984" xlink:href="#DejaVuSans-75"/>
      <use x="344.087891" xlink:href="#DejaVuSans-63"/>
      <use x="399.068359" xlink:href="#DejaVuSans-65"/>
      <use x="460.591797" xlink:href="#DejaVuSans-2d"/>
      <use x="496.675781" xlink:href="#DejaVuSans-72"/>
      <use x="537.789062" xlink:href="#DejaVuSans-69"/>
      <use x="565.572266" xlink:href="#DejaVuSans-6e"/>
      <use x="628.951172" xlink:href="#DejaVuSans-67"/>
     </g>
    </g>
   </g>
  </g>
 </g>
 <defs>
  <clipPath id="pf68882f1c8">
   <rect height="276.76" width="412.177312" x="33.64" y="26.88"/>
  </clipPath>
 </defs>
</svg>
