<?xml version="1.0" encoding="utf-8" standalone="no"?>
<!DOCTYPE svg PUBLIC "-//W3C//DTD SVG 1.1//EN"
  "http://www.w3.org/Graphics/SVG/1.1/DTD/svg11.dtd">
<!-- Created with matplotlib (https://matplotlib.org/) -->
<svg height="345.6pt" version="1.1" viewBox="0 0 460.8 345.6" width="460.8pt" xmlns="http://www.w3.org/2000/svg" xmlns:xlink="http://www.w3.org/1999/xlink">
 <metadata>
  <rdf:RDF xmlns:cc="http://creativecommons.org/ns#" xmlns:dc="http://purl.org/dc/elements/1.1/" xmlns:rdf="http://www.w3.org/1999/02/22-rdf-syntax-ns#">
   <cc:Work>
    <dc:type rdf:resource="http://purl.org/dc/dcmitype/StillImage"/>
    <dc:date>2021-11-14T16:09:17.816547</dc:date>
    <dc:format>image/svg+xml</dc:format>
    <dc:creator>
     <cc:Agent>
      <dc:title>Matplotlib v3.3.4, https://matplotlib.org/</dc:title>
     </cc:Agent>
    </dc:creator>
   </cc:Work>
  </rdf:RDF>
 </metadata>
 <defs>
  <style type="text/css">*{stroke-linecap:butt;stroke-linejoin:round;}</style>
 </defs>
 <g id="figure_1">
  <g id="patch_1">
   <path d="M 0 345.6 
L 460.8 345.6 
L 460.8 0 
L 0 0 
z
" style="fill:#ffffff;"/>
  </g>
  <g id="axes_1">
   <g id="patch_2">
    <path d="M 47.72 288.25 
L 450 288.25 
L 450 26.88 
L 47.72 26.88 
z
" style="fill:#ffffff;"/>
   </g>
   <g id="patch_3">
    <path clip-path="url(#p1ce1233224)" d="M 57.777 288.25 
L 60.011889 288.25 
L 60.011889 286.755992 
L 57.777 286.755992 
z
" style="fill:#1f77b4;"/>
   </g>
   <g id="patch_4">
    <path clip-path="url(#p1ce1233224)" d="M 98.005 288.25 
L 100.239889 288.25 
L 100.239889 286.767059 
L 98.005 286.767059 
z
" style="fill:#1f77b4;"/>
   </g>
   <g id="patch_5">
    <path clip-path="url(#p1ce1233224)" d="M 138.233 288.25 
L 140.467889 288.25 
L 140.467889 286.755992 
L 138.233 286.755992 
z
" style="fill:#1f77b4;"/>
   </g>
   <g id="patch_6">
    <path clip-path="url(#p1ce1233224)" d="M 178.461 288.25 
L 180.695889 288.25 
L 180.695889 268.352031 
L 178.461 268.352031 
z
" style="fill:#1f77b4;"/>
   </g>
   <g id="patch_7">
    <path clip-path="url(#p1ce1233224)" d="M 218.689 288.25 
L 220.923889 288.25 
L 220.923889 286.767059 
L 218.689 286.767059 
z
" style="fill:#1f77b4;"/>
   </g>
   <g id="patch_8">
    <path clip-path="url(#p1ce1233224)" d="M 258.917 288.25 
L 261.151889 288.25 
L 261.151889 267.699095 
L 258.917 267.699095 
z
" style="fill:#1f77b4;"/>
   </g>
   <g id="patch_9">
    <path clip-path="url(#p1ce1233224)" d="M 299.145 288.25 
L 301.379889 288.25 
L 301.379889 266.404288 
L 299.145 266.404288 
z
" style="fill:#1f77b4;"/>
   </g>
   <g id="patch_10">
    <path clip-path="url(#p1ce1233224)" d="M 339.373 288.25 
L 341.607889 288.25 
L 341.607889 260.051989 
L 339.373 260.051989 
z
" style="fill:#1f77b4;"/>
   </g>
   <g id="patch_11">
    <path clip-path="url(#p1ce1233224)" d="M 379.601 288.25 
L 381.835889 288.25 
L 381.835889 243.285903 
L 379.601 243.285903 
z
" style="fill:#1f77b4;"/>
   </g>
   <g id="patch_12">
    <path clip-path="url(#p1ce1233224)" d="M 419.829 288.25 
L 422.063889 288.25 
L 422.063889 175.967024 
L 419.829 175.967024 
z
" style="fill:#1f77b4;"/>
   </g>
   <g id="patch_13">
    <path clip-path="url(#p1ce1233224)" d="M 60.011889 288.25 
L 62.246778 288.25 
L 62.246778 286.755992 
L 60.011889 286.755992 
z
" style="fill:#ff7f0e;"/>
   </g>
   <g id="patch_14">
    <path clip-path="url(#p1ce1233224)" d="M 100.239889 288.25 
L 102.474778 288.25 
L 102.474778 286.744926 
L 100.239889 286.744926 
z
" style="fill:#ff7f0e;"/>
   </g>
   <g id="patch_15">
    <path clip-path="url(#p1ce1233224)" d="M 140.467889 288.25 
L 142.702778 288.25 
L 142.702778 267.798695 
L 140.467889 267.798695 
z
" style="fill:#ff7f0e;"/>
   </g>
   <g id="patch_16">
    <path clip-path="url(#p1ce1233224)" d="M 180.695889 288.25 
L 182.930778 288.25 
L 182.930778 286.800259 
L 180.695889 286.800259 
z
" style="fill:#ff7f0e;"/>
   </g>
   <g id="patch_17">
    <path clip-path="url(#p1ce1233224)" d="M 220.923889 288.25 
L 223.158778 288.25 
L 223.158778 267.854029 
L 220.923889 267.854029 
z
" style="fill:#ff7f0e;"/>
   </g>
   <g id="patch_18">
    <path clip-path="url(#p1ce1233224)" d="M 261.151889 288.25 
L 263.386778 288.25 
L 263.386778 266.592422 
L 261.151889 266.592422 
z
" style="fill:#ff7f0e;"/>
   </g>
   <g id="patch_19">
    <path clip-path="url(#p1ce1233224)" d="M 301.379889 288.25 
L 303.614778 288.25 
L 303.614778 266.105486 
L 301.379889 266.105486 
z
" style="fill:#ff7f0e;"/>
   </g>
   <g id="patch_20">
    <path clip-path="url(#p1ce1233224)" d="M 341.607889 288.25 
L 343.842778 288.25 
L 343.842778 259.908121 
L 341.607889 259.908121 
z
" style="fill:#ff7f0e;"/>
   </g>
   <g id="patch_21">
    <path clip-path="url(#p1ce1233224)" d="M 381.835889 288.25 
L 384.070778 288.25 
L 384.070778 243.451904 
L 381.835889 243.451904 
z
" style="fill:#ff7f0e;"/>
   </g>
   <g id="patch_22">
    <path clip-path="url(#p1ce1233224)" d="M 422.063889 288.25 
L 424.298778 288.25 
L 424.298778 175.369421 
L 422.063889 175.369421 
z
" style="fill:#ff7f0e;"/>
   </g>
   <g id="patch_23">
    <path clip-path="url(#p1ce1233224)" d="M 62.246778 288.25 
L 64.481667 288.25 
L 64.481667 286.755992 
L 62.246778 286.755992 
z
" style="fill:#2ca02c;"/>
   </g>
   <g id="patch_24">
    <path clip-path="url(#p1ce1233224)" d="M 102.474778 288.25 
L 104.709667 288.25 
L 104.709667 286.744926 
L 102.474778 286.744926 
z
" style="fill:#2ca02c;"/>
   </g>
   <g id="patch_25">
    <path clip-path="url(#p1ce1233224)" d="M 142.702778 288.25 
L 144.937667 288.25 
L 144.937667 286.755992 
L 142.702778 286.755992 
z
" style="fill:#2ca02c;"/>
   </g>
   <g id="patch_26">
    <path clip-path="url(#p1ce1233224)" d="M 182.930778 288.25 
L 185.165667 288.25 
L 185.165667 286.89986 
L 182.930778 286.89986 
z
" style="fill:#2ca02c;"/>
   </g>
   <g id="patch_27">
    <path clip-path="url(#p1ce1233224)" d="M 223.158778 288.25 
L 225.393667 288.25 
L 225.393667 286.755992 
L 223.158778 286.755992 
z
" style="fill:#2ca02c;"/>
   </g>
   <g id="patch_28">
    <path clip-path="url(#p1ce1233224)" d="M 263.386778 288.25 
L 265.621667 288.25 
L 265.621667 267.610561 
L 263.386778 267.610561 
z
" style="fill:#2ca02c;"/>
   </g>
   <g id="patch_29">
    <path clip-path="url(#p1ce1233224)" d="M 303.614778 288.25 
L 305.849667 288.25 
L 305.849667 264.77748 
L 303.614778 264.77748 
z
" style="fill:#2ca02c;"/>
   </g>
   <g id="patch_30">
    <path clip-path="url(#p1ce1233224)" d="M 343.842778 288.25 
L 346.077667 288.25 
L 346.077667 254.075958 
L 343.842778 254.075958 
z
" style="fill:#2ca02c;"/>
   </g>
   <g id="patch_31">
    <path clip-path="url(#p1ce1233224)" d="M 384.070778 288.25 
L 386.305667 288.25 
L 386.305667 220.034717 
L 384.070778 220.034717 
z
" style="fill:#2ca02c;"/>
   </g>
   <g id="patch_32">
    <path clip-path="url(#p1ce1233224)" d="M 424.298778 288.25 
L 426.533667 288.25 
L 426.533667 84.68869 
L 424.298778 84.68869 
z
" style="fill:#2ca02c;"/>
   </g>
   <g id="patch_33">
    <path clip-path="url(#p1ce1233224)" d="M 64.481667 288.25 
L 66.716556 288.25 
L 66.716556 286.778126 
L 64.481667 286.778126 
z
" style="fill:#d62728;"/>
   </g>
   <g id="patch_34">
    <path clip-path="url(#p1ce1233224)" d="M 104.709667 288.25 
L 106.944556 288.25 
L 106.944556 286.744926 
L 104.709667 286.744926 
z
" style="fill:#d62728;"/>
   </g>
   <g id="patch_35">
    <path clip-path="url(#p1ce1233224)" d="M 144.937667 288.25 
L 147.172556 288.25 
L 147.172556 286.755992 
L 144.937667 286.755992 
z
" style="fill:#d62728;"/>
   </g>
   <g id="patch_36">
    <path clip-path="url(#p1ce1233224)" d="M 185.165667 288.25 
L 187.400556 288.25 
L 187.400556 286.755992 
L 185.165667 286.755992 
z
" style="fill:#d62728;"/>
   </g>
   <g id="patch_37">
    <path clip-path="url(#p1ce1233224)" d="M 225.393667 288.25 
L 227.628556 288.25 
L 227.628556 286.789193 
L 225.393667 286.789193 
z
" style="fill:#d62728;"/>
   </g>
   <g id="patch_38">
    <path clip-path="url(#p1ce1233224)" d="M 265.621667 288.25 
L 267.856556 288.25 
L 267.856556 266.205087 
L 265.621667 266.205087 
z
" style="fill:#d62728;"/>
   </g>
   <g id="patch_39">
    <path clip-path="url(#p1ce1233224)" d="M 305.849667 288.25 
L 308.084556 288.25 
L 308.084556 265.087348 
L 305.849667 265.087348 
z
" style="fill:#d62728;"/>
   </g>
   <g id="patch_40">
    <path clip-path="url(#p1ce1233224)" d="M 346.077667 288.25 
L 348.312556 288.25 
L 348.312556 254.961296 
L 346.077667 254.961296 
z
" style="fill:#d62728;"/>
   </g>
   <g id="patch_41">
    <path clip-path="url(#p1ce1233224)" d="M 386.305667 288.25 
L 388.540556 288.25 
L 388.540556 220.477386 
L 386.305667 220.477386 
z
" style="fill:#d62728;"/>
   </g>
   <g id="patch_42">
    <path clip-path="url(#p1ce1233224)" d="M 426.533667 288.25 
L 428.768556 288.25 
L 428.768556 85.020691 
L 426.533667 85.020691 
z
" style="fill:#d62728;"/>
   </g>
   <g id="patch_43">
    <path clip-path="url(#p1ce1233224)" d="M 66.716556 288.25 
L 68.951444 288.25 
L 68.951444 286.778126 
L 66.716556 286.778126 
z
" style="fill:#9467bd;"/>
   </g>
   <g id="patch_44">
    <path clip-path="url(#p1ce1233224)" d="M 106.944556 288.25 
L 109.179444 288.25 
L 109.179444 286.744926 
L 106.944556 286.744926 
z
" style="fill:#9467bd;"/>
   </g>
   <g id="patch_45">
    <path clip-path="url(#p1ce1233224)" d="M 147.172556 288.25 
L 149.407444 288.25 
L 149.407444 286.755992 
L 147.172556 286.755992 
z
" style="fill:#9467bd;"/>
   </g>
   <g id="patch_46">
    <path clip-path="url(#p1ce1233224)" d="M 187.400556 288.25 
L 189.635444 288.25 
L 189.635444 286.89986 
L 187.400556 286.89986 
z
" style="fill:#9467bd;"/>
   </g>
   <g id="patch_47">
    <path clip-path="url(#p1ce1233224)" d="M 227.628556 288.25 
L 229.863444 288.25 
L 229.863444 267.522027 
L 227.628556 267.522027 
z
" style="fill:#9467bd;"/>
   </g>
   <g id="patch_48">
    <path clip-path="url(#p1ce1233224)" d="M 267.856556 288.25 
L 270.091444 288.25 
L 270.091444 267.754428 
L 267.856556 267.754428 
z
" style="fill:#9467bd;"/>
   </g>
   <g id="patch_49">
    <path clip-path="url(#p1ce1233224)" d="M 308.084556 288.25 
L 310.319444 288.25 
L 310.319444 263.250272 
L 308.084556 263.250272 
z
" style="fill:#9467bd;"/>
   </g>
   <g id="patch_50">
    <path clip-path="url(#p1ce1233224)" d="M 348.312556 288.25 
L 350.547444 288.25 
L 350.547444 254.518627 
L 348.312556 254.518627 
z
" style="fill:#9467bd;"/>
   </g>
   <g id="patch_51">
    <path clip-path="url(#p1ce1233224)" d="M 388.540556 288.25 
L 390.775444 288.25 
L 390.775444 218.983378 
L 388.540556 218.983378 
z
" style="fill:#9467bd;"/>
   </g>
   <g id="patch_52">
    <path clip-path="url(#p1ce1233224)" d="M 428.768556 288.25 
L 431.003444 288.25 
L 431.003444 80.450135 
L 428.768556 80.450135 
z
" style="fill:#9467bd;"/>
   </g>
   <g id="patch_53">
    <path clip-path="url(#p1ce1233224)" d="M 68.951444 288.25 
L 71.186333 288.25 
L 71.186333 286.744926 
L 68.951444 286.744926 
z
" style="fill:#8c564b;"/>
   </g>
   <g id="patch_54">
    <path clip-path="url(#p1ce1233224)" d="M 109.179444 288.25 
L 111.414333 288.25 
L 111.414333 287.165461 
L 109.179444 287.165461 
z
" style="fill:#8c564b;"/>
   </g>
   <g id="patch_55">
    <path clip-path="url(#p1ce1233224)" d="M 149.407444 288.25 
L 151.642333 288.25 
L 151.642333 286.789193 
L 149.407444 286.789193 
z
" style="fill:#8c564b;"/>
   </g>
   <g id="patch_56">
    <path clip-path="url(#p1ce1233224)" d="M 189.635444 288.25 
L 191.870333 288.25 
L 191.870333 286.811326 
L 189.635444 286.811326 
z
" style="fill:#8c564b;"/>
   </g>
   <g id="patch_57">
    <path clip-path="url(#p1ce1233224)" d="M 229.863444 288.25 
L 232.098333 288.25 
L 232.098333 286.744926 
L 229.863444 286.744926 
z
" style="fill:#8c564b;"/>
   </g>
   <g id="patch_58">
    <path clip-path="url(#p1ce1233224)" d="M 270.091444 288.25 
L 272.326333 288.25 
L 272.326333 267.743362 
L 270.091444 267.743362 
z
" style="fill:#8c564b;"/>
   </g>
   <g id="patch_59">
    <path clip-path="url(#p1ce1233224)" d="M 310.319444 288.25 
L 312.554333 288.25 
L 312.554333 264.401211 
L 310.319444 264.401211 
z
" style="fill:#8c564b;"/>
   </g>
   <g id="patch_60">
    <path clip-path="url(#p1ce1233224)" d="M 350.547444 288.25 
L 352.782333 288.25 
L 352.782333 252.294216 
L 350.547444 252.294216 
z
" style="fill:#8c564b;"/>
   </g>
   <g id="patch_61">
    <path clip-path="url(#p1ce1233224)" d="M 390.775444 288.25 
L 393.010333 288.25 
L 393.010333 210.174266 
L 390.775444 210.174266 
z
" style="fill:#8c564b;"/>
   </g>
   <g id="patch_62">
    <path clip-path="url(#p1ce1233224)" d="M 431.003444 288.25 
L 433.238333 288.25 
L 433.238333 39.32619 
L 431.003444 39.32619 
z
" style="fill:#8c564b;"/>
   </g>
   <g id="patch_63">
    <path clip-path="url(#p1ce1233224)" d="M 71.186333 288.25 
L 73.421222 288.25 
L 73.421222 286.744926 
L 71.186333 286.744926 
z
" style="fill:#e377c2;"/>
   </g>
   <g id="patch_64">
    <path clip-path="url(#p1ce1233224)" d="M 111.414333 288.25 
L 113.649222 288.25 
L 113.649222 265.983753 
L 111.414333 265.983753 
z
" style="fill:#e377c2;"/>
   </g>
   <g id="patch_65">
    <path clip-path="url(#p1ce1233224)" d="M 151.642333 288.25 
L 153.877222 288.25 
L 153.877222 286.755992 
L 151.642333 286.755992 
z
" style="fill:#e377c2;"/>
   </g>
   <g id="patch_66">
    <path clip-path="url(#p1ce1233224)" d="M 191.870333 288.25 
L 194.105222 288.25 
L 194.105222 286.910926 
L 191.870333 286.910926 
z
" style="fill:#e377c2;"/>
   </g>
   <g id="patch_67">
    <path clip-path="url(#p1ce1233224)" d="M 232.098333 288.25 
L 234.333222 288.25 
L 234.333222 286.844526 
L 232.098333 286.844526 
z
" style="fill:#e377c2;"/>
   </g>
   <g id="patch_68">
    <path clip-path="url(#p1ce1233224)" d="M 272.326333 288.25 
L 274.561222 288.25 
L 274.561222 267.643761 
L 272.326333 267.643761 
z
" style="fill:#e377c2;"/>
   </g>
   <g id="patch_69">
    <path clip-path="url(#p1ce1233224)" d="M 312.554333 288.25 
L 314.789222 288.25 
L 314.789222 264.81068 
L 312.554333 264.81068 
z
" style="fill:#e377c2;"/>
   </g>
   <g id="patch_70">
    <path clip-path="url(#p1ce1233224)" d="M 352.782333 288.25 
L 355.017222 288.25 
L 355.017222 256.676638 
L 352.782333 256.676638 
z
" style="fill:#e377c2;"/>
   </g>
   <g id="patch_71">
    <path clip-path="url(#p1ce1233224)" d="M 393.010333 288.25 
L 395.245222 288.25 
L 395.245222 219.448181 
L 393.010333 219.448181 
z
" style="fill:#e377c2;"/>
   </g>
   <g id="patch_72">
    <path clip-path="url(#p1ce1233224)" d="M 433.238333 288.25 
L 435.473222 288.25 
L 435.473222 75.824244 
L 433.238333 75.824244 
z
" style="fill:#e377c2;"/>
   </g>
   <g id="patch_73">
    <path clip-path="url(#p1ce1233224)" d="M 73.421222 288.25 
L 75.656111 288.25 
L 75.656111 287.165461 
L 73.421222 287.165461 
z
" style="fill:#7f7f7f;"/>
   </g>
   <g id="patch_74">
    <path clip-path="url(#p1ce1233224)" d="M 113.649222 288.25 
L 115.884111 288.25 
L 115.884111 286.755992 
L 113.649222 286.755992 
z
" style="fill:#7f7f7f;"/>
   </g>
   <g id="patch_75">
    <path clip-path="url(#p1ce1233224)" d="M 153.877222 288.25 
L 156.112111 288.25 
L 156.112111 286.789193 
L 153.877222 286.789193 
z
" style="fill:#7f7f7f;"/>
   </g>
   <g id="patch_76">
    <path clip-path="url(#p1ce1233224)" d="M 194.105222 288.25 
L 196.340111 288.25 
L 196.340111 286.89986 
L 194.105222 286.89986 
z
" style="fill:#7f7f7f;"/>
   </g>
   <g id="patch_77">
    <path clip-path="url(#p1ce1233224)" d="M 234.333222 288.25 
L 236.568111 288.25 
L 236.568111 267.101492 
L 234.333222 267.101492 
z
" style="fill:#7f7f7f;"/>
   </g>
   <g id="patch_78">
    <path clip-path="url(#p1ce1233224)" d="M 274.561222 288.25 
L 276.796111 288.25 
L 276.796111 267.333893 
L 274.561222 267.333893 
z
" style="fill:#7f7f7f;"/>
   </g>
   <g id="patch_79">
    <path clip-path="url(#p1ce1233224)" d="M 314.789222 288.25 
L 317.024111 288.25 
L 317.024111 264.489745 
L 314.789222 264.489745 
z
" style="fill:#7f7f7f;"/>
   </g>
   <g id="patch_80">
    <path clip-path="url(#p1ce1233224)" d="M 355.017222 288.25 
L 357.252111 288.25 
L 357.252111 252.360616 
L 355.017222 252.360616 
z
" style="fill:#7f7f7f;"/>
   </g>
   <g id="patch_81">
    <path clip-path="url(#p1ce1233224)" d="M 395.245222 288.25 
L 397.480111 288.25 
L 397.480111 209.820131 
L 395.245222 209.820131 
z
" style="fill:#7f7f7f;"/>
   </g>
   <g id="patch_82">
    <path clip-path="url(#p1ce1233224)" d="M 435.473222 288.25 
L 437.708111 288.25 
L 437.708111 39.525391 
L 435.473222 39.525391 
z
" style="fill:#7f7f7f;"/>
   </g>
   <g id="patch_83">
    <path clip-path="url(#p1ce1233224)" d="M 75.656111 288.25 
L 77.891 288.25 
L 77.891 287.165461 
L 75.656111 287.165461 
z
" style="fill:#bcbd22;"/>
   </g>
   <g id="patch_84">
    <path clip-path="url(#p1ce1233224)" d="M 115.884111 288.25 
L 118.119 288.25 
L 118.119 286.755992 
L 115.884111 286.755992 
z
" style="fill:#bcbd22;"/>
   </g>
   <g id="patch_85">
    <path clip-path="url(#p1ce1233224)" d="M 156.112111 288.25 
L 158.347 288.25 
L 158.347 268.639766 
L 156.112111 268.639766 
z
" style="fill:#bcbd22;"/>
   </g>
   <g id="patch_86">
    <path clip-path="url(#p1ce1233224)" d="M 196.340111 288.25 
L 198.575 288.25 
L 198.575 286.910926 
L 196.340111 286.910926 
z
" style="fill:#bcbd22;"/>
   </g>
   <g id="patch_87">
    <path clip-path="url(#p1ce1233224)" d="M 236.568111 288.25 
L 238.803 288.25 
L 238.803 288.227867 
L 236.568111 288.227867 
z
" style="fill:#bcbd22;"/>
   </g>
   <g id="patch_88">
    <path clip-path="url(#p1ce1233224)" d="M 276.796111 288.25 
L 279.031 288.25 
L 279.031 267.035091 
L 276.796111 267.035091 
z
" style="fill:#bcbd22;"/>
   </g>
   <g id="patch_89">
    <path clip-path="url(#p1ce1233224)" d="M 317.024111 288.25 
L 319.259 288.25 
L 319.259 266.116553 
L 317.024111 266.116553 
z
" style="fill:#bcbd22;"/>
   </g>
   <g id="patch_90">
    <path clip-path="url(#p1ce1233224)" d="M 357.252111 288.25 
L 359.487 288.25 
L 359.487 262.077199 
L 357.252111 262.077199 
z
" style="fill:#bcbd22;"/>
   </g>
   <g id="patch_91">
    <path clip-path="url(#p1ce1233224)" d="M 397.480111 288.25 
L 399.715 288.25 
L 399.715 244.414709 
L 397.480111 244.414709 
z
" style="fill:#bcbd22;"/>
   </g>
   <g id="patch_92">
    <path clip-path="url(#p1ce1233224)" d="M 437.708111 288.25 
L 439.943 288.25 
L 439.943 175.03742 
L 437.708111 175.03742 
z
" style="fill:#bcbd22;"/>
   </g>
   <g id="matplotlib.axis_1">
    <g id="xtick_1">
     <g id="line2d_1">
      <defs>
       <path d="M 0 0 
L 0 3.5 
" id="mfdc02a5e3b" style="stroke:#000000;stroke-width:0.8;"/>
      </defs>
      <g>
       <use style="stroke:#000000;stroke-width:0.8;" x="67.834" xlink:href="#mfdc02a5e3b" y="288.25"/>
      </g>
     </g>
     <g id="text_1">
      <!-- 16 -->
      <g transform="translate(70.593375 307.975)rotate(-90)scale(0.1 -0.1)">
       <defs>
        <path d="M 12.40625 8.296875 
L 28.515625 8.296875 
L 28.515625 63.921875 
L 10.984375 60.40625 
L 10.984375 69.390625 
L 28.421875 72.90625 
L 38.28125 72.90625 
L 38.28125 8.296875 
L 54.390625 8.296875 
L 54.390625 0 
L 12.40625 0 
z
" id="DejaVuSans-49"/>
        <path d="M 33.015625 40.375 
Q 26.375 40.375 22.484375 35.828125 
Q 18.609375 31.296875 18.609375 23.390625 
Q 18.609375 15.53125 22.484375 10.953125 
Q 26.375 6.390625 33.015625 6.390625 
Q 39.65625 6.390625 43.53125 10.953125 
Q 47.40625 15.53125 47.40625 23.390625 
Q 47.40625 31.296875 43.53125 35.828125 
Q 39.65625 40.375 33.015625 40.375 
z
M 52.59375 71.296875 
L 52.59375 62.3125 
Q 48.875 64.0625 45.09375 64.984375 
Q 41.3125 65.921875 37.59375 65.921875 
Q 27.828125 65.921875 22.671875 59.328125 
Q 17.53125 52.734375 16.796875 39.40625 
Q 19.671875 43.65625 24.015625 45.921875 
Q 28.375 48.1875 33.59375 48.1875 
Q 44.578125 48.1875 50.953125 41.515625 
Q 57.328125 34.859375 57.328125 23.390625 
Q 57.328125 12.15625 50.6875 5.359375 
Q 44.046875 -1.421875 33.015625 -1.421875 
Q 20.359375 -1.421875 13.671875 8.265625 
Q 6.984375 17.96875 6.984375 36.375 
Q 6.984375 53.65625 15.1875 63.9375 
Q 23.390625 74.21875 37.203125 74.21875 
Q 40.921875 74.21875 44.703125 73.484375 
Q 48.484375 72.75 52.59375 71.296875 
z
" id="DejaVuSans-54"/>
       </defs>
       <use xlink:href="#DejaVuSans-49"/>
       <use x="63.623047" xlink:href="#DejaVuSans-54"/>
      </g>
     </g>
    </g>
    <g id="xtick_2">
     <g id="line2d_2">
      <g>
       <use style="stroke:#000000;stroke-width:0.8;" x="108.062" xlink:href="#mfdc02a5e3b" y="288.25"/>
      </g>
     </g>
     <g id="text_2">
      <!-- 32 -->
      <g transform="translate(110.821375 307.975)rotate(-90)scale(0.1 -0.1)">
       <defs>
        <path d="M 40.578125 39.3125 
Q 47.65625 37.796875 51.625 33 
Q 55.609375 28.21875 55.609375 21.1875 
Q 55.609375 10.40625 48.1875 4.484375 
Q 40.765625 -1.421875 27.09375 -1.421875 
Q 22.515625 -1.421875 17.65625 -0.515625 
Q 12.796875 0.390625 7.625 2.203125 
L 7.625 11.71875 
Q 11.71875 9.328125 16.59375 8.109375 
Q 21.484375 6.890625 26.8125 6.890625 
Q 36.078125 6.890625 40.9375 10.546875 
Q 45.796875 14.203125 45.796875 21.1875 
Q 45.796875 27.640625 41.28125 31.265625 
Q 36.765625 34.90625 28.71875 34.90625 
L 20.21875 34.90625 
L 20.21875 43.015625 
L 29.109375 43.015625 
Q 36.375 43.015625 40.234375 45.921875 
Q 44.09375 48.828125 44.09375 54.296875 
Q 44.09375 59.90625 40.109375 62.90625 
Q 36.140625 65.921875 28.71875 65.921875 
Q 24.65625 65.921875 20.015625 65.03125 
Q 15.375 64.15625 9.8125 62.3125 
L 9.8125 71.09375 
Q 15.4375 72.65625 20.34375 73.4375 
Q 25.25 74.21875 29.59375 74.21875 
Q 40.828125 74.21875 47.359375 69.109375 
Q 53.90625 64.015625 53.90625 55.328125 
Q 53.90625 49.265625 50.4375 45.09375 
Q 46.96875 40.921875 40.578125 39.3125 
z
" id="DejaVuSans-51"/>
        <path d="M 19.1875 8.296875 
L 53.609375 8.296875 
L 53.609375 0 
L 7.328125 0 
L 7.328125 8.296875 
Q 12.9375 14.109375 22.625 23.890625 
Q 32.328125 33.6875 34.8125 36.53125 
Q 39.546875 41.84375 41.421875 45.53125 
Q 43.3125 49.21875 43.3125 52.78125 
Q 43.3125 58.59375 39.234375 62.25 
Q 35.15625 65.921875 28.609375 65.921875 
Q 23.96875 65.921875 18.8125 64.3125 
Q 13.671875 62.703125 7.8125 59.421875 
L 7.8125 69.390625 
Q 13.765625 71.78125 18.9375 73 
Q 24.125 74.21875 28.421875 74.21875 
Q 39.75 74.21875 46.484375 68.546875 
Q 53.21875 62.890625 53.21875 53.421875 
Q 53.21875 48.921875 51.53125 44.890625 
Q 49.859375 40.875 45.40625 35.40625 
Q 44.1875 33.984375 37.640625 27.21875 
Q 31.109375 20.453125 19.1875 8.296875 
z
" id="DejaVuSans-50"/>
       </defs>
       <use xlink:href="#DejaVuSans-51"/>
       <use x="63.623047" xlink:href="#DejaVuSans-50"/>
      </g>
     </g>
    </g>
    <g id="xtick_3">
     <g id="line2d_3">
      <g>
       <use style="stroke:#000000;stroke-width:0.8;" x="148.29" xlink:href="#mfdc02a5e3b" y="288.25"/>
      </g>
     </g>
     <g id="text_3">
      <!-- 64 -->
      <g transform="translate(151.049375 307.975)rotate(-90)scale(0.1 -0.1)">
       <defs>
        <path d="M 37.796875 64.3125 
L 12.890625 25.390625 
L 37.796875 25.390625 
z
M 35.203125 72.90625 
L 47.609375 72.90625 
L 47.609375 25.390625 
L 58.015625 25.390625 
L 58.015625 17.1875 
L 47.609375 17.1875 
L 47.609375 0 
L 37.796875 0 
L 37.796875 17.1875 
L 4.890625 17.1875 
L 4.890625 26.703125 
z
" id="DejaVuSans-52"/>
       </defs>
       <use xlink:href="#DejaVuSans-54"/>
       <use x="63.623047" xlink:href="#DejaVuSans-52"/>
      </g>
     </g>
    </g>
    <g id="xtick_4">
     <g id="line2d_4">
      <g>
       <use style="stroke:#000000;stroke-width:0.8;" x="188.518" xlink:href="#mfdc02a5e3b" y="288.25"/>
      </g>
     </g>
     <g id="text_4">
      <!-- 128 -->
      <g transform="translate(191.277375 314.3375)rotate(-90)scale(0.1 -0.1)">
       <defs>
        <path d="M 31.78125 34.625 
Q 24.75 34.625 20.71875 30.859375 
Q 16.703125 27.09375 16.703125 20.515625 
Q 16.703125 13.921875 20.71875 10.15625 
Q 24.75 6.390625 31.78125 6.390625 
Q 38.8125 6.390625 42.859375 10.171875 
Q 46.921875 13.96875 46.921875 20.515625 
Q 46.921875 27.09375 42.890625 30.859375 
Q 38.875 34.625 31.78125 34.625 
z
M 21.921875 38.8125 
Q 15.578125 40.375 12.03125 44.71875 
Q 8.5 49.078125 8.5 55.328125 
Q 8.5 64.0625 14.71875 69.140625 
Q 20.953125 74.21875 31.78125 74.21875 
Q 42.671875 74.21875 48.875 69.140625 
Q 55.078125 64.0625 55.078125 55.328125 
Q 55.078125 49.078125 51.53125 44.71875 
Q 48 40.375 41.703125 38.8125 
Q 48.828125 37.15625 52.796875 32.3125 
Q 56.78125 27.484375 56.78125 20.515625 
Q 56.78125 9.90625 50.3125 4.234375 
Q 43.84375 -1.421875 31.78125 -1.421875 
Q 19.734375 -1.421875 13.25 4.234375 
Q 6.78125 9.90625 6.78125 20.515625 
Q 6.78125 27.484375 10.78125 32.3125 
Q 14.796875 37.15625 21.921875 38.8125 
z
M 18.3125 54.390625 
Q 18.3125 48.734375 21.84375 45.5625 
Q 25.390625 42.390625 31.78125 42.390625 
Q 38.140625 42.390625 41.71875 45.5625 
Q 45.3125 48.734375 45.3125 54.390625 
Q 45.3125 60.0625 41.71875 63.234375 
Q 38.140625 66.40625 31.78125 66.40625 
Q 25.390625 66.40625 21.84375 63.234375 
Q 18.3125 60.0625 18.3125 54.390625 
z
" id="DejaVuSans-56"/>
       </defs>
       <use xlink:href="#DejaVuSans-49"/>
       <use x="63.623047" xlink:href="#DejaVuSans-50"/>
       <use x="127.246094" xlink:href="#DejaVuSans-56"/>
      </g>
     </g>
    </g>
    <g id="xtick_5">
     <g id="line2d_5">
      <g>
       <use style="stroke:#000000;stroke-width:0.8;" x="228.746" xlink:href="#mfdc02a5e3b" y="288.25"/>
      </g>
     </g>
     <g id="text_5">
      <!-- 256 -->
      <g transform="translate(231.505375 314.3375)rotate(-90)scale(0.1 -0.1)">
       <defs>
        <path d="M 10.796875 72.90625 
L 49.515625 72.90625 
L 49.515625 64.59375 
L 19.828125 64.59375 
L 19.828125 46.734375 
Q 21.96875 47.46875 24.109375 47.828125 
Q 26.265625 48.1875 28.421875 48.1875 
Q 40.625 48.1875 47.75 41.5 
Q 54.890625 34.8125 54.890625 23.390625 
Q 54.890625 11.625 47.5625 5.09375 
Q 40.234375 -1.421875 26.90625 -1.421875 
Q 22.3125 -1.421875 17.546875 -0.640625 
Q 12.796875 0.140625 7.71875 1.703125 
L 7.71875 11.625 
Q 12.109375 9.234375 16.796875 8.0625 
Q 21.484375 6.890625 26.703125 6.890625 
Q 35.15625 6.890625 40.078125 11.328125 
Q 45.015625 15.765625 45.015625 23.390625 
Q 45.015625 31 40.078125 35.4375 
Q 35.15625 39.890625 26.703125 39.890625 
Q 22.75 39.890625 18.8125 39.015625 
Q 14.890625 38.140625 10.796875 36.28125 
z
" id="DejaVuSans-53"/>
       </defs>
       <use xlink:href="#DejaVuSans-50"/>
       <use x="63.623047" xlink:href="#DejaVuSans-53"/>
       <use x="127.246094" xlink:href="#DejaVuSans-54"/>
      </g>
     </g>
    </g>
    <g id="xtick_6">
     <g id="line2d_6">
      <g>
       <use style="stroke:#000000;stroke-width:0.8;" x="268.974" xlink:href="#mfdc02a5e3b" y="288.25"/>
      </g>
     </g>
     <g id="text_6">
      <!-- 512 -->
      <g transform="translate(271.733375 314.3375)rotate(-90)scale(0.1 -0.1)">
       <use xlink:href="#DejaVuSans-53"/>
       <use x="63.623047" xlink:href="#DejaVuSans-49"/>
       <use x="127.246094" xlink:href="#DejaVuSans-50"/>
      </g>
     </g>
    </g>
    <g id="xtick_7">
     <g id="line2d_7">
      <g>
       <use style="stroke:#000000;stroke-width:0.8;" x="309.202" xlink:href="#mfdc02a5e3b" y="288.25"/>
      </g>
     </g>
     <g id="text_7">
      <!-- 1024 -->
      <g transform="translate(311.961375 320.7)rotate(-90)scale(0.1 -0.1)">
       <defs>
        <path d="M 31.78125 66.40625 
Q 24.171875 66.40625 20.328125 58.90625 
Q 16.5 51.421875 16.5 36.375 
Q 16.5 21.390625 20.328125 13.890625 
Q 24.171875 6.390625 31.78125 6.390625 
Q 39.453125 6.390625 43.28125 13.890625 
Q 47.125 21.390625 47.125 36.375 
Q 47.125 51.421875 43.28125 58.90625 
Q 39.453125 66.40625 31.78125 66.40625 
z
M 31.78125 74.21875 
Q 44.046875 74.21875 50.515625 64.515625 
Q 56.984375 54.828125 56.984375 36.375 
Q 56.984375 17.96875 50.515625 8.265625 
Q 44.046875 -1.421875 31.78125 -1.421875 
Q 19.53125 -1.421875 13.0625 8.265625 
Q 6.59375 17.96875 6.59375 36.375 
Q 6.59375 54.828125 13.0625 64.515625 
Q 19.53125 74.21875 31.78125 74.21875 
z
" id="DejaVuSans-48"/>
       </defs>
       <use xlink:href="#DejaVuSans-49"/>
       <use x="63.623047" xlink:href="#DejaVuSans-48"/>
       <use x="127.246094" xlink:href="#DejaVuSans-50"/>
       <use x="190.869141" xlink:href="#DejaVuSans-52"/>
      </g>
     </g>
    </g>
    <g id="xtick_8">
     <g id="line2d_8">
      <g>
       <use style="stroke:#000000;stroke-width:0.8;" x="349.43" xlink:href="#mfdc02a5e3b" y="288.25"/>
      </g>
     </g>
     <g id="text_8">
      <!-- 2048 -->
      <g transform="translate(352.189375 320.7)rotate(-90)scale(0.1 -0.1)">
       <use xlink:href="#DejaVuSans-50"/>
       <use x="63.623047" xlink:href="#DejaVuSans-48"/>
       <use x="127.246094" xlink:href="#DejaVuSans-52"/>
       <use x="190.869141" xlink:href="#DejaVuSans-56"/>
      </g>
     </g>
    </g>
    <g id="xtick_9">
     <g id="line2d_9">
      <g>
       <use style="stroke:#000000;stroke-width:0.8;" x="389.658" xlink:href="#mfdc02a5e3b" y="288.25"/>
      </g>
     </g>
     <g id="text_9">
      <!-- 4096 -->
      <g transform="translate(392.417375 320.7)rotate(-90)scale(0.1 -0.1)">
       <defs>
        <path d="M 10.984375 1.515625 
L 10.984375 10.5 
Q 14.703125 8.734375 18.5 7.8125 
Q 22.3125 6.890625 25.984375 6.890625 
Q 35.75 6.890625 40.890625 13.453125 
Q 46.046875 20.015625 46.78125 33.40625 
Q 43.953125 29.203125 39.59375 26.953125 
Q 35.25 24.703125 29.984375 24.703125 
Q 19.046875 24.703125 12.671875 31.3125 
Q 6.296875 37.9375 6.296875 49.421875 
Q 6.296875 60.640625 12.9375 67.421875 
Q 19.578125 74.21875 30.609375 74.21875 
Q 43.265625 74.21875 49.921875 64.515625 
Q 56.59375 54.828125 56.59375 36.375 
Q 56.59375 19.140625 48.40625 8.859375 
Q 40.234375 -1.421875 26.421875 -1.421875 
Q 22.703125 -1.421875 18.890625 -0.6875 
Q 15.09375 0.046875 10.984375 1.515625 
z
M 30.609375 32.421875 
Q 37.25 32.421875 41.125 36.953125 
Q 45.015625 41.5 45.015625 49.421875 
Q 45.015625 57.28125 41.125 61.84375 
Q 37.25 66.40625 30.609375 66.40625 
Q 23.96875 66.40625 20.09375 61.84375 
Q 16.21875 57.28125 16.21875 49.421875 
Q 16.21875 41.5 20.09375 36.953125 
Q 23.96875 32.421875 30.609375 32.421875 
z
" id="DejaVuSans-57"/>
       </defs>
       <use xlink:href="#DejaVuSans-52"/>
       <use x="63.623047" xlink:href="#DejaVuSans-48"/>
       <use x="127.246094" xlink:href="#DejaVuSans-57"/>
       <use x="190.869141" xlink:href="#DejaVuSans-54"/>
      </g>
     </g>
    </g>
    <g id="xtick_10">
     <g id="line2d_10">
      <g>
       <use style="stroke:#000000;stroke-width:0.8;" x="429.886" xlink:href="#mfdc02a5e3b" y="288.25"/>
      </g>
     </g>
     <g id="text_10">
      <!-- 8192 -->
      <g transform="translate(432.645375 320.7)rotate(-90)scale(0.1 -0.1)">
       <use xlink:href="#DejaVuSans-56"/>
       <use x="63.623047" xlink:href="#DejaVuSans-49"/>
       <use x="127.246094" xlink:href="#DejaVuSans-57"/>
       <use x="190.869141" xlink:href="#DejaVuSans-50"/>
      </g>
     </g>
    </g>
    <g id="text_11">
     <!-- Input Dimension -->
     <g transform="translate(207.7475 332.298437)scale(0.1 -0.1)">
      <defs>
       <path d="M 9.8125 72.90625 
L 19.671875 72.90625 
L 19.671875 0 
L 9.8125 0 
z
" id="DejaVuSans-73"/>
       <path d="M 54.890625 33.015625 
L 54.890625 0 
L 45.90625 0 
L 45.90625 32.71875 
Q 45.90625 40.484375 42.875 44.328125 
Q 39.84375 48.1875 33.796875 48.1875 
Q 26.515625 48.1875 22.3125 43.546875 
Q 18.109375 38.921875 18.109375 30.90625 
L 18.109375 0 
L 9.078125 0 
L 9.078125 54.6875 
L 18.109375 54.6875 
L 18.109375 46.1875 
Q 21.34375 51.125 25.703125 53.5625 
Q 30.078125 56 35.796875 56 
Q 45.21875 56 50.046875 50.171875 
Q 54.890625 44.34375 54.890625 33.015625 
z
" id="DejaVuSans-110"/>
       <path d="M 18.109375 8.203125 
L 18.109375 -20.796875 
L 9.078125 -20.796875 
L 9.078125 54.6875 
L 18.109375 54.6875 
L 18.109375 46.390625 
Q 20.953125 51.265625 25.265625 53.625 
Q 29.59375 56 35.59375 56 
Q 45.5625 56 51.78125 48.09375 
Q 58.015625 40.1875 58.015625 27.296875 
Q 58.015625 14.40625 51.78125 6.484375 
Q 45.5625 -1.421875 35.59375 -1.421875 
Q 29.59375 -1.421875 25.265625 0.953125 
Q 20.953125 3.328125 18.109375 8.203125 
z
M 48.6875 27.296875 
Q 48.6875 37.203125 44.609375 42.84375 
Q 40.53125 48.484375 33.40625 48.484375 
Q 26.265625 48.484375 22.1875 42.84375 
Q 18.109375 37.203125 18.109375 27.296875 
Q 18.109375 17.390625 22.1875 11.75 
Q 26.265625 6.109375 33.40625 6.109375 
Q 40.53125 6.109375 44.609375 11.75 
Q 48.6875 17.390625 48.6875 27.296875 
z
" id="DejaVuSans-112"/>
       <path d="M 8.5 21.578125 
L 8.5 54.6875 
L 17.484375 54.6875 
L 17.484375 21.921875 
Q 17.484375 14.15625 20.5 10.265625 
Q 23.53125 6.390625 29.59375 6.390625 
Q 36.859375 6.390625 41.078125 11.03125 
Q 45.3125 15.671875 45.3125 23.6875 
L 45.3125 54.6875 
L 54.296875 54.6875 
L 54.296875 0 
L 45.3125 0 
L 45.3125 8.40625 
Q 42.046875 3.421875 37.71875 1 
Q 33.40625 -1.421875 27.6875 -1.421875 
Q 18.265625 -1.421875 13.375 4.4375 
Q 8.5 10.296875 8.5 21.578125 
z
M 31.109375 56 
z
" id="DejaVuSans-117"/>
       <path d="M 18.3125 70.21875 
L 18.3125 54.6875 
L 36.8125 54.6875 
L 36.8125 47.703125 
L 18.3125 47.703125 
L 18.3125 18.015625 
Q 18.3125 11.328125 20.140625 9.421875 
Q 21.96875 7.515625 27.59375 7.515625 
L 36.8125 7.515625 
L 36.8125 0 
L 27.59375 0 
Q 17.1875 0 13.234375 3.875 
Q 9.28125 7.765625 9.28125 18.015625 
L 9.28125 47.703125 
L 2.6875 47.703125 
L 2.6875 54.6875 
L 9.28125 54.6875 
L 9.28125 70.21875 
z
" id="DejaVuSans-116"/>
       <path id="DejaVuSans-32"/>
       <path d="M 19.671875 64.796875 
L 19.671875 8.109375 
L 31.59375 8.109375 
Q 46.6875 8.109375 53.6875 14.9375 
Q 60.6875 21.78125 60.6875 36.53125 
Q 60.6875 51.171875 53.6875 57.984375 
Q 46.6875 64.796875 31.59375 64.796875 
z
M 9.8125 72.90625 
L 30.078125 72.90625 
Q 51.265625 72.90625 61.171875 64.09375 
Q 71.09375 55.28125 71.09375 36.53125 
Q 71.09375 17.671875 61.125 8.828125 
Q 51.171875 0 30.078125 0 
L 9.8125 0 
z
" id="DejaVuSans-68"/>
       <path d="M 9.421875 54.6875 
L 18.40625 54.6875 
L 18.40625 0 
L 9.421875 0 
z
M 9.421875 75.984375 
L 18.40625 75.984375 
L 18.40625 64.59375 
L 9.421875 64.59375 
z
" id="DejaVuSans-105"/>
       <path d="M 52 44.1875 
Q 55.375 50.25 60.0625 53.125 
Q 64.75 56 71.09375 56 
Q 79.640625 56 84.28125 50.015625 
Q 88.921875 44.046875 88.921875 33.015625 
L 88.921875 0 
L 79.890625 0 
L 79.890625 32.71875 
Q 79.890625 40.578125 77.09375 44.375 
Q 74.3125 48.1875 68.609375 48.1875 
Q 61.625 48.1875 57.5625 43.546875 
Q 53.515625 38.921875 53.515625 30.90625 
L 53.515625 0 
L 44.484375 0 
L 44.484375 32.71875 
Q 44.484375 40.625 41.703125 44.40625 
Q 38.921875 48.1875 33.109375 48.1875 
Q 26.21875 48.1875 22.15625 43.53125 
Q 18.109375 38.875 18.109375 30.90625 
L 18.109375 0 
L 9.078125 0 
L 9.078125 54.6875 
L 18.109375 54.6875 
L 18.109375 46.1875 
Q 21.1875 51.21875 25.484375 53.609375 
Q 29.78125 56 35.6875 56 
Q 41.65625 56 45.828125 52.96875 
Q 50 49.953125 52 44.1875 
z
" id="DejaVuSans-109"/>
       <path d="M 56.203125 29.59375 
L 56.203125 25.203125 
L 14.890625 25.203125 
Q 15.484375 15.921875 20.484375 11.0625 
Q 25.484375 6.203125 34.421875 6.203125 
Q 39.59375 6.203125 44.453125 7.46875 
Q 49.3125 8.734375 54.109375 11.28125 
L 54.109375 2.78125 
Q 49.265625 0.734375 44.1875 -0.34375 
Q 39.109375 -1.421875 33.890625 -1.421875 
Q 20.796875 -1.421875 13.15625 6.1875 
Q 5.515625 13.8125 5.515625 26.8125 
Q 5.515625 40.234375 12.765625 48.109375 
Q 20.015625 56 32.328125 56 
Q 43.359375 56 49.78125 48.890625 
Q 56.203125 41.796875 56.203125 29.59375 
z
M 47.21875 32.234375 
Q 47.125 39.59375 43.09375 43.984375 
Q 39.0625 48.390625 32.421875 48.390625 
Q 24.90625 48.390625 20.390625 44.140625 
Q 15.875 39.890625 15.1875 32.171875 
z
" id="DejaVuSans-101"/>
       <path d="M 44.28125 53.078125 
L 44.28125 44.578125 
Q 40.484375 46.53125 36.375 47.5 
Q 32.28125 48.484375 27.875 48.484375 
Q 21.1875 48.484375 17.84375 46.4375 
Q 14.5 44.390625 14.5 40.28125 
Q 14.5 37.15625 16.890625 35.375 
Q 19.28125 33.59375 26.515625 31.984375 
L 29.59375 31.296875 
Q 39.15625 29.25 43.1875 25.515625 
Q 47.21875 21.78125 47.21875 15.09375 
Q 47.21875 7.46875 41.1875 3.015625 
Q 35.15625 -1.421875 24.609375 -1.421875 
Q 20.21875 -1.421875 15.453125 -0.5625 
Q 10.6875 0.296875 5.421875 2 
L 5.421875 11.28125 
Q 10.40625 8.6875 15.234375 7.390625 
Q 20.0625 6.109375 24.8125 6.109375 
Q 31.15625 6.109375 34.5625 8.28125 
Q 37.984375 10.453125 37.984375 14.40625 
Q 37.984375 18.0625 35.515625 20.015625 
Q 33.0625 21.96875 24.703125 23.78125 
L 21.578125 24.515625 
Q 13.234375 26.265625 9.515625 29.90625 
Q 5.8125 33.546875 5.8125 39.890625 
Q 5.8125 47.609375 11.28125 51.796875 
Q 16.75 56 26.8125 56 
Q 31.78125 56 36.171875 55.265625 
Q 40.578125 54.546875 44.28125 53.078125 
z
" id="DejaVuSans-115"/>
       <path d="M 30.609375 48.390625 
Q 23.390625 48.390625 19.1875 42.75 
Q 14.984375 37.109375 14.984375 27.296875 
Q 14.984375 17.484375 19.15625 11.84375 
Q 23.34375 6.203125 30.609375 6.203125 
Q 37.796875 6.203125 41.984375 11.859375 
Q 46.1875 17.53125 46.1875 27.296875 
Q 46.1875 37.015625 41.984375 42.703125 
Q 37.796875 48.390625 30.609375 48.390625 
z
M 30.609375 56 
Q 42.328125 56 49.015625 48.375 
Q 55.71875 40.765625 55.71875 27.296875 
Q 55.71875 13.875 49.015625 6.21875 
Q 42.328125 -1.421875 30.609375 -1.421875 
Q 18.84375 -1.421875 12.171875 6.21875 
Q 5.515625 13.875 5.515625 27.296875 
Q 5.515625 40.765625 12.171875 48.375 
Q 18.84375 56 30.609375 56 
z
" id="DejaVuSans-111"/>
      </defs>
      <use xlink:href="#DejaVuSans-73"/>
      <use x="29.492188" xlink:href="#DejaVuSans-110"/>
      <use x="92.871094" xlink:href="#DejaVuSans-112"/>
      <use x="156.347656" xlink:href="#DejaVuSans-117"/>
      <use x="219.726562" xlink:href="#DejaVuSans-116"/>
      <use x="258.935547" xlink:href="#DejaVuSans-32"/>
      <use x="290.722656" xlink:href="#DejaVuSans-68"/>
      <use x="367.724609" xlink:href="#DejaVuSans-105"/>
      <use x="395.507812" xlink:href="#DejaVuSans-109"/>
      <use x="492.919922" xlink:href="#DejaVuSans-101"/>
      <use x="554.443359" xlink:href="#DejaVuSans-110"/>
      <use x="617.822266" xlink:href="#DejaVuSans-115"/>
      <use x="669.921875" xlink:href="#DejaVuSans-105"/>
      <use x="697.705078" xlink:href="#DejaVuSans-111"/>
      <use x="758.886719" xlink:href="#DejaVuSans-110"/>
     </g>
    </g>
   </g>
   <g id="matplotlib.axis_2">
    <g id="ytick_1">
     <g id="line2d_11">
      <defs>
       <path d="M 0 0 
L -3.5 0 
" id="m7b8c9b3422" style="stroke:#000000;stroke-width:0.8;"/>
      </defs>
      <g>
       <use style="stroke:#000000;stroke-width:0.8;" x="47.72" xlink:href="#m7b8c9b3422" y="288.25"/>
      </g>
     </g>
     <g id="text_12">
      <!-- 0.0 -->
      <g transform="translate(24.816875 292.049219)scale(0.1 -0.1)">
       <defs>
        <path d="M 10.6875 12.40625 
L 21 12.40625 
L 21 0 
L 10.6875 0 
z
" id="DejaVuSans-46"/>
       </defs>
       <use xlink:href="#DejaVuSans-48"/>
       <use x="63.623047" xlink:href="#DejaVuSans-46"/>
       <use x="95.410156" xlink:href="#DejaVuSans-48"/>
      </g>
     </g>
    </g>
    <g id="ytick_2">
     <g id="line2d_12">
      <g>
       <use style="stroke:#000000;stroke-width:0.8;" x="47.72" xlink:href="#m7b8c9b3422" y="252.836485"/>
      </g>
     </g>
     <g id="text_13">
      <!-- 0.2 -->
      <g transform="translate(24.816875 256.635704)scale(0.1 -0.1)">
       <use xlink:href="#DejaVuSans-48"/>
       <use x="63.623047" xlink:href="#DejaVuSans-46"/>
       <use x="95.410156" xlink:href="#DejaVuSans-50"/>
      </g>
     </g>
    </g>
    <g id="ytick_3">
     <g id="line2d_13">
      <g>
       <use style="stroke:#000000;stroke-width:0.8;" x="47.72" xlink:href="#m7b8c9b3422" y="217.42297"/>
      </g>
     </g>
     <g id="text_14">
      <!-- 0.4 -->
      <g transform="translate(24.816875 221.222189)scale(0.1 -0.1)">
       <use xlink:href="#DejaVuSans-48"/>
       <use x="63.623047" xlink:href="#DejaVuSans-46"/>
       <use x="95.410156" xlink:href="#DejaVuSans-52"/>
      </g>
     </g>
    </g>
    <g id="ytick_4">
     <g id="line2d_14">
      <g>
       <use style="stroke:#000000;stroke-width:0.8;" x="47.72" xlink:href="#m7b8c9b3422" y="182.009455"/>
      </g>
     </g>
     <g id="text_15">
      <!-- 0.6 -->
      <g transform="translate(24.816875 185.808674)scale(0.1 -0.1)">
       <use xlink:href="#DejaVuSans-48"/>
       <use x="63.623047" xlink:href="#DejaVuSans-46"/>
       <use x="95.410156" xlink:href="#DejaVuSans-54"/>
      </g>
     </g>
    </g>
    <g id="ytick_5">
     <g id="line2d_15">
      <g>
       <use style="stroke:#000000;stroke-width:0.8;" x="47.72" xlink:href="#m7b8c9b3422" y="146.59594"/>
      </g>
     </g>
     <g id="text_16">
      <!-- 0.8 -->
      <g transform="translate(24.816875 150.395159)scale(0.1 -0.1)">
       <use xlink:href="#DejaVuSans-48"/>
       <use x="63.623047" xlink:href="#DejaVuSans-46"/>
       <use x="95.410156" xlink:href="#DejaVuSans-56"/>
      </g>
     </g>
    </g>
    <g id="ytick_6">
     <g id="line2d_16">
      <g>
       <use style="stroke:#000000;stroke-width:0.8;" x="47.72" xlink:href="#m7b8c9b3422" y="111.182426"/>
      </g>
     </g>
     <g id="text_17">
      <!-- 1.0 -->
      <g transform="translate(24.816875 114.981644)scale(0.1 -0.1)">
       <use xlink:href="#DejaVuSans-49"/>
       <use x="63.623047" xlink:href="#DejaVuSans-46"/>
       <use x="95.410156" xlink:href="#DejaVuSans-48"/>
      </g>
     </g>
    </g>
    <g id="ytick_7">
     <g id="line2d_17">
      <g>
       <use style="stroke:#000000;stroke-width:0.8;" x="47.72" xlink:href="#m7b8c9b3422" y="75.768911"/>
      </g>
     </g>
     <g id="text_18">
      <!-- 1.2 -->
      <g transform="translate(24.816875 79.568129)scale(0.1 -0.1)">
       <use xlink:href="#DejaVuSans-49"/>
       <use x="63.623047" xlink:href="#DejaVuSans-46"/>
       <use x="95.410156" xlink:href="#DejaVuSans-50"/>
      </g>
     </g>
    </g>
    <g id="ytick_8">
     <g id="line2d_18">
      <g>
       <use style="stroke:#000000;stroke-width:0.8;" x="47.72" xlink:href="#m7b8c9b3422" y="40.355396"/>
      </g>
     </g>
     <g id="text_19">
      <!-- 1.4 -->
      <g transform="translate(24.816875 44.154615)scale(0.1 -0.1)">
       <use xlink:href="#DejaVuSans-49"/>
       <use x="63.623047" xlink:href="#DejaVuSans-46"/>
       <use x="95.410156" xlink:href="#DejaVuSans-52"/>
      </g>
     </g>
    </g>
    <g id="text_20">
     <!-- Memory Usage (GB) -->
     <g transform="translate(18.737187 207.863438)rotate(-90)scale(0.1 -0.1)">
      <defs>
       <path d="M 9.8125 72.90625 
L 24.515625 72.90625 
L 43.109375 23.296875 
L 61.8125 72.90625 
L 76.515625 72.90625 
L 76.515625 0 
L 66.890625 0 
L 66.890625 64.015625 
L 48.09375 14.015625 
L 38.1875 14.015625 
L 19.390625 64.015625 
L 19.390625 0 
L 9.8125 0 
z
" id="DejaVuSans-77"/>
       <path d="M 41.109375 46.296875 
Q 39.59375 47.171875 37.8125 47.578125 
Q 36.03125 48 33.890625 48 
Q 26.265625 48 22.1875 43.046875 
Q 18.109375 38.09375 18.109375 28.8125 
L 18.109375 0 
L 9.078125 0 
L 9.078125 54.6875 
L 18.109375 54.6875 
L 18.109375 46.1875 
Q 20.953125 51.171875 25.484375 53.578125 
Q 30.03125 56 36.53125 56 
Q 37.453125 56 38.578125 55.875 
Q 39.703125 55.765625 41.0625 55.515625 
z
" id="DejaVuSans-114"/>
       <path d="M 32.171875 -5.078125 
Q 28.375 -14.84375 24.75 -17.8125 
Q 21.140625 -20.796875 15.09375 -20.796875 
L 7.90625 -20.796875 
L 7.90625 -13.28125 
L 13.1875 -13.28125 
Q 16.890625 -13.28125 18.9375 -11.515625 
Q 21 -9.765625 23.484375 -3.21875 
L 25.09375 0.875 
L 2.984375 54.6875 
L 12.5 54.6875 
L 29.59375 11.921875 
L 46.6875 54.6875 
L 56.203125 54.6875 
z
" id="DejaVuSans-121"/>
       <path d="M 8.6875 72.90625 
L 18.609375 72.90625 
L 18.609375 28.609375 
Q 18.609375 16.890625 22.84375 11.734375 
Q 27.09375 6.59375 36.625 6.59375 
Q 46.09375 6.59375 50.34375 11.734375 
Q 54.59375 16.890625 54.59375 28.609375 
L 54.59375 72.90625 
L 64.5 72.90625 
L 64.5 27.390625 
Q 64.5 13.140625 57.4375 5.859375 
Q 50.390625 -1.421875 36.625 -1.421875 
Q 22.796875 -1.421875 15.734375 5.859375 
Q 8.6875 13.140625 8.6875 27.390625 
z
" id="DejaVuSans-85"/>
       <path d="M 34.28125 27.484375 
Q 23.390625 27.484375 19.1875 25 
Q 14.984375 22.515625 14.984375 16.5 
Q 14.984375 11.71875 18.140625 8.90625 
Q 21.296875 6.109375 26.703125 6.109375 
Q 34.1875 6.109375 38.703125 11.40625 
Q 43.21875 16.703125 43.21875 25.484375 
L 43.21875 27.484375 
z
M 52.203125 31.203125 
L 52.203125 0 
L 43.21875 0 
L 43.21875 8.296875 
Q 40.140625 3.328125 35.546875 0.953125 
Q 30.953125 -1.421875 24.3125 -1.421875 
Q 15.921875 -1.421875 10.953125 3.296875 
Q 6 8.015625 6 15.921875 
Q 6 25.140625 12.171875 29.828125 
Q 18.359375 34.515625 30.609375 34.515625 
L 43.21875 34.515625 
L 43.21875 35.40625 
Q 43.21875 41.609375 39.140625 45 
Q 35.0625 48.390625 27.6875 48.390625 
Q 23 48.390625 18.546875 47.265625 
Q 14.109375 46.140625 10.015625 43.890625 
L 10.015625 52.203125 
Q 14.9375 54.109375 19.578125 55.046875 
Q 24.21875 56 28.609375 56 
Q 40.484375 56 46.34375 49.84375 
Q 52.203125 43.703125 52.203125 31.203125 
z
" id="DejaVuSans-97"/>
       <path d="M 45.40625 27.984375 
Q 45.40625 37.75 41.375 43.109375 
Q 37.359375 48.484375 30.078125 48.484375 
Q 22.859375 48.484375 18.828125 43.109375 
Q 14.796875 37.75 14.796875 27.984375 
Q 14.796875 18.265625 18.828125 12.890625 
Q 22.859375 7.515625 30.078125 7.515625 
Q 37.359375 7.515625 41.375 12.890625 
Q 45.40625 18.265625 45.40625 27.984375 
z
M 54.390625 6.78125 
Q 54.390625 -7.171875 48.1875 -13.984375 
Q 42 -20.796875 29.203125 -20.796875 
Q 24.46875 -20.796875 20.265625 -20.09375 
Q 16.0625 -19.390625 12.109375 -17.921875 
L 12.109375 -9.1875 
Q 16.0625 -11.328125 19.921875 -12.34375 
Q 23.78125 -13.375 27.78125 -13.375 
Q 36.625 -13.375 41.015625 -8.765625 
Q 45.40625 -4.15625 45.40625 5.171875 
L 45.40625 9.625 
Q 42.625 4.78125 38.28125 2.390625 
Q 33.9375 0 27.875 0 
Q 17.828125 0 11.671875 7.65625 
Q 5.515625 15.328125 5.515625 27.984375 
Q 5.515625 40.671875 11.671875 48.328125 
Q 17.828125 56 27.875 56 
Q 33.9375 56 38.28125 53.609375 
Q 42.625 51.21875 45.40625 46.390625 
L 45.40625 54.6875 
L 54.390625 54.6875 
z
" id="DejaVuSans-103"/>
       <path d="M 31 75.875 
Q 24.46875 64.65625 21.28125 53.65625 
Q 18.109375 42.671875 18.109375 31.390625 
Q 18.109375 20.125 21.3125 9.0625 
Q 24.515625 -2 31 -13.1875 
L 23.1875 -13.1875 
Q 15.875 -1.703125 12.234375 9.375 
Q 8.59375 20.453125 8.59375 31.390625 
Q 8.59375 42.28125 12.203125 53.3125 
Q 15.828125 64.359375 23.1875 75.875 
z
" id="DejaVuSans-40"/>
       <path d="M 59.515625 10.40625 
L 59.515625 29.984375 
L 43.40625 29.984375 
L 43.40625 38.09375 
L 69.28125 38.09375 
L 69.28125 6.78125 
Q 63.578125 2.734375 56.6875 0.65625 
Q 49.8125 -1.421875 42 -1.421875 
Q 24.90625 -1.421875 15.25 8.5625 
Q 5.609375 18.5625 5.609375 36.375 
Q 5.609375 54.25 15.25 64.234375 
Q 24.90625 74.21875 42 74.21875 
Q 49.125 74.21875 55.546875 72.453125 
Q 61.96875 70.703125 67.390625 67.28125 
L 67.390625 56.78125 
Q 61.921875 61.421875 55.765625 63.765625 
Q 49.609375 66.109375 42.828125 66.109375 
Q 29.4375 66.109375 22.71875 58.640625 
Q 16.015625 51.171875 16.015625 36.375 
Q 16.015625 21.625 22.71875 14.15625 
Q 29.4375 6.6875 42.828125 6.6875 
Q 48.046875 6.6875 52.140625 7.59375 
Q 56.25 8.5 59.515625 10.40625 
z
" id="DejaVuSans-71"/>
       <path d="M 19.671875 34.8125 
L 19.671875 8.109375 
L 35.5 8.109375 
Q 43.453125 8.109375 47.28125 11.40625 
Q 51.125 14.703125 51.125 21.484375 
Q 51.125 28.328125 47.28125 31.5625 
Q 43.453125 34.8125 35.5 34.8125 
z
M 19.671875 64.796875 
L 19.671875 42.828125 
L 34.28125 42.828125 
Q 41.5 42.828125 45.03125 45.53125 
Q 48.578125 48.25 48.578125 53.8125 
Q 48.578125 59.328125 45.03125 62.0625 
Q 41.5 64.796875 34.28125 64.796875 
z
M 9.8125 72.90625 
L 35.015625 72.90625 
Q 46.296875 72.90625 52.390625 68.21875 
Q 58.5 63.53125 58.5 54.890625 
Q 58.5 48.1875 55.375 44.234375 
Q 52.25 40.28125 46.1875 39.3125 
Q 53.46875 37.75 57.5 32.78125 
Q 61.53125 27.828125 61.53125 20.40625 
Q 61.53125 10.640625 54.890625 5.3125 
Q 48.25 0 35.984375 0 
L 9.8125 0 
z
" id="DejaVuSans-66"/>
       <path d="M 8.015625 75.875 
L 15.828125 75.875 
Q 23.140625 64.359375 26.78125 53.3125 
Q 30.421875 42.28125 30.421875 31.390625 
Q 30.421875 20.453125 26.78125 9.375 
Q 23.140625 -1.703125 15.828125 -13.1875 
L 8.015625 -13.1875 
Q 14.5 -2 17.703125 9.0625 
Q 20.90625 20.125 20.90625 31.390625 
Q 20.90625 42.671875 17.703125 53.65625 
Q 14.5 64.65625 8.015625 75.875 
z
" id="DejaVuSans-41"/>
      </defs>
      <use xlink:href="#DejaVuSans-77"/>
      <use x="86.279297" xlink:href="#DejaVuSans-101"/>
      <use x="147.802734" xlink:href="#DejaVuSans-109"/>
      <use x="245.214844" xlink:href="#DejaVuSans-111"/>
      <use x="306.396484" xlink:href="#DejaVuSans-114"/>
      <use x="347.509766" xlink:href="#DejaVuSans-121"/>
      <use x="406.689453" xlink:href="#DejaVuSans-32"/>
      <use x="438.476562" xlink:href="#DejaVuSans-85"/>
      <use x="511.669922" xlink:href="#DejaVuSans-115"/>
      <use x="563.769531" xlink:href="#DejaVuSans-97"/>
      <use x="625.048828" xlink:href="#DejaVuSans-103"/>
      <use x="688.525391" xlink:href="#DejaVuSans-101"/>
      <use x="750.048828" xlink:href="#DejaVuSans-32"/>
      <use x="781.835938" xlink:href="#DejaVuSans-40"/>
      <use x="820.849609" xlink:href="#DejaVuSans-71"/>
      <use x="898.339844" xlink:href="#DejaVuSans-66"/>
      <use x="966.943359" xlink:href="#DejaVuSans-41"/>
     </g>
    </g>
   </g>
   <g id="patch_93">
    <path d="M 47.72 288.25 
L 47.72 26.88 
" style="fill:none;stroke:#000000;stroke-linecap:square;stroke-linejoin:miter;stroke-width:0.8;"/>
   </g>
   <g id="patch_94">
    <path d="M 450 288.25 
L 450 26.88 
" style="fill:none;stroke:#000000;stroke-linecap:square;stroke-linejoin:miter;stroke-width:0.8;"/>
   </g>
   <g id="patch_95">
    <path d="M 47.72 288.25 
L 450 288.25 
" style="fill:none;stroke:#000000;stroke-linecap:square;stroke-linejoin:miter;stroke-width:0.8;"/>
   </g>
   <g id="patch_96">
    <path d="M 47.72 26.88 
L 450 26.88 
" style="fill:none;stroke:#000000;stroke-linecap:square;stroke-linejoin:miter;stroke-width:0.8;"/>
   </g>
   <g id="text_21">
    <!-- Memory Usage (16 nodes) -->
    <g transform="translate(169.625313 20.88)scale(0.12 -0.12)">
     <defs>
      <path d="M 45.40625 46.390625 
L 45.40625 75.984375 
L 54.390625 75.984375 
L 54.390625 0 
L 45.40625 0 
L 45.40625 8.203125 
Q 42.578125 3.328125 38.25 0.953125 
Q 33.9375 -1.421875 27.875 -1.421875 
Q 17.96875 -1.421875 11.734375 6.484375 
Q 5.515625 14.40625 5.515625 27.296875 
Q 5.515625 40.1875 11.734375 48.09375 
Q 17.96875 56 27.875 56 
Q 33.9375 56 38.25 53.625 
Q 42.578125 51.265625 45.40625 46.390625 
z
M 14.796875 27.296875 
Q 14.796875 17.390625 18.875 11.75 
Q 22.953125 6.109375 30.078125 6.109375 
Q 37.203125 6.109375 41.296875 11.75 
Q 45.40625 17.390625 45.40625 27.296875 
Q 45.40625 37.203125 41.296875 42.84375 
Q 37.203125 48.484375 30.078125 48.484375 
Q 22.953125 48.484375 18.875 42.84375 
Q 14.796875 37.203125 14.796875 27.296875 
z
" id="DejaVuSans-100"/>
     </defs>
     <use xlink:href="#DejaVuSans-77"/>
     <use x="86.279297" xlink:href="#DejaVuSans-101"/>
     <use x="147.802734" xlink:href="#DejaVuSans-109"/>
     <use x="245.214844" xlink:href="#DejaVuSans-111"/>
     <use x="306.396484" xlink:href="#DejaVuSans-114"/>
     <use x="347.509766" xlink:href="#DejaVuSans-121"/>
     <use x="406.689453" xlink:href="#DejaVuSans-32"/>
     <use x="438.476562" xlink:href="#DejaVuSans-85"/>
     <use x="511.669922" xlink:href="#DejaVuSans-115"/>
     <use x="563.769531" xlink:href="#DejaVuSans-97"/>
     <use x="625.048828" xlink:href="#DejaVuSans-103"/>
     <use x="688.525391" xlink:href="#DejaVuSans-101"/>
     <use x="750.048828" xlink:href="#DejaVuSans-32"/>
     <use x="781.835938" xlink:href="#DejaVuSans-40"/>
     <use x="820.849609" xlink:href="#DejaVuSans-49"/>
     <use x="884.472656" xlink:href="#DejaVuSans-54"/>
     <use x="948.095703" xlink:href="#DejaVuSans-32"/>
     <use x="979.882812" xlink:href="#DejaVuSans-110"/>
     <use x="1043.261719" xlink:href="#DejaVuSans-111"/>
     <use x="1104.443359" xlink:href="#DejaVuSans-100"/>
     <use x="1167.919922" xlink:href="#DejaVuSans-101"/>
     <use x="1229.443359" xlink:href="#DejaVuSans-115"/>
     <use x="1281.542969" xlink:href="#DejaVuSans-41"/>
    </g>
   </g>
   <g id="legend_1">
    <g id="patch_97">
     <path d="M 54.72 181.939375 
L 234.573125 181.939375 
Q 236.573125 181.939375 236.573125 179.939375 
L 236.573125 33.88 
Q 236.573125 31.88 234.573125 31.88 
L 54.72 31.88 
Q 52.72 31.88 52.72 33.88 
L 52.72 179.939375 
Q 52.72 181.939375 54.72 181.939375 
z
" style="fill:#ffffff;opacity:0.8;stroke:#cccccc;stroke-linejoin:miter;"/>
    </g>
    <g id="text_22">
     <!-- implementation -->
     <g transform="translate(105.030156 43.478437)scale(0.1 -0.1)">
      <defs>
       <path d="M 9.421875 75.984375 
L 18.40625 75.984375 
L 18.40625 0 
L 9.421875 0 
z
" id="DejaVuSans-108"/>
      </defs>
      <use xlink:href="#DejaVuSans-105"/>
      <use x="27.783203" xlink:href="#DejaVuSans-109"/>
      <use x="125.195312" xlink:href="#DejaVuSans-112"/>
      <use x="188.671875" xlink:href="#DejaVuSans-108"/>
      <use x="216.455078" xlink:href="#DejaVuSans-101"/>
      <use x="277.978516" xlink:href="#DejaVuSans-109"/>
      <use x="375.390625" xlink:href="#DejaVuSans-101"/>
      <use x="436.914062" xlink:href="#DejaVuSans-110"/>
      <use x="500.292969" xlink:href="#DejaVuSans-116"/>
      <use x="539.501953" xlink:href="#DejaVuSans-97"/>
      <use x="600.78125" xlink:href="#DejaVuSans-116"/>
      <use x="639.990234" xlink:href="#DejaVuSans-105"/>
      <use x="667.773438" xlink:href="#DejaVuSans-111"/>
      <use x="728.955078" xlink:href="#DejaVuSans-110"/>
     </g>
    </g>
    <g id="patch_98">
     <path d="M 56.72 58.156563 
L 76.72 58.156563 
L 76.72 51.156563 
L 56.72 51.156563 
z
" style="fill:#1f77b4;"/>
    </g>
    <g id="text_23">
     <!-- allgather -->
     <g transform="translate(84.72 58.156563)scale(0.1 -0.1)">
      <defs>
       <path d="M 54.890625 33.015625 
L 54.890625 0 
L 45.90625 0 
L 45.90625 32.71875 
Q 45.90625 40.484375 42.875 44.328125 
Q 39.84375 48.1875 33.796875 48.1875 
Q 26.515625 48.1875 22.3125 43.546875 
Q 18.109375 38.921875 18.109375 30.90625 
L 18.109375 0 
L 9.078125 0 
L 9.078125 75.984375 
L 18.109375 75.984375 
L 18.109375 46.1875 
Q 21.34375 51.125 25.703125 53.5625 
Q 30.078125 56 35.796875 56 
Q 45.21875 56 50.046875 50.171875 
Q 54.890625 44.34375 54.890625 33.015625 
z
" id="DejaVuSans-104"/>
      </defs>
      <use xlink:href="#DejaVuSans-97"/>
      <use x="61.279297" xlink:href="#DejaVuSans-108"/>
      <use x="89.0625" xlink:href="#DejaVuSans-108"/>
      <use x="116.845703" xlink:href="#DejaVuSans-103"/>
      <use x="180.322266" xlink:href="#DejaVuSans-97"/>
      <use x="241.601562" xlink:href="#DejaVuSans-116"/>
      <use x="280.810547" xlink:href="#DejaVuSans-104"/>
      <use x="344.189453" xlink:href="#DejaVuSans-101"/>
      <use x="405.712891" xlink:href="#DejaVuSans-114"/>
     </g>
    </g>
    <g id="patch_99">
     <path d="M 56.72 72.834688 
L 76.72 72.834688 
L 76.72 65.834688 
L 56.72 65.834688 
z
" style="fill:#ff7f0e;"/>
    </g>
    <g id="text_24">
     <!-- allgather-async -->
     <g transform="translate(84.72 72.834688)scale(0.1 -0.1)">
      <defs>
       <path d="M 4.890625 31.390625 
L 31.203125 31.390625 
L 31.203125 23.390625 
L 4.890625 23.390625 
z
" id="DejaVuSans-45"/>
       <path d="M 48.78125 52.59375 
L 48.78125 44.1875 
Q 44.96875 46.296875 41.140625 47.34375 
Q 37.3125 48.390625 33.40625 48.390625 
Q 24.65625 48.390625 19.8125 42.84375 
Q 14.984375 37.3125 14.984375 27.296875 
Q 14.984375 17.28125 19.8125 11.734375 
Q 24.65625 6.203125 33.40625 6.203125 
Q 37.3125 6.203125 41.140625 7.25 
Q 44.96875 8.296875 48.78125 10.40625 
L 48.78125 2.09375 
Q 45.015625 0.34375 40.984375 -0.53125 
Q 36.96875 -1.421875 32.421875 -1.421875 
Q 20.0625 -1.421875 12.78125 6.34375 
Q 5.515625 14.109375 5.515625 27.296875 
Q 5.515625 40.671875 12.859375 48.328125 
Q 20.21875 56 33.015625 56 
Q 37.15625 56 41.109375 55.140625 
Q 45.0625 54.296875 48.78125 52.59375 
z
" id="DejaVuSans-99"/>
      </defs>
      <use xlink:href="#DejaVuSans-97"/>
      <use x="61.279297" xlink:href="#DejaVuSans-108"/>
      <use x="89.0625" xlink:href="#DejaVuSans-108"/>
      <use x="116.845703" xlink:href="#DejaVuSans-103"/>
      <use x="180.322266" xlink:href="#DejaVuSans-97"/>
      <use x="241.601562" xlink:href="#DejaVuSans-116"/>
      <use x="280.810547" xlink:href="#DejaVuSans-104"/>
      <use x="344.189453" xlink:href="#DejaVuSans-101"/>
      <use x="405.712891" xlink:href="#DejaVuSans-114"/>
      <use x="440.451172" xlink:href="#DejaVuSans-45"/>
      <use x="476.535156" xlink:href="#DejaVuSans-97"/>
      <use x="537.814453" xlink:href="#DejaVuSans-115"/>
      <use x="589.914062" xlink:href="#DejaVuSans-121"/>
      <use x="649.09375" xlink:href="#DejaVuSans-110"/>
      <use x="712.472656" xlink:href="#DejaVuSans-99"/>
     </g>
    </g>
    <g id="patch_100">
     <path d="M 56.72 87.512812 
L 76.72 87.512812 
L 76.72 80.512812 
L 56.72 80.512812 
z
" style="fill:#2ca02c;"/>
    </g>
    <g id="text_25">
     <!-- allreduce -->
     <g transform="translate(84.72 87.512812)scale(0.1 -0.1)">
      <use xlink:href="#DejaVuSans-97"/>
      <use x="61.279297" xlink:href="#DejaVuSans-108"/>
      <use x="89.0625" xlink:href="#DejaVuSans-108"/>
      <use x="116.845703" xlink:href="#DejaVuSans-114"/>
      <use x="155.708984" xlink:href="#DejaVuSans-101"/>
      <use x="217.232422" xlink:href="#DejaVuSans-100"/>
      <use x="280.708984" xlink:href="#DejaVuSans-117"/>
      <use x="344.087891" xlink:href="#DejaVuSans-99"/>
      <use x="399.068359" xlink:href="#DejaVuSans-101"/>
     </g>
    </g>
    <g id="patch_101">
     <path d="M 56.72 102.190938 
L 76.72 102.190938 
L 76.72 95.190938 
L 56.72 95.190938 
z
" style="fill:#d62728;"/>
    </g>
    <g id="text_26">
     <!-- allreduce-butterfly -->
     <g transform="translate(84.72 102.190938)scale(0.1 -0.1)">
      <defs>
       <path d="M 48.6875 27.296875 
Q 48.6875 37.203125 44.609375 42.84375 
Q 40.53125 48.484375 33.40625 48.484375 
Q 26.265625 48.484375 22.1875 42.84375 
Q 18.109375 37.203125 18.109375 27.296875 
Q 18.109375 17.390625 22.1875 11.75 
Q 26.265625 6.109375 33.40625 6.109375 
Q 40.53125 6.109375 44.609375 11.75 
Q 48.6875 17.390625 48.6875 27.296875 
z
M 18.109375 46.390625 
Q 20.953125 51.265625 25.265625 53.625 
Q 29.59375 56 35.59375 56 
Q 45.5625 56 51.78125 48.09375 
Q 58.015625 40.1875 58.015625 27.296875 
Q 58.015625 14.40625 51.78125 6.484375 
Q 45.5625 -1.421875 35.59375 -1.421875 
Q 29.59375 -1.421875 25.265625 0.953125 
Q 20.953125 3.328125 18.109375 8.203125 
L 18.109375 0 
L 9.078125 0 
L 9.078125 75.984375 
L 18.109375 75.984375 
z
" id="DejaVuSans-98"/>
       <path d="M 37.109375 75.984375 
L 37.109375 68.5 
L 28.515625 68.5 
Q 23.6875 68.5 21.796875 66.546875 
Q 19.921875 64.59375 19.921875 59.515625 
L 19.921875 54.6875 
L 34.71875 54.6875 
L 34.71875 47.703125 
L 19.921875 47.703125 
L 19.921875 0 
L 10.890625 0 
L 10.890625 47.703125 
L 2.296875 47.703125 
L 2.296875 54.6875 
L 10.890625 54.6875 
L 10.890625 58.5 
Q 10.890625 67.625 15.140625 71.796875 
Q 19.390625 75.984375 28.609375 75.984375 
z
" id="DejaVuSans-102"/>
      </defs>
      <use xlink:href="#DejaVuSans-97"/>
      <use x="61.279297" xlink:href="#DejaVuSans-108"/>
      <use x="89.0625" xlink:href="#DejaVuSans-108"/>
      <use x="116.845703" xlink:href="#DejaVuSans-114"/>
      <use x="155.708984" xlink:href="#DejaVuSans-101"/>
      <use x="217.232422" xlink:href="#DejaVuSans-100"/>
      <use x="280.708984" xlink:href="#DejaVuSans-117"/>
      <use x="344.087891" xlink:href="#DejaVuSans-99"/>
      <use x="399.068359" xlink:href="#DejaVuSans-101"/>
      <use x="460.591797" xlink:href="#DejaVuSans-45"/>
      <use x="496.675781" xlink:href="#DejaVuSans-98"/>
      <use x="560.152344" xlink:href="#DejaVuSans-117"/>
      <use x="623.53125" xlink:href="#DejaVuSans-116"/>
      <use x="662.740234" xlink:href="#DejaVuSans-116"/>
      <use x="701.949219" xlink:href="#DejaVuSans-101"/>
      <use x="763.472656" xlink:href="#DejaVuSans-114"/>
      <use x="804.585938" xlink:href="#DejaVuSans-102"/>
      <use x="839.791016" xlink:href="#DejaVuSans-108"/>
      <use x="867.574219" xlink:href="#DejaVuSans-121"/>
     </g>
    </g>
    <g id="patch_102">
     <path d="M 56.72 116.869063 
L 76.72 116.869063 
L 76.72 109.869063 
L 56.72 109.869063 
z
" style="fill:#9467bd;"/>
    </g>
    <g id="text_27">
     <!-- allreduce-native-basic_linear -->
     <g transform="translate(84.72 116.869063)scale(0.1 -0.1)">
      <defs>
       <path d="M 2.984375 54.6875 
L 12.5 54.6875 
L 29.59375 8.796875 
L 46.6875 54.6875 
L 56.203125 54.6875 
L 35.6875 0 
L 23.484375 0 
z
" id="DejaVuSans-118"/>
       <path d="M 50.984375 -16.609375 
L 50.984375 -23.578125 
L -0.984375 -23.578125 
L -0.984375 -16.609375 
z
" id="DejaVuSans-95"/>
      </defs>
      <use xlink:href="#DejaVuSans-97"/>
      <use x="61.279297" xlink:href="#DejaVuSans-108"/>
      <use x="89.0625" xlink:href="#DejaVuSans-108"/>
      <use x="116.845703" xlink:href="#DejaVuSans-114"/>
      <use x="155.708984" xlink:href="#DejaVuSans-101"/>
      <use x="217.232422" xlink:href="#DejaVuSans-100"/>
      <use x="280.708984" xlink:href="#DejaVuSans-117"/>
      <use x="344.087891" xlink:href="#DejaVuSans-99"/>
      <use x="399.068359" xlink:href="#DejaVuSans-101"/>
      <use x="460.591797" xlink:href="#DejaVuSans-45"/>
      <use x="496.675781" xlink:href="#DejaVuSans-110"/>
      <use x="560.054688" xlink:href="#DejaVuSans-97"/>
      <use x="621.333984" xlink:href="#DejaVuSans-116"/>
      <use x="660.542969" xlink:href="#DejaVuSans-105"/>
      <use x="688.326172" xlink:href="#DejaVuSans-118"/>
      <use x="747.505859" xlink:href="#DejaVuSans-101"/>
      <use x="809.029297" xlink:href="#DejaVuSans-45"/>
      <use x="845.113281" xlink:href="#DejaVuSans-98"/>
      <use x="908.589844" xlink:href="#DejaVuSans-97"/>
      <use x="969.869141" xlink:href="#DejaVuSans-115"/>
      <use x="1021.96875" xlink:href="#DejaVuSans-105"/>
      <use x="1049.751953" xlink:href="#DejaVuSans-99"/>
      <use x="1104.732422" xlink:href="#DejaVuSans-95"/>
      <use x="1154.732422" xlink:href="#DejaVuSans-108"/>
      <use x="1182.515625" xlink:href="#DejaVuSans-105"/>
      <use x="1210.298828" xlink:href="#DejaVuSans-110"/>
      <use x="1273.677734" xlink:href="#DejaVuSans-101"/>
      <use x="1335.201172" xlink:href="#DejaVuSans-97"/>
      <use x="1396.480469" xlink:href="#DejaVuSans-114"/>
     </g>
    </g>
    <g id="patch_103">
     <path d="M 56.72 131.825312 
L 76.72 131.825312 
L 76.72 124.825312 
L 56.72 124.825312 
z
" style="fill:#8c564b;"/>
    </g>
    <g id="text_28">
     <!-- allreduce-native-rabenseifner -->
     <g transform="translate(84.72 131.825312)scale(0.1 -0.1)">
      <use xlink:href="#DejaVuSans-97"/>
      <use x="61.279297" xlink:href="#DejaVuSans-108"/>
      <use x="89.0625" xlink:href="#DejaVuSans-108"/>
      <use x="116.845703" xlink:href="#DejaVuSans-114"/>
      <use x="155.708984" xlink:href="#DejaVuSans-101"/>
      <use x="217.232422" xlink:href="#DejaVuSans-100"/>
      <use x="280.708984" xlink:href="#DejaVuSans-117"/>
      <use x="344.087891" xlink:href="#DejaVuSans-99"/>
      <use x="399.068359" xlink:href="#DejaVuSans-101"/>
      <use x="460.591797" xlink:href="#DejaVuSans-45"/>
      <use x="496.675781" xlink:href="#DejaVuSans-110"/>
      <use x="560.054688" xlink:href="#DejaVuSans-97"/>
      <use x="621.333984" xlink:href="#DejaVuSans-116"/>
      <use x="660.542969" xlink:href="#DejaVuSans-105"/>
      <use x="688.326172" xlink:href="#DejaVuSans-118"/>
      <use x="747.505859" xlink:href="#DejaVuSans-101"/>
      <use x="809.029297" xlink:href="#DejaVuSans-45"/>
      <use x="845.113281" xlink:href="#DejaVuSans-114"/>
      <use x="886.226562" xlink:href="#DejaVuSans-97"/>
      <use x="947.505859" xlink:href="#DejaVuSans-98"/>
      <use x="1010.982422" xlink:href="#DejaVuSans-101"/>
      <use x="1072.505859" xlink:href="#DejaVuSans-110"/>
      <use x="1135.884766" xlink:href="#DejaVuSans-115"/>
      <use x="1187.984375" xlink:href="#DejaVuSans-101"/>
      <use x="1249.507812" xlink:href="#DejaVuSans-105"/>
      <use x="1277.291016" xlink:href="#DejaVuSans-102"/>
      <use x="1312.496094" xlink:href="#DejaVuSans-110"/>
      <use x="1375.875" xlink:href="#DejaVuSans-101"/>
      <use x="1437.398438" xlink:href="#DejaVuSans-114"/>
     </g>
    </g>
    <g id="patch_104">
     <path d="M 56.72 146.503438 
L 76.72 146.503438 
L 76.72 139.503438 
L 56.72 139.503438 
z
" style="fill:#e377c2;"/>
    </g>
    <g id="text_29">
     <!-- allreduce-native-ring -->
     <g transform="translate(84.72 146.503438)scale(0.1 -0.1)">
      <use xlink:href="#DejaVuSans-97"/>
      <use x="61.279297" xlink:href="#DejaVuSans-108"/>
      <use x="89.0625" xlink:href="#DejaVuSans-108"/>
      <use x="116.845703" xlink:href="#DejaVuSans-114"/>
      <use x="155.708984" xlink:href="#DejaVuSans-101"/>
      <use x="217.232422" xlink:href="#DejaVuSans-100"/>
      <use x="280.708984" xlink:href="#DejaVuSans-117"/>
      <use x="344.087891" xlink:href="#DejaVuSans-99"/>
      <use x="399.068359" xlink:href="#DejaVuSans-101"/>
      <use x="460.591797" xlink:href="#DejaVuSans-45"/>
      <use x="496.675781" xlink:href="#DejaVuSans-110"/>
      <use x="560.054688" xlink:href="#DejaVuSans-97"/>
      <use x="621.333984" xlink:href="#DejaVuSans-116"/>
      <use x="660.542969" xlink:href="#DejaVuSans-105"/>
      <use x="688.326172" xlink:href="#DejaVuSans-118"/>
      <use x="747.505859" xlink:href="#DejaVuSans-101"/>
      <use x="809.029297" xlink:href="#DejaVuSans-45"/>
      <use x="845.113281" xlink:href="#DejaVuSans-114"/>
      <use x="886.226562" xlink:href="#DejaVuSans-105"/>
      <use x="914.009766" xlink:href="#DejaVuSans-110"/>
      <use x="977.388672" xlink:href="#DejaVuSans-103"/>
     </g>
    </g>
    <g id="patch_105">
     <path d="M 56.72 161.181563 
L 76.72 161.181563 
L 76.72 154.181563 
L 56.72 154.181563 
z
" style="fill:#7f7f7f;"/>
    </g>
    <g id="text_30">
     <!-- allreduce-rabenseifner -->
     <g transform="translate(84.72 161.181563)scale(0.1 -0.1)">
      <use xlink:href="#DejaVuSans-97"/>
      <use x="61.279297" xlink:href="#DejaVuSans-108"/>
      <use x="89.0625" xlink:href="#DejaVuSans-108"/>
      <use x="116.845703" xlink:href="#DejaVuSans-114"/>
      <use x="155.708984" xlink:href="#DejaVuSans-101"/>
      <use x="217.232422" xlink:href="#DejaVuSans-100"/>
      <use x="280.708984" xlink:href="#DejaVuSans-117"/>
      <use x="344.087891" xlink:href="#DejaVuSans-99"/>
      <use x="399.068359" xlink:href="#DejaVuSans-101"/>
      <use x="460.591797" xlink:href="#DejaVuSans-45"/>
      <use x="496.675781" xlink:href="#DejaVuSans-114"/>
      <use x="537.789062" xlink:href="#DejaVuSans-97"/>
      <use x="599.068359" xlink:href="#DejaVuSans-98"/>
      <use x="662.544922" xlink:href="#DejaVuSans-101"/>
      <use x="724.068359" xlink:href="#DejaVuSans-110"/>
      <use x="787.447266" xlink:href="#DejaVuSans-115"/>
      <use x="839.546875" xlink:href="#DejaVuSans-101"/>
      <use x="901.070312" xlink:href="#DejaVuSans-105"/>
      <use x="928.853516" xlink:href="#DejaVuSans-102"/>
      <use x="964.058594" xlink:href="#DejaVuSans-110"/>
      <use x="1027.4375" xlink:href="#DejaVuSans-101"/>
      <use x="1088.960938" xlink:href="#DejaVuSans-114"/>
     </g>
    </g>
    <g id="patch_106">
     <path d="M 56.72 175.859688 
L 76.72 175.859688 
L 76.72 168.859688 
L 56.72 168.859688 
z
" style="fill:#bcbd22;"/>
    </g>
    <g id="text_31">
     <!-- rabenseifner-gather -->
     <g transform="translate(84.72 175.859688)scale(0.1 -0.1)">
      <use xlink:href="#DejaVuSans-114"/>
      <use x="41.113281" xlink:href="#DejaVuSans-97"/>
      <use x="102.392578" xlink:href="#DejaVuSans-98"/>
      <use x="165.869141" xlink:href="#DejaVuSans-101"/>
      <use x="227.392578" xlink:href="#DejaVuSans-110"/>
      <use x="290.771484" xlink:href="#DejaVuSans-115"/>
      <use x="342.871094" xlink:href="#DejaVuSans-101"/>
      <use x="404.394531" xlink:href="#DejaVuSans-105"/>
      <use x="432.177734" xlink:href="#DejaVuSans-102"/>
      <use x="467.382812" xlink:href="#DejaVuSans-110"/>
      <use x="530.761719" xlink:href="#DejaVuSans-101"/>
      <use x="592.285156" xlink:href="#DejaVuSans-114"/>
      <use x="627.023438" xlink:href="#DejaVuSans-45"/>
      <use x="663.107422" xlink:href="#DejaVuSans-103"/>
      <use x="726.583984" xlink:href="#DejaVuSans-97"/>
      <use x="787.863281" xlink:href="#DejaVuSans-116"/>
      <use x="827.072266" xlink:href="#DejaVuSans-104"/>
      <use x="890.451172" xlink:href="#DejaVuSans-101"/>
      <use x="951.974609" xlink:href="#DejaVuSans-114"/>
     </g>
    </g>
   </g>
  </g>
 </g>
 <defs>
  <clipPath id="p1ce1233224">
   <rect height="261.37" width="402.28" x="47.72" y="26.88"/>
  </clipPath>
 </defs>
</svg>
