<?xml version="1.0" encoding="utf-8" standalone="no"?>
<!DOCTYPE svg PUBLIC "-//W3C//DTD SVG 1.1//EN"
  "http://www.w3.org/Graphics/SVG/1.1/DTD/svg11.dtd">
<!-- Created with matplotlib (https://matplotlib.org/) -->
<svg height="345.6pt" version="1.1" viewBox="0 0 460.8 345.6" width="460.8pt" xmlns="http://www.w3.org/2000/svg" xmlns:xlink="http://www.w3.org/1999/xlink">
 <metadata>
  <rdf:RDF xmlns:cc="http://creativecommons.org/ns#" xmlns:dc="http://purl.org/dc/elements/1.1/" xmlns:rdf="http://www.w3.org/1999/02/22-rdf-syntax-ns#">
   <cc:Work>
    <dc:type rdf:resource="http://purl.org/dc/dcmitype/StillImage"/>
    <dc:date>2021-11-14T16:09:18.586048</dc:date>
    <dc:format>image/svg+xml</dc:format>
    <dc:creator>
     <cc:Agent>
      <dc:title>Matplotlib v3.3.4, https://matplotlib.org/</dc:title>
     </cc:Agent>
    </dc:creator>
   </cc:Work>
  </rdf:RDF>
 </metadata>
 <defs>
  <style type="text/css">*{stroke-linecap:butt;stroke-linejoin:round;}</style>
 </defs>
 <g id="figure_1">
  <g id="patch_1">
   <path d="M 0 345.6 
L 460.8 345.6 
L 460.8 0 
L 0 0 
z
" style="fill:#ffffff;"/>
  </g>
  <g id="axes_1">
   <g id="patch_2">
    <path d="M 54.02 303.64 
L 450 303.64 
L 450 26.88 
L 54.02 26.88 
z
" style="fill:#ffffff;"/>
   </g>
   <g id="matplotlib.axis_1">
    <g id="xtick_1">
     <g id="line2d_1">
      <defs>
       <path d="M 0 0 
L 0 3.5 
" id="mcfec5b9f76" style="stroke:#000000;stroke-width:0.8;"/>
      </defs>
      <g>
       <use style="stroke:#000000;stroke-width:0.8;" x="62.788788" xlink:href="#mcfec5b9f76" y="303.64"/>
      </g>
     </g>
     <g id="text_1">
      <!-- 0 -->
      <g transform="translate(59.607538 318.238437)scale(0.1 -0.1)">
       <defs>
        <path d="M 31.78125 66.40625 
Q 24.171875 66.40625 20.328125 58.90625 
Q 16.5 51.421875 16.5 36.375 
Q 16.5 21.390625 20.328125 13.890625 
Q 24.171875 6.390625 31.78125 6.390625 
Q 39.453125 6.390625 43.28125 13.890625 
Q 47.125 21.390625 47.125 36.375 
Q 47.125 51.421875 43.28125 58.90625 
Q 39.453125 66.40625 31.78125 66.40625 
z
M 31.78125 74.21875 
Q 44.046875 74.21875 50.515625 64.515625 
Q 56.984375 54.828125 56.984375 36.375 
Q 56.984375 17.96875 50.515625 8.265625 
Q 44.046875 -1.421875 31.78125 -1.421875 
Q 19.53125 -1.421875 13.0625 8.265625 
Q 6.59375 17.96875 6.59375 36.375 
Q 6.59375 54.828125 13.0625 64.515625 
Q 19.53125 74.21875 31.78125 74.21875 
z
" id="DejaVuSans-48"/>
       </defs>
       <use xlink:href="#DejaVuSans-48"/>
      </g>
     </g>
    </g>
    <g id="xtick_2">
     <g id="line2d_2">
      <g>
       <use style="stroke:#000000;stroke-width:0.8;" x="108.940303" xlink:href="#mcfec5b9f76" y="303.64"/>
      </g>
     </g>
     <g id="text_2">
      <!-- 5 -->
      <g transform="translate(105.759053 318.238437)scale(0.1 -0.1)">
       <defs>
        <path d="M 10.796875 72.90625 
L 49.515625 72.90625 
L 49.515625 64.59375 
L 19.828125 64.59375 
L 19.828125 46.734375 
Q 21.96875 47.46875 24.109375 47.828125 
Q 26.265625 48.1875 28.421875 48.1875 
Q 40.625 48.1875 47.75 41.5 
Q 54.890625 34.8125 54.890625 23.390625 
Q 54.890625 11.625 47.5625 5.09375 
Q 40.234375 -1.421875 26.90625 -1.421875 
Q 22.3125 -1.421875 17.546875 -0.640625 
Q 12.796875 0.140625 7.71875 1.703125 
L 7.71875 11.625 
Q 12.109375 9.234375 16.796875 8.0625 
Q 21.484375 6.890625 26.703125 6.890625 
Q 35.15625 6.890625 40.078125 11.328125 
Q 45.015625 15.765625 45.015625 23.390625 
Q 45.015625 31 40.078125 35.4375 
Q 35.15625 39.890625 26.703125 39.890625 
Q 22.75 39.890625 18.8125 39.015625 
Q 14.890625 38.140625 10.796875 36.28125 
z
" id="DejaVuSans-53"/>
       </defs>
       <use xlink:href="#DejaVuSans-53"/>
      </g>
     </g>
    </g>
    <g id="xtick_3">
     <g id="line2d_3">
      <g>
       <use style="stroke:#000000;stroke-width:0.8;" x="155.091818" xlink:href="#mcfec5b9f76" y="303.64"/>
      </g>
     </g>
     <g id="text_3">
      <!-- 10 -->
      <g transform="translate(148.729318 318.238437)scale(0.1 -0.1)">
       <defs>
        <path d="M 12.40625 8.296875 
L 28.515625 8.296875 
L 28.515625 63.921875 
L 10.984375 60.40625 
L 10.984375 69.390625 
L 28.421875 72.90625 
L 38.28125 72.90625 
L 38.28125 8.296875 
L 54.390625 8.296875 
L 54.390625 0 
L 12.40625 0 
z
" id="DejaVuSans-49"/>
       </defs>
       <use xlink:href="#DejaVuSans-49"/>
       <use x="63.623047" xlink:href="#DejaVuSans-48"/>
      </g>
     </g>
    </g>
    <g id="xtick_4">
     <g id="line2d_4">
      <g>
       <use style="stroke:#000000;stroke-width:0.8;" x="201.243333" xlink:href="#mcfec5b9f76" y="303.64"/>
      </g>
     </g>
     <g id="text_4">
      <!-- 15 -->
      <g transform="translate(194.880833 318.238437)scale(0.1 -0.1)">
       <use xlink:href="#DejaVuSans-49"/>
       <use x="63.623047" xlink:href="#DejaVuSans-53"/>
      </g>
     </g>
    </g>
    <g id="xtick_5">
     <g id="line2d_5">
      <g>
       <use style="stroke:#000000;stroke-width:0.8;" x="247.394848" xlink:href="#mcfec5b9f76" y="303.64"/>
      </g>
     </g>
     <g id="text_5">
      <!-- 20 -->
      <g transform="translate(241.032348 318.238437)scale(0.1 -0.1)">
       <defs>
        <path d="M 19.1875 8.296875 
L 53.609375 8.296875 
L 53.609375 0 
L 7.328125 0 
L 7.328125 8.296875 
Q 12.9375 14.109375 22.625 23.890625 
Q 32.328125 33.6875 34.8125 36.53125 
Q 39.546875 41.84375 41.421875 45.53125 
Q 43.3125 49.21875 43.3125 52.78125 
Q 43.3125 58.59375 39.234375 62.25 
Q 35.15625 65.921875 28.609375 65.921875 
Q 23.96875 65.921875 18.8125 64.3125 
Q 13.671875 62.703125 7.8125 59.421875 
L 7.8125 69.390625 
Q 13.765625 71.78125 18.9375 73 
Q 24.125 74.21875 28.421875 74.21875 
Q 39.75 74.21875 46.484375 68.546875 
Q 53.21875 62.890625 53.21875 53.421875 
Q 53.21875 48.921875 51.53125 44.890625 
Q 49.859375 40.875 45.40625 35.40625 
Q 44.1875 33.984375 37.640625 27.21875 
Q 31.109375 20.453125 19.1875 8.296875 
z
" id="DejaVuSans-50"/>
       </defs>
       <use xlink:href="#DejaVuSans-50"/>
       <use x="63.623047" xlink:href="#DejaVuSans-48"/>
      </g>
     </g>
    </g>
    <g id="xtick_6">
     <g id="line2d_6">
      <g>
       <use style="stroke:#000000;stroke-width:0.8;" x="293.546364" xlink:href="#mcfec5b9f76" y="303.64"/>
      </g>
     </g>
     <g id="text_6">
      <!-- 25 -->
      <g transform="translate(287.183864 318.238437)scale(0.1 -0.1)">
       <use xlink:href="#DejaVuSans-50"/>
       <use x="63.623047" xlink:href="#DejaVuSans-53"/>
      </g>
     </g>
    </g>
    <g id="xtick_7">
     <g id="line2d_7">
      <g>
       <use style="stroke:#000000;stroke-width:0.8;" x="339.697879" xlink:href="#mcfec5b9f76" y="303.64"/>
      </g>
     </g>
     <g id="text_7">
      <!-- 30 -->
      <g transform="translate(333.335379 318.238437)scale(0.1 -0.1)">
       <defs>
        <path d="M 40.578125 39.3125 
Q 47.65625 37.796875 51.625 33 
Q 55.609375 28.21875 55.609375 21.1875 
Q 55.609375 10.40625 48.1875 4.484375 
Q 40.765625 -1.421875 27.09375 -1.421875 
Q 22.515625 -1.421875 17.65625 -0.515625 
Q 12.796875 0.390625 7.625 2.203125 
L 7.625 11.71875 
Q 11.71875 9.328125 16.59375 8.109375 
Q 21.484375 6.890625 26.8125 6.890625 
Q 36.078125 6.890625 40.9375 10.546875 
Q 45.796875 14.203125 45.796875 21.1875 
Q 45.796875 27.640625 41.28125 31.265625 
Q 36.765625 34.90625 28.71875 34.90625 
L 20.21875 34.90625 
L 20.21875 43.015625 
L 29.109375 43.015625 
Q 36.375 43.015625 40.234375 45.921875 
Q 44.09375 48.828125 44.09375 54.296875 
Q 44.09375 59.90625 40.109375 62.90625 
Q 36.140625 65.921875 28.71875 65.921875 
Q 24.65625 65.921875 20.015625 65.03125 
Q 15.375 64.15625 9.8125 62.3125 
L 9.8125 71.09375 
Q 15.4375 72.65625 20.34375 73.4375 
Q 25.25 74.21875 29.59375 74.21875 
Q 40.828125 74.21875 47.359375 69.109375 
Q 53.90625 64.015625 53.90625 55.328125 
Q 53.90625 49.265625 50.4375 45.09375 
Q 46.96875 40.921875 40.578125 39.3125 
z
" id="DejaVuSans-51"/>
       </defs>
       <use xlink:href="#DejaVuSans-51"/>
       <use x="63.623047" xlink:href="#DejaVuSans-48"/>
      </g>
     </g>
    </g>
    <g id="xtick_8">
     <g id="line2d_8">
      <g>
       <use style="stroke:#000000;stroke-width:0.8;" x="385.849394" xlink:href="#mcfec5b9f76" y="303.64"/>
      </g>
     </g>
     <g id="text_8">
      <!-- 35 -->
      <g transform="translate(379.486894 318.238437)scale(0.1 -0.1)">
       <use xlink:href="#DejaVuSans-51"/>
       <use x="63.623047" xlink:href="#DejaVuSans-53"/>
      </g>
     </g>
    </g>
    <g id="xtick_9">
     <g id="line2d_9">
      <g>
       <use style="stroke:#000000;stroke-width:0.8;" x="432.000909" xlink:href="#mcfec5b9f76" y="303.64"/>
      </g>
     </g>
     <g id="text_9">
      <!-- 40 -->
      <g transform="translate(425.638409 318.238437)scale(0.1 -0.1)">
       <defs>
        <path d="M 37.796875 64.3125 
L 12.890625 25.390625 
L 37.796875 25.390625 
z
M 35.203125 72.90625 
L 47.609375 72.90625 
L 47.609375 25.390625 
L 58.015625 25.390625 
L 58.015625 17.1875 
L 47.609375 17.1875 
L 47.609375 0 
L 37.796875 0 
L 37.796875 17.1875 
L 4.890625 17.1875 
L 4.890625 26.703125 
z
" id="DejaVuSans-52"/>
       </defs>
       <use xlink:href="#DejaVuSans-52"/>
       <use x="63.623047" xlink:href="#DejaVuSans-48"/>
      </g>
     </g>
    </g>
    <g id="text_10">
     <!-- Iteration -->
     <g transform="translate(230.801406 331.916562)scale(0.1 -0.1)">
      <defs>
       <path d="M 9.8125 72.90625 
L 19.671875 72.90625 
L 19.671875 0 
L 9.8125 0 
z
" id="DejaVuSans-73"/>
       <path d="M 18.3125 70.21875 
L 18.3125 54.6875 
L 36.8125 54.6875 
L 36.8125 47.703125 
L 18.3125 47.703125 
L 18.3125 18.015625 
Q 18.3125 11.328125 20.140625 9.421875 
Q 21.96875 7.515625 27.59375 7.515625 
L 36.8125 7.515625 
L 36.8125 0 
L 27.59375 0 
Q 17.1875 0 13.234375 3.875 
Q 9.28125 7.765625 9.28125 18.015625 
L 9.28125 47.703125 
L 2.6875 47.703125 
L 2.6875 54.6875 
L 9.28125 54.6875 
L 9.28125 70.21875 
z
" id="DejaVuSans-116"/>
       <path d="M 56.203125 29.59375 
L 56.203125 25.203125 
L 14.890625 25.203125 
Q 15.484375 15.921875 20.484375 11.0625 
Q 25.484375 6.203125 34.421875 6.203125 
Q 39.59375 6.203125 44.453125 7.46875 
Q 49.3125 8.734375 54.109375 11.28125 
L 54.109375 2.78125 
Q 49.265625 0.734375 44.1875 -0.34375 
Q 39.109375 -1.421875 33.890625 -1.421875 
Q 20.796875 -1.421875 13.15625 6.1875 
Q 5.515625 13.8125 5.515625 26.8125 
Q 5.515625 40.234375 12.765625 48.109375 
Q 20.015625 56 32.328125 56 
Q 43.359375 56 49.78125 48.890625 
Q 56.203125 41.796875 56.203125 29.59375 
z
M 47.21875 32.234375 
Q 47.125 39.59375 43.09375 43.984375 
Q 39.0625 48.390625 32.421875 48.390625 
Q 24.90625 48.390625 20.390625 44.140625 
Q 15.875 39.890625 15.1875 32.171875 
z
" id="DejaVuSans-101"/>
       <path d="M 41.109375 46.296875 
Q 39.59375 47.171875 37.8125 47.578125 
Q 36.03125 48 33.890625 48 
Q 26.265625 48 22.1875 43.046875 
Q 18.109375 38.09375 18.109375 28.8125 
L 18.109375 0 
L 9.078125 0 
L 9.078125 54.6875 
L 18.109375 54.6875 
L 18.109375 46.1875 
Q 20.953125 51.171875 25.484375 53.578125 
Q 30.03125 56 36.53125 56 
Q 37.453125 56 38.578125 55.875 
Q 39.703125 55.765625 41.0625 55.515625 
z
" id="DejaVuSans-114"/>
       <path d="M 34.28125 27.484375 
Q 23.390625 27.484375 19.1875 25 
Q 14.984375 22.515625 14.984375 16.5 
Q 14.984375 11.71875 18.140625 8.90625 
Q 21.296875 6.109375 26.703125 6.109375 
Q 34.1875 6.109375 38.703125 11.40625 
Q 43.21875 16.703125 43.21875 25.484375 
L 43.21875 27.484375 
z
M 52.203125 31.203125 
L 52.203125 0 
L 43.21875 0 
L 43.21875 8.296875 
Q 40.140625 3.328125 35.546875 0.953125 
Q 30.953125 -1.421875 24.3125 -1.421875 
Q 15.921875 -1.421875 10.953125 3.296875 
Q 6 8.015625 6 15.921875 
Q 6 25.140625 12.171875 29.828125 
Q 18.359375 34.515625 30.609375 34.515625 
L 43.21875 34.515625 
L 43.21875 35.40625 
Q 43.21875 41.609375 39.140625 45 
Q 35.0625 48.390625 27.6875 48.390625 
Q 23 48.390625 18.546875 47.265625 
Q 14.109375 46.140625 10.015625 43.890625 
L 10.015625 52.203125 
Q 14.9375 54.109375 19.578125 55.046875 
Q 24.21875 56 28.609375 56 
Q 40.484375 56 46.34375 49.84375 
Q 52.203125 43.703125 52.203125 31.203125 
z
" id="DejaVuSans-97"/>
       <path d="M 9.421875 54.6875 
L 18.40625 54.6875 
L 18.40625 0 
L 9.421875 0 
z
M 9.421875 75.984375 
L 18.40625 75.984375 
L 18.40625 64.59375 
L 9.421875 64.59375 
z
" id="DejaVuSans-105"/>
       <path d="M 30.609375 48.390625 
Q 23.390625 48.390625 19.1875 42.75 
Q 14.984375 37.109375 14.984375 27.296875 
Q 14.984375 17.484375 19.15625 11.84375 
Q 23.34375 6.203125 30.609375 6.203125 
Q 37.796875 6.203125 41.984375 11.859375 
Q 46.1875 17.53125 46.1875 27.296875 
Q 46.1875 37.015625 41.984375 42.703125 
Q 37.796875 48.390625 30.609375 48.390625 
z
M 30.609375 56 
Q 42.328125 56 49.015625 48.375 
Q 55.71875 40.765625 55.71875 27.296875 
Q 55.71875 13.875 49.015625 6.21875 
Q 42.328125 -1.421875 30.609375 -1.421875 
Q 18.84375 -1.421875 12.171875 6.21875 
Q 5.515625 13.875 5.515625 27.296875 
Q 5.515625 40.765625 12.171875 48.375 
Q 18.84375 56 30.609375 56 
z
" id="DejaVuSans-111"/>
       <path d="M 54.890625 33.015625 
L 54.890625 0 
L 45.90625 0 
L 45.90625 32.71875 
Q 45.90625 40.484375 42.875 44.328125 
Q 39.84375 48.1875 33.796875 48.1875 
Q 26.515625 48.1875 22.3125 43.546875 
Q 18.109375 38.921875 18.109375 30.90625 
L 18.109375 0 
L 9.078125 0 
L 9.078125 54.6875 
L 18.109375 54.6875 
L 18.109375 46.1875 
Q 21.34375 51.125 25.703125 53.5625 
Q 30.078125 56 35.796875 56 
Q 45.21875 56 50.046875 50.171875 
Q 54.890625 44.34375 54.890625 33.015625 
z
" id="DejaVuSans-110"/>
      </defs>
      <use xlink:href="#DejaVuSans-73"/>
      <use x="29.492188" xlink:href="#DejaVuSans-116"/>
      <use x="68.701172" xlink:href="#DejaVuSans-101"/>
      <use x="130.224609" xlink:href="#DejaVuSans-114"/>
      <use x="171.337891" xlink:href="#DejaVuSans-97"/>
      <use x="232.617188" xlink:href="#DejaVuSans-116"/>
      <use x="271.826172" xlink:href="#DejaVuSans-105"/>
      <use x="299.609375" xlink:href="#DejaVuSans-111"/>
      <use x="360.791016" xlink:href="#DejaVuSans-110"/>
     </g>
    </g>
   </g>
   <g id="matplotlib.axis_2">
    <g id="ytick_1">
     <g id="line2d_10">
      <defs>
       <path d="M 0 0 
L -3.5 0 
" id="m33ba4a1e6c" style="stroke:#000000;stroke-width:0.8;"/>
      </defs>
      <g>
       <use style="stroke:#000000;stroke-width:0.8;" x="54.02" xlink:href="#m33ba4a1e6c" y="302.298346"/>
      </g>
     </g>
     <g id="text_11">
      <!-- 0.05 -->
      <g transform="translate(24.754375 306.097565)scale(0.1 -0.1)">
       <defs>
        <path d="M 10.6875 12.40625 
L 21 12.40625 
L 21 0 
L 10.6875 0 
z
" id="DejaVuSans-46"/>
       </defs>
       <use xlink:href="#DejaVuSans-48"/>
       <use x="63.623047" xlink:href="#DejaVuSans-46"/>
       <use x="95.410156" xlink:href="#DejaVuSans-48"/>
       <use x="159.033203" xlink:href="#DejaVuSans-53"/>
      </g>
     </g>
    </g>
    <g id="ytick_2">
     <g id="line2d_11">
      <g>
       <use style="stroke:#000000;stroke-width:0.8;" x="54.02" xlink:href="#m33ba4a1e6c" y="268.039274"/>
      </g>
     </g>
     <g id="text_12">
      <!-- 0.10 -->
      <g transform="translate(24.754375 271.838492)scale(0.1 -0.1)">
       <use xlink:href="#DejaVuSans-48"/>
       <use x="63.623047" xlink:href="#DejaVuSans-46"/>
       <use x="95.410156" xlink:href="#DejaVuSans-49"/>
       <use x="159.033203" xlink:href="#DejaVuSans-48"/>
      </g>
     </g>
    </g>
    <g id="ytick_3">
     <g id="line2d_12">
      <g>
       <use style="stroke:#000000;stroke-width:0.8;" x="54.02" xlink:href="#m33ba4a1e6c" y="233.780201"/>
      </g>
     </g>
     <g id="text_13">
      <!-- 0.15 -->
      <g transform="translate(24.754375 237.57942)scale(0.1 -0.1)">
       <use xlink:href="#DejaVuSans-48"/>
       <use x="63.623047" xlink:href="#DejaVuSans-46"/>
       <use x="95.410156" xlink:href="#DejaVuSans-49"/>
       <use x="159.033203" xlink:href="#DejaVuSans-53"/>
      </g>
     </g>
    </g>
    <g id="ytick_4">
     <g id="line2d_13">
      <g>
       <use style="stroke:#000000;stroke-width:0.8;" x="54.02" xlink:href="#m33ba4a1e6c" y="199.521128"/>
      </g>
     </g>
     <g id="text_14">
      <!-- 0.20 -->
      <g transform="translate(24.754375 203.320347)scale(0.1 -0.1)">
       <use xlink:href="#DejaVuSans-48"/>
       <use x="63.623047" xlink:href="#DejaVuSans-46"/>
       <use x="95.410156" xlink:href="#DejaVuSans-50"/>
       <use x="159.033203" xlink:href="#DejaVuSans-48"/>
      </g>
     </g>
    </g>
    <g id="ytick_5">
     <g id="line2d_14">
      <g>
       <use style="stroke:#000000;stroke-width:0.8;" x="54.02" xlink:href="#m33ba4a1e6c" y="165.262056"/>
      </g>
     </g>
     <g id="text_15">
      <!-- 0.25 -->
      <g transform="translate(24.754375 169.061274)scale(0.1 -0.1)">
       <use xlink:href="#DejaVuSans-48"/>
       <use x="63.623047" xlink:href="#DejaVuSans-46"/>
       <use x="95.410156" xlink:href="#DejaVuSans-50"/>
       <use x="159.033203" xlink:href="#DejaVuSans-53"/>
      </g>
     </g>
    </g>
    <g id="ytick_6">
     <g id="line2d_15">
      <g>
       <use style="stroke:#000000;stroke-width:0.8;" x="54.02" xlink:href="#m33ba4a1e6c" y="131.002983"/>
      </g>
     </g>
     <g id="text_16">
      <!-- 0.30 -->
      <g transform="translate(24.754375 134.802202)scale(0.1 -0.1)">
       <use xlink:href="#DejaVuSans-48"/>
       <use x="63.623047" xlink:href="#DejaVuSans-46"/>
       <use x="95.410156" xlink:href="#DejaVuSans-51"/>
       <use x="159.033203" xlink:href="#DejaVuSans-48"/>
      </g>
     </g>
    </g>
    <g id="ytick_7">
     <g id="line2d_16">
      <g>
       <use style="stroke:#000000;stroke-width:0.8;" x="54.02" xlink:href="#m33ba4a1e6c" y="96.74391"/>
      </g>
     </g>
     <g id="text_17">
      <!-- 0.35 -->
      <g transform="translate(24.754375 100.543129)scale(0.1 -0.1)">
       <use xlink:href="#DejaVuSans-48"/>
       <use x="63.623047" xlink:href="#DejaVuSans-46"/>
       <use x="95.410156" xlink:href="#DejaVuSans-51"/>
       <use x="159.033203" xlink:href="#DejaVuSans-53"/>
      </g>
     </g>
    </g>
    <g id="ytick_8">
     <g id="line2d_17">
      <g>
       <use style="stroke:#000000;stroke-width:0.8;" x="54.02" xlink:href="#m33ba4a1e6c" y="62.484838"/>
      </g>
     </g>
     <g id="text_18">
      <!-- 0.40 -->
      <g transform="translate(24.754375 66.284056)scale(0.1 -0.1)">
       <use xlink:href="#DejaVuSans-48"/>
       <use x="63.623047" xlink:href="#DejaVuSans-46"/>
       <use x="95.410156" xlink:href="#DejaVuSans-52"/>
       <use x="159.033203" xlink:href="#DejaVuSans-48"/>
      </g>
     </g>
    </g>
    <g id="ytick_9">
     <g id="line2d_18">
      <g>
       <use style="stroke:#000000;stroke-width:0.8;" x="54.02" xlink:href="#m33ba4a1e6c" y="28.225765"/>
      </g>
     </g>
     <g id="text_19">
      <!-- 0.45 -->
      <g transform="translate(24.754375 32.024984)scale(0.1 -0.1)">
       <use xlink:href="#DejaVuSans-48"/>
       <use x="63.623047" xlink:href="#DejaVuSans-46"/>
       <use x="95.410156" xlink:href="#DejaVuSans-52"/>
       <use x="159.033203" xlink:href="#DejaVuSans-53"/>
      </g>
     </g>
    </g>
    <g id="text_20">
     <!-- Runtime (s) -->
     <g transform="translate(18.674688 194.238125)rotate(-90)scale(0.1 -0.1)">
      <defs>
       <path d="M 44.390625 34.1875 
Q 47.5625 33.109375 50.5625 29.59375 
Q 53.5625 26.078125 56.59375 19.921875 
L 66.609375 0 
L 56 0 
L 46.6875 18.703125 
Q 43.0625 26.03125 39.671875 28.421875 
Q 36.28125 30.8125 30.421875 30.8125 
L 19.671875 30.8125 
L 19.671875 0 
L 9.8125 0 
L 9.8125 72.90625 
L 32.078125 72.90625 
Q 44.578125 72.90625 50.734375 67.671875 
Q 56.890625 62.453125 56.890625 51.90625 
Q 56.890625 45.015625 53.6875 40.46875 
Q 50.484375 35.9375 44.390625 34.1875 
z
M 19.671875 64.796875 
L 19.671875 38.921875 
L 32.078125 38.921875 
Q 39.203125 38.921875 42.84375 42.21875 
Q 46.484375 45.515625 46.484375 51.90625 
Q 46.484375 58.296875 42.84375 61.546875 
Q 39.203125 64.796875 32.078125 64.796875 
z
" id="DejaVuSans-82"/>
       <path d="M 8.5 21.578125 
L 8.5 54.6875 
L 17.484375 54.6875 
L 17.484375 21.921875 
Q 17.484375 14.15625 20.5 10.265625 
Q 23.53125 6.390625 29.59375 6.390625 
Q 36.859375 6.390625 41.078125 11.03125 
Q 45.3125 15.671875 45.3125 23.6875 
L 45.3125 54.6875 
L 54.296875 54.6875 
L 54.296875 0 
L 45.3125 0 
L 45.3125 8.40625 
Q 42.046875 3.421875 37.71875 1 
Q 33.40625 -1.421875 27.6875 -1.421875 
Q 18.265625 -1.421875 13.375 4.4375 
Q 8.5 10.296875 8.5 21.578125 
z
M 31.109375 56 
z
" id="DejaVuSans-117"/>
       <path d="M 52 44.1875 
Q 55.375 50.25 60.0625 53.125 
Q 64.75 56 71.09375 56 
Q 79.640625 56 84.28125 50.015625 
Q 88.921875 44.046875 88.921875 33.015625 
L 88.921875 0 
L 79.890625 0 
L 79.890625 32.71875 
Q 79.890625 40.578125 77.09375 44.375 
Q 74.3125 48.1875 68.609375 48.1875 
Q 61.625 48.1875 57.5625 43.546875 
Q 53.515625 38.921875 53.515625 30.90625 
L 53.515625 0 
L 44.484375 0 
L 44.484375 32.71875 
Q 44.484375 40.625 41.703125 44.40625 
Q 38.921875 48.1875 33.109375 48.1875 
Q 26.21875 48.1875 22.15625 43.53125 
Q 18.109375 38.875 18.109375 30.90625 
L 18.109375 0 
L 9.078125 0 
L 9.078125 54.6875 
L 18.109375 54.6875 
L 18.109375 46.1875 
Q 21.1875 51.21875 25.484375 53.609375 
Q 29.78125 56 35.6875 56 
Q 41.65625 56 45.828125 52.96875 
Q 50 49.953125 52 44.1875 
z
" id="DejaVuSans-109"/>
       <path id="DejaVuSans-32"/>
       <path d="M 31 75.875 
Q 24.46875 64.65625 21.28125 53.65625 
Q 18.109375 42.671875 18.109375 31.390625 
Q 18.109375 20.125 21.3125 9.0625 
Q 24.515625 -2 31 -13.1875 
L 23.1875 -13.1875 
Q 15.875 -1.703125 12.234375 9.375 
Q 8.59375 20.453125 8.59375 31.390625 
Q 8.59375 42.28125 12.203125 53.3125 
Q 15.828125 64.359375 23.1875 75.875 
z
" id="DejaVuSans-40"/>
       <path d="M 44.28125 53.078125 
L 44.28125 44.578125 
Q 40.484375 46.53125 36.375 47.5 
Q 32.28125 48.484375 27.875 48.484375 
Q 21.1875 48.484375 17.84375 46.4375 
Q 14.5 44.390625 14.5 40.28125 
Q 14.5 37.15625 16.890625 35.375 
Q 19.28125 33.59375 26.515625 31.984375 
L 29.59375 31.296875 
Q 39.15625 29.25 43.1875 25.515625 
Q 47.21875 21.78125 47.21875 15.09375 
Q 47.21875 7.46875 41.1875 3.015625 
Q 35.15625 -1.421875 24.609375 -1.421875 
Q 20.21875 -1.421875 15.453125 -0.5625 
Q 10.6875 0.296875 5.421875 2 
L 5.421875 11.28125 
Q 10.40625 8.6875 15.234375 7.390625 
Q 20.0625 6.109375 24.8125 6.109375 
Q 31.15625 6.109375 34.5625 8.28125 
Q 37.984375 10.453125 37.984375 14.40625 
Q 37.984375 18.0625 35.515625 20.015625 
Q 33.0625 21.96875 24.703125 23.78125 
L 21.578125 24.515625 
Q 13.234375 26.265625 9.515625 29.90625 
Q 5.8125 33.546875 5.8125 39.890625 
Q 5.8125 47.609375 11.28125 51.796875 
Q 16.75 56 26.8125 56 
Q 31.78125 56 36.171875 55.265625 
Q 40.578125 54.546875 44.28125 53.078125 
z
" id="DejaVuSans-115"/>
       <path d="M 8.015625 75.875 
L 15.828125 75.875 
Q 23.140625 64.359375 26.78125 53.3125 
Q 30.421875 42.28125 30.421875 31.390625 
Q 30.421875 20.453125 26.78125 9.375 
Q 23.140625 -1.703125 15.828125 -13.1875 
L 8.015625 -13.1875 
Q 14.5 -2 17.703125 9.0625 
Q 20.90625 20.125 20.90625 31.390625 
Q 20.90625 42.671875 17.703125 53.65625 
Q 14.5 64.65625 8.015625 75.875 
z
" id="DejaVuSans-41"/>
      </defs>
      <use xlink:href="#DejaVuSans-82"/>
      <use x="64.982422" xlink:href="#DejaVuSans-117"/>
      <use x="128.361328" xlink:href="#DejaVuSans-110"/>
      <use x="191.740234" xlink:href="#DejaVuSans-116"/>
      <use x="230.949219" xlink:href="#DejaVuSans-105"/>
      <use x="258.732422" xlink:href="#DejaVuSans-109"/>
      <use x="356.144531" xlink:href="#DejaVuSans-101"/>
      <use x="417.667969" xlink:href="#DejaVuSans-32"/>
      <use x="449.455078" xlink:href="#DejaVuSans-40"/>
      <use x="488.46875" xlink:href="#DejaVuSans-115"/>
      <use x="540.568359" xlink:href="#DejaVuSans-41"/>
     </g>
    </g>
   </g>
   <g id="line2d_19">
    <path clip-path="url(#p580a62c3b9)" d="M 72.019091 288.977734 
L 81.249394 290.879112 
L 90.479697 290.988056 
L 99.71 289.910951 
L 108.940303 290.965445 
L 118.170606 290.996278 
L 127.400909 290.618743 
L 136.631212 291.0045 
L 145.861515 290.968871 
L 155.091818 290.945575 
L 164.322121 291.009297 
L 173.552424 290.983945 
L 182.782727 290.977093 
L 192.01303 290.878427 
L 201.243333 291.005185 
L 210.473636 290.988741 
L 219.703939 290.986 
L 228.934242 291.02163 
L 238.164545 290.930501 
L 247.394848 290.958593 
L 256.625152 289.83284 
L 265.855455 290.912686 
L 275.085758 290.992167 
L 284.316061 290.931871 
L 293.546364 291.031222 
L 302.776667 291.039445 
L 312.00697 290.975723 
L 321.237273 291.06 
L 330.467576 290.968186 
L 339.697879 290.983945 
L 348.928182 290.957223 
L 358.158485 290.960649 
L 367.388788 290.892131 
L 376.619091 290.594762 
L 385.849394 290.990797 
L 395.079697 290.914742 
L 404.31 290.977093 
L 413.540303 290.985315 
L 422.770606 290.954482 
L 432.000909 290.996278 
" style="fill:none;stroke:#1f77b4;stroke-linecap:square;stroke-width:1.5;"/>
   </g>
   <g id="line2d_20">
    <path clip-path="url(#p580a62c3b9)" d="M 72.019091 273.739298 
L 81.249394 273.657761 
L 90.479697 272.099659 
L 99.71 271.474773 
L 108.940303 272.36688 
L 118.170606 274.175073 
L 127.400909 271.510403 
L 136.631212 270.520316 
L 145.861515 273.668724 
L 155.091818 272.956136 
L 164.322121 271.575495 
L 173.552424 267.745331 
L 182.782727 270.483316 
L 192.01303 274.107926 
L 201.243333 273.608428 
L 210.473636 271.867382 
L 219.703939 268.991676 
L 228.934242 271.288404 
L 238.164545 271.738568 
L 247.394848 274.654015 
L 256.625152 268.93138 
L 265.855455 270.873184 
L 275.085758 273.050691 
L 284.316061 271.046535 
L 293.546364 268.72377 
L 302.776667 269.561747 
L 312.00697 274.504646 
L 321.237273 273.309004 
L 330.467576 271.683754 
L 339.697879 264.34409 
L 348.928182 270.688185 
L 358.158485 271.402144 
L 367.388788 273.944852 
L 376.619091 271.962623 
L 385.849394 268.351716 
L 395.079697 272.881451 
L 404.31 269.904337 
L 413.540303 271.267849 
L 422.770606 270.12017 
L 432.000909 272.118844 
" style="fill:none;stroke:#ff7f0e;stroke-linecap:square;stroke-width:1.5;"/>
   </g>
   <g id="line2d_21">
    <path clip-path="url(#p580a62c3b9)" d="M 72.019091 165.97807 
L 81.249394 175.440426 
L 90.479697 178.917037 
L 99.71 173.200568 
L 108.940303 176.973862 
L 118.170606 174.081026 
L 127.400909 177.278768 
L 136.631212 175.51237 
L 145.861515 177.337008 
L 155.091818 176.109163 
L 164.322121 177.149954 
L 173.552424 175.158131 
L 182.782727 176.810789 
L 192.01303 172.086463 
L 201.243333 174.507894 
L 210.473636 170.56399 
L 219.703939 174.762782 
L 228.934242 172.564719 
L 238.164545 174.522968 
L 247.394848 173.500677 
L 256.625152 175.232131 
L 265.855455 172.348202 
L 275.085758 174.605875 
L 284.316061 173.00118 
L 293.546364 175.288316 
L 302.776667 170.849025 
L 312.00697 175.09578 
L 321.237273 172.033019 
L 330.467576 175.108113 
L 339.697879 171.816501 
L 348.928182 174.481172 
L 358.158485 171.370448 
L 367.388788 173.880953 
L 376.619091 171.763742 
L 385.849394 173.07655 
L 395.079697 172.551701 
L 404.31 175.319834 
L 413.540303 170.928506 
L 422.770606 171.949427 
L 432.000909 173.412974 
" style="fill:none;stroke:#2ca02c;stroke-linecap:square;stroke-width:1.5;"/>
   </g>
   <g id="line2d_22">
    <path clip-path="url(#p580a62c3b9)" d="M 72.019091 209.269205 
L 81.249394 207.07868 
L 90.479697 207.648065 
L 99.71 206.313332 
L 108.940303 205.436985 
L 118.170606 205.433559 
L 127.400909 205.534966 
L 136.631212 205.623354 
L 145.861515 204.699044 
L 155.091818 206.586719 
L 164.322121 207.458955 
L 173.552424 203.121757 
L 182.782727 205.947445 
L 192.01303 206.021445 
L 201.243333 207.033458 
L 210.473636 206.76007 
L 219.703939 204.39962 
L 228.934242 206.36198 
L 238.164545 205.885779 
L 247.394848 205.484948 
L 256.625152 206.131074 
L 265.855455 205.470559 
L 275.085758 206.497646 
L 284.316061 204.535286 
L 293.546364 205.317763 
L 302.776667 206.621664 
L 312.00697 207.012217 
L 321.237273 204.471564 
L 330.467576 205.77752 
L 339.697879 207.047846 
L 348.928182 203.922734 
L 358.158485 205.749428 
L 367.388788 205.793279 
L 376.619091 207.191049 
L 385.849394 206.74157 
L 395.079697 203.306756 
L 404.31 206.45722 
L 413.540303 205.563743 
L 422.770606 206.405831 
L 432.000909 205.923464 
" style="fill:none;stroke:#d62728;stroke-linecap:square;stroke-width:1.5;"/>
   </g>
   <g id="line2d_23">
    <path clip-path="url(#p580a62c3b9)" d="M 72.019091 87.313758 
L 81.249394 88.235327 
L 90.479697 91.124052 
L 99.71 88.538862 
L 108.940303 93.893555 
L 118.170606 88.35866 
L 127.400909 92.819191 
L 136.631212 90.821202 
L 145.861515 92.15662 
L 155.091818 87.602904 
L 164.322121 89.187044 
L 173.552424 93.423521 
L 182.782727 87.47409 
L 192.01303 94.056629 
L 201.243333 89.1336 
L 210.473636 95.082345 
L 219.703939 85.261639 
L 228.934242 93.170004 
L 238.164545 90.800646 
L 247.394848 92.102491 
L 256.625152 93.363225 
L 265.855455 90.697184 
L 275.085758 88.577232 
L 284.316061 87.367887 
L 293.546364 90.878072 
L 302.776667 92.408767 
L 312.00697 90.622499 
L 321.237273 89.892096 
L 330.467576 91.541327 
L 339.697879 90.770498 
L 348.928182 88.04005 
L 358.158485 87.071204 
L 367.388788 90.621814 
L 376.619091 90.516981 
L 385.849394 89.963355 
L 395.079697 91.239162 
L 404.31 93.123411 
L 413.540303 86.64091 
L 422.770606 91.650271 
L 432.000909 94.802791 
" style="fill:none;stroke:#9467bd;stroke-linecap:square;stroke-width:1.5;"/>
   </g>
   <g id="line2d_24">
    <path clip-path="url(#p580a62c3b9)" d="M 72.019091 132.946157 
L 81.249394 132.278791 
L 90.479697 129.520935 
L 99.71 140.119322 
L 108.940303 133.075657 
L 118.170606 140.008323 
L 127.400909 130.265728 
L 136.631212 134.343928 
L 145.861515 132.818029 
L 155.091818 139.733565 
L 164.322121 133.510747 
L 173.552424 135.667698 
L 182.782727 129.178345 
L 192.01303 134.720092 
L 201.243333 132.626178 
L 210.473636 135.959586 
L 219.703939 139.867861 
L 228.934242 131.862886 
L 238.164545 141.653443 
L 247.394848 128.032721 
L 256.625152 141.330723 
L 265.855455 128.004629 
L 275.085758 135.027739 
L 284.316061 138.342647 
L 293.546364 133.048935 
L 302.776667 135.989048 
L 312.00697 130.775503 
L 321.237273 134.093836 
L 330.467576 135.2977 
L 339.697879 133.149656 
L 348.928182 135.462829 
L 358.158485 138.175462 
L 367.388788 133.596395 
L 376.619091 139.956934 
L 385.849394 135.303867 
L 395.079697 133.893078 
L 404.31 133.064009 
L 413.540303 134.123984 
L 422.770606 127.470187 
L 432.000909 137.308023 
" style="fill:none;stroke:#8c564b;stroke-linecap:square;stroke-width:1.5;"/>
   </g>
   <g id="line2d_25">
    <path clip-path="url(#p580a62c3b9)" d="M 72.019091 163.338066 
L 81.249394 163.709434 
L 90.479697 159.627123 
L 99.71 163.869082 
L 108.940303 164.619355 
L 118.170606 162.567922 
L 127.400909 160.791247 
L 136.631212 161.890278 
L 145.861515 162.580255 
L 155.091818 161.020097 
L 164.322121 163.31614 
L 173.552424 161.039282 
L 182.782727 163.952674 
L 192.01303 161.986203 
L 201.243333 164.118488 
L 210.473636 162.550107 
L 219.703939 162.600811 
L 228.934242 162.922846 
L 238.164545 163.208567 
L 247.394848 163.368214 
L 256.625152 163.901285 
L 265.855455 165.630683 
L 275.085758 163.790286 
L 284.316061 162.083499 
L 293.546364 161.704593 
L 302.776667 161.683353 
L 312.00697 164.424764 
L 321.237273 162.458978 
L 330.467576 163.921155 
L 339.697879 163.255844 
L 348.928182 163.586787 
L 358.158485 164.92015 
L 367.388788 161.562076 
L 376.619091 162.719347 
L 385.849394 162.69331 
L 395.079697 163.262011 
L 404.31 161.110541 
L 413.540303 165.083908 
L 422.770606 165.275759 
L 432.000909 163.76973 
" style="fill:none;stroke:#e377c2;stroke-linecap:square;stroke-width:1.5;"/>
   </g>
   <g id="line2d_26">
    <path clip-path="url(#p580a62c3b9)" d="M 72.019091 61.898322 
L 81.249394 47.454012 
L 90.479697 45.092192 
L 99.71 46.430351 
L 108.940303 44.501565 
L 118.170606 44.695471 
L 127.400909 46.289889 
L 136.631212 44.145271 
L 145.861515 46.131612 
L 155.091818 43.592329 
L 164.322121 45.009285 
L 173.552424 47.007274 
L 182.782727 46.546832 
L 192.01303 46.340592 
L 201.243333 44.772897 
L 210.473636 46.411166 
L 219.703939 47.252569 
L 228.934242 43.051721 
L 238.164545 46.054186 
L 247.394848 45.770521 
L 256.625152 39.46 
L 265.855455 44.713286 
L 275.085758 42.285003 
L 284.316061 40.87627 
L 293.546364 44.61599 
L 302.776667 42.483021 
L 312.00697 43.440904 
L 321.237273 45.742429 
L 330.467576 43.244942 
L 339.697879 45.229228 
L 348.928182 43.114758 
L 358.158485 41.939672 
L 367.388788 44.611194 
L 376.619091 43.04898 
L 385.849394 45.310079 
L 395.079697 43.565607 
L 404.31 43.812958 
L 413.540303 46.657831 
L 422.770606 41.617636 
L 432.000909 46.958626 
" style="fill:none;stroke:#7f7f7f;stroke-linecap:square;stroke-width:1.5;"/>
   </g>
   <g id="line2d_27">
    <path clip-path="url(#p580a62c3b9)" d="M 72.019091 278.284792 
L 81.249394 281.595589 
L 90.479697 283.825854 
L 99.71 284.858423 
L 108.940303 285.060551 
L 118.170606 285.899213 
L 127.400909 284.16913 
L 136.631212 282.260215 
L 145.861515 283.583985 
L 155.091818 285.500438 
L 164.322121 284.464443 
L 173.552424 285.229106 
L 182.782727 284.928996 
L 192.01303 284.808404 
L 201.243333 284.336314 
L 210.473636 285.052329 
L 219.703939 283.179043 
L 228.934242 284.559684 
L 238.164545 284.745368 
L 247.394848 283.807354 
L 256.625152 285.253087 
L 265.855455 284.248611 
L 275.085758 284.998885 
L 284.316061 284.445258 
L 293.546364 282.236233 
L 302.776667 282.195122 
L 312.00697 285.740251 
L 321.237273 285.799862 
L 330.467576 283.958094 
L 339.697879 282.454121 
L 348.928182 282.475362 
L 358.158485 281.177628 
L 367.388788 285.143458 
L 376.619091 285.965676 
L 385.849394 285.52716 
L 395.079697 283.29895 
L 404.31 283.5093 
L 413.540303 282.340381 
L 422.770606 284.554202 
L 432.000909 285.499753 
" style="fill:none;stroke:#bcbd22;stroke-linecap:square;stroke-width:1.5;"/>
   </g>
   <g id="patch_3">
    <path d="M 54.02 303.64 
L 54.02 26.88 
" style="fill:none;stroke:#000000;stroke-linecap:square;stroke-linejoin:miter;stroke-width:0.8;"/>
   </g>
   <g id="patch_4">
    <path d="M 450 303.64 
L 450 26.88 
" style="fill:none;stroke:#000000;stroke-linecap:square;stroke-linejoin:miter;stroke-width:0.8;"/>
   </g>
   <g id="patch_5">
    <path d="M 54.02 303.64 
L 450 303.64 
" style="fill:none;stroke:#000000;stroke-linecap:square;stroke-linejoin:miter;stroke-width:0.8;"/>
   </g>
   <g id="patch_6">
    <path d="M 54.02 26.88 
L 450 26.88 
" style="fill:none;stroke:#000000;stroke-linecap:square;stroke-linejoin:miter;stroke-width:0.8;"/>
   </g>
   <g id="text_21">
    <!-- Runtime across repetition number (4096 vector size, 2 nodes) -->
    <g transform="translate(65.570313 20.88)scale(0.12 -0.12)">
     <defs>
      <path d="M 48.78125 52.59375 
L 48.78125 44.1875 
Q 44.96875 46.296875 41.140625 47.34375 
Q 37.3125 48.390625 33.40625 48.390625 
Q 24.65625 48.390625 19.8125 42.84375 
Q 14.984375 37.3125 14.984375 27.296875 
Q 14.984375 17.28125 19.8125 11.734375 
Q 24.65625 6.203125 33.40625 6.203125 
Q 37.3125 6.203125 41.140625 7.25 
Q 44.96875 8.296875 48.78125 10.40625 
L 48.78125 2.09375 
Q 45.015625 0.34375 40.984375 -0.53125 
Q 36.96875 -1.421875 32.421875 -1.421875 
Q 20.0625 -1.421875 12.78125 6.34375 
Q 5.515625 14.109375 5.515625 27.296875 
Q 5.515625 40.671875 12.859375 48.328125 
Q 20.21875 56 33.015625 56 
Q 37.15625 56 41.109375 55.140625 
Q 45.0625 54.296875 48.78125 52.59375 
z
" id="DejaVuSans-99"/>
      <path d="M 18.109375 8.203125 
L 18.109375 -20.796875 
L 9.078125 -20.796875 
L 9.078125 54.6875 
L 18.109375 54.6875 
L 18.109375 46.390625 
Q 20.953125 51.265625 25.265625 53.625 
Q 29.59375 56 35.59375 56 
Q 45.5625 56 51.78125 48.09375 
Q 58.015625 40.1875 58.015625 27.296875 
Q 58.015625 14.40625 51.78125 6.484375 
Q 45.5625 -1.421875 35.59375 -1.421875 
Q 29.59375 -1.421875 25.265625 0.953125 
Q 20.953125 3.328125 18.109375 8.203125 
z
M 48.6875 27.296875 
Q 48.6875 37.203125 44.609375 42.84375 
Q 40.53125 48.484375 33.40625 48.484375 
Q 26.265625 48.484375 22.1875 42.84375 
Q 18.109375 37.203125 18.109375 27.296875 
Q 18.109375 17.390625 22.1875 11.75 
Q 26.265625 6.109375 33.40625 6.109375 
Q 40.53125 6.109375 44.609375 11.75 
Q 48.6875 17.390625 48.6875 27.296875 
z
" id="DejaVuSans-112"/>
      <path d="M 48.6875 27.296875 
Q 48.6875 37.203125 44.609375 42.84375 
Q 40.53125 48.484375 33.40625 48.484375 
Q 26.265625 48.484375 22.1875 42.84375 
Q 18.109375 37.203125 18.109375 27.296875 
Q 18.109375 17.390625 22.1875 11.75 
Q 26.265625 6.109375 33.40625 6.109375 
Q 40.53125 6.109375 44.609375 11.75 
Q 48.6875 17.390625 48.6875 27.296875 
z
M 18.109375 46.390625 
Q 20.953125 51.265625 25.265625 53.625 
Q 29.59375 56 35.59375 56 
Q 45.5625 56 51.78125 48.09375 
Q 58.015625 40.1875 58.015625 27.296875 
Q 58.015625 14.40625 51.78125 6.484375 
Q 45.5625 -1.421875 35.59375 -1.421875 
Q 29.59375 -1.421875 25.265625 0.953125 
Q 20.953125 3.328125 18.109375 8.203125 
L 18.109375 0 
L 9.078125 0 
L 9.078125 75.984375 
L 18.109375 75.984375 
z
" id="DejaVuSans-98"/>
      <path d="M 10.984375 1.515625 
L 10.984375 10.5 
Q 14.703125 8.734375 18.5 7.8125 
Q 22.3125 6.890625 25.984375 6.890625 
Q 35.75 6.890625 40.890625 13.453125 
Q 46.046875 20.015625 46.78125 33.40625 
Q 43.953125 29.203125 39.59375 26.953125 
Q 35.25 24.703125 29.984375 24.703125 
Q 19.046875 24.703125 12.671875 31.3125 
Q 6.296875 37.9375 6.296875 49.421875 
Q 6.296875 60.640625 12.9375 67.421875 
Q 19.578125 74.21875 30.609375 74.21875 
Q 43.265625 74.21875 49.921875 64.515625 
Q 56.59375 54.828125 56.59375 36.375 
Q 56.59375 19.140625 48.40625 8.859375 
Q 40.234375 -1.421875 26.421875 -1.421875 
Q 22.703125 -1.421875 18.890625 -0.6875 
Q 15.09375 0.046875 10.984375 1.515625 
z
M 30.609375 32.421875 
Q 37.25 32.421875 41.125 36.953125 
Q 45.015625 41.5 45.015625 49.421875 
Q 45.015625 57.28125 41.125 61.84375 
Q 37.25 66.40625 30.609375 66.40625 
Q 23.96875 66.40625 20.09375 61.84375 
Q 16.21875 57.28125 16.21875 49.421875 
Q 16.21875 41.5 20.09375 36.953125 
Q 23.96875 32.421875 30.609375 32.421875 
z
" id="DejaVuSans-57"/>
      <path d="M 33.015625 40.375 
Q 26.375 40.375 22.484375 35.828125 
Q 18.609375 31.296875 18.609375 23.390625 
Q 18.609375 15.53125 22.484375 10.953125 
Q 26.375 6.390625 33.015625 6.390625 
Q 39.65625 6.390625 43.53125 10.953125 
Q 47.40625 15.53125 47.40625 23.390625 
Q 47.40625 31.296875 43.53125 35.828125 
Q 39.65625 40.375 33.015625 40.375 
z
M 52.59375 71.296875 
L 52.59375 62.3125 
Q 48.875 64.0625 45.09375 64.984375 
Q 41.3125 65.921875 37.59375 65.921875 
Q 27.828125 65.921875 22.671875 59.328125 
Q 17.53125 52.734375 16.796875 39.40625 
Q 19.671875 43.65625 24.015625 45.921875 
Q 28.375 48.1875 33.59375 48.1875 
Q 44.578125 48.1875 50.953125 41.515625 
Q 57.328125 34.859375 57.328125 23.390625 
Q 57.328125 12.15625 50.6875 5.359375 
Q 44.046875 -1.421875 33.015625 -1.421875 
Q 20.359375 -1.421875 13.671875 8.265625 
Q 6.984375 17.96875 6.984375 36.375 
Q 6.984375 53.65625 15.1875 63.9375 
Q 23.390625 74.21875 37.203125 74.21875 
Q 40.921875 74.21875 44.703125 73.484375 
Q 48.484375 72.75 52.59375 71.296875 
z
" id="DejaVuSans-54"/>
      <path d="M 2.984375 54.6875 
L 12.5 54.6875 
L 29.59375 8.796875 
L 46.6875 54.6875 
L 56.203125 54.6875 
L 35.6875 0 
L 23.484375 0 
z
" id="DejaVuSans-118"/>
      <path d="M 5.515625 54.6875 
L 48.1875 54.6875 
L 48.1875 46.484375 
L 14.40625 7.171875 
L 48.1875 7.171875 
L 48.1875 0 
L 4.296875 0 
L 4.296875 8.203125 
L 38.09375 47.515625 
L 5.515625 47.515625 
z
" id="DejaVuSans-122"/>
      <path d="M 11.71875 12.40625 
L 22.015625 12.40625 
L 22.015625 4 
L 14.015625 -11.625 
L 7.71875 -11.625 
L 11.71875 4 
z
" id="DejaVuSans-44"/>
      <path d="M 45.40625 46.390625 
L 45.40625 75.984375 
L 54.390625 75.984375 
L 54.390625 0 
L 45.40625 0 
L 45.40625 8.203125 
Q 42.578125 3.328125 38.25 0.953125 
Q 33.9375 -1.421875 27.875 -1.421875 
Q 17.96875 -1.421875 11.734375 6.484375 
Q 5.515625 14.40625 5.515625 27.296875 
Q 5.515625 40.1875 11.734375 48.09375 
Q 17.96875 56 27.875 56 
Q 33.9375 56 38.25 53.625 
Q 42.578125 51.265625 45.40625 46.390625 
z
M 14.796875 27.296875 
Q 14.796875 17.390625 18.875 11.75 
Q 22.953125 6.109375 30.078125 6.109375 
Q 37.203125 6.109375 41.296875 11.75 
Q 45.40625 17.390625 45.40625 27.296875 
Q 45.40625 37.203125 41.296875 42.84375 
Q 37.203125 48.484375 30.078125 48.484375 
Q 22.953125 48.484375 18.875 42.84375 
Q 14.796875 37.203125 14.796875 27.296875 
z
" id="DejaVuSans-100"/>
     </defs>
     <use xlink:href="#DejaVuSans-82"/>
     <use x="64.982422" xlink:href="#DejaVuSans-117"/>
     <use x="128.361328" xlink:href="#DejaVuSans-110"/>
     <use x="191.740234" xlink:href="#DejaVuSans-116"/>
     <use x="230.949219" xlink:href="#DejaVuSans-105"/>
     <use x="258.732422" xlink:href="#DejaVuSans-109"/>
     <use x="356.144531" xlink:href="#DejaVuSans-101"/>
     <use x="417.667969" xlink:href="#DejaVuSans-32"/>
     <use x="449.455078" xlink:href="#DejaVuSans-97"/>
     <use x="510.734375" xlink:href="#DejaVuSans-99"/>
     <use x="565.714844" xlink:href="#DejaVuSans-114"/>
     <use x="604.578125" xlink:href="#DejaVuSans-111"/>
     <use x="665.759766" xlink:href="#DejaVuSans-115"/>
     <use x="717.859375" xlink:href="#DejaVuSans-115"/>
     <use x="769.958984" xlink:href="#DejaVuSans-32"/>
     <use x="801.746094" xlink:href="#DejaVuSans-114"/>
     <use x="840.609375" xlink:href="#DejaVuSans-101"/>
     <use x="902.132812" xlink:href="#DejaVuSans-112"/>
     <use x="965.609375" xlink:href="#DejaVuSans-101"/>
     <use x="1027.132812" xlink:href="#DejaVuSans-116"/>
     <use x="1066.341797" xlink:href="#DejaVuSans-105"/>
     <use x="1094.125" xlink:href="#DejaVuSans-116"/>
     <use x="1133.333984" xlink:href="#DejaVuSans-105"/>
     <use x="1161.117188" xlink:href="#DejaVuSans-111"/>
     <use x="1222.298828" xlink:href="#DejaVuSans-110"/>
     <use x="1285.677734" xlink:href="#DejaVuSans-32"/>
     <use x="1317.464844" xlink:href="#DejaVuSans-110"/>
     <use x="1380.84375" xlink:href="#DejaVuSans-117"/>
     <use x="1444.222656" xlink:href="#DejaVuSans-109"/>
     <use x="1541.634766" xlink:href="#DejaVuSans-98"/>
     <use x="1605.111328" xlink:href="#DejaVuSans-101"/>
     <use x="1666.634766" xlink:href="#DejaVuSans-114"/>
     <use x="1707.748047" xlink:href="#DejaVuSans-32"/>
     <use x="1739.535156" xlink:href="#DejaVuSans-40"/>
     <use x="1778.548828" xlink:href="#DejaVuSans-52"/>
     <use x="1842.171875" xlink:href="#DejaVuSans-48"/>
     <use x="1905.794922" xlink:href="#DejaVuSans-57"/>
     <use x="1969.417969" xlink:href="#DejaVuSans-54"/>
     <use x="2033.041016" xlink:href="#DejaVuSans-32"/>
     <use x="2064.828125" xlink:href="#DejaVuSans-118"/>
     <use x="2124.007812" xlink:href="#DejaVuSans-101"/>
     <use x="2185.53125" xlink:href="#DejaVuSans-99"/>
     <use x="2240.511719" xlink:href="#DejaVuSans-116"/>
     <use x="2279.720703" xlink:href="#DejaVuSans-111"/>
     <use x="2340.902344" xlink:href="#DejaVuSans-114"/>
     <use x="2382.015625" xlink:href="#DejaVuSans-32"/>
     <use x="2413.802734" xlink:href="#DejaVuSans-115"/>
     <use x="2465.902344" xlink:href="#DejaVuSans-105"/>
     <use x="2493.685547" xlink:href="#DejaVuSans-122"/>
     <use x="2546.175781" xlink:href="#DejaVuSans-101"/>
     <use x="2607.699219" xlink:href="#DejaVuSans-44"/>
     <use x="2639.486328" xlink:href="#DejaVuSans-32"/>
     <use x="2671.273438" xlink:href="#DejaVuSans-50"/>
     <use x="2734.896484" xlink:href="#DejaVuSans-32"/>
     <use x="2766.683594" xlink:href="#DejaVuSans-110"/>
     <use x="2830.0625" xlink:href="#DejaVuSans-111"/>
     <use x="2891.244141" xlink:href="#DejaVuSans-100"/>
     <use x="2954.720703" xlink:href="#DejaVuSans-101"/>
     <use x="3016.244141" xlink:href="#DejaVuSans-115"/>
     <use x="3068.34375" xlink:href="#DejaVuSans-41"/>
    </g>
   </g>
   <g id="legend_1">
    <g id="patch_7">
     <path d="M 61.02 240.289687 
L 240.873125 240.289687 
Q 242.873125 240.289687 242.873125 238.289687 
L 242.873125 92.230312 
Q 242.873125 90.230312 240.873125 90.230312 
L 61.02 90.230312 
Q 59.02 90.230312 59.02 92.230312 
L 59.02 238.289687 
Q 59.02 240.289687 61.02 240.289687 
z
" style="fill:#ffffff;opacity:0.8;stroke:#cccccc;stroke-linejoin:miter;"/>
    </g>
    <g id="text_22">
     <!-- implementation -->
     <g transform="translate(111.330156 101.82875)scale(0.1 -0.1)">
      <defs>
       <path d="M 9.421875 75.984375 
L 18.40625 75.984375 
L 18.40625 0 
L 9.421875 0 
z
" id="DejaVuSans-108"/>
      </defs>
      <use xlink:href="#DejaVuSans-105"/>
      <use x="27.783203" xlink:href="#DejaVuSans-109"/>
      <use x="125.195312" xlink:href="#DejaVuSans-112"/>
      <use x="188.671875" xlink:href="#DejaVuSans-108"/>
      <use x="216.455078" xlink:href="#DejaVuSans-101"/>
      <use x="277.978516" xlink:href="#DejaVuSans-109"/>
      <use x="375.390625" xlink:href="#DejaVuSans-101"/>
      <use x="436.914062" xlink:href="#DejaVuSans-110"/>
      <use x="500.292969" xlink:href="#DejaVuSans-116"/>
      <use x="539.501953" xlink:href="#DejaVuSans-97"/>
      <use x="600.78125" xlink:href="#DejaVuSans-116"/>
      <use x="639.990234" xlink:href="#DejaVuSans-105"/>
      <use x="667.773438" xlink:href="#DejaVuSans-111"/>
      <use x="728.955078" xlink:href="#DejaVuSans-110"/>
     </g>
    </g>
    <g id="line2d_28">
     <path d="M 63.02 113.006875 
L 83.02 113.006875 
" style="fill:none;stroke:#1f77b4;stroke-linecap:square;stroke-width:1.5;"/>
    </g>
    <g id="line2d_29"/>
    <g id="text_23">
     <!-- allgather -->
     <g transform="translate(91.02 116.506875)scale(0.1 -0.1)">
      <defs>
       <path d="M 45.40625 27.984375 
Q 45.40625 37.75 41.375 43.109375 
Q 37.359375 48.484375 30.078125 48.484375 
Q 22.859375 48.484375 18.828125 43.109375 
Q 14.796875 37.75 14.796875 27.984375 
Q 14.796875 18.265625 18.828125 12.890625 
Q 22.859375 7.515625 30.078125 7.515625 
Q 37.359375 7.515625 41.375 12.890625 
Q 45.40625 18.265625 45.40625 27.984375 
z
M 54.390625 6.78125 
Q 54.390625 -7.171875 48.1875 -13.984375 
Q 42 -20.796875 29.203125 -20.796875 
Q 24.46875 -20.796875 20.265625 -20.09375 
Q 16.0625 -19.390625 12.109375 -17.921875 
L 12.109375 -9.1875 
Q 16.0625 -11.328125 19.921875 -12.34375 
Q 23.78125 -13.375 27.78125 -13.375 
Q 36.625 -13.375 41.015625 -8.765625 
Q 45.40625 -4.15625 45.40625 5.171875 
L 45.40625 9.625 
Q 42.625 4.78125 38.28125 2.390625 
Q 33.9375 0 27.875 0 
Q 17.828125 0 11.671875 7.65625 
Q 5.515625 15.328125 5.515625 27.984375 
Q 5.515625 40.671875 11.671875 48.328125 
Q 17.828125 56 27.875 56 
Q 33.9375 56 38.28125 53.609375 
Q 42.625 51.21875 45.40625 46.390625 
L 45.40625 54.6875 
L 54.390625 54.6875 
z
" id="DejaVuSans-103"/>
       <path d="M 54.890625 33.015625 
L 54.890625 0 
L 45.90625 0 
L 45.90625 32.71875 
Q 45.90625 40.484375 42.875 44.328125 
Q 39.84375 48.1875 33.796875 48.1875 
Q 26.515625 48.1875 22.3125 43.546875 
Q 18.109375 38.921875 18.109375 30.90625 
L 18.109375 0 
L 9.078125 0 
L 9.078125 75.984375 
L 18.109375 75.984375 
L 18.109375 46.1875 
Q 21.34375 51.125 25.703125 53.5625 
Q 30.078125 56 35.796875 56 
Q 45.21875 56 50.046875 50.171875 
Q 54.890625 44.34375 54.890625 33.015625 
z
" id="DejaVuSans-104"/>
      </defs>
      <use xlink:href="#DejaVuSans-97"/>
      <use x="61.279297" xlink:href="#DejaVuSans-108"/>
      <use x="89.0625" xlink:href="#DejaVuSans-108"/>
      <use x="116.845703" xlink:href="#DejaVuSans-103"/>
      <use x="180.322266" xlink:href="#DejaVuSans-97"/>
      <use x="241.601562" xlink:href="#DejaVuSans-116"/>
      <use x="280.810547" xlink:href="#DejaVuSans-104"/>
      <use x="344.189453" xlink:href="#DejaVuSans-101"/>
      <use x="405.712891" xlink:href="#DejaVuSans-114"/>
     </g>
    </g>
    <g id="line2d_30">
     <path d="M 63.02 127.685 
L 83.02 127.685 
" style="fill:none;stroke:#ff7f0e;stroke-linecap:square;stroke-width:1.5;"/>
    </g>
    <g id="line2d_31"/>
    <g id="text_24">
     <!-- allgather-async -->
     <g transform="translate(91.02 131.185)scale(0.1 -0.1)">
      <defs>
       <path d="M 4.890625 31.390625 
L 31.203125 31.390625 
L 31.203125 23.390625 
L 4.890625 23.390625 
z
" id="DejaVuSans-45"/>
       <path d="M 32.171875 -5.078125 
Q 28.375 -14.84375 24.75 -17.8125 
Q 21.140625 -20.796875 15.09375 -20.796875 
L 7.90625 -20.796875 
L 7.90625 -13.28125 
L 13.1875 -13.28125 
Q 16.890625 -13.28125 18.9375 -11.515625 
Q 21 -9.765625 23.484375 -3.21875 
L 25.09375 0.875 
L 2.984375 54.6875 
L 12.5 54.6875 
L 29.59375 11.921875 
L 46.6875 54.6875 
L 56.203125 54.6875 
z
" id="DejaVuSans-121"/>
      </defs>
      <use xlink:href="#DejaVuSans-97"/>
      <use x="61.279297" xlink:href="#DejaVuSans-108"/>
      <use x="89.0625" xlink:href="#DejaVuSans-108"/>
      <use x="116.845703" xlink:href="#DejaVuSans-103"/>
      <use x="180.322266" xlink:href="#DejaVuSans-97"/>
      <use x="241.601562" xlink:href="#DejaVuSans-116"/>
      <use x="280.810547" xlink:href="#DejaVuSans-104"/>
      <use x="344.189453" xlink:href="#DejaVuSans-101"/>
      <use x="405.712891" xlink:href="#DejaVuSans-114"/>
      <use x="440.451172" xlink:href="#DejaVuSans-45"/>
      <use x="476.535156" xlink:href="#DejaVuSans-97"/>
      <use x="537.814453" xlink:href="#DejaVuSans-115"/>
      <use x="589.914062" xlink:href="#DejaVuSans-121"/>
      <use x="649.09375" xlink:href="#DejaVuSans-110"/>
      <use x="712.472656" xlink:href="#DejaVuSans-99"/>
     </g>
    </g>
    <g id="line2d_32">
     <path d="M 63.02 142.363125 
L 83.02 142.363125 
" style="fill:none;stroke:#2ca02c;stroke-linecap:square;stroke-width:1.5;"/>
    </g>
    <g id="line2d_33"/>
    <g id="text_25">
     <!-- allreduce -->
     <g transform="translate(91.02 145.863125)scale(0.1 -0.1)">
      <use xlink:href="#DejaVuSans-97"/>
      <use x="61.279297" xlink:href="#DejaVuSans-108"/>
      <use x="89.0625" xlink:href="#DejaVuSans-108"/>
      <use x="116.845703" xlink:href="#DejaVuSans-114"/>
      <use x="155.708984" xlink:href="#DejaVuSans-101"/>
      <use x="217.232422" xlink:href="#DejaVuSans-100"/>
      <use x="280.708984" xlink:href="#DejaVuSans-117"/>
      <use x="344.087891" xlink:href="#DejaVuSans-99"/>
      <use x="399.068359" xlink:href="#DejaVuSans-101"/>
     </g>
    </g>
    <g id="line2d_34">
     <path d="M 63.02 157.04125 
L 83.02 157.04125 
" style="fill:none;stroke:#d62728;stroke-linecap:square;stroke-width:1.5;"/>
    </g>
    <g id="line2d_35"/>
    <g id="text_26">
     <!-- allreduce-butterfly -->
     <g transform="translate(91.02 160.54125)scale(0.1 -0.1)">
      <defs>
       <path d="M 37.109375 75.984375 
L 37.109375 68.5 
L 28.515625 68.5 
Q 23.6875 68.5 21.796875 66.546875 
Q 19.921875 64.59375 19.921875 59.515625 
L 19.921875 54.6875 
L 34.71875 54.6875 
L 34.71875 47.703125 
L 19.921875 47.703125 
L 19.921875 0 
L 10.890625 0 
L 10.890625 47.703125 
L 2.296875 47.703125 
L 2.296875 54.6875 
L 10.890625 54.6875 
L 10.890625 58.5 
Q 10.890625 67.625 15.140625 71.796875 
Q 19.390625 75.984375 28.609375 75.984375 
z
" id="DejaVuSans-102"/>
      </defs>
      <use xlink:href="#DejaVuSans-97"/>
      <use x="61.279297" xlink:href="#DejaVuSans-108"/>
      <use x="89.0625" xlink:href="#DejaVuSans-108"/>
      <use x="116.845703" xlink:href="#DejaVuSans-114"/>
      <use x="155.708984" xlink:href="#DejaVuSans-101"/>
      <use x="217.232422" xlink:href="#DejaVuSans-100"/>
      <use x="280.708984" xlink:href="#DejaVuSans-117"/>
      <use x="344.087891" xlink:href="#DejaVuSans-99"/>
      <use x="399.068359" xlink:href="#DejaVuSans-101"/>
      <use x="460.591797" xlink:href="#DejaVuSans-45"/>
      <use x="496.675781" xlink:href="#DejaVuSans-98"/>
      <use x="560.152344" xlink:href="#DejaVuSans-117"/>
      <use x="623.53125" xlink:href="#DejaVuSans-116"/>
      <use x="662.740234" xlink:href="#DejaVuSans-116"/>
      <use x="701.949219" xlink:href="#DejaVuSans-101"/>
      <use x="763.472656" xlink:href="#DejaVuSans-114"/>
      <use x="804.585938" xlink:href="#DejaVuSans-102"/>
      <use x="839.791016" xlink:href="#DejaVuSans-108"/>
      <use x="867.574219" xlink:href="#DejaVuSans-121"/>
     </g>
    </g>
    <g id="line2d_36">
     <path d="M 63.02 171.719375 
L 83.02 171.719375 
" style="fill:none;stroke:#9467bd;stroke-linecap:square;stroke-width:1.5;"/>
    </g>
    <g id="line2d_37"/>
    <g id="text_27">
     <!-- allreduce-native-basic_linear -->
     <g transform="translate(91.02 175.219375)scale(0.1 -0.1)">
      <defs>
       <path d="M 50.984375 -16.609375 
L 50.984375 -23.578125 
L -0.984375 -23.578125 
L -0.984375 -16.609375 
z
" id="DejaVuSans-95"/>
      </defs>
      <use xlink:href="#DejaVuSans-97"/>
      <use x="61.279297" xlink:href="#DejaVuSans-108"/>
      <use x="89.0625" xlink:href="#DejaVuSans-108"/>
      <use x="116.845703" xlink:href="#DejaVuSans-114"/>
      <use x="155.708984" xlink:href="#DejaVuSans-101"/>
      <use x="217.232422" xlink:href="#DejaVuSans-100"/>
      <use x="280.708984" xlink:href="#DejaVuSans-117"/>
      <use x="344.087891" xlink:href="#DejaVuSans-99"/>
      <use x="399.068359" xlink:href="#DejaVuSans-101"/>
      <use x="460.591797" xlink:href="#DejaVuSans-45"/>
      <use x="496.675781" xlink:href="#DejaVuSans-110"/>
      <use x="560.054688" xlink:href="#DejaVuSans-97"/>
      <use x="621.333984" xlink:href="#DejaVuSans-116"/>
      <use x="660.542969" xlink:href="#DejaVuSans-105"/>
      <use x="688.326172" xlink:href="#DejaVuSans-118"/>
      <use x="747.505859" xlink:href="#DejaVuSans-101"/>
      <use x="809.029297" xlink:href="#DejaVuSans-45"/>
      <use x="845.113281" xlink:href="#DejaVuSans-98"/>
      <use x="908.589844" xlink:href="#DejaVuSans-97"/>
      <use x="969.869141" xlink:href="#DejaVuSans-115"/>
      <use x="1021.96875" xlink:href="#DejaVuSans-105"/>
      <use x="1049.751953" xlink:href="#DejaVuSans-99"/>
      <use x="1104.732422" xlink:href="#DejaVuSans-95"/>
      <use x="1154.732422" xlink:href="#DejaVuSans-108"/>
      <use x="1182.515625" xlink:href="#DejaVuSans-105"/>
      <use x="1210.298828" xlink:href="#DejaVuSans-110"/>
      <use x="1273.677734" xlink:href="#DejaVuSans-101"/>
      <use x="1335.201172" xlink:href="#DejaVuSans-97"/>
      <use x="1396.480469" xlink:href="#DejaVuSans-114"/>
     </g>
    </g>
    <g id="line2d_38">
     <path d="M 63.02 186.675625 
L 83.02 186.675625 
" style="fill:none;stroke:#8c564b;stroke-linecap:square;stroke-width:1.5;"/>
    </g>
    <g id="line2d_39"/>
    <g id="text_28">
     <!-- allreduce-native-rabenseifner -->
     <g transform="translate(91.02 190.175625)scale(0.1 -0.1)">
      <use xlink:href="#DejaVuSans-97"/>
      <use x="61.279297" xlink:href="#DejaVuSans-108"/>
      <use x="89.0625" xlink:href="#DejaVuSans-108"/>
      <use x="116.845703" xlink:href="#DejaVuSans-114"/>
      <use x="155.708984" xlink:href="#DejaVuSans-101"/>
      <use x="217.232422" xlink:href="#DejaVuSans-100"/>
      <use x="280.708984" xlink:href="#DejaVuSans-117"/>
      <use x="344.087891" xlink:href="#DejaVuSans-99"/>
      <use x="399.068359" xlink:href="#DejaVuSans-101"/>
      <use x="460.591797" xlink:href="#DejaVuSans-45"/>
      <use x="496.675781" xlink:href="#DejaVuSans-110"/>
      <use x="560.054688" xlink:href="#DejaVuSans-97"/>
      <use x="621.333984" xlink:href="#DejaVuSans-116"/>
      <use x="660.542969" xlink:href="#DejaVuSans-105"/>
      <use x="688.326172" xlink:href="#DejaVuSans-118"/>
      <use x="747.505859" xlink:href="#DejaVuSans-101"/>
      <use x="809.029297" xlink:href="#DejaVuSans-45"/>
      <use x="845.113281" xlink:href="#DejaVuSans-114"/>
      <use x="886.226562" xlink:href="#DejaVuSans-97"/>
      <use x="947.505859" xlink:href="#DejaVuSans-98"/>
      <use x="1010.982422" xlink:href="#DejaVuSans-101"/>
      <use x="1072.505859" xlink:href="#DejaVuSans-110"/>
      <use x="1135.884766" xlink:href="#DejaVuSans-115"/>
      <use x="1187.984375" xlink:href="#DejaVuSans-101"/>
      <use x="1249.507812" xlink:href="#DejaVuSans-105"/>
      <use x="1277.291016" xlink:href="#DejaVuSans-102"/>
      <use x="1312.496094" xlink:href="#DejaVuSans-110"/>
      <use x="1375.875" xlink:href="#DejaVuSans-101"/>
      <use x="1437.398438" xlink:href="#DejaVuSans-114"/>
     </g>
    </g>
    <g id="line2d_40">
     <path d="M 63.02 201.35375 
L 83.02 201.35375 
" style="fill:none;stroke:#e377c2;stroke-linecap:square;stroke-width:1.5;"/>
    </g>
    <g id="line2d_41"/>
    <g id="text_29">
     <!-- allreduce-native-ring -->
     <g transform="translate(91.02 204.85375)scale(0.1 -0.1)">
      <use xlink:href="#DejaVuSans-97"/>
      <use x="61.279297" xlink:href="#DejaVuSans-108"/>
      <use x="89.0625" xlink:href="#DejaVuSans-108"/>
      <use x="116.845703" xlink:href="#DejaVuSans-114"/>
      <use x="155.708984" xlink:href="#DejaVuSans-101"/>
      <use x="217.232422" xlink:href="#DejaVuSans-100"/>
      <use x="280.708984" xlink:href="#DejaVuSans-117"/>
      <use x="344.087891" xlink:href="#DejaVuSans-99"/>
      <use x="399.068359" xlink:href="#DejaVuSans-101"/>
      <use x="460.591797" xlink:href="#DejaVuSans-45"/>
      <use x="496.675781" xlink:href="#DejaVuSans-110"/>
      <use x="560.054688" xlink:href="#DejaVuSans-97"/>
      <use x="621.333984" xlink:href="#DejaVuSans-116"/>
      <use x="660.542969" xlink:href="#DejaVuSans-105"/>
      <use x="688.326172" xlink:href="#DejaVuSans-118"/>
      <use x="747.505859" xlink:href="#DejaVuSans-101"/>
      <use x="809.029297" xlink:href="#DejaVuSans-45"/>
      <use x="845.113281" xlink:href="#DejaVuSans-114"/>
      <use x="886.226562" xlink:href="#DejaVuSans-105"/>
      <use x="914.009766" xlink:href="#DejaVuSans-110"/>
      <use x="977.388672" xlink:href="#DejaVuSans-103"/>
     </g>
    </g>
    <g id="line2d_42">
     <path d="M 63.02 216.031875 
L 83.02 216.031875 
" style="fill:none;stroke:#7f7f7f;stroke-linecap:square;stroke-width:1.5;"/>
    </g>
    <g id="line2d_43"/>
    <g id="text_30">
     <!-- allreduce-rabenseifner -->
     <g transform="translate(91.02 219.531875)scale(0.1 -0.1)">
      <use xlink:href="#DejaVuSans-97"/>
      <use x="61.279297" xlink:href="#DejaVuSans-108"/>
      <use x="89.0625" xlink:href="#DejaVuSans-108"/>
      <use x="116.845703" xlink:href="#DejaVuSans-114"/>
      <use x="155.708984" xlink:href="#DejaVuSans-101"/>
      <use x="217.232422" xlink:href="#DejaVuSans-100"/>
      <use x="280.708984" xlink:href="#DejaVuSans-117"/>
      <use x="344.087891" xlink:href="#DejaVuSans-99"/>
      <use x="399.068359" xlink:href="#DejaVuSans-101"/>
      <use x="460.591797" xlink:href="#DejaVuSans-45"/>
      <use x="496.675781" xlink:href="#DejaVuSans-114"/>
      <use x="537.789062" xlink:href="#DejaVuSans-97"/>
      <use x="599.068359" xlink:href="#DejaVuSans-98"/>
      <use x="662.544922" xlink:href="#DejaVuSans-101"/>
      <use x="724.068359" xlink:href="#DejaVuSans-110"/>
      <use x="787.447266" xlink:href="#DejaVuSans-115"/>
      <use x="839.546875" xlink:href="#DejaVuSans-101"/>
      <use x="901.070312" xlink:href="#DejaVuSans-105"/>
      <use x="928.853516" xlink:href="#DejaVuSans-102"/>
      <use x="964.058594" xlink:href="#DejaVuSans-110"/>
      <use x="1027.4375" xlink:href="#DejaVuSans-101"/>
      <use x="1088.960938" xlink:href="#DejaVuSans-114"/>
     </g>
    </g>
    <g id="line2d_44">
     <path d="M 63.02 230.71 
L 83.02 230.71 
" style="fill:none;stroke:#bcbd22;stroke-linecap:square;stroke-width:1.5;"/>
    </g>
    <g id="line2d_45"/>
    <g id="text_31">
     <!-- rabenseifner-gather -->
     <g transform="translate(91.02 234.21)scale(0.1 -0.1)">
      <use xlink:href="#DejaVuSans-114"/>
      <use x="41.113281" xlink:href="#DejaVuSans-97"/>
      <use x="102.392578" xlink:href="#DejaVuSans-98"/>
      <use x="165.869141" xlink:href="#DejaVuSans-101"/>
      <use x="227.392578" xlink:href="#DejaVuSans-110"/>
      <use x="290.771484" xlink:href="#DejaVuSans-115"/>
      <use x="342.871094" xlink:href="#DejaVuSans-101"/>
      <use x="404.394531" xlink:href="#DejaVuSans-105"/>
      <use x="432.177734" xlink:href="#DejaVuSans-102"/>
      <use x="467.382812" xlink:href="#DejaVuSans-110"/>
      <use x="530.761719" xlink:href="#DejaVuSans-101"/>
      <use x="592.285156" xlink:href="#DejaVuSans-114"/>
      <use x="627.023438" xlink:href="#DejaVuSans-45"/>
      <use x="663.107422" xlink:href="#DejaVuSans-103"/>
      <use x="726.583984" xlink:href="#DejaVuSans-97"/>
      <use x="787.863281" xlink:href="#DejaVuSans-116"/>
      <use x="827.072266" xlink:href="#DejaVuSans-104"/>
      <use x="890.451172" xlink:href="#DejaVuSans-101"/>
      <use x="951.974609" xlink:href="#DejaVuSans-114"/>
     </g>
    </g>
   </g>
  </g>
 </g>
 <defs>
  <clipPath id="p580a62c3b9">
   <rect height="276.76" width="395.98" x="54.02" y="26.88"/>
  </clipPath>
 </defs>
</svg>
