<?xml version="1.0" encoding="utf-8" standalone="no"?>
<!DOCTYPE svg PUBLIC "-//W3C//DTD SVG 1.1//EN"
  "http://www.w3.org/Graphics/SVG/1.1/DTD/svg11.dtd">
<!-- Created with matplotlib (https://matplotlib.org/) -->
<svg height="345.6pt" version="1.1" viewBox="0 0 460.8 345.6" width="460.8pt" xmlns="http://www.w3.org/2000/svg" xmlns:xlink="http://www.w3.org/1999/xlink">
 <metadata>
  <rdf:RDF xmlns:cc="http://creativecommons.org/ns#" xmlns:dc="http://purl.org/dc/elements/1.1/" xmlns:rdf="http://www.w3.org/1999/02/22-rdf-syntax-ns#">
   <cc:Work>
    <dc:type rdf:resource="http://purl.org/dc/dcmitype/StillImage"/>
    <dc:date>2021-11-14T16:09:19.803902</dc:date>
    <dc:format>image/svg+xml</dc:format>
    <dc:creator>
     <cc:Agent>
      <dc:title>Matplotlib v3.3.4, https://matplotlib.org/</dc:title>
     </cc:Agent>
    </dc:creator>
   </cc:Work>
  </rdf:RDF>
 </metadata>
 <defs>
  <style type="text/css">*{stroke-linecap:butt;stroke-linejoin:round;}</style>
 </defs>
 <g id="figure_1">
  <g id="patch_1">
   <path d="M 0 345.6 
L 460.8 345.6 
L 460.8 0 
L 0 0 
z
" style="fill:#ffffff;"/>
  </g>
  <g id="axes_1">
   <g id="patch_2">
    <path d="M 44.57 303.64 
L 450 303.64 
L 450 26.88 
L 44.57 26.88 
z
" style="fill:#ffffff;"/>
   </g>
   <g id="matplotlib.axis_1">
    <g id="xtick_1">
     <g id="line2d_1">
      <defs>
       <path d="M 0 0 
L 0 3.5 
" id="m9d58e5d93c" style="stroke:#000000;stroke-width:0.8;"/>
      </defs>
      <g>
       <use style="stroke:#000000;stroke-width:0.8;" x="53.548054" xlink:href="#m9d58e5d93c" y="303.64"/>
      </g>
     </g>
     <g id="text_1">
      <!-- 0 -->
      <g transform="translate(50.366804 318.238437)scale(0.1 -0.1)">
       <defs>
        <path d="M 31.78125 66.40625 
Q 24.171875 66.40625 20.328125 58.90625 
Q 16.5 51.421875 16.5 36.375 
Q 16.5 21.390625 20.328125 13.890625 
Q 24.171875 6.390625 31.78125 6.390625 
Q 39.453125 6.390625 43.28125 13.890625 
Q 47.125 21.390625 47.125 36.375 
Q 47.125 51.421875 43.28125 58.90625 
Q 39.453125 66.40625 31.78125 66.40625 
z
M 31.78125 74.21875 
Q 44.046875 74.21875 50.515625 64.515625 
Q 56.984375 54.828125 56.984375 36.375 
Q 56.984375 17.96875 50.515625 8.265625 
Q 44.046875 -1.421875 31.78125 -1.421875 
Q 19.53125 -1.421875 13.0625 8.265625 
Q 6.59375 17.96875 6.59375 36.375 
Q 6.59375 54.828125 13.0625 64.515625 
Q 19.53125 74.21875 31.78125 74.21875 
z
" id="DejaVuSans-48"/>
       </defs>
       <use xlink:href="#DejaVuSans-48"/>
      </g>
     </g>
    </g>
    <g id="xtick_2">
     <g id="line2d_2">
      <g>
       <use style="stroke:#000000;stroke-width:0.8;" x="100.800967" xlink:href="#m9d58e5d93c" y="303.64"/>
      </g>
     </g>
     <g id="text_2">
      <!-- 5 -->
      <g transform="translate(97.619717 318.238437)scale(0.1 -0.1)">
       <defs>
        <path d="M 10.796875 72.90625 
L 49.515625 72.90625 
L 49.515625 64.59375 
L 19.828125 64.59375 
L 19.828125 46.734375 
Q 21.96875 47.46875 24.109375 47.828125 
Q 26.265625 48.1875 28.421875 48.1875 
Q 40.625 48.1875 47.75 41.5 
Q 54.890625 34.8125 54.890625 23.390625 
Q 54.890625 11.625 47.5625 5.09375 
Q 40.234375 -1.421875 26.90625 -1.421875 
Q 22.3125 -1.421875 17.546875 -0.640625 
Q 12.796875 0.140625 7.71875 1.703125 
L 7.71875 11.625 
Q 12.109375 9.234375 16.796875 8.0625 
Q 21.484375 6.890625 26.703125 6.890625 
Q 35.15625 6.890625 40.078125 11.328125 
Q 45.015625 15.765625 45.015625 23.390625 
Q 45.015625 31 40.078125 35.4375 
Q 35.15625 39.890625 26.703125 39.890625 
Q 22.75 39.890625 18.8125 39.015625 
Q 14.890625 38.140625 10.796875 36.28125 
z
" id="DejaVuSans-53"/>
       </defs>
       <use xlink:href="#DejaVuSans-53"/>
      </g>
     </g>
    </g>
    <g id="xtick_3">
     <g id="line2d_3">
      <g>
       <use style="stroke:#000000;stroke-width:0.8;" x="148.053881" xlink:href="#m9d58e5d93c" y="303.64"/>
      </g>
     </g>
     <g id="text_3">
      <!-- 10 -->
      <g transform="translate(141.691381 318.238437)scale(0.1 -0.1)">
       <defs>
        <path d="M 12.40625 8.296875 
L 28.515625 8.296875 
L 28.515625 63.921875 
L 10.984375 60.40625 
L 10.984375 69.390625 
L 28.421875 72.90625 
L 38.28125 72.90625 
L 38.28125 8.296875 
L 54.390625 8.296875 
L 54.390625 0 
L 12.40625 0 
z
" id="DejaVuSans-49"/>
       </defs>
       <use xlink:href="#DejaVuSans-49"/>
       <use x="63.623047" xlink:href="#DejaVuSans-48"/>
      </g>
     </g>
    </g>
    <g id="xtick_4">
     <g id="line2d_4">
      <g>
       <use style="stroke:#000000;stroke-width:0.8;" x="195.306795" xlink:href="#m9d58e5d93c" y="303.64"/>
      </g>
     </g>
     <g id="text_4">
      <!-- 15 -->
      <g transform="translate(188.944295 318.238437)scale(0.1 -0.1)">
       <use xlink:href="#DejaVuSans-49"/>
       <use x="63.623047" xlink:href="#DejaVuSans-53"/>
      </g>
     </g>
    </g>
    <g id="xtick_5">
     <g id="line2d_5">
      <g>
       <use style="stroke:#000000;stroke-width:0.8;" x="242.559709" xlink:href="#m9d58e5d93c" y="303.64"/>
      </g>
     </g>
     <g id="text_5">
      <!-- 20 -->
      <g transform="translate(236.197209 318.238437)scale(0.1 -0.1)">
       <defs>
        <path d="M 19.1875 8.296875 
L 53.609375 8.296875 
L 53.609375 0 
L 7.328125 0 
L 7.328125 8.296875 
Q 12.9375 14.109375 22.625 23.890625 
Q 32.328125 33.6875 34.8125 36.53125 
Q 39.546875 41.84375 41.421875 45.53125 
Q 43.3125 49.21875 43.3125 52.78125 
Q 43.3125 58.59375 39.234375 62.25 
Q 35.15625 65.921875 28.609375 65.921875 
Q 23.96875 65.921875 18.8125 64.3125 
Q 13.671875 62.703125 7.8125 59.421875 
L 7.8125 69.390625 
Q 13.765625 71.78125 18.9375 73 
Q 24.125 74.21875 28.421875 74.21875 
Q 39.75 74.21875 46.484375 68.546875 
Q 53.21875 62.890625 53.21875 53.421875 
Q 53.21875 48.921875 51.53125 44.890625 
Q 49.859375 40.875 45.40625 35.40625 
Q 44.1875 33.984375 37.640625 27.21875 
Q 31.109375 20.453125 19.1875 8.296875 
z
" id="DejaVuSans-50"/>
       </defs>
       <use xlink:href="#DejaVuSans-50"/>
       <use x="63.623047" xlink:href="#DejaVuSans-48"/>
      </g>
     </g>
    </g>
    <g id="xtick_6">
     <g id="line2d_6">
      <g>
       <use style="stroke:#000000;stroke-width:0.8;" x="289.812622" xlink:href="#m9d58e5d93c" y="303.64"/>
      </g>
     </g>
     <g id="text_6">
      <!-- 25 -->
      <g transform="translate(283.450122 318.238437)scale(0.1 -0.1)">
       <use xlink:href="#DejaVuSans-50"/>
       <use x="63.623047" xlink:href="#DejaVuSans-53"/>
      </g>
     </g>
    </g>
    <g id="xtick_7">
     <g id="line2d_7">
      <g>
       <use style="stroke:#000000;stroke-width:0.8;" x="337.065536" xlink:href="#m9d58e5d93c" y="303.64"/>
      </g>
     </g>
     <g id="text_7">
      <!-- 30 -->
      <g transform="translate(330.703036 318.238437)scale(0.1 -0.1)">
       <defs>
        <path d="M 40.578125 39.3125 
Q 47.65625 37.796875 51.625 33 
Q 55.609375 28.21875 55.609375 21.1875 
Q 55.609375 10.40625 48.1875 4.484375 
Q 40.765625 -1.421875 27.09375 -1.421875 
Q 22.515625 -1.421875 17.65625 -0.515625 
Q 12.796875 0.390625 7.625 2.203125 
L 7.625 11.71875 
Q 11.71875 9.328125 16.59375 8.109375 
Q 21.484375 6.890625 26.8125 6.890625 
Q 36.078125 6.890625 40.9375 10.546875 
Q 45.796875 14.203125 45.796875 21.1875 
Q 45.796875 27.640625 41.28125 31.265625 
Q 36.765625 34.90625 28.71875 34.90625 
L 20.21875 34.90625 
L 20.21875 43.015625 
L 29.109375 43.015625 
Q 36.375 43.015625 40.234375 45.921875 
Q 44.09375 48.828125 44.09375 54.296875 
Q 44.09375 59.90625 40.109375 62.90625 
Q 36.140625 65.921875 28.71875 65.921875 
Q 24.65625 65.921875 20.015625 65.03125 
Q 15.375 64.15625 9.8125 62.3125 
L 9.8125 71.09375 
Q 15.4375 72.65625 20.34375 73.4375 
Q 25.25 74.21875 29.59375 74.21875 
Q 40.828125 74.21875 47.359375 69.109375 
Q 53.90625 64.015625 53.90625 55.328125 
Q 53.90625 49.265625 50.4375 45.09375 
Q 46.96875 40.921875 40.578125 39.3125 
z
" id="DejaVuSans-51"/>
       </defs>
       <use xlink:href="#DejaVuSans-51"/>
       <use x="63.623047" xlink:href="#DejaVuSans-48"/>
      </g>
     </g>
    </g>
    <g id="xtick_8">
     <g id="line2d_8">
      <g>
       <use style="stroke:#000000;stroke-width:0.8;" x="384.31845" xlink:href="#m9d58e5d93c" y="303.64"/>
      </g>
     </g>
     <g id="text_8">
      <!-- 35 -->
      <g transform="translate(377.95595 318.238437)scale(0.1 -0.1)">
       <use xlink:href="#DejaVuSans-51"/>
       <use x="63.623047" xlink:href="#DejaVuSans-53"/>
      </g>
     </g>
    </g>
    <g id="xtick_9">
     <g id="line2d_9">
      <g>
       <use style="stroke:#000000;stroke-width:0.8;" x="431.571364" xlink:href="#m9d58e5d93c" y="303.64"/>
      </g>
     </g>
     <g id="text_9">
      <!-- 40 -->
      <g transform="translate(425.208864 318.238437)scale(0.1 -0.1)">
       <defs>
        <path d="M 37.796875 64.3125 
L 12.890625 25.390625 
L 37.796875 25.390625 
z
M 35.203125 72.90625 
L 47.609375 72.90625 
L 47.609375 25.390625 
L 58.015625 25.390625 
L 58.015625 17.1875 
L 47.609375 17.1875 
L 47.609375 0 
L 37.796875 0 
L 37.796875 17.1875 
L 4.890625 17.1875 
L 4.890625 26.703125 
z
" id="DejaVuSans-52"/>
       </defs>
       <use xlink:href="#DejaVuSans-52"/>
       <use x="63.623047" xlink:href="#DejaVuSans-48"/>
      </g>
     </g>
    </g>
    <g id="text_10">
     <!-- Iteration -->
     <g transform="translate(226.076406 331.916562)scale(0.1 -0.1)">
      <defs>
       <path d="M 9.8125 72.90625 
L 19.671875 72.90625 
L 19.671875 0 
L 9.8125 0 
z
" id="DejaVuSans-73"/>
       <path d="M 18.3125 70.21875 
L 18.3125 54.6875 
L 36.8125 54.6875 
L 36.8125 47.703125 
L 18.3125 47.703125 
L 18.3125 18.015625 
Q 18.3125 11.328125 20.140625 9.421875 
Q 21.96875 7.515625 27.59375 7.515625 
L 36.8125 7.515625 
L 36.8125 0 
L 27.59375 0 
Q 17.1875 0 13.234375 3.875 
Q 9.28125 7.765625 9.28125 18.015625 
L 9.28125 47.703125 
L 2.6875 47.703125 
L 2.6875 54.6875 
L 9.28125 54.6875 
L 9.28125 70.21875 
z
" id="DejaVuSans-116"/>
       <path d="M 56.203125 29.59375 
L 56.203125 25.203125 
L 14.890625 25.203125 
Q 15.484375 15.921875 20.484375 11.0625 
Q 25.484375 6.203125 34.421875 6.203125 
Q 39.59375 6.203125 44.453125 7.46875 
Q 49.3125 8.734375 54.109375 11.28125 
L 54.109375 2.78125 
Q 49.265625 0.734375 44.1875 -0.34375 
Q 39.109375 -1.421875 33.890625 -1.421875 
Q 20.796875 -1.421875 13.15625 6.1875 
Q 5.515625 13.8125 5.515625 26.8125 
Q 5.515625 40.234375 12.765625 48.109375 
Q 20.015625 56 32.328125 56 
Q 43.359375 56 49.78125 48.890625 
Q 56.203125 41.796875 56.203125 29.59375 
z
M 47.21875 32.234375 
Q 47.125 39.59375 43.09375 43.984375 
Q 39.0625 48.390625 32.421875 48.390625 
Q 24.90625 48.390625 20.390625 44.140625 
Q 15.875 39.890625 15.1875 32.171875 
z
" id="DejaVuSans-101"/>
       <path d="M 41.109375 46.296875 
Q 39.59375 47.171875 37.8125 47.578125 
Q 36.03125 48 33.890625 48 
Q 26.265625 48 22.1875 43.046875 
Q 18.109375 38.09375 18.109375 28.8125 
L 18.109375 0 
L 9.078125 0 
L 9.078125 54.6875 
L 18.109375 54.6875 
L 18.109375 46.1875 
Q 20.953125 51.171875 25.484375 53.578125 
Q 30.03125 56 36.53125 56 
Q 37.453125 56 38.578125 55.875 
Q 39.703125 55.765625 41.0625 55.515625 
z
" id="DejaVuSans-114"/>
       <path d="M 34.28125 27.484375 
Q 23.390625 27.484375 19.1875 25 
Q 14.984375 22.515625 14.984375 16.5 
Q 14.984375 11.71875 18.140625 8.90625 
Q 21.296875 6.109375 26.703125 6.109375 
Q 34.1875 6.109375 38.703125 11.40625 
Q 43.21875 16.703125 43.21875 25.484375 
L 43.21875 27.484375 
z
M 52.203125 31.203125 
L 52.203125 0 
L 43.21875 0 
L 43.21875 8.296875 
Q 40.140625 3.328125 35.546875 0.953125 
Q 30.953125 -1.421875 24.3125 -1.421875 
Q 15.921875 -1.421875 10.953125 3.296875 
Q 6 8.015625 6 15.921875 
Q 6 25.140625 12.171875 29.828125 
Q 18.359375 34.515625 30.609375 34.515625 
L 43.21875 34.515625 
L 43.21875 35.40625 
Q 43.21875 41.609375 39.140625 45 
Q 35.0625 48.390625 27.6875 48.390625 
Q 23 48.390625 18.546875 47.265625 
Q 14.109375 46.140625 10.015625 43.890625 
L 10.015625 52.203125 
Q 14.9375 54.109375 19.578125 55.046875 
Q 24.21875 56 28.609375 56 
Q 40.484375 56 46.34375 49.84375 
Q 52.203125 43.703125 52.203125 31.203125 
z
" id="DejaVuSans-97"/>
       <path d="M 9.421875 54.6875 
L 18.40625 54.6875 
L 18.40625 0 
L 9.421875 0 
z
M 9.421875 75.984375 
L 18.40625 75.984375 
L 18.40625 64.59375 
L 9.421875 64.59375 
z
" id="DejaVuSans-105"/>
       <path d="M 30.609375 48.390625 
Q 23.390625 48.390625 19.1875 42.75 
Q 14.984375 37.109375 14.984375 27.296875 
Q 14.984375 17.484375 19.15625 11.84375 
Q 23.34375 6.203125 30.609375 6.203125 
Q 37.796875 6.203125 41.984375 11.859375 
Q 46.1875 17.53125 46.1875 27.296875 
Q 46.1875 37.015625 41.984375 42.703125 
Q 37.796875 48.390625 30.609375 48.390625 
z
M 30.609375 56 
Q 42.328125 56 49.015625 48.375 
Q 55.71875 40.765625 55.71875 27.296875 
Q 55.71875 13.875 49.015625 6.21875 
Q 42.328125 -1.421875 30.609375 -1.421875 
Q 18.84375 -1.421875 12.171875 6.21875 
Q 5.515625 13.875 5.515625 27.296875 
Q 5.515625 40.765625 12.171875 48.375 
Q 18.84375 56 30.609375 56 
z
" id="DejaVuSans-111"/>
       <path d="M 54.890625 33.015625 
L 54.890625 0 
L 45.90625 0 
L 45.90625 32.71875 
Q 45.90625 40.484375 42.875 44.328125 
Q 39.84375 48.1875 33.796875 48.1875 
Q 26.515625 48.1875 22.3125 43.546875 
Q 18.109375 38.921875 18.109375 30.90625 
L 18.109375 0 
L 9.078125 0 
L 9.078125 54.6875 
L 18.109375 54.6875 
L 18.109375 46.1875 
Q 21.34375 51.125 25.703125 53.5625 
Q 30.078125 56 35.796875 56 
Q 45.21875 56 50.046875 50.171875 
Q 54.890625 44.34375 54.890625 33.015625 
z
" id="DejaVuSans-110"/>
      </defs>
      <use xlink:href="#DejaVuSans-73"/>
      <use x="29.492188" xlink:href="#DejaVuSans-116"/>
      <use x="68.701172" xlink:href="#DejaVuSans-101"/>
      <use x="130.224609" xlink:href="#DejaVuSans-114"/>
      <use x="171.337891" xlink:href="#DejaVuSans-97"/>
      <use x="232.617188" xlink:href="#DejaVuSans-116"/>
      <use x="271.826172" xlink:href="#DejaVuSans-105"/>
      <use x="299.609375" xlink:href="#DejaVuSans-111"/>
      <use x="360.791016" xlink:href="#DejaVuSans-110"/>
     </g>
    </g>
   </g>
   <g id="matplotlib.axis_2">
    <g id="ytick_1">
     <g id="line2d_10">
      <defs>
       <path d="M 0 0 
L -3.5 0 
" id="m81e66e4d84" style="stroke:#000000;stroke-width:0.8;"/>
      </defs>
      <g>
       <use style="stroke:#000000;stroke-width:0.8;" x="44.57" xlink:href="#m81e66e4d84" y="292.814572"/>
      </g>
     </g>
     <g id="text_11">
      <!-- 0 -->
      <g transform="translate(31.2075 296.613791)scale(0.1 -0.1)">
       <use xlink:href="#DejaVuSans-48"/>
      </g>
     </g>
    </g>
    <g id="ytick_2">
     <g id="line2d_11">
      <g>
       <use style="stroke:#000000;stroke-width:0.8;" x="44.57" xlink:href="#m81e66e4d84" y="246.087652"/>
      </g>
     </g>
     <g id="text_12">
      <!-- 10 -->
      <g transform="translate(24.845 249.886871)scale(0.1 -0.1)">
       <use xlink:href="#DejaVuSans-49"/>
       <use x="63.623047" xlink:href="#DejaVuSans-48"/>
      </g>
     </g>
    </g>
    <g id="ytick_3">
     <g id="line2d_12">
      <g>
       <use style="stroke:#000000;stroke-width:0.8;" x="44.57" xlink:href="#m81e66e4d84" y="199.360732"/>
      </g>
     </g>
     <g id="text_13">
      <!-- 20 -->
      <g transform="translate(24.845 203.15995)scale(0.1 -0.1)">
       <use xlink:href="#DejaVuSans-50"/>
       <use x="63.623047" xlink:href="#DejaVuSans-48"/>
      </g>
     </g>
    </g>
    <g id="ytick_4">
     <g id="line2d_13">
      <g>
       <use style="stroke:#000000;stroke-width:0.8;" x="44.57" xlink:href="#m81e66e4d84" y="152.633811"/>
      </g>
     </g>
     <g id="text_14">
      <!-- 30 -->
      <g transform="translate(24.845 156.43303)scale(0.1 -0.1)">
       <use xlink:href="#DejaVuSans-51"/>
       <use x="63.623047" xlink:href="#DejaVuSans-48"/>
      </g>
     </g>
    </g>
    <g id="ytick_5">
     <g id="line2d_14">
      <g>
       <use style="stroke:#000000;stroke-width:0.8;" x="44.57" xlink:href="#m81e66e4d84" y="105.906891"/>
      </g>
     </g>
     <g id="text_15">
      <!-- 40 -->
      <g transform="translate(24.845 109.70611)scale(0.1 -0.1)">
       <use xlink:href="#DejaVuSans-52"/>
       <use x="63.623047" xlink:href="#DejaVuSans-48"/>
      </g>
     </g>
    </g>
    <g id="ytick_6">
     <g id="line2d_15">
      <g>
       <use style="stroke:#000000;stroke-width:0.8;" x="44.57" xlink:href="#m81e66e4d84" y="59.179971"/>
      </g>
     </g>
     <g id="text_16">
      <!-- 50 -->
      <g transform="translate(24.845 62.979189)scale(0.1 -0.1)">
       <use xlink:href="#DejaVuSans-53"/>
       <use x="63.623047" xlink:href="#DejaVuSans-48"/>
      </g>
     </g>
    </g>
    <g id="text_17">
     <!-- Runtime (s) -->
     <g transform="translate(18.765313 194.238125)rotate(-90)scale(0.1 -0.1)">
      <defs>
       <path d="M 44.390625 34.1875 
Q 47.5625 33.109375 50.5625 29.59375 
Q 53.5625 26.078125 56.59375 19.921875 
L 66.609375 0 
L 56 0 
L 46.6875 18.703125 
Q 43.0625 26.03125 39.671875 28.421875 
Q 36.28125 30.8125 30.421875 30.8125 
L 19.671875 30.8125 
L 19.671875 0 
L 9.8125 0 
L 9.8125 72.90625 
L 32.078125 72.90625 
Q 44.578125 72.90625 50.734375 67.671875 
Q 56.890625 62.453125 56.890625 51.90625 
Q 56.890625 45.015625 53.6875 40.46875 
Q 50.484375 35.9375 44.390625 34.1875 
z
M 19.671875 64.796875 
L 19.671875 38.921875 
L 32.078125 38.921875 
Q 39.203125 38.921875 42.84375 42.21875 
Q 46.484375 45.515625 46.484375 51.90625 
Q 46.484375 58.296875 42.84375 61.546875 
Q 39.203125 64.796875 32.078125 64.796875 
z
" id="DejaVuSans-82"/>
       <path d="M 8.5 21.578125 
L 8.5 54.6875 
L 17.484375 54.6875 
L 17.484375 21.921875 
Q 17.484375 14.15625 20.5 10.265625 
Q 23.53125 6.390625 29.59375 6.390625 
Q 36.859375 6.390625 41.078125 11.03125 
Q 45.3125 15.671875 45.3125 23.6875 
L 45.3125 54.6875 
L 54.296875 54.6875 
L 54.296875 0 
L 45.3125 0 
L 45.3125 8.40625 
Q 42.046875 3.421875 37.71875 1 
Q 33.40625 -1.421875 27.6875 -1.421875 
Q 18.265625 -1.421875 13.375 4.4375 
Q 8.5 10.296875 8.5 21.578125 
z
M 31.109375 56 
z
" id="DejaVuSans-117"/>
       <path d="M 52 44.1875 
Q 55.375 50.25 60.0625 53.125 
Q 64.75 56 71.09375 56 
Q 79.640625 56 84.28125 50.015625 
Q 88.921875 44.046875 88.921875 33.015625 
L 88.921875 0 
L 79.890625 0 
L 79.890625 32.71875 
Q 79.890625 40.578125 77.09375 44.375 
Q 74.3125 48.1875 68.609375 48.1875 
Q 61.625 48.1875 57.5625 43.546875 
Q 53.515625 38.921875 53.515625 30.90625 
L 53.515625 0 
L 44.484375 0 
L 44.484375 32.71875 
Q 44.484375 40.625 41.703125 44.40625 
Q 38.921875 48.1875 33.109375 48.1875 
Q 26.21875 48.1875 22.15625 43.53125 
Q 18.109375 38.875 18.109375 30.90625 
L 18.109375 0 
L 9.078125 0 
L 9.078125 54.6875 
L 18.109375 54.6875 
L 18.109375 46.1875 
Q 21.1875 51.21875 25.484375 53.609375 
Q 29.78125 56 35.6875 56 
Q 41.65625 56 45.828125 52.96875 
Q 50 49.953125 52 44.1875 
z
" id="DejaVuSans-109"/>
       <path id="DejaVuSans-32"/>
       <path d="M 31 75.875 
Q 24.46875 64.65625 21.28125 53.65625 
Q 18.109375 42.671875 18.109375 31.390625 
Q 18.109375 20.125 21.3125 9.0625 
Q 24.515625 -2 31 -13.1875 
L 23.1875 -13.1875 
Q 15.875 -1.703125 12.234375 9.375 
Q 8.59375 20.453125 8.59375 31.390625 
Q 8.59375 42.28125 12.203125 53.3125 
Q 15.828125 64.359375 23.1875 75.875 
z
" id="DejaVuSans-40"/>
       <path d="M 44.28125 53.078125 
L 44.28125 44.578125 
Q 40.484375 46.53125 36.375 47.5 
Q 32.28125 48.484375 27.875 48.484375 
Q 21.1875 48.484375 17.84375 46.4375 
Q 14.5 44.390625 14.5 40.28125 
Q 14.5 37.15625 16.890625 35.375 
Q 19.28125 33.59375 26.515625 31.984375 
L 29.59375 31.296875 
Q 39.15625 29.25 43.1875 25.515625 
Q 47.21875 21.78125 47.21875 15.09375 
Q 47.21875 7.46875 41.1875 3.015625 
Q 35.15625 -1.421875 24.609375 -1.421875 
Q 20.21875 -1.421875 15.453125 -0.5625 
Q 10.6875 0.296875 5.421875 2 
L 5.421875 11.28125 
Q 10.40625 8.6875 15.234375 7.390625 
Q 20.0625 6.109375 24.8125 6.109375 
Q 31.15625 6.109375 34.5625 8.28125 
Q 37.984375 10.453125 37.984375 14.40625 
Q 37.984375 18.0625 35.515625 20.015625 
Q 33.0625 21.96875 24.703125 23.78125 
L 21.578125 24.515625 
Q 13.234375 26.265625 9.515625 29.90625 
Q 5.8125 33.546875 5.8125 39.890625 
Q 5.8125 47.609375 11.28125 51.796875 
Q 16.75 56 26.8125 56 
Q 31.78125 56 36.171875 55.265625 
Q 40.578125 54.546875 44.28125 53.078125 
z
" id="DejaVuSans-115"/>
       <path d="M 8.015625 75.875 
L 15.828125 75.875 
Q 23.140625 64.359375 26.78125 53.3125 
Q 30.421875 42.28125 30.421875 31.390625 
Q 30.421875 20.453125 26.78125 9.375 
Q 23.140625 -1.703125 15.828125 -13.1875 
L 8.015625 -13.1875 
Q 14.5 -2 17.703125 9.0625 
Q 20.90625 20.125 20.90625 31.390625 
Q 20.90625 42.671875 17.703125 53.65625 
Q 14.5 64.65625 8.015625 75.875 
z
" id="DejaVuSans-41"/>
      </defs>
      <use xlink:href="#DejaVuSans-82"/>
      <use x="64.982422" xlink:href="#DejaVuSans-117"/>
      <use x="128.361328" xlink:href="#DejaVuSans-110"/>
      <use x="191.740234" xlink:href="#DejaVuSans-116"/>
      <use x="230.949219" xlink:href="#DejaVuSans-105"/>
      <use x="258.732422" xlink:href="#DejaVuSans-109"/>
      <use x="356.144531" xlink:href="#DejaVuSans-101"/>
      <use x="417.667969" xlink:href="#DejaVuSans-32"/>
      <use x="449.455078" xlink:href="#DejaVuSans-40"/>
      <use x="488.46875" xlink:href="#DejaVuSans-115"/>
      <use x="540.568359" xlink:href="#DejaVuSans-41"/>
     </g>
    </g>
   </g>
   <g id="line2d_16">
    <path clip-path="url(#p055b09db14)" d="M 62.998636 285.706324 
L 72.449219 284.199843 
L 81.899802 285.766522 
L 91.350385 285.74821 
L 100.800967 285.66955 
L 110.25155 285.747074 
L 119.702133 284.694242 
L 129.152716 285.785171 
L 138.603298 285.778811 
L 148.053881 285.69274 
L 157.504464 284.654277 
L 166.955047 285.825641 
L 176.405629 285.730954 
L 185.856212 285.740065 
L 195.306795 285.724206 
L 204.757378 285.746112 
L 214.20796 285.732968 
L 223.658543 285.718992 
L 233.109126 285.721632 
L 242.559709 285.75449 
L 252.010291 285.648275 
L 261.460874 285.762826 
L 270.911457 285.778152 
L 280.36204 285.738584 
L 289.812622 285.761004 
L 299.263205 285.681484 
L 308.713788 285.677465 
L 318.164371 285.726926 
L 327.614953 285.649616 
L 337.065536 285.784283 
L 346.516119 285.698866 
L 355.966702 285.706646 
L 365.417284 285.74036 
L 374.867867 285.700282 
L 384.31845 285.742238 
L 393.769033 285.715571 
L 403.219615 285.707221 
L 412.670198 285.691796 
L 422.120781 285.736449 
L 431.571364 285.735449 
" style="fill:none;stroke:#1f77b4;stroke-linecap:square;stroke-width:1.5;"/>
   </g>
   <g id="line2d_17">
    <path clip-path="url(#p055b09db14)" d="M 62.998636 284.692228 
L 72.449219 281.852269 
L 81.899802 282.061923 
L 91.350385 282.017271 
L 100.800967 285.107645 
L 110.25155 281.938844 
L 119.702133 282.397558 
L 129.152716 280.275562 
L 138.603298 282.188637 
L 148.053881 281.176476 
L 157.504464 281.945424 
L 166.955047 281.505686 
L 176.405629 282.457808 
L 185.856212 282.0871 
L 195.306795 282.427206 
L 204.757378 281.630521 
L 214.20796 282.086604 
L 223.658543 281.978445 
L 233.109126 281.988609 
L 242.559709 281.802042 
L 252.010291 281.888015 
L 261.460874 281.703359 
L 270.911457 282.006869 
L 280.36204 282.109099 
L 289.812622 282.225449 
L 299.263205 281.856825 
L 308.713788 276.183219 
L 318.164371 281.514256 
L 327.614953 282.169091 
L 337.065536 281.985328 
L 346.516119 281.60748 
L 355.966702 282.052592 
L 365.417284 282.005977 
L 374.867867 282.311978 
L 384.31845 282.6056 
L 393.769033 282.095548 
L 403.219615 282.195389 
L 412.670198 281.966222 
L 422.120781 282.103543 
L 431.571364 282.431351 
" style="fill:none;stroke:#ff7f0e;stroke-linecap:square;stroke-width:1.5;"/>
   </g>
   <g id="line2d_18">
    <path clip-path="url(#p055b09db14)" d="M 62.998636 290.795554 
L 72.449219 291.053771 
L 81.899802 290.996993 
L 91.350385 291.028609 
L 100.800967 291.030833 
L 110.25155 291.019413 
L 119.702133 290.958033 
L 129.152716 291.04109 
L 138.603298 291.03815 
L 148.053881 290.968163 
L 157.504464 291.021119 
L 166.955047 291.014857 
L 176.405629 290.991162 
L 185.856212 291.033978 
L 195.306795 290.991961 
L 204.757378 291.034496 
L 214.20796 290.993059 
L 223.658543 291.035912 
L 233.109126 291.029651 
L 242.559709 291.05087 
L 252.010291 291.026473 
L 261.460874 291.019464 
L 270.911457 291.004446 
L 280.36204 291.021048 
L 289.812622 291.027483 
L 299.263205 291.013516 
L 308.713788 291.016997 
L 318.164371 291.002577 
L 327.614953 291.029319 
L 337.065536 291.019717 
L 346.516119 291.042174 
L 355.966702 290.995194 
L 365.417284 291.028959 
L 374.867867 291.033758 
L 384.31845 291.042837 
L 393.769033 290.938594 
L 403.219615 291.000582 
L 412.670198 291.001727 
L 422.120781 290.973714 
L 431.571364 291.020782 
" style="fill:none;stroke:#2ca02c;stroke-linecap:square;stroke-width:1.5;"/>
   </g>
   <g id="line2d_19">
    <path clip-path="url(#p055b09db14)" d="M 62.998636 280.006527 
L 72.449219 269.842567 
L 81.899802 279.376485 
L 91.350385 272.474853 
L 100.800967 279.801709 
L 110.25155 279.842549 
L 119.702133 279.705583 
L 129.152716 269.674103 
L 138.603298 279.445505 
L 148.053881 279.656061 
L 157.504464 279.421025 
L 166.955047 280.120069 
L 176.405629 269.74951 
L 185.856212 279.279877 
L 195.306795 279.95146 
L 204.757378 279.765926 
L 214.20796 279.650809 
L 223.658543 269.721222 
L 233.109126 279.329408 
L 242.559709 279.799209 
L 252.010291 279.755305 
L 261.460874 279.68799 
L 270.911457 269.63831 
L 280.36204 279.4328 
L 289.812622 279.78549 
L 299.263205 279.790004 
L 308.713788 279.591321 
L 318.164371 269.782154 
L 327.614953 279.412717 
L 337.065536 279.798083 
L 346.516119 279.74959 
L 355.966702 279.679976 
L 365.417284 269.924718 
L 374.867867 279.069157 
L 384.31845 279.975959 
L 393.769033 279.775608 
L 403.219615 279.604395 
L 412.670198 269.972239 
L 422.120781 279.072386 
L 431.571364 279.919414 
" style="fill:none;stroke:#d62728;stroke-linecap:square;stroke-width:1.5;"/>
   </g>
   <g id="line2d_20">
    <path clip-path="url(#p055b09db14)" d="M 62.998636 255.5893 
L 72.449219 255.84457 
L 81.899802 255.947925 
L 91.350385 255.861564 
L 100.800967 255.858751 
L 110.25155 255.866933 
L 119.702133 255.863059 
L 129.152716 255.839869 
L 138.603298 255.77575 
L 148.053881 255.86855 
L 157.504464 255.952261 
L 166.955047 255.786979 
L 176.405629 255.877479 
L 185.856212 255.901988 
L 195.306795 255.843429 
L 204.757378 255.921333 
L 214.20796 255.884568 
L 223.658543 255.766433 
L 233.109126 255.852611 
L 242.559709 255.833472 
L 252.010291 255.930996 
L 261.460874 255.791296 
L 270.911457 255.823042 
L 280.36204 255.876026 
L 289.812622 255.888507 
L 299.263205 255.879671 
L 308.713788 255.780843 
L 318.164371 255.835117 
L 327.614953 255.806749 
L 337.065536 255.794245 
L 346.516119 255.88589 
L 355.966702 255.897469 
L 365.417284 255.831706 
L 374.867867 255.821846 
L 384.31845 255.831622 
L 393.769033 255.82237 
L 403.219615 255.84257 
L 412.670198 255.853929 
L 422.120781 255.777292 
L 431.571364 255.870442 
" style="fill:none;stroke:#9467bd;stroke-linecap:square;stroke-width:1.5;"/>
   </g>
   <g id="line2d_21">
    <path clip-path="url(#p055b09db14)" d="M 62.998636 281.095395 
L 72.449219 290.898797 
L 81.899802 280.940837 
L 91.350385 290.912198 
L 100.800967 281.286896 
L 110.25155 281.259678 
L 119.702133 290.900484 
L 129.152716 281.134057 
L 138.603298 281.085186 
L 148.053881 280.971639 
L 157.504464 280.974209 
L 166.955047 290.903343 
L 176.405629 280.882676 
L 185.856212 280.881237 
L 195.306795 281.259262 
L 204.757378 280.993993 
L 214.20796 290.88077 
L 223.658543 281.406793 
L 233.109126 281.153547 
L 242.559709 280.982391 
L 252.010291 280.979564 
L 261.460874 281.551492 
L 270.911457 281.459557 
L 280.36204 280.9605 
L 289.812622 280.877928 
L 299.263205 290.90154 
L 308.713788 281.407699 
L 318.164371 280.934178 
L 327.614953 290.879742 
L 337.065536 281.632204 
L 346.516119 281.108292 
L 355.966702 280.852144 
L 365.417284 281.022805 
L 374.867867 290.915983 
L 384.31845 281.109086 
L 393.769033 281.313152 
L 403.219615 280.854065 
L 412.670198 281.03415 
L 422.120781 284.903037 
L 431.571364 280.787035 
" style="fill:none;stroke:#8c564b;stroke-linecap:square;stroke-width:1.5;"/>
   </g>
   <g id="line2d_22">
    <path clip-path="url(#p055b09db14)" d="M 62.998636 290.853579 
L 72.449219 290.977863 
L 81.899802 291.044225 
L 91.350385 291.006054 
L 100.800967 291.050561 
L 110.25155 290.927048 
L 119.702133 291.024875 
L 129.152716 291.043155 
L 138.603298 290.978994 
L 148.053881 291.021455 
L 157.504464 291.01995 
L 166.955047 291.033408 
L 176.405629 291.015965 
L 185.856212 291.009876 
L 195.306795 291.038534 
L 204.757378 291.059164 
L 214.20796 291.051725 
L 223.658543 291.018726 
L 233.109126 291.06 
L 242.559709 290.981592 
L 252.010291 291.039949 
L 261.460874 290.945869 
L 270.911457 290.937646 
L 280.36204 291.00532 
L 289.812622 291.033683 
L 299.263205 291.005241 
L 308.713788 291.059327 
L 318.164371 291.01053 
L 327.614953 291.028029 
L 337.065536 291.038744 
L 346.516119 290.999334 
L 355.966702 291.037847 
L 365.417284 291.055 
L 374.867867 291.017801 
L 384.31845 291.043061 
L 393.769033 291.039917 
L 403.219615 291.01125 
L 412.670198 291.00954 
L 422.120781 291.044304 
L 431.571364 290.972812 
" style="fill:none;stroke:#e377c2;stroke-linecap:square;stroke-width:1.5;"/>
   </g>
   <g id="line2d_23">
    <path clip-path="url(#p055b09db14)" d="M 62.998636 270.685633 
L 72.449219 269.707863 
L 81.899802 270.464344 
L 91.350385 269.65272 
L 100.800967 270.453302 
L 110.25155 269.650071 
L 119.702133 270.472689 
L 129.152716 269.637922 
L 138.603298 270.454208 
L 148.053881 269.671738 
L 157.504464 270.450143 
L 166.955047 269.333879 
L 176.405629 269.428866 
L 185.856212 270.120728 
L 195.306795 269.833862 
L 204.757378 269.422394 
L 214.20796 269.444557 
L 223.658543 270.319401 
L 233.109126 269.305488 
L 242.559709 269.346023 
L 252.010291 270.236283 
L 261.460874 269.834605 
L 270.911457 270.322065 
L 280.36204 269.852768 
L 289.812622 270.23548 
L 299.263205 269.867622 
L 308.713788 269.566785 
L 318.164371 270.577614 
L 327.614953 269.390666 
L 337.065536 269.38747 
L 346.516119 270.298575 
L 355.966702 270.549877 
L 365.417284 270.839406 
L 374.867867 269.866131 
L 384.31845 269.455243 
L 393.769033 269.38319 
L 403.219615 270.315574 
L 412.670198 269.653398 
L 422.120781 270.459554 
L 431.571364 269.64344 
" style="fill:none;stroke:#7f7f7f;stroke-linecap:square;stroke-width:1.5;"/>
   </g>
   <g id="line2d_24">
    <path clip-path="url(#p055b09db14)" d="M 62.998636 281.146613 
L 72.449219 272.623688 
L 81.899802 272.385591 
L 91.350385 272.835674 
L 100.800967 272.388254 
L 110.25155 272.601278 
L 119.702133 272.619926 
L 129.152716 272.826899 
L 138.603298 272.624113 
L 148.053881 272.405361 
L 157.504464 272.822282 
L 166.955047 272.633739 
L 176.405629 272.388782 
L 185.856212 272.845641 
L 195.306795 272.599343 
L 204.757378 272.3876 
L 214.20796 272.821605 
L 223.658543 272.632561 
L 233.109126 272.397203 
L 242.559709 272.815782 
L 252.010291 272.619581 
L 261.460874 272.628949 
L 270.911457 272.386899 
L 280.36204 272.599806 
L 289.812622 272.823983 
L 299.263205 272.597904 
L 308.713788 272.382367 
L 318.164371 272.60182 
L 327.614953 272.82416 
L 337.065536 272.37718 
L 346.516119 272.610941 
L 355.966702 272.603296 
L 365.417284 272.819829 
L 374.867867 272.391278 
L 384.31845 265.387365 
L 393.769033 232.317065 
L 403.219615 39.46 
L 412.670198 272.12328 
L 422.120781 70.33892 
L 431.571364 272.188202 
" style="fill:none;stroke:#bcbd22;stroke-linecap:square;stroke-width:1.5;"/>
   </g>
   <g id="patch_3">
    <path d="M 44.57 303.64 
L 44.57 26.88 
" style="fill:none;stroke:#000000;stroke-linecap:square;stroke-linejoin:miter;stroke-width:0.8;"/>
   </g>
   <g id="patch_4">
    <path d="M 450 303.64 
L 450 26.88 
" style="fill:none;stroke:#000000;stroke-linecap:square;stroke-linejoin:miter;stroke-width:0.8;"/>
   </g>
   <g id="patch_5">
    <path d="M 44.57 303.64 
L 450 303.64 
" style="fill:none;stroke:#000000;stroke-linecap:square;stroke-linejoin:miter;stroke-width:0.8;"/>
   </g>
   <g id="patch_6">
    <path d="M 44.57 26.88 
L 450 26.88 
" style="fill:none;stroke:#000000;stroke-linecap:square;stroke-linejoin:miter;stroke-width:0.8;"/>
   </g>
   <g id="text_18">
    <!-- Runtime across repetition number (4096 vector size, 32 nodes) -->
    <g transform="translate(57.027813 20.88)scale(0.12 -0.12)">
     <defs>
      <path d="M 48.78125 52.59375 
L 48.78125 44.1875 
Q 44.96875 46.296875 41.140625 47.34375 
Q 37.3125 48.390625 33.40625 48.390625 
Q 24.65625 48.390625 19.8125 42.84375 
Q 14.984375 37.3125 14.984375 27.296875 
Q 14.984375 17.28125 19.8125 11.734375 
Q 24.65625 6.203125 33.40625 6.203125 
Q 37.3125 6.203125 41.140625 7.25 
Q 44.96875 8.296875 48.78125 10.40625 
L 48.78125 2.09375 
Q 45.015625 0.34375 40.984375 -0.53125 
Q 36.96875 -1.421875 32.421875 -1.421875 
Q 20.0625 -1.421875 12.78125 6.34375 
Q 5.515625 14.109375 5.515625 27.296875 
Q 5.515625 40.671875 12.859375 48.328125 
Q 20.21875 56 33.015625 56 
Q 37.15625 56 41.109375 55.140625 
Q 45.0625 54.296875 48.78125 52.59375 
z
" id="DejaVuSans-99"/>
      <path d="M 18.109375 8.203125 
L 18.109375 -20.796875 
L 9.078125 -20.796875 
L 9.078125 54.6875 
L 18.109375 54.6875 
L 18.109375 46.390625 
Q 20.953125 51.265625 25.265625 53.625 
Q 29.59375 56 35.59375 56 
Q 45.5625 56 51.78125 48.09375 
Q 58.015625 40.1875 58.015625 27.296875 
Q 58.015625 14.40625 51.78125 6.484375 
Q 45.5625 -1.421875 35.59375 -1.421875 
Q 29.59375 -1.421875 25.265625 0.953125 
Q 20.953125 3.328125 18.109375 8.203125 
z
M 48.6875 27.296875 
Q 48.6875 37.203125 44.609375 42.84375 
Q 40.53125 48.484375 33.40625 48.484375 
Q 26.265625 48.484375 22.1875 42.84375 
Q 18.109375 37.203125 18.109375 27.296875 
Q 18.109375 17.390625 22.1875 11.75 
Q 26.265625 6.109375 33.40625 6.109375 
Q 40.53125 6.109375 44.609375 11.75 
Q 48.6875 17.390625 48.6875 27.296875 
z
" id="DejaVuSans-112"/>
      <path d="M 48.6875 27.296875 
Q 48.6875 37.203125 44.609375 42.84375 
Q 40.53125 48.484375 33.40625 48.484375 
Q 26.265625 48.484375 22.1875 42.84375 
Q 18.109375 37.203125 18.109375 27.296875 
Q 18.109375 17.390625 22.1875 11.75 
Q 26.265625 6.109375 33.40625 6.109375 
Q 40.53125 6.109375 44.609375 11.75 
Q 48.6875 17.390625 48.6875 27.296875 
z
M 18.109375 46.390625 
Q 20.953125 51.265625 25.265625 53.625 
Q 29.59375 56 35.59375 56 
Q 45.5625 56 51.78125 48.09375 
Q 58.015625 40.1875 58.015625 27.296875 
Q 58.015625 14.40625 51.78125 6.484375 
Q 45.5625 -1.421875 35.59375 -1.421875 
Q 29.59375 -1.421875 25.265625 0.953125 
Q 20.953125 3.328125 18.109375 8.203125 
L 18.109375 0 
L 9.078125 0 
L 9.078125 75.984375 
L 18.109375 75.984375 
z
" id="DejaVuSans-98"/>
      <path d="M 10.984375 1.515625 
L 10.984375 10.5 
Q 14.703125 8.734375 18.5 7.8125 
Q 22.3125 6.890625 25.984375 6.890625 
Q 35.75 6.890625 40.890625 13.453125 
Q 46.046875 20.015625 46.78125 33.40625 
Q 43.953125 29.203125 39.59375 26.953125 
Q 35.25 24.703125 29.984375 24.703125 
Q 19.046875 24.703125 12.671875 31.3125 
Q 6.296875 37.9375 6.296875 49.421875 
Q 6.296875 60.640625 12.9375 67.421875 
Q 19.578125 74.21875 30.609375 74.21875 
Q 43.265625 74.21875 49.921875 64.515625 
Q 56.59375 54.828125 56.59375 36.375 
Q 56.59375 19.140625 48.40625 8.859375 
Q 40.234375 -1.421875 26.421875 -1.421875 
Q 22.703125 -1.421875 18.890625 -0.6875 
Q 15.09375 0.046875 10.984375 1.515625 
z
M 30.609375 32.421875 
Q 37.25 32.421875 41.125 36.953125 
Q 45.015625 41.5 45.015625 49.421875 
Q 45.015625 57.28125 41.125 61.84375 
Q 37.25 66.40625 30.609375 66.40625 
Q 23.96875 66.40625 20.09375 61.84375 
Q 16.21875 57.28125 16.21875 49.421875 
Q 16.21875 41.5 20.09375 36.953125 
Q 23.96875 32.421875 30.609375 32.421875 
z
" id="DejaVuSans-57"/>
      <path d="M 33.015625 40.375 
Q 26.375 40.375 22.484375 35.828125 
Q 18.609375 31.296875 18.609375 23.390625 
Q 18.609375 15.53125 22.484375 10.953125 
Q 26.375 6.390625 33.015625 6.390625 
Q 39.65625 6.390625 43.53125 10.953125 
Q 47.40625 15.53125 47.40625 23.390625 
Q 47.40625 31.296875 43.53125 35.828125 
Q 39.65625 40.375 33.015625 40.375 
z
M 52.59375 71.296875 
L 52.59375 62.3125 
Q 48.875 64.0625 45.09375 64.984375 
Q 41.3125 65.921875 37.59375 65.921875 
Q 27.828125 65.921875 22.671875 59.328125 
Q 17.53125 52.734375 16.796875 39.40625 
Q 19.671875 43.65625 24.015625 45.921875 
Q 28.375 48.1875 33.59375 48.1875 
Q 44.578125 48.1875 50.953125 41.515625 
Q 57.328125 34.859375 57.328125 23.390625 
Q 57.328125 12.15625 50.6875 5.359375 
Q 44.046875 -1.421875 33.015625 -1.421875 
Q 20.359375 -1.421875 13.671875 8.265625 
Q 6.984375 17.96875 6.984375 36.375 
Q 6.984375 53.65625 15.1875 63.9375 
Q 23.390625 74.21875 37.203125 74.21875 
Q 40.921875 74.21875 44.703125 73.484375 
Q 48.484375 72.75 52.59375 71.296875 
z
" id="DejaVuSans-54"/>
      <path d="M 2.984375 54.6875 
L 12.5 54.6875 
L 29.59375 8.796875 
L 46.6875 54.6875 
L 56.203125 54.6875 
L 35.6875 0 
L 23.484375 0 
z
" id="DejaVuSans-118"/>
      <path d="M 5.515625 54.6875 
L 48.1875 54.6875 
L 48.1875 46.484375 
L 14.40625 7.171875 
L 48.1875 7.171875 
L 48.1875 0 
L 4.296875 0 
L 4.296875 8.203125 
L 38.09375 47.515625 
L 5.515625 47.515625 
z
" id="DejaVuSans-122"/>
      <path d="M 11.71875 12.40625 
L 22.015625 12.40625 
L 22.015625 4 
L 14.015625 -11.625 
L 7.71875 -11.625 
L 11.71875 4 
z
" id="DejaVuSans-44"/>
      <path d="M 45.40625 46.390625 
L 45.40625 75.984375 
L 54.390625 75.984375 
L 54.390625 0 
L 45.40625 0 
L 45.40625 8.203125 
Q 42.578125 3.328125 38.25 0.953125 
Q 33.9375 -1.421875 27.875 -1.421875 
Q 17.96875 -1.421875 11.734375 6.484375 
Q 5.515625 14.40625 5.515625 27.296875 
Q 5.515625 40.1875 11.734375 48.09375 
Q 17.96875 56 27.875 56 
Q 33.9375 56 38.25 53.625 
Q 42.578125 51.265625 45.40625 46.390625 
z
M 14.796875 27.296875 
Q 14.796875 17.390625 18.875 11.75 
Q 22.953125 6.109375 30.078125 6.109375 
Q 37.203125 6.109375 41.296875 11.75 
Q 45.40625 17.390625 45.40625 27.296875 
Q 45.40625 37.203125 41.296875 42.84375 
Q 37.203125 48.484375 30.078125 48.484375 
Q 22.953125 48.484375 18.875 42.84375 
Q 14.796875 37.203125 14.796875 27.296875 
z
" id="DejaVuSans-100"/>
     </defs>
     <use xlink:href="#DejaVuSans-82"/>
     <use x="64.982422" xlink:href="#DejaVuSans-117"/>
     <use x="128.361328" xlink:href="#DejaVuSans-110"/>
     <use x="191.740234" xlink:href="#DejaVuSans-116"/>
     <use x="230.949219" xlink:href="#DejaVuSans-105"/>
     <use x="258.732422" xlink:href="#DejaVuSans-109"/>
     <use x="356.144531" xlink:href="#DejaVuSans-101"/>
     <use x="417.667969" xlink:href="#DejaVuSans-32"/>
     <use x="449.455078" xlink:href="#DejaVuSans-97"/>
     <use x="510.734375" xlink:href="#DejaVuSans-99"/>
     <use x="565.714844" xlink:href="#DejaVuSans-114"/>
     <use x="604.578125" xlink:href="#DejaVuSans-111"/>
     <use x="665.759766" xlink:href="#DejaVuSans-115"/>
     <use x="717.859375" xlink:href="#DejaVuSans-115"/>
     <use x="769.958984" xlink:href="#DejaVuSans-32"/>
     <use x="801.746094" xlink:href="#DejaVuSans-114"/>
     <use x="840.609375" xlink:href="#DejaVuSans-101"/>
     <use x="902.132812" xlink:href="#DejaVuSans-112"/>
     <use x="965.609375" xlink:href="#DejaVuSans-101"/>
     <use x="1027.132812" xlink:href="#DejaVuSans-116"/>
     <use x="1066.341797" xlink:href="#DejaVuSans-105"/>
     <use x="1094.125" xlink:href="#DejaVuSans-116"/>
     <use x="1133.333984" xlink:href="#DejaVuSans-105"/>
     <use x="1161.117188" xlink:href="#DejaVuSans-111"/>
     <use x="1222.298828" xlink:href="#DejaVuSans-110"/>
     <use x="1285.677734" xlink:href="#DejaVuSans-32"/>
     <use x="1317.464844" xlink:href="#DejaVuSans-110"/>
     <use x="1380.84375" xlink:href="#DejaVuSans-117"/>
     <use x="1444.222656" xlink:href="#DejaVuSans-109"/>
     <use x="1541.634766" xlink:href="#DejaVuSans-98"/>
     <use x="1605.111328" xlink:href="#DejaVuSans-101"/>
     <use x="1666.634766" xlink:href="#DejaVuSans-114"/>
     <use x="1707.748047" xlink:href="#DejaVuSans-32"/>
     <use x="1739.535156" xlink:href="#DejaVuSans-40"/>
     <use x="1778.548828" xlink:href="#DejaVuSans-52"/>
     <use x="1842.171875" xlink:href="#DejaVuSans-48"/>
     <use x="1905.794922" xlink:href="#DejaVuSans-57"/>
     <use x="1969.417969" xlink:href="#DejaVuSans-54"/>
     <use x="2033.041016" xlink:href="#DejaVuSans-32"/>
     <use x="2064.828125" xlink:href="#DejaVuSans-118"/>
     <use x="2124.007812" xlink:href="#DejaVuSans-101"/>
     <use x="2185.53125" xlink:href="#DejaVuSans-99"/>
     <use x="2240.511719" xlink:href="#DejaVuSans-116"/>
     <use x="2279.720703" xlink:href="#DejaVuSans-111"/>
     <use x="2340.902344" xlink:href="#DejaVuSans-114"/>
     <use x="2382.015625" xlink:href="#DejaVuSans-32"/>
     <use x="2413.802734" xlink:href="#DejaVuSans-115"/>
     <use x="2465.902344" xlink:href="#DejaVuSans-105"/>
     <use x="2493.685547" xlink:href="#DejaVuSans-122"/>
     <use x="2546.175781" xlink:href="#DejaVuSans-101"/>
     <use x="2607.699219" xlink:href="#DejaVuSans-44"/>
     <use x="2639.486328" xlink:href="#DejaVuSans-32"/>
     <use x="2671.273438" xlink:href="#DejaVuSans-51"/>
     <use x="2734.896484" xlink:href="#DejaVuSans-50"/>
     <use x="2798.519531" xlink:href="#DejaVuSans-32"/>
     <use x="2830.306641" xlink:href="#DejaVuSans-110"/>
     <use x="2893.685547" xlink:href="#DejaVuSans-111"/>
     <use x="2954.867188" xlink:href="#DejaVuSans-100"/>
     <use x="3018.34375" xlink:href="#DejaVuSans-101"/>
     <use x="3079.867188" xlink:href="#DejaVuSans-115"/>
     <use x="3131.966797" xlink:href="#DejaVuSans-41"/>
    </g>
   </g>
   <g id="legend_1">
    <g id="patch_7">
     <path d="M 51.57 181.939375 
L 231.423125 181.939375 
Q 233.423125 181.939375 233.423125 179.939375 
L 233.423125 33.88 
Q 233.423125 31.88 231.423125 31.88 
L 51.57 31.88 
Q 49.57 31.88 49.57 33.88 
L 49.57 179.939375 
Q 49.57 181.939375 51.57 181.939375 
z
" style="fill:#ffffff;opacity:0.8;stroke:#cccccc;stroke-linejoin:miter;"/>
    </g>
    <g id="text_19">
     <!-- implementation -->
     <g transform="translate(101.880156 43.478437)scale(0.1 -0.1)">
      <defs>
       <path d="M 9.421875 75.984375 
L 18.40625 75.984375 
L 18.40625 0 
L 9.421875 0 
z
" id="DejaVuSans-108"/>
      </defs>
      <use xlink:href="#DejaVuSans-105"/>
      <use x="27.783203" xlink:href="#DejaVuSans-109"/>
      <use x="125.195312" xlink:href="#DejaVuSans-112"/>
      <use x="188.671875" xlink:href="#DejaVuSans-108"/>
      <use x="216.455078" xlink:href="#DejaVuSans-101"/>
      <use x="277.978516" xlink:href="#DejaVuSans-109"/>
      <use x="375.390625" xlink:href="#DejaVuSans-101"/>
      <use x="436.914062" xlink:href="#DejaVuSans-110"/>
      <use x="500.292969" xlink:href="#DejaVuSans-116"/>
      <use x="539.501953" xlink:href="#DejaVuSans-97"/>
      <use x="600.78125" xlink:href="#DejaVuSans-116"/>
      <use x="639.990234" xlink:href="#DejaVuSans-105"/>
      <use x="667.773438" xlink:href="#DejaVuSans-111"/>
      <use x="728.955078" xlink:href="#DejaVuSans-110"/>
     </g>
    </g>
    <g id="line2d_25">
     <path d="M 53.57 54.656563 
L 73.57 54.656563 
" style="fill:none;stroke:#1f77b4;stroke-linecap:square;stroke-width:1.5;"/>
    </g>
    <g id="line2d_26"/>
    <g id="text_20">
     <!-- allgather -->
     <g transform="translate(81.57 58.156563)scale(0.1 -0.1)">
      <defs>
       <path d="M 45.40625 27.984375 
Q 45.40625 37.75 41.375 43.109375 
Q 37.359375 48.484375 30.078125 48.484375 
Q 22.859375 48.484375 18.828125 43.109375 
Q 14.796875 37.75 14.796875 27.984375 
Q 14.796875 18.265625 18.828125 12.890625 
Q 22.859375 7.515625 30.078125 7.515625 
Q 37.359375 7.515625 41.375 12.890625 
Q 45.40625 18.265625 45.40625 27.984375 
z
M 54.390625 6.78125 
Q 54.390625 -7.171875 48.1875 -13.984375 
Q 42 -20.796875 29.203125 -20.796875 
Q 24.46875 -20.796875 20.265625 -20.09375 
Q 16.0625 -19.390625 12.109375 -17.921875 
L 12.109375 -9.1875 
Q 16.0625 -11.328125 19.921875 -12.34375 
Q 23.78125 -13.375 27.78125 -13.375 
Q 36.625 -13.375 41.015625 -8.765625 
Q 45.40625 -4.15625 45.40625 5.171875 
L 45.40625 9.625 
Q 42.625 4.78125 38.28125 2.390625 
Q 33.9375 0 27.875 0 
Q 17.828125 0 11.671875 7.65625 
Q 5.515625 15.328125 5.515625 27.984375 
Q 5.515625 40.671875 11.671875 48.328125 
Q 17.828125 56 27.875 56 
Q 33.9375 56 38.28125 53.609375 
Q 42.625 51.21875 45.40625 46.390625 
L 45.40625 54.6875 
L 54.390625 54.6875 
z
" id="DejaVuSans-103"/>
       <path d="M 54.890625 33.015625 
L 54.890625 0 
L 45.90625 0 
L 45.90625 32.71875 
Q 45.90625 40.484375 42.875 44.328125 
Q 39.84375 48.1875 33.796875 48.1875 
Q 26.515625 48.1875 22.3125 43.546875 
Q 18.109375 38.921875 18.109375 30.90625 
L 18.109375 0 
L 9.078125 0 
L 9.078125 75.984375 
L 18.109375 75.984375 
L 18.109375 46.1875 
Q 21.34375 51.125 25.703125 53.5625 
Q 30.078125 56 35.796875 56 
Q 45.21875 56 50.046875 50.171875 
Q 54.890625 44.34375 54.890625 33.015625 
z
" id="DejaVuSans-104"/>
      </defs>
      <use xlink:href="#DejaVuSans-97"/>
      <use x="61.279297" xlink:href="#DejaVuSans-108"/>
      <use x="89.0625" xlink:href="#DejaVuSans-108"/>
      <use x="116.845703" xlink:href="#DejaVuSans-103"/>
      <use x="180.322266" xlink:href="#DejaVuSans-97"/>
      <use x="241.601562" xlink:href="#DejaVuSans-116"/>
      <use x="280.810547" xlink:href="#DejaVuSans-104"/>
      <use x="344.189453" xlink:href="#DejaVuSans-101"/>
      <use x="405.712891" xlink:href="#DejaVuSans-114"/>
     </g>
    </g>
    <g id="line2d_27">
     <path d="M 53.57 69.334688 
L 73.57 69.334688 
" style="fill:none;stroke:#ff7f0e;stroke-linecap:square;stroke-width:1.5;"/>
    </g>
    <g id="line2d_28"/>
    <g id="text_21">
     <!-- allgather-async -->
     <g transform="translate(81.57 72.834688)scale(0.1 -0.1)">
      <defs>
       <path d="M 4.890625 31.390625 
L 31.203125 31.390625 
L 31.203125 23.390625 
L 4.890625 23.390625 
z
" id="DejaVuSans-45"/>
       <path d="M 32.171875 -5.078125 
Q 28.375 -14.84375 24.75 -17.8125 
Q 21.140625 -20.796875 15.09375 -20.796875 
L 7.90625 -20.796875 
L 7.90625 -13.28125 
L 13.1875 -13.28125 
Q 16.890625 -13.28125 18.9375 -11.515625 
Q 21 -9.765625 23.484375 -3.21875 
L 25.09375 0.875 
L 2.984375 54.6875 
L 12.5 54.6875 
L 29.59375 11.921875 
L 46.6875 54.6875 
L 56.203125 54.6875 
z
" id="DejaVuSans-121"/>
      </defs>
      <use xlink:href="#DejaVuSans-97"/>
      <use x="61.279297" xlink:href="#DejaVuSans-108"/>
      <use x="89.0625" xlink:href="#DejaVuSans-108"/>
      <use x="116.845703" xlink:href="#DejaVuSans-103"/>
      <use x="180.322266" xlink:href="#DejaVuSans-97"/>
      <use x="241.601562" xlink:href="#DejaVuSans-116"/>
      <use x="280.810547" xlink:href="#DejaVuSans-104"/>
      <use x="344.189453" xlink:href="#DejaVuSans-101"/>
      <use x="405.712891" xlink:href="#DejaVuSans-114"/>
      <use x="440.451172" xlink:href="#DejaVuSans-45"/>
      <use x="476.535156" xlink:href="#DejaVuSans-97"/>
      <use x="537.814453" xlink:href="#DejaVuSans-115"/>
      <use x="589.914062" xlink:href="#DejaVuSans-121"/>
      <use x="649.09375" xlink:href="#DejaVuSans-110"/>
      <use x="712.472656" xlink:href="#DejaVuSans-99"/>
     </g>
    </g>
    <g id="line2d_29">
     <path d="M 53.57 84.012812 
L 73.57 84.012812 
" style="fill:none;stroke:#2ca02c;stroke-linecap:square;stroke-width:1.5;"/>
    </g>
    <g id="line2d_30"/>
    <g id="text_22">
     <!-- allreduce -->
     <g transform="translate(81.57 87.512812)scale(0.1 -0.1)">
      <use xlink:href="#DejaVuSans-97"/>
      <use x="61.279297" xlink:href="#DejaVuSans-108"/>
      <use x="89.0625" xlink:href="#DejaVuSans-108"/>
      <use x="116.845703" xlink:href="#DejaVuSans-114"/>
      <use x="155.708984" xlink:href="#DejaVuSans-101"/>
      <use x="217.232422" xlink:href="#DejaVuSans-100"/>
      <use x="280.708984" xlink:href="#DejaVuSans-117"/>
      <use x="344.087891" xlink:href="#DejaVuSans-99"/>
      <use x="399.068359" xlink:href="#DejaVuSans-101"/>
     </g>
    </g>
    <g id="line2d_31">
     <path d="M 53.57 98.690938 
L 73.57 98.690938 
" style="fill:none;stroke:#d62728;stroke-linecap:square;stroke-width:1.5;"/>
    </g>
    <g id="line2d_32"/>
    <g id="text_23">
     <!-- allreduce-butterfly -->
     <g transform="translate(81.57 102.190938)scale(0.1 -0.1)">
      <defs>
       <path d="M 37.109375 75.984375 
L 37.109375 68.5 
L 28.515625 68.5 
Q 23.6875 68.5 21.796875 66.546875 
Q 19.921875 64.59375 19.921875 59.515625 
L 19.921875 54.6875 
L 34.71875 54.6875 
L 34.71875 47.703125 
L 19.921875 47.703125 
L 19.921875 0 
L 10.890625 0 
L 10.890625 47.703125 
L 2.296875 47.703125 
L 2.296875 54.6875 
L 10.890625 54.6875 
L 10.890625 58.5 
Q 10.890625 67.625 15.140625 71.796875 
Q 19.390625 75.984375 28.609375 75.984375 
z
" id="DejaVuSans-102"/>
      </defs>
      <use xlink:href="#DejaVuSans-97"/>
      <use x="61.279297" xlink:href="#DejaVuSans-108"/>
      <use x="89.0625" xlink:href="#DejaVuSans-108"/>
      <use x="116.845703" xlink:href="#DejaVuSans-114"/>
      <use x="155.708984" xlink:href="#DejaVuSans-101"/>
      <use x="217.232422" xlink:href="#DejaVuSans-100"/>
      <use x="280.708984" xlink:href="#DejaVuSans-117"/>
      <use x="344.087891" xlink:href="#DejaVuSans-99"/>
      <use x="399.068359" xlink:href="#DejaVuSans-101"/>
      <use x="460.591797" xlink:href="#DejaVuSans-45"/>
      <use x="496.675781" xlink:href="#DejaVuSans-98"/>
      <use x="560.152344" xlink:href="#DejaVuSans-117"/>
      <use x="623.53125" xlink:href="#DejaVuSans-116"/>
      <use x="662.740234" xlink:href="#DejaVuSans-116"/>
      <use x="701.949219" xlink:href="#DejaVuSans-101"/>
      <use x="763.472656" xlink:href="#DejaVuSans-114"/>
      <use x="804.585938" xlink:href="#DejaVuSans-102"/>
      <use x="839.791016" xlink:href="#DejaVuSans-108"/>
      <use x="867.574219" xlink:href="#DejaVuSans-121"/>
     </g>
    </g>
    <g id="line2d_33">
     <path d="M 53.57 113.369063 
L 73.57 113.369063 
" style="fill:none;stroke:#9467bd;stroke-linecap:square;stroke-width:1.5;"/>
    </g>
    <g id="line2d_34"/>
    <g id="text_24">
     <!-- allreduce-native-basic_linear -->
     <g transform="translate(81.57 116.869063)scale(0.1 -0.1)">
      <defs>
       <path d="M 50.984375 -16.609375 
L 50.984375 -23.578125 
L -0.984375 -23.578125 
L -0.984375 -16.609375 
z
" id="DejaVuSans-95"/>
      </defs>
      <use xlink:href="#DejaVuSans-97"/>
      <use x="61.279297" xlink:href="#DejaVuSans-108"/>
      <use x="89.0625" xlink:href="#DejaVuSans-108"/>
      <use x="116.845703" xlink:href="#DejaVuSans-114"/>
      <use x="155.708984" xlink:href="#DejaVuSans-101"/>
      <use x="217.232422" xlink:href="#DejaVuSans-100"/>
      <use x="280.708984" xlink:href="#DejaVuSans-117"/>
      <use x="344.087891" xlink:href="#DejaVuSans-99"/>
      <use x="399.068359" xlink:href="#DejaVuSans-101"/>
      <use x="460.591797" xlink:href="#DejaVuSans-45"/>
      <use x="496.675781" xlink:href="#DejaVuSans-110"/>
      <use x="560.054688" xlink:href="#DejaVuSans-97"/>
      <use x="621.333984" xlink:href="#DejaVuSans-116"/>
      <use x="660.542969" xlink:href="#DejaVuSans-105"/>
      <use x="688.326172" xlink:href="#DejaVuSans-118"/>
      <use x="747.505859" xlink:href="#DejaVuSans-101"/>
      <use x="809.029297" xlink:href="#DejaVuSans-45"/>
      <use x="845.113281" xlink:href="#DejaVuSans-98"/>
      <use x="908.589844" xlink:href="#DejaVuSans-97"/>
      <use x="969.869141" xlink:href="#DejaVuSans-115"/>
      <use x="1021.96875" xlink:href="#DejaVuSans-105"/>
      <use x="1049.751953" xlink:href="#DejaVuSans-99"/>
      <use x="1104.732422" xlink:href="#DejaVuSans-95"/>
      <use x="1154.732422" xlink:href="#DejaVuSans-108"/>
      <use x="1182.515625" xlink:href="#DejaVuSans-105"/>
      <use x="1210.298828" xlink:href="#DejaVuSans-110"/>
      <use x="1273.677734" xlink:href="#DejaVuSans-101"/>
      <use x="1335.201172" xlink:href="#DejaVuSans-97"/>
      <use x="1396.480469" xlink:href="#DejaVuSans-114"/>
     </g>
    </g>
    <g id="line2d_35">
     <path d="M 53.57 128.325312 
L 73.57 128.325312 
" style="fill:none;stroke:#8c564b;stroke-linecap:square;stroke-width:1.5;"/>
    </g>
    <g id="line2d_36"/>
    <g id="text_25">
     <!-- allreduce-native-rabenseifner -->
     <g transform="translate(81.57 131.825312)scale(0.1 -0.1)">
      <use xlink:href="#DejaVuSans-97"/>
      <use x="61.279297" xlink:href="#DejaVuSans-108"/>
      <use x="89.0625" xlink:href="#DejaVuSans-108"/>
      <use x="116.845703" xlink:href="#DejaVuSans-114"/>
      <use x="155.708984" xlink:href="#DejaVuSans-101"/>
      <use x="217.232422" xlink:href="#DejaVuSans-100"/>
      <use x="280.708984" xlink:href="#DejaVuSans-117"/>
      <use x="344.087891" xlink:href="#DejaVuSans-99"/>
      <use x="399.068359" xlink:href="#DejaVuSans-101"/>
      <use x="460.591797" xlink:href="#DejaVuSans-45"/>
      <use x="496.675781" xlink:href="#DejaVuSans-110"/>
      <use x="560.054688" xlink:href="#DejaVuSans-97"/>
      <use x="621.333984" xlink:href="#DejaVuSans-116"/>
      <use x="660.542969" xlink:href="#DejaVuSans-105"/>
      <use x="688.326172" xlink:href="#DejaVuSans-118"/>
      <use x="747.505859" xlink:href="#DejaVuSans-101"/>
      <use x="809.029297" xlink:href="#DejaVuSans-45"/>
      <use x="845.113281" xlink:href="#DejaVuSans-114"/>
      <use x="886.226562" xlink:href="#DejaVuSans-97"/>
      <use x="947.505859" xlink:href="#DejaVuSans-98"/>
      <use x="1010.982422" xlink:href="#DejaVuSans-101"/>
      <use x="1072.505859" xlink:href="#DejaVuSans-110"/>
      <use x="1135.884766" xlink:href="#DejaVuSans-115"/>
      <use x="1187.984375" xlink:href="#DejaVuSans-101"/>
      <use x="1249.507812" xlink:href="#DejaVuSans-105"/>
      <use x="1277.291016" xlink:href="#DejaVuSans-102"/>
      <use x="1312.496094" xlink:href="#DejaVuSans-110"/>
      <use x="1375.875" xlink:href="#DejaVuSans-101"/>
      <use x="1437.398438" xlink:href="#DejaVuSans-114"/>
     </g>
    </g>
    <g id="line2d_37">
     <path d="M 53.57 143.003438 
L 73.57 143.003438 
" style="fill:none;stroke:#e377c2;stroke-linecap:square;stroke-width:1.5;"/>
    </g>
    <g id="line2d_38"/>
    <g id="text_26">
     <!-- allreduce-native-ring -->
     <g transform="translate(81.57 146.503438)scale(0.1 -0.1)">
      <use xlink:href="#DejaVuSans-97"/>
      <use x="61.279297" xlink:href="#DejaVuSans-108"/>
      <use x="89.0625" xlink:href="#DejaVuSans-108"/>
      <use x="116.845703" xlink:href="#DejaVuSans-114"/>
      <use x="155.708984" xlink:href="#DejaVuSans-101"/>
      <use x="217.232422" xlink:href="#DejaVuSans-100"/>
      <use x="280.708984" xlink:href="#DejaVuSans-117"/>
      <use x="344.087891" xlink:href="#DejaVuSans-99"/>
      <use x="399.068359" xlink:href="#DejaVuSans-101"/>
      <use x="460.591797" xlink:href="#DejaVuSans-45"/>
      <use x="496.675781" xlink:href="#DejaVuSans-110"/>
      <use x="560.054688" xlink:href="#DejaVuSans-97"/>
      <use x="621.333984" xlink:href="#DejaVuSans-116"/>
      <use x="660.542969" xlink:href="#DejaVuSans-105"/>
      <use x="688.326172" xlink:href="#DejaVuSans-118"/>
      <use x="747.505859" xlink:href="#DejaVuSans-101"/>
      <use x="809.029297" xlink:href="#DejaVuSans-45"/>
      <use x="845.113281" xlink:href="#DejaVuSans-114"/>
      <use x="886.226562" xlink:href="#DejaVuSans-105"/>
      <use x="914.009766" xlink:href="#DejaVuSans-110"/>
      <use x="977.388672" xlink:href="#DejaVuSans-103"/>
     </g>
    </g>
    <g id="line2d_39">
     <path d="M 53.57 157.681563 
L 73.57 157.681563 
" style="fill:none;stroke:#7f7f7f;stroke-linecap:square;stroke-width:1.5;"/>
    </g>
    <g id="line2d_40"/>
    <g id="text_27">
     <!-- allreduce-rabenseifner -->
     <g transform="translate(81.57 161.181563)scale(0.1 -0.1)">
      <use xlink:href="#DejaVuSans-97"/>
      <use x="61.279297" xlink:href="#DejaVuSans-108"/>
      <use x="89.0625" xlink:href="#DejaVuSans-108"/>
      <use x="116.845703" xlink:href="#DejaVuSans-114"/>
      <use x="155.708984" xlink:href="#DejaVuSans-101"/>
      <use x="217.232422" xlink:href="#DejaVuSans-100"/>
      <use x="280.708984" xlink:href="#DejaVuSans-117"/>
      <use x="344.087891" xlink:href="#DejaVuSans-99"/>
      <use x="399.068359" xlink:href="#DejaVuSans-101"/>
      <use x="460.591797" xlink:href="#DejaVuSans-45"/>
      <use x="496.675781" xlink:href="#DejaVuSans-114"/>
      <use x="537.789062" xlink:href="#DejaVuSans-97"/>
      <use x="599.068359" xlink:href="#DejaVuSans-98"/>
      <use x="662.544922" xlink:href="#DejaVuSans-101"/>
      <use x="724.068359" xlink:href="#DejaVuSans-110"/>
      <use x="787.447266" xlink:href="#DejaVuSans-115"/>
      <use x="839.546875" xlink:href="#DejaVuSans-101"/>
      <use x="901.070312" xlink:href="#DejaVuSans-105"/>
      <use x="928.853516" xlink:href="#DejaVuSans-102"/>
      <use x="964.058594" xlink:href="#DejaVuSans-110"/>
      <use x="1027.4375" xlink:href="#DejaVuSans-101"/>
      <use x="1088.960938" xlink:href="#DejaVuSans-114"/>
     </g>
    </g>
    <g id="line2d_41">
     <path d="M 53.57 172.359688 
L 73.57 172.359688 
" style="fill:none;stroke:#bcbd22;stroke-linecap:square;stroke-width:1.5;"/>
    </g>
    <g id="line2d_42"/>
    <g id="text_28">
     <!-- rabenseifner-gather -->
     <g transform="translate(81.57 175.859688)scale(0.1 -0.1)">
      <use xlink:href="#DejaVuSans-114"/>
      <use x="41.113281" xlink:href="#DejaVuSans-97"/>
      <use x="102.392578" xlink:href="#DejaVuSans-98"/>
      <use x="165.869141" xlink:href="#DejaVuSans-101"/>
      <use x="227.392578" xlink:href="#DejaVuSans-110"/>
      <use x="290.771484" xlink:href="#DejaVuSans-115"/>
      <use x="342.871094" xlink:href="#DejaVuSans-101"/>
      <use x="404.394531" xlink:href="#DejaVuSans-105"/>
      <use x="432.177734" xlink:href="#DejaVuSans-102"/>
      <use x="467.382812" xlink:href="#DejaVuSans-110"/>
      <use x="530.761719" xlink:href="#DejaVuSans-101"/>
      <use x="592.285156" xlink:href="#DejaVuSans-114"/>
      <use x="627.023438" xlink:href="#DejaVuSans-45"/>
      <use x="663.107422" xlink:href="#DejaVuSans-103"/>
      <use x="726.583984" xlink:href="#DejaVuSans-97"/>
      <use x="787.863281" xlink:href="#DejaVuSans-116"/>
      <use x="827.072266" xlink:href="#DejaVuSans-104"/>
      <use x="890.451172" xlink:href="#DejaVuSans-101"/>
      <use x="951.974609" xlink:href="#DejaVuSans-114"/>
     </g>
    </g>
   </g>
  </g>
 </g>
 <defs>
  <clipPath id="p055b09db14">
   <rect height="276.76" width="405.43" x="44.57" y="26.88"/>
  </clipPath>
 </defs>
</svg>
