<?xml version="1.0" encoding="utf-8" standalone="no"?>
<!DOCTYPE svg PUBLIC "-//W3C//DTD SVG 1.1//EN"
  "http://www.w3.org/Graphics/SVG/1.1/DTD/svg11.dtd">
<!-- Created with matplotlib (https://matplotlib.org/) -->
<svg height="345.6pt" version="1.1" viewBox="0 0 460.8 345.6" width="460.8pt" xmlns="http://www.w3.org/2000/svg" xmlns:xlink="http://www.w3.org/1999/xlink">
 <metadata>
  <rdf:RDF xmlns:cc="http://creativecommons.org/ns#" xmlns:dc="http://purl.org/dc/elements/1.1/" xmlns:rdf="http://www.w3.org/1999/02/22-rdf-syntax-ns#">
   <cc:Work>
    <dc:type rdf:resource="http://purl.org/dc/dcmitype/StillImage"/>
    <dc:date>2021-11-14T16:09:18.895955</dc:date>
    <dc:format>image/svg+xml</dc:format>
    <dc:creator>
     <cc:Agent>
      <dc:title>Matplotlib v3.3.4, https://matplotlib.org/</dc:title>
     </cc:Agent>
    </dc:creator>
   </cc:Work>
  </rdf:RDF>
 </metadata>
 <defs>
  <style type="text/css">*{stroke-linecap:butt;stroke-linejoin:round;}</style>
 </defs>
 <g id="figure_1">
  <g id="patch_1">
   <path d="M 0 345.6 
L 460.8 345.6 
L 460.8 0 
L 0 0 
z
" style="fill:#ffffff;"/>
  </g>
  <g id="axes_1">
   <g id="patch_2">
    <path d="M 47.72 303.64 
L 450 303.64 
L 450 26.88 
L 47.72 26.88 
z
" style="fill:#ffffff;"/>
   </g>
   <g id="matplotlib.axis_1">
    <g id="xtick_1">
     <g id="line2d_1">
      <defs>
       <path d="M 0 0 
L 0 3.5 
" id="m52b2aca6f4" style="stroke:#000000;stroke-width:0.8;"/>
      </defs>
      <g>
       <use style="stroke:#000000;stroke-width:0.8;" x="56.628298" xlink:href="#m52b2aca6f4" y="303.64"/>
      </g>
     </g>
     <g id="text_1">
      <!-- 0 -->
      <g transform="translate(53.447048 318.238437)scale(0.1 -0.1)">
       <defs>
        <path d="M 31.78125 66.40625 
Q 24.171875 66.40625 20.328125 58.90625 
Q 16.5 51.421875 16.5 36.375 
Q 16.5 21.390625 20.328125 13.890625 
Q 24.171875 6.390625 31.78125 6.390625 
Q 39.453125 6.390625 43.28125 13.890625 
Q 47.125 21.390625 47.125 36.375 
Q 47.125 51.421875 43.28125 58.90625 
Q 39.453125 66.40625 31.78125 66.40625 
z
M 31.78125 74.21875 
Q 44.046875 74.21875 50.515625 64.515625 
Q 56.984375 54.828125 56.984375 36.375 
Q 56.984375 17.96875 50.515625 8.265625 
Q 44.046875 -1.421875 31.78125 -1.421875 
Q 19.53125 -1.421875 13.0625 8.265625 
Q 6.59375 17.96875 6.59375 36.375 
Q 6.59375 54.828125 13.0625 64.515625 
Q 19.53125 74.21875 31.78125 74.21875 
z
" id="DejaVuSans-48"/>
       </defs>
       <use xlink:href="#DejaVuSans-48"/>
      </g>
     </g>
    </g>
    <g id="xtick_2">
     <g id="line2d_2">
      <g>
       <use style="stroke:#000000;stroke-width:0.8;" x="103.514079" xlink:href="#m52b2aca6f4" y="303.64"/>
      </g>
     </g>
     <g id="text_2">
      <!-- 5 -->
      <g transform="translate(100.332829 318.238437)scale(0.1 -0.1)">
       <defs>
        <path d="M 10.796875 72.90625 
L 49.515625 72.90625 
L 49.515625 64.59375 
L 19.828125 64.59375 
L 19.828125 46.734375 
Q 21.96875 47.46875 24.109375 47.828125 
Q 26.265625 48.1875 28.421875 48.1875 
Q 40.625 48.1875 47.75 41.5 
Q 54.890625 34.8125 54.890625 23.390625 
Q 54.890625 11.625 47.5625 5.09375 
Q 40.234375 -1.421875 26.90625 -1.421875 
Q 22.3125 -1.421875 17.546875 -0.640625 
Q 12.796875 0.140625 7.71875 1.703125 
L 7.71875 11.625 
Q 12.109375 9.234375 16.796875 8.0625 
Q 21.484375 6.890625 26.703125 6.890625 
Q 35.15625 6.890625 40.078125 11.328125 
Q 45.015625 15.765625 45.015625 23.390625 
Q 45.015625 31 40.078125 35.4375 
Q 35.15625 39.890625 26.703125 39.890625 
Q 22.75 39.890625 18.8125 39.015625 
Q 14.890625 38.140625 10.796875 36.28125 
z
" id="DejaVuSans-53"/>
       </defs>
       <use xlink:href="#DejaVuSans-53"/>
      </g>
     </g>
    </g>
    <g id="xtick_3">
     <g id="line2d_3">
      <g>
       <use style="stroke:#000000;stroke-width:0.8;" x="150.39986" xlink:href="#m52b2aca6f4" y="303.64"/>
      </g>
     </g>
     <g id="text_3">
      <!-- 10 -->
      <g transform="translate(144.03736 318.238437)scale(0.1 -0.1)">
       <defs>
        <path d="M 12.40625 8.296875 
L 28.515625 8.296875 
L 28.515625 63.921875 
L 10.984375 60.40625 
L 10.984375 69.390625 
L 28.421875 72.90625 
L 38.28125 72.90625 
L 38.28125 8.296875 
L 54.390625 8.296875 
L 54.390625 0 
L 12.40625 0 
z
" id="DejaVuSans-49"/>
       </defs>
       <use xlink:href="#DejaVuSans-49"/>
       <use x="63.623047" xlink:href="#DejaVuSans-48"/>
      </g>
     </g>
    </g>
    <g id="xtick_4">
     <g id="line2d_4">
      <g>
       <use style="stroke:#000000;stroke-width:0.8;" x="197.285641" xlink:href="#m52b2aca6f4" y="303.64"/>
      </g>
     </g>
     <g id="text_4">
      <!-- 15 -->
      <g transform="translate(190.923141 318.238437)scale(0.1 -0.1)">
       <use xlink:href="#DejaVuSans-49"/>
       <use x="63.623047" xlink:href="#DejaVuSans-53"/>
      </g>
     </g>
    </g>
    <g id="xtick_5">
     <g id="line2d_5">
      <g>
       <use style="stroke:#000000;stroke-width:0.8;" x="244.171422" xlink:href="#m52b2aca6f4" y="303.64"/>
      </g>
     </g>
     <g id="text_5">
      <!-- 20 -->
      <g transform="translate(237.808922 318.238437)scale(0.1 -0.1)">
       <defs>
        <path d="M 19.1875 8.296875 
L 53.609375 8.296875 
L 53.609375 0 
L 7.328125 0 
L 7.328125 8.296875 
Q 12.9375 14.109375 22.625 23.890625 
Q 32.328125 33.6875 34.8125 36.53125 
Q 39.546875 41.84375 41.421875 45.53125 
Q 43.3125 49.21875 43.3125 52.78125 
Q 43.3125 58.59375 39.234375 62.25 
Q 35.15625 65.921875 28.609375 65.921875 
Q 23.96875 65.921875 18.8125 64.3125 
Q 13.671875 62.703125 7.8125 59.421875 
L 7.8125 69.390625 
Q 13.765625 71.78125 18.9375 73 
Q 24.125 74.21875 28.421875 74.21875 
Q 39.75 74.21875 46.484375 68.546875 
Q 53.21875 62.890625 53.21875 53.421875 
Q 53.21875 48.921875 51.53125 44.890625 
Q 49.859375 40.875 45.40625 35.40625 
Q 44.1875 33.984375 37.640625 27.21875 
Q 31.109375 20.453125 19.1875 8.296875 
z
" id="DejaVuSans-50"/>
       </defs>
       <use xlink:href="#DejaVuSans-50"/>
       <use x="63.623047" xlink:href="#DejaVuSans-48"/>
      </g>
     </g>
    </g>
    <g id="xtick_6">
     <g id="line2d_6">
      <g>
       <use style="stroke:#000000;stroke-width:0.8;" x="291.057203" xlink:href="#m52b2aca6f4" y="303.64"/>
      </g>
     </g>
     <g id="text_6">
      <!-- 25 -->
      <g transform="translate(284.694703 318.238437)scale(0.1 -0.1)">
       <use xlink:href="#DejaVuSans-50"/>
       <use x="63.623047" xlink:href="#DejaVuSans-53"/>
      </g>
     </g>
    </g>
    <g id="xtick_7">
     <g id="line2d_7">
      <g>
       <use style="stroke:#000000;stroke-width:0.8;" x="337.942984" xlink:href="#m52b2aca6f4" y="303.64"/>
      </g>
     </g>
     <g id="text_7">
      <!-- 30 -->
      <g transform="translate(331.580484 318.238437)scale(0.1 -0.1)">
       <defs>
        <path d="M 40.578125 39.3125 
Q 47.65625 37.796875 51.625 33 
Q 55.609375 28.21875 55.609375 21.1875 
Q 55.609375 10.40625 48.1875 4.484375 
Q 40.765625 -1.421875 27.09375 -1.421875 
Q 22.515625 -1.421875 17.65625 -0.515625 
Q 12.796875 0.390625 7.625 2.203125 
L 7.625 11.71875 
Q 11.71875 9.328125 16.59375 8.109375 
Q 21.484375 6.890625 26.8125 6.890625 
Q 36.078125 6.890625 40.9375 10.546875 
Q 45.796875 14.203125 45.796875 21.1875 
Q 45.796875 27.640625 41.28125 31.265625 
Q 36.765625 34.90625 28.71875 34.90625 
L 20.21875 34.90625 
L 20.21875 43.015625 
L 29.109375 43.015625 
Q 36.375 43.015625 40.234375 45.921875 
Q 44.09375 48.828125 44.09375 54.296875 
Q 44.09375 59.90625 40.109375 62.90625 
Q 36.140625 65.921875 28.71875 65.921875 
Q 24.65625 65.921875 20.015625 65.03125 
Q 15.375 64.15625 9.8125 62.3125 
L 9.8125 71.09375 
Q 15.4375 72.65625 20.34375 73.4375 
Q 25.25 74.21875 29.59375 74.21875 
Q 40.828125 74.21875 47.359375 69.109375 
Q 53.90625 64.015625 53.90625 55.328125 
Q 53.90625 49.265625 50.4375 45.09375 
Q 46.96875 40.921875 40.578125 39.3125 
z
" id="DejaVuSans-51"/>
       </defs>
       <use xlink:href="#DejaVuSans-51"/>
       <use x="63.623047" xlink:href="#DejaVuSans-48"/>
      </g>
     </g>
    </g>
    <g id="xtick_8">
     <g id="line2d_8">
      <g>
       <use style="stroke:#000000;stroke-width:0.8;" x="384.828765" xlink:href="#m52b2aca6f4" y="303.64"/>
      </g>
     </g>
     <g id="text_8">
      <!-- 35 -->
      <g transform="translate(378.466265 318.238437)scale(0.1 -0.1)">
       <use xlink:href="#DejaVuSans-51"/>
       <use x="63.623047" xlink:href="#DejaVuSans-53"/>
      </g>
     </g>
    </g>
    <g id="xtick_9">
     <g id="line2d_9">
      <g>
       <use style="stroke:#000000;stroke-width:0.8;" x="431.714545" xlink:href="#m52b2aca6f4" y="303.64"/>
      </g>
     </g>
     <g id="text_9">
      <!-- 40 -->
      <g transform="translate(425.352045 318.238437)scale(0.1 -0.1)">
       <defs>
        <path d="M 37.796875 64.3125 
L 12.890625 25.390625 
L 37.796875 25.390625 
z
M 35.203125 72.90625 
L 47.609375 72.90625 
L 47.609375 25.390625 
L 58.015625 25.390625 
L 58.015625 17.1875 
L 47.609375 17.1875 
L 47.609375 0 
L 37.796875 0 
L 37.796875 17.1875 
L 4.890625 17.1875 
L 4.890625 26.703125 
z
" id="DejaVuSans-52"/>
       </defs>
       <use xlink:href="#DejaVuSans-52"/>
       <use x="63.623047" xlink:href="#DejaVuSans-48"/>
      </g>
     </g>
    </g>
    <g id="text_10">
     <!-- Iteration -->
     <g transform="translate(227.651406 331.916562)scale(0.1 -0.1)">
      <defs>
       <path d="M 9.8125 72.90625 
L 19.671875 72.90625 
L 19.671875 0 
L 9.8125 0 
z
" id="DejaVuSans-73"/>
       <path d="M 18.3125 70.21875 
L 18.3125 54.6875 
L 36.8125 54.6875 
L 36.8125 47.703125 
L 18.3125 47.703125 
L 18.3125 18.015625 
Q 18.3125 11.328125 20.140625 9.421875 
Q 21.96875 7.515625 27.59375 7.515625 
L 36.8125 7.515625 
L 36.8125 0 
L 27.59375 0 
Q 17.1875 0 13.234375 3.875 
Q 9.28125 7.765625 9.28125 18.015625 
L 9.28125 47.703125 
L 2.6875 47.703125 
L 2.6875 54.6875 
L 9.28125 54.6875 
L 9.28125 70.21875 
z
" id="DejaVuSans-116"/>
       <path d="M 56.203125 29.59375 
L 56.203125 25.203125 
L 14.890625 25.203125 
Q 15.484375 15.921875 20.484375 11.0625 
Q 25.484375 6.203125 34.421875 6.203125 
Q 39.59375 6.203125 44.453125 7.46875 
Q 49.3125 8.734375 54.109375 11.28125 
L 54.109375 2.78125 
Q 49.265625 0.734375 44.1875 -0.34375 
Q 39.109375 -1.421875 33.890625 -1.421875 
Q 20.796875 -1.421875 13.15625 6.1875 
Q 5.515625 13.8125 5.515625 26.8125 
Q 5.515625 40.234375 12.765625 48.109375 
Q 20.015625 56 32.328125 56 
Q 43.359375 56 49.78125 48.890625 
Q 56.203125 41.796875 56.203125 29.59375 
z
M 47.21875 32.234375 
Q 47.125 39.59375 43.09375 43.984375 
Q 39.0625 48.390625 32.421875 48.390625 
Q 24.90625 48.390625 20.390625 44.140625 
Q 15.875 39.890625 15.1875 32.171875 
z
" id="DejaVuSans-101"/>
       <path d="M 41.109375 46.296875 
Q 39.59375 47.171875 37.8125 47.578125 
Q 36.03125 48 33.890625 48 
Q 26.265625 48 22.1875 43.046875 
Q 18.109375 38.09375 18.109375 28.8125 
L 18.109375 0 
L 9.078125 0 
L 9.078125 54.6875 
L 18.109375 54.6875 
L 18.109375 46.1875 
Q 20.953125 51.171875 25.484375 53.578125 
Q 30.03125 56 36.53125 56 
Q 37.453125 56 38.578125 55.875 
Q 39.703125 55.765625 41.0625 55.515625 
z
" id="DejaVuSans-114"/>
       <path d="M 34.28125 27.484375 
Q 23.390625 27.484375 19.1875 25 
Q 14.984375 22.515625 14.984375 16.5 
Q 14.984375 11.71875 18.140625 8.90625 
Q 21.296875 6.109375 26.703125 6.109375 
Q 34.1875 6.109375 38.703125 11.40625 
Q 43.21875 16.703125 43.21875 25.484375 
L 43.21875 27.484375 
z
M 52.203125 31.203125 
L 52.203125 0 
L 43.21875 0 
L 43.21875 8.296875 
Q 40.140625 3.328125 35.546875 0.953125 
Q 30.953125 -1.421875 24.3125 -1.421875 
Q 15.921875 -1.421875 10.953125 3.296875 
Q 6 8.015625 6 15.921875 
Q 6 25.140625 12.171875 29.828125 
Q 18.359375 34.515625 30.609375 34.515625 
L 43.21875 34.515625 
L 43.21875 35.40625 
Q 43.21875 41.609375 39.140625 45 
Q 35.0625 48.390625 27.6875 48.390625 
Q 23 48.390625 18.546875 47.265625 
Q 14.109375 46.140625 10.015625 43.890625 
L 10.015625 52.203125 
Q 14.9375 54.109375 19.578125 55.046875 
Q 24.21875 56 28.609375 56 
Q 40.484375 56 46.34375 49.84375 
Q 52.203125 43.703125 52.203125 31.203125 
z
" id="DejaVuSans-97"/>
       <path d="M 9.421875 54.6875 
L 18.40625 54.6875 
L 18.40625 0 
L 9.421875 0 
z
M 9.421875 75.984375 
L 18.40625 75.984375 
L 18.40625 64.59375 
L 9.421875 64.59375 
z
" id="DejaVuSans-105"/>
       <path d="M 30.609375 48.390625 
Q 23.390625 48.390625 19.1875 42.75 
Q 14.984375 37.109375 14.984375 27.296875 
Q 14.984375 17.484375 19.15625 11.84375 
Q 23.34375 6.203125 30.609375 6.203125 
Q 37.796875 6.203125 41.984375 11.859375 
Q 46.1875 17.53125 46.1875 27.296875 
Q 46.1875 37.015625 41.984375 42.703125 
Q 37.796875 48.390625 30.609375 48.390625 
z
M 30.609375 56 
Q 42.328125 56 49.015625 48.375 
Q 55.71875 40.765625 55.71875 27.296875 
Q 55.71875 13.875 49.015625 6.21875 
Q 42.328125 -1.421875 30.609375 -1.421875 
Q 18.84375 -1.421875 12.171875 6.21875 
Q 5.515625 13.875 5.515625 27.296875 
Q 5.515625 40.765625 12.171875 48.375 
Q 18.84375 56 30.609375 56 
z
" id="DejaVuSans-111"/>
       <path d="M 54.890625 33.015625 
L 54.890625 0 
L 45.90625 0 
L 45.90625 32.71875 
Q 45.90625 40.484375 42.875 44.328125 
Q 39.84375 48.1875 33.796875 48.1875 
Q 26.515625 48.1875 22.3125 43.546875 
Q 18.109375 38.921875 18.109375 30.90625 
L 18.109375 0 
L 9.078125 0 
L 9.078125 54.6875 
L 18.109375 54.6875 
L 18.109375 46.1875 
Q 21.34375 51.125 25.703125 53.5625 
Q 30.078125 56 35.796875 56 
Q 45.21875 56 50.046875 50.171875 
Q 54.890625 44.34375 54.890625 33.015625 
z
" id="DejaVuSans-110"/>
      </defs>
      <use xlink:href="#DejaVuSans-73"/>
      <use x="29.492188" xlink:href="#DejaVuSans-116"/>
      <use x="68.701172" xlink:href="#DejaVuSans-101"/>
      <use x="130.224609" xlink:href="#DejaVuSans-114"/>
      <use x="171.337891" xlink:href="#DejaVuSans-97"/>
      <use x="232.617188" xlink:href="#DejaVuSans-116"/>
      <use x="271.826172" xlink:href="#DejaVuSans-105"/>
      <use x="299.609375" xlink:href="#DejaVuSans-111"/>
      <use x="360.791016" xlink:href="#DejaVuSans-110"/>
     </g>
    </g>
   </g>
   <g id="matplotlib.axis_2">
    <g id="ytick_1">
     <g id="line2d_10">
      <defs>
       <path d="M 0 0 
L -3.5 0 
" id="md903caad98" style="stroke:#000000;stroke-width:0.8;"/>
      </defs>
      <g>
       <use style="stroke:#000000;stroke-width:0.8;" x="47.72" xlink:href="#md903caad98" y="291.902673"/>
      </g>
     </g>
     <g id="text_11">
      <!-- 0.1 -->
      <g transform="translate(24.816875 295.701892)scale(0.1 -0.1)">
       <defs>
        <path d="M 10.6875 12.40625 
L 21 12.40625 
L 21 0 
L 10.6875 0 
z
" id="DejaVuSans-46"/>
       </defs>
       <use xlink:href="#DejaVuSans-48"/>
       <use x="63.623047" xlink:href="#DejaVuSans-46"/>
       <use x="95.410156" xlink:href="#DejaVuSans-49"/>
      </g>
     </g>
    </g>
    <g id="ytick_2">
     <g id="line2d_11">
      <g>
       <use style="stroke:#000000;stroke-width:0.8;" x="47.72" xlink:href="#md903caad98" y="260.258934"/>
      </g>
     </g>
     <g id="text_12">
      <!-- 0.2 -->
      <g transform="translate(24.816875 264.058153)scale(0.1 -0.1)">
       <use xlink:href="#DejaVuSans-48"/>
       <use x="63.623047" xlink:href="#DejaVuSans-46"/>
       <use x="95.410156" xlink:href="#DejaVuSans-50"/>
      </g>
     </g>
    </g>
    <g id="ytick_3">
     <g id="line2d_12">
      <g>
       <use style="stroke:#000000;stroke-width:0.8;" x="47.72" xlink:href="#md903caad98" y="228.615195"/>
      </g>
     </g>
     <g id="text_13">
      <!-- 0.3 -->
      <g transform="translate(24.816875 232.414414)scale(0.1 -0.1)">
       <use xlink:href="#DejaVuSans-48"/>
       <use x="63.623047" xlink:href="#DejaVuSans-46"/>
       <use x="95.410156" xlink:href="#DejaVuSans-51"/>
      </g>
     </g>
    </g>
    <g id="ytick_4">
     <g id="line2d_13">
      <g>
       <use style="stroke:#000000;stroke-width:0.8;" x="47.72" xlink:href="#md903caad98" y="196.971456"/>
      </g>
     </g>
     <g id="text_14">
      <!-- 0.4 -->
      <g transform="translate(24.816875 200.770675)scale(0.1 -0.1)">
       <use xlink:href="#DejaVuSans-48"/>
       <use x="63.623047" xlink:href="#DejaVuSans-46"/>
       <use x="95.410156" xlink:href="#DejaVuSans-52"/>
      </g>
     </g>
    </g>
    <g id="ytick_5">
     <g id="line2d_14">
      <g>
       <use style="stroke:#000000;stroke-width:0.8;" x="47.72" xlink:href="#md903caad98" y="165.327718"/>
      </g>
     </g>
     <g id="text_15">
      <!-- 0.5 -->
      <g transform="translate(24.816875 169.126936)scale(0.1 -0.1)">
       <use xlink:href="#DejaVuSans-48"/>
       <use x="63.623047" xlink:href="#DejaVuSans-46"/>
       <use x="95.410156" xlink:href="#DejaVuSans-53"/>
      </g>
     </g>
    </g>
    <g id="ytick_6">
     <g id="line2d_15">
      <g>
       <use style="stroke:#000000;stroke-width:0.8;" x="47.72" xlink:href="#md903caad98" y="133.683979"/>
      </g>
     </g>
     <g id="text_16">
      <!-- 0.6 -->
      <g transform="translate(24.816875 137.483198)scale(0.1 -0.1)">
       <defs>
        <path d="M 33.015625 40.375 
Q 26.375 40.375 22.484375 35.828125 
Q 18.609375 31.296875 18.609375 23.390625 
Q 18.609375 15.53125 22.484375 10.953125 
Q 26.375 6.390625 33.015625 6.390625 
Q 39.65625 6.390625 43.53125 10.953125 
Q 47.40625 15.53125 47.40625 23.390625 
Q 47.40625 31.296875 43.53125 35.828125 
Q 39.65625 40.375 33.015625 40.375 
z
M 52.59375 71.296875 
L 52.59375 62.3125 
Q 48.875 64.0625 45.09375 64.984375 
Q 41.3125 65.921875 37.59375 65.921875 
Q 27.828125 65.921875 22.671875 59.328125 
Q 17.53125 52.734375 16.796875 39.40625 
Q 19.671875 43.65625 24.015625 45.921875 
Q 28.375 48.1875 33.59375 48.1875 
Q 44.578125 48.1875 50.953125 41.515625 
Q 57.328125 34.859375 57.328125 23.390625 
Q 57.328125 12.15625 50.6875 5.359375 
Q 44.046875 -1.421875 33.015625 -1.421875 
Q 20.359375 -1.421875 13.671875 8.265625 
Q 6.984375 17.96875 6.984375 36.375 
Q 6.984375 53.65625 15.1875 63.9375 
Q 23.390625 74.21875 37.203125 74.21875 
Q 40.921875 74.21875 44.703125 73.484375 
Q 48.484375 72.75 52.59375 71.296875 
z
" id="DejaVuSans-54"/>
       </defs>
       <use xlink:href="#DejaVuSans-48"/>
       <use x="63.623047" xlink:href="#DejaVuSans-46"/>
       <use x="95.410156" xlink:href="#DejaVuSans-54"/>
      </g>
     </g>
    </g>
    <g id="ytick_7">
     <g id="line2d_16">
      <g>
       <use style="stroke:#000000;stroke-width:0.8;" x="47.72" xlink:href="#md903caad98" y="102.04024"/>
      </g>
     </g>
     <g id="text_17">
      <!-- 0.7 -->
      <g transform="translate(24.816875 105.839459)scale(0.1 -0.1)">
       <defs>
        <path d="M 8.203125 72.90625 
L 55.078125 72.90625 
L 55.078125 68.703125 
L 28.609375 0 
L 18.3125 0 
L 43.21875 64.59375 
L 8.203125 64.59375 
z
" id="DejaVuSans-55"/>
       </defs>
       <use xlink:href="#DejaVuSans-48"/>
       <use x="63.623047" xlink:href="#DejaVuSans-46"/>
       <use x="95.410156" xlink:href="#DejaVuSans-55"/>
      </g>
     </g>
    </g>
    <g id="ytick_8">
     <g id="line2d_17">
      <g>
       <use style="stroke:#000000;stroke-width:0.8;" x="47.72" xlink:href="#md903caad98" y="70.396501"/>
      </g>
     </g>
     <g id="text_18">
      <!-- 0.8 -->
      <g transform="translate(24.816875 74.19572)scale(0.1 -0.1)">
       <defs>
        <path d="M 31.78125 34.625 
Q 24.75 34.625 20.71875 30.859375 
Q 16.703125 27.09375 16.703125 20.515625 
Q 16.703125 13.921875 20.71875 10.15625 
Q 24.75 6.390625 31.78125 6.390625 
Q 38.8125 6.390625 42.859375 10.171875 
Q 46.921875 13.96875 46.921875 20.515625 
Q 46.921875 27.09375 42.890625 30.859375 
Q 38.875 34.625 31.78125 34.625 
z
M 21.921875 38.8125 
Q 15.578125 40.375 12.03125 44.71875 
Q 8.5 49.078125 8.5 55.328125 
Q 8.5 64.0625 14.71875 69.140625 
Q 20.953125 74.21875 31.78125 74.21875 
Q 42.671875 74.21875 48.875 69.140625 
Q 55.078125 64.0625 55.078125 55.328125 
Q 55.078125 49.078125 51.53125 44.71875 
Q 48 40.375 41.703125 38.8125 
Q 48.828125 37.15625 52.796875 32.3125 
Q 56.78125 27.484375 56.78125 20.515625 
Q 56.78125 9.90625 50.3125 4.234375 
Q 43.84375 -1.421875 31.78125 -1.421875 
Q 19.734375 -1.421875 13.25 4.234375 
Q 6.78125 9.90625 6.78125 20.515625 
Q 6.78125 27.484375 10.78125 32.3125 
Q 14.796875 37.15625 21.921875 38.8125 
z
M 18.3125 54.390625 
Q 18.3125 48.734375 21.84375 45.5625 
Q 25.390625 42.390625 31.78125 42.390625 
Q 38.140625 42.390625 41.71875 45.5625 
Q 45.3125 48.734375 45.3125 54.390625 
Q 45.3125 60.0625 41.71875 63.234375 
Q 38.140625 66.40625 31.78125 66.40625 
Q 25.390625 66.40625 21.84375 63.234375 
Q 18.3125 60.0625 18.3125 54.390625 
z
" id="DejaVuSans-56"/>
       </defs>
       <use xlink:href="#DejaVuSans-48"/>
       <use x="63.623047" xlink:href="#DejaVuSans-46"/>
       <use x="95.410156" xlink:href="#DejaVuSans-56"/>
      </g>
     </g>
    </g>
    <g id="ytick_9">
     <g id="line2d_18">
      <g>
       <use style="stroke:#000000;stroke-width:0.8;" x="47.72" xlink:href="#md903caad98" y="38.752762"/>
      </g>
     </g>
     <g id="text_19">
      <!-- 0.9 -->
      <g transform="translate(24.816875 42.551981)scale(0.1 -0.1)">
       <defs>
        <path d="M 10.984375 1.515625 
L 10.984375 10.5 
Q 14.703125 8.734375 18.5 7.8125 
Q 22.3125 6.890625 25.984375 6.890625 
Q 35.75 6.890625 40.890625 13.453125 
Q 46.046875 20.015625 46.78125 33.40625 
Q 43.953125 29.203125 39.59375 26.953125 
Q 35.25 24.703125 29.984375 24.703125 
Q 19.046875 24.703125 12.671875 31.3125 
Q 6.296875 37.9375 6.296875 49.421875 
Q 6.296875 60.640625 12.9375 67.421875 
Q 19.578125 74.21875 30.609375 74.21875 
Q 43.265625 74.21875 49.921875 64.515625 
Q 56.59375 54.828125 56.59375 36.375 
Q 56.59375 19.140625 48.40625 8.859375 
Q 40.234375 -1.421875 26.421875 -1.421875 
Q 22.703125 -1.421875 18.890625 -0.6875 
Q 15.09375 0.046875 10.984375 1.515625 
z
M 30.609375 32.421875 
Q 37.25 32.421875 41.125 36.953125 
Q 45.015625 41.5 45.015625 49.421875 
Q 45.015625 57.28125 41.125 61.84375 
Q 37.25 66.40625 30.609375 66.40625 
Q 23.96875 66.40625 20.09375 61.84375 
Q 16.21875 57.28125 16.21875 49.421875 
Q 16.21875 41.5 20.09375 36.953125 
Q 23.96875 32.421875 30.609375 32.421875 
z
" id="DejaVuSans-57"/>
       </defs>
       <use xlink:href="#DejaVuSans-48"/>
       <use x="63.623047" xlink:href="#DejaVuSans-46"/>
       <use x="95.410156" xlink:href="#DejaVuSans-57"/>
      </g>
     </g>
    </g>
    <g id="text_20">
     <!-- Runtime (s) -->
     <g transform="translate(18.737188 194.238125)rotate(-90)scale(0.1 -0.1)">
      <defs>
       <path d="M 44.390625 34.1875 
Q 47.5625 33.109375 50.5625 29.59375 
Q 53.5625 26.078125 56.59375 19.921875 
L 66.609375 0 
L 56 0 
L 46.6875 18.703125 
Q 43.0625 26.03125 39.671875 28.421875 
Q 36.28125 30.8125 30.421875 30.8125 
L 19.671875 30.8125 
L 19.671875 0 
L 9.8125 0 
L 9.8125 72.90625 
L 32.078125 72.90625 
Q 44.578125 72.90625 50.734375 67.671875 
Q 56.890625 62.453125 56.890625 51.90625 
Q 56.890625 45.015625 53.6875 40.46875 
Q 50.484375 35.9375 44.390625 34.1875 
z
M 19.671875 64.796875 
L 19.671875 38.921875 
L 32.078125 38.921875 
Q 39.203125 38.921875 42.84375 42.21875 
Q 46.484375 45.515625 46.484375 51.90625 
Q 46.484375 58.296875 42.84375 61.546875 
Q 39.203125 64.796875 32.078125 64.796875 
z
" id="DejaVuSans-82"/>
       <path d="M 8.5 21.578125 
L 8.5 54.6875 
L 17.484375 54.6875 
L 17.484375 21.921875 
Q 17.484375 14.15625 20.5 10.265625 
Q 23.53125 6.390625 29.59375 6.390625 
Q 36.859375 6.390625 41.078125 11.03125 
Q 45.3125 15.671875 45.3125 23.6875 
L 45.3125 54.6875 
L 54.296875 54.6875 
L 54.296875 0 
L 45.3125 0 
L 45.3125 8.40625 
Q 42.046875 3.421875 37.71875 1 
Q 33.40625 -1.421875 27.6875 -1.421875 
Q 18.265625 -1.421875 13.375 4.4375 
Q 8.5 10.296875 8.5 21.578125 
z
M 31.109375 56 
z
" id="DejaVuSans-117"/>
       <path d="M 52 44.1875 
Q 55.375 50.25 60.0625 53.125 
Q 64.75 56 71.09375 56 
Q 79.640625 56 84.28125 50.015625 
Q 88.921875 44.046875 88.921875 33.015625 
L 88.921875 0 
L 79.890625 0 
L 79.890625 32.71875 
Q 79.890625 40.578125 77.09375 44.375 
Q 74.3125 48.1875 68.609375 48.1875 
Q 61.625 48.1875 57.5625 43.546875 
Q 53.515625 38.921875 53.515625 30.90625 
L 53.515625 0 
L 44.484375 0 
L 44.484375 32.71875 
Q 44.484375 40.625 41.703125 44.40625 
Q 38.921875 48.1875 33.109375 48.1875 
Q 26.21875 48.1875 22.15625 43.53125 
Q 18.109375 38.875 18.109375 30.90625 
L 18.109375 0 
L 9.078125 0 
L 9.078125 54.6875 
L 18.109375 54.6875 
L 18.109375 46.1875 
Q 21.1875 51.21875 25.484375 53.609375 
Q 29.78125 56 35.6875 56 
Q 41.65625 56 45.828125 52.96875 
Q 50 49.953125 52 44.1875 
z
" id="DejaVuSans-109"/>
       <path id="DejaVuSans-32"/>
       <path d="M 31 75.875 
Q 24.46875 64.65625 21.28125 53.65625 
Q 18.109375 42.671875 18.109375 31.390625 
Q 18.109375 20.125 21.3125 9.0625 
Q 24.515625 -2 31 -13.1875 
L 23.1875 -13.1875 
Q 15.875 -1.703125 12.234375 9.375 
Q 8.59375 20.453125 8.59375 31.390625 
Q 8.59375 42.28125 12.203125 53.3125 
Q 15.828125 64.359375 23.1875 75.875 
z
" id="DejaVuSans-40"/>
       <path d="M 44.28125 53.078125 
L 44.28125 44.578125 
Q 40.484375 46.53125 36.375 47.5 
Q 32.28125 48.484375 27.875 48.484375 
Q 21.1875 48.484375 17.84375 46.4375 
Q 14.5 44.390625 14.5 40.28125 
Q 14.5 37.15625 16.890625 35.375 
Q 19.28125 33.59375 26.515625 31.984375 
L 29.59375 31.296875 
Q 39.15625 29.25 43.1875 25.515625 
Q 47.21875 21.78125 47.21875 15.09375 
Q 47.21875 7.46875 41.1875 3.015625 
Q 35.15625 -1.421875 24.609375 -1.421875 
Q 20.21875 -1.421875 15.453125 -0.5625 
Q 10.6875 0.296875 5.421875 2 
L 5.421875 11.28125 
Q 10.40625 8.6875 15.234375 7.390625 
Q 20.0625 6.109375 24.8125 6.109375 
Q 31.15625 6.109375 34.5625 8.28125 
Q 37.984375 10.453125 37.984375 14.40625 
Q 37.984375 18.0625 35.515625 20.015625 
Q 33.0625 21.96875 24.703125 23.78125 
L 21.578125 24.515625 
Q 13.234375 26.265625 9.515625 29.90625 
Q 5.8125 33.546875 5.8125 39.890625 
Q 5.8125 47.609375 11.28125 51.796875 
Q 16.75 56 26.8125 56 
Q 31.78125 56 36.171875 55.265625 
Q 40.578125 54.546875 44.28125 53.078125 
z
" id="DejaVuSans-115"/>
       <path d="M 8.015625 75.875 
L 15.828125 75.875 
Q 23.140625 64.359375 26.78125 53.3125 
Q 30.421875 42.28125 30.421875 31.390625 
Q 30.421875 20.453125 26.78125 9.375 
Q 23.140625 -1.703125 15.828125 -13.1875 
L 8.015625 -13.1875 
Q 14.5 -2 17.703125 9.0625 
Q 20.90625 20.125 20.90625 31.390625 
Q 20.90625 42.671875 17.703125 53.65625 
Q 14.5 64.65625 8.015625 75.875 
z
" id="DejaVuSans-41"/>
      </defs>
      <use xlink:href="#DejaVuSans-82"/>
      <use x="64.982422" xlink:href="#DejaVuSans-117"/>
      <use x="128.361328" xlink:href="#DejaVuSans-110"/>
      <use x="191.740234" xlink:href="#DejaVuSans-116"/>
      <use x="230.949219" xlink:href="#DejaVuSans-105"/>
      <use x="258.732422" xlink:href="#DejaVuSans-109"/>
      <use x="356.144531" xlink:href="#DejaVuSans-101"/>
      <use x="417.667969" xlink:href="#DejaVuSans-32"/>
      <use x="449.455078" xlink:href="#DejaVuSans-40"/>
      <use x="488.46875" xlink:href="#DejaVuSans-115"/>
      <use x="540.568359" xlink:href="#DejaVuSans-41"/>
     </g>
    </g>
   </g>
   <g id="line2d_19">
    <path clip-path="url(#p0bb0152e64)" d="M 66.005455 272.187991 
L 75.382611 273.534115 
L 84.759767 273.639489 
L 94.136923 272.3826 
L 103.514079 272.456013 
L 112.891235 273.892322 
L 122.268392 275.236232 
L 131.645548 269.71345 
L 141.022704 274.174585 
L 150.39986 267.887607 
L 159.777016 274.654304 
L 169.154172 272.444621 
L 178.531329 273.156922 
L 187.908485 274.126486 
L 197.285641 270.751998 
L 206.662797 271.642136 
L 216.039953 275.189399 
L 225.41711 269.439732 
L 234.794266 274.041997 
L 244.171422 272.648723 
L 253.548578 273.224956 
L 262.925734 273.7398 
L 272.30289 269.278665 
L 281.680047 273.392668 
L 291.057203 274.862203 
L 300.434359 269.748258 
L 309.811515 273.696764 
L 319.188671 274.087881 
L 328.565828 270.351704 
L 337.942984 273.133506 
L 347.32014 271.644668 
L 356.697296 272.218052 
L 366.074452 273.986621 
L 375.451608 272.608219 
L 384.828765 271.993382 
L 394.205921 275.052382 
L 403.583077 268.401817 
L 412.960233 273.926814 
L 422.337389 274.376472 
L 431.714545 271.809848 
" style="fill:none;stroke:#1f77b4;stroke-linecap:square;stroke-width:1.5;"/>
   </g>
   <g id="line2d_20">
    <path clip-path="url(#p0bb0152e64)" d="M 66.005455 265.937403 
L 75.382611 267.15632 
L 84.759767 269.404607 
L 94.136923 269.605229 
L 103.514079 268.501495 
L 112.891235 269.259046 
L 122.268392 269.07488 
L 131.645548 269.890022 
L 141.022704 268.857487 
L 150.39986 268.448334 
L 159.777016 267.759449 
L 169.154172 268.592313 
L 178.531329 268.524279 
L 187.908485 268.195184 
L 197.285641 267.591105 
L 206.662797 268.269863 
L 216.039953 267.474023 
L 225.41711 267.793625 
L 234.794266 267.920516 
L 244.171422 267.882227 
L 253.548578 268.335049 
L 262.925734 268.599591 
L 272.30289 268.166071 
L 281.680047 256.234167 
L 291.057203 268.572377 
L 300.434359 268.745468 
L 309.811515 268.27809 
L 319.188671 267.649013 
L 328.565828 268.201196 
L 337.942984 268.480294 
L 347.32014 268.290115 
L 356.697296 267.724958 
L 366.074452 267.508515 
L 375.451608 268.680282 
L 384.828765 267.362637 
L 394.205921 268.056268 
L 403.583077 267.746159 
L 412.960233 267.867671 
L 422.337389 268.706863 
L 431.714545 268.303405 
" style="fill:none;stroke:#ff7f0e;stroke-linecap:square;stroke-width:1.5;"/>
   </g>
   <g id="line2d_21">
    <path clip-path="url(#p0bb0152e64)" d="M 66.005455 209.865331 
L 75.382611 218.158838 
L 84.759767 219.244535 
L 94.136923 219.728684 
L 103.514079 218.328449 
L 112.891235 218.492996 
L 122.268392 220.665655 
L 131.645548 215.152999 
L 141.022704 219.347061 
L 150.39986 219.029357 
L 159.777016 218.627482 
L 169.154172 219.794503 
L 178.531329 214.246723 
L 187.908485 219.585338 
L 197.285641 220.017591 
L 206.662797 219.548948 
L 216.039953 220.178658 
L 225.41711 219.276495 
L 234.794266 219.456864 
L 244.171422 219.487559 
L 253.548578 219.780896 
L 262.925734 218.736969 
L 272.30289 220.275804 
L 281.680047 217.619629 
L 291.057203 219.010371 
L 300.434359 215.970041 
L 309.811515 219.052774 
L 319.188671 218.897403 
L 328.565828 220.119484 
L 337.942984 218.572738 
L 347.32014 217.281357 
L 356.697296 219.16859 
L 366.074452 219.804945 
L 375.451608 218.383825 
L 384.828765 218.14713 
L 394.205921 218.87367 
L 403.583077 219.004675 
L 412.960233 215.411845 
L 422.337389 218.384458 
L 431.714545 219.885953 
" style="fill:none;stroke:#2ca02c;stroke-linecap:square;stroke-width:1.5;"/>
   </g>
   <g id="line2d_22">
    <path clip-path="url(#p0bb0152e64)" d="M 66.005455 223.089882 
L 75.382611 222.475677 
L 84.759767 221.211193 
L 94.136923 222.387391 
L 103.514079 222.534218 
L 112.891235 221.479216 
L 122.268392 221.360552 
L 131.645548 222.001337 
L 141.022704 221.342515 
L 150.39986 221.341882 
L 159.777016 221.927924 
L 169.154172 222.390872 
L 178.531329 221.229863 
L 187.908485 221.581425 
L 197.285641 222.338976 
L 206.662797 222.238665 
L 216.039953 221.499468 
L 225.41711 222.205439 
L 234.794266 222.504789 
L 244.171422 221.535542 
L 253.548578 220.804888 
L 262.925734 222.053866 
L 272.30289 221.509594 
L 281.680047 221.481747 
L 291.057203 222.552571 
L 300.434359 221.189992 
L 309.811515 221.247267 
L 319.188671 222.859832 
L 328.565828 221.790274 
L 337.942984 220.356179 
L 347.32014 221.571932 
L 356.697296 218.486034 
L 366.074452 220.681793 
L 375.451608 222.419351 
L 384.828765 222.514599 
L 394.205921 221.314035 
L 403.583077 222.390555 
L 412.960233 222.408276 
L 422.337389 221.199169 
L 431.714545 222.063992 
" style="fill:none;stroke:#d62728;stroke-linecap:square;stroke-width:1.5;"/>
   </g>
   <g id="line2d_23">
    <path clip-path="url(#p0bb0152e64)" d="M 66.005455 40.616895 
L 75.382611 41.511464 
L 84.759767 42.162375 
L 94.136923 41.487414 
L 103.514079 41.377611 
L 112.891235 41.861127 
L 122.268392 41.891505 
L 131.645548 40.378934 
L 141.022704 42.370591 
L 150.39986 42.001309 
L 159.777016 41.110854 
L 169.154172 40.219766 
L 178.531329 40.736508 
L 187.908485 41.34217 
L 197.285641 41.149776 
L 206.662797 41.144396 
L 216.039953 41.096614 
L 225.41711 41.544057 
L 234.794266 41.06054 
L 244.171422 40.755495 
L 253.548578 40.615313 
L 262.925734 41.453556 
L 272.30289 41.434569 
L 281.680047 41.149776 
L 291.057203 40.818466 
L 300.434359 41.752905 
L 309.811515 40.391908 
L 319.188671 39.46 
L 328.565828 40.338114 
L 337.942984 40.505826 
L 347.32014 41.166863 
L 356.697296 41.275401 
L 366.074452 41.034592 
L 375.451608 40.697587 
L 384.828765 41.165281 
L 394.205921 40.478612 
L 403.583077 39.718529 
L 412.960233 40.528293 
L 422.337389 41.501021 
L 431.714545 40.756128 
" style="fill:none;stroke:#9467bd;stroke-linecap:square;stroke-width:1.5;"/>
   </g>
   <g id="line2d_24">
    <path clip-path="url(#p0bb0152e64)" d="M 66.005455 217.562354 
L 75.382611 215.244766 
L 84.759767 217.633869 
L 94.136923 216.317489 
L 103.514079 219.040749 
L 112.891235 219.086633 
L 122.268392 219.731216 
L 131.645548 218.849621 
L 141.022704 217.346543 
L 150.39986 219.238839 
L 159.777016 218.453441 
L 169.154172 219.959367 
L 178.531329 220.536232 
L 187.908485 218.818927 
L 197.285641 217.947142 
L 206.662797 217.985747 
L 216.039953 217.718041 
L 225.41711 218.180039 
L 234.794266 217.252878 
L 244.171422 216.989918 
L 253.548578 215.641895 
L 262.925734 218.109474 
L 272.30289 218.412304 
L 281.680047 218.387622 
L 291.057203 219.889118 
L 300.434359 218.506603 
L 309.811515 219.79925 
L 319.188671 217.390212 
L 328.565828 218.212632 
L 337.942984 218.484452 
L 347.32014 218.184786 
L 356.697296 219.851145 
L 366.074452 217.517103 
L 375.451608 218.23858 
L 384.828765 217.859805 
L 394.205921 219.900193 
L 403.583077 218.382559 
L 412.960233 216.642154 
L 422.337389 219.407184 
L 431.714545 216.779488 
" style="fill:none;stroke:#8c564b;stroke-linecap:square;stroke-width:1.5;"/>
   </g>
   <g id="line2d_25">
    <path clip-path="url(#p0bb0152e64)" d="M 66.005455 211.320626 
L 75.382611 211.381382 
L 84.759767 213.075588 
L 94.136923 209.656166 
L 103.514079 211.057983 
L 112.891235 209.638445 
L 122.268392 210.595985 
L 131.645548 210.023549 
L 141.022704 210.461182 
L 150.39986 211.632001 
L 159.777016 211.680099 
L 169.154172 212.698395 
L 178.531329 209.402699 
L 187.908485 211.974069 
L 197.285641 211.426949 
L 206.662797 211.90825 
L 216.039953 211.067476 
L 225.41711 208.991014 
L 234.794266 208.966332 
L 244.171422 211.312399 
L 253.548578 210.897866 
L 262.925734 206.124408 
L 272.30289 209.983678 
L 281.680047 211.201646 
L 291.057203 207.89709 
L 300.434359 209.36884 
L 309.811515 213.719854 
L 319.188671 208.475221 
L 328.565828 210.998809 
L 337.942984 212.477205 
L 347.32014 208.820771 
L 356.697296 209.850775 
L 366.074452 211.965209 
L 375.451608 205.613994 
L 384.828765 211.434227 
L 394.205921 205.637094 
L 403.583077 210.713699 
L 412.960233 211.340245 
L 422.337389 211.226328 
L 431.714545 211.211139 
" style="fill:none;stroke:#e377c2;stroke-linecap:square;stroke-width:1.5;"/>
   </g>
   <g id="line2d_26">
    <path clip-path="url(#p0bb0152e64)" d="M 66.005455 148.244529 
L 75.382611 140.910459 
L 84.759767 137.223331 
L 94.136923 140.210183 
L 103.514079 142.296139 
L 112.891235 139.879823 
L 122.268392 139.619711 
L 131.645548 141.182596 
L 141.022704 139.560538 
L 150.39986 138.188149 
L 159.777016 141.277843 
L 169.154172 142.62555 
L 178.531329 139.064047 
L 187.908485 141.992042 
L 197.285641 140.401628 
L 206.662797 137.889432 
L 216.039953 140.617122 
L 225.41711 141.372142 
L 234.794266 138.930194 
L 244.171422 138.832099 
L 253.548578 139.336816 
L 262.925734 140.853501 
L 272.30289 139.368776 
L 281.680047 141.13513 
L 291.057203 139.330804 
L 300.434359 138.097647 
L 309.811515 138.720713 
L 319.188671 140.838628 
L 328.565828 138.559963 
L 337.942984 137.157512 
L 347.32014 139.6811 
L 356.697296 139.616231 
L 366.074452 135.450649 
L 375.451608 138.953294 
L 384.828765 141.867683 
L 394.205921 137.61603 
L 403.583077 137.990375 
L 412.960233 139.853242 
L 422.337389 138.02107 
L 431.714545 140.037092 
" style="fill:none;stroke:#7f7f7f;stroke-linecap:square;stroke-width:1.5;"/>
   </g>
   <g id="line2d_27">
    <path clip-path="url(#p0bb0152e64)" d="M 66.005455 279.816347 
L 75.382611 290.493894 
L 84.759767 288.365852 
L 94.136923 290.708438 
L 103.514079 290.829634 
L 112.891235 289.810705 
L 122.268392 288.329145 
L 131.645548 287.989924 
L 141.022704 289.996138 
L 150.39986 290.99608 
L 159.777016 290.055311 
L 169.154172 290.357509 
L 178.531329 290.500855 
L 187.908485 290.262578 
L 197.285641 290.557181 
L 206.662797 290.56794 
L 216.039953 290.293905 
L 225.41711 289.317379 
L 234.794266 289.245864 
L 244.171422 289.350289 
L 253.548578 290.662238 
L 262.925734 290.468579 
L 272.30289 289.816718 
L 281.680047 290.837228 
L 291.057203 289.942976 
L 300.434359 289.405665 
L 309.811515 290.887542 
L 319.188671 289.955634 
L 328.565828 290.953677 
L 337.942984 290.874568 
L 347.32014 289.814186 
L 356.697296 290.468579 
L 366.074452 289.55091 
L 375.451608 290.583129 
L 384.828765 290.942285 
L 394.205921 289.158528 
L 403.583077 291.016332 
L 412.960233 290.303715 
L 422.337389 288.637672 
L 431.714545 291.06 
" style="fill:none;stroke:#bcbd22;stroke-linecap:square;stroke-width:1.5;"/>
   </g>
   <g id="patch_3">
    <path d="M 47.72 303.64 
L 47.72 26.88 
" style="fill:none;stroke:#000000;stroke-linecap:square;stroke-linejoin:miter;stroke-width:0.8;"/>
   </g>
   <g id="patch_4">
    <path d="M 450 303.64 
L 450 26.88 
" style="fill:none;stroke:#000000;stroke-linecap:square;stroke-linejoin:miter;stroke-width:0.8;"/>
   </g>
   <g id="patch_5">
    <path d="M 47.72 303.64 
L 450 303.64 
" style="fill:none;stroke:#000000;stroke-linecap:square;stroke-linejoin:miter;stroke-width:0.8;"/>
   </g>
   <g id="patch_6">
    <path d="M 47.72 26.88 
L 450 26.88 
" style="fill:none;stroke:#000000;stroke-linecap:square;stroke-linejoin:miter;stroke-width:0.8;"/>
   </g>
   <g id="text_21">
    <!-- Runtime across repetition number (4096 vector size, 4 nodes) -->
    <g transform="translate(62.420312 20.88)scale(0.12 -0.12)">
     <defs>
      <path d="M 48.78125 52.59375 
L 48.78125 44.1875 
Q 44.96875 46.296875 41.140625 47.34375 
Q 37.3125 48.390625 33.40625 48.390625 
Q 24.65625 48.390625 19.8125 42.84375 
Q 14.984375 37.3125 14.984375 27.296875 
Q 14.984375 17.28125 19.8125 11.734375 
Q 24.65625 6.203125 33.40625 6.203125 
Q 37.3125 6.203125 41.140625 7.25 
Q 44.96875 8.296875 48.78125 10.40625 
L 48.78125 2.09375 
Q 45.015625 0.34375 40.984375 -0.53125 
Q 36.96875 -1.421875 32.421875 -1.421875 
Q 20.0625 -1.421875 12.78125 6.34375 
Q 5.515625 14.109375 5.515625 27.296875 
Q 5.515625 40.671875 12.859375 48.328125 
Q 20.21875 56 33.015625 56 
Q 37.15625 56 41.109375 55.140625 
Q 45.0625 54.296875 48.78125 52.59375 
z
" id="DejaVuSans-99"/>
      <path d="M 18.109375 8.203125 
L 18.109375 -20.796875 
L 9.078125 -20.796875 
L 9.078125 54.6875 
L 18.109375 54.6875 
L 18.109375 46.390625 
Q 20.953125 51.265625 25.265625 53.625 
Q 29.59375 56 35.59375 56 
Q 45.5625 56 51.78125 48.09375 
Q 58.015625 40.1875 58.015625 27.296875 
Q 58.015625 14.40625 51.78125 6.484375 
Q 45.5625 -1.421875 35.59375 -1.421875 
Q 29.59375 -1.421875 25.265625 0.953125 
Q 20.953125 3.328125 18.109375 8.203125 
z
M 48.6875 27.296875 
Q 48.6875 37.203125 44.609375 42.84375 
Q 40.53125 48.484375 33.40625 48.484375 
Q 26.265625 48.484375 22.1875 42.84375 
Q 18.109375 37.203125 18.109375 27.296875 
Q 18.109375 17.390625 22.1875 11.75 
Q 26.265625 6.109375 33.40625 6.109375 
Q 40.53125 6.109375 44.609375 11.75 
Q 48.6875 17.390625 48.6875 27.296875 
z
" id="DejaVuSans-112"/>
      <path d="M 48.6875 27.296875 
Q 48.6875 37.203125 44.609375 42.84375 
Q 40.53125 48.484375 33.40625 48.484375 
Q 26.265625 48.484375 22.1875 42.84375 
Q 18.109375 37.203125 18.109375 27.296875 
Q 18.109375 17.390625 22.1875 11.75 
Q 26.265625 6.109375 33.40625 6.109375 
Q 40.53125 6.109375 44.609375 11.75 
Q 48.6875 17.390625 48.6875 27.296875 
z
M 18.109375 46.390625 
Q 20.953125 51.265625 25.265625 53.625 
Q 29.59375 56 35.59375 56 
Q 45.5625 56 51.78125 48.09375 
Q 58.015625 40.1875 58.015625 27.296875 
Q 58.015625 14.40625 51.78125 6.484375 
Q 45.5625 -1.421875 35.59375 -1.421875 
Q 29.59375 -1.421875 25.265625 0.953125 
Q 20.953125 3.328125 18.109375 8.203125 
L 18.109375 0 
L 9.078125 0 
L 9.078125 75.984375 
L 18.109375 75.984375 
z
" id="DejaVuSans-98"/>
      <path d="M 2.984375 54.6875 
L 12.5 54.6875 
L 29.59375 8.796875 
L 46.6875 54.6875 
L 56.203125 54.6875 
L 35.6875 0 
L 23.484375 0 
z
" id="DejaVuSans-118"/>
      <path d="M 5.515625 54.6875 
L 48.1875 54.6875 
L 48.1875 46.484375 
L 14.40625 7.171875 
L 48.1875 7.171875 
L 48.1875 0 
L 4.296875 0 
L 4.296875 8.203125 
L 38.09375 47.515625 
L 5.515625 47.515625 
z
" id="DejaVuSans-122"/>
      <path d="M 11.71875 12.40625 
L 22.015625 12.40625 
L 22.015625 4 
L 14.015625 -11.625 
L 7.71875 -11.625 
L 11.71875 4 
z
" id="DejaVuSans-44"/>
      <path d="M 45.40625 46.390625 
L 45.40625 75.984375 
L 54.390625 75.984375 
L 54.390625 0 
L 45.40625 0 
L 45.40625 8.203125 
Q 42.578125 3.328125 38.25 0.953125 
Q 33.9375 -1.421875 27.875 -1.421875 
Q 17.96875 -1.421875 11.734375 6.484375 
Q 5.515625 14.40625 5.515625 27.296875 
Q 5.515625 40.1875 11.734375 48.09375 
Q 17.96875 56 27.875 56 
Q 33.9375 56 38.25 53.625 
Q 42.578125 51.265625 45.40625 46.390625 
z
M 14.796875 27.296875 
Q 14.796875 17.390625 18.875 11.75 
Q 22.953125 6.109375 30.078125 6.109375 
Q 37.203125 6.109375 41.296875 11.75 
Q 45.40625 17.390625 45.40625 27.296875 
Q 45.40625 37.203125 41.296875 42.84375 
Q 37.203125 48.484375 30.078125 48.484375 
Q 22.953125 48.484375 18.875 42.84375 
Q 14.796875 37.203125 14.796875 27.296875 
z
" id="DejaVuSans-100"/>
     </defs>
     <use xlink:href="#DejaVuSans-82"/>
     <use x="64.982422" xlink:href="#DejaVuSans-117"/>
     <use x="128.361328" xlink:href="#DejaVuSans-110"/>
     <use x="191.740234" xlink:href="#DejaVuSans-116"/>
     <use x="230.949219" xlink:href="#DejaVuSans-105"/>
     <use x="258.732422" xlink:href="#DejaVuSans-109"/>
     <use x="356.144531" xlink:href="#DejaVuSans-101"/>
     <use x="417.667969" xlink:href="#DejaVuSans-32"/>
     <use x="449.455078" xlink:href="#DejaVuSans-97"/>
     <use x="510.734375" xlink:href="#DejaVuSans-99"/>
     <use x="565.714844" xlink:href="#DejaVuSans-114"/>
     <use x="604.578125" xlink:href="#DejaVuSans-111"/>
     <use x="665.759766" xlink:href="#DejaVuSans-115"/>
     <use x="717.859375" xlink:href="#DejaVuSans-115"/>
     <use x="769.958984" xlink:href="#DejaVuSans-32"/>
     <use x="801.746094" xlink:href="#DejaVuSans-114"/>
     <use x="840.609375" xlink:href="#DejaVuSans-101"/>
     <use x="902.132812" xlink:href="#DejaVuSans-112"/>
     <use x="965.609375" xlink:href="#DejaVuSans-101"/>
     <use x="1027.132812" xlink:href="#DejaVuSans-116"/>
     <use x="1066.341797" xlink:href="#DejaVuSans-105"/>
     <use x="1094.125" xlink:href="#DejaVuSans-116"/>
     <use x="1133.333984" xlink:href="#DejaVuSans-105"/>
     <use x="1161.117188" xlink:href="#DejaVuSans-111"/>
     <use x="1222.298828" xlink:href="#DejaVuSans-110"/>
     <use x="1285.677734" xlink:href="#DejaVuSans-32"/>
     <use x="1317.464844" xlink:href="#DejaVuSans-110"/>
     <use x="1380.84375" xlink:href="#DejaVuSans-117"/>
     <use x="1444.222656" xlink:href="#DejaVuSans-109"/>
     <use x="1541.634766" xlink:href="#DejaVuSans-98"/>
     <use x="1605.111328" xlink:href="#DejaVuSans-101"/>
     <use x="1666.634766" xlink:href="#DejaVuSans-114"/>
     <use x="1707.748047" xlink:href="#DejaVuSans-32"/>
     <use x="1739.535156" xlink:href="#DejaVuSans-40"/>
     <use x="1778.548828" xlink:href="#DejaVuSans-52"/>
     <use x="1842.171875" xlink:href="#DejaVuSans-48"/>
     <use x="1905.794922" xlink:href="#DejaVuSans-57"/>
     <use x="1969.417969" xlink:href="#DejaVuSans-54"/>
     <use x="2033.041016" xlink:href="#DejaVuSans-32"/>
     <use x="2064.828125" xlink:href="#DejaVuSans-118"/>
     <use x="2124.007812" xlink:href="#DejaVuSans-101"/>
     <use x="2185.53125" xlink:href="#DejaVuSans-99"/>
     <use x="2240.511719" xlink:href="#DejaVuSans-116"/>
     <use x="2279.720703" xlink:href="#DejaVuSans-111"/>
     <use x="2340.902344" xlink:href="#DejaVuSans-114"/>
     <use x="2382.015625" xlink:href="#DejaVuSans-32"/>
     <use x="2413.802734" xlink:href="#DejaVuSans-115"/>
     <use x="2465.902344" xlink:href="#DejaVuSans-105"/>
     <use x="2493.685547" xlink:href="#DejaVuSans-122"/>
     <use x="2546.175781" xlink:href="#DejaVuSans-101"/>
     <use x="2607.699219" xlink:href="#DejaVuSans-44"/>
     <use x="2639.486328" xlink:href="#DejaVuSans-32"/>
     <use x="2671.273438" xlink:href="#DejaVuSans-52"/>
     <use x="2734.896484" xlink:href="#DejaVuSans-32"/>
     <use x="2766.683594" xlink:href="#DejaVuSans-110"/>
     <use x="2830.0625" xlink:href="#DejaVuSans-111"/>
     <use x="2891.244141" xlink:href="#DejaVuSans-100"/>
     <use x="2954.720703" xlink:href="#DejaVuSans-101"/>
     <use x="3016.244141" xlink:href="#DejaVuSans-115"/>
     <use x="3068.34375" xlink:href="#DejaVuSans-41"/>
    </g>
   </g>
   <g id="legend_1">
    <g id="patch_7">
     <path d="M 263.146875 181.939375 
L 443 181.939375 
Q 445 181.939375 445 179.939375 
L 445 33.88 
Q 445 31.88 443 31.88 
L 263.146875 31.88 
Q 261.146875 31.88 261.146875 33.88 
L 261.146875 179.939375 
Q 261.146875 181.939375 263.146875 181.939375 
z
" style="fill:#ffffff;opacity:0.8;stroke:#cccccc;stroke-linejoin:miter;"/>
    </g>
    <g id="text_22">
     <!-- implementation -->
     <g transform="translate(313.457031 43.478437)scale(0.1 -0.1)">
      <defs>
       <path d="M 9.421875 75.984375 
L 18.40625 75.984375 
L 18.40625 0 
L 9.421875 0 
z
" id="DejaVuSans-108"/>
      </defs>
      <use xlink:href="#DejaVuSans-105"/>
      <use x="27.783203" xlink:href="#DejaVuSans-109"/>
      <use x="125.195312" xlink:href="#DejaVuSans-112"/>
      <use x="188.671875" xlink:href="#DejaVuSans-108"/>
      <use x="216.455078" xlink:href="#DejaVuSans-101"/>
      <use x="277.978516" xlink:href="#DejaVuSans-109"/>
      <use x="375.390625" xlink:href="#DejaVuSans-101"/>
      <use x="436.914062" xlink:href="#DejaVuSans-110"/>
      <use x="500.292969" xlink:href="#DejaVuSans-116"/>
      <use x="539.501953" xlink:href="#DejaVuSans-97"/>
      <use x="600.78125" xlink:href="#DejaVuSans-116"/>
      <use x="639.990234" xlink:href="#DejaVuSans-105"/>
      <use x="667.773438" xlink:href="#DejaVuSans-111"/>
      <use x="728.955078" xlink:href="#DejaVuSans-110"/>
     </g>
    </g>
    <g id="line2d_28">
     <path d="M 265.146875 54.656563 
L 285.146875 54.656563 
" style="fill:none;stroke:#1f77b4;stroke-linecap:square;stroke-width:1.5;"/>
    </g>
    <g id="line2d_29"/>
    <g id="text_23">
     <!-- allgather -->
     <g transform="translate(293.146875 58.156563)scale(0.1 -0.1)">
      <defs>
       <path d="M 45.40625 27.984375 
Q 45.40625 37.75 41.375 43.109375 
Q 37.359375 48.484375 30.078125 48.484375 
Q 22.859375 48.484375 18.828125 43.109375 
Q 14.796875 37.75 14.796875 27.984375 
Q 14.796875 18.265625 18.828125 12.890625 
Q 22.859375 7.515625 30.078125 7.515625 
Q 37.359375 7.515625 41.375 12.890625 
Q 45.40625 18.265625 45.40625 27.984375 
z
M 54.390625 6.78125 
Q 54.390625 -7.171875 48.1875 -13.984375 
Q 42 -20.796875 29.203125 -20.796875 
Q 24.46875 -20.796875 20.265625 -20.09375 
Q 16.0625 -19.390625 12.109375 -17.921875 
L 12.109375 -9.1875 
Q 16.0625 -11.328125 19.921875 -12.34375 
Q 23.78125 -13.375 27.78125 -13.375 
Q 36.625 -13.375 41.015625 -8.765625 
Q 45.40625 -4.15625 45.40625 5.171875 
L 45.40625 9.625 
Q 42.625 4.78125 38.28125 2.390625 
Q 33.9375 0 27.875 0 
Q 17.828125 0 11.671875 7.65625 
Q 5.515625 15.328125 5.515625 27.984375 
Q 5.515625 40.671875 11.671875 48.328125 
Q 17.828125 56 27.875 56 
Q 33.9375 56 38.28125 53.609375 
Q 42.625 51.21875 45.40625 46.390625 
L 45.40625 54.6875 
L 54.390625 54.6875 
z
" id="DejaVuSans-103"/>
       <path d="M 54.890625 33.015625 
L 54.890625 0 
L 45.90625 0 
L 45.90625 32.71875 
Q 45.90625 40.484375 42.875 44.328125 
Q 39.84375 48.1875 33.796875 48.1875 
Q 26.515625 48.1875 22.3125 43.546875 
Q 18.109375 38.921875 18.109375 30.90625 
L 18.109375 0 
L 9.078125 0 
L 9.078125 75.984375 
L 18.109375 75.984375 
L 18.109375 46.1875 
Q 21.34375 51.125 25.703125 53.5625 
Q 30.078125 56 35.796875 56 
Q 45.21875 56 50.046875 50.171875 
Q 54.890625 44.34375 54.890625 33.015625 
z
" id="DejaVuSans-104"/>
      </defs>
      <use xlink:href="#DejaVuSans-97"/>
      <use x="61.279297" xlink:href="#DejaVuSans-108"/>
      <use x="89.0625" xlink:href="#DejaVuSans-108"/>
      <use x="116.845703" xlink:href="#DejaVuSans-103"/>
      <use x="180.322266" xlink:href="#DejaVuSans-97"/>
      <use x="241.601562" xlink:href="#DejaVuSans-116"/>
      <use x="280.810547" xlink:href="#DejaVuSans-104"/>
      <use x="344.189453" xlink:href="#DejaVuSans-101"/>
      <use x="405.712891" xlink:href="#DejaVuSans-114"/>
     </g>
    </g>
    <g id="line2d_30">
     <path d="M 265.146875 69.334688 
L 285.146875 69.334688 
" style="fill:none;stroke:#ff7f0e;stroke-linecap:square;stroke-width:1.5;"/>
    </g>
    <g id="line2d_31"/>
    <g id="text_24">
     <!-- allgather-async -->
     <g transform="translate(293.146875 72.834688)scale(0.1 -0.1)">
      <defs>
       <path d="M 4.890625 31.390625 
L 31.203125 31.390625 
L 31.203125 23.390625 
L 4.890625 23.390625 
z
" id="DejaVuSans-45"/>
       <path d="M 32.171875 -5.078125 
Q 28.375 -14.84375 24.75 -17.8125 
Q 21.140625 -20.796875 15.09375 -20.796875 
L 7.90625 -20.796875 
L 7.90625 -13.28125 
L 13.1875 -13.28125 
Q 16.890625 -13.28125 18.9375 -11.515625 
Q 21 -9.765625 23.484375 -3.21875 
L 25.09375 0.875 
L 2.984375 54.6875 
L 12.5 54.6875 
L 29.59375 11.921875 
L 46.6875 54.6875 
L 56.203125 54.6875 
z
" id="DejaVuSans-121"/>
      </defs>
      <use xlink:href="#DejaVuSans-97"/>
      <use x="61.279297" xlink:href="#DejaVuSans-108"/>
      <use x="89.0625" xlink:href="#DejaVuSans-108"/>
      <use x="116.845703" xlink:href="#DejaVuSans-103"/>
      <use x="180.322266" xlink:href="#DejaVuSans-97"/>
      <use x="241.601562" xlink:href="#DejaVuSans-116"/>
      <use x="280.810547" xlink:href="#DejaVuSans-104"/>
      <use x="344.189453" xlink:href="#DejaVuSans-101"/>
      <use x="405.712891" xlink:href="#DejaVuSans-114"/>
      <use x="440.451172" xlink:href="#DejaVuSans-45"/>
      <use x="476.535156" xlink:href="#DejaVuSans-97"/>
      <use x="537.814453" xlink:href="#DejaVuSans-115"/>
      <use x="589.914062" xlink:href="#DejaVuSans-121"/>
      <use x="649.09375" xlink:href="#DejaVuSans-110"/>
      <use x="712.472656" xlink:href="#DejaVuSans-99"/>
     </g>
    </g>
    <g id="line2d_32">
     <path d="M 265.146875 84.012812 
L 285.146875 84.012812 
" style="fill:none;stroke:#2ca02c;stroke-linecap:square;stroke-width:1.5;"/>
    </g>
    <g id="line2d_33"/>
    <g id="text_25">
     <!-- allreduce -->
     <g transform="translate(293.146875 87.512812)scale(0.1 -0.1)">
      <use xlink:href="#DejaVuSans-97"/>
      <use x="61.279297" xlink:href="#DejaVuSans-108"/>
      <use x="89.0625" xlink:href="#DejaVuSans-108"/>
      <use x="116.845703" xlink:href="#DejaVuSans-114"/>
      <use x="155.708984" xlink:href="#DejaVuSans-101"/>
      <use x="217.232422" xlink:href="#DejaVuSans-100"/>
      <use x="280.708984" xlink:href="#DejaVuSans-117"/>
      <use x="344.087891" xlink:href="#DejaVuSans-99"/>
      <use x="399.068359" xlink:href="#DejaVuSans-101"/>
     </g>
    </g>
    <g id="line2d_34">
     <path d="M 265.146875 98.690938 
L 285.146875 98.690938 
" style="fill:none;stroke:#d62728;stroke-linecap:square;stroke-width:1.5;"/>
    </g>
    <g id="line2d_35"/>
    <g id="text_26">
     <!-- allreduce-butterfly -->
     <g transform="translate(293.146875 102.190938)scale(0.1 -0.1)">
      <defs>
       <path d="M 37.109375 75.984375 
L 37.109375 68.5 
L 28.515625 68.5 
Q 23.6875 68.5 21.796875 66.546875 
Q 19.921875 64.59375 19.921875 59.515625 
L 19.921875 54.6875 
L 34.71875 54.6875 
L 34.71875 47.703125 
L 19.921875 47.703125 
L 19.921875 0 
L 10.890625 0 
L 10.890625 47.703125 
L 2.296875 47.703125 
L 2.296875 54.6875 
L 10.890625 54.6875 
L 10.890625 58.5 
Q 10.890625 67.625 15.140625 71.796875 
Q 19.390625 75.984375 28.609375 75.984375 
z
" id="DejaVuSans-102"/>
      </defs>
      <use xlink:href="#DejaVuSans-97"/>
      <use x="61.279297" xlink:href="#DejaVuSans-108"/>
      <use x="89.0625" xlink:href="#DejaVuSans-108"/>
      <use x="116.845703" xlink:href="#DejaVuSans-114"/>
      <use x="155.708984" xlink:href="#DejaVuSans-101"/>
      <use x="217.232422" xlink:href="#DejaVuSans-100"/>
      <use x="280.708984" xlink:href="#DejaVuSans-117"/>
      <use x="344.087891" xlink:href="#DejaVuSans-99"/>
      <use x="399.068359" xlink:href="#DejaVuSans-101"/>
      <use x="460.591797" xlink:href="#DejaVuSans-45"/>
      <use x="496.675781" xlink:href="#DejaVuSans-98"/>
      <use x="560.152344" xlink:href="#DejaVuSans-117"/>
      <use x="623.53125" xlink:href="#DejaVuSans-116"/>
      <use x="662.740234" xlink:href="#DejaVuSans-116"/>
      <use x="701.949219" xlink:href="#DejaVuSans-101"/>
      <use x="763.472656" xlink:href="#DejaVuSans-114"/>
      <use x="804.585938" xlink:href="#DejaVuSans-102"/>
      <use x="839.791016" xlink:href="#DejaVuSans-108"/>
      <use x="867.574219" xlink:href="#DejaVuSans-121"/>
     </g>
    </g>
    <g id="line2d_36">
     <path d="M 265.146875 113.369063 
L 285.146875 113.369063 
" style="fill:none;stroke:#9467bd;stroke-linecap:square;stroke-width:1.5;"/>
    </g>
    <g id="line2d_37"/>
    <g id="text_27">
     <!-- allreduce-native-basic_linear -->
     <g transform="translate(293.146875 116.869063)scale(0.1 -0.1)">
      <defs>
       <path d="M 50.984375 -16.609375 
L 50.984375 -23.578125 
L -0.984375 -23.578125 
L -0.984375 -16.609375 
z
" id="DejaVuSans-95"/>
      </defs>
      <use xlink:href="#DejaVuSans-97"/>
      <use x="61.279297" xlink:href="#DejaVuSans-108"/>
      <use x="89.0625" xlink:href="#DejaVuSans-108"/>
      <use x="116.845703" xlink:href="#DejaVuSans-114"/>
      <use x="155.708984" xlink:href="#DejaVuSans-101"/>
      <use x="217.232422" xlink:href="#DejaVuSans-100"/>
      <use x="280.708984" xlink:href="#DejaVuSans-117"/>
      <use x="344.087891" xlink:href="#DejaVuSans-99"/>
      <use x="399.068359" xlink:href="#DejaVuSans-101"/>
      <use x="460.591797" xlink:href="#DejaVuSans-45"/>
      <use x="496.675781" xlink:href="#DejaVuSans-110"/>
      <use x="560.054688" xlink:href="#DejaVuSans-97"/>
      <use x="621.333984" xlink:href="#DejaVuSans-116"/>
      <use x="660.542969" xlink:href="#DejaVuSans-105"/>
      <use x="688.326172" xlink:href="#DejaVuSans-118"/>
      <use x="747.505859" xlink:href="#DejaVuSans-101"/>
      <use x="809.029297" xlink:href="#DejaVuSans-45"/>
      <use x="845.113281" xlink:href="#DejaVuSans-98"/>
      <use x="908.589844" xlink:href="#DejaVuSans-97"/>
      <use x="969.869141" xlink:href="#DejaVuSans-115"/>
      <use x="1021.96875" xlink:href="#DejaVuSans-105"/>
      <use x="1049.751953" xlink:href="#DejaVuSans-99"/>
      <use x="1104.732422" xlink:href="#DejaVuSans-95"/>
      <use x="1154.732422" xlink:href="#DejaVuSans-108"/>
      <use x="1182.515625" xlink:href="#DejaVuSans-105"/>
      <use x="1210.298828" xlink:href="#DejaVuSans-110"/>
      <use x="1273.677734" xlink:href="#DejaVuSans-101"/>
      <use x="1335.201172" xlink:href="#DejaVuSans-97"/>
      <use x="1396.480469" xlink:href="#DejaVuSans-114"/>
     </g>
    </g>
    <g id="line2d_38">
     <path d="M 265.146875 128.325312 
L 285.146875 128.325312 
" style="fill:none;stroke:#8c564b;stroke-linecap:square;stroke-width:1.5;"/>
    </g>
    <g id="line2d_39"/>
    <g id="text_28">
     <!-- allreduce-native-rabenseifner -->
     <g transform="translate(293.146875 131.825312)scale(0.1 -0.1)">
      <use xlink:href="#DejaVuSans-97"/>
      <use x="61.279297" xlink:href="#DejaVuSans-108"/>
      <use x="89.0625" xlink:href="#DejaVuSans-108"/>
      <use x="116.845703" xlink:href="#DejaVuSans-114"/>
      <use x="155.708984" xlink:href="#DejaVuSans-101"/>
      <use x="217.232422" xlink:href="#DejaVuSans-100"/>
      <use x="280.708984" xlink:href="#DejaVuSans-117"/>
      <use x="344.087891" xlink:href="#DejaVuSans-99"/>
      <use x="399.068359" xlink:href="#DejaVuSans-101"/>
      <use x="460.591797" xlink:href="#DejaVuSans-45"/>
      <use x="496.675781" xlink:href="#DejaVuSans-110"/>
      <use x="560.054688" xlink:href="#DejaVuSans-97"/>
      <use x="621.333984" xlink:href="#DejaVuSans-116"/>
      <use x="660.542969" xlink:href="#DejaVuSans-105"/>
      <use x="688.326172" xlink:href="#DejaVuSans-118"/>
      <use x="747.505859" xlink:href="#DejaVuSans-101"/>
      <use x="809.029297" xlink:href="#DejaVuSans-45"/>
      <use x="845.113281" xlink:href="#DejaVuSans-114"/>
      <use x="886.226562" xlink:href="#DejaVuSans-97"/>
      <use x="947.505859" xlink:href="#DejaVuSans-98"/>
      <use x="1010.982422" xlink:href="#DejaVuSans-101"/>
      <use x="1072.505859" xlink:href="#DejaVuSans-110"/>
      <use x="1135.884766" xlink:href="#DejaVuSans-115"/>
      <use x="1187.984375" xlink:href="#DejaVuSans-101"/>
      <use x="1249.507812" xlink:href="#DejaVuSans-105"/>
      <use x="1277.291016" xlink:href="#DejaVuSans-102"/>
      <use x="1312.496094" xlink:href="#DejaVuSans-110"/>
      <use x="1375.875" xlink:href="#DejaVuSans-101"/>
      <use x="1437.398438" xlink:href="#DejaVuSans-114"/>
     </g>
    </g>
    <g id="line2d_40">
     <path d="M 265.146875 143.003438 
L 285.146875 143.003438 
" style="fill:none;stroke:#e377c2;stroke-linecap:square;stroke-width:1.5;"/>
    </g>
    <g id="line2d_41"/>
    <g id="text_29">
     <!-- allreduce-native-ring -->
     <g transform="translate(293.146875 146.503438)scale(0.1 -0.1)">
      <use xlink:href="#DejaVuSans-97"/>
      <use x="61.279297" xlink:href="#DejaVuSans-108"/>
      <use x="89.0625" xlink:href="#DejaVuSans-108"/>
      <use x="116.845703" xlink:href="#DejaVuSans-114"/>
      <use x="155.708984" xlink:href="#DejaVuSans-101"/>
      <use x="217.232422" xlink:href="#DejaVuSans-100"/>
      <use x="280.708984" xlink:href="#DejaVuSans-117"/>
      <use x="344.087891" xlink:href="#DejaVuSans-99"/>
      <use x="399.068359" xlink:href="#DejaVuSans-101"/>
      <use x="460.591797" xlink:href="#DejaVuSans-45"/>
      <use x="496.675781" xlink:href="#DejaVuSans-110"/>
      <use x="560.054688" xlink:href="#DejaVuSans-97"/>
      <use x="621.333984" xlink:href="#DejaVuSans-116"/>
      <use x="660.542969" xlink:href="#DejaVuSans-105"/>
      <use x="688.326172" xlink:href="#DejaVuSans-118"/>
      <use x="747.505859" xlink:href="#DejaVuSans-101"/>
      <use x="809.029297" xlink:href="#DejaVuSans-45"/>
      <use x="845.113281" xlink:href="#DejaVuSans-114"/>
      <use x="886.226562" xlink:href="#DejaVuSans-105"/>
      <use x="914.009766" xlink:href="#DejaVuSans-110"/>
      <use x="977.388672" xlink:href="#DejaVuSans-103"/>
     </g>
    </g>
    <g id="line2d_42">
     <path d="M 265.146875 157.681563 
L 285.146875 157.681563 
" style="fill:none;stroke:#7f7f7f;stroke-linecap:square;stroke-width:1.5;"/>
    </g>
    <g id="line2d_43"/>
    <g id="text_30">
     <!-- allreduce-rabenseifner -->
     <g transform="translate(293.146875 161.181563)scale(0.1 -0.1)">
      <use xlink:href="#DejaVuSans-97"/>
      <use x="61.279297" xlink:href="#DejaVuSans-108"/>
      <use x="89.0625" xlink:href="#DejaVuSans-108"/>
      <use x="116.845703" xlink:href="#DejaVuSans-114"/>
      <use x="155.708984" xlink:href="#DejaVuSans-101"/>
      <use x="217.232422" xlink:href="#DejaVuSans-100"/>
      <use x="280.708984" xlink:href="#DejaVuSans-117"/>
      <use x="344.087891" xlink:href="#DejaVuSans-99"/>
      <use x="399.068359" xlink:href="#DejaVuSans-101"/>
      <use x="460.591797" xlink:href="#DejaVuSans-45"/>
      <use x="496.675781" xlink:href="#DejaVuSans-114"/>
      <use x="537.789062" xlink:href="#DejaVuSans-97"/>
      <use x="599.068359" xlink:href="#DejaVuSans-98"/>
      <use x="662.544922" xlink:href="#DejaVuSans-101"/>
      <use x="724.068359" xlink:href="#DejaVuSans-110"/>
      <use x="787.447266" xlink:href="#DejaVuSans-115"/>
      <use x="839.546875" xlink:href="#DejaVuSans-101"/>
      <use x="901.070312" xlink:href="#DejaVuSans-105"/>
      <use x="928.853516" xlink:href="#DejaVuSans-102"/>
      <use x="964.058594" xlink:href="#DejaVuSans-110"/>
      <use x="1027.4375" xlink:href="#DejaVuSans-101"/>
      <use x="1088.960938" xlink:href="#DejaVuSans-114"/>
     </g>
    </g>
    <g id="line2d_44">
     <path d="M 265.146875 172.359688 
L 285.146875 172.359688 
" style="fill:none;stroke:#bcbd22;stroke-linecap:square;stroke-width:1.5;"/>
    </g>
    <g id="line2d_45"/>
    <g id="text_31">
     <!-- rabenseifner-gather -->
     <g transform="translate(293.146875 175.859688)scale(0.1 -0.1)">
      <use xlink:href="#DejaVuSans-114"/>
      <use x="41.113281" xlink:href="#DejaVuSans-97"/>
      <use x="102.392578" xlink:href="#DejaVuSans-98"/>
      <use x="165.869141" xlink:href="#DejaVuSans-101"/>
      <use x="227.392578" xlink:href="#DejaVuSans-110"/>
      <use x="290.771484" xlink:href="#DejaVuSans-115"/>
      <use x="342.871094" xlink:href="#DejaVuSans-101"/>
      <use x="404.394531" xlink:href="#DejaVuSans-105"/>
      <use x="432.177734" xlink:href="#DejaVuSans-102"/>
      <use x="467.382812" xlink:href="#DejaVuSans-110"/>
      <use x="530.761719" xlink:href="#DejaVuSans-101"/>
      <use x="592.285156" xlink:href="#DejaVuSans-114"/>
      <use x="627.023438" xlink:href="#DejaVuSans-45"/>
      <use x="663.107422" xlink:href="#DejaVuSans-103"/>
      <use x="726.583984" xlink:href="#DejaVuSans-97"/>
      <use x="787.863281" xlink:href="#DejaVuSans-116"/>
      <use x="827.072266" xlink:href="#DejaVuSans-104"/>
      <use x="890.451172" xlink:href="#DejaVuSans-101"/>
      <use x="951.974609" xlink:href="#DejaVuSans-114"/>
     </g>
    </g>
   </g>
  </g>
 </g>
 <defs>
  <clipPath id="p0bb0152e64">
   <rect height="276.76" width="402.28" x="47.72" y="26.88"/>
  </clipPath>
 </defs>
</svg>
