<?xml version="1.0" encoding="utf-8" standalone="no"?>
<!DOCTYPE svg PUBLIC "-//W3C//DTD SVG 1.1//EN"
  "http://www.w3.org/Graphics/SVG/1.1/DTD/svg11.dtd">
<svg xmlns:xlink="http://www.w3.org/1999/xlink" width="1728pt" height="648pt" viewBox="0 0 1728 648" xmlns="http://www.w3.org/2000/svg" version="1.1">
 <metadata>
  <rdf:RDF xmlns:dc="http://purl.org/dc/elements/1.1/" xmlns:cc="http://creativecommons.org/ns#" xmlns:rdf="http://www.w3.org/1999/02/22-rdf-syntax-ns#">
   <cc:Work>
    <dc:type rdf:resource="http://purl.org/dc/dcmitype/StillImage"/>
    <dc:date>2022-01-14T14:51:34.792638</dc:date>
    <dc:format>image/svg+xml</dc:format>
    <dc:creator>
     <cc:Agent>
      <dc:title>Matplotlib v3.5.1, https://matplotlib.org/</dc:title>
     </cc:Agent>
    </dc:creator>
   </cc:Work>
  </rdf:RDF>
 </metadata>
 <defs>
  <style type="text/css">*{stroke-linejoin: round; stroke-linecap: butt}</style>
 </defs>
 <g id="figure_1">
  <g id="patch_1">
   <path d="M 0 648 
L 1728 648 
L 1728 0 
L 0 0 
z
" style="fill: #ffffff"/>
  </g>
  <g id="axes_1">
   <g id="patch_2">
    <path d="M 53.37 597.78 
L 851.992928 597.78 
L 851.992928 40.32 
L 53.37 40.32 
z
" style="fill: #eaeaf2"/>
   </g>
   <g id="matplotlib.axis_1">
    <g id="xtick_1">
     <g id="line2d_1">
      <path d="M 110.414495 597.78 
L 110.414495 40.32 
" clip-path="url(#pb66d5997f4)" style="fill: none; stroke: #ffffff; stroke-linecap: round"/>
     </g>
     <g id="text_1">
      <!-- allgather -->
      <g style="fill: #262626" transform="translate(85.838948 615.638281)scale(0.11 -0.11)">
       <defs>
        <path id="DejaVuSans-61" d="M 2194 1759 
Q 1497 1759 1228 1600 
Q 959 1441 959 1056 
Q 959 750 1161 570 
Q 1363 391 1709 391 
Q 2188 391 2477 730 
Q 2766 1069 2766 1631 
L 2766 1759 
L 2194 1759 
z
M 3341 1997 
L 3341 0 
L 2766 0 
L 2766 531 
Q 2569 213 2275 61 
Q 1981 -91 1556 -91 
Q 1019 -91 701 211 
Q 384 513 384 1019 
Q 384 1609 779 1909 
Q 1175 2209 1959 2209 
L 2766 2209 
L 2766 2266 
Q 2766 2663 2505 2880 
Q 2244 3097 1772 3097 
Q 1472 3097 1187 3025 
Q 903 2953 641 2809 
L 641 3341 
Q 956 3463 1253 3523 
Q 1550 3584 1831 3584 
Q 2591 3584 2966 3190 
Q 3341 2797 3341 1997 
z
" transform="scale(0.015625)"/>
        <path id="DejaVuSans-6c" d="M 603 4863 
L 1178 4863 
L 1178 0 
L 603 0 
L 603 4863 
z
" transform="scale(0.015625)"/>
        <path id="DejaVuSans-67" d="M 2906 1791 
Q 2906 2416 2648 2759 
Q 2391 3103 1925 3103 
Q 1463 3103 1205 2759 
Q 947 2416 947 1791 
Q 947 1169 1205 825 
Q 1463 481 1925 481 
Q 2391 481 2648 825 
Q 2906 1169 2906 1791 
z
M 3481 434 
Q 3481 -459 3084 -895 
Q 2688 -1331 1869 -1331 
Q 1566 -1331 1297 -1286 
Q 1028 -1241 775 -1147 
L 775 -588 
Q 1028 -725 1275 -790 
Q 1522 -856 1778 -856 
Q 2344 -856 2625 -561 
Q 2906 -266 2906 331 
L 2906 616 
Q 2728 306 2450 153 
Q 2172 0 1784 0 
Q 1141 0 747 490 
Q 353 981 353 1791 
Q 353 2603 747 3093 
Q 1141 3584 1784 3584 
Q 2172 3584 2450 3431 
Q 2728 3278 2906 2969 
L 2906 3500 
L 3481 3500 
L 3481 434 
z
" transform="scale(0.015625)"/>
        <path id="DejaVuSans-74" d="M 1172 4494 
L 1172 3500 
L 2356 3500 
L 2356 3053 
L 1172 3053 
L 1172 1153 
Q 1172 725 1289 603 
Q 1406 481 1766 481 
L 2356 481 
L 2356 0 
L 1766 0 
Q 1100 0 847 248 
Q 594 497 594 1153 
L 594 3053 
L 172 3053 
L 172 3500 
L 594 3500 
L 594 4494 
L 1172 4494 
z
" transform="scale(0.015625)"/>
        <path id="DejaVuSans-68" d="M 3513 2113 
L 3513 0 
L 2938 0 
L 2938 2094 
Q 2938 2591 2744 2837 
Q 2550 3084 2163 3084 
Q 1697 3084 1428 2787 
Q 1159 2491 1159 1978 
L 1159 0 
L 581 0 
L 581 4863 
L 1159 4863 
L 1159 2956 
Q 1366 3272 1645 3428 
Q 1925 3584 2291 3584 
Q 2894 3584 3203 3211 
Q 3513 2838 3513 2113 
z
" transform="scale(0.015625)"/>
        <path id="DejaVuSans-65" d="M 3597 1894 
L 3597 1613 
L 953 1613 
Q 991 1019 1311 708 
Q 1631 397 2203 397 
Q 2534 397 2845 478 
Q 3156 559 3463 722 
L 3463 178 
Q 3153 47 2828 -22 
Q 2503 -91 2169 -91 
Q 1331 -91 842 396 
Q 353 884 353 1716 
Q 353 2575 817 3079 
Q 1281 3584 2069 3584 
Q 2775 3584 3186 3129 
Q 3597 2675 3597 1894 
z
M 3022 2063 
Q 3016 2534 2758 2815 
Q 2500 3097 2075 3097 
Q 1594 3097 1305 2825 
Q 1016 2553 972 2059 
L 3022 2063 
z
" transform="scale(0.015625)"/>
        <path id="DejaVuSans-72" d="M 2631 2963 
Q 2534 3019 2420 3045 
Q 2306 3072 2169 3072 
Q 1681 3072 1420 2755 
Q 1159 2438 1159 1844 
L 1159 0 
L 581 0 
L 581 3500 
L 1159 3500 
L 1159 2956 
Q 1341 3275 1631 3429 
Q 1922 3584 2338 3584 
Q 2397 3584 2469 3576 
Q 2541 3569 2628 3553 
L 2631 2963 
z
" transform="scale(0.015625)"/>
       </defs>
       <use xlink:href="#DejaVuSans-61"/>
       <use xlink:href="#DejaVuSans-6c" x="61.279297"/>
       <use xlink:href="#DejaVuSans-6c" x="89.0625"/>
       <use xlink:href="#DejaVuSans-67" x="116.845703"/>
       <use xlink:href="#DejaVuSans-61" x="180.322266"/>
       <use xlink:href="#DejaVuSans-74" x="241.601562"/>
       <use xlink:href="#DejaVuSans-68" x="280.810547"/>
       <use xlink:href="#DejaVuSans-65" x="344.189453"/>
       <use xlink:href="#DejaVuSans-72" x="405.712891"/>
      </g>
     </g>
    </g>
    <g id="xtick_2">
     <g id="line2d_2">
      <path d="M 224.503485 597.78 
L 224.503485 40.32 
" clip-path="url(#pb66d5997f4)" style="fill: none; stroke: #ffffff; stroke-linecap: round"/>
     </g>
     <g id="text_2">
      <!-- allreduce -->
      <g style="fill: #262626" transform="translate(199.169969 615.638281)scale(0.11 -0.11)">
       <defs>
        <path id="DejaVuSans-64" d="M 2906 2969 
L 2906 4863 
L 3481 4863 
L 3481 0 
L 2906 0 
L 2906 525 
Q 2725 213 2448 61 
Q 2172 -91 1784 -91 
Q 1150 -91 751 415 
Q 353 922 353 1747 
Q 353 2572 751 3078 
Q 1150 3584 1784 3584 
Q 2172 3584 2448 3432 
Q 2725 3281 2906 2969 
z
M 947 1747 
Q 947 1113 1208 752 
Q 1469 391 1925 391 
Q 2381 391 2643 752 
Q 2906 1113 2906 1747 
Q 2906 2381 2643 2742 
Q 2381 3103 1925 3103 
Q 1469 3103 1208 2742 
Q 947 2381 947 1747 
z
" transform="scale(0.015625)"/>
        <path id="DejaVuSans-75" d="M 544 1381 
L 544 3500 
L 1119 3500 
L 1119 1403 
Q 1119 906 1312 657 
Q 1506 409 1894 409 
Q 2359 409 2629 706 
Q 2900 1003 2900 1516 
L 2900 3500 
L 3475 3500 
L 3475 0 
L 2900 0 
L 2900 538 
Q 2691 219 2414 64 
Q 2138 -91 1772 -91 
Q 1169 -91 856 284 
Q 544 659 544 1381 
z
M 1991 3584 
L 1991 3584 
z
" transform="scale(0.015625)"/>
        <path id="DejaVuSans-63" d="M 3122 3366 
L 3122 2828 
Q 2878 2963 2633 3030 
Q 2388 3097 2138 3097 
Q 1578 3097 1268 2742 
Q 959 2388 959 1747 
Q 959 1106 1268 751 
Q 1578 397 2138 397 
Q 2388 397 2633 464 
Q 2878 531 3122 666 
L 3122 134 
Q 2881 22 2623 -34 
Q 2366 -91 2075 -91 
Q 1284 -91 818 406 
Q 353 903 353 1747 
Q 353 2603 823 3093 
Q 1294 3584 2113 3584 
Q 2378 3584 2631 3529 
Q 2884 3475 3122 3366 
z
" transform="scale(0.015625)"/>
       </defs>
       <use xlink:href="#DejaVuSans-61"/>
       <use xlink:href="#DejaVuSans-6c" x="61.279297"/>
       <use xlink:href="#DejaVuSans-6c" x="89.0625"/>
       <use xlink:href="#DejaVuSans-72" x="116.845703"/>
       <use xlink:href="#DejaVuSans-65" x="155.708984"/>
       <use xlink:href="#DejaVuSans-64" x="217.232422"/>
       <use xlink:href="#DejaVuSans-75" x="280.708984"/>
       <use xlink:href="#DejaVuSans-63" x="344.087891"/>
       <use xlink:href="#DejaVuSans-65" x="399.068359"/>
      </g>
     </g>
    </g>
    <g id="xtick_3">
     <g id="line2d_3">
      <path d="M 338.592474 597.78 
L 338.592474 40.32 
" clip-path="url(#pb66d5997f4)" style="fill: none; stroke: #ffffff; stroke-linecap: round"/>
     </g>
     <g id="text_3">
      <!-- allreduce-ring -->
      <g style="fill: #262626" transform="translate(300.508412 615.638281)scale(0.11 -0.11)">
       <defs>
        <path id="DejaVuSans-2d" d="M 313 2009 
L 1997 2009 
L 1997 1497 
L 313 1497 
L 313 2009 
z
" transform="scale(0.015625)"/>
        <path id="DejaVuSans-69" d="M 603 3500 
L 1178 3500 
L 1178 0 
L 603 0 
L 603 3500 
z
M 603 4863 
L 1178 4863 
L 1178 4134 
L 603 4134 
L 603 4863 
z
" transform="scale(0.015625)"/>
        <path id="DejaVuSans-6e" d="M 3513 2113 
L 3513 0 
L 2938 0 
L 2938 2094 
Q 2938 2591 2744 2837 
Q 2550 3084 2163 3084 
Q 1697 3084 1428 2787 
Q 1159 2491 1159 1978 
L 1159 0 
L 581 0 
L 581 3500 
L 1159 3500 
L 1159 2956 
Q 1366 3272 1645 3428 
Q 1925 3584 2291 3584 
Q 2894 3584 3203 3211 
Q 3513 2838 3513 2113 
z
" transform="scale(0.015625)"/>
       </defs>
       <use xlink:href="#DejaVuSans-61"/>
       <use xlink:href="#DejaVuSans-6c" x="61.279297"/>
       <use xlink:href="#DejaVuSans-6c" x="89.0625"/>
       <use xlink:href="#DejaVuSans-72" x="116.845703"/>
       <use xlink:href="#DejaVuSans-65" x="155.708984"/>
       <use xlink:href="#DejaVuSans-64" x="217.232422"/>
       <use xlink:href="#DejaVuSans-75" x="280.708984"/>
       <use xlink:href="#DejaVuSans-63" x="344.087891"/>
       <use xlink:href="#DejaVuSans-65" x="399.068359"/>
       <use xlink:href="#DejaVuSans-2d" x="460.591797"/>
       <use xlink:href="#DejaVuSans-72" x="496.675781"/>
       <use xlink:href="#DejaVuSans-69" x="537.789062"/>
       <use xlink:href="#DejaVuSans-6e" x="565.572266"/>
       <use xlink:href="#DejaVuSans-67" x="628.951172"/>
      </g>
     </g>
    </g>
    <g id="xtick_4">
     <g id="line2d_4">
      <path d="M 452.681464 597.78 
L 452.681464 40.32 
" clip-path="url(#pb66d5997f4)" style="fill: none; stroke: #ffffff; stroke-linecap: round"/>
     </g>
     <g id="text_4">
      <!-- g-rabenseifner-allgather -->
      <g style="fill: #262626" transform="translate(386.158964 615.638281)scale(0.11 -0.11)">
       <defs>
        <path id="DejaVuSans-62" d="M 3116 1747 
Q 3116 2381 2855 2742 
Q 2594 3103 2138 3103 
Q 1681 3103 1420 2742 
Q 1159 2381 1159 1747 
Q 1159 1113 1420 752 
Q 1681 391 2138 391 
Q 2594 391 2855 752 
Q 3116 1113 3116 1747 
z
M 1159 2969 
Q 1341 3281 1617 3432 
Q 1894 3584 2278 3584 
Q 2916 3584 3314 3078 
Q 3713 2572 3713 1747 
Q 3713 922 3314 415 
Q 2916 -91 2278 -91 
Q 1894 -91 1617 61 
Q 1341 213 1159 525 
L 1159 0 
L 581 0 
L 581 4863 
L 1159 4863 
L 1159 2969 
z
" transform="scale(0.015625)"/>
        <path id="DejaVuSans-73" d="M 2834 3397 
L 2834 2853 
Q 2591 2978 2328 3040 
Q 2066 3103 1784 3103 
Q 1356 3103 1142 2972 
Q 928 2841 928 2578 
Q 928 2378 1081 2264 
Q 1234 2150 1697 2047 
L 1894 2003 
Q 2506 1872 2764 1633 
Q 3022 1394 3022 966 
Q 3022 478 2636 193 
Q 2250 -91 1575 -91 
Q 1294 -91 989 -36 
Q 684 19 347 128 
L 347 722 
Q 666 556 975 473 
Q 1284 391 1588 391 
Q 1994 391 2212 530 
Q 2431 669 2431 922 
Q 2431 1156 2273 1281 
Q 2116 1406 1581 1522 
L 1381 1569 
Q 847 1681 609 1914 
Q 372 2147 372 2553 
Q 372 3047 722 3315 
Q 1072 3584 1716 3584 
Q 2034 3584 2315 3537 
Q 2597 3491 2834 3397 
z
" transform="scale(0.015625)"/>
        <path id="DejaVuSans-66" d="M 2375 4863 
L 2375 4384 
L 1825 4384 
Q 1516 4384 1395 4259 
Q 1275 4134 1275 3809 
L 1275 3500 
L 2222 3500 
L 2222 3053 
L 1275 3053 
L 1275 0 
L 697 0 
L 697 3053 
L 147 3053 
L 147 3500 
L 697 3500 
L 697 3744 
Q 697 4328 969 4595 
Q 1241 4863 1831 4863 
L 2375 4863 
z
" transform="scale(0.015625)"/>
       </defs>
       <use xlink:href="#DejaVuSans-67"/>
       <use xlink:href="#DejaVuSans-2d" x="63.476562"/>
       <use xlink:href="#DejaVuSans-72" x="99.560547"/>
       <use xlink:href="#DejaVuSans-61" x="140.673828"/>
       <use xlink:href="#DejaVuSans-62" x="201.953125"/>
       <use xlink:href="#DejaVuSans-65" x="265.429688"/>
       <use xlink:href="#DejaVuSans-6e" x="326.953125"/>
       <use xlink:href="#DejaVuSans-73" x="390.332031"/>
       <use xlink:href="#DejaVuSans-65" x="442.431641"/>
       <use xlink:href="#DejaVuSans-69" x="503.955078"/>
       <use xlink:href="#DejaVuSans-66" x="531.738281"/>
       <use xlink:href="#DejaVuSans-6e" x="566.943359"/>
       <use xlink:href="#DejaVuSans-65" x="630.322266"/>
       <use xlink:href="#DejaVuSans-72" x="691.845703"/>
       <use xlink:href="#DejaVuSans-2d" x="726.583984"/>
       <use xlink:href="#DejaVuSans-61" x="762.667969"/>
       <use xlink:href="#DejaVuSans-6c" x="823.947266"/>
       <use xlink:href="#DejaVuSans-6c" x="851.730469"/>
       <use xlink:href="#DejaVuSans-67" x="879.513672"/>
       <use xlink:href="#DejaVuSans-61" x="942.990234"/>
       <use xlink:href="#DejaVuSans-74" x="1004.269531"/>
       <use xlink:href="#DejaVuSans-68" x="1043.478516"/>
       <use xlink:href="#DejaVuSans-65" x="1106.857422"/>
       <use xlink:href="#DejaVuSans-72" x="1168.380859"/>
      </g>
     </g>
    </g>
    <g id="xtick_5">
     <g id="line2d_5">
      <path d="M 566.770454 597.78 
L 566.770454 40.32 
" clip-path="url(#pb66d5997f4)" style="fill: none; stroke: #ffffff; stroke-linecap: round"/>
     </g>
     <g id="text_5">
      <!-- g-rabenseifner-subgroup-2 -->
      <g style="fill: #262626" transform="translate(493.525923 615.638281)scale(0.11 -0.11)">
       <defs>
        <path id="DejaVuSans-6f" d="M 1959 3097 
Q 1497 3097 1228 2736 
Q 959 2375 959 1747 
Q 959 1119 1226 758 
Q 1494 397 1959 397 
Q 2419 397 2687 759 
Q 2956 1122 2956 1747 
Q 2956 2369 2687 2733 
Q 2419 3097 1959 3097 
z
M 1959 3584 
Q 2709 3584 3137 3096 
Q 3566 2609 3566 1747 
Q 3566 888 3137 398 
Q 2709 -91 1959 -91 
Q 1206 -91 779 398 
Q 353 888 353 1747 
Q 353 2609 779 3096 
Q 1206 3584 1959 3584 
z
" transform="scale(0.015625)"/>
        <path id="DejaVuSans-70" d="M 1159 525 
L 1159 -1331 
L 581 -1331 
L 581 3500 
L 1159 3500 
L 1159 2969 
Q 1341 3281 1617 3432 
Q 1894 3584 2278 3584 
Q 2916 3584 3314 3078 
Q 3713 2572 3713 1747 
Q 3713 922 3314 415 
Q 2916 -91 2278 -91 
Q 1894 -91 1617 61 
Q 1341 213 1159 525 
z
M 3116 1747 
Q 3116 2381 2855 2742 
Q 2594 3103 2138 3103 
Q 1681 3103 1420 2742 
Q 1159 2381 1159 1747 
Q 1159 1113 1420 752 
Q 1681 391 2138 391 
Q 2594 391 2855 752 
Q 3116 1113 3116 1747 
z
" transform="scale(0.015625)"/>
        <path id="DejaVuSans-32" d="M 1228 531 
L 3431 531 
L 3431 0 
L 469 0 
L 469 531 
Q 828 903 1448 1529 
Q 2069 2156 2228 2338 
Q 2531 2678 2651 2914 
Q 2772 3150 2772 3378 
Q 2772 3750 2511 3984 
Q 2250 4219 1831 4219 
Q 1534 4219 1204 4116 
Q 875 4013 500 3803 
L 500 4441 
Q 881 4594 1212 4672 
Q 1544 4750 1819 4750 
Q 2544 4750 2975 4387 
Q 3406 4025 3406 3419 
Q 3406 3131 3298 2873 
Q 3191 2616 2906 2266 
Q 2828 2175 2409 1742 
Q 1991 1309 1228 531 
z
" transform="scale(0.015625)"/>
       </defs>
       <use xlink:href="#DejaVuSans-67"/>
       <use xlink:href="#DejaVuSans-2d" x="63.476562"/>
       <use xlink:href="#DejaVuSans-72" x="99.560547"/>
       <use xlink:href="#DejaVuSans-61" x="140.673828"/>
       <use xlink:href="#DejaVuSans-62" x="201.953125"/>
       <use xlink:href="#DejaVuSans-65" x="265.429688"/>
       <use xlink:href="#DejaVuSans-6e" x="326.953125"/>
       <use xlink:href="#DejaVuSans-73" x="390.332031"/>
       <use xlink:href="#DejaVuSans-65" x="442.431641"/>
       <use xlink:href="#DejaVuSans-69" x="503.955078"/>
       <use xlink:href="#DejaVuSans-66" x="531.738281"/>
       <use xlink:href="#DejaVuSans-6e" x="566.943359"/>
       <use xlink:href="#DejaVuSans-65" x="630.322266"/>
       <use xlink:href="#DejaVuSans-72" x="691.845703"/>
       <use xlink:href="#DejaVuSans-2d" x="726.583984"/>
       <use xlink:href="#DejaVuSans-73" x="762.667969"/>
       <use xlink:href="#DejaVuSans-75" x="814.767578"/>
       <use xlink:href="#DejaVuSans-62" x="878.146484"/>
       <use xlink:href="#DejaVuSans-67" x="941.623047"/>
       <use xlink:href="#DejaVuSans-72" x="1005.099609"/>
       <use xlink:href="#DejaVuSans-6f" x="1043.962891"/>
       <use xlink:href="#DejaVuSans-75" x="1105.144531"/>
       <use xlink:href="#DejaVuSans-70" x="1168.523438"/>
       <use xlink:href="#DejaVuSans-2d" x="1232"/>
       <use xlink:href="#DejaVuSans-32" x="1268.083984"/>
      </g>
     </g>
    </g>
    <g id="xtick_6">
     <g id="line2d_6">
      <path d="M 680.859444 597.78 
L 680.859444 40.32 
" clip-path="url(#pb66d5997f4)" style="fill: none; stroke: #ffffff; stroke-linecap: round"/>
     </g>
     <g id="text_6">
      <!-- g-rabenseifner-subgroup-4 -->
      <g style="fill: #262626" transform="translate(607.614913 615.638281)scale(0.11 -0.11)">
       <defs>
        <path id="DejaVuSans-34" d="M 2419 4116 
L 825 1625 
L 2419 1625 
L 2419 4116 
z
M 2253 4666 
L 3047 4666 
L 3047 1625 
L 3713 1625 
L 3713 1100 
L 3047 1100 
L 3047 0 
L 2419 0 
L 2419 1100 
L 313 1100 
L 313 1709 
L 2253 4666 
z
" transform="scale(0.015625)"/>
       </defs>
       <use xlink:href="#DejaVuSans-67"/>
       <use xlink:href="#DejaVuSans-2d" x="63.476562"/>
       <use xlink:href="#DejaVuSans-72" x="99.560547"/>
       <use xlink:href="#DejaVuSans-61" x="140.673828"/>
       <use xlink:href="#DejaVuSans-62" x="201.953125"/>
       <use xlink:href="#DejaVuSans-65" x="265.429688"/>
       <use xlink:href="#DejaVuSans-6e" x="326.953125"/>
       <use xlink:href="#DejaVuSans-73" x="390.332031"/>
       <use xlink:href="#DejaVuSans-65" x="442.431641"/>
       <use xlink:href="#DejaVuSans-69" x="503.955078"/>
       <use xlink:href="#DejaVuSans-66" x="531.738281"/>
       <use xlink:href="#DejaVuSans-6e" x="566.943359"/>
       <use xlink:href="#DejaVuSans-65" x="630.322266"/>
       <use xlink:href="#DejaVuSans-72" x="691.845703"/>
       <use xlink:href="#DejaVuSans-2d" x="726.583984"/>
       <use xlink:href="#DejaVuSans-73" x="762.667969"/>
       <use xlink:href="#DejaVuSans-75" x="814.767578"/>
       <use xlink:href="#DejaVuSans-62" x="878.146484"/>
       <use xlink:href="#DejaVuSans-67" x="941.623047"/>
       <use xlink:href="#DejaVuSans-72" x="1005.099609"/>
       <use xlink:href="#DejaVuSans-6f" x="1043.962891"/>
       <use xlink:href="#DejaVuSans-75" x="1105.144531"/>
       <use xlink:href="#DejaVuSans-70" x="1168.523438"/>
       <use xlink:href="#DejaVuSans-2d" x="1232"/>
       <use xlink:href="#DejaVuSans-34" x="1268.083984"/>
      </g>
     </g>
    </g>
    <g id="xtick_7">
     <g id="line2d_7">
      <path d="M 794.948434 597.78 
L 794.948434 40.32 
" clip-path="url(#pb66d5997f4)" style="fill: none; stroke: #ffffff; stroke-linecap: round"/>
     </g>
     <g id="text_7">
      <!-- g-rabenseifner-subgroup-8 -->
      <g style="fill: #262626" transform="translate(721.703902 615.638281)scale(0.11 -0.11)">
       <defs>
        <path id="DejaVuSans-38" d="M 2034 2216 
Q 1584 2216 1326 1975 
Q 1069 1734 1069 1313 
Q 1069 891 1326 650 
Q 1584 409 2034 409 
Q 2484 409 2743 651 
Q 3003 894 3003 1313 
Q 3003 1734 2745 1975 
Q 2488 2216 2034 2216 
z
M 1403 2484 
Q 997 2584 770 2862 
Q 544 3141 544 3541 
Q 544 4100 942 4425 
Q 1341 4750 2034 4750 
Q 2731 4750 3128 4425 
Q 3525 4100 3525 3541 
Q 3525 3141 3298 2862 
Q 3072 2584 2669 2484 
Q 3125 2378 3379 2068 
Q 3634 1759 3634 1313 
Q 3634 634 3220 271 
Q 2806 -91 2034 -91 
Q 1263 -91 848 271 
Q 434 634 434 1313 
Q 434 1759 690 2068 
Q 947 2378 1403 2484 
z
M 1172 3481 
Q 1172 3119 1398 2916 
Q 1625 2713 2034 2713 
Q 2441 2713 2670 2916 
Q 2900 3119 2900 3481 
Q 2900 3844 2670 4047 
Q 2441 4250 2034 4250 
Q 1625 4250 1398 4047 
Q 1172 3844 1172 3481 
z
" transform="scale(0.015625)"/>
       </defs>
       <use xlink:href="#DejaVuSans-67"/>
       <use xlink:href="#DejaVuSans-2d" x="63.476562"/>
       <use xlink:href="#DejaVuSans-72" x="99.560547"/>
       <use xlink:href="#DejaVuSans-61" x="140.673828"/>
       <use xlink:href="#DejaVuSans-62" x="201.953125"/>
       <use xlink:href="#DejaVuSans-65" x="265.429688"/>
       <use xlink:href="#DejaVuSans-6e" x="326.953125"/>
       <use xlink:href="#DejaVuSans-73" x="390.332031"/>
       <use xlink:href="#DejaVuSans-65" x="442.431641"/>
       <use xlink:href="#DejaVuSans-69" x="503.955078"/>
       <use xlink:href="#DejaVuSans-66" x="531.738281"/>
       <use xlink:href="#DejaVuSans-6e" x="566.943359"/>
       <use xlink:href="#DejaVuSans-65" x="630.322266"/>
       <use xlink:href="#DejaVuSans-72" x="691.845703"/>
       <use xlink:href="#DejaVuSans-2d" x="726.583984"/>
       <use xlink:href="#DejaVuSans-73" x="762.667969"/>
       <use xlink:href="#DejaVuSans-75" x="814.767578"/>
       <use xlink:href="#DejaVuSans-62" x="878.146484"/>
       <use xlink:href="#DejaVuSans-67" x="941.623047"/>
       <use xlink:href="#DejaVuSans-72" x="1005.099609"/>
       <use xlink:href="#DejaVuSans-6f" x="1043.962891"/>
       <use xlink:href="#DejaVuSans-75" x="1105.144531"/>
       <use xlink:href="#DejaVuSans-70" x="1168.523438"/>
       <use xlink:href="#DejaVuSans-2d" x="1232"/>
       <use xlink:href="#DejaVuSans-38" x="1268.083984"/>
      </g>
     </g>
    </g>
    <g id="text_8">
     <!-- [impl] -->
     <g style="fill: #262626" transform="translate(435.012402 631.044062)scale(0.12 -0.12)">
      <defs>
       <path id="DejaVuSans-5b" d="M 550 4863 
L 1875 4863 
L 1875 4416 
L 1125 4416 
L 1125 -397 
L 1875 -397 
L 1875 -844 
L 550 -844 
L 550 4863 
z
" transform="scale(0.015625)"/>
       <path id="DejaVuSans-6d" d="M 3328 2828 
Q 3544 3216 3844 3400 
Q 4144 3584 4550 3584 
Q 5097 3584 5394 3201 
Q 5691 2819 5691 2113 
L 5691 0 
L 5113 0 
L 5113 2094 
Q 5113 2597 4934 2840 
Q 4756 3084 4391 3084 
Q 3944 3084 3684 2787 
Q 3425 2491 3425 1978 
L 3425 0 
L 2847 0 
L 2847 2094 
Q 2847 2600 2669 2842 
Q 2491 3084 2119 3084 
Q 1678 3084 1418 2786 
Q 1159 2488 1159 1978 
L 1159 0 
L 581 0 
L 581 3500 
L 1159 3500 
L 1159 2956 
Q 1356 3278 1631 3431 
Q 1906 3584 2284 3584 
Q 2666 3584 2933 3390 
Q 3200 3197 3328 2828 
z
" transform="scale(0.015625)"/>
       <path id="DejaVuSans-5d" d="M 1947 4863 
L 1947 -844 
L 622 -844 
L 622 -397 
L 1369 -397 
L 1369 4416 
L 622 4416 
L 622 4863 
L 1947 4863 
z
" transform="scale(0.015625)"/>
      </defs>
      <use xlink:href="#DejaVuSans-5b"/>
      <use xlink:href="#DejaVuSans-69" x="39.013672"/>
      <use xlink:href="#DejaVuSans-6d" x="66.796875"/>
      <use xlink:href="#DejaVuSans-70" x="164.208984"/>
      <use xlink:href="#DejaVuSans-6c" x="227.685547"/>
      <use xlink:href="#DejaVuSans-5d" x="255.46875"/>
     </g>
    </g>
   </g>
   <g id="matplotlib.axis_2">
    <g id="ytick_1">
     <g id="line2d_8">
      <path d="M 53.37 577.353947 
L 851.992928 577.353947 
" clip-path="url(#pb66d5997f4)" style="fill: none; stroke: #ffffff; stroke-linecap: round"/>
     </g>
     <g id="text_9">
      <!-- 0 -->
      <g style="fill: #262626" transform="translate(36.87125 581.533088)scale(0.11 -0.11)">
       <defs>
        <path id="DejaVuSans-30" d="M 2034 4250 
Q 1547 4250 1301 3770 
Q 1056 3291 1056 2328 
Q 1056 1369 1301 889 
Q 1547 409 2034 409 
Q 2525 409 2770 889 
Q 3016 1369 3016 2328 
Q 3016 3291 2770 3770 
Q 2525 4250 2034 4250 
z
M 2034 4750 
Q 2819 4750 3233 4129 
Q 3647 3509 3647 2328 
Q 3647 1150 3233 529 
Q 2819 -91 2034 -91 
Q 1250 -91 836 529 
Q 422 1150 422 2328 
Q 422 3509 836 4129 
Q 1250 4750 2034 4750 
z
" transform="scale(0.015625)"/>
       </defs>
       <use xlink:href="#DejaVuSans-30"/>
      </g>
     </g>
    </g>
    <g id="ytick_2">
     <g id="line2d_9">
      <path d="M 53.37 480.996065 
L 851.992928 480.996065 
" clip-path="url(#pb66d5997f4)" style="fill: none; stroke: #ffffff; stroke-linecap: round"/>
     </g>
     <g id="text_10">
      <!-- 10 -->
      <g style="fill: #262626" transform="translate(29.8725 485.175205)scale(0.11 -0.11)">
       <defs>
        <path id="DejaVuSans-31" d="M 794 531 
L 1825 531 
L 1825 4091 
L 703 3866 
L 703 4441 
L 1819 4666 
L 2450 4666 
L 2450 531 
L 3481 531 
L 3481 0 
L 794 0 
L 794 531 
z
" transform="scale(0.015625)"/>
       </defs>
       <use xlink:href="#DejaVuSans-31"/>
       <use xlink:href="#DejaVuSans-30" x="63.623047"/>
      </g>
     </g>
    </g>
    <g id="ytick_3">
     <g id="line2d_10">
      <path d="M 53.37 384.638182 
L 851.992928 384.638182 
" clip-path="url(#pb66d5997f4)" style="fill: none; stroke: #ffffff; stroke-linecap: round"/>
     </g>
     <g id="text_11">
      <!-- 20 -->
      <g style="fill: #262626" transform="translate(29.8725 388.817323)scale(0.11 -0.11)">
       <use xlink:href="#DejaVuSans-32"/>
       <use xlink:href="#DejaVuSans-30" x="63.623047"/>
      </g>
     </g>
    </g>
    <g id="ytick_4">
     <g id="line2d_11">
      <path d="M 53.37 288.2803 
L 851.992928 288.2803 
" clip-path="url(#pb66d5997f4)" style="fill: none; stroke: #ffffff; stroke-linecap: round"/>
     </g>
     <g id="text_12">
      <!-- 30 -->
      <g style="fill: #262626" transform="translate(29.8725 292.459441)scale(0.11 -0.11)">
       <defs>
        <path id="DejaVuSans-33" d="M 2597 2516 
Q 3050 2419 3304 2112 
Q 3559 1806 3559 1356 
Q 3559 666 3084 287 
Q 2609 -91 1734 -91 
Q 1441 -91 1130 -33 
Q 819 25 488 141 
L 488 750 
Q 750 597 1062 519 
Q 1375 441 1716 441 
Q 2309 441 2620 675 
Q 2931 909 2931 1356 
Q 2931 1769 2642 2001 
Q 2353 2234 1838 2234 
L 1294 2234 
L 1294 2753 
L 1863 2753 
Q 2328 2753 2575 2939 
Q 2822 3125 2822 3475 
Q 2822 3834 2567 4026 
Q 2313 4219 1838 4219 
Q 1578 4219 1281 4162 
Q 984 4106 628 3988 
L 628 4550 
Q 988 4650 1302 4700 
Q 1616 4750 1894 4750 
Q 2613 4750 3031 4423 
Q 3450 4097 3450 3541 
Q 3450 3153 3228 2886 
Q 3006 2619 2597 2516 
z
" transform="scale(0.015625)"/>
       </defs>
       <use xlink:href="#DejaVuSans-33"/>
       <use xlink:href="#DejaVuSans-30" x="63.623047"/>
      </g>
     </g>
    </g>
    <g id="ytick_5">
     <g id="line2d_12">
      <path d="M 53.37 191.922418 
L 851.992928 191.922418 
" clip-path="url(#pb66d5997f4)" style="fill: none; stroke: #ffffff; stroke-linecap: round"/>
     </g>
     <g id="text_13">
      <!-- 40 -->
      <g style="fill: #262626" transform="translate(29.8725 196.101558)scale(0.11 -0.11)">
       <use xlink:href="#DejaVuSans-34"/>
       <use xlink:href="#DejaVuSans-30" x="63.623047"/>
      </g>
     </g>
    </g>
    <g id="ytick_6">
     <g id="line2d_13">
      <path d="M 53.37 95.564535 
L 851.992928 95.564535 
" clip-path="url(#pb66d5997f4)" style="fill: none; stroke: #ffffff; stroke-linecap: round"/>
     </g>
     <g id="text_14">
      <!-- 50 -->
      <g style="fill: #262626" transform="translate(29.8725 99.743676)scale(0.11 -0.11)">
       <defs>
        <path id="DejaVuSans-35" d="M 691 4666 
L 3169 4666 
L 3169 4134 
L 1269 4134 
L 1269 2991 
Q 1406 3038 1543 3061 
Q 1681 3084 1819 3084 
Q 2600 3084 3056 2656 
Q 3513 2228 3513 1497 
Q 3513 744 3044 326 
Q 2575 -91 1722 -91 
Q 1428 -91 1123 -41 
Q 819 9 494 109 
L 494 744 
Q 775 591 1075 516 
Q 1375 441 1709 441 
Q 2250 441 2565 725 
Q 2881 1009 2881 1497 
Q 2881 1984 2565 2268 
Q 2250 2553 1709 2553 
Q 1456 2553 1204 2497 
Q 953 2441 691 2322 
L 691 4666 
z
" transform="scale(0.015625)"/>
       </defs>
       <use xlink:href="#DejaVuSans-35"/>
       <use xlink:href="#DejaVuSans-30" x="63.623047"/>
      </g>
     </g>
    </g>
    <g id="text_15">
     <!-- Runtime (s) -->
     <g style="fill: #262626" transform="translate(23.376875 353.82375)rotate(-90)scale(0.12 -0.12)">
      <defs>
       <path id="DejaVuSans-52" d="M 2841 2188 
Q 3044 2119 3236 1894 
Q 3428 1669 3622 1275 
L 4263 0 
L 3584 0 
L 2988 1197 
Q 2756 1666 2539 1819 
Q 2322 1972 1947 1972 
L 1259 1972 
L 1259 0 
L 628 0 
L 628 4666 
L 2053 4666 
Q 2853 4666 3247 4331 
Q 3641 3997 3641 3322 
Q 3641 2881 3436 2590 
Q 3231 2300 2841 2188 
z
M 1259 4147 
L 1259 2491 
L 2053 2491 
Q 2509 2491 2742 2702 
Q 2975 2913 2975 3322 
Q 2975 3731 2742 3939 
Q 2509 4147 2053 4147 
L 1259 4147 
z
" transform="scale(0.015625)"/>
       <path id="DejaVuSans-20" transform="scale(0.015625)"/>
       <path id="DejaVuSans-28" d="M 1984 4856 
Q 1566 4138 1362 3434 
Q 1159 2731 1159 2009 
Q 1159 1288 1364 580 
Q 1569 -128 1984 -844 
L 1484 -844 
Q 1016 -109 783 600 
Q 550 1309 550 2009 
Q 550 2706 781 3412 
Q 1013 4119 1484 4856 
L 1984 4856 
z
" transform="scale(0.015625)"/>
       <path id="DejaVuSans-29" d="M 513 4856 
L 1013 4856 
Q 1481 4119 1714 3412 
Q 1947 2706 1947 2009 
Q 1947 1309 1714 600 
Q 1481 -109 1013 -844 
L 513 -844 
Q 928 -128 1133 580 
Q 1338 1288 1338 2009 
Q 1338 2731 1133 3434 
Q 928 4138 513 4856 
z
" transform="scale(0.015625)"/>
      </defs>
      <use xlink:href="#DejaVuSans-52"/>
      <use xlink:href="#DejaVuSans-75" x="64.982422"/>
      <use xlink:href="#DejaVuSans-6e" x="128.361328"/>
      <use xlink:href="#DejaVuSans-74" x="191.740234"/>
      <use xlink:href="#DejaVuSans-69" x="230.949219"/>
      <use xlink:href="#DejaVuSans-6d" x="258.732422"/>
      <use xlink:href="#DejaVuSans-65" x="356.144531"/>
      <use xlink:href="#DejaVuSans-20" x="417.667969"/>
      <use xlink:href="#DejaVuSans-28" x="449.455078"/>
      <use xlink:href="#DejaVuSans-73" x="488.46875"/>
      <use xlink:href="#DejaVuSans-29" x="540.568359"/>
     </g>
    </g>
   </g>
   <g id="line2d_14">
    <path d="M 81.892247 541.144683 
L 138.936742 541.144683 
L 138.936742 538.409902 
L 81.892247 538.409902 
L 81.892247 541.144683 
" clip-path="url(#pb66d5997f4)" style="fill: none; stroke: #4c4c4c; stroke-linecap: round"/>
   </g>
   <g id="line2d_15">
    <path d="M 110.414495 541.144683 
L 110.414495 544.927766 
" clip-path="url(#pb66d5997f4)" style="fill: none; stroke: #4c4c4c; stroke-linecap: round"/>
   </g>
   <g id="line2d_16">
    <path d="M 110.414495 538.409902 
L 110.414495 535.454317 
" clip-path="url(#pb66d5997f4)" style="fill: none; stroke: #4c4c4c; stroke-linecap: round"/>
   </g>
   <g id="line2d_17">
    <path d="M 96.153371 544.927766 
L 124.675619 544.927766 
" clip-path="url(#pb66d5997f4)" style="fill: none; stroke: #1a1a1a; stroke-linecap: round"/>
   </g>
   <g id="line2d_18">
    <path d="M 96.153371 535.454317 
L 124.675619 535.454317 
" clip-path="url(#pb66d5997f4)" style="fill: none; stroke: #1a1a1a; stroke-linecap: round"/>
   </g>
   <g id="line2d_19">
    <path d="M 195.981237 563.642612 
L 253.025732 563.642612 
L 253.025732 544.956906 
L 195.981237 544.956906 
L 195.981237 563.642612 
" clip-path="url(#pb66d5997f4)" style="fill: none; stroke: #4c4c4c; stroke-linecap: round"/>
   </g>
   <g id="line2d_20">
    <path d="M 224.503485 563.642612 
L 224.503485 564.151944 
" clip-path="url(#pb66d5997f4)" style="fill: none; stroke: #4c4c4c; stroke-linecap: round"/>
   </g>
   <g id="line2d_21">
    <path d="M 224.503485 544.956906 
L 224.503485 496.409298 
" clip-path="url(#pb66d5997f4)" style="fill: none; stroke: #4c4c4c; stroke-linecap: round"/>
   </g>
   <g id="line2d_22">
    <path d="M 210.242361 564.151944 
L 238.764608 564.151944 
" clip-path="url(#pb66d5997f4)" style="fill: none; stroke: #1a1a1a; stroke-linecap: round"/>
   </g>
   <g id="line2d_23">
    <path d="M 210.242361 496.409298 
L 238.764608 496.409298 
" clip-path="url(#pb66d5997f4)" style="fill: none; stroke: #1a1a1a; stroke-linecap: round"/>
   </g>
   <g id="line2d_24">
    <path d="M 310.070227 567.886563 
L 367.114722 567.886563 
L 367.114722 545.948479 
L 310.070227 545.948479 
L 310.070227 567.886563 
" clip-path="url(#pb66d5997f4)" style="fill: none; stroke: #4c4c4c; stroke-linecap: round"/>
   </g>
   <g id="line2d_25">
    <path d="M 338.592474 567.886563 
L 338.592474 568.154111 
" clip-path="url(#pb66d5997f4)" style="fill: none; stroke: #4c4c4c; stroke-linecap: round"/>
   </g>
   <g id="line2d_26">
    <path d="M 338.592474 545.948479 
L 338.592474 478.683948 
" clip-path="url(#pb66d5997f4)" style="fill: none; stroke: #4c4c4c; stroke-linecap: round"/>
   </g>
   <g id="line2d_27">
    <path d="M 324.331351 568.154111 
L 352.853598 568.154111 
" clip-path="url(#pb66d5997f4)" style="fill: none; stroke: #1a1a1a; stroke-linecap: round"/>
   </g>
   <g id="line2d_28">
    <path d="M 324.331351 478.683948 
L 352.853598 478.683948 
" clip-path="url(#pb66d5997f4)" style="fill: none; stroke: #1a1a1a; stroke-linecap: round"/>
   </g>
   <g id="line2d_29">
    <path d="M 424.159217 572.357851 
L 481.203712 572.357851 
L 481.203712 572.09749 
L 424.159217 572.09749 
L 424.159217 572.357851 
" clip-path="url(#pb66d5997f4)" style="fill: none; stroke: #4c4c4c; stroke-linecap: round"/>
   </g>
   <g id="line2d_30">
    <path d="M 452.681464 572.357851 
L 452.681464 572.42857 
" clip-path="url(#pb66d5997f4)" style="fill: none; stroke: #4c4c4c; stroke-linecap: round"/>
   </g>
   <g id="line2d_31">
    <path d="M 452.681464 572.09749 
L 452.681464 546.196765 
" clip-path="url(#pb66d5997f4)" style="fill: none; stroke: #4c4c4c; stroke-linecap: round"/>
   </g>
   <g id="line2d_32">
    <path d="M 438.42034 572.42857 
L 466.942588 572.42857 
" clip-path="url(#pb66d5997f4)" style="fill: none; stroke: #1a1a1a; stroke-linecap: round"/>
   </g>
   <g id="line2d_33">
    <path d="M 438.42034 546.196765 
L 466.942588 546.196765 
" clip-path="url(#pb66d5997f4)" style="fill: none; stroke: #1a1a1a; stroke-linecap: round"/>
   </g>
   <g id="line2d_34">
    <path d="M 538.248207 571.73397 
L 595.292701 571.73397 
L 595.292701 570.515481 
L 538.248207 570.515481 
L 538.248207 571.73397 
" clip-path="url(#pb66d5997f4)" style="fill: none; stroke: #4c4c4c; stroke-linecap: round"/>
   </g>
   <g id="line2d_35">
    <path d="M 566.770454 571.73397 
L 566.770454 571.900057 
" clip-path="url(#pb66d5997f4)" style="fill: none; stroke: #4c4c4c; stroke-linecap: round"/>
   </g>
   <g id="line2d_36">
    <path d="M 566.770454 570.515481 
L 566.770454 545.064989 
" clip-path="url(#pb66d5997f4)" style="fill: none; stroke: #4c4c4c; stroke-linecap: round"/>
   </g>
   <g id="line2d_37">
    <path d="M 552.50933 571.900057 
L 581.031578 571.900057 
" clip-path="url(#pb66d5997f4)" style="fill: none; stroke: #1a1a1a; stroke-linecap: round"/>
   </g>
   <g id="line2d_38">
    <path d="M 552.50933 545.064989 
L 581.031578 545.064989 
" clip-path="url(#pb66d5997f4)" style="fill: none; stroke: #1a1a1a; stroke-linecap: round"/>
   </g>
   <g id="line2d_39">
    <path d="M 652.337196 570.284594 
L 709.381691 570.284594 
L 709.381691 549.913028 
L 652.337196 549.913028 
L 652.337196 570.284594 
" clip-path="url(#pb66d5997f4)" style="fill: none; stroke: #4c4c4c; stroke-linecap: round"/>
   </g>
   <g id="line2d_40">
    <path d="M 680.859444 570.284594 
L 680.859444 570.561771 
" clip-path="url(#pb66d5997f4)" style="fill: none; stroke: #4c4c4c; stroke-linecap: round"/>
   </g>
   <g id="line2d_41">
    <path d="M 680.859444 549.913028 
L 680.859444 514.495465 
" clip-path="url(#pb66d5997f4)" style="fill: none; stroke: #4c4c4c; stroke-linecap: round"/>
   </g>
   <g id="line2d_42">
    <path d="M 666.59832 570.561771 
L 695.120567 570.561771 
" clip-path="url(#pb66d5997f4)" style="fill: none; stroke: #1a1a1a; stroke-linecap: round"/>
   </g>
   <g id="line2d_43">
    <path d="M 666.59832 514.495465 
L 695.120567 514.495465 
" clip-path="url(#pb66d5997f4)" style="fill: none; stroke: #1a1a1a; stroke-linecap: round"/>
   </g>
   <g id="line2d_44">
    <path d="M 766.426186 547.936206 
L 823.470681 547.936206 
L 823.470681 538.435175 
L 766.426186 538.435175 
L 766.426186 547.936206 
" clip-path="url(#pb66d5997f4)" style="fill: none; stroke: #4c4c4c; stroke-linecap: round"/>
   </g>
   <g id="line2d_45">
    <path d="M 794.948434 547.936206 
L 794.948434 567.635344 
" clip-path="url(#pb66d5997f4)" style="fill: none; stroke: #4c4c4c; stroke-linecap: round"/>
   </g>
   <g id="line2d_46">
    <path d="M 794.948434 538.435175 
L 794.948434 416.706813 
" clip-path="url(#pb66d5997f4)" style="fill: none; stroke: #4c4c4c; stroke-linecap: round"/>
   </g>
   <g id="line2d_47">
    <path d="M 780.68731 567.635344 
L 809.209557 567.635344 
" clip-path="url(#pb66d5997f4)" style="fill: none; stroke: #1a1a1a; stroke-linecap: round"/>
   </g>
   <g id="line2d_48">
    <path d="M 780.68731 416.706813 
L 809.209557 416.706813 
" clip-path="url(#pb66d5997f4)" style="fill: none; stroke: #1a1a1a; stroke-linecap: round"/>
   </g>
   <g id="line2d_49">
    <path d="M 81.892247 540.023636 
L 138.936742 540.023636 
" clip-path="url(#pb66d5997f4)" style="fill: none; stroke: #b0b0b0; stroke-linecap: round"/>
   </g>
   <g id="line2d_50">
    <path d="M 195.981237 563.28724 
L 253.025732 563.28724 
" clip-path="url(#pb66d5997f4)" style="fill: none; stroke: #b0b0b0; stroke-linecap: round"/>
   </g>
   <g id="line2d_51">
    <path d="M 310.070227 567.516128 
L 367.114722 567.516128 
" clip-path="url(#pb66d5997f4)" style="fill: none; stroke: #b0b0b0; stroke-linecap: round"/>
   </g>
   <g id="line2d_52">
    <path d="M 424.159217 572.308829 
L 481.203712 572.308829 
" clip-path="url(#pb66d5997f4)" style="fill: none; stroke: #b0b0b0; stroke-linecap: round"/>
   </g>
   <g id="line2d_53">
    <path d="M 538.248207 571.634124 
L 595.292701 571.634124 
" clip-path="url(#pb66d5997f4)" style="fill: none; stroke: #b0b0b0; stroke-linecap: round"/>
   </g>
   <g id="line2d_54">
    <path d="M 652.337196 562.319595 
L 709.381691 562.319595 
" clip-path="url(#pb66d5997f4)" style="fill: none; stroke: #b0b0b0; stroke-linecap: round"/>
   </g>
   <g id="line2d_55">
    <path d="M 766.426186 547.164625 
L 823.470681 547.164625 
" clip-path="url(#pb66d5997f4)" style="fill: none; stroke: #b0b0b0; stroke-linecap: round"/>
   </g>
   <g id="patch_3">
    <path d="M 53.37 597.78 
L 53.37 40.32 
" style="fill: none; stroke: #ffffff; stroke-width: 1.25; stroke-linejoin: miter; stroke-linecap: square"/>
   </g>
   <g id="patch_4">
    <path d="M 851.992928 597.78 
L 851.992928 40.32 
" style="fill: none; stroke: #ffffff; stroke-width: 1.25; stroke-linejoin: miter; stroke-linecap: square"/>
   </g>
   <g id="patch_5">
    <path d="M 53.37 597.78 
L 851.992928 597.78 
" style="fill: none; stroke: #ffffff; stroke-width: 1.25; stroke-linejoin: miter; stroke-linecap: square"/>
   </g>
   <g id="patch_6">
    <path d="M 53.37 40.32 
L 851.992928 40.32 
" style="fill: none; stroke: #ffffff; stroke-width: 1.25; stroke-linejoin: miter; stroke-linecap: square"/>
   </g>
  </g>
  <g id="axes_2">
   <g id="patch_7">
    <path d="M 893.509812 597.78 
L 1692.13274 597.78 
L 1692.13274 40.32 
L 893.509812 40.32 
z
" style="fill: #eaeaf2"/>
   </g>
   <g id="matplotlib.axis_3">
    <g id="xtick_8">
     <g id="line2d_56">
      <path d="M 957.734732 597.78 
L 957.734732 40.32 
" clip-path="url(#p311eb58164)" style="fill: none; stroke: #ffffff; stroke-linecap: round"/>
     </g>
     <g id="text_16">
      <!-- allgather -->
      <g style="fill: #262626" transform="translate(933.159185 615.638281)scale(0.11 -0.11)">
       <use xlink:href="#DejaVuSans-61"/>
       <use xlink:href="#DejaVuSans-6c" x="61.279297"/>
       <use xlink:href="#DejaVuSans-6c" x="89.0625"/>
       <use xlink:href="#DejaVuSans-67" x="116.845703"/>
       <use xlink:href="#DejaVuSans-61" x="180.322266"/>
       <use xlink:href="#DejaVuSans-74" x="241.601562"/>
       <use xlink:href="#DejaVuSans-68" x="280.810547"/>
       <use xlink:href="#DejaVuSans-65" x="344.189453"/>
       <use xlink:href="#DejaVuSans-72" x="405.712891"/>
      </g>
     </g>
    </g>
    <g id="xtick_9">
     <g id="line2d_57">
      <path d="M 1069.430247 597.78 
L 1069.430247 40.32 
" clip-path="url(#p311eb58164)" style="fill: none; stroke: #ffffff; stroke-linecap: round"/>
     </g>
     <g id="text_17">
      <!-- allreduce -->
      <g style="fill: #262626" transform="translate(1044.096731 615.638281)scale(0.11 -0.11)">
       <use xlink:href="#DejaVuSans-61"/>
       <use xlink:href="#DejaVuSans-6c" x="61.279297"/>
       <use xlink:href="#DejaVuSans-6c" x="89.0625"/>
       <use xlink:href="#DejaVuSans-72" x="116.845703"/>
       <use xlink:href="#DejaVuSans-65" x="155.708984"/>
       <use xlink:href="#DejaVuSans-64" x="217.232422"/>
       <use xlink:href="#DejaVuSans-75" x="280.708984"/>
       <use xlink:href="#DejaVuSans-63" x="344.087891"/>
       <use xlink:href="#DejaVuSans-65" x="399.068359"/>
      </g>
     </g>
    </g>
    <g id="xtick_10">
     <g id="line2d_58">
      <path d="M 1181.125761 597.78 
L 1181.125761 40.32 
" clip-path="url(#p311eb58164)" style="fill: none; stroke: #ffffff; stroke-linecap: round"/>
     </g>
     <g id="text_18">
      <!-- allreduce-ring -->
      <g style="fill: #262626" transform="translate(1143.041699 615.638281)scale(0.11 -0.11)">
       <use xlink:href="#DejaVuSans-61"/>
       <use xlink:href="#DejaVuSans-6c" x="61.279297"/>
       <use xlink:href="#DejaVuSans-6c" x="89.0625"/>
       <use xlink:href="#DejaVuSans-72" x="116.845703"/>
       <use xlink:href="#DejaVuSans-65" x="155.708984"/>
       <use xlink:href="#DejaVuSans-64" x="217.232422"/>
       <use xlink:href="#DejaVuSans-75" x="280.708984"/>
       <use xlink:href="#DejaVuSans-63" x="344.087891"/>
       <use xlink:href="#DejaVuSans-65" x="399.068359"/>
       <use xlink:href="#DejaVuSans-2d" x="460.591797"/>
       <use xlink:href="#DejaVuSans-72" x="496.675781"/>
       <use xlink:href="#DejaVuSans-69" x="537.789062"/>
       <use xlink:href="#DejaVuSans-6e" x="565.572266"/>
       <use xlink:href="#DejaVuSans-67" x="628.951172"/>
      </g>
     </g>
    </g>
    <g id="xtick_11">
     <g id="line2d_59">
      <path d="M 1292.821276 597.78 
L 1292.821276 40.32 
" clip-path="url(#p311eb58164)" style="fill: none; stroke: #ffffff; stroke-linecap: round"/>
     </g>
     <g id="text_19">
      <!-- g-rabenseifner-allgather -->
      <g style="fill: #262626" transform="translate(1226.298776 615.638281)scale(0.11 -0.11)">
       <use xlink:href="#DejaVuSans-67"/>
       <use xlink:href="#DejaVuSans-2d" x="63.476562"/>
       <use xlink:href="#DejaVuSans-72" x="99.560547"/>
       <use xlink:href="#DejaVuSans-61" x="140.673828"/>
       <use xlink:href="#DejaVuSans-62" x="201.953125"/>
       <use xlink:href="#DejaVuSans-65" x="265.429688"/>
       <use xlink:href="#DejaVuSans-6e" x="326.953125"/>
       <use xlink:href="#DejaVuSans-73" x="390.332031"/>
       <use xlink:href="#DejaVuSans-65" x="442.431641"/>
       <use xlink:href="#DejaVuSans-69" x="503.955078"/>
       <use xlink:href="#DejaVuSans-66" x="531.738281"/>
       <use xlink:href="#DejaVuSans-6e" x="566.943359"/>
       <use xlink:href="#DejaVuSans-65" x="630.322266"/>
       <use xlink:href="#DejaVuSans-72" x="691.845703"/>
       <use xlink:href="#DejaVuSans-2d" x="726.583984"/>
       <use xlink:href="#DejaVuSans-61" x="762.667969"/>
       <use xlink:href="#DejaVuSans-6c" x="823.947266"/>
       <use xlink:href="#DejaVuSans-6c" x="851.730469"/>
       <use xlink:href="#DejaVuSans-67" x="879.513672"/>
       <use xlink:href="#DejaVuSans-61" x="942.990234"/>
       <use xlink:href="#DejaVuSans-74" x="1004.269531"/>
       <use xlink:href="#DejaVuSans-68" x="1043.478516"/>
       <use xlink:href="#DejaVuSans-65" x="1106.857422"/>
       <use xlink:href="#DejaVuSans-72" x="1168.380859"/>
      </g>
     </g>
    </g>
    <g id="xtick_12">
     <g id="line2d_60">
      <path d="M 1404.51679 597.78 
L 1404.51679 40.32 
" clip-path="url(#p311eb58164)" style="fill: none; stroke: #ffffff; stroke-linecap: round"/>
     </g>
     <g id="text_20">
      <!-- g-rabenseifner-subgroup-2 -->
      <g style="fill: #262626" transform="translate(1331.272259 615.638281)scale(0.11 -0.11)">
       <use xlink:href="#DejaVuSans-67"/>
       <use xlink:href="#DejaVuSans-2d" x="63.476562"/>
       <use xlink:href="#DejaVuSans-72" x="99.560547"/>
       <use xlink:href="#DejaVuSans-61" x="140.673828"/>
       <use xlink:href="#DejaVuSans-62" x="201.953125"/>
       <use xlink:href="#DejaVuSans-65" x="265.429688"/>
       <use xlink:href="#DejaVuSans-6e" x="326.953125"/>
       <use xlink:href="#DejaVuSans-73" x="390.332031"/>
       <use xlink:href="#DejaVuSans-65" x="442.431641"/>
       <use xlink:href="#DejaVuSans-69" x="503.955078"/>
       <use xlink:href="#DejaVuSans-66" x="531.738281"/>
       <use xlink:href="#DejaVuSans-6e" x="566.943359"/>
       <use xlink:href="#DejaVuSans-65" x="630.322266"/>
       <use xlink:href="#DejaVuSans-72" x="691.845703"/>
       <use xlink:href="#DejaVuSans-2d" x="726.583984"/>
       <use xlink:href="#DejaVuSans-73" x="762.667969"/>
       <use xlink:href="#DejaVuSans-75" x="814.767578"/>
       <use xlink:href="#DejaVuSans-62" x="878.146484"/>
       <use xlink:href="#DejaVuSans-67" x="941.623047"/>
       <use xlink:href="#DejaVuSans-72" x="1005.099609"/>
       <use xlink:href="#DejaVuSans-6f" x="1043.962891"/>
       <use xlink:href="#DejaVuSans-75" x="1105.144531"/>
       <use xlink:href="#DejaVuSans-70" x="1168.523438"/>
       <use xlink:href="#DejaVuSans-2d" x="1232"/>
       <use xlink:href="#DejaVuSans-32" x="1268.083984"/>
      </g>
     </g>
    </g>
    <g id="xtick_13">
     <g id="line2d_61">
      <path d="M 1516.212305 597.78 
L 1516.212305 40.32 
" clip-path="url(#p311eb58164)" style="fill: none; stroke: #ffffff; stroke-linecap: round"/>
     </g>
     <g id="text_21">
      <!-- g-rabenseifner-subgroup-4 -->
      <g style="fill: #262626" transform="translate(1442.967773 615.638281)scale(0.11 -0.11)">
       <use xlink:href="#DejaVuSans-67"/>
       <use xlink:href="#DejaVuSans-2d" x="63.476562"/>
       <use xlink:href="#DejaVuSans-72" x="99.560547"/>
       <use xlink:href="#DejaVuSans-61" x="140.673828"/>
       <use xlink:href="#DejaVuSans-62" x="201.953125"/>
       <use xlink:href="#DejaVuSans-65" x="265.429688"/>
       <use xlink:href="#DejaVuSans-6e" x="326.953125"/>
       <use xlink:href="#DejaVuSans-73" x="390.332031"/>
       <use xlink:href="#DejaVuSans-65" x="442.431641"/>
       <use xlink:href="#DejaVuSans-69" x="503.955078"/>
       <use xlink:href="#DejaVuSans-66" x="531.738281"/>
       <use xlink:href="#DejaVuSans-6e" x="566.943359"/>
       <use xlink:href="#DejaVuSans-65" x="630.322266"/>
       <use xlink:href="#DejaVuSans-72" x="691.845703"/>
       <use xlink:href="#DejaVuSans-2d" x="726.583984"/>
       <use xlink:href="#DejaVuSans-73" x="762.667969"/>
       <use xlink:href="#DejaVuSans-75" x="814.767578"/>
       <use xlink:href="#DejaVuSans-62" x="878.146484"/>
       <use xlink:href="#DejaVuSans-67" x="941.623047"/>
       <use xlink:href="#DejaVuSans-72" x="1005.099609"/>
       <use xlink:href="#DejaVuSans-6f" x="1043.962891"/>
       <use xlink:href="#DejaVuSans-75" x="1105.144531"/>
       <use xlink:href="#DejaVuSans-70" x="1168.523438"/>
       <use xlink:href="#DejaVuSans-2d" x="1232"/>
       <use xlink:href="#DejaVuSans-34" x="1268.083984"/>
      </g>
     </g>
    </g>
    <g id="xtick_14">
     <g id="line2d_62">
      <path d="M 1627.907819 597.78 
L 1627.907819 40.32 
" clip-path="url(#p311eb58164)" style="fill: none; stroke: #ffffff; stroke-linecap: round"/>
     </g>
     <g id="text_22">
      <!-- g-rabenseifner-subgroup-8 -->
      <g style="fill: #262626" transform="translate(1554.663288 615.638281)scale(0.11 -0.11)">
       <use xlink:href="#DejaVuSans-67"/>
       <use xlink:href="#DejaVuSans-2d" x="63.476562"/>
       <use xlink:href="#DejaVuSans-72" x="99.560547"/>
       <use xlink:href="#DejaVuSans-61" x="140.673828"/>
       <use xlink:href="#DejaVuSans-62" x="201.953125"/>
       <use xlink:href="#DejaVuSans-65" x="265.429688"/>
       <use xlink:href="#DejaVuSans-6e" x="326.953125"/>
       <use xlink:href="#DejaVuSans-73" x="390.332031"/>
       <use xlink:href="#DejaVuSans-65" x="442.431641"/>
       <use xlink:href="#DejaVuSans-69" x="503.955078"/>
       <use xlink:href="#DejaVuSans-66" x="531.738281"/>
       <use xlink:href="#DejaVuSans-6e" x="566.943359"/>
       <use xlink:href="#DejaVuSans-65" x="630.322266"/>
       <use xlink:href="#DejaVuSans-72" x="691.845703"/>
       <use xlink:href="#DejaVuSans-2d" x="726.583984"/>
       <use xlink:href="#DejaVuSans-73" x="762.667969"/>
       <use xlink:href="#DejaVuSans-75" x="814.767578"/>
       <use xlink:href="#DejaVuSans-62" x="878.146484"/>
       <use xlink:href="#DejaVuSans-67" x="941.623047"/>
       <use xlink:href="#DejaVuSans-72" x="1005.099609"/>
       <use xlink:href="#DejaVuSans-6f" x="1043.962891"/>
       <use xlink:href="#DejaVuSans-75" x="1105.144531"/>
       <use xlink:href="#DejaVuSans-70" x="1168.523438"/>
       <use xlink:href="#DejaVuSans-2d" x="1232"/>
       <use xlink:href="#DejaVuSans-38" x="1268.083984"/>
      </g>
     </g>
    </g>
    <g id="text_23">
     <!-- [impl] -->
     <g style="fill: #262626" transform="translate(1275.152213 631.044062)scale(0.12 -0.12)">
      <use xlink:href="#DejaVuSans-5b"/>
      <use xlink:href="#DejaVuSans-69" x="39.013672"/>
      <use xlink:href="#DejaVuSans-6d" x="66.796875"/>
      <use xlink:href="#DejaVuSans-70" x="164.208984"/>
      <use xlink:href="#DejaVuSans-6c" x="227.685547"/>
      <use xlink:href="#DejaVuSans-5d" x="255.46875"/>
     </g>
    </g>
   </g>
   <g id="matplotlib.axis_4">
    <g id="ytick_7">
     <g id="line2d_63">
      <path d="M 893.509812 577.353947 
L 1692.13274 577.353947 
" clip-path="url(#p311eb58164)" style="fill: none; stroke: #ffffff; stroke-linecap: round"/>
     </g>
    </g>
    <g id="ytick_8">
     <g id="line2d_64">
      <path d="M 893.509812 480.996065 
L 1692.13274 480.996065 
" clip-path="url(#p311eb58164)" style="fill: none; stroke: #ffffff; stroke-linecap: round"/>
     </g>
    </g>
    <g id="ytick_9">
     <g id="line2d_65">
      <path d="M 893.509812 384.638182 
L 1692.13274 384.638182 
" clip-path="url(#p311eb58164)" style="fill: none; stroke: #ffffff; stroke-linecap: round"/>
     </g>
    </g>
    <g id="ytick_10">
     <g id="line2d_66">
      <path d="M 893.509812 288.2803 
L 1692.13274 288.2803 
" clip-path="url(#p311eb58164)" style="fill: none; stroke: #ffffff; stroke-linecap: round"/>
     </g>
    </g>
    <g id="ytick_11">
     <g id="line2d_67">
      <path d="M 893.509812 191.922418 
L 1692.13274 191.922418 
" clip-path="url(#p311eb58164)" style="fill: none; stroke: #ffffff; stroke-linecap: round"/>
     </g>
    </g>
    <g id="ytick_12">
     <g id="line2d_68">
      <path d="M 893.509812 95.564535 
L 1692.13274 95.564535 
" clip-path="url(#p311eb58164)" style="fill: none; stroke: #ffffff; stroke-linecap: round"/>
     </g>
    </g>
   </g>
   <g id="PolyCollection_1">
    <defs>
     <path id="m3693450d0c" d="M 961.242906 -101.490568 
L 954.226559 -101.490568 
L 954.053635 -101.656271 
L 953.91372 -101.821974 
L 953.804164 -101.987677 
L 953.720325 -102.153381 
L 953.656208 -102.319084 
L 953.605154 -102.484787 
L 953.560446 -102.65049 
L 953.515738 -102.816194 
L 953.465217 -102.981897 
L 953.403481 -103.1476 
L 953.325171 -103.313303 
L 953.224436 -103.479007 
L 953.094345 -103.64471 
L 952.926376 -103.810413 
L 952.710086 -103.976116 
L 952.43308 -104.14182 
L 952.081308 -104.307523 
L 951.639718 -104.473226 
L 951.093227 -104.638929 
L 950.427928 -104.804633 
L 949.632442 -104.970336 
L 948.699281 -105.136039 
L 947.626098 -105.301742 
L 946.416702 -105.467446 
L 945.081718 -105.633149 
L 943.638833 -105.798852 
L 942.112566 -105.964555 
L 940.533539 -106.130258 
L 938.93731 -106.295962 
L 937.362789 -106.461665 
L 935.850374 -106.627368 
L 934.439907 -106.793071 
L 933.168627 -106.958775 
L 932.069261 -107.124478 
L 931.168423 -107.290181 
L 930.485451 -107.455884 
L 930.031774 -107.621588 
L 929.810854 -107.787291 
L 929.818674 -107.952994 
L 930.044688 -108.118697 
L 930.473088 -108.284401 
L 931.084217 -108.450104 
L 931.855958 -108.615807 
L 932.764937 -108.78151 
L 933.787441 -108.947214 
L 934.900023 -109.112917 
L 936.079818 -109.27862 
L 937.304663 -109.444323 
L 938.553147 -109.610027 
L 939.8047 -109.77573 
L 941.039834 -109.941433 
L 942.240566 -110.107136 
L 943.391003 -110.27284 
L 944.478014 -110.438543 
L 945.491876 -110.604246 
L 946.426748 -110.769949 
L 947.280879 -110.935653 
L 948.056457 -111.101356 
L 948.759091 -111.267059 
L 949.396977 -111.432762 
L 949.979823 -111.598466 
L 950.517691 -111.764169 
L 951.019882 -111.929872 
L 951.494018 -112.095575 
L 951.945403 -112.261279 
L 952.376757 -112.426982 
L 952.788306 -112.592685 
L 953.178215 -112.758388 
L 953.543265 -112.924091 
L 953.879691 -113.089795 
L 954.18403 -113.255498 
L 954.453891 -113.421201 
L 954.688522 -113.586904 
L 954.889118 -113.752608 
L 955.058835 -113.918311 
L 955.202508 -114.084014 
L 955.326144 -114.249717 
L 955.43624 -114.415421 
L 955.539053 -114.581124 
L 955.639907 -114.746827 
L 955.742635 -114.91253 
L 955.849236 -115.078234 
L 955.95979 -115.243937 
L 956.072614 -115.40964 
L 956.184663 -115.575343 
L 956.292081 -115.741047 
L 956.390841 -115.90675 
L 956.477376 -116.072453 
L 956.549122 -116.238156 
L 956.604897 -116.40386 
L 956.645084 -116.569563 
L 956.671599 -116.735266 
L 956.687657 -116.900969 
L 956.697386 -117.066673 
L 956.705342 -117.232376 
L 956.715989 -117.398079 
L 956.733228 -117.563782 
L 956.760012 -117.729486 
L 956.798099 -117.895189 
L 958.671365 -117.895189 
L 958.671365 -117.895189 
L 958.709453 -117.729486 
L 958.736237 -117.563782 
L 958.753476 -117.398079 
L 958.764123 -117.232376 
L 958.772078 -117.066673 
L 958.781808 -116.900969 
L 958.797866 -116.735266 
L 958.824381 -116.569563 
L 958.864568 -116.40386 
L 958.920343 -116.238156 
L 958.992088 -116.072453 
L 959.078624 -115.90675 
L 959.177384 -115.741047 
L 959.284802 -115.575343 
L 959.396851 -115.40964 
L 959.509675 -115.243937 
L 959.620228 -115.078234 
L 959.72683 -114.91253 
L 959.829557 -114.746827 
L 959.930411 -114.581124 
L 960.033225 -114.415421 
L 960.143321 -114.249717 
L 960.266956 -114.084014 
L 960.41063 -113.918311 
L 960.580346 -113.752608 
L 960.780943 -113.586904 
L 961.015574 -113.421201 
L 961.285434 -113.255498 
L 961.589774 -113.089795 
L 961.926199 -112.924091 
L 962.29125 -112.758388 
L 962.681158 -112.592685 
L 963.092708 -112.426982 
L 963.524062 -112.261279 
L 963.975447 -112.095575 
L 964.449582 -111.929872 
L 964.951774 -111.764169 
L 965.489642 -111.598466 
L 966.072488 -111.432762 
L 966.710373 -111.267059 
L 967.413008 -111.101356 
L 968.188585 -110.935653 
L 969.042716 -110.769949 
L 969.977589 -110.604246 
L 970.99145 -110.438543 
L 972.078462 -110.27284 
L 973.228899 -110.107136 
L 974.429631 -109.941433 
L 975.664765 -109.77573 
L 976.916318 -109.610027 
L 978.164801 -109.444323 
L 979.389647 -109.27862 
L 980.569442 -109.112917 
L 981.682024 -108.947214 
L 982.704528 -108.78151 
L 983.613507 -108.615807 
L 984.385248 -108.450104 
L 984.996377 -108.284401 
L 985.424777 -108.118697 
L 985.650791 -107.952994 
L 985.658611 -107.787291 
L 985.437691 -107.621588 
L 984.984014 -107.455884 
L 984.301042 -107.290181 
L 983.400204 -107.124478 
L 982.300838 -106.958775 
L 981.029558 -106.793071 
L 979.619091 -106.627368 
L 978.106676 -106.461665 
L 976.532155 -106.295962 
L 974.935926 -106.130258 
L 973.356899 -105.964555 
L 971.830631 -105.798852 
L 970.387747 -105.633149 
L 969.052763 -105.467446 
L 967.843366 -105.301742 
L 966.770184 -105.136039 
L 965.837023 -104.970336 
L 965.041537 -104.804633 
L 964.376237 -104.638929 
L 963.829746 -104.473226 
L 963.388157 -104.307523 
L 963.036384 -104.14182 
L 962.759378 -103.976116 
L 962.543089 -103.810413 
L 962.375119 -103.64471 
L 962.245029 -103.479007 
L 962.144294 -103.313303 
L 962.065983 -103.1476 
L 962.004247 -102.981897 
L 961.953727 -102.816194 
L 961.909019 -102.65049 
L 961.864311 -102.484787 
L 961.813256 -102.319084 
L 961.74914 -102.153381 
L 961.665301 -101.987677 
L 961.555745 -101.821974 
L 961.41583 -101.656271 
L 961.242906 -101.490568 
z
" style="stroke: #ffffff; stroke-opacity: 0.3"/>
    </defs>
    <g clip-path="url(#p311eb58164)">
     <use xlink:href="#m3693450d0c" x="0" y="648" style="fill: #4c72b0; fill-opacity: 0.3; stroke: #ffffff; stroke-opacity: 0.3"/>
    </g>
   </g>
   <g id="PolyCollection_2">
    <defs>
     <path id="ma6c3efada9" d="M 1096.924208 -83.624303 
L 1041.936285 -83.624303 
L 1041.506368 -86.154005 
L 1041.938231 -88.683707 
L 1043.152709 -91.213409 
L 1044.998062 -93.74311 
L 1047.276695 -96.272812 
L 1049.776688 -98.802514 
L 1052.301385 -101.332216 
L 1054.691679 -103.861917 
L 1056.838095 -106.391619 
L 1058.682541 -108.921321 
L 1060.211785 -111.451023 
L 1061.445899 -113.980724 
L 1062.425048 -116.510426 
L 1063.197388 -119.040128 
L 1063.809814 -121.569829 
L 1064.302272 -124.099531 
L 1064.705482 -126.629233 
L 1065.041346 -129.158935 
L 1065.325033 -131.688636 
L 1065.567663 -134.218338 
L 1065.778719 -136.74804 
L 1065.967549 -139.277742 
L 1066.143754 -141.807443 
L 1066.316571 -144.337145 
L 1066.493639 -146.866847 
L 1066.679693 -149.396549 
L 1066.87565 -151.92625 
L 1067.078446 -154.455952 
L 1067.281708 -156.985654 
L 1067.477137 -159.515356 
L 1067.656257 -162.045057 
L 1067.812147 -164.574759 
L 1067.940758 -167.104461 
L 1068.041561 -169.634162 
L 1068.11744 -172.163864 
L 1068.173925 -174.693566 
L 1068.218008 -177.223268 
L 1068.256836 -179.752969 
L 1068.296587 -182.282671 
L 1068.341717 -184.812373 
L 1068.394666 -187.342075 
L 1068.455972 -189.871776 
L 1068.524657 -192.401478 
L 1068.598704 -194.93118 
L 1068.675515 -197.460882 
L 1068.752234 -199.990583 
L 1068.825972 -202.520285 
L 1068.893957 -205.049987 
L 1068.953696 -207.579688 
L 1069.00318 -210.10939 
L 1069.041145 -212.639092 
L 1069.067327 -215.168794 
L 1069.082636 -217.698495 
L 1069.089163 -220.228197 
L 1069.089976 -222.757899 
L 1069.088716 -225.287601 
L 1069.089053 -227.817302 
L 1069.094117 -230.347004 
L 1069.106031 -232.876706 
L 1069.125634 -235.406408 
L 1069.152454 -237.936109 
L 1069.184928 -240.465811 
L 1069.220782 -242.995513 
L 1069.257492 -245.525214 
L 1069.292713 -248.054916 
L 1069.324597 -250.584618 
L 1069.351959 -253.11432 
L 1069.374295 -255.644021 
L 1069.391683 -258.173723 
L 1069.404616 -260.703425 
L 1069.413821 -263.233127 
L 1069.420096 -265.762828 
L 1069.424197 -268.29253 
L 1069.426768 -270.822232 
L 1069.428313 -273.351934 
L 1069.429199 -275.881635 
L 1069.429672 -278.411337 
L 1069.429884 -280.941039 
L 1069.42991 -283.47074 
L 1069.429759 -286.000442 
L 1069.429377 -288.530144 
L 1069.428639 -291.059846 
L 1069.427327 -293.589547 
L 1069.425115 -296.119249 
L 1069.421541 -298.648951 
L 1069.416005 -301.178653 
L 1069.40778 -303.708354 
L 1069.396074 -306.238056 
L 1069.38013 -308.767758 
L 1069.35938 -311.29746 
L 1069.333627 -313.827161 
L 1069.303233 -316.356863 
L 1069.269257 -318.886565 
L 1069.2335 -321.416266 
L 1069.198411 -323.945968 
L 1069.166849 -326.47567 
L 1069.141706 -329.005372 
L 1069.125482 -331.535073 
L 1069.119874 -334.064775 
L 1069.74062 -334.064775 
L 1069.74062 -334.064775 
L 1069.735012 -331.535073 
L 1069.718788 -329.005372 
L 1069.693645 -326.47567 
L 1069.662082 -323.945968 
L 1069.626994 -321.416266 
L 1069.591237 -318.886565 
L 1069.557261 -316.356863 
L 1069.526867 -313.827161 
L 1069.501114 -311.29746 
L 1069.480364 -308.767758 
L 1069.46442 -306.238056 
L 1069.452714 -303.708354 
L 1069.444489 -301.178653 
L 1069.438952 -298.648951 
L 1069.435379 -296.119249 
L 1069.433166 -293.589547 
L 1069.431855 -291.059846 
L 1069.431116 -288.530144 
L 1069.430735 -286.000442 
L 1069.430584 -283.47074 
L 1069.43061 -280.941039 
L 1069.430822 -278.411337 
L 1069.431295 -275.881635 
L 1069.43218 -273.351934 
L 1069.433725 -270.822232 
L 1069.436296 -268.29253 
L 1069.440398 -265.762828 
L 1069.446673 -263.233127 
L 1069.455877 -260.703425 
L 1069.46881 -258.173723 
L 1069.486198 -255.644021 
L 1069.508534 -253.11432 
L 1069.535896 -250.584618 
L 1069.56778 -248.054916 
L 1069.603002 -245.525214 
L 1069.639712 -242.995513 
L 1069.675566 -240.465811 
L 1069.70804 -237.936109 
L 1069.73486 -235.406408 
L 1069.754462 -232.876706 
L 1069.766377 -230.347004 
L 1069.771441 -227.817302 
L 1069.771778 -225.287601 
L 1069.770517 -222.757899 
L 1069.771331 -220.228197 
L 1069.777857 -217.698495 
L 1069.793167 -215.168794 
L 1069.819349 -212.639092 
L 1069.857314 -210.10939 
L 1069.906798 -207.579688 
L 1069.966536 -205.049987 
L 1070.034522 -202.520285 
L 1070.10826 -199.990583 
L 1070.184979 -197.460882 
L 1070.261789 -194.93118 
L 1070.335837 -192.401478 
L 1070.404521 -189.871776 
L 1070.465828 -187.342075 
L 1070.518777 -184.812373 
L 1070.563906 -182.282671 
L 1070.603657 -179.752969 
L 1070.642486 -177.223268 
L 1070.686569 -174.693566 
L 1070.743054 -172.163864 
L 1070.818933 -169.634162 
L 1070.919736 -167.104461 
L 1071.048347 -164.574759 
L 1071.204237 -162.045057 
L 1071.383357 -159.515356 
L 1071.578785 -156.985654 
L 1071.782048 -154.455952 
L 1071.984843 -151.92625 
L 1072.1808 -149.396549 
L 1072.366855 -146.866847 
L 1072.543923 -144.337145 
L 1072.716739 -141.807443 
L 1072.892945 -139.277742 
L 1073.081775 -136.74804 
L 1073.292831 -134.218338 
L 1073.535461 -131.688636 
L 1073.819147 -129.158935 
L 1074.155012 -126.629233 
L 1074.558222 -124.099531 
L 1075.05068 -121.569829 
L 1075.663105 -119.040128 
L 1076.435445 -116.510426 
L 1077.414595 -113.980724 
L 1078.648709 -111.451023 
L 1080.177953 -108.921321 
L 1082.022398 -106.391619 
L 1084.168814 -103.861917 
L 1086.559109 -101.332216 
L 1089.083806 -98.802514 
L 1091.583798 -96.272812 
L 1093.862432 -93.74311 
L 1095.707785 -91.213409 
L 1096.922263 -88.683707 
L 1097.354125 -86.154005 
L 1096.924208 -83.624303 
z
" style="stroke: #ffffff; stroke-opacity: 0.3"/>
    </defs>
    <g clip-path="url(#p311eb58164)">
     <use xlink:href="#ma6c3efada9" x="0" y="648" style="fill: #4c72b0; fill-opacity: 0.3; stroke: #ffffff; stroke-opacity: 0.3"/>
    </g>
   </g>
   <g id="PolyCollection_3">
    <defs>
     <path id="m46db64146d" d="M 1208.725152 -79.786822 
L 1153.526371 -79.786822 
L 1153.201883 -81.516028 
L 1153.292957 -83.245234 
L 1153.784073 -84.97444 
L 1154.640859 -86.703646 
L 1155.813194 -88.432852 
L 1157.239395 -90.162058 
L 1158.851038 -91.891264 
L 1160.577893 -93.62047 
L 1162.352488 -95.349676 
L 1164.11393 -97.078882 
L 1165.810721 -98.808088 
L 1167.402457 -100.537294 
L 1168.860434 -102.2665 
L 1170.167294 -103.995706 
L 1171.315921 -105.724912 
L 1172.307818 -107.454118 
L 1173.151223 -109.183324 
L 1173.859163 -110.91253 
L 1174.447621 -112.641736 
L 1174.933929 -114.370942 
L 1175.335462 -116.100148 
L 1175.668642 -117.829354 
L 1175.948255 -119.55856 
L 1176.187037 -121.287766 
L 1176.395497 -123.016972 
L 1176.581915 -124.746178 
L 1176.752478 -126.475384 
L 1176.911504 -128.20459 
L 1177.061713 -129.933796 
L 1177.204532 -131.663002 
L 1177.3404 -133.392208 
L 1177.469056 -135.121414 
L 1177.58981 -136.85062 
L 1177.701788 -138.579826 
L 1177.804146 -140.309032 
L 1177.896245 -142.038238 
L 1177.977795 -143.767444 
L 1178.048967 -145.49665 
L 1178.110451 -147.225856 
L 1178.163475 -148.955062 
L 1178.209782 -150.684268 
L 1178.251548 -152.413474 
L 1178.291255 -154.14268 
L 1178.331528 -155.871886 
L 1178.374936 -157.601092 
L 1178.423772 -159.330298 
L 1178.479846 -161.059504 
L 1178.544296 -162.78871 
L 1178.617443 -164.517916 
L 1178.698715 -166.247122 
L 1178.786652 -167.976328 
L 1178.878995 -169.705534 
L 1178.972858 -171.43474 
L 1179.064975 -173.163946 
L 1179.151995 -174.893152 
L 1179.2308 -176.622358 
L 1179.298812 -178.351564 
L 1179.354256 -180.08077 
L 1179.396353 -181.809976 
L 1179.425419 -183.539182 
L 1179.442863 -185.268388 
L 1179.451077 -186.997594 
L 1179.453241 -188.7268 
L 1179.45305 -190.456006 
L 1179.454406 -192.185212 
L 1179.461095 -193.914418 
L 1179.47649 -195.643624 
L 1179.503292 -197.37283 
L 1179.543352 -199.102036 
L 1179.597562 -200.831242 
L 1179.665838 -202.560448 
L 1179.747173 -204.289654 
L 1179.839764 -206.01886 
L 1179.941184 -207.748066 
L 1180.04858 -209.477272 
L 1180.158889 -211.206478 
L 1180.269035 -212.935684 
L 1180.376107 -214.66489 
L 1180.477505 -216.394096 
L 1180.571039 -218.123302 
L 1180.654994 -219.852508 
L 1180.72815 -221.581714 
L 1180.789776 -223.31092 
L 1180.839597 -225.040126 
L 1180.877745 -226.769332 
L 1180.904709 -228.498538 
L 1180.921277 -230.227744 
L 1180.928483 -231.95695 
L 1180.927566 -233.686156 
L 1180.919922 -235.415362 
L 1180.907065 -237.144568 
L 1180.890586 -238.873774 
L 1180.872102 -240.60298 
L 1180.853207 -242.332186 
L 1180.83541 -244.061392 
L 1180.820076 -245.790598 
L 1180.808362 -247.519804 
L 1180.801164 -249.24901 
L 1180.799076 -250.978216 
L 1181.452446 -250.978216 
L 1181.452446 -250.978216 
L 1181.450359 -249.24901 
L 1181.443161 -247.519804 
L 1181.431447 -245.790598 
L 1181.416113 -244.061392 
L 1181.398316 -242.332186 
L 1181.379421 -240.60298 
L 1181.360937 -238.873774 
L 1181.344457 -237.144568 
L 1181.331601 -235.415362 
L 1181.323957 -233.686156 
L 1181.323039 -231.95695 
L 1181.330246 -230.227744 
L 1181.346813 -228.498538 
L 1181.373778 -226.769332 
L 1181.411926 -225.040126 
L 1181.461747 -223.31092 
L 1181.523373 -221.581714 
L 1181.596529 -219.852508 
L 1181.680484 -218.123302 
L 1181.774018 -216.394096 
L 1181.875416 -214.66489 
L 1181.982488 -212.935684 
L 1182.092633 -211.206478 
L 1182.202942 -209.477272 
L 1182.310339 -207.748066 
L 1182.411759 -206.01886 
L 1182.50435 -204.289654 
L 1182.585685 -202.560448 
L 1182.65396 -200.831242 
L 1182.708171 -199.102036 
L 1182.748231 -197.37283 
L 1182.775033 -195.643624 
L 1182.790427 -193.914418 
L 1182.797117 -192.185212 
L 1182.798473 -190.456006 
L 1182.798282 -188.7268 
L 1182.800446 -186.997594 
L 1182.80866 -185.268388 
L 1182.826104 -183.539182 
L 1182.85517 -181.809976 
L 1182.897266 -180.08077 
L 1182.95271 -178.351564 
L 1183.020722 -176.622358 
L 1183.099528 -174.893152 
L 1183.186548 -173.163946 
L 1183.278665 -171.43474 
L 1183.372528 -169.705534 
L 1183.46487 -167.976328 
L 1183.552808 -166.247122 
L 1183.63408 -164.517916 
L 1183.707226 -162.78871 
L 1183.771676 -161.059504 
L 1183.827751 -159.330298 
L 1183.876587 -157.601092 
L 1183.919994 -155.871886 
L 1183.960268 -154.14268 
L 1183.999975 -152.413474 
L 1184.04174 -150.684268 
L 1184.088048 -148.955062 
L 1184.141072 -147.225856 
L 1184.202555 -145.49665 
L 1184.273727 -143.767444 
L 1184.355278 -142.038238 
L 1184.447376 -140.309032 
L 1184.549734 -138.579826 
L 1184.661713 -136.85062 
L 1184.782467 -135.121414 
L 1184.911122 -133.392208 
L 1185.04699 -131.663002 
L 1185.18981 -129.933796 
L 1185.340019 -128.20459 
L 1185.499044 -126.475384 
L 1185.669608 -124.746178 
L 1185.856026 -123.016972 
L 1186.064485 -121.287766 
L 1186.303267 -119.55856 
L 1186.58288 -117.829354 
L 1186.916061 -116.100148 
L 1187.317594 -114.370942 
L 1187.803902 -112.641736 
L 1188.392359 -110.91253 
L 1189.100299 -109.183324 
L 1189.943705 -107.454118 
L 1190.935602 -105.724912 
L 1192.084228 -103.995706 
L 1193.391089 -102.2665 
L 1194.849066 -100.537294 
L 1196.440801 -98.808088 
L 1198.137592 -97.078882 
L 1199.899034 -95.349676 
L 1201.673629 -93.62047 
L 1203.400485 -91.891264 
L 1205.012128 -90.162058 
L 1206.438328 -88.432852 
L 1207.610663 -86.703646 
L 1208.46745 -84.97444 
L 1208.958565 -83.245234 
L 1209.04964 -81.516028 
L 1208.725152 -79.786822 
z
" style="stroke: #ffffff; stroke-opacity: 0.3"/>
    </defs>
    <g clip-path="url(#p311eb58164)">
     <use xlink:href="#m46db64146d" x="0" y="648" style="fill: #4c72b0; fill-opacity: 0.3; stroke: #ffffff; stroke-opacity: 0.3"/>
    </g>
   </g>
   <g id="PolyCollection_4">
    <defs>
     <path id="me12613bb3d" d="M 1320.745154 -75.559091 
L 1264.897397 -75.559091 
L 1265.109572 -76.859502 
L 1266.431088 -78.159914 
L 1268.670189 -79.460325 
L 1271.53669 -80.760737 
L 1274.700234 -82.061149 
L 1277.849762 -83.36156 
L 1280.739855 -84.661972 
L 1283.215351 -85.962383 
L 1285.212987 -87.262795 
L 1286.745059 -88.563206 
L 1287.873491 -89.863618 
L 1288.682806 -91.164029 
L 1289.258317 -92.464441 
L 1289.672544 -93.764852 
L 1289.97986 -95.065264 
L 1290.217325 -96.365675 
L 1290.408823 -97.666087 
L 1290.569895 -98.966498 
L 1290.711495 -100.26691 
L 1290.842025 -101.567321 
L 1290.96787 -102.867733 
L 1291.093173 -104.168144 
L 1291.219618 -105.468556 
L 1291.346669 -106.768967 
L 1291.472327 -108.069379 
L 1291.594111 -109.369791 
L 1291.709881 -110.670202 
L 1291.818246 -111.970614 
L 1291.918506 -113.271025 
L 1292.010324 -114.571437 
L 1292.093385 -115.871848 
L 1292.167298 -117.17226 
L 1292.231768 -118.472671 
L 1292.286963 -119.773083 
L 1292.333856 -121.073494 
L 1292.374322 -122.373906 
L 1292.410907 -123.674317 
L 1292.446308 -124.974729 
L 1292.482748 -126.27514 
L 1292.521455 -127.575552 
L 1292.562434 -128.875963 
L 1292.604571 -130.176375 
L 1292.646034 -131.476786 
L 1292.684785 -132.777198 
L 1292.719073 -134.07761 
L 1292.747751 -135.378021 
L 1292.770373 -136.678433 
L 1292.787099 -137.978844 
L 1292.79847 -139.279256 
L 1292.805142 -140.579667 
L 1292.807642 -141.880079 
L 1292.806205 -143.18049 
L 1292.800714 -144.480902 
L 1292.790746 -145.781313 
L 1292.775734 -147.081725 
L 1292.755219 -148.382136 
L 1292.729156 -149.682548 
L 1292.698215 -150.982959 
L 1292.663983 -152.283371 
L 1292.628984 -153.583782 
L 1292.596464 -154.884194 
L 1292.569931 -156.184605 
L 1292.55255 -157.485017 
L 1292.546528 -158.785428 
L 1292.552651 -160.08584 
L 1292.570121 -161.386252 
L 1292.59672 -162.686663 
L 1292.629281 -163.987075 
L 1292.664296 -165.287486 
L 1292.698538 -166.587898 
L 1292.729505 -167.888309 
L 1292.75566 -169.188721 
L 1292.776411 -170.489132 
L 1292.791941 -171.789544 
L 1292.802933 -173.089955 
L 1292.810307 -174.390367 
L 1292.814999 -175.690778 
L 1292.817833 -176.99119 
L 1292.819447 -178.291601 
L 1292.820293 -179.592013 
L 1292.82065 -180.892424 
L 1292.82065 -182.192836 
L 1292.820291 -183.493247 
L 1292.819442 -184.793659 
L 1292.817824 -186.09407 
L 1292.814984 -187.394482 
L 1292.810282 -188.694894 
L 1292.802895 -189.995305 
L 1292.791886 -191.295717 
L 1292.776335 -192.596128 
L 1292.755561 -193.89654 
L 1292.729384 -195.196951 
L 1292.698399 -196.497363 
L 1292.664149 -197.797774 
L 1292.629136 -199.098186 
L 1292.596594 -200.398597 
L 1292.570026 -201.699009 
L 1292.552601 -202.99942 
L 1292.546528 -204.299832 
L 1293.096024 -204.299832 
L 1293.096024 -204.299832 
L 1293.089951 -202.99942 
L 1293.072525 -201.699009 
L 1293.045958 -200.398597 
L 1293.013415 -199.098186 
L 1292.978403 -197.797774 
L 1292.944153 -196.497363 
L 1292.913167 -195.196951 
L 1292.886991 -193.89654 
L 1292.866216 -192.596128 
L 1292.850666 -191.295717 
L 1292.839656 -189.995305 
L 1292.83227 -188.694894 
L 1292.827568 -187.394482 
L 1292.824728 -186.09407 
L 1292.82311 -184.793659 
L 1292.822261 -183.493247 
L 1292.821902 -182.192836 
L 1292.821901 -180.892424 
L 1292.822258 -179.592013 
L 1292.823105 -178.291601 
L 1292.824719 -176.99119 
L 1292.827552 -175.690778 
L 1292.832245 -174.390367 
L 1292.839618 -173.089955 
L 1292.850611 -171.789544 
L 1292.86614 -170.489132 
L 1292.886892 -169.188721 
L 1292.913046 -167.888309 
L 1292.944014 -166.587898 
L 1292.978255 -165.287486 
L 1293.013271 -163.987075 
L 1293.045831 -162.686663 
L 1293.072431 -161.386252 
L 1293.0899 -160.08584 
L 1293.096024 -158.785428 
L 1293.090002 -157.485017 
L 1293.072621 -156.184605 
L 1293.046087 -154.884194 
L 1293.013567 -153.583782 
L 1292.978569 -152.283371 
L 1292.944337 -150.982959 
L 1292.913395 -149.682548 
L 1292.887332 -148.382136 
L 1292.866817 -147.081725 
L 1292.851805 -145.781313 
L 1292.841838 -144.480902 
L 1292.836346 -143.18049 
L 1292.83491 -141.880079 
L 1292.837409 -140.579667 
L 1292.844081 -139.279256 
L 1292.855453 -137.978844 
L 1292.872179 -136.678433 
L 1292.8948 -135.378021 
L 1292.923478 -134.07761 
L 1292.957767 -132.777198 
L 1292.996518 -131.476786 
L 1293.03798 -130.176375 
L 1293.080118 -128.875963 
L 1293.121097 -127.575552 
L 1293.159804 -126.27514 
L 1293.196244 -124.974729 
L 1293.231645 -123.674317 
L 1293.268229 -122.373906 
L 1293.308695 -121.073494 
L 1293.355588 -119.773083 
L 1293.410784 -118.472671 
L 1293.475253 -117.17226 
L 1293.549166 -115.871848 
L 1293.632228 -114.571437 
L 1293.724045 -113.271025 
L 1293.824305 -111.970614 
L 1293.93267 -110.670202 
L 1294.04844 -109.369791 
L 1294.170224 -108.069379 
L 1294.295883 -106.768967 
L 1294.422934 -105.468556 
L 1294.549378 -104.168144 
L 1294.674682 -102.867733 
L 1294.800527 -101.567321 
L 1294.931057 -100.26691 
L 1295.072657 -98.966498 
L 1295.233728 -97.666087 
L 1295.425226 -96.365675 
L 1295.662691 -95.065264 
L 1295.970008 -93.764852 
L 1296.384235 -92.464441 
L 1296.959745 -91.164029 
L 1297.769061 -89.863618 
L 1298.897492 -88.563206 
L 1300.429565 -87.262795 
L 1302.4272 -85.962383 
L 1304.902696 -84.661972 
L 1307.792789 -83.36156 
L 1310.942317 -82.061149 
L 1314.105862 -80.760737 
L 1316.972363 -79.460325 
L 1319.211464 -78.159914 
L 1320.532979 -76.859502 
L 1320.745154 -75.559091 
z
" style="stroke: #ffffff; stroke-opacity: 0.3"/>
    </defs>
    <g clip-path="url(#p311eb58164)">
     <use xlink:href="#me12613bb3d" x="0" y="648" style="fill: #4c72b0; fill-opacity: 0.3; stroke: #ffffff; stroke-opacity: 0.3"/>
    </g>
   </g>
   <g id="PolyCollection_5">
    <defs>
     <path id="m217059211d" d="M 1432.421511 -76.077265 
L 1376.612069 -76.077265 
L 1376.592912 -77.12653 
L 1377.66765 -78.175795 
L 1379.669054 -79.225061 
L 1382.330195 -80.274326 
L 1385.338677 -81.323591 
L 1388.393131 -82.372856 
L 1391.248211 -83.422121 
L 1393.739754 -84.471386 
L 1395.788778 -85.520652 
L 1397.388836 -86.569917 
L 1398.584277 -87.619182 
L 1399.446841 -88.668447 
L 1400.055873 -89.717712 
L 1400.484551 -90.766977 
L 1400.79223 -91.816243 
L 1401.021729 -92.865508 
L 1401.200083 -93.914773 
L 1401.34151 -94.964038 
L 1401.451656 -96.013303 
L 1401.532332 -97.062568 
L 1401.585933 -98.111834 
L 1401.61873 -99.161099 
L 1401.642305 -100.210364 
L 1401.67283 -101.259629 
L 1401.728413 -102.308894 
L 1401.825323 -103.358159 
L 1401.974222 -104.407425 
L 1402.177552 -105.45669 
L 1402.428821 -106.505955 
L 1402.713954 -107.55522 
L 1403.014219 -108.604485 
L 1403.309882 -109.65375 
L 1403.583595 -110.703016 
L 1403.822788 -111.752281 
L 1404.020691 -112.801546 
L 1404.176057 -113.850811 
L 1404.291963 -114.900076 
L 1404.374176 -115.949341 
L 1404.429549 -116.998607 
L 1404.464739 -118.047872 
L 1404.485384 -119.097137 
L 1404.495714 -120.146402 
L 1404.498495 -121.195667 
L 1404.495209 -122.244932 
L 1404.48635 -123.294198 
L 1404.471803 -124.343463 
L 1404.451263 -125.392728 
L 1404.424664 -126.441993 
L 1404.392566 -127.491258 
L 1404.356445 -128.540523 
L 1404.318777 -129.589789 
L 1404.282883 -130.639054 
L 1404.252496 -131.688319 
L 1404.231152 -132.737584 
L 1404.221514 -133.786849 
L 1404.224829 -134.836114 
L 1404.240665 -135.88538 
L 1404.267003 -136.934645 
L 1404.300659 -137.98391 
L 1404.337916 -139.033175 
L 1404.375191 -140.08244 
L 1404.409574 -141.131705 
L 1404.43914 -142.180971 
L 1404.463 -143.230236 
L 1404.481149 -144.279501 
L 1404.494202 -145.328766 
L 1404.503097 -146.378031 
L 1404.508851 -147.427296 
L 1404.512387 -148.476562 
L 1404.514454 -149.525827 
L 1404.515605 -150.575092 
L 1404.516215 -151.624357 
L 1404.516523 -152.673622 
L 1404.516671 -153.722887 
L 1404.516739 -154.772153 
L 1404.516767 -155.821418 
L 1404.516776 -156.870683 
L 1404.516771 -157.919948 
L 1404.516749 -158.969213 
L 1404.516693 -160.018478 
L 1404.516571 -161.067744 
L 1404.516312 -162.117009 
L 1404.515794 -163.166274 
L 1404.514805 -164.215539 
L 1404.513008 -165.264804 
L 1404.509895 -166.314069 
L 1404.504767 -167.363335 
L 1404.496738 -168.4126 
L 1404.484802 -169.461865 
L 1404.467982 -170.51113 
L 1404.445557 -171.560395 
L 1404.417351 -172.60966 
L 1404.384015 -173.658926 
L 1404.347217 -174.708191 
L 1404.309642 -175.757456 
L 1404.274749 -176.806721 
L 1404.246282 -177.855986 
L 1404.227618 -178.905251 
L 1404.221115 -179.954517 
L 1404.812465 -179.954517 
L 1404.812465 -179.954517 
L 1404.805962 -178.905251 
L 1404.787299 -177.855986 
L 1404.758832 -176.806721 
L 1404.723939 -175.757456 
L 1404.686364 -174.708191 
L 1404.649565 -173.658926 
L 1404.61623 -172.60966 
L 1404.588024 -171.560395 
L 1404.565599 -170.51113 
L 1404.548778 -169.461865 
L 1404.536842 -168.4126 
L 1404.528814 -167.363335 
L 1404.523686 -166.314069 
L 1404.520573 -165.264804 
L 1404.518775 -164.215539 
L 1404.517786 -163.166274 
L 1404.517268 -162.117009 
L 1404.51701 -161.067744 
L 1404.516887 -160.018478 
L 1404.516832 -158.969213 
L 1404.516809 -157.919948 
L 1404.516804 -156.870683 
L 1404.516813 -155.821418 
L 1404.516841 -154.772153 
L 1404.516909 -153.722887 
L 1404.517057 -152.673622 
L 1404.517365 -151.624357 
L 1404.517975 -150.575092 
L 1404.519126 -149.525827 
L 1404.521194 -148.476562 
L 1404.52473 -147.427296 
L 1404.530483 -146.378031 
L 1404.539379 -145.328766 
L 1404.552431 -144.279501 
L 1404.570581 -143.230236 
L 1404.59444 -142.180971 
L 1404.624006 -141.131705 
L 1404.65839 -140.08244 
L 1404.695664 -139.033175 
L 1404.732921 -137.98391 
L 1404.766577 -136.934645 
L 1404.792915 -135.88538 
L 1404.808752 -134.836114 
L 1404.812067 -133.786849 
L 1404.802428 -132.737584 
L 1404.781084 -131.688319 
L 1404.750698 -130.639054 
L 1404.714803 -129.589789 
L 1404.677136 -128.540523 
L 1404.641014 -127.491258 
L 1404.608917 -126.441993 
L 1404.582317 -125.392728 
L 1404.561778 -124.343463 
L 1404.547231 -123.294198 
L 1404.538371 -122.244932 
L 1404.535085 -121.195667 
L 1404.537867 -120.146402 
L 1404.548196 -119.097137 
L 1404.568842 -118.047872 
L 1404.604032 -116.998607 
L 1404.659405 -115.949341 
L 1404.741618 -114.900076 
L 1404.857523 -113.850811 
L 1405.01289 -112.801546 
L 1405.210792 -111.752281 
L 1405.449986 -110.703016 
L 1405.723699 -109.65375 
L 1406.019361 -108.604485 
L 1406.319627 -107.55522 
L 1406.604759 -106.505955 
L 1406.856029 -105.45669 
L 1407.059358 -104.407425 
L 1407.208257 -103.358159 
L 1407.305168 -102.308894 
L 1407.360751 -101.259629 
L 1407.391275 -100.210364 
L 1407.41485 -99.161099 
L 1407.447647 -98.111834 
L 1407.501249 -97.062568 
L 1407.581924 -96.013303 
L 1407.692071 -94.964038 
L 1407.833498 -93.914773 
L 1408.011852 -92.865508 
L 1408.24135 -91.816243 
L 1408.549029 -90.766977 
L 1408.977708 -89.717712 
L 1409.58674 -88.668447 
L 1410.449304 -87.619182 
L 1411.644744 -86.569917 
L 1413.244803 -85.520652 
L 1415.293826 -84.471386 
L 1417.785369 -83.422121 
L 1420.640449 -82.372856 
L 1423.694903 -81.323591 
L 1426.703386 -80.274326 
L 1429.364526 -79.225061 
L 1431.36593 -78.175795 
L 1432.440669 -77.12653 
L 1432.421511 -76.077265 
z
" style="stroke: #ffffff; stroke-opacity: 0.3"/>
    </defs>
    <g clip-path="url(#p311eb58164)">
     <use xlink:href="#m217059211d" x="0" y="648" style="fill: #4c72b0; fill-opacity: 0.3; stroke: #ffffff; stroke-opacity: 0.3"/>
    </g>
   </g>
   <g id="PolyCollection_6">
    <defs>
     <path id="mfa60d22e4b" d="M 1542.390221 -77.27138 
L 1490.034389 -77.27138 
L 1488.702673 -82.248468 
L 1488.288426 -87.225557 
L 1488.805631 -92.202645 
L 1490.173574 -97.179733 
L 1492.234036 -102.156822 
L 1494.779474 -107.13391 
L 1497.585581 -112.110998 
L 1500.441614 -117.088087 
L 1503.173396 -122.065175 
L 1505.656336 -127.042263 
L 1507.818297 -132.019352 
L 1509.634157 -136.99644 
L 1511.115082 -141.973528 
L 1512.295751 -146.950617 
L 1513.222282 -151.927705 
L 1513.942695 -156.904793 
L 1514.500654 -161.881882 
L 1514.932373 -166.85897 
L 1515.266 -171.836059 
L 1515.522534 -176.813147 
L 1515.717422 -181.790235 
L 1515.862188 -186.767324 
L 1515.965743 -191.744412 
L 1516.035268 -196.7215 
L 1516.076749 -201.698589 
L 1516.095312 -206.675677 
L 1516.095484 -211.652765 
L 1516.081469 -216.629854 
L 1516.057406 -221.606942 
L 1516.027556 -226.58403 
L 1515.996322 -231.561119 
L 1515.96805 -236.538207 
L 1515.946621 -241.515295 
L 1515.934949 -246.492384 
L 1515.934508 -251.469472 
L 1515.945054 -256.44656 
L 1515.964643 -261.423649 
L 1515.989945 -266.400737 
L 1516.016806 -271.377825 
L 1516.040928 -276.354914 
L 1516.058532 -281.332002 
L 1516.066907 -286.30909 
L 1516.064775 -291.286179 
L 1516.05246 -296.263267 
L 1516.031847 -301.240355 
L 1516.006133 -306.217444 
L 1515.979381 -311.194532 
L 1515.955922 -316.17162 
L 1515.939673 -321.148709 
L 1515.933497 -326.125797 
L 1515.938749 -331.102885 
L 1515.955104 -336.079974 
L 1515.980716 -341.057062 
L 1516.012663 -346.03415 
L 1516.04756 -351.011239 
L 1516.082172 -355.988327 
L 1516.113896 -360.965415 
L 1516.141023 -365.942504 
L 1516.162761 -370.919592 
L 1516.179078 -375.89668 
L 1516.190429 -380.873769 
L 1516.197458 -385.850857 
L 1516.200745 -390.827945 
L 1516.200618 -395.805034 
L 1516.197065 -400.782122 
L 1516.189733 -405.75921 
L 1516.17803 -410.736299 
L 1516.161317 -415.713387 
L 1516.139165 -420.690475 
L 1516.111657 -425.667564 
L 1516.079651 -430.644652 
L 1516.044934 -435.62174 
L 1516.010181 -440.598829 
L 1515.978685 -445.575917 
L 1515.953868 -450.553005 
L 1515.938685 -455.530094 
L 1515.935041 -460.507182 
L 1515.943402 -465.48427 
L 1515.962688 -470.461359 
L 1515.990497 -475.438447 
L 1516.023581 -480.415535 
L 1516.058432 -485.392624 
L 1516.091842 -490.369712 
L 1516.121275 -495.3468 
L 1516.145022 -500.323889 
L 1516.162128 -505.300977 
L 1516.17218 -510.278065 
L 1516.17506 -515.255154 
L 1516.170752 -520.232242 
L 1516.159281 -525.20933 
L 1516.140808 -530.186419 
L 1516.115833 -535.163507 
L 1516.085446 -540.140595 
L 1516.051523 -545.117684 
L 1516.016751 -550.094772 
L 1515.984437 -555.07186 
L 1515.958082 -560.048949 
L 1515.940814 -565.026037 
L 1515.934802 -570.003125 
L 1516.489807 -570.003125 
L 1516.489807 -570.003125 
L 1516.483796 -565.026037 
L 1516.466527 -560.048949 
L 1516.440172 -555.07186 
L 1516.407858 -550.094772 
L 1516.373086 -545.117684 
L 1516.339163 -540.140595 
L 1516.308776 -535.163507 
L 1516.283801 -530.186419 
L 1516.265328 -525.20933 
L 1516.253858 -520.232242 
L 1516.249549 -515.255154 
L 1516.252429 -510.278065 
L 1516.262481 -505.300977 
L 1516.279587 -500.323889 
L 1516.303334 -495.3468 
L 1516.332768 -490.369712 
L 1516.366177 -485.392624 
L 1516.401029 -480.415535 
L 1516.434112 -475.438447 
L 1516.461922 -470.461359 
L 1516.481207 -465.48427 
L 1516.489568 -460.507182 
L 1516.485925 -455.530094 
L 1516.470742 -450.553005 
L 1516.445925 -445.575917 
L 1516.414428 -440.598829 
L 1516.379676 -435.62174 
L 1516.344959 -430.644652 
L 1516.312953 -425.667564 
L 1516.285445 -420.690475 
L 1516.263292 -415.713387 
L 1516.246579 -410.736299 
L 1516.234877 -405.75921 
L 1516.227544 -400.782122 
L 1516.223991 -395.805034 
L 1516.223865 -390.827945 
L 1516.227152 -385.850857 
L 1516.234181 -380.873769 
L 1516.245531 -375.89668 
L 1516.261848 -370.919592 
L 1516.283587 -365.942504 
L 1516.310713 -360.965415 
L 1516.342437 -355.988327 
L 1516.377049 -351.011239 
L 1516.411946 -346.03415 
L 1516.443894 -341.057062 
L 1516.469505 -336.079974 
L 1516.48586 -331.102885 
L 1516.491113 -326.125797 
L 1516.484937 -321.148709 
L 1516.468687 -316.17162 
L 1516.445228 -311.194532 
L 1516.418477 -306.217444 
L 1516.392762 -301.240355 
L 1516.372149 -296.263267 
L 1516.359835 -291.286179 
L 1516.357702 -286.30909 
L 1516.366077 -281.332002 
L 1516.383682 -276.354914 
L 1516.407804 -271.377825 
L 1516.434665 -266.400737 
L 1516.459966 -261.423649 
L 1516.479555 -256.44656 
L 1516.490102 -251.469472 
L 1516.48966 -246.492384 
L 1516.477988 -241.515295 
L 1516.45656 -236.538207 
L 1516.428287 -231.561119 
L 1516.397054 -226.58403 
L 1516.367204 -221.606942 
L 1516.34314 -216.629854 
L 1516.329125 -211.652765 
L 1516.329298 -206.675677 
L 1516.34786 -201.698589 
L 1516.389342 -196.7215 
L 1516.458866 -191.744412 
L 1516.562422 -186.767324 
L 1516.707188 -181.790235 
L 1516.902075 -176.813147 
L 1517.158609 -171.836059 
L 1517.492236 -166.85897 
L 1517.923956 -161.881882 
L 1518.481914 -156.904793 
L 1519.202328 -151.927705 
L 1520.128859 -146.950617 
L 1521.309527 -141.973528 
L 1522.790453 -136.99644 
L 1524.606313 -132.019352 
L 1526.768273 -127.042263 
L 1529.251214 -122.065175 
L 1531.982995 -117.088087 
L 1534.839028 -112.110998 
L 1537.645135 -107.13391 
L 1540.190573 -102.156822 
L 1542.251035 -97.179733 
L 1543.618978 -92.202645 
L 1544.136183 -87.225557 
L 1543.721936 -82.248468 
L 1542.390221 -77.27138 
z
" style="stroke: #ffffff; stroke-opacity: 0.3"/>
    </defs>
    <g clip-path="url(#p311eb58164)">
     <use xlink:href="#mfa60d22e4b" x="0" y="648" style="fill: #4c72b0; fill-opacity: 0.3; stroke: #ffffff; stroke-opacity: 0.3"/>
    </g>
   </g>
   <g id="PolyCollection_7">
    <defs>
     <path id="m2cd8fd6f55" d="M 1649.112779 -79.630554 
L 1606.702859 -79.630554 
L 1604.142987 -84.708436 
L 1602.064453 -89.786318 
L 1600.637701 -94.864201 
L 1599.983941 -99.942083 
L 1600.157459 -105.019965 
L 1601.137607 -110.097848 
L 1602.83216 -115.17573 
L 1605.091331 -120.253613 
L 1607.729467 -125.331495 
L 1610.550046 -130.409377 
L 1613.369317 -135.48726 
L 1616.034744 -140.565142 
L 1618.436009 -145.643024 
L 1620.508135 -150.720907 
L 1622.227892 -155.798789 
L 1623.605572 -160.876672 
L 1624.674584 -165.954554 
L 1625.481026 -171.032436 
L 1626.074802 -176.110319 
L 1626.503132 -181.188201 
L 1626.806658 -186.266083 
L 1627.01786 -191.343966 
L 1627.16124 -196.421848 
L 1627.254587 -201.499731 
L 1627.310719 -206.577613 
L 1627.339174 -211.655495 
L 1627.347535 -216.733378 
L 1627.342229 -221.81126 
L 1627.328794 -226.889143 
L 1627.311773 -231.967025 
L 1627.294409 -237.044907 
L 1627.278365 -242.12279 
L 1627.263642 -247.200672 
L 1627.248795 -252.278554 
L 1627.231457 -257.356437 
L 1627.209069 -262.434319 
L 1627.17969 -267.512202 
L 1627.142698 -272.590084 
L 1627.09921 -277.667966 
L 1627.052146 -282.745849 
L 1627.005904 -287.823731 
L 1626.965727 -292.901613 
L 1626.936897 -297.979496 
L 1626.92393 -303.057378 
L 1626.929924 -308.135261 
L 1626.956173 -313.213143 
L 1627.002078 -318.291025 
L 1627.065339 -323.368908 
L 1627.142352 -328.44679 
L 1627.228711 -333.524672 
L 1627.319736 -338.602555 
L 1627.410939 -343.680437 
L 1627.498394 -348.75832 
L 1627.578995 -353.836202 
L 1627.650573 -358.914084 
L 1627.711923 -363.991967 
L 1627.762714 -369.069849 
L 1627.803349 -374.147732 
L 1627.834765 -379.225614 
L 1627.858236 -384.303496 
L 1627.875174 -389.381379 
L 1627.886976 -394.459261 
L 1627.894905 -399.537143 
L 1627.900024 -404.615026 
L 1627.903168 -409.692908 
L 1627.90494 -414.770791 
L 1627.905728 -419.848673 
L 1627.905728 -424.926555 
L 1627.904956 -430.004438 
L 1627.903263 -435.08232 
L 1627.900339 -440.160202 
L 1627.895725 -445.238085 
L 1627.888838 -450.315967 
L 1627.879021 -455.39385 
L 1627.865629 -460.471732 
L 1627.848156 -465.549614 
L 1627.826379 -470.627497 
L 1627.800514 -475.705379 
L 1627.771334 -480.783261 
L 1627.740208 -485.861144 
L 1627.709036 -490.939026 
L 1627.680052 -496.016909 
L 1627.655516 -501.094791 
L 1627.637344 -506.172673 
L 1627.626739 -511.250556 
L 1627.623921 -516.328438 
L 1627.628016 -521.406321 
L 1627.63715 -526.484203 
L 1627.648746 -531.562085 
L 1627.65997 -536.639968 
L 1627.668243 -541.71785 
L 1627.671722 -546.795732 
L 1627.669641 -551.873615 
L 1627.662456 -556.951497 
L 1627.651763 -562.02938 
L 1627.639994 -567.107262 
L 1627.629966 -572.185144 
L 1627.624369 -577.263027 
L 1627.625293 -582.340909 
L 1628.190346 -582.340909 
L 1628.190346 -582.340909 
L 1628.191269 -577.263027 
L 1628.185672 -572.185144 
L 1628.175645 -567.107262 
L 1628.163875 -562.02938 
L 1628.153182 -556.951497 
L 1628.145998 -551.873615 
L 1628.143916 -546.795732 
L 1628.147395 -541.71785 
L 1628.155669 -536.639968 
L 1628.166892 -531.562085 
L 1628.178488 -526.484203 
L 1628.187622 -521.406321 
L 1628.191717 -516.328438 
L 1628.1889 -511.250556 
L 1628.178295 -506.172673 
L 1628.160122 -501.094791 
L 1628.135587 -496.016909 
L 1628.106602 -490.939026 
L 1628.07543 -485.861144 
L 1628.044304 -480.783261 
L 1628.015124 -475.705379 
L 1627.98926 -470.627497 
L 1627.967482 -465.549614 
L 1627.950009 -460.471732 
L 1627.936617 -455.39385 
L 1627.9268 -450.315967 
L 1627.919913 -445.238085 
L 1627.915299 -440.160202 
L 1627.912375 -435.08232 
L 1627.910682 -430.004438 
L 1627.90991 -424.926555 
L 1627.90991 -419.848673 
L 1627.910698 -414.770791 
L 1627.91247 -409.692908 
L 1627.915614 -404.615026 
L 1627.920734 -399.537143 
L 1627.928663 -394.459261 
L 1627.940464 -389.381379 
L 1627.957402 -384.303496 
L 1627.980873 -379.225614 
L 1628.012289 -374.147732 
L 1628.052924 -369.069849 
L 1628.103716 -363.991967 
L 1628.165065 -358.914084 
L 1628.236644 -353.836202 
L 1628.317244 -348.75832 
L 1628.4047 -343.680437 
L 1628.495902 -338.602555 
L 1628.586927 -333.524672 
L 1628.673286 -328.44679 
L 1628.750299 -323.368908 
L 1628.81356 -318.291025 
L 1628.859465 -313.213143 
L 1628.885714 -308.135261 
L 1628.891709 -303.057378 
L 1628.878741 -297.979496 
L 1628.849911 -292.901613 
L 1628.809734 -287.823731 
L 1628.763492 -282.745849 
L 1628.716428 -277.667966 
L 1628.67294 -272.590084 
L 1628.635948 -267.512202 
L 1628.60657 -262.434319 
L 1628.584181 -257.356437 
L 1628.566843 -252.278554 
L 1628.551997 -247.200672 
L 1628.537273 -242.12279 
L 1628.521229 -237.044907 
L 1628.503865 -231.967025 
L 1628.486844 -226.889143 
L 1628.473409 -221.81126 
L 1628.468103 -216.733378 
L 1628.476465 -211.655495 
L 1628.504919 -206.577613 
L 1628.561051 -201.499731 
L 1628.654399 -196.421848 
L 1628.797778 -191.343966 
L 1629.008981 -186.266083 
L 1629.312506 -181.188201 
L 1629.740836 -176.110319 
L 1630.334612 -171.032436 
L 1631.141054 -165.954554 
L 1632.210066 -160.876672 
L 1633.587746 -155.798789 
L 1635.307503 -150.720907 
L 1637.37963 -145.643024 
L 1639.780894 -140.565142 
L 1642.446322 -135.48726 
L 1645.265593 -130.409377 
L 1648.086171 -125.331495 
L 1650.724307 -120.253613 
L 1652.983478 -115.17573 
L 1654.678031 -110.097848 
L 1655.658179 -105.019965 
L 1655.831698 -99.942083 
L 1655.177938 -94.864201 
L 1653.751185 -89.786318 
L 1651.672651 -84.708436 
L 1649.112779 -79.630554 
z
" style="stroke: #ffffff; stroke-opacity: 0.3"/>
    </defs>
    <g clip-path="url(#p311eb58164)">
     <use xlink:href="#m2cd8fd6f55" x="0" y="648" style="fill: #4c72b0; fill-opacity: 0.3; stroke: #ffffff; stroke-opacity: 0.3"/>
    </g>
   </g>
   <g id="LineCollection_1">
    <path d="M 943.772793 540.023636 
L 971.696672 540.023636 
" clip-path="url(#p311eb58164)" style="fill: none; stroke: #4c72b0; stroke-width: 1.5"/>
    <path d="M 1055.468308 563.28724 
L 1083.392186 563.28724 
" clip-path="url(#p311eb58164)" style="fill: none; stroke: #4c72b0; stroke-width: 1.5"/>
    <path d="M 1167.163822 567.516128 
L 1195.087701 567.516128 
" clip-path="url(#p311eb58164)" style="fill: none; stroke: #4c72b0; stroke-width: 1.5"/>
    <path d="M 1278.859336 572.308829 
L 1306.783215 572.308829 
" clip-path="url(#p311eb58164)" style="fill: none; stroke: #4c72b0; stroke-width: 1.5"/>
    <path d="M 1390.554851 571.634124 
L 1418.47873 571.634124 
" clip-path="url(#p311eb58164)" style="fill: none; stroke: #4c72b0; stroke-width: 1.5"/>
    <path d="M 1502.250365 562.319595 
L 1530.174244 562.319595 
" clip-path="url(#p311eb58164)" style="fill: none; stroke: #4c72b0; stroke-width: 1.5"/>
    <path d="M 1613.94588 547.164625 
L 1641.869758 547.164625 
" clip-path="url(#p311eb58164)" style="fill: none; stroke: #4c72b0; stroke-width: 1.5"/>
   </g>
   <g id="LineCollection_2">
    <path d="M 943.772793 545.066985 
L 971.696672 545.066985 
" clip-path="url(#p311eb58164)" style="fill: none; stroke: #4c72b0; stroke-width: 1.5"/>
    <path d="M 943.772793 535.362872 
L 971.696672 535.362872 
" clip-path="url(#p311eb58164)" style="fill: none; stroke: #4c72b0; stroke-width: 1.5"/>
    <path d="M 1055.468308 564.289085 
L 1083.392186 564.289085 
" clip-path="url(#p311eb58164)" style="fill: none; stroke: #4c72b0; stroke-width: 1.5"/>
    <path d="M 1055.468308 488.91605 
L 1083.392186 488.91605 
" clip-path="url(#p311eb58164)" style="fill: none; stroke: #4c72b0; stroke-width: 1.5"/>
    <path d="M 1167.163822 568.169979 
L 1195.087701 568.169979 
" clip-path="url(#p311eb58164)" style="fill: none; stroke: #4c72b0; stroke-width: 1.5"/>
    <path d="M 1167.163822 476.215045 
L 1195.087701 476.215045 
" clip-path="url(#p311eb58164)" style="fill: none; stroke: #4c72b0; stroke-width: 1.5"/>
    <path d="M 1278.859336 572.429797 
L 1306.783215 572.429797 
" clip-path="url(#p311eb58164)" style="fill: none; stroke: #4c72b0; stroke-width: 1.5"/>
    <path d="M 1278.859336 545.992933 
L 1306.783215 545.992933 
" clip-path="url(#p311eb58164)" style="fill: none; stroke: #4c72b0; stroke-width: 1.5"/>
    <path d="M 1390.554851 571.900057 
L 1418.47873 571.900057 
" clip-path="url(#p311eb58164)" style="fill: none; stroke: #4c72b0; stroke-width: 1.5"/>
    <path d="M 1390.554851 545.064989 
L 1418.47873 545.064989 
" clip-path="url(#p311eb58164)" style="fill: none; stroke: #4c72b0; stroke-width: 1.5"/>
    <path d="M 1502.250365 570.58299 
L 1530.174244 570.58299 
" clip-path="url(#p311eb58164)" style="fill: none; stroke: #4c72b0; stroke-width: 1.5"/>
    <path d="M 1502.250365 512.130333 
L 1530.174244 512.130333 
" clip-path="url(#p311eb58164)" style="fill: none; stroke: #4c72b0; stroke-width: 1.5"/>
    <path d="M 1613.94588 567.670948 
L 1641.869758 567.670948 
" clip-path="url(#p311eb58164)" style="fill: none; stroke: #4c72b0; stroke-width: 1.5"/>
    <path d="M 1613.94588 399.930005 
L 1641.869758 399.930005 
" clip-path="url(#p311eb58164)" style="fill: none; stroke: #4c72b0; stroke-width: 1.5"/>
   </g>
   <g id="patch_8">
    <path d="M 893.509812 597.78 
L 893.509812 40.32 
" style="fill: none; stroke: #ffffff; stroke-width: 1.25; stroke-linejoin: miter; stroke-linecap: square"/>
   </g>
   <g id="patch_9">
    <path d="M 1692.13274 597.78 
L 1692.13274 40.32 
" style="fill: none; stroke: #ffffff; stroke-width: 1.25; stroke-linejoin: miter; stroke-linecap: square"/>
   </g>
   <g id="patch_10">
    <path d="M 893.509812 597.78 
L 1692.13274 597.78 
" style="fill: none; stroke: #ffffff; stroke-width: 1.25; stroke-linejoin: miter; stroke-linecap: square"/>
   </g>
   <g id="patch_11">
    <path d="M 893.509812 40.32 
L 1692.13274 40.32 
" style="fill: none; stroke: #ffffff; stroke-width: 1.25; stroke-linejoin: miter; stroke-linecap: square"/>
   </g>
  </g>
  <g id="text_24">
   <!-- Runtime plots for N = M = 8000 and num_procs = 48 -->
   <g style="fill: #262626" transform="translate(671.353875 23.90175)scale(0.144 -0.144)">
    <defs>
     <path id="DejaVuSans-4e" d="M 628 4666 
L 1478 4666 
L 3547 763 
L 3547 4666 
L 4159 4666 
L 4159 0 
L 3309 0 
L 1241 3903 
L 1241 0 
L 628 0 
L 628 4666 
z
" transform="scale(0.015625)"/>
     <path id="DejaVuSans-3d" d="M 678 2906 
L 4684 2906 
L 4684 2381 
L 678 2381 
L 678 2906 
z
M 678 1631 
L 4684 1631 
L 4684 1100 
L 678 1100 
L 678 1631 
z
" transform="scale(0.015625)"/>
     <path id="DejaVuSans-4d" d="M 628 4666 
L 1569 4666 
L 2759 1491 
L 3956 4666 
L 4897 4666 
L 4897 0 
L 4281 0 
L 4281 4097 
L 3078 897 
L 2444 897 
L 1241 4097 
L 1241 0 
L 628 0 
L 628 4666 
z
" transform="scale(0.015625)"/>
     <path id="DejaVuSans-5f" d="M 3263 -1063 
L 3263 -1509 
L -63 -1509 
L -63 -1063 
L 3263 -1063 
z
" transform="scale(0.015625)"/>
    </defs>
    <use xlink:href="#DejaVuSans-52"/>
    <use xlink:href="#DejaVuSans-75" x="64.982422"/>
    <use xlink:href="#DejaVuSans-6e" x="128.361328"/>
    <use xlink:href="#DejaVuSans-74" x="191.740234"/>
    <use xlink:href="#DejaVuSans-69" x="230.949219"/>
    <use xlink:href="#DejaVuSans-6d" x="258.732422"/>
    <use xlink:href="#DejaVuSans-65" x="356.144531"/>
    <use xlink:href="#DejaVuSans-20" x="417.667969"/>
    <use xlink:href="#DejaVuSans-70" x="449.455078"/>
    <use xlink:href="#DejaVuSans-6c" x="512.931641"/>
    <use xlink:href="#DejaVuSans-6f" x="540.714844"/>
    <use xlink:href="#DejaVuSans-74" x="601.896484"/>
    <use xlink:href="#DejaVuSans-73" x="641.105469"/>
    <use xlink:href="#DejaVuSans-20" x="693.205078"/>
    <use xlink:href="#DejaVuSans-66" x="724.992188"/>
    <use xlink:href="#DejaVuSans-6f" x="760.197266"/>
    <use xlink:href="#DejaVuSans-72" x="821.378906"/>
    <use xlink:href="#DejaVuSans-20" x="862.492188"/>
    <use xlink:href="#DejaVuSans-4e" x="894.279297"/>
    <use xlink:href="#DejaVuSans-20" x="969.083984"/>
    <use xlink:href="#DejaVuSans-3d" x="1000.871094"/>
    <use xlink:href="#DejaVuSans-20" x="1084.660156"/>
    <use xlink:href="#DejaVuSans-4d" x="1116.447266"/>
    <use xlink:href="#DejaVuSans-20" x="1202.726562"/>
    <use xlink:href="#DejaVuSans-3d" x="1234.513672"/>
    <use xlink:href="#DejaVuSans-20" x="1318.302734"/>
    <use xlink:href="#DejaVuSans-38" x="1350.089844"/>
    <use xlink:href="#DejaVuSans-30" x="1413.712891"/>
    <use xlink:href="#DejaVuSans-30" x="1477.335938"/>
    <use xlink:href="#DejaVuSans-30" x="1540.958984"/>
    <use xlink:href="#DejaVuSans-20" x="1604.582031"/>
    <use xlink:href="#DejaVuSans-61" x="1636.369141"/>
    <use xlink:href="#DejaVuSans-6e" x="1697.648438"/>
    <use xlink:href="#DejaVuSans-64" x="1761.027344"/>
    <use xlink:href="#DejaVuSans-20" x="1824.503906"/>
    <use xlink:href="#DejaVuSans-6e" x="1856.291016"/>
    <use xlink:href="#DejaVuSans-75" x="1919.669922"/>
    <use xlink:href="#DejaVuSans-6d" x="1983.048828"/>
    <use xlink:href="#DejaVuSans-5f" x="2080.460938"/>
    <use xlink:href="#DejaVuSans-70" x="2130.460938"/>
    <use xlink:href="#DejaVuSans-72" x="2193.9375"/>
    <use xlink:href="#DejaVuSans-6f" x="2232.800781"/>
    <use xlink:href="#DejaVuSans-63" x="2293.982422"/>
    <use xlink:href="#DejaVuSans-73" x="2348.962891"/>
    <use xlink:href="#DejaVuSans-20" x="2401.0625"/>
    <use xlink:href="#DejaVuSans-3d" x="2432.849609"/>
    <use xlink:href="#DejaVuSans-20" x="2516.638672"/>
    <use xlink:href="#DejaVuSans-34" x="2548.425781"/>
    <use xlink:href="#DejaVuSans-38" x="2612.048828"/>
   </g>
  </g>
 </g>
 <defs>
  <clipPath id="pb66d5997f4">
   <rect x="53.37" y="40.32" width="798.622928" height="557.46"/>
  </clipPath>
  <clipPath id="p311eb58164">
   <rect x="893.509812" y="40.32" width="798.622928" height="557.46"/>
  </clipPath>
 </defs>
</svg>
