<?xml version="1.0" encoding="utf-8" standalone="no"?>
<!DOCTYPE svg PUBLIC "-//W3C//DTD SVG 1.1//EN"
  "http://www.w3.org/Graphics/SVG/1.1/DTD/svg11.dtd">
<svg xmlns:xlink="http://www.w3.org/1999/xlink" width="1728pt" height="648pt" viewBox="0 0 1728 648" xmlns="http://www.w3.org/2000/svg" version="1.1">
 <metadata>
  <rdf:RDF xmlns:dc="http://purl.org/dc/elements/1.1/" xmlns:cc="http://creativecommons.org/ns#" xmlns:rdf="http://www.w3.org/1999/02/22-rdf-syntax-ns#">
   <cc:Work>
    <dc:type rdf:resource="http://purl.org/dc/dcmitype/StillImage"/>
    <dc:date>2021-12-23T19:07:33.291628</dc:date>
    <dc:format>image/svg+xml</dc:format>
    <dc:creator>
     <cc:Agent>
      <dc:title>Matplotlib v3.5.1, https://matplotlib.org/</dc:title>
     </cc:Agent>
    </dc:creator>
   </cc:Work>
  </rdf:RDF>
 </metadata>
 <defs>
  <style type="text/css">*{stroke-linejoin: round; stroke-linecap: butt}</style>
 </defs>
 <g id="figure_1">
  <g id="patch_1">
   <path d="M 0 648 
L 1728 648 
L 1728 0 
L 0 0 
z
" style="fill: #ffffff"/>
  </g>
  <g id="axes_1">
   <g id="patch_2">
    <path d="M 53.28 597.78 
L 877.68 597.78 
L 877.68 40.32 
L 53.28 40.32 
z
" style="fill: #eaeaf2"/>
   </g>
   <g id="matplotlib.axis_1">
    <g id="xtick_1">
     <g id="line2d_1">
      <path d="M 156.33 597.78 
L 156.33 40.32 
" clip-path="url(#pa2e80cd8be)" style="fill: none; stroke: #ffffff; stroke-linecap: round"/>
     </g>
     <g id="text_1">
      <!-- allgather -->
      <g style="fill: #262626" transform="translate(131.754453 615.638281)scale(0.11 -0.11)">
       <defs>
        <path id="DejaVuSans-61" d="M 2194 1759 
Q 1497 1759 1228 1600 
Q 959 1441 959 1056 
Q 959 750 1161 570 
Q 1363 391 1709 391 
Q 2188 391 2477 730 
Q 2766 1069 2766 1631 
L 2766 1759 
L 2194 1759 
z
M 3341 1997 
L 3341 0 
L 2766 0 
L 2766 531 
Q 2569 213 2275 61 
Q 1981 -91 1556 -91 
Q 1019 -91 701 211 
Q 384 513 384 1019 
Q 384 1609 779 1909 
Q 1175 2209 1959 2209 
L 2766 2209 
L 2766 2266 
Q 2766 2663 2505 2880 
Q 2244 3097 1772 3097 
Q 1472 3097 1187 3025 
Q 903 2953 641 2809 
L 641 3341 
Q 956 3463 1253 3523 
Q 1550 3584 1831 3584 
Q 2591 3584 2966 3190 
Q 3341 2797 3341 1997 
z
" transform="scale(0.015625)"/>
        <path id="DejaVuSans-6c" d="M 603 4863 
L 1178 4863 
L 1178 0 
L 603 0 
L 603 4863 
z
" transform="scale(0.015625)"/>
        <path id="DejaVuSans-67" d="M 2906 1791 
Q 2906 2416 2648 2759 
Q 2391 3103 1925 3103 
Q 1463 3103 1205 2759 
Q 947 2416 947 1791 
Q 947 1169 1205 825 
Q 1463 481 1925 481 
Q 2391 481 2648 825 
Q 2906 1169 2906 1791 
z
M 3481 434 
Q 3481 -459 3084 -895 
Q 2688 -1331 1869 -1331 
Q 1566 -1331 1297 -1286 
Q 1028 -1241 775 -1147 
L 775 -588 
Q 1028 -725 1275 -790 
Q 1522 -856 1778 -856 
Q 2344 -856 2625 -561 
Q 2906 -266 2906 331 
L 2906 616 
Q 2728 306 2450 153 
Q 2172 0 1784 0 
Q 1141 0 747 490 
Q 353 981 353 1791 
Q 353 2603 747 3093 
Q 1141 3584 1784 3584 
Q 2172 3584 2450 3431 
Q 2728 3278 2906 2969 
L 2906 3500 
L 3481 3500 
L 3481 434 
z
" transform="scale(0.015625)"/>
        <path id="DejaVuSans-74" d="M 1172 4494 
L 1172 3500 
L 2356 3500 
L 2356 3053 
L 1172 3053 
L 1172 1153 
Q 1172 725 1289 603 
Q 1406 481 1766 481 
L 2356 481 
L 2356 0 
L 1766 0 
Q 1100 0 847 248 
Q 594 497 594 1153 
L 594 3053 
L 172 3053 
L 172 3500 
L 594 3500 
L 594 4494 
L 1172 4494 
z
" transform="scale(0.015625)"/>
        <path id="DejaVuSans-68" d="M 3513 2113 
L 3513 0 
L 2938 0 
L 2938 2094 
Q 2938 2591 2744 2837 
Q 2550 3084 2163 3084 
Q 1697 3084 1428 2787 
Q 1159 2491 1159 1978 
L 1159 0 
L 581 0 
L 581 4863 
L 1159 4863 
L 1159 2956 
Q 1366 3272 1645 3428 
Q 1925 3584 2291 3584 
Q 2894 3584 3203 3211 
Q 3513 2838 3513 2113 
z
" transform="scale(0.015625)"/>
        <path id="DejaVuSans-65" d="M 3597 1894 
L 3597 1613 
L 953 1613 
Q 991 1019 1311 708 
Q 1631 397 2203 397 
Q 2534 397 2845 478 
Q 3156 559 3463 722 
L 3463 178 
Q 3153 47 2828 -22 
Q 2503 -91 2169 -91 
Q 1331 -91 842 396 
Q 353 884 353 1716 
Q 353 2575 817 3079 
Q 1281 3584 2069 3584 
Q 2775 3584 3186 3129 
Q 3597 2675 3597 1894 
z
M 3022 2063 
Q 3016 2534 2758 2815 
Q 2500 3097 2075 3097 
Q 1594 3097 1305 2825 
Q 1016 2553 972 2059 
L 3022 2063 
z
" transform="scale(0.015625)"/>
        <path id="DejaVuSans-72" d="M 2631 2963 
Q 2534 3019 2420 3045 
Q 2306 3072 2169 3072 
Q 1681 3072 1420 2755 
Q 1159 2438 1159 1844 
L 1159 0 
L 581 0 
L 581 3500 
L 1159 3500 
L 1159 2956 
Q 1341 3275 1631 3429 
Q 1922 3584 2338 3584 
Q 2397 3584 2469 3576 
Q 2541 3569 2628 3553 
L 2631 2963 
z
" transform="scale(0.015625)"/>
       </defs>
       <use xlink:href="#DejaVuSans-61"/>
       <use xlink:href="#DejaVuSans-6c" x="61.279297"/>
       <use xlink:href="#DejaVuSans-6c" x="89.0625"/>
       <use xlink:href="#DejaVuSans-67" x="116.845703"/>
       <use xlink:href="#DejaVuSans-61" x="180.322266"/>
       <use xlink:href="#DejaVuSans-74" x="241.601562"/>
       <use xlink:href="#DejaVuSans-68" x="280.810547"/>
       <use xlink:href="#DejaVuSans-65" x="344.189453"/>
       <use xlink:href="#DejaVuSans-72" x="405.712891"/>
      </g>
     </g>
    </g>
    <g id="xtick_2">
     <g id="line2d_2">
      <path d="M 362.43 597.78 
L 362.43 40.32 
" clip-path="url(#pa2e80cd8be)" style="fill: none; stroke: #ffffff; stroke-linecap: round"/>
     </g>
     <g id="text_2">
      <!-- allreduce -->
      <g style="fill: #262626" transform="translate(337.096484 615.638281)scale(0.11 -0.11)">
       <defs>
        <path id="DejaVuSans-64" d="M 2906 2969 
L 2906 4863 
L 3481 4863 
L 3481 0 
L 2906 0 
L 2906 525 
Q 2725 213 2448 61 
Q 2172 -91 1784 -91 
Q 1150 -91 751 415 
Q 353 922 353 1747 
Q 353 2572 751 3078 
Q 1150 3584 1784 3584 
Q 2172 3584 2448 3432 
Q 2725 3281 2906 2969 
z
M 947 1747 
Q 947 1113 1208 752 
Q 1469 391 1925 391 
Q 2381 391 2643 752 
Q 2906 1113 2906 1747 
Q 2906 2381 2643 2742 
Q 2381 3103 1925 3103 
Q 1469 3103 1208 2742 
Q 947 2381 947 1747 
z
" transform="scale(0.015625)"/>
        <path id="DejaVuSans-75" d="M 544 1381 
L 544 3500 
L 1119 3500 
L 1119 1403 
Q 1119 906 1312 657 
Q 1506 409 1894 409 
Q 2359 409 2629 706 
Q 2900 1003 2900 1516 
L 2900 3500 
L 3475 3500 
L 3475 0 
L 2900 0 
L 2900 538 
Q 2691 219 2414 64 
Q 2138 -91 1772 -91 
Q 1169 -91 856 284 
Q 544 659 544 1381 
z
M 1991 3584 
L 1991 3584 
z
" transform="scale(0.015625)"/>
        <path id="DejaVuSans-63" d="M 3122 3366 
L 3122 2828 
Q 2878 2963 2633 3030 
Q 2388 3097 2138 3097 
Q 1578 3097 1268 2742 
Q 959 2388 959 1747 
Q 959 1106 1268 751 
Q 1578 397 2138 397 
Q 2388 397 2633 464 
Q 2878 531 3122 666 
L 3122 134 
Q 2881 22 2623 -34 
Q 2366 -91 2075 -91 
Q 1284 -91 818 406 
Q 353 903 353 1747 
Q 353 2603 823 3093 
Q 1294 3584 2113 3584 
Q 2378 3584 2631 3529 
Q 2884 3475 3122 3366 
z
" transform="scale(0.015625)"/>
       </defs>
       <use xlink:href="#DejaVuSans-61"/>
       <use xlink:href="#DejaVuSans-6c" x="61.279297"/>
       <use xlink:href="#DejaVuSans-6c" x="89.0625"/>
       <use xlink:href="#DejaVuSans-72" x="116.845703"/>
       <use xlink:href="#DejaVuSans-65" x="155.708984"/>
       <use xlink:href="#DejaVuSans-64" x="217.232422"/>
       <use xlink:href="#DejaVuSans-75" x="280.708984"/>
       <use xlink:href="#DejaVuSans-63" x="344.087891"/>
       <use xlink:href="#DejaVuSans-65" x="399.068359"/>
      </g>
     </g>
    </g>
    <g id="xtick_3">
     <g id="line2d_3">
      <path d="M 568.53 597.78 
L 568.53 40.32 
" clip-path="url(#pa2e80cd8be)" style="fill: none; stroke: #ffffff; stroke-linecap: round"/>
     </g>
     <g id="text_3">
      <!-- allreduce-ring -->
      <g style="fill: #262626" transform="translate(530.445938 615.638281)scale(0.11 -0.11)">
       <defs>
        <path id="DejaVuSans-2d" d="M 313 2009 
L 1997 2009 
L 1997 1497 
L 313 1497 
L 313 2009 
z
" transform="scale(0.015625)"/>
        <path id="DejaVuSans-69" d="M 603 3500 
L 1178 3500 
L 1178 0 
L 603 0 
L 603 3500 
z
M 603 4863 
L 1178 4863 
L 1178 4134 
L 603 4134 
L 603 4863 
z
" transform="scale(0.015625)"/>
        <path id="DejaVuSans-6e" d="M 3513 2113 
L 3513 0 
L 2938 0 
L 2938 2094 
Q 2938 2591 2744 2837 
Q 2550 3084 2163 3084 
Q 1697 3084 1428 2787 
Q 1159 2491 1159 1978 
L 1159 0 
L 581 0 
L 581 3500 
L 1159 3500 
L 1159 2956 
Q 1366 3272 1645 3428 
Q 1925 3584 2291 3584 
Q 2894 3584 3203 3211 
Q 3513 2838 3513 2113 
z
" transform="scale(0.015625)"/>
       </defs>
       <use xlink:href="#DejaVuSans-61"/>
       <use xlink:href="#DejaVuSans-6c" x="61.279297"/>
       <use xlink:href="#DejaVuSans-6c" x="89.0625"/>
       <use xlink:href="#DejaVuSans-72" x="116.845703"/>
       <use xlink:href="#DejaVuSans-65" x="155.708984"/>
       <use xlink:href="#DejaVuSans-64" x="217.232422"/>
       <use xlink:href="#DejaVuSans-75" x="280.708984"/>
       <use xlink:href="#DejaVuSans-63" x="344.087891"/>
       <use xlink:href="#DejaVuSans-65" x="399.068359"/>
       <use xlink:href="#DejaVuSans-2d" x="460.591797"/>
       <use xlink:href="#DejaVuSans-72" x="496.675781"/>
       <use xlink:href="#DejaVuSans-69" x="537.789062"/>
       <use xlink:href="#DejaVuSans-6e" x="565.572266"/>
       <use xlink:href="#DejaVuSans-67" x="628.951172"/>
      </g>
     </g>
    </g>
    <g id="xtick_4">
     <g id="line2d_4">
      <path d="M 774.63 597.78 
L 774.63 40.32 
" clip-path="url(#pa2e80cd8be)" style="fill: none; stroke: #ffffff; stroke-linecap: round"/>
     </g>
     <g id="text_4">
      <!-- g-rabenseifner-allgather -->
      <g style="fill: #262626" transform="translate(708.1075 615.638281)scale(0.11 -0.11)">
       <defs>
        <path id="DejaVuSans-62" d="M 3116 1747 
Q 3116 2381 2855 2742 
Q 2594 3103 2138 3103 
Q 1681 3103 1420 2742 
Q 1159 2381 1159 1747 
Q 1159 1113 1420 752 
Q 1681 391 2138 391 
Q 2594 391 2855 752 
Q 3116 1113 3116 1747 
z
M 1159 2969 
Q 1341 3281 1617 3432 
Q 1894 3584 2278 3584 
Q 2916 3584 3314 3078 
Q 3713 2572 3713 1747 
Q 3713 922 3314 415 
Q 2916 -91 2278 -91 
Q 1894 -91 1617 61 
Q 1341 213 1159 525 
L 1159 0 
L 581 0 
L 581 4863 
L 1159 4863 
L 1159 2969 
z
" transform="scale(0.015625)"/>
        <path id="DejaVuSans-73" d="M 2834 3397 
L 2834 2853 
Q 2591 2978 2328 3040 
Q 2066 3103 1784 3103 
Q 1356 3103 1142 2972 
Q 928 2841 928 2578 
Q 928 2378 1081 2264 
Q 1234 2150 1697 2047 
L 1894 2003 
Q 2506 1872 2764 1633 
Q 3022 1394 3022 966 
Q 3022 478 2636 193 
Q 2250 -91 1575 -91 
Q 1294 -91 989 -36 
Q 684 19 347 128 
L 347 722 
Q 666 556 975 473 
Q 1284 391 1588 391 
Q 1994 391 2212 530 
Q 2431 669 2431 922 
Q 2431 1156 2273 1281 
Q 2116 1406 1581 1522 
L 1381 1569 
Q 847 1681 609 1914 
Q 372 2147 372 2553 
Q 372 3047 722 3315 
Q 1072 3584 1716 3584 
Q 2034 3584 2315 3537 
Q 2597 3491 2834 3397 
z
" transform="scale(0.015625)"/>
        <path id="DejaVuSans-66" d="M 2375 4863 
L 2375 4384 
L 1825 4384 
Q 1516 4384 1395 4259 
Q 1275 4134 1275 3809 
L 1275 3500 
L 2222 3500 
L 2222 3053 
L 1275 3053 
L 1275 0 
L 697 0 
L 697 3053 
L 147 3053 
L 147 3500 
L 697 3500 
L 697 3744 
Q 697 4328 969 4595 
Q 1241 4863 1831 4863 
L 2375 4863 
z
" transform="scale(0.015625)"/>
       </defs>
       <use xlink:href="#DejaVuSans-67"/>
       <use xlink:href="#DejaVuSans-2d" x="63.476562"/>
       <use xlink:href="#DejaVuSans-72" x="99.560547"/>
       <use xlink:href="#DejaVuSans-61" x="140.673828"/>
       <use xlink:href="#DejaVuSans-62" x="201.953125"/>
       <use xlink:href="#DejaVuSans-65" x="265.429688"/>
       <use xlink:href="#DejaVuSans-6e" x="326.953125"/>
       <use xlink:href="#DejaVuSans-73" x="390.332031"/>
       <use xlink:href="#DejaVuSans-65" x="442.431641"/>
       <use xlink:href="#DejaVuSans-69" x="503.955078"/>
       <use xlink:href="#DejaVuSans-66" x="531.738281"/>
       <use xlink:href="#DejaVuSans-6e" x="566.943359"/>
       <use xlink:href="#DejaVuSans-65" x="630.322266"/>
       <use xlink:href="#DejaVuSans-72" x="691.845703"/>
       <use xlink:href="#DejaVuSans-2d" x="726.583984"/>
       <use xlink:href="#DejaVuSans-61" x="762.667969"/>
       <use xlink:href="#DejaVuSans-6c" x="823.947266"/>
       <use xlink:href="#DejaVuSans-6c" x="851.730469"/>
       <use xlink:href="#DejaVuSans-67" x="879.513672"/>
       <use xlink:href="#DejaVuSans-61" x="942.990234"/>
       <use xlink:href="#DejaVuSans-74" x="1004.269531"/>
       <use xlink:href="#DejaVuSans-68" x="1043.478516"/>
       <use xlink:href="#DejaVuSans-65" x="1106.857422"/>
       <use xlink:href="#DejaVuSans-72" x="1168.380859"/>
      </g>
     </g>
    </g>
    <g id="text_5">
     <!-- [impl] -->
     <g style="fill: #262626" transform="translate(447.810938 631.044062)scale(0.12 -0.12)">
      <defs>
       <path id="DejaVuSans-5b" d="M 550 4863 
L 1875 4863 
L 1875 4416 
L 1125 4416 
L 1125 -397 
L 1875 -397 
L 1875 -844 
L 550 -844 
L 550 4863 
z
" transform="scale(0.015625)"/>
       <path id="DejaVuSans-6d" d="M 3328 2828 
Q 3544 3216 3844 3400 
Q 4144 3584 4550 3584 
Q 5097 3584 5394 3201 
Q 5691 2819 5691 2113 
L 5691 0 
L 5113 0 
L 5113 2094 
Q 5113 2597 4934 2840 
Q 4756 3084 4391 3084 
Q 3944 3084 3684 2787 
Q 3425 2491 3425 1978 
L 3425 0 
L 2847 0 
L 2847 2094 
Q 2847 2600 2669 2842 
Q 2491 3084 2119 3084 
Q 1678 3084 1418 2786 
Q 1159 2488 1159 1978 
L 1159 0 
L 581 0 
L 581 3500 
L 1159 3500 
L 1159 2956 
Q 1356 3278 1631 3431 
Q 1906 3584 2284 3584 
Q 2666 3584 2933 3390 
Q 3200 3197 3328 2828 
z
" transform="scale(0.015625)"/>
       <path id="DejaVuSans-70" d="M 1159 525 
L 1159 -1331 
L 581 -1331 
L 581 3500 
L 1159 3500 
L 1159 2969 
Q 1341 3281 1617 3432 
Q 1894 3584 2278 3584 
Q 2916 3584 3314 3078 
Q 3713 2572 3713 1747 
Q 3713 922 3314 415 
Q 2916 -91 2278 -91 
Q 1894 -91 1617 61 
Q 1341 213 1159 525 
z
M 3116 1747 
Q 3116 2381 2855 2742 
Q 2594 3103 2138 3103 
Q 1681 3103 1420 2742 
Q 1159 2381 1159 1747 
Q 1159 1113 1420 752 
Q 1681 391 2138 391 
Q 2594 391 2855 752 
Q 3116 1113 3116 1747 
z
" transform="scale(0.015625)"/>
       <path id="DejaVuSans-5d" d="M 1947 4863 
L 1947 -844 
L 622 -844 
L 622 -397 
L 1369 -397 
L 1369 4416 
L 622 4416 
L 622 4863 
L 1947 4863 
z
" transform="scale(0.015625)"/>
      </defs>
      <use xlink:href="#DejaVuSans-5b"/>
      <use xlink:href="#DejaVuSans-69" x="39.013672"/>
      <use xlink:href="#DejaVuSans-6d" x="66.796875"/>
      <use xlink:href="#DejaVuSans-70" x="164.208984"/>
      <use xlink:href="#DejaVuSans-6c" x="227.685547"/>
      <use xlink:href="#DejaVuSans-5d" x="255.46875"/>
     </g>
    </g>
   </g>
   <g id="matplotlib.axis_2">
    <g id="ytick_1">
     <g id="line2d_5">
      <path d="M 53.28 582.072567 
L 877.68 582.072567 
" clip-path="url(#pa2e80cd8be)" style="fill: none; stroke: #ffffff; stroke-linecap: round"/>
     </g>
     <g id="text_6">
      <!-- 0 -->
      <g style="fill: #262626" transform="translate(36.78125 586.251707)scale(0.11 -0.11)">
       <defs>
        <path id="DejaVuSans-30" d="M 2034 4250 
Q 1547 4250 1301 3770 
Q 1056 3291 1056 2328 
Q 1056 1369 1301 889 
Q 1547 409 2034 409 
Q 2525 409 2770 889 
Q 3016 1369 3016 2328 
Q 3016 3291 2770 3770 
Q 2525 4250 2034 4250 
z
M 2034 4750 
Q 2819 4750 3233 4129 
Q 3647 3509 3647 2328 
Q 3647 1150 3233 529 
Q 2819 -91 2034 -91 
Q 1250 -91 836 529 
Q 422 1150 422 2328 
Q 422 3509 836 4129 
Q 1250 4750 2034 4750 
z
" transform="scale(0.015625)"/>
       </defs>
       <use xlink:href="#DejaVuSans-30"/>
      </g>
     </g>
    </g>
    <g id="ytick_2">
     <g id="line2d_6">
      <path d="M 53.28 487.621215 
L 877.68 487.621215 
" clip-path="url(#pa2e80cd8be)" style="fill: none; stroke: #ffffff; stroke-linecap: round"/>
     </g>
     <g id="text_7">
      <!-- 5 -->
      <g style="fill: #262626" transform="translate(36.78125 491.800355)scale(0.11 -0.11)">
       <defs>
        <path id="DejaVuSans-35" d="M 691 4666 
L 3169 4666 
L 3169 4134 
L 1269 4134 
L 1269 2991 
Q 1406 3038 1543 3061 
Q 1681 3084 1819 3084 
Q 2600 3084 3056 2656 
Q 3513 2228 3513 1497 
Q 3513 744 3044 326 
Q 2575 -91 1722 -91 
Q 1428 -91 1123 -41 
Q 819 9 494 109 
L 494 744 
Q 775 591 1075 516 
Q 1375 441 1709 441 
Q 2250 441 2565 725 
Q 2881 1009 2881 1497 
Q 2881 1984 2565 2268 
Q 2250 2553 1709 2553 
Q 1456 2553 1204 2497 
Q 953 2441 691 2322 
L 691 4666 
z
" transform="scale(0.015625)"/>
       </defs>
       <use xlink:href="#DejaVuSans-35"/>
      </g>
     </g>
    </g>
    <g id="ytick_3">
     <g id="line2d_7">
      <path d="M 53.28 393.169863 
L 877.68 393.169863 
" clip-path="url(#pa2e80cd8be)" style="fill: none; stroke: #ffffff; stroke-linecap: round"/>
     </g>
     <g id="text_8">
      <!-- 10 -->
      <g style="fill: #262626" transform="translate(29.7825 397.349003)scale(0.11 -0.11)">
       <defs>
        <path id="DejaVuSans-31" d="M 794 531 
L 1825 531 
L 1825 4091 
L 703 3866 
L 703 4441 
L 1819 4666 
L 2450 4666 
L 2450 531 
L 3481 531 
L 3481 0 
L 794 0 
L 794 531 
z
" transform="scale(0.015625)"/>
       </defs>
       <use xlink:href="#DejaVuSans-31"/>
       <use xlink:href="#DejaVuSans-30" x="63.623047"/>
      </g>
     </g>
    </g>
    <g id="ytick_4">
     <g id="line2d_8">
      <path d="M 53.28 298.718511 
L 877.68 298.718511 
" clip-path="url(#pa2e80cd8be)" style="fill: none; stroke: #ffffff; stroke-linecap: round"/>
     </g>
     <g id="text_9">
      <!-- 15 -->
      <g style="fill: #262626" transform="translate(29.7825 302.897651)scale(0.11 -0.11)">
       <use xlink:href="#DejaVuSans-31"/>
       <use xlink:href="#DejaVuSans-35" x="63.623047"/>
      </g>
     </g>
    </g>
    <g id="ytick_5">
     <g id="line2d_9">
      <path d="M 53.28 204.267158 
L 877.68 204.267158 
" clip-path="url(#pa2e80cd8be)" style="fill: none; stroke: #ffffff; stroke-linecap: round"/>
     </g>
     <g id="text_10">
      <!-- 20 -->
      <g style="fill: #262626" transform="translate(29.7825 208.446299)scale(0.11 -0.11)">
       <defs>
        <path id="DejaVuSans-32" d="M 1228 531 
L 3431 531 
L 3431 0 
L 469 0 
L 469 531 
Q 828 903 1448 1529 
Q 2069 2156 2228 2338 
Q 2531 2678 2651 2914 
Q 2772 3150 2772 3378 
Q 2772 3750 2511 3984 
Q 2250 4219 1831 4219 
Q 1534 4219 1204 4116 
Q 875 4013 500 3803 
L 500 4441 
Q 881 4594 1212 4672 
Q 1544 4750 1819 4750 
Q 2544 4750 2975 4387 
Q 3406 4025 3406 3419 
Q 3406 3131 3298 2873 
Q 3191 2616 2906 2266 
Q 2828 2175 2409 1742 
Q 1991 1309 1228 531 
z
" transform="scale(0.015625)"/>
       </defs>
       <use xlink:href="#DejaVuSans-32"/>
       <use xlink:href="#DejaVuSans-30" x="63.623047"/>
      </g>
     </g>
    </g>
    <g id="ytick_6">
     <g id="line2d_10">
      <path d="M 53.28 109.815806 
L 877.68 109.815806 
" clip-path="url(#pa2e80cd8be)" style="fill: none; stroke: #ffffff; stroke-linecap: round"/>
     </g>
     <g id="text_11">
      <!-- 25 -->
      <g style="fill: #262626" transform="translate(29.7825 113.994947)scale(0.11 -0.11)">
       <use xlink:href="#DejaVuSans-32"/>
       <use xlink:href="#DejaVuSans-35" x="63.623047"/>
      </g>
     </g>
    </g>
    <g id="text_12">
     <!-- Runtime (s) -->
     <g style="fill: #262626" transform="translate(23.286875 353.82375)rotate(-90)scale(0.12 -0.12)">
      <defs>
       <path id="DejaVuSans-52" d="M 2841 2188 
Q 3044 2119 3236 1894 
Q 3428 1669 3622 1275 
L 4263 0 
L 3584 0 
L 2988 1197 
Q 2756 1666 2539 1819 
Q 2322 1972 1947 1972 
L 1259 1972 
L 1259 0 
L 628 0 
L 628 4666 
L 2053 4666 
Q 2853 4666 3247 4331 
Q 3641 3997 3641 3322 
Q 3641 2881 3436 2590 
Q 3231 2300 2841 2188 
z
M 1259 4147 
L 1259 2491 
L 2053 2491 
Q 2509 2491 2742 2702 
Q 2975 2913 2975 3322 
Q 2975 3731 2742 3939 
Q 2509 4147 2053 4147 
L 1259 4147 
z
" transform="scale(0.015625)"/>
       <path id="DejaVuSans-20" transform="scale(0.015625)"/>
       <path id="DejaVuSans-28" d="M 1984 4856 
Q 1566 4138 1362 3434 
Q 1159 2731 1159 2009 
Q 1159 1288 1364 580 
Q 1569 -128 1984 -844 
L 1484 -844 
Q 1016 -109 783 600 
Q 550 1309 550 2009 
Q 550 2706 781 3412 
Q 1013 4119 1484 4856 
L 1984 4856 
z
" transform="scale(0.015625)"/>
       <path id="DejaVuSans-29" d="M 513 4856 
L 1013 4856 
Q 1481 4119 1714 3412 
Q 1947 2706 1947 2009 
Q 1947 1309 1714 600 
Q 1481 -109 1013 -844 
L 513 -844 
Q 928 -128 1133 580 
Q 1338 1288 1338 2009 
Q 1338 2731 1133 3434 
Q 928 4138 513 4856 
z
" transform="scale(0.015625)"/>
      </defs>
      <use xlink:href="#DejaVuSans-52"/>
      <use xlink:href="#DejaVuSans-75" x="64.982422"/>
      <use xlink:href="#DejaVuSans-6e" x="128.361328"/>
      <use xlink:href="#DejaVuSans-74" x="191.740234"/>
      <use xlink:href="#DejaVuSans-69" x="230.949219"/>
      <use xlink:href="#DejaVuSans-6d" x="258.732422"/>
      <use xlink:href="#DejaVuSans-65" x="356.144531"/>
      <use xlink:href="#DejaVuSans-20" x="417.667969"/>
      <use xlink:href="#DejaVuSans-28" x="449.455078"/>
      <use xlink:href="#DejaVuSans-73" x="488.46875"/>
      <use xlink:href="#DejaVuSans-29" x="540.568359"/>
     </g>
    </g>
   </g>
   <g id="line2d_11">
    <path d="M 109.9575 511.086907 
L 202.7025 511.086907 
L 202.7025 505.725565 
L 109.9575 505.725565 
L 109.9575 511.086907 
" clip-path="url(#pa2e80cd8be)" style="fill: none; stroke: #4c4c4c; stroke-linecap: round"/>
   </g>
   <g id="line2d_12">
    <path d="M 156.33 511.086907 
L 156.33 518.503369 
" clip-path="url(#pa2e80cd8be)" style="fill: none; stroke: #4c4c4c; stroke-linecap: round"/>
   </g>
   <g id="line2d_13">
    <path d="M 156.33 505.725565 
L 156.33 499.931352 
" clip-path="url(#pa2e80cd8be)" style="fill: none; stroke: #4c4c4c; stroke-linecap: round"/>
   </g>
   <g id="line2d_14">
    <path d="M 133.14375 518.503369 
L 179.51625 518.503369 
" clip-path="url(#pa2e80cd8be)" style="fill: none; stroke: #1a1a1a; stroke-linecap: round"/>
   </g>
   <g id="line2d_15">
    <path d="M 133.14375 499.931352 
L 179.51625 499.931352 
" clip-path="url(#pa2e80cd8be)" style="fill: none; stroke: #1a1a1a; stroke-linecap: round"/>
   </g>
   <g id="line2d_16">
    <path d="M 316.0575 555.192479 
L 408.8025 555.192479 
L 408.8025 518.560495 
L 316.0575 518.560495 
L 316.0575 555.192479 
" clip-path="url(#pa2e80cd8be)" style="fill: none; stroke: #4c4c4c; stroke-linecap: round"/>
   </g>
   <g id="line2d_17">
    <path d="M 362.43 555.192479 
L 362.43 556.190988 
" clip-path="url(#pa2e80cd8be)" style="fill: none; stroke: #4c4c4c; stroke-linecap: round"/>
   </g>
   <g id="line2d_18">
    <path d="M 362.43 518.560495 
L 362.43 423.386399 
" clip-path="url(#pa2e80cd8be)" style="fill: none; stroke: #4c4c4c; stroke-linecap: round"/>
   </g>
   <g id="line2d_19">
    <path d="M 339.24375 556.190988 
L 385.61625 556.190988 
" clip-path="url(#pa2e80cd8be)" style="fill: none; stroke: #1a1a1a; stroke-linecap: round"/>
   </g>
   <g id="line2d_20">
    <path d="M 339.24375 423.386399 
L 385.61625 423.386399 
" clip-path="url(#pa2e80cd8be)" style="fill: none; stroke: #1a1a1a; stroke-linecap: round"/>
   </g>
   <g id="line2d_21">
    <path d="M 522.1575 563.512442 
L 614.9025 563.512442 
L 614.9025 520.504403 
L 522.1575 520.504403 
L 522.1575 563.512442 
" clip-path="url(#pa2e80cd8be)" style="fill: none; stroke: #4c4c4c; stroke-linecap: round"/>
   </g>
   <g id="line2d_22">
    <path d="M 568.53 563.512442 
L 568.53 564.036949 
" clip-path="url(#pa2e80cd8be)" style="fill: none; stroke: #4c4c4c; stroke-linecap: round"/>
   </g>
   <g id="line2d_23">
    <path d="M 568.53 520.504403 
L 568.53 388.637123 
" clip-path="url(#pa2e80cd8be)" style="fill: none; stroke: #4c4c4c; stroke-linecap: round"/>
   </g>
   <g id="line2d_24">
    <path d="M 545.34375 564.036949 
L 591.71625 564.036949 
" clip-path="url(#pa2e80cd8be)" style="fill: none; stroke: #1a1a1a; stroke-linecap: round"/>
   </g>
   <g id="line2d_25">
    <path d="M 545.34375 388.637123 
L 591.71625 388.637123 
" clip-path="url(#pa2e80cd8be)" style="fill: none; stroke: #1a1a1a; stroke-linecap: round"/>
   </g>
   <g id="line2d_26">
    <path d="M 728.2575 572.27808 
L 821.0025 572.27808 
L 821.0025 571.76766 
L 728.2575 571.76766 
L 728.2575 572.27808 
" clip-path="url(#pa2e80cd8be)" style="fill: none; stroke: #4c4c4c; stroke-linecap: round"/>
   </g>
   <g id="line2d_27">
    <path d="M 774.63 572.27808 
L 774.63 572.41672 
" clip-path="url(#pa2e80cd8be)" style="fill: none; stroke: #4c4c4c; stroke-linecap: round"/>
   </g>
   <g id="line2d_28">
    <path d="M 774.63 571.76766 
L 774.63 520.991151 
" clip-path="url(#pa2e80cd8be)" style="fill: none; stroke: #4c4c4c; stroke-linecap: round"/>
   </g>
   <g id="line2d_29">
    <path d="M 751.44375 572.41672 
L 797.81625 572.41672 
" clip-path="url(#pa2e80cd8be)" style="fill: none; stroke: #1a1a1a; stroke-linecap: round"/>
   </g>
   <g id="line2d_30">
    <path d="M 751.44375 520.991151 
L 797.81625 520.991151 
" clip-path="url(#pa2e80cd8be)" style="fill: none; stroke: #1a1a1a; stroke-linecap: round"/>
   </g>
   <g id="line2d_31">
    <path d="M 109.9575 508.889175 
L 202.7025 508.889175 
" clip-path="url(#pa2e80cd8be)" style="fill: none; stroke: #b0b0b0; stroke-linecap: round"/>
   </g>
   <g id="line2d_32">
    <path d="M 316.0575 554.495799 
L 408.8025 554.495799 
" clip-path="url(#pa2e80cd8be)" style="fill: none; stroke: #b0b0b0; stroke-linecap: round"/>
   </g>
   <g id="line2d_33">
    <path d="M 522.1575 562.786229 
L 614.9025 562.786229 
" clip-path="url(#pa2e80cd8be)" style="fill: none; stroke: #b0b0b0; stroke-linecap: round"/>
   </g>
   <g id="line2d_34">
    <path d="M 728.2575 572.181975 
L 821.0025 572.181975 
" clip-path="url(#pa2e80cd8be)" style="fill: none; stroke: #b0b0b0; stroke-linecap: round"/>
   </g>
   <g id="patch_3">
    <path d="M 53.28 597.78 
L 53.28 40.32 
" style="fill: none; stroke: #ffffff; stroke-width: 1.25; stroke-linejoin: miter; stroke-linecap: square"/>
   </g>
   <g id="patch_4">
    <path d="M 877.68 597.78 
L 877.68 40.32 
" style="fill: none; stroke: #ffffff; stroke-width: 1.25; stroke-linejoin: miter; stroke-linecap: square"/>
   </g>
   <g id="patch_5">
    <path d="M 53.28 597.78 
L 877.68 597.78 
" style="fill: none; stroke: #ffffff; stroke-width: 1.25; stroke-linejoin: miter; stroke-linecap: square"/>
   </g>
   <g id="patch_6">
    <path d="M 53.28 40.32 
L 877.68 40.32 
" style="fill: none; stroke: #ffffff; stroke-width: 1.25; stroke-linejoin: miter; stroke-linecap: square"/>
   </g>
  </g>
  <g id="axes_2">
   <g id="patch_7">
    <path d="M 890.64 597.78 
L 1715.04 597.78 
L 1715.04 40.32 
L 890.64 40.32 
z
" style="fill: #eaeaf2"/>
   </g>
   <g id="matplotlib.axis_3">
    <g id="xtick_5">
     <g id="line2d_35">
      <path d="M 981.645195 597.78 
L 981.645195 40.32 
" clip-path="url(#p9577a40235)" style="fill: none; stroke: #ffffff; stroke-linecap: round"/>
     </g>
     <g id="text_13">
      <!-- allgather -->
      <g style="fill: #262626" transform="translate(957.069648 615.638281)scale(0.11 -0.11)">
       <use xlink:href="#DejaVuSans-61"/>
       <use xlink:href="#DejaVuSans-6c" x="61.279297"/>
       <use xlink:href="#DejaVuSans-6c" x="89.0625"/>
       <use xlink:href="#DejaVuSans-67" x="116.845703"/>
       <use xlink:href="#DejaVuSans-61" x="180.322266"/>
       <use xlink:href="#DejaVuSans-74" x="241.601562"/>
       <use xlink:href="#DejaVuSans-68" x="280.810547"/>
       <use xlink:href="#DejaVuSans-65" x="344.189453"/>
       <use xlink:href="#DejaVuSans-72" x="405.712891"/>
      </g>
     </g>
    </g>
    <g id="xtick_6">
     <g id="line2d_36">
      <path d="M 1195.775065 597.78 
L 1195.775065 40.32 
" clip-path="url(#p9577a40235)" style="fill: none; stroke: #ffffff; stroke-linecap: round"/>
     </g>
     <g id="text_14">
      <!-- allreduce -->
      <g style="fill: #262626" transform="translate(1170.441549 615.638281)scale(0.11 -0.11)">
       <use xlink:href="#DejaVuSans-61"/>
       <use xlink:href="#DejaVuSans-6c" x="61.279297"/>
       <use xlink:href="#DejaVuSans-6c" x="89.0625"/>
       <use xlink:href="#DejaVuSans-72" x="116.845703"/>
       <use xlink:href="#DejaVuSans-65" x="155.708984"/>
       <use xlink:href="#DejaVuSans-64" x="217.232422"/>
       <use xlink:href="#DejaVuSans-75" x="280.708984"/>
       <use xlink:href="#DejaVuSans-63" x="344.087891"/>
       <use xlink:href="#DejaVuSans-65" x="399.068359"/>
      </g>
     </g>
    </g>
    <g id="xtick_7">
     <g id="line2d_37">
      <path d="M 1409.904935 597.78 
L 1409.904935 40.32 
" clip-path="url(#p9577a40235)" style="fill: none; stroke: #ffffff; stroke-linecap: round"/>
     </g>
     <g id="text_15">
      <!-- allreduce-ring -->
      <g style="fill: #262626" transform="translate(1371.820873 615.638281)scale(0.11 -0.11)">
       <use xlink:href="#DejaVuSans-61"/>
       <use xlink:href="#DejaVuSans-6c" x="61.279297"/>
       <use xlink:href="#DejaVuSans-6c" x="89.0625"/>
       <use xlink:href="#DejaVuSans-72" x="116.845703"/>
       <use xlink:href="#DejaVuSans-65" x="155.708984"/>
       <use xlink:href="#DejaVuSans-64" x="217.232422"/>
       <use xlink:href="#DejaVuSans-75" x="280.708984"/>
       <use xlink:href="#DejaVuSans-63" x="344.087891"/>
       <use xlink:href="#DejaVuSans-65" x="399.068359"/>
       <use xlink:href="#DejaVuSans-2d" x="460.591797"/>
       <use xlink:href="#DejaVuSans-72" x="496.675781"/>
       <use xlink:href="#DejaVuSans-69" x="537.789062"/>
       <use xlink:href="#DejaVuSans-6e" x="565.572266"/>
       <use xlink:href="#DejaVuSans-67" x="628.951172"/>
      </g>
     </g>
    </g>
    <g id="xtick_8">
     <g id="line2d_38">
      <path d="M 1624.034805 597.78 
L 1624.034805 40.32 
" clip-path="url(#p9577a40235)" style="fill: none; stroke: #ffffff; stroke-linecap: round"/>
     </g>
     <g id="text_16">
      <!-- g-rabenseifner-allgather -->
      <g style="fill: #262626" transform="translate(1557.512305 615.638281)scale(0.11 -0.11)">
       <use xlink:href="#DejaVuSans-67"/>
       <use xlink:href="#DejaVuSans-2d" x="63.476562"/>
       <use xlink:href="#DejaVuSans-72" x="99.560547"/>
       <use xlink:href="#DejaVuSans-61" x="140.673828"/>
       <use xlink:href="#DejaVuSans-62" x="201.953125"/>
       <use xlink:href="#DejaVuSans-65" x="265.429688"/>
       <use xlink:href="#DejaVuSans-6e" x="326.953125"/>
       <use xlink:href="#DejaVuSans-73" x="390.332031"/>
       <use xlink:href="#DejaVuSans-65" x="442.431641"/>
       <use xlink:href="#DejaVuSans-69" x="503.955078"/>
       <use xlink:href="#DejaVuSans-66" x="531.738281"/>
       <use xlink:href="#DejaVuSans-6e" x="566.943359"/>
       <use xlink:href="#DejaVuSans-65" x="630.322266"/>
       <use xlink:href="#DejaVuSans-72" x="691.845703"/>
       <use xlink:href="#DejaVuSans-2d" x="726.583984"/>
       <use xlink:href="#DejaVuSans-61" x="762.667969"/>
       <use xlink:href="#DejaVuSans-6c" x="823.947266"/>
       <use xlink:href="#DejaVuSans-6c" x="851.730469"/>
       <use xlink:href="#DejaVuSans-67" x="879.513672"/>
       <use xlink:href="#DejaVuSans-61" x="942.990234"/>
       <use xlink:href="#DejaVuSans-74" x="1004.269531"/>
       <use xlink:href="#DejaVuSans-68" x="1043.478516"/>
       <use xlink:href="#DejaVuSans-65" x="1106.857422"/>
       <use xlink:href="#DejaVuSans-72" x="1168.380859"/>
      </g>
     </g>
    </g>
    <g id="text_17">
     <!-- [impl] -->
     <g style="fill: #262626" transform="translate(1285.170938 631.044062)scale(0.12 -0.12)">
      <use xlink:href="#DejaVuSans-5b"/>
      <use xlink:href="#DejaVuSans-69" x="39.013672"/>
      <use xlink:href="#DejaVuSans-6d" x="66.796875"/>
      <use xlink:href="#DejaVuSans-70" x="164.208984"/>
      <use xlink:href="#DejaVuSans-6c" x="227.685547"/>
      <use xlink:href="#DejaVuSans-5d" x="255.46875"/>
     </g>
    </g>
   </g>
   <g id="matplotlib.axis_4">
    <g id="ytick_7">
     <g id="line2d_39">
      <path d="M 890.64 582.072567 
L 1715.04 582.072567 
" clip-path="url(#p9577a40235)" style="fill: none; stroke: #ffffff; stroke-linecap: round"/>
     </g>
    </g>
    <g id="ytick_8">
     <g id="line2d_40">
      <path d="M 890.64 487.621215 
L 1715.04 487.621215 
" clip-path="url(#p9577a40235)" style="fill: none; stroke: #ffffff; stroke-linecap: round"/>
     </g>
    </g>
    <g id="ytick_9">
     <g id="line2d_41">
      <path d="M 890.64 393.169863 
L 1715.04 393.169863 
" clip-path="url(#p9577a40235)" style="fill: none; stroke: #ffffff; stroke-linecap: round"/>
     </g>
    </g>
    <g id="ytick_10">
     <g id="line2d_42">
      <path d="M 890.64 298.718511 
L 1715.04 298.718511 
" clip-path="url(#p9577a40235)" style="fill: none; stroke: #ffffff; stroke-linecap: round"/>
     </g>
    </g>
    <g id="ytick_11">
     <g id="line2d_43">
      <path d="M 890.64 204.267158 
L 1715.04 204.267158 
" clip-path="url(#p9577a40235)" style="fill: none; stroke: #ffffff; stroke-linecap: round"/>
     </g>
    </g>
    <g id="ytick_12">
     <g id="line2d_44">
      <path d="M 890.64 109.815806 
L 1715.04 109.815806 
" clip-path="url(#p9577a40235)" style="fill: none; stroke: #ffffff; stroke-linecap: round"/>
     </g>
    </g>
   </g>
   <g id="PolyCollection_1">
    <defs>
     <path id="m3e4d3163a5" d="M 988.370664 -126.395888 
L 974.919726 -126.395888 
L 974.588216 -126.720737 
L 974.319987 -127.045586 
L 974.109958 -127.370436 
L 973.949231 -127.695285 
L 973.826315 -128.020134 
L 973.728439 -128.344984 
L 973.642729 -128.669833 
L 973.557021 -128.994682 
L 973.460169 -129.319531 
L 973.341816 -129.644381 
L 973.191688 -129.96923 
L 972.99857 -130.294079 
L 972.749176 -130.618929 
L 972.427164 -130.943778 
L 972.012518 -131.268627 
L 971.481474 -131.593477 
L 970.807096 -131.918326 
L 969.960531 -132.243175 
L 968.912861 -132.568024 
L 967.637425 -132.892874 
L 966.11241 -133.217723 
L 964.32346 -133.542572 
L 962.266077 -133.867422 
L 959.947561 -134.192271 
L 957.388281 -134.51712 
L 954.622149 -134.84197 
L 951.696163 -135.166819 
L 948.669034 -135.491668 
L 945.608925 -135.816517 
L 942.590434 -136.141367 
L 939.691004 -136.466216 
L 936.987018 -136.791065 
L 934.549865 -137.115915 
L 932.442287 -137.440764 
L 930.715304 -137.765613 
L 929.405988 -138.090463 
L 928.53625 -138.415312 
L 928.112727 -138.740161 
L 928.127719 -139.06501 
L 928.561008 -139.38986 
L 929.382286 -139.714709 
L 930.553873 -140.039558 
L 932.033367 -140.364408 
L 933.775957 -140.689257 
L 935.736185 -141.014106 
L 937.8691 -141.338956 
L 940.130868 -141.663805 
L 942.479003 -141.988654 
L 944.872453 -142.313504 
L 947.271786 -142.638353 
L 949.639644 -142.963202 
L 951.94155 -143.288051 
L 954.147036 -143.612901 
L 956.230931 -143.93775 
L 958.174591 -144.262599 
L 959.966821 -144.587449 
L 961.604263 -144.912298 
L 963.091111 -145.237147 
L 964.438122 -145.561997 
L 965.661004 -145.886846 
L 966.778369 -146.211695 
L 967.809507 -146.536544 
L 968.772252 -146.861394 
L 969.68121 -147.186243 
L 970.546555 -147.511092 
L 971.373497 -147.835942 
L 972.162472 -148.160791 
L 972.90996 -148.48564 
L 973.609794 -148.81049 
L 974.254751 -149.135339 
L 974.838195 -149.460188 
L 975.355541 -149.785037 
L 975.805348 -150.109887 
L 976.189909 -150.434736 
L 976.51527 -150.759585 
L 976.790704 -151.084435 
L 977.027724 -151.409284 
L 977.238787 -151.734133 
L 977.43589 -152.058983 
L 977.629236 -152.383832 
L 977.826173 -152.708681 
L 978.030538 -153.03353 
L 978.242477 -153.35838 
L 978.458771 -153.683229 
L 978.673579 -154.008078 
L 978.879509 -154.332928 
L 979.06884 -154.657777 
L 979.234736 -154.982626 
L 979.372278 -155.307476 
L 979.479203 -155.632325 
L 979.556245 -155.957174 
L 979.607076 -156.282023 
L 979.637861 -156.606873 
L 979.656514 -156.931722 
L 979.671765 -157.256571 
L 979.692176 -157.581421 
L 979.725225 -157.90627 
L 979.776572 -158.231119 
L 979.849589 -158.555969 
L 983.440801 -158.555969 
L 983.440801 -158.555969 
L 983.513817 -158.231119 
L 983.565165 -157.90627 
L 983.598214 -157.581421 
L 983.618625 -157.256571 
L 983.633876 -156.931722 
L 983.652528 -156.606873 
L 983.683313 -156.282023 
L 983.734145 -155.957174 
L 983.811187 -155.632325 
L 983.918111 -155.307476 
L 984.055654 -154.982626 
L 984.221549 -154.657777 
L 984.410881 -154.332928 
L 984.616811 -154.008078 
L 984.831618 -153.683229 
L 985.047912 -153.35838 
L 985.259852 -153.03353 
L 985.464216 -152.708681 
L 985.661154 -152.383832 
L 985.8545 -152.058983 
L 986.051602 -151.734133 
L 986.262666 -151.409284 
L 986.499685 -151.084435 
L 986.775119 -150.759585 
L 987.100481 -150.434736 
L 987.485041 -150.109887 
L 987.934849 -149.785037 
L 988.452195 -149.460188 
L 989.035639 -149.135339 
L 989.680596 -148.81049 
L 990.380429 -148.48564 
L 991.127917 -148.160791 
L 991.916893 -147.835942 
L 992.743835 -147.511092 
L 993.609179 -147.186243 
L 994.518137 -146.861394 
L 995.480882 -146.536544 
L 996.51202 -146.211695 
L 997.629386 -145.886846 
L 998.852268 -145.561997 
L 1000.199278 -145.237147 
L 1001.686127 -144.912298 
L 1003.323569 -144.587449 
L 1005.115799 -144.262599 
L 1007.059459 -143.93775 
L 1009.143353 -143.612901 
L 1011.348839 -143.288051 
L 1013.650746 -142.963202 
L 1016.018604 -142.638353 
L 1018.417937 -142.313504 
L 1020.811387 -141.988654 
L 1023.159522 -141.663805 
L 1025.42129 -141.338956 
L 1027.554205 -141.014106 
L 1029.514432 -140.689257 
L 1031.257022 -140.364408 
L 1032.736517 -140.039558 
L 1033.908103 -139.714709 
L 1034.729382 -139.38986 
L 1035.16267 -139.06501 
L 1035.177662 -138.740161 
L 1034.754139 -138.415312 
L 1033.884401 -138.090463 
L 1032.575085 -137.765613 
L 1030.848103 -137.440764 
L 1028.740524 -137.115915 
L 1026.303372 -136.791065 
L 1023.599386 -136.466216 
L 1020.699955 -136.141367 
L 1017.681464 -135.816517 
L 1014.621356 -135.491668 
L 1011.594227 -135.166819 
L 1008.668241 -134.84197 
L 1005.902108 -134.51712 
L 1003.342829 -134.192271 
L 1001.024312 -133.867422 
L 998.96693 -133.542572 
L 997.17798 -133.217723 
L 995.652964 -132.892874 
L 994.377529 -132.568024 
L 993.329859 -132.243175 
L 992.483293 -131.918326 
L 991.808916 -131.593477 
L 991.277871 -131.268627 
L 990.863226 -130.943778 
L 990.541214 -130.618929 
L 990.29182 -130.294079 
L 990.098702 -129.96923 
L 989.948574 -129.644381 
L 989.830221 -129.319531 
L 989.733368 -128.994682 
L 989.64766 -128.669833 
L 989.561951 -128.344984 
L 989.464075 -128.020134 
L 989.341158 -127.695285 
L 989.180432 -127.370436 
L 988.970403 -127.045586 
L 988.702174 -126.720737 
L 988.370664 -126.395888 
z
" style="stroke: #ffffff; stroke-opacity: 0.3"/>
    </defs>
    <g clip-path="url(#p9577a40235)">
     <use xlink:href="#m3e4d3163a5" x="0" y="648" style="fill: #4c72b0; fill-opacity: 0.3; stroke: #ffffff; stroke-opacity: 0.3"/>
    </g>
   </g>
   <g id="PolyCollection_2">
    <defs>
     <path id="m3f0ec0a6f1" d="M 1248.483345 -91.370361 
L 1143.066785 -91.370361 
L 1142.242597 -96.329659 
L 1143.070515 -101.288958 
L 1145.398773 -106.248256 
L 1148.936473 -111.207554 
L 1153.304809 -116.166853 
L 1158.097508 -121.126151 
L 1162.937569 -126.08545 
L 1167.519968 -131.044748 
L 1171.634832 -136.004047 
L 1175.170792 -140.963345 
L 1178.102484 -145.922644 
L 1180.468386 -150.881942 
L 1182.3455 -155.841241 
L 1183.826141 -160.800539 
L 1185.000214 -165.759838 
L 1185.944298 -170.719136 
L 1186.717285 -175.678435 
L 1187.361167 -180.637733 
L 1187.905017 -185.597032 
L 1188.370161 -190.55633 
L 1188.774773 -195.515628 
L 1189.136776 -200.474927 
L 1189.474577 -205.434225 
L 1189.805881 -210.393524 
L 1190.145336 -215.352822 
L 1190.502018 -220.312121 
L 1190.877685 -225.271419 
L 1191.266461 -230.230718 
L 1191.656133 -235.190016 
L 1192.030786 -240.149315 
L 1192.374174 -245.108613 
L 1192.673029 -250.067912 
L 1192.919587 -255.02721 
L 1193.112835 -259.986509 
L 1193.258301 -264.945807 
L 1193.366588 -269.905105 
L 1193.451099 -274.864404 
L 1193.525536 -279.823702 
L 1193.601743 -284.783001 
L 1193.68826 -289.742299 
L 1193.789767 -294.701598 
L 1193.907298 -299.660896 
L 1194.038971 -304.620195 
L 1194.180927 -309.579493 
L 1194.328179 -314.538792 
L 1194.475256 -319.49809 
L 1194.616618 -324.457389 
L 1194.746952 -329.416687 
L 1194.861476 -334.375986 
L 1194.956341 -339.335284 
L 1195.029123 -344.294583 
L 1195.079317 -349.253881 
L 1195.108666 -354.213179 
L 1195.121178 -359.172478 
L 1195.122737 -364.131776 
L 1195.120321 -369.091075 
L 1195.120966 -374.050373 
L 1195.130676 -379.009672 
L 1195.153516 -383.96897 
L 1195.191095 -388.928269 
L 1195.242512 -393.887567 
L 1195.304767 -398.846866 
L 1195.373502 -403.806164 
L 1195.443879 -408.765463 
L 1195.511401 -413.724761 
L 1195.572526 -418.68406 
L 1195.624981 -423.643358 
L 1195.667801 -428.602657 
L 1195.701136 -433.561955 
L 1195.725929 -438.521253 
L 1195.743575 -443.480552 
L 1195.755604 -448.43985 
L 1195.763467 -453.399149 
L 1195.768397 -458.358447 
L 1195.771358 -463.317746 
L 1195.773055 -468.277044 
L 1195.773962 -473.236343 
L 1195.774369 -478.195641 
L 1195.774419 -483.15494 
L 1195.77413 -488.114238 
L 1195.773398 -493.073537 
L 1195.771982 -498.032835 
L 1195.769468 -502.992134 
L 1195.765227 -507.951432 
L 1195.758376 -512.910731 
L 1195.747761 -517.870029 
L 1195.731994 -522.829327 
L 1195.709552 -527.788626 
L 1195.678987 -532.747924 
L 1195.639207 -537.707223 
L 1195.589836 -542.666521 
L 1195.531568 -547.62582 
L 1195.466433 -552.585118 
L 1195.397884 -557.544417 
L 1195.330617 -562.503715 
L 1195.270108 -567.463014 
L 1195.221907 -572.422312 
L 1195.190805 -577.381611 
L 1195.180053 -582.340909 
L 1196.370077 -582.340909 
L 1196.370077 -582.340909 
L 1196.359325 -577.381611 
L 1196.328223 -572.422312 
L 1196.280022 -567.463014 
L 1196.219513 -562.503715 
L 1196.152246 -557.544417 
L 1196.083697 -552.585118 
L 1196.018562 -547.62582 
L 1195.960294 -542.666521 
L 1195.910923 -537.707223 
L 1195.871143 -532.747924 
L 1195.840578 -527.788626 
L 1195.818136 -522.829327 
L 1195.802369 -517.870029 
L 1195.791754 -512.910731 
L 1195.784903 -507.951432 
L 1195.780662 -502.992134 
L 1195.778148 -498.032835 
L 1195.776732 -493.073537 
L 1195.776 -488.114238 
L 1195.775711 -483.15494 
L 1195.775761 -478.195641 
L 1195.776167 -473.236343 
L 1195.777074 -468.277044 
L 1195.778772 -463.317746 
L 1195.781733 -458.358447 
L 1195.786663 -453.399149 
L 1195.794526 -448.43985 
L 1195.806555 -443.480552 
L 1195.824201 -438.521253 
L 1195.848994 -433.561955 
L 1195.882329 -428.602657 
L 1195.925149 -423.643358 
L 1195.977604 -418.68406 
L 1196.038728 -413.724761 
L 1196.106251 -408.765463 
L 1196.176628 -403.806164 
L 1196.245363 -398.846866 
L 1196.307618 -393.887567 
L 1196.359035 -388.928269 
L 1196.396614 -383.96897 
L 1196.419454 -379.009672 
L 1196.429164 -374.050373 
L 1196.429809 -369.091075 
L 1196.427393 -364.131776 
L 1196.428952 -359.172478 
L 1196.441464 -354.213179 
L 1196.470813 -349.253881 
L 1196.521007 -344.294583 
L 1196.593789 -339.335284 
L 1196.688654 -334.375986 
L 1196.803178 -329.416687 
L 1196.933512 -324.457389 
L 1197.074874 -319.49809 
L 1197.221951 -314.538792 
L 1197.369203 -309.579493 
L 1197.511159 -304.620195 
L 1197.642832 -299.660896 
L 1197.760363 -294.701598 
L 1197.86187 -289.742299 
L 1197.948387 -284.783001 
L 1198.024594 -279.823702 
L 1198.099031 -274.864404 
L 1198.183542 -269.905105 
L 1198.291829 -264.945807 
L 1198.437295 -259.986509 
L 1198.630542 -255.02721 
L 1198.877101 -250.067912 
L 1199.175956 -245.108613 
L 1199.519344 -240.149315 
L 1199.893997 -235.190016 
L 1200.283669 -230.230718 
L 1200.672445 -225.271419 
L 1201.048112 -220.312121 
L 1201.404794 -215.352822 
L 1201.744249 -210.393524 
L 1202.075553 -205.434225 
L 1202.413354 -200.474927 
L 1202.775357 -195.515628 
L 1203.179969 -190.55633 
L 1203.645112 -185.597032 
L 1204.188963 -180.637733 
L 1204.832844 -175.678435 
L 1205.605832 -170.719136 
L 1206.549916 -165.759838 
L 1207.723989 -160.800539 
L 1209.20463 -155.841241 
L 1211.081744 -150.881942 
L 1213.447646 -145.922644 
L 1216.379338 -140.963345 
L 1219.915298 -136.004047 
L 1224.030162 -131.044748 
L 1228.612561 -126.08545 
L 1233.452622 -121.126151 
L 1238.245321 -116.166853 
L 1242.613657 -111.207554 
L 1246.151356 -106.248256 
L 1248.479615 -101.288958 
L 1249.307532 -96.329659 
L 1248.483345 -91.370361 
z
" style="stroke: #ffffff; stroke-opacity: 0.3"/>
    </defs>
    <g clip-path="url(#p9577a40235)">
     <use xlink:href="#m3f0ec0a6f1" x="0" y="648" style="fill: #4c72b0; fill-opacity: 0.3; stroke: #ffffff; stroke-opacity: 0.3"/>
    </g>
   </g>
   <g id="PolyCollection_3">
    <defs>
     <path id="mbee97e1b60" d="M 1462.815332 -83.847254 
L 1356.994539 -83.847254 
L 1356.372468 -87.237238 
L 1356.547065 -90.627222 
L 1357.488575 -94.017206 
L 1359.131109 -97.40719 
L 1361.378575 -100.797174 
L 1364.112724 -104.187158 
L 1367.202382 -107.577142 
L 1370.512912 -110.967127 
L 1373.914962 -114.357111 
L 1377.291798 -117.747095 
L 1380.544691 -121.137079 
L 1383.596185 -124.527063 
L 1386.391251 -127.917047 
L 1388.896615 -131.307031 
L 1391.098631 -134.697015 
L 1393.000182 -138.086999 
L 1394.617063 -141.476983 
L 1395.974244 -144.866968 
L 1397.102367 -148.256952 
L 1398.034662 -151.646936 
L 1398.804435 -155.03692 
L 1399.443171 -158.426904 
L 1399.979213 -161.816888 
L 1400.436978 -165.206872 
L 1400.836612 -168.596856 
L 1401.193992 -171.98684 
L 1401.520977 -175.376825 
L 1401.825842 -178.766809 
L 1402.113806 -182.156793 
L 1402.387603 -185.546777 
L 1402.648074 -188.936761 
L 1402.894717 -192.326745 
L 1403.126213 -195.716729 
L 1403.340886 -199.106713 
L 1403.537115 -202.496697 
L 1403.713675 -205.886681 
L 1403.870015 -209.276666 
L 1404.006458 -212.66665 
L 1404.124326 -216.056634 
L 1404.225978 -219.446618 
L 1404.314754 -222.836602 
L 1404.394821 -226.226586 
L 1404.470943 -229.61657 
L 1404.548151 -233.006554 
L 1404.631367 -236.396538 
L 1404.724989 -239.786522 
L 1404.832489 -243.176507 
L 1404.956046 -246.566491 
L 1405.096274 -249.956475 
L 1405.252079 -253.346459 
L 1405.420662 -256.736443 
L 1405.597692 -260.126427 
L 1405.777635 -263.516411 
L 1405.954231 -266.906395 
L 1406.121056 -270.296379 
L 1406.272132 -273.686363 
L 1406.402517 -277.076348 
L 1406.508808 -280.466332 
L 1406.589511 -283.856316 
L 1406.645233 -287.2463 
L 1406.678674 -290.636284 
L 1406.694422 -294.026268 
L 1406.69857 -297.416252 
L 1406.698204 -300.806236 
L 1406.700803 -304.19622 
L 1406.713628 -307.586205 
L 1406.74314 -310.976189 
L 1406.794522 -314.366173 
L 1406.871321 -317.756157 
L 1406.975247 -321.146141 
L 1407.106137 -324.536125 
L 1407.262063 -327.926109 
L 1407.439568 -331.316093 
L 1407.633998 -334.706077 
L 1407.839887 -338.096061 
L 1408.051358 -341.486046 
L 1408.262517 -344.87603 
L 1408.467783 -348.266014 
L 1408.662172 -351.655998 
L 1408.841485 -355.045982 
L 1409.002434 -358.435966 
L 1409.14268 -361.82595 
L 1409.260823 -365.215934 
L 1409.356333 -368.605918 
L 1409.429467 -371.995902 
L 1409.481159 -375.385887 
L 1409.51292 -378.775871 
L 1409.526736 -382.165855 
L 1409.524978 -385.555839 
L 1409.510324 -388.945823 
L 1409.485676 -392.335807 
L 1409.454084 -395.725791 
L 1409.418648 -399.115775 
L 1409.382424 -402.505759 
L 1409.348307 -405.895743 
L 1409.31891 -409.285728 
L 1409.296453 -412.675712 
L 1409.282654 -416.065696 
L 1409.278652 -419.45568 
L 1410.531218 -419.45568 
L 1410.531218 -419.45568 
L 1410.527216 -416.065696 
L 1410.513417 -412.675712 
L 1410.49096 -409.285728 
L 1410.461563 -405.895743 
L 1410.427446 -402.505759 
L 1410.391222 -399.115775 
L 1410.355786 -395.725791 
L 1410.324194 -392.335807 
L 1410.299547 -388.945823 
L 1410.284892 -385.555839 
L 1410.283134 -382.165855 
L 1410.29695 -378.775871 
L 1410.328711 -375.385887 
L 1410.380403 -371.995902 
L 1410.453537 -368.605918 
L 1410.549048 -365.215934 
L 1410.66719 -361.82595 
L 1410.807436 -358.435966 
L 1410.968385 -355.045982 
L 1411.147699 -351.655998 
L 1411.342087 -348.266014 
L 1411.547353 -344.87603 
L 1411.758512 -341.486046 
L 1411.969984 -338.096061 
L 1412.175872 -334.706077 
L 1412.370302 -331.316093 
L 1412.547807 -327.926109 
L 1412.703733 -324.536125 
L 1412.834623 -321.146141 
L 1412.938549 -317.756157 
L 1413.015348 -314.366173 
L 1413.06673 -310.976189 
L 1413.096243 -307.586205 
L 1413.109067 -304.19622 
L 1413.111666 -300.806236 
L 1413.1113 -297.416252 
L 1413.115448 -294.026268 
L 1413.131196 -290.636284 
L 1413.164637 -287.2463 
L 1413.220359 -283.856316 
L 1413.301062 -280.466332 
L 1413.407353 -277.076348 
L 1413.537738 -273.686363 
L 1413.688814 -270.296379 
L 1413.855639 -266.906395 
L 1414.032235 -263.516411 
L 1414.212179 -260.126427 
L 1414.389208 -256.736443 
L 1414.557791 -253.346459 
L 1414.713596 -249.956475 
L 1414.853825 -246.566491 
L 1414.977381 -243.176507 
L 1415.084881 -239.786522 
L 1415.178504 -236.396538 
L 1415.261719 -233.006554 
L 1415.338927 -229.61657 
L 1415.415049 -226.226586 
L 1415.495117 -222.836602 
L 1415.583892 -219.446618 
L 1415.685544 -216.056634 
L 1415.803413 -212.66665 
L 1415.939856 -209.276666 
L 1416.096195 -205.886681 
L 1416.272756 -202.496697 
L 1416.468984 -199.106713 
L 1416.683658 -195.716729 
L 1416.915153 -192.326745 
L 1417.161796 -188.936761 
L 1417.422267 -185.546777 
L 1417.696065 -182.156793 
L 1417.984028 -178.766809 
L 1418.288893 -175.376825 
L 1418.615878 -171.98684 
L 1418.973258 -168.596856 
L 1419.372892 -165.206872 
L 1419.830658 -161.816888 
L 1420.366699 -158.426904 
L 1421.005435 -155.03692 
L 1421.775209 -151.646936 
L 1422.707503 -148.256952 
L 1423.835626 -144.866968 
L 1425.192807 -141.476983 
L 1426.809688 -138.086999 
L 1428.71124 -134.697015 
L 1430.913255 -131.307031 
L 1433.418619 -127.917047 
L 1436.213685 -124.527063 
L 1439.265179 -121.137079 
L 1442.518072 -117.747095 
L 1445.894908 -114.357111 
L 1449.296958 -110.967127 
L 1452.607488 -107.577142 
L 1455.697146 -104.187158 
L 1458.431295 -100.797174 
L 1460.678761 -97.40719 
L 1462.321295 -94.017206 
L 1463.262805 -90.627222 
L 1463.437403 -87.237238 
L 1462.815332 -83.847254 
z
" style="stroke: #ffffff; stroke-opacity: 0.3"/>
    </defs>
    <g clip-path="url(#p9577a40235)">
     <use xlink:href="#mbee97e1b60" x="0" y="648" style="fill: #4c72b0; fill-opacity: 0.3; stroke: #ffffff; stroke-opacity: 0.3"/>
    </g>
   </g>
   <g id="PolyCollection_4">
    <defs>
     <path id="maff6be6633" d="M 1677.567273 -75.559091 
L 1570.502338 -75.559091 
L 1570.909095 -78.108454 
L 1573.442554 -80.657818 
L 1577.735102 -83.207181 
L 1583.23043 -85.756544 
L 1589.295216 -88.305908 
L 1595.333131 -90.855271 
L 1600.873687 -93.404634 
L 1605.619425 -95.953998 
L 1609.449063 -98.503361 
L 1612.386178 -101.052724 
L 1614.549478 -103.602088 
L 1616.101004 -106.151451 
L 1617.204308 -108.700814 
L 1617.998416 -111.250178 
L 1618.587568 -113.799541 
L 1619.042809 -116.348904 
L 1619.409927 -118.898268 
L 1619.718714 -121.447631 
L 1619.990174 -123.996995 
L 1620.240412 -126.546358 
L 1620.481667 -129.095721 
L 1620.721885 -131.645085 
L 1620.96429 -134.194448 
L 1621.207858 -136.743811 
L 1621.448756 -139.293175 
L 1621.682225 -141.842538 
L 1621.904167 -144.391901 
L 1622.111911 -146.941265 
L 1622.304119 -149.490628 
L 1622.48014 -152.039991 
L 1622.639377 -154.589355 
L 1622.781075 -157.138718 
L 1622.904668 -159.688081 
L 1623.010483 -162.237445 
L 1623.100381 -164.786808 
L 1623.177957 -167.336171 
L 1623.248093 -169.885535 
L 1623.31596 -172.434898 
L 1623.385818 -174.984262 
L 1623.460023 -177.533625 
L 1623.538582 -180.082988 
L 1623.619364 -182.632352 
L 1623.698851 -185.181715 
L 1623.77314 -187.731078 
L 1623.838874 -190.280442 
L 1623.893852 -192.829805 
L 1623.93722 -195.379168 
L 1623.969285 -197.928532 
L 1623.991085 -200.477895 
L 1624.003876 -203.027258 
L 1624.008668 -205.576622 
L 1624.005913 -208.125985 
L 1623.995386 -210.675348 
L 1623.976277 -213.224712 
L 1623.947499 -215.774075 
L 1623.908169 -218.323438 
L 1623.858204 -220.872802 
L 1623.798887 -223.422165 
L 1623.733261 -225.971528 
L 1623.666166 -228.520892 
L 1623.603822 -231.070255 
L 1623.552955 -233.619619 
L 1623.519635 -236.168982 
L 1623.50809 -238.718345 
L 1623.519829 -241.267709 
L 1623.55332 -243.817072 
L 1623.604313 -246.366435 
L 1623.666734 -248.915799 
L 1623.733862 -251.465162 
L 1623.799505 -254.014525 
L 1623.858873 -256.563889 
L 1623.909013 -259.113252 
L 1623.948796 -261.662615 
L 1623.978567 -264.211979 
L 1623.999641 -266.761342 
L 1624.013776 -269.310705 
L 1624.022773 -271.860069 
L 1624.028204 -274.409432 
L 1624.031299 -276.958795 
L 1624.032922 -279.508159 
L 1624.033606 -282.057522 
L 1624.033605 -284.606885 
L 1624.032917 -287.156249 
L 1624.03129 -289.705612 
L 1624.028187 -292.254976 
L 1624.022743 -294.804339 
L 1624.013729 -297.353702 
L 1623.999568 -299.903066 
L 1623.978462 -302.452429 
L 1623.94865 -305.001792 
L 1623.908824 -307.551156 
L 1623.858642 -310.100519 
L 1623.79924 -312.649882 
L 1623.733579 -315.199246 
L 1623.666457 -317.748609 
L 1623.60407 -320.297972 
L 1623.553138 -322.847336 
L 1623.519732 -325.396699 
L 1623.508089 -327.946062 
L 1624.561521 -327.946062 
L 1624.561521 -327.946062 
L 1624.549878 -325.396699 
L 1624.516472 -322.847336 
L 1624.46554 -320.297972 
L 1624.403153 -317.748609 
L 1624.336031 -315.199246 
L 1624.270371 -312.649882 
L 1624.210969 -310.100519 
L 1624.160786 -307.551156 
L 1624.12096 -305.001792 
L 1624.091149 -302.452429 
L 1624.070043 -299.903066 
L 1624.055882 -297.353702 
L 1624.046867 -294.804339 
L 1624.041423 -292.254976 
L 1624.038321 -289.705612 
L 1624.036693 -287.156249 
L 1624.036005 -284.606885 
L 1624.036004 -282.057522 
L 1624.036689 -279.508159 
L 1624.038311 -276.958795 
L 1624.041406 -274.409432 
L 1624.046838 -271.860069 
L 1624.055834 -269.310705 
L 1624.06997 -266.761342 
L 1624.091043 -264.211979 
L 1624.120815 -261.662615 
L 1624.160597 -259.113252 
L 1624.210737 -256.563889 
L 1624.270105 -254.014525 
L 1624.335748 -251.465162 
L 1624.402876 -248.915799 
L 1624.465297 -246.366435 
L 1624.516291 -243.817072 
L 1624.549781 -241.267709 
L 1624.561521 -238.718345 
L 1624.549976 -236.168982 
L 1624.516655 -233.619619 
L 1624.465788 -231.070255 
L 1624.403444 -228.520892 
L 1624.33635 -225.971528 
L 1624.270724 -223.422165 
L 1624.211407 -220.872802 
L 1624.161441 -218.323438 
L 1624.122112 -215.774075 
L 1624.093333 -213.224712 
L 1624.074224 -210.675348 
L 1624.063697 -208.125985 
L 1624.060942 -205.576622 
L 1624.065734 -203.027258 
L 1624.078525 -200.477895 
L 1624.100326 -197.928532 
L 1624.132391 -195.379168 
L 1624.175758 -192.829805 
L 1624.230736 -190.280442 
L 1624.29647 -187.731078 
L 1624.37076 -185.181715 
L 1624.450246 -182.632352 
L 1624.531028 -180.082988 
L 1624.609587 -177.533625 
L 1624.683793 -174.984262 
L 1624.753651 -172.434898 
L 1624.821518 -169.885535 
L 1624.891653 -167.336171 
L 1624.96923 -164.786808 
L 1625.059128 -162.237445 
L 1625.164942 -159.688081 
L 1625.288536 -157.138718 
L 1625.430233 -154.589355 
L 1625.58947 -152.039991 
L 1625.765491 -149.490628 
L 1625.957699 -146.941265 
L 1626.165444 -144.391901 
L 1626.387385 -141.842538 
L 1626.620855 -139.293175 
L 1626.861753 -136.743811 
L 1627.105321 -134.194448 
L 1627.347726 -131.645085 
L 1627.587943 -129.095721 
L 1627.829199 -126.546358 
L 1628.079437 -123.996995 
L 1628.350896 -121.447631 
L 1628.659683 -118.898268 
L 1629.026801 -116.348904 
L 1629.482042 -113.799541 
L 1630.071195 -111.250178 
L 1630.865302 -108.700814 
L 1631.968606 -106.151451 
L 1633.520133 -103.602088 
L 1635.683433 -101.052724 
L 1638.620547 -98.503361 
L 1642.450185 -95.953998 
L 1647.195923 -93.404634 
L 1652.736479 -90.855271 
L 1658.774394 -88.305908 
L 1664.83918 -85.756544 
L 1670.334508 -83.207181 
L 1674.627056 -80.657818 
L 1677.160515 -78.108454 
L 1677.567273 -75.559091 
z
" style="stroke: #ffffff; stroke-opacity: 0.3"/>
    </defs>
    <g clip-path="url(#p9577a40235)">
     <use xlink:href="#maff6be6633" x="0" y="648" style="fill: #4c72b0; fill-opacity: 0.3; stroke: #ffffff; stroke-opacity: 0.3"/>
    </g>
   </g>
   <g id="LineCollection_1">
    <path d="M 954.878961 508.889175 
L 1008.411429 508.889175 
" clip-path="url(#p9577a40235)" style="fill: none; stroke: #4c72b0; stroke-width: 1.5"/>
    <path d="M 1169.008831 554.495799 
L 1222.541299 554.495799 
" clip-path="url(#p9577a40235)" style="fill: none; stroke: #4c72b0; stroke-width: 1.5"/>
    <path d="M 1383.138701 562.786229 
L 1436.671169 562.786229 
" clip-path="url(#p9577a40235)" style="fill: none; stroke: #4c72b0; stroke-width: 1.5"/>
    <path d="M 1597.268571 572.181975 
L 1650.801039 572.181975 
" clip-path="url(#p9577a40235)" style="fill: none; stroke: #4c72b0; stroke-width: 1.5"/>
   </g>
   <g id="LineCollection_2">
    <path d="M 954.878961 518.776298 
L 1008.411429 518.776298 
" clip-path="url(#p9577a40235)" style="fill: none; stroke: #4c72b0; stroke-width: 1.5"/>
    <path d="M 954.878961 499.752083 
L 1008.411429 499.752083 
" clip-path="url(#p9577a40235)" style="fill: none; stroke: #4c72b0; stroke-width: 1.5"/>
    <path d="M 1169.008831 556.459843 
L 1222.541299 556.459843 
" clip-path="url(#p9577a40235)" style="fill: none; stroke: #4c72b0; stroke-width: 1.5"/>
    <path d="M 1169.008831 408.696424 
L 1222.541299 408.696424 
" clip-path="url(#p9577a40235)" style="fill: none; stroke: #4c72b0; stroke-width: 1.5"/>
    <path d="M 1383.138701 564.068058 
L 1436.671169 564.068058 
" clip-path="url(#p9577a40235)" style="fill: none; stroke: #4c72b0; stroke-width: 1.5"/>
    <path d="M 1383.138701 383.797018 
L 1436.671169 383.797018 
" clip-path="url(#p9577a40235)" style="fill: none; stroke: #4c72b0; stroke-width: 1.5"/>
    <path d="M 1597.268571 572.419125 
L 1650.801039 572.419125 
" clip-path="url(#p9577a40235)" style="fill: none; stroke: #4c72b0; stroke-width: 1.5"/>
    <path d="M 1597.268571 520.591553 
L 1650.801039 520.591553 
" clip-path="url(#p9577a40235)" style="fill: none; stroke: #4c72b0; stroke-width: 1.5"/>
   </g>
   <g id="patch_8">
    <path d="M 890.64 597.78 
L 890.64 40.32 
" style="fill: none; stroke: #ffffff; stroke-width: 1.25; stroke-linejoin: miter; stroke-linecap: square"/>
   </g>
   <g id="patch_9">
    <path d="M 1715.04 597.78 
L 1715.04 40.32 
" style="fill: none; stroke: #ffffff; stroke-width: 1.25; stroke-linejoin: miter; stroke-linecap: square"/>
   </g>
   <g id="patch_10">
    <path d="M 890.64 597.78 
L 1715.04 597.78 
" style="fill: none; stroke: #ffffff; stroke-width: 1.25; stroke-linejoin: miter; stroke-linecap: square"/>
   </g>
   <g id="patch_11">
    <path d="M 890.64 40.32 
L 1715.04 40.32 
" style="fill: none; stroke: #ffffff; stroke-width: 1.25; stroke-linejoin: miter; stroke-linecap: square"/>
   </g>
  </g>
  <g id="text_18">
   <!-- Runtime plots for N = M = 8000 and num_procs = 48 -->
   <g style="fill: #262626" transform="translate(671.353875 23.90175)scale(0.144 -0.144)">
    <defs>
     <path id="DejaVuSans-6f" d="M 1959 3097 
Q 1497 3097 1228 2736 
Q 959 2375 959 1747 
Q 959 1119 1226 758 
Q 1494 397 1959 397 
Q 2419 397 2687 759 
Q 2956 1122 2956 1747 
Q 2956 2369 2687 2733 
Q 2419 3097 1959 3097 
z
M 1959 3584 
Q 2709 3584 3137 3096 
Q 3566 2609 3566 1747 
Q 3566 888 3137 398 
Q 2709 -91 1959 -91 
Q 1206 -91 779 398 
Q 353 888 353 1747 
Q 353 2609 779 3096 
Q 1206 3584 1959 3584 
z
" transform="scale(0.015625)"/>
     <path id="DejaVuSans-4e" d="M 628 4666 
L 1478 4666 
L 3547 763 
L 3547 4666 
L 4159 4666 
L 4159 0 
L 3309 0 
L 1241 3903 
L 1241 0 
L 628 0 
L 628 4666 
z
" transform="scale(0.015625)"/>
     <path id="DejaVuSans-3d" d="M 678 2906 
L 4684 2906 
L 4684 2381 
L 678 2381 
L 678 2906 
z
M 678 1631 
L 4684 1631 
L 4684 1100 
L 678 1100 
L 678 1631 
z
" transform="scale(0.015625)"/>
     <path id="DejaVuSans-4d" d="M 628 4666 
L 1569 4666 
L 2759 1491 
L 3956 4666 
L 4897 4666 
L 4897 0 
L 4281 0 
L 4281 4097 
L 3078 897 
L 2444 897 
L 1241 4097 
L 1241 0 
L 628 0 
L 628 4666 
z
" transform="scale(0.015625)"/>
     <path id="DejaVuSans-38" d="M 2034 2216 
Q 1584 2216 1326 1975 
Q 1069 1734 1069 1313 
Q 1069 891 1326 650 
Q 1584 409 2034 409 
Q 2484 409 2743 651 
Q 3003 894 3003 1313 
Q 3003 1734 2745 1975 
Q 2488 2216 2034 2216 
z
M 1403 2484 
Q 997 2584 770 2862 
Q 544 3141 544 3541 
Q 544 4100 942 4425 
Q 1341 4750 2034 4750 
Q 2731 4750 3128 4425 
Q 3525 4100 3525 3541 
Q 3525 3141 3298 2862 
Q 3072 2584 2669 2484 
Q 3125 2378 3379 2068 
Q 3634 1759 3634 1313 
Q 3634 634 3220 271 
Q 2806 -91 2034 -91 
Q 1263 -91 848 271 
Q 434 634 434 1313 
Q 434 1759 690 2068 
Q 947 2378 1403 2484 
z
M 1172 3481 
Q 1172 3119 1398 2916 
Q 1625 2713 2034 2713 
Q 2441 2713 2670 2916 
Q 2900 3119 2900 3481 
Q 2900 3844 2670 4047 
Q 2441 4250 2034 4250 
Q 1625 4250 1398 4047 
Q 1172 3844 1172 3481 
z
" transform="scale(0.015625)"/>
     <path id="DejaVuSans-5f" d="M 3263 -1063 
L 3263 -1509 
L -63 -1509 
L -63 -1063 
L 3263 -1063 
z
" transform="scale(0.015625)"/>
     <path id="DejaVuSans-34" d="M 2419 4116 
L 825 1625 
L 2419 1625 
L 2419 4116 
z
M 2253 4666 
L 3047 4666 
L 3047 1625 
L 3713 1625 
L 3713 1100 
L 3047 1100 
L 3047 0 
L 2419 0 
L 2419 1100 
L 313 1100 
L 313 1709 
L 2253 4666 
z
" transform="scale(0.015625)"/>
    </defs>
    <use xlink:href="#DejaVuSans-52"/>
    <use xlink:href="#DejaVuSans-75" x="64.982422"/>
    <use xlink:href="#DejaVuSans-6e" x="128.361328"/>
    <use xlink:href="#DejaVuSans-74" x="191.740234"/>
    <use xlink:href="#DejaVuSans-69" x="230.949219"/>
    <use xlink:href="#DejaVuSans-6d" x="258.732422"/>
    <use xlink:href="#DejaVuSans-65" x="356.144531"/>
    <use xlink:href="#DejaVuSans-20" x="417.667969"/>
    <use xlink:href="#DejaVuSans-70" x="449.455078"/>
    <use xlink:href="#DejaVuSans-6c" x="512.931641"/>
    <use xlink:href="#DejaVuSans-6f" x="540.714844"/>
    <use xlink:href="#DejaVuSans-74" x="601.896484"/>
    <use xlink:href="#DejaVuSans-73" x="641.105469"/>
    <use xlink:href="#DejaVuSans-20" x="693.205078"/>
    <use xlink:href="#DejaVuSans-66" x="724.992188"/>
    <use xlink:href="#DejaVuSans-6f" x="760.197266"/>
    <use xlink:href="#DejaVuSans-72" x="821.378906"/>
    <use xlink:href="#DejaVuSans-20" x="862.492188"/>
    <use xlink:href="#DejaVuSans-4e" x="894.279297"/>
    <use xlink:href="#DejaVuSans-20" x="969.083984"/>
    <use xlink:href="#DejaVuSans-3d" x="1000.871094"/>
    <use xlink:href="#DejaVuSans-20" x="1084.660156"/>
    <use xlink:href="#DejaVuSans-4d" x="1116.447266"/>
    <use xlink:href="#DejaVuSans-20" x="1202.726562"/>
    <use xlink:href="#DejaVuSans-3d" x="1234.513672"/>
    <use xlink:href="#DejaVuSans-20" x="1318.302734"/>
    <use xlink:href="#DejaVuSans-38" x="1350.089844"/>
    <use xlink:href="#DejaVuSans-30" x="1413.712891"/>
    <use xlink:href="#DejaVuSans-30" x="1477.335938"/>
    <use xlink:href="#DejaVuSans-30" x="1540.958984"/>
    <use xlink:href="#DejaVuSans-20" x="1604.582031"/>
    <use xlink:href="#DejaVuSans-61" x="1636.369141"/>
    <use xlink:href="#DejaVuSans-6e" x="1697.648438"/>
    <use xlink:href="#DejaVuSans-64" x="1761.027344"/>
    <use xlink:href="#DejaVuSans-20" x="1824.503906"/>
    <use xlink:href="#DejaVuSans-6e" x="1856.291016"/>
    <use xlink:href="#DejaVuSans-75" x="1919.669922"/>
    <use xlink:href="#DejaVuSans-6d" x="1983.048828"/>
    <use xlink:href="#DejaVuSans-5f" x="2080.460938"/>
    <use xlink:href="#DejaVuSans-70" x="2130.460938"/>
    <use xlink:href="#DejaVuSans-72" x="2193.9375"/>
    <use xlink:href="#DejaVuSans-6f" x="2232.800781"/>
    <use xlink:href="#DejaVuSans-63" x="2293.982422"/>
    <use xlink:href="#DejaVuSans-73" x="2348.962891"/>
    <use xlink:href="#DejaVuSans-20" x="2401.0625"/>
    <use xlink:href="#DejaVuSans-3d" x="2432.849609"/>
    <use xlink:href="#DejaVuSans-20" x="2516.638672"/>
    <use xlink:href="#DejaVuSans-34" x="2548.425781"/>
    <use xlink:href="#DejaVuSans-38" x="2612.048828"/>
   </g>
  </g>
 </g>
 <defs>
  <clipPath id="pa2e80cd8be">
   <rect x="53.28" y="40.32" width="824.4" height="557.46"/>
  </clipPath>
  <clipPath id="p9577a40235">
   <rect x="890.64" y="40.32" width="824.4" height="557.46"/>
  </clipPath>
 </defs>
</svg>
