<?xml version="1.0" encoding="utf-8" standalone="no"?>
<!DOCTYPE svg PUBLIC "-//W3C//DTD SVG 1.1//EN"
  "http://www.w3.org/Graphics/SVG/1.1/DTD/svg11.dtd">
<svg xmlns:xlink="http://www.w3.org/1999/xlink" width="720pt" height="360pt" viewBox="0 0 720 360" xmlns="http://www.w3.org/2000/svg" version="1.1">
 <metadata>
  <rdf:RDF xmlns:dc="http://purl.org/dc/elements/1.1/" xmlns:cc="http://creativecommons.org/ns#" xmlns:rdf="http://www.w3.org/1999/02/22-rdf-syntax-ns#">
   <cc:Work>
    <dc:type rdf:resource="http://purl.org/dc/dcmitype/StillImage"/>
    <dc:date>2021-12-23T19:07:34.379431</dc:date>
    <dc:format>image/svg+xml</dc:format>
    <dc:creator>
     <cc:Agent>
      <dc:title>Matplotlib v3.5.1, https://matplotlib.org/</dc:title>
     </cc:Agent>
    </dc:creator>
   </cc:Work>
  </rdf:RDF>
 </metadata>
 <defs>
  <style type="text/css">*{stroke-linejoin: round; stroke-linecap: butt}</style>
 </defs>
 <g id="figure_1">
  <g id="patch_1">
   <path d="M 0 360 
L 720 360 
L 720 0 
L 0 0 
z
" style="fill: #ffffff"/>
  </g>
  <g id="axes_1">
   <g id="patch_2">
    <path d="M 56.88 309.78 
L 707.04 309.78 
L 707.04 29.04 
L 56.88 29.04 
z
" style="fill: #eaeaf2"/>
   </g>
   <g id="matplotlib.axis_1">
    <g id="xtick_1">
     <g id="line2d_1">
      <path d="M 86.432727 309.78 
L 86.432727 29.04 
" clip-path="url(#pd275d60b82)" style="fill: none; stroke: #ffffff; stroke-linecap: round"/>
     </g>
     <g id="text_1">
      <!-- 1000 -->
      <g style="fill: #262626" transform="translate(72.435227 327.638281)scale(0.11 -0.11)">
       <defs>
        <path id="DejaVuSans-31" d="M 794 531 
L 1825 531 
L 1825 4091 
L 703 3866 
L 703 4441 
L 1819 4666 
L 2450 4666 
L 2450 531 
L 3481 531 
L 3481 0 
L 794 0 
L 794 531 
z
" transform="scale(0.015625)"/>
        <path id="DejaVuSans-30" d="M 2034 4250 
Q 1547 4250 1301 3770 
Q 1056 3291 1056 2328 
Q 1056 1369 1301 889 
Q 1547 409 2034 409 
Q 2525 409 2770 889 
Q 3016 1369 3016 2328 
Q 3016 3291 2770 3770 
Q 2525 4250 2034 4250 
z
M 2034 4750 
Q 2819 4750 3233 4129 
Q 3647 3509 3647 2328 
Q 3647 1150 3233 529 
Q 2819 -91 2034 -91 
Q 1250 -91 836 529 
Q 422 1150 422 2328 
Q 422 3509 836 4129 
Q 1250 4750 2034 4750 
z
" transform="scale(0.015625)"/>
       </defs>
       <use xlink:href="#DejaVuSans-31"/>
       <use xlink:href="#DejaVuSans-30" x="63.623047"/>
       <use xlink:href="#DejaVuSans-30" x="127.246094"/>
       <use xlink:href="#DejaVuSans-30" x="190.869141"/>
      </g>
     </g>
    </g>
    <g id="xtick_2">
     <g id="line2d_2">
      <path d="M 170.869091 309.78 
L 170.869091 29.04 
" clip-path="url(#pd275d60b82)" style="fill: none; stroke: #ffffff; stroke-linecap: round"/>
     </g>
     <g id="text_2">
      <!-- 2000 -->
      <g style="fill: #262626" transform="translate(156.871591 327.638281)scale(0.11 -0.11)">
       <defs>
        <path id="DejaVuSans-32" d="M 1228 531 
L 3431 531 
L 3431 0 
L 469 0 
L 469 531 
Q 828 903 1448 1529 
Q 2069 2156 2228 2338 
Q 2531 2678 2651 2914 
Q 2772 3150 2772 3378 
Q 2772 3750 2511 3984 
Q 2250 4219 1831 4219 
Q 1534 4219 1204 4116 
Q 875 4013 500 3803 
L 500 4441 
Q 881 4594 1212 4672 
Q 1544 4750 1819 4750 
Q 2544 4750 2975 4387 
Q 3406 4025 3406 3419 
Q 3406 3131 3298 2873 
Q 3191 2616 2906 2266 
Q 2828 2175 2409 1742 
Q 1991 1309 1228 531 
z
" transform="scale(0.015625)"/>
       </defs>
       <use xlink:href="#DejaVuSans-32"/>
       <use xlink:href="#DejaVuSans-30" x="63.623047"/>
       <use xlink:href="#DejaVuSans-30" x="127.246094"/>
       <use xlink:href="#DejaVuSans-30" x="190.869141"/>
      </g>
     </g>
    </g>
    <g id="xtick_3">
     <g id="line2d_3">
      <path d="M 255.305455 309.78 
L 255.305455 29.04 
" clip-path="url(#pd275d60b82)" style="fill: none; stroke: #ffffff; stroke-linecap: round"/>
     </g>
     <g id="text_3">
      <!-- 3000 -->
      <g style="fill: #262626" transform="translate(241.307955 327.638281)scale(0.11 -0.11)">
       <defs>
        <path id="DejaVuSans-33" d="M 2597 2516 
Q 3050 2419 3304 2112 
Q 3559 1806 3559 1356 
Q 3559 666 3084 287 
Q 2609 -91 1734 -91 
Q 1441 -91 1130 -33 
Q 819 25 488 141 
L 488 750 
Q 750 597 1062 519 
Q 1375 441 1716 441 
Q 2309 441 2620 675 
Q 2931 909 2931 1356 
Q 2931 1769 2642 2001 
Q 2353 2234 1838 2234 
L 1294 2234 
L 1294 2753 
L 1863 2753 
Q 2328 2753 2575 2939 
Q 2822 3125 2822 3475 
Q 2822 3834 2567 4026 
Q 2313 4219 1838 4219 
Q 1578 4219 1281 4162 
Q 984 4106 628 3988 
L 628 4550 
Q 988 4650 1302 4700 
Q 1616 4750 1894 4750 
Q 2613 4750 3031 4423 
Q 3450 4097 3450 3541 
Q 3450 3153 3228 2886 
Q 3006 2619 2597 2516 
z
" transform="scale(0.015625)"/>
       </defs>
       <use xlink:href="#DejaVuSans-33"/>
       <use xlink:href="#DejaVuSans-30" x="63.623047"/>
       <use xlink:href="#DejaVuSans-30" x="127.246094"/>
       <use xlink:href="#DejaVuSans-30" x="190.869141"/>
      </g>
     </g>
    </g>
    <g id="xtick_4">
     <g id="line2d_4">
      <path d="M 339.741818 309.78 
L 339.741818 29.04 
" clip-path="url(#pd275d60b82)" style="fill: none; stroke: #ffffff; stroke-linecap: round"/>
     </g>
     <g id="text_4">
      <!-- 4000 -->
      <g style="fill: #262626" transform="translate(325.744318 327.638281)scale(0.11 -0.11)">
       <defs>
        <path id="DejaVuSans-34" d="M 2419 4116 
L 825 1625 
L 2419 1625 
L 2419 4116 
z
M 2253 4666 
L 3047 4666 
L 3047 1625 
L 3713 1625 
L 3713 1100 
L 3047 1100 
L 3047 0 
L 2419 0 
L 2419 1100 
L 313 1100 
L 313 1709 
L 2253 4666 
z
" transform="scale(0.015625)"/>
       </defs>
       <use xlink:href="#DejaVuSans-34"/>
       <use xlink:href="#DejaVuSans-30" x="63.623047"/>
       <use xlink:href="#DejaVuSans-30" x="127.246094"/>
       <use xlink:href="#DejaVuSans-30" x="190.869141"/>
      </g>
     </g>
    </g>
    <g id="xtick_5">
     <g id="line2d_5">
      <path d="M 424.178182 309.78 
L 424.178182 29.04 
" clip-path="url(#pd275d60b82)" style="fill: none; stroke: #ffffff; stroke-linecap: round"/>
     </g>
     <g id="text_5">
      <!-- 5000 -->
      <g style="fill: #262626" transform="translate(410.180682 327.638281)scale(0.11 -0.11)">
       <defs>
        <path id="DejaVuSans-35" d="M 691 4666 
L 3169 4666 
L 3169 4134 
L 1269 4134 
L 1269 2991 
Q 1406 3038 1543 3061 
Q 1681 3084 1819 3084 
Q 2600 3084 3056 2656 
Q 3513 2228 3513 1497 
Q 3513 744 3044 326 
Q 2575 -91 1722 -91 
Q 1428 -91 1123 -41 
Q 819 9 494 109 
L 494 744 
Q 775 591 1075 516 
Q 1375 441 1709 441 
Q 2250 441 2565 725 
Q 2881 1009 2881 1497 
Q 2881 1984 2565 2268 
Q 2250 2553 1709 2553 
Q 1456 2553 1204 2497 
Q 953 2441 691 2322 
L 691 4666 
z
" transform="scale(0.015625)"/>
       </defs>
       <use xlink:href="#DejaVuSans-35"/>
       <use xlink:href="#DejaVuSans-30" x="63.623047"/>
       <use xlink:href="#DejaVuSans-30" x="127.246094"/>
       <use xlink:href="#DejaVuSans-30" x="190.869141"/>
      </g>
     </g>
    </g>
    <g id="xtick_6">
     <g id="line2d_6">
      <path d="M 508.614545 309.78 
L 508.614545 29.04 
" clip-path="url(#pd275d60b82)" style="fill: none; stroke: #ffffff; stroke-linecap: round"/>
     </g>
     <g id="text_6">
      <!-- 6000 -->
      <g style="fill: #262626" transform="translate(494.617045 327.638281)scale(0.11 -0.11)">
       <defs>
        <path id="DejaVuSans-36" d="M 2113 2584 
Q 1688 2584 1439 2293 
Q 1191 2003 1191 1497 
Q 1191 994 1439 701 
Q 1688 409 2113 409 
Q 2538 409 2786 701 
Q 3034 994 3034 1497 
Q 3034 2003 2786 2293 
Q 2538 2584 2113 2584 
z
M 3366 4563 
L 3366 3988 
Q 3128 4100 2886 4159 
Q 2644 4219 2406 4219 
Q 1781 4219 1451 3797 
Q 1122 3375 1075 2522 
Q 1259 2794 1537 2939 
Q 1816 3084 2150 3084 
Q 2853 3084 3261 2657 
Q 3669 2231 3669 1497 
Q 3669 778 3244 343 
Q 2819 -91 2113 -91 
Q 1303 -91 875 529 
Q 447 1150 447 2328 
Q 447 3434 972 4092 
Q 1497 4750 2381 4750 
Q 2619 4750 2861 4703 
Q 3103 4656 3366 4563 
z
" transform="scale(0.015625)"/>
       </defs>
       <use xlink:href="#DejaVuSans-36"/>
       <use xlink:href="#DejaVuSans-30" x="63.623047"/>
       <use xlink:href="#DejaVuSans-30" x="127.246094"/>
       <use xlink:href="#DejaVuSans-30" x="190.869141"/>
      </g>
     </g>
    </g>
    <g id="xtick_7">
     <g id="line2d_7">
      <path d="M 593.050909 309.78 
L 593.050909 29.04 
" clip-path="url(#pd275d60b82)" style="fill: none; stroke: #ffffff; stroke-linecap: round"/>
     </g>
     <g id="text_7">
      <!-- 7000 -->
      <g style="fill: #262626" transform="translate(579.053409 327.638281)scale(0.11 -0.11)">
       <defs>
        <path id="DejaVuSans-37" d="M 525 4666 
L 3525 4666 
L 3525 4397 
L 1831 0 
L 1172 0 
L 2766 4134 
L 525 4134 
L 525 4666 
z
" transform="scale(0.015625)"/>
       </defs>
       <use xlink:href="#DejaVuSans-37"/>
       <use xlink:href="#DejaVuSans-30" x="63.623047"/>
       <use xlink:href="#DejaVuSans-30" x="127.246094"/>
       <use xlink:href="#DejaVuSans-30" x="190.869141"/>
      </g>
     </g>
    </g>
    <g id="xtick_8">
     <g id="line2d_8">
      <path d="M 677.487273 309.78 
L 677.487273 29.04 
" clip-path="url(#pd275d60b82)" style="fill: none; stroke: #ffffff; stroke-linecap: round"/>
     </g>
     <g id="text_8">
      <!-- 8000 -->
      <g style="fill: #262626" transform="translate(663.489773 327.638281)scale(0.11 -0.11)">
       <defs>
        <path id="DejaVuSans-38" d="M 2034 2216 
Q 1584 2216 1326 1975 
Q 1069 1734 1069 1313 
Q 1069 891 1326 650 
Q 1584 409 2034 409 
Q 2484 409 2743 651 
Q 3003 894 3003 1313 
Q 3003 1734 2745 1975 
Q 2488 2216 2034 2216 
z
M 1403 2484 
Q 997 2584 770 2862 
Q 544 3141 544 3541 
Q 544 4100 942 4425 
Q 1341 4750 2034 4750 
Q 2731 4750 3128 4425 
Q 3525 4100 3525 3541 
Q 3525 3141 3298 2862 
Q 3072 2584 2669 2484 
Q 3125 2378 3379 2068 
Q 3634 1759 3634 1313 
Q 3634 634 3220 271 
Q 2806 -91 2034 -91 
Q 1263 -91 848 271 
Q 434 634 434 1313 
Q 434 1759 690 2068 
Q 947 2378 1403 2484 
z
M 1172 3481 
Q 1172 3119 1398 2916 
Q 1625 2713 2034 2713 
Q 2441 2713 2670 2916 
Q 2900 3119 2900 3481 
Q 2900 3844 2670 4047 
Q 2441 4250 2034 4250 
Q 1625 4250 1398 4047 
Q 1172 3844 1172 3481 
z
" transform="scale(0.015625)"/>
       </defs>
       <use xlink:href="#DejaVuSans-38"/>
       <use xlink:href="#DejaVuSans-30" x="63.623047"/>
       <use xlink:href="#DejaVuSans-30" x="127.246094"/>
       <use xlink:href="#DejaVuSans-30" x="190.869141"/>
      </g>
     </g>
    </g>
    <g id="text_9">
     <!-- Input Dimension -->
     <g style="fill: #262626" transform="translate(332.625 343.044062)scale(0.12 -0.12)">
      <defs>
       <path id="DejaVuSans-49" d="M 628 4666 
L 1259 4666 
L 1259 0 
L 628 0 
L 628 4666 
z
" transform="scale(0.015625)"/>
       <path id="DejaVuSans-6e" d="M 3513 2113 
L 3513 0 
L 2938 0 
L 2938 2094 
Q 2938 2591 2744 2837 
Q 2550 3084 2163 3084 
Q 1697 3084 1428 2787 
Q 1159 2491 1159 1978 
L 1159 0 
L 581 0 
L 581 3500 
L 1159 3500 
L 1159 2956 
Q 1366 3272 1645 3428 
Q 1925 3584 2291 3584 
Q 2894 3584 3203 3211 
Q 3513 2838 3513 2113 
z
" transform="scale(0.015625)"/>
       <path id="DejaVuSans-70" d="M 1159 525 
L 1159 -1331 
L 581 -1331 
L 581 3500 
L 1159 3500 
L 1159 2969 
Q 1341 3281 1617 3432 
Q 1894 3584 2278 3584 
Q 2916 3584 3314 3078 
Q 3713 2572 3713 1747 
Q 3713 922 3314 415 
Q 2916 -91 2278 -91 
Q 1894 -91 1617 61 
Q 1341 213 1159 525 
z
M 3116 1747 
Q 3116 2381 2855 2742 
Q 2594 3103 2138 3103 
Q 1681 3103 1420 2742 
Q 1159 2381 1159 1747 
Q 1159 1113 1420 752 
Q 1681 391 2138 391 
Q 2594 391 2855 752 
Q 3116 1113 3116 1747 
z
" transform="scale(0.015625)"/>
       <path id="DejaVuSans-75" d="M 544 1381 
L 544 3500 
L 1119 3500 
L 1119 1403 
Q 1119 906 1312 657 
Q 1506 409 1894 409 
Q 2359 409 2629 706 
Q 2900 1003 2900 1516 
L 2900 3500 
L 3475 3500 
L 3475 0 
L 2900 0 
L 2900 538 
Q 2691 219 2414 64 
Q 2138 -91 1772 -91 
Q 1169 -91 856 284 
Q 544 659 544 1381 
z
M 1991 3584 
L 1991 3584 
z
" transform="scale(0.015625)"/>
       <path id="DejaVuSans-74" d="M 1172 4494 
L 1172 3500 
L 2356 3500 
L 2356 3053 
L 1172 3053 
L 1172 1153 
Q 1172 725 1289 603 
Q 1406 481 1766 481 
L 2356 481 
L 2356 0 
L 1766 0 
Q 1100 0 847 248 
Q 594 497 594 1153 
L 594 3053 
L 172 3053 
L 172 3500 
L 594 3500 
L 594 4494 
L 1172 4494 
z
" transform="scale(0.015625)"/>
       <path id="DejaVuSans-20" transform="scale(0.015625)"/>
       <path id="DejaVuSans-44" d="M 1259 4147 
L 1259 519 
L 2022 519 
Q 2988 519 3436 956 
Q 3884 1394 3884 2338 
Q 3884 3275 3436 3711 
Q 2988 4147 2022 4147 
L 1259 4147 
z
M 628 4666 
L 1925 4666 
Q 3281 4666 3915 4102 
Q 4550 3538 4550 2338 
Q 4550 1131 3912 565 
Q 3275 0 1925 0 
L 628 0 
L 628 4666 
z
" transform="scale(0.015625)"/>
       <path id="DejaVuSans-69" d="M 603 3500 
L 1178 3500 
L 1178 0 
L 603 0 
L 603 3500 
z
M 603 4863 
L 1178 4863 
L 1178 4134 
L 603 4134 
L 603 4863 
z
" transform="scale(0.015625)"/>
       <path id="DejaVuSans-6d" d="M 3328 2828 
Q 3544 3216 3844 3400 
Q 4144 3584 4550 3584 
Q 5097 3584 5394 3201 
Q 5691 2819 5691 2113 
L 5691 0 
L 5113 0 
L 5113 2094 
Q 5113 2597 4934 2840 
Q 4756 3084 4391 3084 
Q 3944 3084 3684 2787 
Q 3425 2491 3425 1978 
L 3425 0 
L 2847 0 
L 2847 2094 
Q 2847 2600 2669 2842 
Q 2491 3084 2119 3084 
Q 1678 3084 1418 2786 
Q 1159 2488 1159 1978 
L 1159 0 
L 581 0 
L 581 3500 
L 1159 3500 
L 1159 2956 
Q 1356 3278 1631 3431 
Q 1906 3584 2284 3584 
Q 2666 3584 2933 3390 
Q 3200 3197 3328 2828 
z
" transform="scale(0.015625)"/>
       <path id="DejaVuSans-65" d="M 3597 1894 
L 3597 1613 
L 953 1613 
Q 991 1019 1311 708 
Q 1631 397 2203 397 
Q 2534 397 2845 478 
Q 3156 559 3463 722 
L 3463 178 
Q 3153 47 2828 -22 
Q 2503 -91 2169 -91 
Q 1331 -91 842 396 
Q 353 884 353 1716 
Q 353 2575 817 3079 
Q 1281 3584 2069 3584 
Q 2775 3584 3186 3129 
Q 3597 2675 3597 1894 
z
M 3022 2063 
Q 3016 2534 2758 2815 
Q 2500 3097 2075 3097 
Q 1594 3097 1305 2825 
Q 1016 2553 972 2059 
L 3022 2063 
z
" transform="scale(0.015625)"/>
       <path id="DejaVuSans-73" d="M 2834 3397 
L 2834 2853 
Q 2591 2978 2328 3040 
Q 2066 3103 1784 3103 
Q 1356 3103 1142 2972 
Q 928 2841 928 2578 
Q 928 2378 1081 2264 
Q 1234 2150 1697 2047 
L 1894 2003 
Q 2506 1872 2764 1633 
Q 3022 1394 3022 966 
Q 3022 478 2636 193 
Q 2250 -91 1575 -91 
Q 1294 -91 989 -36 
Q 684 19 347 128 
L 347 722 
Q 666 556 975 473 
Q 1284 391 1588 391 
Q 1994 391 2212 530 
Q 2431 669 2431 922 
Q 2431 1156 2273 1281 
Q 2116 1406 1581 1522 
L 1381 1569 
Q 847 1681 609 1914 
Q 372 2147 372 2553 
Q 372 3047 722 3315 
Q 1072 3584 1716 3584 
Q 2034 3584 2315 3537 
Q 2597 3491 2834 3397 
z
" transform="scale(0.015625)"/>
       <path id="DejaVuSans-6f" d="M 1959 3097 
Q 1497 3097 1228 2736 
Q 959 2375 959 1747 
Q 959 1119 1226 758 
Q 1494 397 1959 397 
Q 2419 397 2687 759 
Q 2956 1122 2956 1747 
Q 2956 2369 2687 2733 
Q 2419 3097 1959 3097 
z
M 1959 3584 
Q 2709 3584 3137 3096 
Q 3566 2609 3566 1747 
Q 3566 888 3137 398 
Q 2709 -91 1959 -91 
Q 1206 -91 779 398 
Q 353 888 353 1747 
Q 353 2609 779 3096 
Q 1206 3584 1959 3584 
z
" transform="scale(0.015625)"/>
      </defs>
      <use xlink:href="#DejaVuSans-49"/>
      <use xlink:href="#DejaVuSans-6e" x="29.492188"/>
      <use xlink:href="#DejaVuSans-70" x="92.871094"/>
      <use xlink:href="#DejaVuSans-75" x="156.347656"/>
      <use xlink:href="#DejaVuSans-74" x="219.726562"/>
      <use xlink:href="#DejaVuSans-20" x="258.935547"/>
      <use xlink:href="#DejaVuSans-44" x="290.722656"/>
      <use xlink:href="#DejaVuSans-69" x="367.724609"/>
      <use xlink:href="#DejaVuSans-6d" x="395.507812"/>
      <use xlink:href="#DejaVuSans-65" x="492.919922"/>
      <use xlink:href="#DejaVuSans-6e" x="554.443359"/>
      <use xlink:href="#DejaVuSans-73" x="617.822266"/>
      <use xlink:href="#DejaVuSans-69" x="669.921875"/>
      <use xlink:href="#DejaVuSans-6f" x="697.705078"/>
      <use xlink:href="#DejaVuSans-6e" x="758.886719"/>
     </g>
    </g>
   </g>
   <g id="matplotlib.axis_2">
    <g id="ytick_1">
     <g id="line2d_9">
      <path d="M 56.88 297.789849 
L 707.04 297.789849 
" clip-path="url(#pd275d60b82)" style="fill: none; stroke: #ffffff; stroke-linecap: round"/>
     </g>
     <g id="text_10">
      <!-- 0.0 -->
      <g style="fill: #262626" transform="translate(29.886563 301.968989)scale(0.11 -0.11)">
       <defs>
        <path id="DejaVuSans-2e" d="M 684 794 
L 1344 794 
L 1344 0 
L 684 0 
L 684 794 
z
" transform="scale(0.015625)"/>
       </defs>
       <use xlink:href="#DejaVuSans-30"/>
       <use xlink:href="#DejaVuSans-2e" x="63.623047"/>
       <use xlink:href="#DejaVuSans-30" x="95.410156"/>
      </g>
     </g>
    </g>
    <g id="ytick_2">
     <g id="line2d_10">
      <path d="M 56.88 266.120627 
L 707.04 266.120627 
" clip-path="url(#pd275d60b82)" style="fill: none; stroke: #ffffff; stroke-linecap: round"/>
     </g>
     <g id="text_11">
      <!-- 0.5 -->
      <g style="fill: #262626" transform="translate(29.886563 270.299767)scale(0.11 -0.11)">
       <use xlink:href="#DejaVuSans-30"/>
       <use xlink:href="#DejaVuSans-2e" x="63.623047"/>
       <use xlink:href="#DejaVuSans-35" x="95.410156"/>
      </g>
     </g>
    </g>
    <g id="ytick_3">
     <g id="line2d_11">
      <path d="M 56.88 234.451405 
L 707.04 234.451405 
" clip-path="url(#pd275d60b82)" style="fill: none; stroke: #ffffff; stroke-linecap: round"/>
     </g>
     <g id="text_12">
      <!-- 1.0 -->
      <g style="fill: #262626" transform="translate(29.886563 238.630545)scale(0.11 -0.11)">
       <use xlink:href="#DejaVuSans-31"/>
       <use xlink:href="#DejaVuSans-2e" x="63.623047"/>
       <use xlink:href="#DejaVuSans-30" x="95.410156"/>
      </g>
     </g>
    </g>
    <g id="ytick_4">
     <g id="line2d_12">
      <path d="M 56.88 202.782183 
L 707.04 202.782183 
" clip-path="url(#pd275d60b82)" style="fill: none; stroke: #ffffff; stroke-linecap: round"/>
     </g>
     <g id="text_13">
      <!-- 1.5 -->
      <g style="fill: #262626" transform="translate(29.886563 206.961323)scale(0.11 -0.11)">
       <use xlink:href="#DejaVuSans-31"/>
       <use xlink:href="#DejaVuSans-2e" x="63.623047"/>
       <use xlink:href="#DejaVuSans-35" x="95.410156"/>
      </g>
     </g>
    </g>
    <g id="ytick_5">
     <g id="line2d_13">
      <path d="M 56.88 171.112961 
L 707.04 171.112961 
" clip-path="url(#pd275d60b82)" style="fill: none; stroke: #ffffff; stroke-linecap: round"/>
     </g>
     <g id="text_14">
      <!-- 2.0 -->
      <g style="fill: #262626" transform="translate(29.886563 175.292102)scale(0.11 -0.11)">
       <use xlink:href="#DejaVuSans-32"/>
       <use xlink:href="#DejaVuSans-2e" x="63.623047"/>
       <use xlink:href="#DejaVuSans-30" x="95.410156"/>
      </g>
     </g>
    </g>
    <g id="ytick_6">
     <g id="line2d_14">
      <path d="M 56.88 139.443739 
L 707.04 139.443739 
" clip-path="url(#pd275d60b82)" style="fill: none; stroke: #ffffff; stroke-linecap: round"/>
     </g>
     <g id="text_15">
      <!-- 2.5 -->
      <g style="fill: #262626" transform="translate(29.886563 143.62288)scale(0.11 -0.11)">
       <use xlink:href="#DejaVuSans-32"/>
       <use xlink:href="#DejaVuSans-2e" x="63.623047"/>
       <use xlink:href="#DejaVuSans-35" x="95.410156"/>
      </g>
     </g>
    </g>
    <g id="ytick_7">
     <g id="line2d_15">
      <path d="M 56.88 107.774517 
L 707.04 107.774517 
" clip-path="url(#pd275d60b82)" style="fill: none; stroke: #ffffff; stroke-linecap: round"/>
     </g>
     <g id="text_16">
      <!-- 3.0 -->
      <g style="fill: #262626" transform="translate(29.886563 111.953658)scale(0.11 -0.11)">
       <use xlink:href="#DejaVuSans-33"/>
       <use xlink:href="#DejaVuSans-2e" x="63.623047"/>
       <use xlink:href="#DejaVuSans-30" x="95.410156"/>
      </g>
     </g>
    </g>
    <g id="ytick_8">
     <g id="line2d_16">
      <path d="M 56.88 76.105295 
L 707.04 76.105295 
" clip-path="url(#pd275d60b82)" style="fill: none; stroke: #ffffff; stroke-linecap: round"/>
     </g>
     <g id="text_17">
      <!-- 3.5 -->
      <g style="fill: #262626" transform="translate(29.886563 80.284436)scale(0.11 -0.11)">
       <use xlink:href="#DejaVuSans-33"/>
       <use xlink:href="#DejaVuSans-2e" x="63.623047"/>
       <use xlink:href="#DejaVuSans-35" x="95.410156"/>
      </g>
     </g>
    </g>
    <g id="ytick_9">
     <g id="line2d_17">
      <path d="M 56.88 44.436073 
L 707.04 44.436073 
" clip-path="url(#pd275d60b82)" style="fill: none; stroke: #ffffff; stroke-linecap: round"/>
     </g>
     <g id="text_18">
      <!-- 4.0 -->
      <g style="fill: #262626" transform="translate(29.886563 48.615214)scale(0.11 -0.11)">
       <use xlink:href="#DejaVuSans-34"/>
       <use xlink:href="#DejaVuSans-2e" x="63.623047"/>
       <use xlink:href="#DejaVuSans-30" x="95.410156"/>
      </g>
     </g>
    </g>
    <g id="text_19">
     <!-- Runtime (s) -->
     <g style="fill: #262626" transform="translate(23.390937 204.18375)rotate(-90)scale(0.12 -0.12)">
      <defs>
       <path id="DejaVuSans-52" d="M 2841 2188 
Q 3044 2119 3236 1894 
Q 3428 1669 3622 1275 
L 4263 0 
L 3584 0 
L 2988 1197 
Q 2756 1666 2539 1819 
Q 2322 1972 1947 1972 
L 1259 1972 
L 1259 0 
L 628 0 
L 628 4666 
L 2053 4666 
Q 2853 4666 3247 4331 
Q 3641 3997 3641 3322 
Q 3641 2881 3436 2590 
Q 3231 2300 2841 2188 
z
M 1259 4147 
L 1259 2491 
L 2053 2491 
Q 2509 2491 2742 2702 
Q 2975 2913 2975 3322 
Q 2975 3731 2742 3939 
Q 2509 4147 2053 4147 
L 1259 4147 
z
" transform="scale(0.015625)"/>
       <path id="DejaVuSans-28" d="M 1984 4856 
Q 1566 4138 1362 3434 
Q 1159 2731 1159 2009 
Q 1159 1288 1364 580 
Q 1569 -128 1984 -844 
L 1484 -844 
Q 1016 -109 783 600 
Q 550 1309 550 2009 
Q 550 2706 781 3412 
Q 1013 4119 1484 4856 
L 1984 4856 
z
" transform="scale(0.015625)"/>
       <path id="DejaVuSans-29" d="M 513 4856 
L 1013 4856 
Q 1481 4119 1714 3412 
Q 1947 2706 1947 2009 
Q 1947 1309 1714 600 
Q 1481 -109 1013 -844 
L 513 -844 
Q 928 -128 1133 580 
Q 1338 1288 1338 2009 
Q 1338 2731 1133 3434 
Q 928 4138 513 4856 
z
" transform="scale(0.015625)"/>
      </defs>
      <use xlink:href="#DejaVuSans-52"/>
      <use xlink:href="#DejaVuSans-75" x="64.982422"/>
      <use xlink:href="#DejaVuSans-6e" x="128.361328"/>
      <use xlink:href="#DejaVuSans-74" x="191.740234"/>
      <use xlink:href="#DejaVuSans-69" x="230.949219"/>
      <use xlink:href="#DejaVuSans-6d" x="258.732422"/>
      <use xlink:href="#DejaVuSans-65" x="356.144531"/>
      <use xlink:href="#DejaVuSans-20" x="417.667969"/>
      <use xlink:href="#DejaVuSans-28" x="449.455078"/>
      <use xlink:href="#DejaVuSans-73" x="488.46875"/>
      <use xlink:href="#DejaVuSans-29" x="540.568359"/>
     </g>
    </g>
   </g>
   <g id="LineCollection_1">
    <path d="M 86.432727 294.727854 
L 86.432727 294.571701 
" clip-path="url(#pd275d60b82)" style="fill: none; stroke: #1f77b4; stroke-opacity: 0.9; stroke-width: 1.5"/>
    <path d="M 170.869091 285.758893 
L 170.869091 284.977455 
" clip-path="url(#pd275d60b82)" style="fill: none; stroke: #1f77b4; stroke-opacity: 0.9; stroke-width: 1.5"/>
    <path d="M 255.305455 268.569418 
L 255.305455 264.640898 
" clip-path="url(#pd275d60b82)" style="fill: none; stroke: #1f77b4; stroke-opacity: 0.9; stroke-width: 1.5"/>
    <path d="M 339.741818 240.632524 
L 339.741818 233.537478 
" clip-path="url(#pd275d60b82)" style="fill: none; stroke: #1f77b4; stroke-opacity: 0.9; stroke-width: 1.5"/>
    <path d="M 424.178182 205.865601 
L 424.178182 199.439663 
" clip-path="url(#pd275d60b82)" style="fill: none; stroke: #1f77b4; stroke-opacity: 0.9; stroke-width: 1.5"/>
    <path d="M 508.614545 165.06832 
L 508.614545 154.952632 
" clip-path="url(#pd275d60b82)" style="fill: none; stroke: #1f77b4; stroke-opacity: 0.9; stroke-width: 1.5"/>
    <path d="M 593.050909 117.443099 
L 593.050909 103.801471 
" clip-path="url(#pd275d60b82)" style="fill: none; stroke: #1f77b4; stroke-opacity: 0.9; stroke-width: 1.5"/>
    <path d="M 677.487273 59.77731 
L 677.487273 41.800909 
" clip-path="url(#pd275d60b82)" style="fill: none; stroke: #1f77b4; stroke-opacity: 0.9; stroke-width: 1.5"/>
   </g>
   <g id="line2d_18">
    <defs>
     <path id="m6252b1bb16" d="M 3 0 
L -3 -0 
" style="stroke: #1f77b4; stroke-opacity: 0.9"/>
    </defs>
    <g clip-path="url(#pd275d60b82)">
     <use xlink:href="#m6252b1bb16" x="86.432727" y="294.727854" style="fill: #1f77b4; fill-opacity: 0.9; stroke: #1f77b4; stroke-opacity: 0.9"/>
     <use xlink:href="#m6252b1bb16" x="170.869091" y="285.758893" style="fill: #1f77b4; fill-opacity: 0.9; stroke: #1f77b4; stroke-opacity: 0.9"/>
     <use xlink:href="#m6252b1bb16" x="255.305455" y="268.569418" style="fill: #1f77b4; fill-opacity: 0.9; stroke: #1f77b4; stroke-opacity: 0.9"/>
     <use xlink:href="#m6252b1bb16" x="339.741818" y="240.632524" style="fill: #1f77b4; fill-opacity: 0.9; stroke: #1f77b4; stroke-opacity: 0.9"/>
     <use xlink:href="#m6252b1bb16" x="424.178182" y="205.865601" style="fill: #1f77b4; fill-opacity: 0.9; stroke: #1f77b4; stroke-opacity: 0.9"/>
     <use xlink:href="#m6252b1bb16" x="508.614545" y="165.06832" style="fill: #1f77b4; fill-opacity: 0.9; stroke: #1f77b4; stroke-opacity: 0.9"/>
     <use xlink:href="#m6252b1bb16" x="593.050909" y="117.443099" style="fill: #1f77b4; fill-opacity: 0.9; stroke: #1f77b4; stroke-opacity: 0.9"/>
     <use xlink:href="#m6252b1bb16" x="677.487273" y="59.77731" style="fill: #1f77b4; fill-opacity: 0.9; stroke: #1f77b4; stroke-opacity: 0.9"/>
    </g>
   </g>
   <g id="line2d_19">
    <g clip-path="url(#pd275d60b82)">
     <use xlink:href="#m6252b1bb16" x="86.432727" y="294.571701" style="fill: #1f77b4; fill-opacity: 0.9; stroke: #1f77b4; stroke-opacity: 0.9"/>
     <use xlink:href="#m6252b1bb16" x="170.869091" y="284.977455" style="fill: #1f77b4; fill-opacity: 0.9; stroke: #1f77b4; stroke-opacity: 0.9"/>
     <use xlink:href="#m6252b1bb16" x="255.305455" y="264.640898" style="fill: #1f77b4; fill-opacity: 0.9; stroke: #1f77b4; stroke-opacity: 0.9"/>
     <use xlink:href="#m6252b1bb16" x="339.741818" y="233.537478" style="fill: #1f77b4; fill-opacity: 0.9; stroke: #1f77b4; stroke-opacity: 0.9"/>
     <use xlink:href="#m6252b1bb16" x="424.178182" y="199.439663" style="fill: #1f77b4; fill-opacity: 0.9; stroke: #1f77b4; stroke-opacity: 0.9"/>
     <use xlink:href="#m6252b1bb16" x="508.614545" y="154.952632" style="fill: #1f77b4; fill-opacity: 0.9; stroke: #1f77b4; stroke-opacity: 0.9"/>
     <use xlink:href="#m6252b1bb16" x="593.050909" y="103.801471" style="fill: #1f77b4; fill-opacity: 0.9; stroke: #1f77b4; stroke-opacity: 0.9"/>
     <use xlink:href="#m6252b1bb16" x="677.487273" y="41.800909" style="fill: #1f77b4; fill-opacity: 0.9; stroke: #1f77b4; stroke-opacity: 0.9"/>
    </g>
   </g>
   <g id="LineCollection_2">
    <path d="M 86.432727 296.641871 
L 86.432727 296.61401 
" clip-path="url(#pd275d60b82)" style="fill: none; stroke: #ff7f0e; stroke-opacity: 0.9; stroke-width: 1.5"/>
    <path d="M 170.869091 293.159658 
L 170.869091 292.827361 
" clip-path="url(#pd275d60b82)" style="fill: none; stroke: #ff7f0e; stroke-opacity: 0.9; stroke-width: 1.5"/>
    <path d="M 255.305455 285.040897 
L 255.305455 284.213475 
" clip-path="url(#pd275d60b82)" style="fill: none; stroke: #ff7f0e; stroke-opacity: 0.9; stroke-width: 1.5"/>
    <path d="M 339.741818 274.91631 
L 339.741818 273.65209 
" clip-path="url(#pd275d60b82)" style="fill: none; stroke: #ff7f0e; stroke-opacity: 0.9; stroke-width: 1.5"/>
    <path d="M 424.178182 262.388646 
L 424.178182 260.194808 
" clip-path="url(#pd275d60b82)" style="fill: none; stroke: #ff7f0e; stroke-opacity: 0.9; stroke-width: 1.5"/>
    <path d="M 508.614545 246.715184 
L 508.614545 233.413082 
" clip-path="url(#pd275d60b82)" style="fill: none; stroke: #ff7f0e; stroke-opacity: 0.9; stroke-width: 1.5"/>
    <path d="M 593.050909 228.598964 
L 593.050909 182.851332 
" clip-path="url(#pd275d60b82)" style="fill: none; stroke: #ff7f0e; stroke-opacity: 0.9; stroke-width: 1.5"/>
    <path d="M 677.487273 207.661816 
L 677.487273 84.836001 
" clip-path="url(#pd275d60b82)" style="fill: none; stroke: #ff7f0e; stroke-opacity: 0.9; stroke-width: 1.5"/>
   </g>
   <g id="line2d_20">
    <defs>
     <path id="mdb6970055b" d="M 3 0 
L -3 -0 
" style="stroke: #ff7f0e; stroke-opacity: 0.9"/>
    </defs>
    <g clip-path="url(#pd275d60b82)">
     <use xlink:href="#mdb6970055b" x="86.432727" y="296.641871" style="fill: #ff7f0e; fill-opacity: 0.9; stroke: #ff7f0e; stroke-opacity: 0.9"/>
     <use xlink:href="#mdb6970055b" x="170.869091" y="293.159658" style="fill: #ff7f0e; fill-opacity: 0.9; stroke: #ff7f0e; stroke-opacity: 0.9"/>
     <use xlink:href="#mdb6970055b" x="255.305455" y="285.040897" style="fill: #ff7f0e; fill-opacity: 0.9; stroke: #ff7f0e; stroke-opacity: 0.9"/>
     <use xlink:href="#mdb6970055b" x="339.741818" y="274.91631" style="fill: #ff7f0e; fill-opacity: 0.9; stroke: #ff7f0e; stroke-opacity: 0.9"/>
     <use xlink:href="#mdb6970055b" x="424.178182" y="262.388646" style="fill: #ff7f0e; fill-opacity: 0.9; stroke: #ff7f0e; stroke-opacity: 0.9"/>
     <use xlink:href="#mdb6970055b" x="508.614545" y="246.715184" style="fill: #ff7f0e; fill-opacity: 0.9; stroke: #ff7f0e; stroke-opacity: 0.9"/>
     <use xlink:href="#mdb6970055b" x="593.050909" y="228.598964" style="fill: #ff7f0e; fill-opacity: 0.9; stroke: #ff7f0e; stroke-opacity: 0.9"/>
     <use xlink:href="#mdb6970055b" x="677.487273" y="207.661816" style="fill: #ff7f0e; fill-opacity: 0.9; stroke: #ff7f0e; stroke-opacity: 0.9"/>
    </g>
   </g>
   <g id="line2d_21">
    <g clip-path="url(#pd275d60b82)">
     <use xlink:href="#mdb6970055b" x="86.432727" y="296.61401" style="fill: #ff7f0e; fill-opacity: 0.9; stroke: #ff7f0e; stroke-opacity: 0.9"/>
     <use xlink:href="#mdb6970055b" x="170.869091" y="292.827361" style="fill: #ff7f0e; fill-opacity: 0.9; stroke: #ff7f0e; stroke-opacity: 0.9"/>
     <use xlink:href="#mdb6970055b" x="255.305455" y="284.213475" style="fill: #ff7f0e; fill-opacity: 0.9; stroke: #ff7f0e; stroke-opacity: 0.9"/>
     <use xlink:href="#mdb6970055b" x="339.741818" y="273.65209" style="fill: #ff7f0e; fill-opacity: 0.9; stroke: #ff7f0e; stroke-opacity: 0.9"/>
     <use xlink:href="#mdb6970055b" x="424.178182" y="260.194808" style="fill: #ff7f0e; fill-opacity: 0.9; stroke: #ff7f0e; stroke-opacity: 0.9"/>
     <use xlink:href="#mdb6970055b" x="508.614545" y="233.413082" style="fill: #ff7f0e; fill-opacity: 0.9; stroke: #ff7f0e; stroke-opacity: 0.9"/>
     <use xlink:href="#mdb6970055b" x="593.050909" y="182.851332" style="fill: #ff7f0e; fill-opacity: 0.9; stroke: #ff7f0e; stroke-opacity: 0.9"/>
     <use xlink:href="#mdb6970055b" x="677.487273" y="84.836001" style="fill: #ff7f0e; fill-opacity: 0.9; stroke: #ff7f0e; stroke-opacity: 0.9"/>
    </g>
   </g>
   <g id="LineCollection_3">
    <path d="M 86.432727 296.733363 
L 86.432727 296.716484 
" clip-path="url(#pd275d60b82)" style="fill: none; stroke: #2ca02c; stroke-opacity: 0.9; stroke-width: 1.5"/>
    <path d="M 170.869091 293.915555 
L 170.869091 293.870679 
" clip-path="url(#pd275d60b82)" style="fill: none; stroke: #2ca02c; stroke-opacity: 0.9; stroke-width: 1.5"/>
    <path d="M 255.305455 288.887725 
L 255.305455 288.509864 
" clip-path="url(#pd275d60b82)" style="fill: none; stroke: #2ca02c; stroke-opacity: 0.9; stroke-width: 1.5"/>
    <path d="M 339.741818 282.047902 
L 339.741818 281.431983 
" clip-path="url(#pd275d60b82)" style="fill: none; stroke: #2ca02c; stroke-opacity: 0.9; stroke-width: 1.5"/>
    <path d="M 424.178182 273.502445 
L 424.178182 272.293583 
" clip-path="url(#pd275d60b82)" style="fill: none; stroke: #2ca02c; stroke-opacity: 0.9; stroke-width: 1.5"/>
    <path d="M 508.614545 262.628762 
L 508.614545 260.765773 
" clip-path="url(#pd275d60b82)" style="fill: none; stroke: #2ca02c; stroke-opacity: 0.9; stroke-width: 1.5"/>
    <path d="M 593.050909 250.053944 
L 593.050909 191.530441 
" clip-path="url(#pd275d60b82)" style="fill: none; stroke: #2ca02c; stroke-opacity: 0.9; stroke-width: 1.5"/>
    <path d="M 677.487273 235.558371 
L 677.487273 91.353859 
" clip-path="url(#pd275d60b82)" style="fill: none; stroke: #2ca02c; stroke-opacity: 0.9; stroke-width: 1.5"/>
   </g>
   <g id="line2d_22">
    <defs>
     <path id="me8184a7a8b" d="M 3 0 
L -3 -0 
" style="stroke: #2ca02c; stroke-opacity: 0.9"/>
    </defs>
    <g clip-path="url(#pd275d60b82)">
     <use xlink:href="#me8184a7a8b" x="86.432727" y="296.733363" style="fill: #2ca02c; fill-opacity: 0.9; stroke: #2ca02c; stroke-opacity: 0.9"/>
     <use xlink:href="#me8184a7a8b" x="170.869091" y="293.915555" style="fill: #2ca02c; fill-opacity: 0.9; stroke: #2ca02c; stroke-opacity: 0.9"/>
     <use xlink:href="#me8184a7a8b" x="255.305455" y="288.887725" style="fill: #2ca02c; fill-opacity: 0.9; stroke: #2ca02c; stroke-opacity: 0.9"/>
     <use xlink:href="#me8184a7a8b" x="339.741818" y="282.047902" style="fill: #2ca02c; fill-opacity: 0.9; stroke: #2ca02c; stroke-opacity: 0.9"/>
     <use xlink:href="#me8184a7a8b" x="424.178182" y="273.502445" style="fill: #2ca02c; fill-opacity: 0.9; stroke: #2ca02c; stroke-opacity: 0.9"/>
     <use xlink:href="#me8184a7a8b" x="508.614545" y="262.628762" style="fill: #2ca02c; fill-opacity: 0.9; stroke: #2ca02c; stroke-opacity: 0.9"/>
     <use xlink:href="#me8184a7a8b" x="593.050909" y="250.053944" style="fill: #2ca02c; fill-opacity: 0.9; stroke: #2ca02c; stroke-opacity: 0.9"/>
     <use xlink:href="#me8184a7a8b" x="677.487273" y="235.558371" style="fill: #2ca02c; fill-opacity: 0.9; stroke: #2ca02c; stroke-opacity: 0.9"/>
    </g>
   </g>
   <g id="line2d_23">
    <g clip-path="url(#pd275d60b82)">
     <use xlink:href="#me8184a7a8b" x="86.432727" y="296.716484" style="fill: #2ca02c; fill-opacity: 0.9; stroke: #2ca02c; stroke-opacity: 0.9"/>
     <use xlink:href="#me8184a7a8b" x="170.869091" y="293.870679" style="fill: #2ca02c; fill-opacity: 0.9; stroke: #2ca02c; stroke-opacity: 0.9"/>
     <use xlink:href="#me8184a7a8b" x="255.305455" y="288.509864" style="fill: #2ca02c; fill-opacity: 0.9; stroke: #2ca02c; stroke-opacity: 0.9"/>
     <use xlink:href="#me8184a7a8b" x="339.741818" y="281.431983" style="fill: #2ca02c; fill-opacity: 0.9; stroke: #2ca02c; stroke-opacity: 0.9"/>
     <use xlink:href="#me8184a7a8b" x="424.178182" y="272.293583" style="fill: #2ca02c; fill-opacity: 0.9; stroke: #2ca02c; stroke-opacity: 0.9"/>
     <use xlink:href="#me8184a7a8b" x="508.614545" y="260.765773" style="fill: #2ca02c; fill-opacity: 0.9; stroke: #2ca02c; stroke-opacity: 0.9"/>
     <use xlink:href="#me8184a7a8b" x="593.050909" y="191.530441" style="fill: #2ca02c; fill-opacity: 0.9; stroke: #2ca02c; stroke-opacity: 0.9"/>
     <use xlink:href="#me8184a7a8b" x="677.487273" y="91.353859" style="fill: #2ca02c; fill-opacity: 0.9; stroke: #2ca02c; stroke-opacity: 0.9"/>
    </g>
   </g>
   <g id="LineCollection_4">
    <path d="M 86.432727 297.019091 
L 86.432727 296.990296 
" clip-path="url(#pd275d60b82)" style="fill: none; stroke: #d62728; stroke-opacity: 0.9; stroke-width: 1.5"/>
    <path d="M 170.869091 295.427206 
L 170.869091 295.369734 
" clip-path="url(#pd275d60b82)" style="fill: none; stroke: #d62728; stroke-opacity: 0.9; stroke-width: 1.5"/>
    <path d="M 255.305455 292.944743 
L 255.305455 292.861912 
" clip-path="url(#pd275d60b82)" style="fill: none; stroke: #d62728; stroke-opacity: 0.9; stroke-width: 1.5"/>
    <path d="M 339.741818 289.504863 
L 339.741818 289.344997 
" clip-path="url(#pd275d60b82)" style="fill: none; stroke: #d62728; stroke-opacity: 0.9; stroke-width: 1.5"/>
    <path d="M 424.178182 285.172957 
L 424.178182 284.962199 
" clip-path="url(#pd275d60b82)" style="fill: none; stroke: #d62728; stroke-opacity: 0.9; stroke-width: 1.5"/>
    <path d="M 508.614545 279.704538 
L 508.614545 279.48488 
" clip-path="url(#pd275d60b82)" style="fill: none; stroke: #d62728; stroke-opacity: 0.9; stroke-width: 1.5"/>
    <path d="M 593.050909 273.084784 
L 593.050909 272.460631 
" clip-path="url(#pd275d60b82)" style="fill: none; stroke: #d62728; stroke-opacity: 0.9; stroke-width: 1.5"/>
    <path d="M 677.487273 264.949261 
L 677.487273 263.237841 
" clip-path="url(#pd275d60b82)" style="fill: none; stroke: #d62728; stroke-opacity: 0.9; stroke-width: 1.5"/>
   </g>
   <g id="line2d_24">
    <defs>
     <path id="mbaa3fad6ea" d="M 3 0 
L -3 -0 
" style="stroke: #d62728; stroke-opacity: 0.9"/>
    </defs>
    <g clip-path="url(#pd275d60b82)">
     <use xlink:href="#mbaa3fad6ea" x="86.432727" y="297.019091" style="fill: #d62728; fill-opacity: 0.9; stroke: #d62728; stroke-opacity: 0.9"/>
     <use xlink:href="#mbaa3fad6ea" x="170.869091" y="295.427206" style="fill: #d62728; fill-opacity: 0.9; stroke: #d62728; stroke-opacity: 0.9"/>
     <use xlink:href="#mbaa3fad6ea" x="255.305455" y="292.944743" style="fill: #d62728; fill-opacity: 0.9; stroke: #d62728; stroke-opacity: 0.9"/>
     <use xlink:href="#mbaa3fad6ea" x="339.741818" y="289.504863" style="fill: #d62728; fill-opacity: 0.9; stroke: #d62728; stroke-opacity: 0.9"/>
     <use xlink:href="#mbaa3fad6ea" x="424.178182" y="285.172957" style="fill: #d62728; fill-opacity: 0.9; stroke: #d62728; stroke-opacity: 0.9"/>
     <use xlink:href="#mbaa3fad6ea" x="508.614545" y="279.704538" style="fill: #d62728; fill-opacity: 0.9; stroke: #d62728; stroke-opacity: 0.9"/>
     <use xlink:href="#mbaa3fad6ea" x="593.050909" y="273.084784" style="fill: #d62728; fill-opacity: 0.9; stroke: #d62728; stroke-opacity: 0.9"/>
     <use xlink:href="#mbaa3fad6ea" x="677.487273" y="264.949261" style="fill: #d62728; fill-opacity: 0.9; stroke: #d62728; stroke-opacity: 0.9"/>
    </g>
   </g>
   <g id="line2d_25">
    <g clip-path="url(#pd275d60b82)">
     <use xlink:href="#mbaa3fad6ea" x="86.432727" y="296.990296" style="fill: #d62728; fill-opacity: 0.9; stroke: #d62728; stroke-opacity: 0.9"/>
     <use xlink:href="#mbaa3fad6ea" x="170.869091" y="295.369734" style="fill: #d62728; fill-opacity: 0.9; stroke: #d62728; stroke-opacity: 0.9"/>
     <use xlink:href="#mbaa3fad6ea" x="255.305455" y="292.861912" style="fill: #d62728; fill-opacity: 0.9; stroke: #d62728; stroke-opacity: 0.9"/>
     <use xlink:href="#mbaa3fad6ea" x="339.741818" y="289.344997" style="fill: #d62728; fill-opacity: 0.9; stroke: #d62728; stroke-opacity: 0.9"/>
     <use xlink:href="#mbaa3fad6ea" x="424.178182" y="284.962199" style="fill: #d62728; fill-opacity: 0.9; stroke: #d62728; stroke-opacity: 0.9"/>
     <use xlink:href="#mbaa3fad6ea" x="508.614545" y="279.48488" style="fill: #d62728; fill-opacity: 0.9; stroke: #d62728; stroke-opacity: 0.9"/>
     <use xlink:href="#mbaa3fad6ea" x="593.050909" y="272.460631" style="fill: #d62728; fill-opacity: 0.9; stroke: #d62728; stroke-opacity: 0.9"/>
     <use xlink:href="#mbaa3fad6ea" x="677.487273" y="263.237841" style="fill: #d62728; fill-opacity: 0.9; stroke: #d62728; stroke-opacity: 0.9"/>
    </g>
   </g>
   <g id="line2d_26">
    <path d="M 86.432727 294.654374 
L 170.869091 285.495635 
L 255.305455 266.630374 
L 339.741818 237.137683 
L 424.178182 202.404781 
L 508.614545 159.505146 
L 593.050909 109.9602 
L 677.487273 52.408388 
" clip-path="url(#pd275d60b82)" style="fill: none; stroke-dasharray: 1.5,2.475; stroke-dashoffset: 0; stroke: #1f77b4; stroke-opacity: 0.9; stroke-width: 1.5"/>
   </g>
   <g id="line2d_27">
    <path d="M 86.432727 296.630993 
L 170.869091 293.018025 
L 255.305455 284.771803 
L 339.741818 274.46097 
L 424.178182 261.638181 
L 508.614545 245.56328 
L 593.050909 227.009486 
L 677.487273 205.325871 
" clip-path="url(#pd275d60b82)" style="fill: none; stroke-dasharray: 1.5,2.475; stroke-dashoffset: 0; stroke: #ff7f0e; stroke-opacity: 0.9; stroke-width: 1.5"/>
   </g>
   <g id="line2d_28">
    <path d="M 86.432727 296.725541 
L 170.869091 293.898366 
L 255.305455 288.734288 
L 339.741818 281.79686 
L 424.178182 273.022379 
L 508.614545 262.08809 
L 593.050909 249.002114 
L 677.487273 233.123403 
" clip-path="url(#pd275d60b82)" style="fill: none; stroke-dasharray: 1.5,2.475; stroke-dashoffset: 0; stroke: #2ca02c; stroke-opacity: 0.9; stroke-width: 1.5"/>
   </g>
   <g id="line2d_29">
    <path d="M 86.432727 297.006795 
L 170.869091 295.399772 
L 255.305455 292.912408 
L 339.741818 289.426229 
L 424.178182 285.08821 
L 508.614545 279.622198 
L 593.050909 272.779682 
L 677.487273 264.627027 
" clip-path="url(#pd275d60b82)" style="fill: none; stroke-dasharray: 1.5,2.475; stroke-dashoffset: 0; stroke: #d62728; stroke-opacity: 0.9; stroke-width: 1.5"/>
   </g>
   <g id="patch_3">
    <path d="M 56.88 309.78 
L 56.88 29.04 
" style="fill: none; stroke: #ffffff; stroke-width: 1.25; stroke-linejoin: miter; stroke-linecap: square"/>
   </g>
   <g id="patch_4">
    <path d="M 707.04 309.78 
L 707.04 29.04 
" style="fill: none; stroke: #ffffff; stroke-width: 1.25; stroke-linejoin: miter; stroke-linecap: square"/>
   </g>
   <g id="patch_5">
    <path d="M 56.88 309.78 
L 707.04 309.78 
" style="fill: none; stroke: #ffffff; stroke-width: 1.25; stroke-linejoin: miter; stroke-linecap: square"/>
   </g>
   <g id="patch_6">
    <path d="M 56.88 29.04 
L 707.04 29.04 
" style="fill: none; stroke: #ffffff; stroke-width: 1.25; stroke-linejoin: miter; stroke-linecap: square"/>
   </g>
   <g id="text_20">
    <!-- Runtime (48 nodes) -->
    <g style="fill: #262626" transform="translate(322.669688 23.04)scale(0.12 -0.12)">
     <defs>
      <path id="DejaVuSans-64" d="M 2906 2969 
L 2906 4863 
L 3481 4863 
L 3481 0 
L 2906 0 
L 2906 525 
Q 2725 213 2448 61 
Q 2172 -91 1784 -91 
Q 1150 -91 751 415 
Q 353 922 353 1747 
Q 353 2572 751 3078 
Q 1150 3584 1784 3584 
Q 2172 3584 2448 3432 
Q 2725 3281 2906 2969 
z
M 947 1747 
Q 947 1113 1208 752 
Q 1469 391 1925 391 
Q 2381 391 2643 752 
Q 2906 1113 2906 1747 
Q 2906 2381 2643 2742 
Q 2381 3103 1925 3103 
Q 1469 3103 1208 2742 
Q 947 2381 947 1747 
z
" transform="scale(0.015625)"/>
     </defs>
     <use xlink:href="#DejaVuSans-52"/>
     <use xlink:href="#DejaVuSans-75" x="64.982422"/>
     <use xlink:href="#DejaVuSans-6e" x="128.361328"/>
     <use xlink:href="#DejaVuSans-74" x="191.740234"/>
     <use xlink:href="#DejaVuSans-69" x="230.949219"/>
     <use xlink:href="#DejaVuSans-6d" x="258.732422"/>
     <use xlink:href="#DejaVuSans-65" x="356.144531"/>
     <use xlink:href="#DejaVuSans-20" x="417.667969"/>
     <use xlink:href="#DejaVuSans-28" x="449.455078"/>
     <use xlink:href="#DejaVuSans-34" x="488.46875"/>
     <use xlink:href="#DejaVuSans-38" x="552.091797"/>
     <use xlink:href="#DejaVuSans-20" x="615.714844"/>
     <use xlink:href="#DejaVuSans-6e" x="647.501953"/>
     <use xlink:href="#DejaVuSans-6f" x="710.880859"/>
     <use xlink:href="#DejaVuSans-64" x="772.0625"/>
     <use xlink:href="#DejaVuSans-65" x="835.539062"/>
     <use xlink:href="#DejaVuSans-73" x="897.0625"/>
     <use xlink:href="#DejaVuSans-29" x="949.162109"/>
    </g>
   </g>
  </g>
 </g>
 <defs>
  <clipPath id="pd275d60b82">
   <rect x="56.88" y="29.04" width="650.16" height="280.74"/>
  </clipPath>
 </defs>
</svg>
