<?xml version="1.0" encoding="utf-8" standalone="no"?>
<!DOCTYPE svg PUBLIC "-//W3C//DTD SVG 1.1//EN"
  "http://www.w3.org/Graphics/SVG/1.1/DTD/svg11.dtd">
<svg height="345.6pt" version="1.1" viewBox="0 0 460.8 345.6" width="460.8pt" xmlns="http://www.w3.org/2000/svg" xmlns:xlink="http://www.w3.org/1999/xlink">
 <metadata>
  <rdf:RDF xmlns:cc="http://creativecommons.org/ns#" xmlns:dc="http://purl.org/dc/elements/1.1/" xmlns:rdf="http://www.w3.org/1999/02/22-rdf-syntax-ns#">
   <cc:Work>
    <dc:type rdf:resource="http://purl.org/dc/dcmitype/StillImage"/>
    <dc:date>2021-11-29T14:44:04.756716</dc:date>
    <dc:format>image/svg+xml</dc:format>
    <dc:creator>
     <cc:Agent>
      <dc:title>Matplotlib v3.4.3, https://matplotlib.org/</dc:title>
     </cc:Agent>
    </dc:creator>
   </cc:Work>
  </rdf:RDF>
 </metadata>
 <defs>
  <style type="text/css">*{stroke-linecap:butt;stroke-linejoin:round;}</style>
 </defs>
 <g id="figure_1">
  <g id="patch_1">
   <path d="M 0 345.6 
L 460.8 345.6 
L 460.8 0 
L 0 0 
z
" style="fill:#ffffff;"/>
  </g>
  <g id="axes_1">
   <g id="patch_2">
    <path d="M 67.91625 313.06 
L 436.398974 313.06 
L 436.398974 12.96 
L 67.91625 12.96 
z
" style="fill:#eaeaf2;"/>
   </g>
   <g id="matplotlib.axis_1">
    <g id="xtick_1">
     <g id="line2d_1">
      <path clip-path="url(#pf0672e32f2)" d="M 84.665465 313.06 
L 84.665465 12.96 
" style="fill:none;stroke:#ffffff;stroke-linecap:round;"/>
     </g>
     <g id="text_1">
      <!-- 0 -->
      <g style="fill:#262626;" transform="translate(81.606949 330.433594)scale(0.11 -0.11)">
       <defs>
        <path d="M 266 2259 
Q 266 3072 433 3567 
Q 600 4063 929 4331 
Q 1259 4600 1759 4600 
Q 2128 4600 2406 4451 
Q 2684 4303 2865 4023 
Q 3047 3744 3150 3342 
Q 3253 2941 3253 2259 
Q 3253 1453 3087 958 
Q 2922 463 2592 192 
Q 2263 -78 1759 -78 
Q 1097 -78 719 397 
Q 266 969 266 2259 
z
M 844 2259 
Q 844 1131 1108 757 
Q 1372 384 1759 384 
Q 2147 384 2411 759 
Q 2675 1134 2675 2259 
Q 2675 3391 2411 3762 
Q 2147 4134 1753 4134 
Q 1366 4134 1134 3806 
Q 844 3388 844 2259 
z
" id="ArialMT-30" transform="scale(0.015625)"/>
       </defs>
       <use xlink:href="#ArialMT-30"/>
      </g>
     </g>
    </g>
    <g id="xtick_2">
     <g id="line2d_2">
      <path clip-path="url(#pf0672e32f2)" d="M 134.344286 313.06 
L 134.344286 12.96 
" style="fill:none;stroke:#ffffff;stroke-linecap:round;"/>
     </g>
     <g id="text_2">
      <!-- 2000 -->
      <g style="fill:#262626;" transform="translate(122.110224 330.433594)scale(0.11 -0.11)">
       <defs>
        <path d="M 3222 541 
L 3222 0 
L 194 0 
Q 188 203 259 391 
Q 375 700 629 1000 
Q 884 1300 1366 1694 
Q 2113 2306 2375 2664 
Q 2638 3022 2638 3341 
Q 2638 3675 2398 3904 
Q 2159 4134 1775 4134 
Q 1369 4134 1125 3890 
Q 881 3647 878 3216 
L 300 3275 
Q 359 3922 746 4261 
Q 1134 4600 1788 4600 
Q 2447 4600 2831 4234 
Q 3216 3869 3216 3328 
Q 3216 3053 3103 2787 
Q 2991 2522 2730 2228 
Q 2469 1934 1863 1422 
Q 1356 997 1212 845 
Q 1069 694 975 541 
L 3222 541 
z
" id="ArialMT-32" transform="scale(0.015625)"/>
       </defs>
       <use xlink:href="#ArialMT-32"/>
       <use x="55.615234" xlink:href="#ArialMT-30"/>
       <use x="111.230469" xlink:href="#ArialMT-30"/>
       <use x="166.845703" xlink:href="#ArialMT-30"/>
      </g>
     </g>
    </g>
    <g id="xtick_3">
     <g id="line2d_3">
      <path clip-path="url(#pf0672e32f2)" d="M 184.023108 313.06 
L 184.023108 12.96 
" style="fill:none;stroke:#ffffff;stroke-linecap:round;"/>
     </g>
     <g id="text_3">
      <!-- 4000 -->
      <g style="fill:#262626;" transform="translate(171.789046 330.433594)scale(0.11 -0.11)">
       <defs>
        <path d="M 2069 0 
L 2069 1097 
L 81 1097 
L 81 1613 
L 2172 4581 
L 2631 4581 
L 2631 1613 
L 3250 1613 
L 3250 1097 
L 2631 1097 
L 2631 0 
L 2069 0 
z
M 2069 1613 
L 2069 3678 
L 634 1613 
L 2069 1613 
z
" id="ArialMT-34" transform="scale(0.015625)"/>
       </defs>
       <use xlink:href="#ArialMT-34"/>
       <use x="55.615234" xlink:href="#ArialMT-30"/>
       <use x="111.230469" xlink:href="#ArialMT-30"/>
       <use x="166.845703" xlink:href="#ArialMT-30"/>
      </g>
     </g>
    </g>
    <g id="xtick_4">
     <g id="line2d_4">
      <path clip-path="url(#pf0672e32f2)" d="M 233.70193 313.06 
L 233.70193 12.96 
" style="fill:none;stroke:#ffffff;stroke-linecap:round;"/>
     </g>
     <g id="text_4">
      <!-- 6000 -->
      <g style="fill:#262626;" transform="translate(221.467867 330.433594)scale(0.11 -0.11)">
       <defs>
        <path d="M 3184 3459 
L 2625 3416 
Q 2550 3747 2413 3897 
Q 2184 4138 1850 4138 
Q 1581 4138 1378 3988 
Q 1113 3794 959 3422 
Q 806 3050 800 2363 
Q 1003 2672 1297 2822 
Q 1591 2972 1913 2972 
Q 2475 2972 2870 2558 
Q 3266 2144 3266 1488 
Q 3266 1056 3080 686 
Q 2894 316 2569 119 
Q 2244 -78 1831 -78 
Q 1128 -78 684 439 
Q 241 956 241 2144 
Q 241 3472 731 4075 
Q 1159 4600 1884 4600 
Q 2425 4600 2770 4297 
Q 3116 3994 3184 3459 
z
M 888 1484 
Q 888 1194 1011 928 
Q 1134 663 1356 523 
Q 1578 384 1822 384 
Q 2178 384 2434 671 
Q 2691 959 2691 1453 
Q 2691 1928 2437 2201 
Q 2184 2475 1800 2475 
Q 1419 2475 1153 2201 
Q 888 1928 888 1484 
z
" id="ArialMT-36" transform="scale(0.015625)"/>
       </defs>
       <use xlink:href="#ArialMT-36"/>
       <use x="55.615234" xlink:href="#ArialMT-30"/>
       <use x="111.230469" xlink:href="#ArialMT-30"/>
       <use x="166.845703" xlink:href="#ArialMT-30"/>
      </g>
     </g>
    </g>
    <g id="xtick_5">
     <g id="line2d_5">
      <path clip-path="url(#pf0672e32f2)" d="M 283.380751 313.06 
L 283.380751 12.96 
" style="fill:none;stroke:#ffffff;stroke-linecap:round;"/>
     </g>
     <g id="text_5">
      <!-- 8000 -->
      <g style="fill:#262626;" transform="translate(271.146689 330.433594)scale(0.11 -0.11)">
       <defs>
        <path d="M 1131 2484 
Q 781 2613 612 2850 
Q 444 3088 444 3419 
Q 444 3919 803 4259 
Q 1163 4600 1759 4600 
Q 2359 4600 2725 4251 
Q 3091 3903 3091 3403 
Q 3091 3084 2923 2848 
Q 2756 2613 2416 2484 
Q 2838 2347 3058 2040 
Q 3278 1734 3278 1309 
Q 3278 722 2862 322 
Q 2447 -78 1769 -78 
Q 1091 -78 675 323 
Q 259 725 259 1325 
Q 259 1772 486 2073 
Q 713 2375 1131 2484 
z
M 1019 3438 
Q 1019 3113 1228 2906 
Q 1438 2700 1772 2700 
Q 2097 2700 2305 2904 
Q 2513 3109 2513 3406 
Q 2513 3716 2298 3927 
Q 2084 4138 1766 4138 
Q 1444 4138 1231 3931 
Q 1019 3725 1019 3438 
z
M 838 1322 
Q 838 1081 952 856 
Q 1066 631 1291 507 
Q 1516 384 1775 384 
Q 2178 384 2440 643 
Q 2703 903 2703 1303 
Q 2703 1709 2433 1975 
Q 2163 2241 1756 2241 
Q 1359 2241 1098 1978 
Q 838 1716 838 1322 
z
" id="ArialMT-38" transform="scale(0.015625)"/>
       </defs>
       <use xlink:href="#ArialMT-38"/>
       <use x="55.615234" xlink:href="#ArialMT-30"/>
       <use x="111.230469" xlink:href="#ArialMT-30"/>
       <use x="166.845703" xlink:href="#ArialMT-30"/>
      </g>
     </g>
    </g>
    <g id="xtick_6">
     <g id="line2d_6">
      <path clip-path="url(#pf0672e32f2)" d="M 333.059573 313.06 
L 333.059573 12.96 
" style="fill:none;stroke:#ffffff;stroke-linecap:round;"/>
     </g>
     <g id="text_6">
      <!-- 10000 -->
      <g style="fill:#262626;" transform="translate(317.766995 330.433594)scale(0.11 -0.11)">
       <defs>
        <path d="M 2384 0 
L 1822 0 
L 1822 3584 
Q 1619 3391 1289 3197 
Q 959 3003 697 2906 
L 697 3450 
Q 1169 3672 1522 3987 
Q 1875 4303 2022 4600 
L 2384 4600 
L 2384 0 
z
" id="ArialMT-31" transform="scale(0.015625)"/>
       </defs>
       <use xlink:href="#ArialMT-31"/>
       <use x="55.615234" xlink:href="#ArialMT-30"/>
       <use x="111.230469" xlink:href="#ArialMT-30"/>
       <use x="166.845703" xlink:href="#ArialMT-30"/>
       <use x="222.460938" xlink:href="#ArialMT-30"/>
      </g>
     </g>
    </g>
    <g id="xtick_7">
     <g id="line2d_7">
      <path clip-path="url(#pf0672e32f2)" d="M 382.738395 313.06 
L 382.738395 12.96 
" style="fill:none;stroke:#ffffff;stroke-linecap:round;"/>
     </g>
     <g id="text_7">
      <!-- 12000 -->
      <g style="fill:#262626;" transform="translate(367.445817 330.433594)scale(0.11 -0.11)">
       <use xlink:href="#ArialMT-31"/>
       <use x="55.615234" xlink:href="#ArialMT-32"/>
       <use x="111.230469" xlink:href="#ArialMT-30"/>
       <use x="166.845703" xlink:href="#ArialMT-30"/>
       <use x="222.460938" xlink:href="#ArialMT-30"/>
      </g>
     </g>
    </g>
    <g id="xtick_8">
     <g id="line2d_8">
      <path clip-path="url(#pf0672e32f2)" d="M 432.417216 313.06 
L 432.417216 12.96 
" style="fill:none;stroke:#ffffff;stroke-linecap:round;"/>
     </g>
     <g id="text_8">
      <!-- 14000 -->
      <g style="fill:#262626;" transform="translate(417.124638 330.433594)scale(0.11 -0.11)">
       <use xlink:href="#ArialMT-31"/>
       <use x="55.615234" xlink:href="#ArialMT-34"/>
       <use x="111.230469" xlink:href="#ArialMT-30"/>
       <use x="166.845703" xlink:href="#ArialMT-30"/>
       <use x="222.460938" xlink:href="#ArialMT-30"/>
      </g>
     </g>
    </g>
   </g>
   <g id="matplotlib.axis_2">
    <g id="ytick_1">
     <g id="line2d_9">
      <path clip-path="url(#pf0672e32f2)" d="M 67.91625 299.437995 
L 436.398974 299.437995 
" style="fill:none;stroke:#ffffff;stroke-linecap:round;"/>
     </g>
     <g id="text_9">
      <!-- 0 -->
      <g style="fill:#262626;" transform="translate(52.299219 303.374791)scale(0.11 -0.11)">
       <use xlink:href="#ArialMT-30"/>
      </g>
     </g>
    </g>
    <g id="ytick_2">
     <g id="line2d_10">
      <path clip-path="url(#pf0672e32f2)" d="M 67.91625 261.630597 
L 436.398974 261.630597 
" style="fill:none;stroke:#ffffff;stroke-linecap:round;"/>
     </g>
     <g id="text_10">
      <!-- 2000 -->
      <g style="fill:#262626;" transform="translate(33.948125 265.567394)scale(0.11 -0.11)">
       <use xlink:href="#ArialMT-32"/>
       <use x="55.615234" xlink:href="#ArialMT-30"/>
       <use x="111.230469" xlink:href="#ArialMT-30"/>
       <use x="166.845703" xlink:href="#ArialMT-30"/>
      </g>
     </g>
    </g>
    <g id="ytick_3">
     <g id="line2d_11">
      <path clip-path="url(#pf0672e32f2)" d="M 67.91625 223.823199 
L 436.398974 223.823199 
" style="fill:none;stroke:#ffffff;stroke-linecap:round;"/>
     </g>
     <g id="text_11">
      <!-- 4000 -->
      <g style="fill:#262626;" transform="translate(33.948125 227.759996)scale(0.11 -0.11)">
       <use xlink:href="#ArialMT-34"/>
       <use x="55.615234" xlink:href="#ArialMT-30"/>
       <use x="111.230469" xlink:href="#ArialMT-30"/>
       <use x="166.845703" xlink:href="#ArialMT-30"/>
      </g>
     </g>
    </g>
    <g id="ytick_4">
     <g id="line2d_12">
      <path clip-path="url(#pf0672e32f2)" d="M 67.91625 186.015802 
L 436.398974 186.015802 
" style="fill:none;stroke:#ffffff;stroke-linecap:round;"/>
     </g>
     <g id="text_12">
      <!-- 6000 -->
      <g style="fill:#262626;" transform="translate(33.948125 189.952598)scale(0.11 -0.11)">
       <use xlink:href="#ArialMT-36"/>
       <use x="55.615234" xlink:href="#ArialMT-30"/>
       <use x="111.230469" xlink:href="#ArialMT-30"/>
       <use x="166.845703" xlink:href="#ArialMT-30"/>
      </g>
     </g>
    </g>
    <g id="ytick_5">
     <g id="line2d_13">
      <path clip-path="url(#pf0672e32f2)" d="M 67.91625 148.208404 
L 436.398974 148.208404 
" style="fill:none;stroke:#ffffff;stroke-linecap:round;"/>
     </g>
     <g id="text_13">
      <!-- 8000 -->
      <g style="fill:#262626;" transform="translate(33.948125 152.145201)scale(0.11 -0.11)">
       <use xlink:href="#ArialMT-38"/>
       <use x="55.615234" xlink:href="#ArialMT-30"/>
       <use x="111.230469" xlink:href="#ArialMT-30"/>
       <use x="166.845703" xlink:href="#ArialMT-30"/>
      </g>
     </g>
    </g>
    <g id="ytick_6">
     <g id="line2d_14">
      <path clip-path="url(#pf0672e32f2)" d="M 67.91625 110.401006 
L 436.398974 110.401006 
" style="fill:none;stroke:#ffffff;stroke-linecap:round;"/>
     </g>
     <g id="text_14">
      <!-- 10000 -->
      <g style="fill:#262626;" transform="translate(27.831094 114.337803)scale(0.11 -0.11)">
       <use xlink:href="#ArialMT-31"/>
       <use x="55.615234" xlink:href="#ArialMT-30"/>
       <use x="111.230469" xlink:href="#ArialMT-30"/>
       <use x="166.845703" xlink:href="#ArialMT-30"/>
       <use x="222.460938" xlink:href="#ArialMT-30"/>
      </g>
     </g>
    </g>
    <g id="ytick_7">
     <g id="line2d_15">
      <path clip-path="url(#pf0672e32f2)" d="M 67.91625 72.593608 
L 436.398974 72.593608 
" style="fill:none;stroke:#ffffff;stroke-linecap:round;"/>
     </g>
     <g id="text_15">
      <!-- 12000 -->
      <g style="fill:#262626;" transform="translate(27.831094 76.530405)scale(0.11 -0.11)">
       <use xlink:href="#ArialMT-31"/>
       <use x="55.615234" xlink:href="#ArialMT-32"/>
       <use x="111.230469" xlink:href="#ArialMT-30"/>
       <use x="166.845703" xlink:href="#ArialMT-30"/>
       <use x="222.460938" xlink:href="#ArialMT-30"/>
      </g>
     </g>
    </g>
    <g id="ytick_8">
     <g id="line2d_16">
      <path clip-path="url(#pf0672e32f2)" d="M 67.91625 34.786211 
L 436.398974 34.786211 
" style="fill:none;stroke:#ffffff;stroke-linecap:round;"/>
     </g>
     <g id="text_16">
      <!-- 14000 -->
      <g style="fill:#262626;" transform="translate(27.831094 38.723008)scale(0.11 -0.11)">
       <use xlink:href="#ArialMT-31"/>
       <use x="55.615234" xlink:href="#ArialMT-34"/>
       <use x="111.230469" xlink:href="#ArialMT-30"/>
       <use x="166.845703" xlink:href="#ArialMT-30"/>
       <use x="222.460938" xlink:href="#ArialMT-30"/>
      </g>
     </g>
    </g>
    <g id="text_17">
     <!-- runtime (s) -->
     <g style="fill:#262626;" transform="translate(21.305469 191.677812)rotate(-90)scale(0.12 -0.12)">
      <defs>
       <path d="M 416 0 
L 416 3319 
L 922 3319 
L 922 2816 
Q 1116 3169 1280 3281 
Q 1444 3394 1641 3394 
Q 1925 3394 2219 3213 
L 2025 2691 
Q 1819 2813 1613 2813 
Q 1428 2813 1281 2702 
Q 1134 2591 1072 2394 
Q 978 2094 978 1738 
L 978 0 
L 416 0 
z
" id="ArialMT-72" transform="scale(0.015625)"/>
       <path d="M 2597 0 
L 2597 488 
Q 2209 -75 1544 -75 
Q 1250 -75 995 37 
Q 741 150 617 320 
Q 494 491 444 738 
Q 409 903 409 1263 
L 409 3319 
L 972 3319 
L 972 1478 
Q 972 1038 1006 884 
Q 1059 663 1231 536 
Q 1403 409 1656 409 
Q 1909 409 2131 539 
Q 2353 669 2445 892 
Q 2538 1116 2538 1541 
L 2538 3319 
L 3100 3319 
L 3100 0 
L 2597 0 
z
" id="ArialMT-75" transform="scale(0.015625)"/>
       <path d="M 422 0 
L 422 3319 
L 928 3319 
L 928 2847 
Q 1294 3394 1984 3394 
Q 2284 3394 2536 3286 
Q 2788 3178 2913 3003 
Q 3038 2828 3088 2588 
Q 3119 2431 3119 2041 
L 3119 0 
L 2556 0 
L 2556 2019 
Q 2556 2363 2490 2533 
Q 2425 2703 2258 2804 
Q 2091 2906 1866 2906 
Q 1506 2906 1245 2678 
Q 984 2450 984 1813 
L 984 0 
L 422 0 
z
" id="ArialMT-6e" transform="scale(0.015625)"/>
       <path d="M 1650 503 
L 1731 6 
Q 1494 -44 1306 -44 
Q 1000 -44 831 53 
Q 663 150 594 308 
Q 525 466 525 972 
L 525 2881 
L 113 2881 
L 113 3319 
L 525 3319 
L 525 4141 
L 1084 4478 
L 1084 3319 
L 1650 3319 
L 1650 2881 
L 1084 2881 
L 1084 941 
Q 1084 700 1114 631 
Q 1144 563 1211 522 
Q 1278 481 1403 481 
Q 1497 481 1650 503 
z
" id="ArialMT-74" transform="scale(0.015625)"/>
       <path d="M 425 3934 
L 425 4581 
L 988 4581 
L 988 3934 
L 425 3934 
z
M 425 0 
L 425 3319 
L 988 3319 
L 988 0 
L 425 0 
z
" id="ArialMT-69" transform="scale(0.015625)"/>
       <path d="M 422 0 
L 422 3319 
L 925 3319 
L 925 2853 
Q 1081 3097 1340 3245 
Q 1600 3394 1931 3394 
Q 2300 3394 2536 3241 
Q 2772 3088 2869 2813 
Q 3263 3394 3894 3394 
Q 4388 3394 4653 3120 
Q 4919 2847 4919 2278 
L 4919 0 
L 4359 0 
L 4359 2091 
Q 4359 2428 4304 2576 
Q 4250 2725 4106 2815 
Q 3963 2906 3769 2906 
Q 3419 2906 3187 2673 
Q 2956 2441 2956 1928 
L 2956 0 
L 2394 0 
L 2394 2156 
Q 2394 2531 2256 2718 
Q 2119 2906 1806 2906 
Q 1569 2906 1367 2781 
Q 1166 2656 1075 2415 
Q 984 2175 984 1722 
L 984 0 
L 422 0 
z
" id="ArialMT-6d" transform="scale(0.015625)"/>
       <path d="M 2694 1069 
L 3275 997 
Q 3138 488 2766 206 
Q 2394 -75 1816 -75 
Q 1088 -75 661 373 
Q 234 822 234 1631 
Q 234 2469 665 2931 
Q 1097 3394 1784 3394 
Q 2450 3394 2872 2941 
Q 3294 2488 3294 1666 
Q 3294 1616 3291 1516 
L 816 1516 
Q 847 969 1125 678 
Q 1403 388 1819 388 
Q 2128 388 2347 550 
Q 2566 713 2694 1069 
z
M 847 1978 
L 2700 1978 
Q 2663 2397 2488 2606 
Q 2219 2931 1791 2931 
Q 1403 2931 1139 2672 
Q 875 2413 847 1978 
z
" id="ArialMT-65" transform="scale(0.015625)"/>
       <path id="ArialMT-20" transform="scale(0.015625)"/>
       <path d="M 1497 -1347 
Q 1031 -759 709 28 
Q 388 816 388 1659 
Q 388 2403 628 3084 
Q 909 3875 1497 4659 
L 1900 4659 
Q 1522 4009 1400 3731 
Q 1209 3300 1100 2831 
Q 966 2247 966 1656 
Q 966 153 1900 -1347 
L 1497 -1347 
z
" id="ArialMT-28" transform="scale(0.015625)"/>
       <path d="M 197 991 
L 753 1078 
Q 800 744 1014 566 
Q 1228 388 1613 388 
Q 2000 388 2187 545 
Q 2375 703 2375 916 
Q 2375 1106 2209 1216 
Q 2094 1291 1634 1406 
Q 1016 1563 777 1677 
Q 538 1791 414 1992 
Q 291 2194 291 2438 
Q 291 2659 392 2848 
Q 494 3038 669 3163 
Q 800 3259 1026 3326 
Q 1253 3394 1513 3394 
Q 1903 3394 2198 3281 
Q 2494 3169 2634 2976 
Q 2775 2784 2828 2463 
L 2278 2388 
Q 2241 2644 2061 2787 
Q 1881 2931 1553 2931 
Q 1166 2931 1000 2803 
Q 834 2675 834 2503 
Q 834 2394 903 2306 
Q 972 2216 1119 2156 
Q 1203 2125 1616 2013 
Q 2213 1853 2448 1751 
Q 2684 1650 2818 1456 
Q 2953 1263 2953 975 
Q 2953 694 2789 445 
Q 2625 197 2315 61 
Q 2006 -75 1616 -75 
Q 969 -75 630 194 
Q 291 463 197 991 
z
" id="ArialMT-73" transform="scale(0.015625)"/>
       <path d="M 791 -1347 
L 388 -1347 
Q 1322 153 1322 1656 
Q 1322 2244 1188 2822 
Q 1081 3291 891 3722 
Q 769 4003 388 4659 
L 791 4659 
Q 1378 3875 1659 3084 
Q 1900 2403 1900 1659 
Q 1900 816 1576 28 
Q 1253 -759 791 -1347 
z
" id="ArialMT-29" transform="scale(0.015625)"/>
      </defs>
      <use xlink:href="#ArialMT-72"/>
      <use x="33.300781" xlink:href="#ArialMT-75"/>
      <use x="88.916016" xlink:href="#ArialMT-6e"/>
      <use x="144.53125" xlink:href="#ArialMT-74"/>
      <use x="172.314453" xlink:href="#ArialMT-69"/>
      <use x="194.53125" xlink:href="#ArialMT-6d"/>
      <use x="277.832031" xlink:href="#ArialMT-65"/>
      <use x="333.447266" xlink:href="#ArialMT-20"/>
      <use x="361.230469" xlink:href="#ArialMT-28"/>
      <use x="394.53125" xlink:href="#ArialMT-73"/>
      <use x="444.53125" xlink:href="#ArialMT-29"/>
     </g>
    </g>
   </g>
   <g id="line2d_17">
    <path clip-path="url(#pf0672e32f2)" d="M 84.665465 299.381284 
L 86.627778 299.400187 
L 86.751975 298.870884 
L 87.124566 298.870884 
L 87.248763 299.154439 
L 87.621355 299.154439 
L 87.745552 299.381284 
L 89.608507 299.400187 
L 89.732705 298.908691 
L 90.105296 298.908691 
L 90.229493 299.173343 
L 90.602084 299.173343 
L 90.726281 299.381284 
L 94.57639 299.419091 
L 94.700587 298.965402 
L 95.073178 298.965402 
L 95.197375 299.419091 
L 97.060331 299.381284 
L 97.184528 299.267861 
L 97.557119 299.267861 
L 97.681316 299.400187 
L 99.047484 299.381284 
L 99.171681 299.097728 
L 99.544272 299.097728 
L 99.668469 299.381284 
L 104.015366 299.400187 
L 104.139563 298.095832 
L 105.008942 298.058025 
L 105.133139 299.324572 
L 109.976824 299.400187 
L 110.101021 298.889787 
L 110.970401 298.889787 
L 111.094598 299.400187 
L 114.447918 299.381284 
L 114.572115 299.041017 
L 114.944707 299.041017 
L 115.068904 299.343476 
L 119.4158 299.305669 
L 119.539998 298.776365 
L 119.912589 298.776365 
L 120.036786 299.173343 
L 120.409377 299.173343 
L 120.533574 299.343476 
L 121.899742 299.286765 
L 122.023939 298.85198 
L 122.39653 298.85198 
L 122.520727 299.343476 
L 124.880471 299.381284 
L 125.004668 299.00321 
L 125.377259 299.00321 
L 125.501456 299.381284 
L 126.370836 299.36238 
L 126.495033 298.417195 
L 126.867624 298.417195 
L 126.991821 298.795269 
L 127.364412 298.795269 
L 127.488609 299.343476 
L 128.357988 299.381284 
L 128.482185 298.927595 
L 128.854777 298.927595 
L 128.978974 298.625136 
L 129.351565 298.625136 
L 129.475762 299.400187 
L 130.345141 299.36238 
L 130.469338 298.908691 
L 131.338718 298.889787 
L 131.462915 299.400187 
L 135.313023 299.381284 
L 135.43722 298.946498 
L 135.809812 298.946498 
L 135.934009 299.381284 
L 136.3066 299.381284 
L 136.430797 298.927595 
L 136.803388 298.927595 
L 136.927585 299.381284 
L 138.293753 299.381284 
L 138.41795 298.984306 
L 139.287329 298.908691 
L 139.411526 299.381284 
L 141.274482 299.381284 
L 141.398679 299.154439 
L 141.77127 299.154439 
L 141.895467 298.587328 
L 142.268058 298.587328 
L 142.392256 298.889787 
L 142.764847 298.889787 
L 142.889044 299.116632 
L 143.261635 299.116632 
L 143.385832 298.927595 
L 143.758423 298.927595 
L 143.88262 299.286765 
L 144.255211 299.286765 
L 144.379408 299.154439 
L 144.752 299.154439 
L 144.876197 299.041017 
L 145.745576 299.078824 
L 145.869773 298.889787 
L 146.739152 298.889787 
L 146.863349 299.343476 
L 148.726305 299.36238 
L 148.850502 298.114736 
L 149.223093 298.114736 
L 149.347291 297.301877 
L 149.719882 297.301877 
L 149.844079 298.889787 
L 150.21667 298.889787 
L 150.340867 299.36238 
L 151.210246 299.343476 
L 151.334443 298.49281 
L 151.707035 298.49281 
L 151.831232 299.419091 
L 156.674917 299.36238 
L 156.799114 298.870884 
L 157.171705 298.870884 
L 157.295902 299.21115 
L 158.165281 299.286765 
L 158.289478 298.889787 
L 158.66207 298.889787 
L 158.786267 299.00321 
L 159.655646 298.908691 
L 159.779843 299.343476 
L 161.642799 299.381284 
L 161.766996 298.965402 
L 162.636375 298.908691 
L 162.760572 299.400187 
L 163.629952 299.305669 
L 163.754149 298.776365 
L 164.12674 298.776365 
L 164.250937 299.286765 
L 164.623528 299.286765 
L 164.747725 299.022113 
L 165.120316 299.022113 
L 165.244513 299.381284 
L 166.610681 299.286765 
L 166.759718 299.248958 
L 167.107469 299.248958 
L 167.231666 298.228158 
L 167.604258 298.228158 
L 167.728455 299.305669 
L 168.597834 299.305669 
L 168.722031 299.192247 
L 169.094622 299.192247 
L 169.218819 299.343476 
L 171.081775 299.324572 
L 171.205972 298.549521 
L 171.578563 298.549521 
L 171.70276 297.264069 
L 172.075351 297.264069 
L 172.199549 299.324572 
L 173.068928 299.286765 
L 173.193125 298.889787 
L 173.565716 298.889787 
L 173.689913 298.095832 
L 174.062504 298.095832 
L 174.186701 299.36238 
L 174.559293 299.36238 
L 174.68349 298.946498 
L 175.056081 298.946498 
L 175.180278 299.36238 
L 176.049657 299.36238 
L 176.173854 298.965402 
L 176.546445 298.965402 
L 176.670642 299.381284 
L 178.03681 299.400187 
L 178.161007 299.00321 
L 178.533598 299.00321 
L 178.657795 298.34158 
L 179.030387 298.34158 
L 179.154584 299.305669 
L 180.520751 299.36238 
L 180.644948 298.946498 
L 181.017539 298.946498 
L 181.141736 299.381284 
L 181.514328 299.381284 
L 181.638525 299.078824 
L 182.011116 299.078824 
L 182.135313 299.324572 
L 182.507904 299.324572 
L 182.632101 298.870884 
L 183.50148 298.85198 
L 183.625678 299.343476 
L 185.985422 299.343476 
L 186.109619 298.70075 
L 186.48221 298.70075 
L 186.606407 299.135535 
L 186.978998 299.135535 
L 187.103195 299.286765 
L 188.469363 299.286765 
L 188.59356 298.265965 
L 188.966151 298.265965 
L 189.090348 299.230054 
L 189.462939 299.230054 
L 189.587136 298.34158 
L 189.959727 298.34158 
L 190.083924 299.286765 
L 190.953304 299.286765 
L 191.077501 298.870884 
L 191.450092 298.870884 
L 191.574289 299.267861 
L 191.94688 299.267861 
L 192.071077 298.814173 
L 192.940457 298.870884 
L 193.064654 299.324572 
L 193.437245 299.324572 
L 193.561442 297.245166 
L 193.934033 297.245166 
L 194.05823 297.434203 
L 194.430821 297.434203 
L 194.555018 298.795269 
L 194.927609 298.795269 
L 195.051806 298.965402 
L 195.424398 298.965402 
L 195.548595 299.381284 
L 195.921186 299.381284 
L 196.045383 298.568424 
L 196.417974 298.568424 
L 196.542171 299.343476 
L 196.914762 299.343476 
L 197.038959 298.927595 
L 197.411551 298.927595 
L 197.535748 299.343476 
L 199.895492 299.36238 
L 200.019689 299.00321 
L 200.39228 299.00321 
L 200.516477 298.757461 
L 200.889068 298.757461 
L 201.013265 299.267861 
L 201.385856 299.267861 
L 201.510053 298.776365 
L 201.882644 298.776365 
L 202.006842 299.305669 
L 202.379433 299.305669 
L 202.50363 298.984306 
L 203.869797 298.908691 
L 203.993994 299.230054 
L 204.863374 299.305669 
L 204.987571 298.870884 
L 205.360162 298.870884 
L 205.484359 299.324572 
L 207.844103 299.324572 
L 207.9683 298.814173 
L 208.340891 298.814173 
L 208.465088 298.662943 
L 208.83768 298.662943 
L 208.961877 299.248958 
L 209.831256 299.267861 
L 209.955453 298.814173 
L 210.328044 298.814173 
L 210.452241 298.549521 
L 210.824832 298.549521 
L 210.949029 299.059921 
L 211.321621 299.059921 
L 211.445818 299.21115 
L 211.818409 299.21115 
L 211.942606 298.965402 
L 212.315197 298.965402 
L 212.439394 299.192247 
L 212.811985 299.192247 
L 212.936182 298.85198 
L 213.308773 298.85198 
L 213.432971 298.70075 
L 213.805562 298.70075 
L 213.929759 298.85198 
L 214.30235 298.85198 
L 214.426547 299.21115 
L 214.799138 299.21115 
L 214.923335 298.85198 
L 215.295926 298.85198 
L 215.420123 299.286765 
L 215.792715 299.286765 
L 215.916912 298.719654 
L 216.289503 298.719654 
L 216.4137 299.022113 
L 217.283079 298.946498 
L 217.407276 299.21115 
L 217.779867 299.21115 
L 217.904064 299.343476 
L 218.276656 299.343476 
L 218.400853 298.360484 
L 218.773444 298.360484 
L 218.897641 299.324572 
L 219.76702 299.36238 
L 219.891217 298.946498 
L 220.263808 298.946498 
L 220.388006 299.305669 
L 222.74775 299.286765 
L 222.871947 298.814173 
L 223.244538 298.814173 
L 223.368735 299.192247 
L 223.741326 299.192247 
L 223.865523 298.833076 
L 224.238114 298.833076 
L 224.362311 297.056129 
L 224.734902 297.056129 
L 224.859099 299.022113 
L 225.231691 299.022113 
L 225.355888 299.286765 
L 225.728479 299.286765 
L 225.852676 298.984306 
L 226.225267 298.984306 
L 226.349464 299.21115 
L 228.21242 299.230054 
L 228.336617 298.870884 
L 228.709208 298.870884 
L 228.833405 299.267861 
L 230.696361 299.286765 
L 230.820558 295.997521 
L 231.193149 295.997521 
L 231.317346 296.753669 
L 231.689937 296.753669 
L 231.814135 298.889787 
L 232.683514 298.889787 
L 232.807711 299.267861 
L 233.180302 299.267861 
L 233.304499 298.889787 
L 233.67709 298.889787 
L 233.801287 299.154439 
L 234.173879 299.154439 
L 234.298076 298.322676 
L 234.670667 298.322676 
L 234.794864 299.154439 
L 238.148184 299.230054 
L 238.272381 298.076928 
L 238.644973 298.076928 
L 238.76917 297.47201 
L 239.141761 297.47201 
L 239.265958 299.305669 
L 239.638549 299.305669 
L 239.762746 299.154439 
L 240.135337 299.154439 
L 240.259534 298.946498 
L 240.632125 298.946498 
L 240.756322 296.659151 
L 241.128914 296.659151 
L 241.253111 299.324572 
L 241.625702 299.324572 
L 241.749899 298.946498 
L 243.116066 298.908691 
L 243.240264 299.154439 
L 243.612855 299.154439 
L 243.737052 298.870884 
L 244.109643 298.870884 
L 244.23384 299.324572 
L 244.606431 299.324572 
L 244.730628 298.946498 
L 245.103219 298.946498 
L 245.227416 299.21115 
L 246.096796 299.173343 
L 246.220993 298.889787 
L 246.593584 298.889787 
L 246.717781 298.265965 
L 247.090372 298.265965 
L 247.214569 298.908691 
L 248.083949 298.927595 
L 248.208146 299.21115 
L 249.574313 299.248958 
L 249.69851 299.059921 
L 250.071101 299.059921 
L 250.195299 299.230054 
L 250.56789 299.230054 
L 250.692087 299.00321 
L 251.064678 299.00321 
L 251.188875 299.248958 
L 252.555043 299.248958 
L 252.67924 297.774469 
L 253.051831 297.774469 
L 253.176028 299.059921 
L 254.045407 299.154439 
L 254.169604 298.870884 
L 254.542195 298.870884 
L 254.666393 299.230054 
L 255.535772 299.286765 
L 255.659969 298.625136 
L 256.03256 298.625136 
L 256.156757 299.059921 
L 256.529348 299.059921 
L 256.653545 298.568424 
L 257.522925 298.587328 
L 257.647122 299.022113 
L 259.013289 299.022113 
L 259.137486 298.85198 
L 259.510078 298.85198 
L 259.634275 299.097728 
L 260.006866 299.097728 
L 260.131063 299.21115 
L 260.503654 299.21115 
L 260.627851 299.041017 
L 261.000442 299.041017 
L 261.124639 297.226262 
L 261.49723 297.226262 
L 261.621428 299.267861 
L 261.994019 299.267861 
L 262.118216 299.078824 
L 262.490807 299.078824 
L 262.615004 299.248958 
L 262.987595 299.248958 
L 263.111792 297.415299 
L 263.484383 297.415299 
L 263.60858 299.305669 
L 267.458689 299.248958 
L 267.582886 299.154439 
L 267.955477 299.154439 
L 268.079674 296.356692 
L 268.452266 296.356692 
L 268.576463 299.097728 
L 268.949054 299.097728 
L 269.073251 299.248958 
L 269.445842 299.248958 
L 269.570039 299.078824 
L 269.94263 299.078824 
L 270.066827 298.908691 
L 270.439418 298.908691 
L 270.563615 299.305669 
L 270.936207 299.305669 
L 271.060404 298.757461 
L 271.432995 298.757461 
L 271.557192 299.154439 
L 275.407301 299.230054 
L 275.531498 299.041017 
L 275.904089 299.041017 
L 276.028286 298.417195 
L 276.400877 298.417195 
L 276.525074 299.248958 
L 277.394453 299.192247 
L 277.51865 299.022113 
L 277.891242 299.022113 
L 278.015439 298.133639 
L 278.38803 298.133639 
L 278.512227 299.00321 
L 278.884818 299.00321 
L 279.009015 298.076928 
L 279.381606 298.076928 
L 279.505803 298.965402 
L 282.362336 298.984306 
L 282.486533 299.135535 
L 282.859124 299.135535 
L 282.983321 297.717758 
L 283.355912 297.717758 
L 283.480109 297.509817 
L 283.8527 297.509817 
L 283.976897 299.041017 
L 284.349488 299.041017 
L 284.473686 298.662943 
L 284.846277 298.662943 
L 284.970474 299.267861 
L 285.343065 299.267861 
L 285.467262 297.774469 
L 285.839853 297.774469 
L 285.96405 299.286765 
L 287.330218 299.286765 
L 287.454415 298.927595 
L 288.820582 298.965402 
L 288.944779 299.286765 
L 289.814159 299.192247 
L 290.012874 299.173343 
L 290.310947 299.173343 
L 290.435144 275.411393 
L 290.807735 275.411393 
L 290.931932 299.078824 
L 291.801312 299.078824 
L 291.925509 298.814173 
L 292.2981 298.814173 
L 292.422297 299.324572 
L 292.794888 299.324572 
L 292.919085 299.00321 
L 293.291676 299.00321 
L 293.415873 298.681847 
L 293.788465 298.681847 
L 293.912662 299.097728 
L 295.775617 299.022113 
L 295.899814 298.833076 
L 296.769194 298.908691 
L 296.893391 299.022113 
L 297.265982 299.022113 
L 297.390179 298.398291 
L 297.76277 298.398291 
L 297.886967 298.681847 
L 298.259559 298.681847 
L 298.383756 298.814173 
L 298.756347 298.814173 
L 298.880544 299.097728 
L 299.253135 299.097728 
L 299.377332 298.946498 
L 300.7435 298.946498 
L 300.867697 298.70075 
L 301.240288 298.70075 
L 301.364485 298.34158 
L 301.737076 298.34158 
L 301.861273 298.662943 
L 302.233864 298.662943 
L 302.358061 298.927595 
L 303.724229 298.927595 
L 303.848426 298.379387 
L 304.221017 298.379387 
L 304.345214 298.927595 
L 304.717805 298.927595 
L 304.842002 299.078824 
L 305.214594 299.078824 
L 305.338791 297.868988 
L 305.711382 297.868988 
L 305.835579 297.434203 
L 306.20817 297.434203 
L 306.332367 299.230054 
L 306.704958 299.230054 
L 306.829155 298.530617 
L 307.201746 298.530617 
L 307.325943 298.833076 
L 308.195323 298.776365 
L 308.31952 299.230054 
L 309.188899 299.248958 
L 309.313096 298.757461 
L 309.685688 298.757461 
L 309.809885 299.248958 
L 310.182476 299.248958 
L 310.306673 298.870884 
L 311.176052 298.965402 
L 311.300249 299.248958 
L 312.169629 299.267861 
L 312.293826 299.097728 
L 312.666417 299.097728 
L 312.790614 298.946498 
L 313.163205 298.946498 
L 313.287402 298.814173 
L 313.659993 298.814173 
L 313.78419 299.059921 
L 314.156781 299.059921 
L 314.280979 299.248958 
L 314.65357 299.248958 
L 314.777767 299.097728 
L 315.150358 299.097728 
L 315.274555 299.248958 
L 315.647146 299.248958 
L 315.771343 299.116632 
L 316.143934 299.116632 
L 316.268131 298.568424 
L 316.640723 298.568424 
L 316.76492 298.70075 
L 317.634299 298.776365 
L 317.758496 299.00321 
L 318.131087 299.00321 
L 318.255284 298.870884 
L 318.627875 298.870884 
L 318.752072 299.135535 
L 319.621452 299.135535 
L 319.745649 299.022113 
L 320.11824 299.022113 
L 320.242437 298.814173 
L 321.111816 298.908691 
L 321.236014 299.173343 
L 321.608605 299.173343 
L 321.732802 298.870884 
L 322.105393 298.870884 
L 322.22959 299.097728 
L 322.602181 299.097728 
L 322.726378 298.908691 
L 323.098969 298.908691 
L 323.223166 298.360484 
L 323.595758 298.360484 
L 323.719955 298.530617 
L 324.092546 298.530617 
L 324.216743 298.681847 
L 325.086122 298.719654 
L 325.210319 298.265965 
L 326.079699 298.303773 
L 326.203896 298.757461 
L 327.073275 298.757461 
L 327.197472 298.625136 
L 327.570063 298.625136 
L 327.69426 297.887891 
L 328.066852 297.887891 
L 328.191049 297.339684 
L 328.56364 297.339684 
L 328.687837 298.757461 
L 329.557216 298.795269 
L 329.681413 295.978618 
L 330.054004 295.978618 
L 330.178201 292.538145 
L 330.550793 292.538145 
L 330.67499 298.908691 
L 331.047581 298.908691 
L 331.171778 299.248958 
L 331.544369 299.248958 
L 331.668566 298.965402 
L 332.537945 299.022113 
L 332.662143 298.757461 
L 333.531522 298.70075 
L 333.655719 299.248958 
L 334.525098 299.21115 
L 334.649295 299.041017 
L 336.015463 298.946498 
L 336.13966 298.644039 
L 336.512251 298.644039 
L 336.636448 299.097728 
L 337.009039 299.097728 
L 337.133236 299.267861 
L 338.002616 299.286765 
L 338.126813 299.022113 
L 340.983345 299.041017 
L 341.107542 298.870884 
L 341.480133 298.870884 
L 341.60433 299.097728 
L 342.47371 299.041017 
L 342.597907 298.058025 
L 342.970498 298.058025 
L 343.094695 297.32078 
L 343.467286 297.32078 
L 343.591483 295.789581 
L 343.964074 295.789581 
L 344.088272 299.041017 
L 344.460863 299.041017 
L 344.58506 298.379387 
L 344.957651 298.379387 
L 345.081848 299.248958 
L 345.454439 299.248958 
L 345.578636 298.530617 
L 345.951227 298.530617 
L 346.075424 297.98241 
L 346.448016 297.98241 
L 346.572213 298.719654 
L 347.441592 298.719654 
L 347.565789 298.530617 
L 347.93838 298.530617 
L 348.062577 298.662943 
L 348.435168 298.662943 
L 348.559365 298.265965 
L 348.931957 298.265965 
L 349.056154 298.662943 
L 349.925533 298.644039 
L 350.04973 297.868988 
L 350.422321 297.868988 
L 350.546518 296.81038 
L 350.91911 296.81038 
L 351.043307 292.859507 
L 351.415898 292.859507 
L 351.540095 298.719654 
L 351.912686 298.719654 
L 352.036883 299.248958 
L 352.409474 299.248958 
L 352.533671 298.095832 
L 352.906262 298.095832 
L 353.030459 298.833076 
L 353.899839 298.889787 
L 354.024036 299.192247 
L 355.390203 299.173343 
L 355.514401 298.833076 
L 355.886992 298.833076 
L 356.011189 299.192247 
L 356.880568 299.173343 
L 357.004765 299.022113 
L 357.377356 299.022113 
L 357.501553 298.171447 
L 357.874145 298.171447 
L 357.998342 298.284869 
L 358.370933 298.284869 
L 358.49513 299.078824 
L 359.364509 299.173343 
L 359.488706 299.286765 
L 359.861297 299.286765 
L 359.985494 296.394499 
L 360.358086 296.394499 
L 360.482283 299.00321 
L 360.854874 299.00321 
L 360.979071 298.455002 
L 361.351662 298.455002 
L 361.475859 298.908691 
L 361.84845 298.908691 
L 361.972647 298.436099 
L 362.345238 298.436099 
L 362.469436 299.059921 
L 363.338815 299.00321 
L 363.463012 298.776365 
L 363.835603 298.776365 
L 363.9598 299.041017 
L 364.332391 299.041017 
L 364.456588 297.62324 
L 364.82918 297.62324 
L 364.953377 292.594856 
L 365.325968 292.594856 
L 365.450165 297.642143 
L 365.822756 297.642143 
L 365.946953 298.757461 
L 366.319544 298.757461 
L 366.443741 299.00321 
L 366.816332 299.00321 
L 366.940529 298.511713 
L 367.313121 298.511713 
L 367.437318 294.163863 
L 367.809909 294.163863 
L 367.934106 298.001313 
L 368.803485 297.906795 
L 368.927682 298.436099 
L 369.300274 298.436099 
L 369.424471 298.322676 
L 369.797062 298.322676 
L 369.921259 298.644039 
L 370.29385 298.644039 
L 370.418047 298.436099 
L 370.790638 298.436099 
L 370.914835 298.625136 
L 371.784215 298.606232 
L 371.908412 298.984306 
L 372.281003 298.984306 
L 372.4052 298.455002 
L 372.777791 298.455002 
L 372.901988 298.719654 
L 373.274579 298.719654 
L 373.398776 299.059921 
L 373.771367 299.059921 
L 373.895565 298.039121 
L 374.268156 298.039121 
L 374.392353 298.984306 
L 374.764944 298.984306 
L 374.889141 298.303773 
L 375.261732 298.303773 
L 375.385929 299.135535 
L 375.75852 299.135535 
L 375.882717 298.965402 
L 376.752097 298.870884 
L 376.950812 298.85198 
L 377.248885 298.85198 
L 377.373082 299.154439 
L 377.745673 299.154439 
L 377.86987 299.041017 
L 379.236038 299.059921 
L 379.360235 297.226262 
L 379.732826 297.226262 
L 379.857023 298.757461 
L 380.229614 298.757461 
L 380.353811 298.360484 
L 380.726403 298.360484 
L 380.8506 288.076872 
L 381.223191 288.076872 
L 381.347388 299.192247 
L 381.719979 299.192247 
L 381.844176 296.772573 
L 382.216767 296.772573 
L 382.340964 283.313139 
L 382.713555 283.313139 
L 382.837752 298.152543 
L 383.210344 298.152543 
L 383.334541 298.984306 
L 384.20392 298.927595 
L 384.328117 298.70075 
L 384.700708 298.70075 
L 384.824905 298.568424 
L 385.197496 298.568424 
L 385.321694 298.833076 
L 386.687861 298.85198 
L 386.812058 295.808484 
L 387.184649 295.808484 
L 387.308846 26.600909 
L 387.606919 26.600909 
L 387.731116 289.967241 
L 388.103708 289.967241 
L 388.227905 284.333939 
L 388.600496 284.333939 
L 388.724693 298.965402 
L 389.097284 298.965402 
L 389.221481 299.248958 
L 389.594072 299.248958 
L 389.718269 296.640247 
L 390.09086 296.640247 
L 390.215057 298.284869 
L 390.587649 298.284869 
L 390.711846 298.549521 
L 391.581225 298.549521 
L 391.705422 298.436099 
L 392.574801 298.473906 
L 392.698999 297.963506 
L 393.07159 297.963506 
L 393.195787 298.360484 
L 393.568378 298.360484 
L 393.692575 298.19035 
L 394.065166 298.19035 
L 394.189363 298.889787 
L 394.561954 298.889787 
L 394.686151 296.432306 
L 395.058743 296.432306 
L 395.18294 291.498441 
L 395.555531 291.498441 
L 395.679728 299.022113 
L 396.052319 299.022113 
L 396.176516 298.473906 
L 396.549107 298.473906 
L 396.673304 299.097728 
L 397.045895 299.097728 
L 397.170092 297.717758 
L 397.542684 297.717758 
L 397.666881 299.154439 
L 399.033048 299.097728 
L 399.157245 298.85198 
L 399.529837 298.85198 
L 399.654034 299.154439 
L 400.523413 299.135535 
L 400.64761 299.022113 
L 401.020201 299.022113 
L 401.144398 298.662943 
L 401.516989 298.662943 
L 401.641186 298.001313 
L 402.510566 297.944602 
L 402.634763 298.662943 
L 403.504142 298.587328 
L 403.628339 299.154439 
L 404.497719 299.21115 
L 404.621916 290.326412 
L 404.994507 290.326412 
L 405.118704 298.681847 
L 405.988083 298.738558 
L 406.11228 298.870884 
L 406.484872 298.870884 
L 406.609069 298.436099 
L 406.98166 298.436099 
L 407.105857 298.908691 
L 408.968813 298.908691 
L 409.09301 291.214886 
L 409.465601 291.214886 
L 409.589798 290.496545 
L 409.713995 290.496545 
L 409.838192 298.436099 
L 410.210783 298.436099 
L 410.33498 298.984306 
L 410.707571 298.984306 
L 410.831768 298.398291 
L 411.20436 298.398291 
L 411.328557 298.681847 
L 411.701148 298.681847 
L 411.825345 299.173343 
L 412.197936 299.173343 
L 412.322133 298.284869 
L 413.191512 298.228158 
L 413.31571 297.906795 
L 413.688301 297.906795 
L 413.812498 298.34158 
L 414.185089 298.34158 
L 414.309286 298.076928 
L 414.681877 298.076928 
L 414.806074 298.209254 
L 415.178665 298.209254 
L 415.302862 298.379387 
L 415.675454 298.379387 
L 415.799651 297.812277 
L 416.172242 297.812277 
L 416.296439 298.795269 
L 416.66903 298.795269 
L 416.793227 297.11284 
L 417.165818 297.11284 
L 417.290015 296.470114 
L 417.662606 296.470114 
L 417.786803 298.946498 
L 418.159395 298.946498 
L 418.283592 297.98241 
L 418.656183 297.98241 
L 418.78038 299.116632 
L 419.152971 299.116632 
L 419.277168 298.247062 
L 419.649759 298.247062 
L 84.665465 299.400187 
L 85.137414 299.400187 
L 85.261611 299.135535 
L 85.634202 299.135535 
L 85.758399 299.400187 
L 89.111719 299.419091 
L 89.235916 298.814173 
L 89.608507 298.814173 
L 89.732705 298.927595 
L 90.105296 298.927595 
L 90.229493 299.36238 
L 104.015366 299.400187 
L 104.139563 298.625136 
L 104.512154 298.625136 
L 104.636351 298.209254 
L 105.008942 298.209254 
L 105.133139 299.381284 
L 105.50573 299.381284 
L 105.629927 298.984306 
L 106.002519 298.984306 
L 106.126716 299.36238 
L 107.989672 299.400187 
L 108.113869 298.908691 
L 108.48646 298.908691 
L 108.610657 299.400187 
L 108.983248 299.400187 
L 109.107445 299.041017 
L 109.480036 299.041017 
L 109.604233 299.400187 
L 110.473613 299.400187 
L 110.59781 298.833076 
L 110.970401 298.833076 
L 111.094598 298.946498 
L 111.467189 298.946498 
L 111.591386 299.154439 
L 111.963977 299.154439 
L 112.088174 298.85198 
L 112.460765 298.85198 
L 112.584963 299.305669 
L 112.957554 299.305669 
L 113.081751 299.419091 
L 120.906165 299.381284 
L 121.030362 299.078824 
L 121.402953 299.078824 
L 121.52715 299.400187 
L 123.886894 299.36238 
L 124.011091 299.135535 
L 124.383683 299.135535 
L 124.50788 299.36238 
L 126.370836 299.381284 
L 126.495033 298.530617 
L 126.867624 298.530617 
L 126.991821 297.755565 
L 127.364412 297.755565 
L 127.488609 298.946498 
L 127.8612 298.946498 
L 127.985397 299.36238 
L 128.854777 299.36238 
L 128.978974 298.587328 
L 129.351565 298.587328 
L 129.475762 298.870884 
L 129.848353 298.870884 
L 129.97255 299.36238 
L 134.816235 299.36238 
L 134.940432 298.946498 
L 135.809812 298.927595 
L 135.934009 299.419091 
L 136.3066 299.419091 
L 136.430797 298.889787 
L 136.803388 298.889787 
L 136.927585 299.36238 
L 137.300176 299.36238 
L 137.424373 298.908691 
L 138.293753 299.00321 
L 138.41795 299.36238 
L 139.287329 299.36238 
L 139.411526 299.230054 
L 139.784117 299.230054 
L 139.908314 299.36238 
L 142.268058 299.267861 
L 142.392256 298.889787 
L 143.261635 298.889787 
L 143.385832 299.381284 
L 143.758423 299.381284 
L 143.88262 299.135535 
L 144.255211 299.135535 
L 144.379408 299.343476 
L 144.752 299.343476 
L 144.876197 298.908691 
L 145.248788 298.908691 
L 145.372985 299.36238 
L 145.745576 299.36238 
L 145.869773 298.889787 
L 146.739152 298.908691 
L 146.863349 299.36238 
L 147.732729 299.305669 
L 147.856926 298.908691 
L 148.229517 298.908691 
L 148.353714 299.36238 
L 148.726305 299.36238 
L 148.850502 298.379387 
L 149.223093 298.379387 
L 149.347291 297.717758 
L 149.719882 297.717758 
L 149.844079 298.757461 
L 150.21667 298.757461 
L 150.340867 298.984306 
L 151.210246 298.984306 
L 151.334443 298.436099 
L 151.707035 298.436099 
L 151.831232 298.965402 
L 152.203823 298.965402 
L 152.32802 299.116632 
L 152.700611 299.116632 
L 152.824808 298.870884 
L 153.197399 298.870884 
L 153.321596 299.400187 
L 153.694187 299.400187 
L 153.818385 299.192247 
L 154.190976 299.192247 
L 154.315173 299.381284 
L 155.68134 299.400187 
L 155.805537 298.946498 
L 156.178129 298.946498 
L 156.302326 298.095832 
L 156.674917 298.095832 
L 156.799114 298.833076 
L 157.171705 298.833076 
L 157.295902 299.36238 
L 157.668493 299.36238 
L 157.79269 299.022113 
L 158.66207 298.927595 
L 158.786267 299.381284 
L 159.158858 299.381284 
L 159.283055 299.078824 
L 159.655646 299.078824 
L 159.779843 298.889787 
L 160.152434 298.889787 
L 160.276631 299.343476 
L 162.139587 299.381284 
L 162.263784 298.908691 
L 162.636375 298.908691 
L 162.760572 299.381284 
L 163.629952 299.381284 
L 163.754149 299.135535 
L 164.12674 299.135535 
L 164.250937 299.324572 
L 167.107469 299.305669 
L 167.231666 298.644039 
L 167.604258 298.644039 
L 167.728455 298.965402 
L 168.101046 298.965402 
L 168.225243 299.305669 
L 169.094622 299.305669 
L 169.218819 298.965402 
L 169.59141 298.965402 
L 169.715607 299.324572 
L 171.081775 299.267861 
L 171.205972 298.039121 
L 171.578563 298.039121 
L 171.70276 297.736662 
L 172.075351 297.736662 
L 172.199549 299.36238 
L 173.068928 299.305669 
L 173.193125 298.927595 
L 173.565716 298.927595 
L 173.689913 298.039121 
L 174.062504 298.039121 
L 174.186701 298.833076 
L 174.559293 298.833076 
L 174.68349 299.381284 
L 175.552869 299.36238 
L 175.677066 299.173343 
L 176.049657 299.173343 
L 176.173854 299.400187 
L 178.533598 299.305669 
L 178.657795 298.455002 
L 179.030387 298.455002 
L 179.154584 298.833076 
L 179.527175 298.833076 
L 179.651372 299.36238 
L 180.023963 299.36238 
L 180.14816 298.889787 
L 181.017539 298.870884 
L 181.141736 299.381284 
L 182.011116 299.343476 
L 182.135313 298.908691 
L 182.507904 298.908691 
L 182.632101 299.343476 
L 183.004692 299.343476 
L 183.128889 298.908691 
L 183.50148 298.908691 
L 183.625678 299.324572 
L 186.48221 299.286765 
L 186.606407 298.719654 
L 186.978998 298.719654 
L 187.103195 299.022113 
L 187.475786 299.022113 
L 187.599983 299.381284 
L 187.972574 299.381284 
L 188.096771 299.248958 
L 188.469363 299.248958 
L 188.59356 298.984306 
L 189.462939 299.00321 
L 189.587136 298.303773 
L 189.959727 298.303773 
L 190.083924 299.267861 
L 190.456515 299.267861 
L 190.580713 298.908691 
L 192.443668 298.908691 
L 192.567865 299.248958 
L 192.940457 299.248958 
L 193.064654 298.833076 
L 193.437245 298.833076 
L 193.561442 298.398291 
L 193.934033 298.398291 
L 194.05823 297.528721 
L 194.430821 297.528721 
L 194.555018 299.041017 
L 194.927609 299.041017 
L 195.051806 299.267861 
L 195.921186 299.36238 
L 196.045383 298.417195 
L 196.417974 298.417195 
L 196.542171 299.36238 
L 200.39228 299.343476 
L 200.516477 298.870884 
L 201.882644 298.833076 
L 202.006842 299.286765 
L 202.876221 299.36238 
L 203.000418 299.097728 
L 203.373009 299.097728 
L 203.497206 298.984306 
L 203.869797 298.984306 
L 203.993994 299.305669 
L 205.360162 299.305669 
L 205.484359 298.927595 
L 205.85695 298.927595 
L 205.981147 299.305669 
L 207.347315 299.324572 
L 207.471512 298.927595 
L 208.340891 298.927595 
L 208.465088 299.154439 
L 208.83768 299.154439 
L 208.961877 297.188454 
L 209.334468 297.188454 
L 209.458665 298.833076 
L 209.831256 298.833076 
L 209.955453 299.343476 
L 210.328044 299.343476 
L 210.452241 299.116632 
L 211.818409 299.21115 
L 211.942606 298.927595 
L 212.315197 298.927595 
L 212.439394 299.21115 
L 214.799138 299.21115 
L 214.923335 298.927595 
L 215.792715 298.908691 
L 215.916912 299.116632 
L 216.289503 299.116632 
L 216.4137 289.419034 
L 216.786291 289.419034 
L 216.910488 298.776365 
L 217.283079 298.776365 
L 217.407276 298.889787 
L 217.779867 298.889787 
L 217.904064 299.343476 
L 218.276656 299.343476 
L 218.400853 298.228158 
L 218.773444 298.228158 
L 218.897641 299.36238 
L 221.257385 299.324572 
L 221.381582 298.908691 
L 221.754173 298.908691 
L 221.87837 299.305669 
L 222.74775 299.305669 
L 222.871947 298.889787 
L 223.741326 298.814173 
L 223.865523 297.509817 
L 224.238114 297.509817 
L 224.362311 298.984306 
L 224.734902 298.984306 
L 224.859099 299.324572 
L 225.231691 299.324572 
L 225.355888 298.927595 
L 225.728479 298.927595 
L 225.852676 299.192247 
L 226.225267 299.192247 
L 226.349464 299.059921 
L 227.218844 298.965402 
L 227.343041 298.833076 
L 227.715632 298.833076 
L 227.839829 299.248958 
L 228.21242 299.248958 
L 228.336617 298.833076 
L 228.709208 298.833076 
L 228.833405 299.267861 
L 230.696361 299.286765 
L 230.820558 293.369907 
L 231.193149 293.369907 
L 231.317346 297.093936 
L 231.689937 297.093936 
L 231.814135 299.267861 
L 232.683514 299.286765 
L 232.807711 298.34158 
L 233.180302 298.34158 
L 233.304499 298.814173 
L 233.67709 298.814173 
L 233.801287 299.154439 
L 234.173879 299.154439 
L 234.298076 298.34158 
L 234.670667 298.34158 
L 234.794864 299.154439 
L 236.161031 299.078824 
L 236.285228 299.022113 
L 237.154608 299.116632 
L 237.278805 299.173343 
L 238.148184 299.267861 
L 238.272381 298.039121 
L 238.644973 298.039121 
L 238.76917 297.301877 
L 239.141761 297.301877 
L 239.265958 299.267861 
L 239.638549 299.267861 
L 239.762746 298.889787 
L 240.135337 298.889787 
L 240.259534 299.343476 
L 240.632125 299.343476 
L 240.756322 297.944602 
L 241.128914 297.944602 
L 241.253111 299.00321 
L 241.625702 299.00321 
L 241.749899 299.324572 
L 242.12249 299.324572 
L 242.246687 298.984306 
L 242.619278 298.984306 
L 242.743475 299.286765 
L 243.612855 299.305669 
L 243.737052 298.795269 
L 244.109643 298.795269 
L 244.23384 299.135535 
L 244.606431 299.135535 
L 244.730628 299.305669 
L 245.103219 299.305669 
L 245.227416 298.719654 
L 245.600008 298.719654 
L 245.724205 299.173343 
L 246.096796 299.173343 
L 246.220993 298.662943 
L 246.593584 298.662943 
L 246.717781 299.324572 
L 249.077525 299.248958 
L 249.201722 298.927595 
L 249.574313 298.927595 
L 249.69851 299.248958 
L 253.051831 299.21115 
L 253.176028 299.059921 
L 253.548619 299.059921 
L 253.672816 298.927595 
L 254.542195 298.870884 
L 254.666393 299.267861 
L 255.535772 299.343476 
L 255.659969 299.022113 
L 256.529348 299.078824 
L 256.653545 298.379387 
L 257.026137 298.379387 
L 257.150334 298.889787 
L 258.019713 298.889787 
L 258.14391 299.078824 
L 260.006866 299.097728 
L 260.131063 299.21115 
L 260.503654 299.21115 
L 260.627851 298.303773 
L 261.000442 298.303773 
L 261.124639 297.509817 
L 261.49723 297.509817 
L 261.621428 299.267861 
L 261.994019 299.267861 
L 262.118216 299.059921 
L 262.490807 299.059921 
L 262.615004 299.324572 
L 262.987595 299.324572 
L 263.111792 297.62324 
L 263.484383 297.62324 
L 263.60858 299.305669 
L 263.981172 299.305669 
L 264.105369 299.135535 
L 264.47796 299.135535 
L 264.602157 299.324572 
L 266.961901 299.286765 
L 267.086098 298.889787 
L 267.458689 298.889787 
L 267.582886 298.076928 
L 267.955477 298.076928 
L 268.079674 299.116632 
L 268.452266 299.116632 
L 268.576463 298.965402 
L 268.949054 298.965402 
L 269.073251 298.795269 
L 269.445842 298.795269 
L 269.570039 299.041017 
L 270.439418 299.078824 
L 270.563615 299.324572 
L 270.936207 299.324572 
L 271.060404 299.21115 
L 271.929783 299.192247 
L 272.05398 299.078824 
L 272.426571 299.078824 
L 272.550768 298.908691 
L 272.923359 298.908691 
L 273.047557 299.154439 
L 275.407301 299.21115 
L 275.531498 298.530617 
L 275.904089 298.530617 
L 276.028286 299.041017 
L 276.400877 299.041017 
L 276.525074 299.267861 
L 276.897665 299.267861 
L 277.021862 298.965402 
L 277.394453 298.965402 
L 277.51865 299.305669 
L 277.891242 299.305669 
L 278.015439 290.269701 
L 278.38803 290.269701 
L 278.512227 298.984306 
L 278.884818 298.984306 
L 279.009015 298.076928 
L 279.381606 298.076928 
L 279.505803 299.00321 
L 282.859124 298.946498 
L 282.983321 297.906795 
L 283.355912 297.906795 
L 283.480109 299.041017 
L 283.8527 299.041017 
L 283.976897 299.248958 
L 284.349488 299.248958 
L 284.473686 298.965402 
L 284.846277 298.965402 
L 284.970474 299.267861 
L 285.343065 299.267861 
L 285.467262 298.095832 
L 285.839853 298.095832 
L 285.96405 299.267861 
L 287.330218 299.305669 
L 287.454415 299.059921 
L 287.827006 299.059921 
L 287.951203 299.192247 
L 289.814159 299.286765 
L 289.938356 298.814173 
L 290.310947 298.814173 
L 290.435144 275.808371 
L 290.807735 275.808371 
L 290.931932 296.262173 
L 291.304523 296.262173 
L 291.428721 299.059921 
L 291.801312 299.059921 
L 291.925509 299.192247 
L 292.2981 299.192247 
L 292.422297 298.965402 
L 292.794888 298.965402 
L 292.919085 298.85198 
L 293.291676 298.85198 
L 293.415873 298.625136 
L 293.788465 298.625136 
L 293.912662 299.116632 
L 295.775617 299.192247 
L 295.899814 298.946498 
L 296.272406 298.946498 
L 296.396603 299.097728 
L 297.76277 299.135535 
L 297.886967 298.455002 
L 298.756347 298.511713 
L 298.880544 298.814173 
L 300.246711 298.795269 
L 300.370908 298.568424 
L 300.7435 298.568424 
L 300.867697 298.927595 
L 301.240288 298.927595 
L 301.364485 298.436099 
L 301.737076 298.436099 
L 301.861273 298.946498 
L 303.724229 298.908691 
L 303.848426 298.398291 
L 304.717805 298.379387 
L 304.842002 299.135535 
L 305.214594 299.135535 
L 305.338791 298.058025 
L 305.711382 298.058025 
L 305.835579 297.490914 
L 306.20817 297.490914 
L 306.332367 298.870884 
L 307.201746 298.908691 
L 307.325943 299.248958 
L 307.698535 299.248958 
L 307.822732 298.681847 
L 308.195323 298.681847 
L 308.31952 299.230054 
L 308.692111 299.230054 
L 308.816308 298.965402 
L 309.188899 298.965402 
L 309.313096 299.267861 
L 309.685688 299.267861 
L 309.809885 298.757461 
L 310.679264 298.738558 
L 310.803461 299.097728 
L 311.176052 299.097728 
L 311.300249 298.776365 
L 311.67284 298.776365 
L 311.797037 299.248958 
L 312.169629 299.248958 
L 312.293826 298.757461 
L 312.666417 298.757461 
L 312.790614 298.455002 
L 313.163205 298.455002 
L 313.287402 298.70075 
L 314.156781 298.719654 
L 314.280979 299.059921 
L 315.150358 299.00321 
L 315.274555 298.757461 
L 315.647146 298.757461 
L 315.771343 298.606232 
L 316.143934 298.606232 
L 316.268131 298.719654 
L 316.640723 298.719654 
L 316.76492 298.927595 
L 317.137511 298.927595 
L 317.261708 299.097728 
L 318.131087 299.078824 
L 318.255284 298.908691 
L 319.621452 298.870884 
L 319.745649 299.059921 
L 320.11824 299.059921 
L 320.242437 298.908691 
L 321.111816 298.965402 
L 321.236014 299.135535 
L 321.608605 299.135535 
L 321.732802 298.795269 
L 322.105393 298.795269 
L 322.22959 299.305669 
L 322.602181 299.305669 
L 322.726378 298.020217 
L 323.595758 298.114736 
L 323.719955 298.568424 
L 324.589334 298.606232 
L 324.713531 298.814173 
L 325.086122 298.814173 
L 325.210319 298.360484 
L 325.58291 298.360484 
L 325.707108 298.776365 
L 326.079699 298.776365 
L 326.203896 298.379387 
L 326.576487 298.379387 
L 326.700684 298.776365 
L 327.570063 298.85198 
L 327.69426 297.98241 
L 328.066852 297.98241 
L 328.191049 297.188454 
L 328.56364 297.188454 
L 328.687837 299.192247 
L 329.060428 299.192247 
L 329.184625 298.530617 
L 329.557216 298.530617 
L 329.681413 296.583536 
L 330.054004 296.583536 
L 330.178201 294.844396 
L 330.550793 294.844396 
L 330.67499 299.192247 
L 331.047581 299.192247 
L 331.171778 298.984306 
L 331.544369 298.984306 
L 331.668566 298.870884 
L 333.034734 298.908691 
L 333.158931 299.21115 
L 334.02831 299.21115 
L 334.152507 298.85198 
L 334.525098 298.85198 
L 334.649295 298.70075 
L 335.518675 298.738558 
L 335.642872 298.417195 
L 336.015463 298.417195 
L 336.13966 299.116632 
L 338.002616 299.078824 
L 338.126813 298.946498 
L 339.492981 299.022113 
L 339.642017 299.059921 
L 340.486557 299.097728 
L 340.610754 298.870884 
L 340.983345 298.870884 
L 341.107542 299.022113 
L 342.47371 299.078824 
L 342.597907 298.001313 
L 342.970498 298.001313 
L 343.094695 295.997521 
L 343.467286 295.997521 
L 343.591483 296.375595 
L 343.964074 296.375595 
L 344.088272 299.00321 
L 344.460863 299.00321 
L 344.58506 298.322676 
L 345.454439 298.247062 
L 345.578636 298.473906 
L 346.448016 298.398291 
L 346.572213 298.738558 
L 346.944804 298.738558 
L 347.069001 298.34158 
L 347.441592 298.34158 
L 347.565789 298.719654 
L 349.428745 298.719654 
L 349.552942 299.00321 
L 349.925533 299.00321 
L 350.04973 297.698854 
L 350.422321 297.698854 
L 350.546518 298.020217 
L 350.91911 298.020217 
L 351.043307 299.154439 
L 351.415898 299.154439 
L 351.540095 298.719654 
L 351.912686 298.719654 
L 352.036883 299.230054 
L 352.409474 299.230054 
L 352.533671 298.34158 
L 352.906262 298.34158 
L 353.030459 298.833076 
L 353.403051 298.833076 
L 353.527248 298.719654 
L 353.899839 298.719654 
L 354.024036 299.116632 
L 354.893415 299.135535 
L 355.017612 298.927595 
L 355.390203 298.927595 
L 355.514401 299.173343 
L 356.880568 299.192247 
L 357.004765 298.284869 
L 357.377356 298.284869 
L 357.501553 298.889787 
L 357.874145 298.889787 
L 357.998342 296.81038 
L 358.370933 296.81038 
L 358.49513 299.059921 
L 358.867721 299.059921 
L 358.991918 298.70075 
L 359.364509 298.70075 
L 359.488706 297.774469 
L 359.861297 297.774469 
L 359.985494 296.999417 
L 360.358086 296.999417 
L 360.482283 298.436099 
L 360.854874 298.436099 
L 360.979071 298.625136 
L 361.351662 298.625136 
L 361.475859 299.022113 
L 361.84845 299.022113 
L 361.972647 298.511713 
L 362.345238 298.511713 
L 362.469436 299.00321 
L 364.332391 298.965402 
L 364.456588 296.281077 
L 364.82918 296.281077 
L 364.953377 293.426618 
L 365.325968 293.426618 
L 365.450165 281.952073 
L 365.822756 281.952073 
L 365.946953 298.908691 
L 366.816332 298.946498 
L 366.940529 294.674262 
L 367.313121 294.674262 
L 367.437318 298.946498 
L 367.809909 298.946498 
L 367.934106 298.455002 
L 369.300274 298.473906 
L 369.424471 298.34158 
L 370.29385 298.303773 
L 370.418047 298.587328 
L 371.784215 298.511713 
L 371.908412 298.908691 
L 372.281003 298.908691 
L 372.4052 224.825095 
L 372.777791 224.825095 
L 372.901988 298.209254 
L 373.274579 298.209254 
L 373.398776 299.059921 
L 373.771367 299.059921 
L 373.895565 298.303773 
L 374.268156 298.303773 
L 374.392353 299.00321 
L 374.764944 299.00321 
L 374.889141 297.850084 
L 375.261732 297.850084 
L 375.385929 298.908691 
L 375.75852 298.908691 
L 375.882717 299.173343 
L 377.248885 299.173343 
L 377.373082 299.059921 
L 377.745673 299.059921 
L 377.86987 299.173343 
L 378.242461 299.173343 
L 378.366658 298.814173 
L 378.73925 298.814173 
L 378.863447 299.059921 
L 379.236038 299.059921 
L 379.360235 297.566528 
L 379.732826 297.566528 
L 379.857023 298.34158 
L 380.229614 298.34158 
L 380.353811 298.662943 
L 380.726403 298.662943 
L 380.8506 296.829284 
L 381.223191 296.829284 
L 381.347388 299.135535 
L 381.719979 299.135535 
L 381.844176 296.848188 
L 382.216767 296.848188 
L 382.340964 232.878071 
L 382.713555 232.878071 
L 382.837752 298.984306 
L 383.707132 299.00321 
L 383.831329 298.795269 
L 384.20392 298.795269 
L 384.328117 298.965402 
L 384.700708 298.965402 
L 384.824905 298.530617 
L 385.197496 298.530617 
L 385.321694 298.889787 
L 386.191073 298.870884 
L 386.31527 298.398291 
L 386.687861 298.398291 
L 386.812058 286.772516 
L 387.184649 286.772516 
L 387.308846 26.789946 
L 387.532401 26.789946 
L 387.656598 274.919897 
L 388.029189 274.919897 
L 388.153386 298.776365 
L 388.525978 298.776365 
L 388.650175 298.908691 
L 389.022766 298.908691 
L 389.146963 299.21115 
L 389.519554 299.21115 
L 389.643751 298.511713 
L 392.003495 298.549521 
L 392.127692 298.360484 
L 393.49386 298.455002 
L 393.618057 298.795269 
L 393.990648 298.795269 
L 394.114845 297.075032 
L 394.487436 297.075032 
L 394.611633 294.447418 
L 394.984224 294.447418 
L 395.108421 299.041017 
L 395.481013 299.041017 
L 395.60521 297.963506 
L 395.977801 297.963506 
L 396.101998 298.908691 
L 396.474589 298.908691 
L 396.598786 297.793373 
L 396.971377 297.793373 
L 397.095574 298.927595 
L 397.964954 298.908691 
L 398.089151 299.173343 
L 399.455318 299.173343 
L 399.579515 298.85198 
L 399.952106 298.85198 
L 400.076304 298.662943 
L 400.448895 298.662943 
L 400.573092 299.135535 
L 400.945683 299.135535 
L 401.06988 297.850084 
L 401.442471 297.850084 
L 401.566668 298.719654 
L 401.939259 298.719654 
L 402.063456 275.297971 
L 402.436048 275.297971 
L 402.560245 298.776365 
L 402.932836 298.776365 
L 403.057033 299.154439 
L 403.429624 299.154439 
L 403.553821 297.887891 
L 403.926412 297.887891 
L 404.050609 290.855715 
L 404.4232 290.855715 
L 404.547398 298.833076 
L 404.919989 298.833076 
L 405.044186 298.455002 
L 405.416777 298.455002 
L 405.540974 298.870884 
L 405.913565 298.870884 
L 406.037762 298.719654 
L 406.410353 298.719654 
L 406.53455 298.284869 
L 406.907142 298.284869 
L 407.031339 298.927595 
L 408.397506 298.927595 
L 408.521703 294.787685 
L 408.894294 294.787685 
L 409.018491 287.585375 
L 409.391083 287.585375 
L 409.51528 284.069287 
L 409.887871 284.069287 
L 410.012068 298.322676 
L 410.384659 298.322676 
L 410.508856 298.85198 
L 410.881447 298.85198 
L 411.005644 299.192247 
L 411.378235 299.192247 
L 411.502433 294.749877 
L 411.875024 294.749877 
L 411.999221 298.398291 
L 412.371812 298.398291 
L 412.496009 298.095832 
L 412.8686 298.095832 
L 412.992797 298.360484 
L 415.352541 298.34158 
L 415.476738 297.812277 
L 415.849329 297.812277 
L 415.973526 298.814173 
L 416.346118 298.814173 
L 416.470315 297.528721 
L 416.842906 297.528721 
L 416.967103 296.678055 
L 417.339694 296.678055 
L 417.463891 298.833076 
L 417.836482 298.833076 
L 417.960679 298.34158 
L 418.333271 298.34158 
L 418.457468 299.097728 
L 418.830059 299.097728 
L 418.954256 297.604336 
L 419.326847 297.604336 
L 84.665465 299.400187 
L 90.602084 299.381284 
L 90.726281 298.908691 
L 91.098872 298.908691 
L 91.223069 299.419091 
L 95.569966 299.400187 
L 95.694163 299.022113 
L 96.066754 299.022113 
L 96.190951 299.381284 
L 98.550695 299.381284 
L 98.674892 298.870884 
L 99.544272 298.965402 
L 99.668469 299.400187 
L 101.034636 299.381284 
L 101.158834 298.946498 
L 101.531425 298.946498 
L 101.655622 299.381284 
L 103.518578 299.381284 
L 103.642775 298.984306 
L 104.015366 298.984306 
L 104.139563 298.247062 
L 104.512154 298.247062 
L 104.636351 298.511713 
L 105.008942 298.511713 
L 105.133139 299.381284 
L 108.48646 299.381284 
L 108.610657 298.889787 
L 108.983248 298.889787 
L 109.107445 299.381284 
L 114.447918 299.400187 
L 114.572115 299.041017 
L 115.441495 299.116632 
L 115.565692 298.908691 
L 115.938283 298.908691 
L 116.06248 299.419091 
L 117.925436 299.381284 
L 118.049633 298.927595 
L 118.422224 298.927595 
L 118.546421 299.381284 
L 120.906165 299.381284 
L 121.030362 298.833076 
L 121.402953 298.833076 
L 121.52715 299.286765 
L 121.899742 299.286765 
L 122.023939 299.173343 
L 122.39653 299.173343 
L 122.520727 299.36238 
L 126.370836 299.381284 
L 126.495033 298.436099 
L 126.867624 298.436099 
L 126.991821 299.041017 
L 127.364412 299.041017 
L 127.488609 299.324572 
L 127.8612 299.324572 
L 127.985397 299.041017 
L 128.357988 299.041017 
L 128.482185 299.381284 
L 128.854777 299.381284 
L 128.978974 298.927595 
L 129.351565 298.927595 
L 129.475762 299.381284 
L 136.803388 299.400187 
L 136.927585 298.870884 
L 137.300176 298.870884 
L 137.424373 299.36238 
L 137.796965 299.36238 
L 137.921162 298.889787 
L 138.790541 298.927595 
L 138.914738 299.248958 
L 139.287329 299.248958 
L 139.411526 298.889787 
L 139.784117 298.889787 
L 139.908314 299.36238 
L 140.777694 299.286765 
L 140.901891 298.889787 
L 141.274482 298.889787 
L 141.398679 299.36238 
L 141.77127 299.36238 
L 141.895467 298.587328 
L 142.268058 298.587328 
L 142.392256 298.927595 
L 142.764847 298.927595 
L 142.889044 299.381284 
L 143.261635 299.381284 
L 143.385832 298.946498 
L 143.758423 298.946498 
L 143.88262 299.400187 
L 144.255211 299.400187 
L 144.379408 298.908691 
L 144.752 298.908691 
L 144.876197 298.776365 
L 145.248788 298.776365 
L 145.372985 299.343476 
L 148.726305 299.305669 
L 148.850502 298.379387 
L 149.223093 298.379387 
L 149.347291 297.226262 
L 149.719882 297.226262 
L 149.844079 299.248958 
L 150.713458 299.343476 
L 150.862495 299.381284 
L 151.210246 299.381284 
L 151.334443 298.417195 
L 151.707035 298.417195 
L 151.831232 299.36238 
L 153.197399 299.381284 
L 153.321596 299.154439 
L 153.694187 299.154439 
L 153.818385 299.400187 
L 155.68134 299.36238 
L 155.805537 299.267861 
L 156.178129 299.267861 
L 156.302326 298.152543 
L 156.674917 298.152543 
L 156.799114 298.870884 
L 157.171705 298.870884 
L 157.295902 299.381284 
L 157.668493 299.381284 
L 157.79269 298.946498 
L 160.152434 298.889787 
L 160.276631 299.324572 
L 160.649222 299.324572 
L 160.77342 298.984306 
L 161.146011 298.984306 
L 161.270208 299.36238 
L 161.642799 299.36238 
L 161.766996 298.870884 
L 162.139587 298.870884 
L 162.263784 299.00321 
L 162.636375 299.00321 
L 162.760572 299.343476 
L 164.12674 299.343476 
L 164.250937 299.173343 
L 164.623528 299.173343 
L 164.747725 299.381284 
L 165.120316 299.381284 
L 165.244513 298.889787 
L 165.617105 298.889787 
L 165.741302 299.400187 
L 166.113893 299.400187 
L 166.23809 298.946498 
L 167.107469 299.041017 
L 167.231666 298.606232 
L 167.604258 298.606232 
L 167.728455 298.757461 
L 169.094622 298.776365 
L 169.218819 299.305669 
L 169.59141 299.305669 
L 169.715607 298.927595 
L 171.081775 298.965402 
L 171.205972 298.587328 
L 171.578563 298.587328 
L 171.70276 297.282973 
L 172.075351 297.282973 
L 172.199549 299.36238 
L 173.068928 299.305669 
L 173.193125 298.927595 
L 173.565716 298.927595 
L 173.689913 298.265965 
L 174.062504 298.265965 
L 174.186701 299.381284 
L 178.03681 299.400187 
L 178.161007 299.154439 
L 178.533598 299.154439 
L 178.657795 299.324572 
L 179.527175 299.267861 
L 179.651372 298.927595 
L 180.520751 298.927595 
L 180.644948 299.381284 
L 181.017539 299.381284 
L 181.141736 299.022113 
L 181.514328 299.022113 
L 181.638525 299.324572 
L 182.011116 299.324572 
L 182.135313 298.833076 
L 182.507904 298.833076 
L 182.632101 299.381284 
L 183.004692 299.381284 
L 183.128889 298.889787 
L 183.50148 298.889787 
L 183.625678 299.343476 
L 183.998269 299.343476 
L 184.122466 298.908691 
L 184.495057 298.908691 
L 184.619254 299.36238 
L 186.48221 299.267861 
L 186.606407 298.70075 
L 186.978998 298.70075 
L 187.103195 299.36238 
L 187.972574 299.343476 
L 188.096771 298.908691 
L 188.469363 298.908691 
L 188.59356 299.097728 
L 188.966151 299.097728 
L 189.090348 299.248958 
L 189.462939 299.248958 
L 189.587136 298.625136 
L 189.959727 298.625136 
L 190.083924 298.946498 
L 191.450092 298.965402 
L 191.574289 299.267861 
L 191.94688 299.267861 
L 192.071077 298.927595 
L 192.940457 298.927595 
L 193.064654 299.059921 
L 193.437245 299.059921 
L 193.561442 298.34158 
L 193.934033 298.34158 
L 194.05823 297.377491 
L 194.430821 297.377491 
L 194.555018 298.85198 
L 195.424398 298.814173 
L 195.548595 299.078824 
L 195.921186 299.078824 
L 196.045383 298.473906 
L 196.417974 298.473906 
L 196.542171 299.36238 
L 198.405127 299.381284 
L 198.529324 298.870884 
L 198.901915 298.870884 
L 199.026112 299.36238 
L 199.398703 299.36238 
L 199.5229 299.00321 
L 199.895492 299.00321 
L 200.019689 299.36238 
L 200.39228 299.36238 
L 200.516477 299.041017 
L 200.889068 299.041017 
L 201.013265 299.154439 
L 201.385856 299.154439 
L 201.510053 298.776365 
L 201.882644 298.776365 
L 202.006842 299.324572 
L 202.876221 299.36238 
L 203.000418 298.85198 
L 203.373009 298.85198 
L 203.497206 299.097728 
L 203.869797 299.097728 
L 203.993994 299.324572 
L 204.366586 299.324572 
L 204.490783 298.85198 
L 204.863374 298.85198 
L 204.987571 299.324572 
L 205.360162 299.324572 
L 205.484359 298.889787 
L 205.85695 298.889787 
L 205.981147 299.305669 
L 207.347315 299.324572 
L 207.471512 298.889787 
L 208.340891 298.927595 
L 208.465088 299.230054 
L 208.83768 299.230054 
L 208.961877 297.150647 
L 209.334468 297.150647 
L 209.458665 299.324572 
L 209.831256 299.324572 
L 209.955453 298.776365 
L 210.328044 298.776365 
L 210.452241 299.041017 
L 210.824832 299.041017 
L 210.949029 299.21115 
L 211.321621 299.21115 
L 211.445818 298.908691 
L 211.818409 298.908691 
L 211.942606 298.70075 
L 212.315197 298.70075 
L 212.439394 298.946498 
L 212.811985 298.946498 
L 212.936182 299.21115 
L 213.308773 299.21115 
L 213.432971 298.965402 
L 213.805562 298.965402 
L 213.929759 299.192247 
L 215.792715 299.286765 
L 215.916912 298.549521 
L 216.289503 298.549521 
L 216.4137 293.029641 
L 216.786291 293.029641 
L 216.910488 298.984306 
L 218.276656 298.984306 
L 218.400853 296.753669 
L 218.773444 296.753669 
L 218.897641 299.343476 
L 219.76702 299.36238 
L 219.891217 298.870884 
L 220.263808 298.870884 
L 220.388006 299.305669 
L 220.760597 299.305669 
L 220.884794 298.908691 
L 221.257385 298.908691 
L 221.381582 299.305669 
L 221.754173 299.305669 
L 221.87837 298.870884 
L 222.250961 298.870884 
L 222.375158 299.305669 
L 222.74775 299.305669 
L 222.871947 298.870884 
L 223.244538 298.870884 
L 223.368735 299.059921 
L 223.741326 299.059921 
L 223.865523 297.453106 
L 224.238114 297.453106 
L 224.362311 298.795269 
L 224.734902 298.795269 
L 224.859099 298.908691 
L 226.225267 298.85198 
L 226.349464 299.286765 
L 227.218844 299.267861 
L 227.343041 298.946498 
L 227.715632 298.946498 
L 227.839829 299.286765 
L 228.709208 299.267861 
L 228.833405 298.927595 
L 229.205996 298.927595 
L 229.330193 298.776365 
L 229.702785 298.776365 
L 229.826982 298.908691 
L 230.199573 298.908691 
L 230.32377 299.116632 
L 230.696361 299.116632 
L 230.820558 294.144959 
L 231.193149 294.144959 
L 231.317346 297.963506 
L 231.689937 297.963506 
L 231.814135 298.719654 
L 232.186726 298.719654 
L 232.310923 299.286765 
L 233.180302 299.248958 
L 233.304499 299.116632 
L 234.173879 299.154439 
L 234.298076 298.436099 
L 234.670667 298.436099 
L 234.794864 299.00321 
L 235.167455 299.00321 
L 235.291652 299.154439 
L 236.161031 299.173343 
L 236.285228 298.965402 
L 236.65782 298.965402 
L 236.782017 299.154439 
L 238.148184 299.230054 
L 238.272381 297.32078 
L 238.644973 297.32078 
L 238.76917 295.090144 
L 239.141761 295.090144 
L 239.265958 298.927595 
L 239.638549 298.927595 
L 239.762746 299.154439 
L 240.135337 299.154439 
L 240.259534 299.324572 
L 240.632125 299.324572 
L 240.756322 297.698854 
L 241.128914 297.698854 
L 241.253111 299.267861 
L 243.116066 299.343476 
L 243.240264 298.946498 
L 243.612855 298.946498 
L 243.737052 299.305669 
L 244.606431 299.286765 
L 244.730628 299.154439 
L 245.600008 299.230054 
L 245.724205 298.927595 
L 246.096796 298.927595 
L 246.220993 298.303773 
L 246.593584 298.303773 
L 246.717781 299.116632 
L 247.090372 299.116632 
L 247.214569 298.965402 
L 248.083949 298.908691 
L 248.208146 299.36238 
L 249.077525 299.267861 
L 249.226562 299.230054 
L 249.574313 299.230054 
L 249.69851 298.946498 
L 250.071101 298.946498 
L 250.195299 299.230054 
L 253.051831 299.21115 
L 253.176028 299.116632 
L 253.548619 299.116632 
L 253.672816 296.45121 
L 254.045407 296.45121 
L 254.169604 298.398291 
L 254.542195 298.398291 
L 254.666393 299.230054 
L 255.535772 299.324572 
L 255.659969 298.85198 
L 256.03256 298.85198 
L 256.156757 299.078824 
L 256.529348 299.078824 
L 256.653545 298.946498 
L 257.026137 298.946498 
L 257.150334 299.059921 
L 257.522925 299.059921 
L 257.647122 298.908691 
L 258.019713 298.908691 
L 258.14391 299.078824 
L 260.006866 299.059921 
L 260.131063 299.230054 
L 260.503654 299.230054 
L 260.627851 298.19035 
L 261.000442 298.19035 
L 261.124639 297.547625 
L 261.49723 297.547625 
L 261.621428 298.908691 
L 261.994019 298.908691 
L 262.118216 299.059921 
L 262.490807 299.059921 
L 262.615004 298.927595 
L 262.987595 298.927595 
L 263.111792 297.339684 
L 263.484383 297.339684 
L 263.60858 298.814173 
L 263.981172 298.814173 
L 264.105369 299.305669 
L 264.47796 299.305669 
L 264.602157 299.097728 
L 264.974748 299.097728 
L 265.098945 299.286765 
L 265.471536 299.286765 
L 265.595733 299.00321 
L 265.968324 299.00321 
L 266.092521 299.286765 
L 266.465113 299.286765 
L 266.58931 298.719654 
L 266.961901 298.719654 
L 267.086098 299.305669 
L 267.458689 299.305669 
L 267.582886 295.789581 
L 267.955477 295.789581 
L 268.079674 299.154439 
L 268.452266 299.154439 
L 268.576463 298.719654 
L 268.949054 298.719654 
L 269.073251 298.870884 
L 269.445842 298.870884 
L 269.570039 299.059921 
L 269.94263 299.059921 
L 270.066827 299.343476 
L 270.936207 299.343476 
L 271.060404 298.795269 
L 271.432995 298.795269 
L 271.557192 299.230054 
L 272.426571 299.21115 
L 272.550768 298.946498 
L 272.923359 298.946498 
L 273.047557 299.21115 
L 275.407301 299.173343 
L 275.531498 298.681847 
L 275.904089 298.681847 
L 276.028286 299.078824 
L 276.400877 299.078824 
L 276.525074 299.248958 
L 277.891242 299.324572 
L 278.015439 290.307508 
L 278.38803 290.307508 
L 278.512227 298.965402 
L 278.884818 298.965402 
L 279.009015 298.587328 
L 279.381606 298.587328 
L 279.505803 298.984306 
L 282.362336 298.965402 
L 282.486533 299.135535 
L 282.859124 299.135535 
L 282.983321 298.171447 
L 283.355912 298.171447 
L 283.480109 298.776365 
L 283.8527 298.776365 
L 283.976897 299.248958 
L 284.349488 299.248958 
L 284.473686 298.889787 
L 285.343065 298.814173 
L 285.467262 298.284869 
L 285.839853 298.284869 
L 285.96405 299.267861 
L 287.827006 299.248958 
L 287.951203 298.908691 
L 288.323794 298.908691 
L 288.447991 299.286765 
L 288.820582 299.286765 
L 288.944779 298.908691 
L 289.814159 298.833076 
L 289.938356 298.757461 
L 290.310947 298.757461 
L 290.435144 299.097728 
L 290.807735 299.097728 
L 290.931932 296.489018 
L 291.304523 296.489018 
L 291.428721 298.908691 
L 292.794888 298.965402 
L 292.919085 299.286765 
L 293.291676 299.286765 
L 293.415873 298.814173 
L 293.788465 298.814173 
L 293.912662 298.662943 
L 294.285253 298.662943 
L 294.40945 299.173343 
L 296.272406 299.097728 
L 296.396603 298.870884 
L 296.769194 298.870884 
L 296.893391 299.192247 
L 297.76277 299.135535 
L 297.886967 298.889787 
L 298.259559 298.889787 
L 298.383756 299.022113 
L 299.253135 299.00321 
L 299.377332 298.908691 
L 301.240288 298.870884 
L 301.364485 298.587328 
L 301.737076 298.587328 
L 301.861273 298.946498 
L 302.233864 298.946498 
L 302.358061 298.436099 
L 302.730652 298.436099 
L 302.85485 298.927595 
L 305.214594 298.870884 
L 305.338791 298.114736 
L 305.711382 298.114736 
L 305.835579 297.47201 
L 306.20817 297.47201 
L 306.332367 299.116632 
L 306.704958 299.116632 
L 306.829155 298.417195 
L 307.201746 298.417195 
L 307.325943 298.719654 
L 307.698535 298.719654 
L 307.822732 298.058025 
L 308.195323 298.058025 
L 308.31952 298.776365 
L 308.692111 298.776365 
L 308.816308 299.248958 
L 309.685688 299.248958 
L 309.809885 299.135535 
L 310.679264 299.135535 
L 310.803461 298.927595 
L 311.67284 299.022113 
L 311.797037 298.625136 
L 312.169629 298.625136 
L 312.293826 298.511713 
L 312.666417 298.511713 
L 312.790614 298.946498 
L 313.659993 298.946498 
L 313.78419 299.230054 
L 314.156781 299.230054 
L 314.280979 298.870884 
L 315.150358 298.927595 
L 315.274555 299.097728 
L 315.647146 299.097728 
L 315.771343 298.984306 
L 316.640723 298.946498 
L 316.76492 299.097728 
L 317.137511 299.097728 
L 317.261708 298.889787 
L 318.627875 298.984306 
L 318.752072 298.776365 
L 320.11824 298.795269 
L 320.242437 298.436099 
L 320.615028 298.436099 
L 320.739225 299.173343 
L 321.608605 299.097728 
L 321.732802 299.286765 
L 322.105393 299.286765 
L 322.22959 298.076928 
L 322.602181 298.076928 
L 322.726378 298.568424 
L 323.595758 298.568424 
L 323.719955 298.681847 
L 324.092546 298.681847 
L 324.216743 298.398291 
L 325.58291 298.379387 
L 325.707108 298.795269 
L 326.576487 298.776365 
L 326.700684 298.927595 
L 327.073275 298.927595 
L 327.197472 297.377491 
L 328.066852 297.377491 
L 328.191049 298.889787 
L 328.56364 298.889787 
L 328.687837 298.322676 
L 329.060428 298.322676 
L 329.184625 298.85198 
L 329.557216 298.85198 
L 329.681413 297.585432 
L 330.054004 297.585432 
L 330.178201 299.173343 
L 330.550793 299.173343 
L 330.67499 299.00321 
L 333.034734 299.022113 
L 333.158931 298.70075 
L 333.531522 298.70075 
L 333.655719 299.230054 
L 334.02831 299.230054 
L 334.152507 299.078824 
L 334.525098 299.078824 
L 334.649295 298.757461 
L 335.021887 298.757461 
L 335.146084 298.889787 
L 335.518675 298.889787 
L 335.642872 298.757461 
L 336.015463 298.757461 
L 336.13966 299.21115 
L 336.512251 299.21115 
L 336.636448 298.965402 
L 339.492981 299.041017 
L 339.642017 299.078824 
L 341.976922 299.059921 
L 342.101119 297.755565 
L 342.47371 297.755565 
L 342.597907 296.262173 
L 342.970498 296.262173 
L 343.094695 295.770677 
L 343.467286 295.770677 
L 343.591483 299.041017 
L 343.964074 299.041017 
L 344.088272 298.681847 
L 344.460863 298.681847 
L 344.58506 298.303773 
L 344.957651 298.303773 
L 345.081848 298.625136 
L 345.454439 298.625136 
L 345.578636 298.398291 
L 345.951227 298.398291 
L 346.075424 298.757461 
L 346.448016 298.757461 
L 346.572213 298.568424 
L 346.944804 298.568424 
L 347.069001 298.209254 
L 347.441592 298.209254 
L 347.565789 298.738558 
L 348.931957 298.70075 
L 349.056154 298.984306 
L 349.428745 298.984306 
L 349.552942 298.436099 
L 349.925533 298.436099 
L 350.04973 294.05044 
L 350.422321 294.05044 
L 350.546518 293.237581 
L 350.91911 293.237581 
L 351.043307 298.70075 
L 351.415898 298.70075 
L 351.540095 299.21115 
L 355.886992 299.192247 
L 356.011189 299.022113 
L 356.38378 299.022113 
L 356.507977 298.776365 
L 356.880568 298.776365 
L 357.004765 296.507921 
L 357.377356 296.507921 
L 357.501553 298.965402 
L 357.874145 298.965402 
L 357.998342 299.192247 
L 358.370933 299.192247 
L 358.49513 297.850084 
L 358.867721 297.850084 
L 358.991918 299.230054 
L 359.364509 299.230054 
L 359.488706 298.965402 
L 360.358086 298.870884 
L 360.482283 298.058025 
L 360.854874 298.058025 
L 360.979071 298.455002 
L 361.351662 298.455002 
L 361.475859 299.041017 
L 363.338815 298.984306 
L 363.463012 298.49281 
L 363.835603 298.49281 
L 363.9598 298.662943 
L 364.332391 298.662943 
L 364.456588 285.808428 
L 364.82918 285.808428 
L 364.953377 299.116632 
L 365.325968 299.116632 
L 365.450165 299.00321 
L 365.822756 299.00321 
L 365.946953 297.887891 
L 366.319544 297.887891 
L 366.443741 295.808484 
L 366.816332 295.808484 
L 366.940529 298.511713 
L 367.313121 298.511713 
L 367.437318 298.265965 
L 367.809909 298.265965 
L 367.934106 298.549521 
L 368.306697 298.549521 
L 368.430894 298.114736 
L 368.803485 298.114736 
L 368.927682 298.625136 
L 369.797062 298.606232 
L 369.921259 298.34158 
L 370.29385 298.34158 
L 370.418047 298.49281 
L 370.790638 298.49281 
L 370.914835 298.984306 
L 371.287426 298.984306 
L 371.411623 298.34158 
L 371.784215 298.34158 
L 371.908412 298.095832 
L 372.281003 298.095832 
L 372.4052 298.85198 
L 372.777791 298.85198 
L 372.901988 298.568424 
L 373.274579 298.568424 
L 373.398776 298.870884 
L 373.771367 298.870884 
L 373.895565 295.676159 
L 374.268156 295.676159 
L 374.392353 299.173343 
L 374.764944 299.173343 
L 374.889141 298.927595 
L 375.261732 298.927595 
L 375.385929 299.173343 
L 376.255309 299.135535 
L 376.379506 299.059921 
L 377.248885 299.041017 
L 377.373082 298.833076 
L 377.745673 298.833076 
L 377.86987 299.116632 
L 378.242461 299.116632 
L 378.366658 298.927595 
L 378.73925 298.927595 
L 378.863447 298.417195 
L 379.236038 298.417195 
L 379.360235 287.774412 
L 379.732826 287.774412 
L 379.857023 297.169551 
L 380.229614 297.169551 
L 380.353811 299.135535 
L 381.223191 299.116632 
L 381.347388 242.405535 
L 381.719979 242.405535 
L 381.844176 298.984306 
L 383.210344 298.908691 
L 383.334541 298.625136 
L 383.707132 298.625136 
L 383.831329 299.022113 
L 384.20392 299.022113 
L 384.328117 298.889787 
L 385.197496 298.908691 
L 385.321694 299.00321 
L 385.694285 299.00321 
L 385.818482 265.751603 
L 386.191073 265.751603 
L 386.31527 47.943185 
L 386.687861 47.943185 
L 386.812058 277.906682 
L 387.184649 277.906682 
L 387.308846 299.022113 
L 387.681438 299.022113 
L 387.805635 298.908691 
L 388.178226 298.908691 
L 388.302423 298.568424 
L 388.675014 298.568424 
L 388.799211 297.075032 
L 389.171802 297.075032 
L 389.295999 298.265965 
L 389.66859 298.265965 
L 389.792787 298.473906 
L 391.158955 298.530617 
L 391.283152 297.812277 
L 391.655743 297.812277 
L 391.77994 298.511713 
L 392.64932 298.473906 
L 392.773517 298.284869 
L 393.146108 298.284869 
L 393.270305 298.833076 
L 393.642896 298.833076 
L 393.767093 297.62324 
L 394.139684 297.62324 
L 394.263881 277.150534 
L 394.636473 277.150534 
L 394.76067 298.870884 
L 395.133261 298.870884 
L 395.257458 298.284869 
L 395.630049 298.284869 
L 395.754246 299.192247 
L 396.126837 299.192247 
L 396.251034 297.604336 
L 396.623625 297.604336 
L 396.747822 298.70075 
L 397.120414 298.70075 
L 397.244611 296.715862 
L 397.617202 296.715862 
L 397.741399 299.154439 
L 399.604355 299.135535 
L 399.728552 298.927595 
L 400.101143 298.927595 
L 400.22534 298.757461 
L 401.094719 298.833076 
L 401.218916 298.322676 
L 401.591508 298.322676 
L 401.715705 276.205349 
L 402.088296 276.205349 
L 402.212493 298.984306 
L 402.585084 298.984306 
L 402.709281 298.757461 
L 403.081872 298.757461 
L 403.206069 299.173343 
L 403.57866 299.173343 
L 403.702858 298.795269 
L 404.572237 298.889787 
L 404.696434 298.265965 
L 405.069025 298.265965 
L 405.193222 298.587328 
L 405.565813 298.587328 
L 405.69001 298.927595 
L 408.049754 298.85198 
L 408.173951 298.322676 
L 408.546543 298.322676 
L 408.67074 284.296132 
L 409.043331 284.296132 
L 409.167528 298.49281 
L 409.540119 298.49281 
L 409.664316 298.34158 
L 410.036907 298.34158 
L 410.161104 298.738558 
L 410.533696 298.738558 
L 410.657893 294.976722 
L 411.030484 294.976722 
L 411.154681 297.925699 
L 412.02406 297.850084 
L 412.148257 298.398291 
L 414.011213 298.322676 
L 414.13541 297.868988 
L 415.004789 297.850084 
L 415.128987 298.398291 
L 415.501578 298.398291 
L 415.625775 296.791477 
L 416.495154 296.734766 
L 416.619351 298.776365 
L 416.991942 298.776365 
L 417.116139 297.850084 
L 417.488731 297.850084 
L 417.612928 299.173343 
L 417.985519 299.173343 
L 418.109716 297.226262 
L 418.482307 297.226262 
L 418.482307 297.226262 
" style="fill:none;stroke:#4c72b0;stroke-linecap:round;stroke-width:1.5;"/>
   </g>
   <g id="patch_3">
    <path d="M 67.91625 313.06 
L 67.91625 12.96 
" style="fill:none;stroke:#ffffff;stroke-linecap:square;stroke-linejoin:miter;stroke-width:1.25;"/>
   </g>
   <g id="patch_4">
    <path d="M 436.398974 313.06 
L 436.398974 12.96 
" style="fill:none;stroke:#ffffff;stroke-linecap:square;stroke-linejoin:miter;stroke-width:1.25;"/>
   </g>
   <g id="patch_5">
    <path d="M 67.91625 313.06 
L 436.398974 313.06 
" style="fill:none;stroke:#ffffff;stroke-linecap:square;stroke-linejoin:miter;stroke-width:1.25;"/>
   </g>
   <g id="patch_6">
    <path d="M 67.91625 12.96 
L 436.398974 12.96 
" style="fill:none;stroke:#ffffff;stroke-linecap:square;stroke-linejoin:miter;stroke-width:1.25;"/>
   </g>
  </g>
 </g>
 <defs>
  <clipPath id="pf0672e32f2">
   <rect height="300.1" width="368.482724" x="67.91625" y="12.96"/>
  </clipPath>
 </defs>
</svg>
