<?xml version="1.0" encoding="utf-8" standalone="no"?>
<!DOCTYPE svg PUBLIC "-//W3C//DTD SVG 1.1//EN"
  "http://www.w3.org/Graphics/SVG/1.1/DTD/svg11.dtd">
<svg height="345.6pt" version="1.1" viewBox="0 0 460.8 345.6" width="460.8pt" xmlns="http://www.w3.org/2000/svg" xmlns:xlink="http://www.w3.org/1999/xlink">
 <metadata>
  <rdf:RDF xmlns:cc="http://creativecommons.org/ns#" xmlns:dc="http://purl.org/dc/elements/1.1/" xmlns:rdf="http://www.w3.org/1999/02/22-rdf-syntax-ns#">
   <cc:Work>
    <dc:type rdf:resource="http://purl.org/dc/dcmitype/StillImage"/>
    <dc:date>2021-11-20T20:49:36.461634</dc:date>
    <dc:format>image/svg+xml</dc:format>
    <dc:creator>
     <cc:Agent>
      <dc:title>Matplotlib v3.4.3, https://matplotlib.org/</dc:title>
     </cc:Agent>
    </dc:creator>
   </cc:Work>
  </rdf:RDF>
 </metadata>
 <defs>
  <style type="text/css">*{stroke-linecap:butt;stroke-linejoin:round;}</style>
 </defs>
 <g id="figure_1">
  <g id="patch_1">
   <path d="M 0 345.6 
L 460.8 345.6 
L 460.8 0 
L 0 0 
z
" style="fill:#ffffff;"/>
  </g>
  <g id="axes_1">
   <g id="patch_2">
    <path d="M 55.087263 298.26 
L 447.84 298.26 
L 447.84 27.65625 
L 55.087263 27.65625 
z
" style="fill:#eaeaf2;"/>
   </g>
   <g id="matplotlib.axis_1">
    <g id="xtick_1">
     <g id="line2d_1">
      <path clip-path="url(#p3a8b28d359)" d="M 63.784585 298.26 
L 63.784585 27.65625 
" style="fill:none;stroke:#ffffff;stroke-linecap:round;"/>
     </g>
     <g id="text_1">
      <!-- 0 -->
      <g style="fill:#262626;" transform="translate(60.726069 315.633594)scale(0.11 -0.11)">
       <defs>
        <path d="M 266 2259 
Q 266 3072 433 3567 
Q 600 4063 929 4331 
Q 1259 4600 1759 4600 
Q 2128 4600 2406 4451 
Q 2684 4303 2865 4023 
Q 3047 3744 3150 3342 
Q 3253 2941 3253 2259 
Q 3253 1453 3087 958 
Q 2922 463 2592 192 
Q 2263 -78 1759 -78 
Q 1097 -78 719 397 
Q 266 969 266 2259 
z
M 844 2259 
Q 844 1131 1108 757 
Q 1372 384 1759 384 
Q 2147 384 2411 759 
Q 2675 1134 2675 2259 
Q 2675 3391 2411 3762 
Q 2147 4134 1753 4134 
Q 1366 4134 1134 3806 
Q 844 3388 844 2259 
z
" id="ArialMT-30" transform="scale(0.015625)"/>
       </defs>
       <use xlink:href="#ArialMT-30"/>
      </g>
     </g>
    </g>
    <g id="xtick_2">
     <g id="line2d_2">
      <path clip-path="url(#p3a8b28d359)" d="M 109.559962 298.26 
L 109.559962 27.65625 
" style="fill:none;stroke:#ffffff;stroke-linecap:round;"/>
     </g>
     <g id="text_2">
      <!-- 5 -->
      <g style="fill:#262626;" transform="translate(106.501447 315.633594)scale(0.11 -0.11)">
       <defs>
        <path d="M 266 1200 
L 856 1250 
Q 922 819 1161 601 
Q 1400 384 1738 384 
Q 2144 384 2425 690 
Q 2706 997 2706 1503 
Q 2706 1984 2436 2262 
Q 2166 2541 1728 2541 
Q 1456 2541 1237 2417 
Q 1019 2294 894 2097 
L 366 2166 
L 809 4519 
L 3088 4519 
L 3088 3981 
L 1259 3981 
L 1013 2750 
Q 1425 3038 1878 3038 
Q 2478 3038 2890 2622 
Q 3303 2206 3303 1553 
Q 3303 931 2941 478 
Q 2500 -78 1738 -78 
Q 1113 -78 717 272 
Q 322 622 266 1200 
z
" id="ArialMT-35" transform="scale(0.015625)"/>
       </defs>
       <use xlink:href="#ArialMT-35"/>
      </g>
     </g>
    </g>
    <g id="xtick_3">
     <g id="line2d_3">
      <path clip-path="url(#p3a8b28d359)" d="M 155.335339 298.26 
L 155.335339 27.65625 
" style="fill:none;stroke:#ffffff;stroke-linecap:round;"/>
     </g>
     <g id="text_3">
      <!-- 10 -->
      <g style="fill:#262626;" transform="translate(149.218308 315.633594)scale(0.11 -0.11)">
       <defs>
        <path d="M 2384 0 
L 1822 0 
L 1822 3584 
Q 1619 3391 1289 3197 
Q 959 3003 697 2906 
L 697 3450 
Q 1169 3672 1522 3987 
Q 1875 4303 2022 4600 
L 2384 4600 
L 2384 0 
z
" id="ArialMT-31" transform="scale(0.015625)"/>
       </defs>
       <use xlink:href="#ArialMT-31"/>
       <use x="55.615234" xlink:href="#ArialMT-30"/>
      </g>
     </g>
    </g>
    <g id="xtick_4">
     <g id="line2d_4">
      <path clip-path="url(#p3a8b28d359)" d="M 201.110717 298.26 
L 201.110717 27.65625 
" style="fill:none;stroke:#ffffff;stroke-linecap:round;"/>
     </g>
     <g id="text_4">
      <!-- 15 -->
      <g style="fill:#262626;" transform="translate(194.993685 315.633594)scale(0.11 -0.11)">
       <use xlink:href="#ArialMT-31"/>
       <use x="55.615234" xlink:href="#ArialMT-35"/>
      </g>
     </g>
    </g>
    <g id="xtick_5">
     <g id="line2d_5">
      <path clip-path="url(#p3a8b28d359)" d="M 246.886094 298.26 
L 246.886094 27.65625 
" style="fill:none;stroke:#ffffff;stroke-linecap:round;"/>
     </g>
     <g id="text_5">
      <!-- 20 -->
      <g style="fill:#262626;" transform="translate(240.769063 315.633594)scale(0.11 -0.11)">
       <defs>
        <path d="M 3222 541 
L 3222 0 
L 194 0 
Q 188 203 259 391 
Q 375 700 629 1000 
Q 884 1300 1366 1694 
Q 2113 2306 2375 2664 
Q 2638 3022 2638 3341 
Q 2638 3675 2398 3904 
Q 2159 4134 1775 4134 
Q 1369 4134 1125 3890 
Q 881 3647 878 3216 
L 300 3275 
Q 359 3922 746 4261 
Q 1134 4600 1788 4600 
Q 2447 4600 2831 4234 
Q 3216 3869 3216 3328 
Q 3216 3053 3103 2787 
Q 2991 2522 2730 2228 
Q 2469 1934 1863 1422 
Q 1356 997 1212 845 
Q 1069 694 975 541 
L 3222 541 
z
" id="ArialMT-32" transform="scale(0.015625)"/>
       </defs>
       <use xlink:href="#ArialMT-32"/>
       <use x="55.615234" xlink:href="#ArialMT-30"/>
      </g>
     </g>
    </g>
    <g id="xtick_6">
     <g id="line2d_6">
      <path clip-path="url(#p3a8b28d359)" d="M 292.661471 298.26 
L 292.661471 27.65625 
" style="fill:none;stroke:#ffffff;stroke-linecap:round;"/>
     </g>
     <g id="text_6">
      <!-- 25 -->
      <g style="fill:#262626;" transform="translate(286.54444 315.633594)scale(0.11 -0.11)">
       <use xlink:href="#ArialMT-32"/>
       <use x="55.615234" xlink:href="#ArialMT-35"/>
      </g>
     </g>
    </g>
    <g id="xtick_7">
     <g id="line2d_7">
      <path clip-path="url(#p3a8b28d359)" d="M 338.436848 298.26 
L 338.436848 27.65625 
" style="fill:none;stroke:#ffffff;stroke-linecap:round;"/>
     </g>
     <g id="text_7">
      <!-- 30 -->
      <g style="fill:#262626;" transform="translate(332.319817 315.633594)scale(0.11 -0.11)">
       <defs>
        <path d="M 269 1209 
L 831 1284 
Q 928 806 1161 595 
Q 1394 384 1728 384 
Q 2125 384 2398 659 
Q 2672 934 2672 1341 
Q 2672 1728 2419 1979 
Q 2166 2231 1775 2231 
Q 1616 2231 1378 2169 
L 1441 2663 
Q 1497 2656 1531 2656 
Q 1891 2656 2178 2843 
Q 2466 3031 2466 3422 
Q 2466 3731 2256 3934 
Q 2047 4138 1716 4138 
Q 1388 4138 1169 3931 
Q 950 3725 888 3313 
L 325 3413 
Q 428 3978 793 4289 
Q 1159 4600 1703 4600 
Q 2078 4600 2393 4439 
Q 2709 4278 2876 4000 
Q 3044 3722 3044 3409 
Q 3044 3113 2884 2869 
Q 2725 2625 2413 2481 
Q 2819 2388 3044 2092 
Q 3269 1797 3269 1353 
Q 3269 753 2831 336 
Q 2394 -81 1725 -81 
Q 1122 -81 723 278 
Q 325 638 269 1209 
z
" id="ArialMT-33" transform="scale(0.015625)"/>
       </defs>
       <use xlink:href="#ArialMT-33"/>
       <use x="55.615234" xlink:href="#ArialMT-30"/>
      </g>
     </g>
    </g>
    <g id="xtick_8">
     <g id="line2d_8">
      <path clip-path="url(#p3a8b28d359)" d="M 384.212226 298.26 
L 384.212226 27.65625 
" style="fill:none;stroke:#ffffff;stroke-linecap:round;"/>
     </g>
     <g id="text_8">
      <!-- 35 -->
      <g style="fill:#262626;" transform="translate(378.095194 315.633594)scale(0.11 -0.11)">
       <use xlink:href="#ArialMT-33"/>
       <use x="55.615234" xlink:href="#ArialMT-35"/>
      </g>
     </g>
    </g>
    <g id="xtick_9">
     <g id="line2d_9">
      <path clip-path="url(#p3a8b28d359)" d="M 429.987603 298.26 
L 429.987603 27.65625 
" style="fill:none;stroke:#ffffff;stroke-linecap:round;"/>
     </g>
     <g id="text_9">
      <!-- 40 -->
      <g style="fill:#262626;" transform="translate(423.870572 315.633594)scale(0.11 -0.11)">
       <defs>
        <path d="M 2069 0 
L 2069 1097 
L 81 1097 
L 81 1613 
L 2172 4581 
L 2631 4581 
L 2631 1613 
L 3250 1613 
L 3250 1097 
L 2631 1097 
L 2631 0 
L 2069 0 
z
M 2069 1613 
L 2069 3678 
L 634 1613 
L 2069 1613 
z
" id="ArialMT-34" transform="scale(0.015625)"/>
       </defs>
       <use xlink:href="#ArialMT-34"/>
       <use x="55.615234" xlink:href="#ArialMT-30"/>
      </g>
     </g>
    </g>
    <g id="text_10">
     <!-- Iteration -->
     <g style="fill:#262626;" transform="translate(229.785819 330.409219)scale(0.12 -0.12)">
      <defs>
       <path d="M 597 0 
L 597 4581 
L 1203 4581 
L 1203 0 
L 597 0 
z
" id="ArialMT-49" transform="scale(0.015625)"/>
       <path d="M 1650 503 
L 1731 6 
Q 1494 -44 1306 -44 
Q 1000 -44 831 53 
Q 663 150 594 308 
Q 525 466 525 972 
L 525 2881 
L 113 2881 
L 113 3319 
L 525 3319 
L 525 4141 
L 1084 4478 
L 1084 3319 
L 1650 3319 
L 1650 2881 
L 1084 2881 
L 1084 941 
Q 1084 700 1114 631 
Q 1144 563 1211 522 
Q 1278 481 1403 481 
Q 1497 481 1650 503 
z
" id="ArialMT-74" transform="scale(0.015625)"/>
       <path d="M 2694 1069 
L 3275 997 
Q 3138 488 2766 206 
Q 2394 -75 1816 -75 
Q 1088 -75 661 373 
Q 234 822 234 1631 
Q 234 2469 665 2931 
Q 1097 3394 1784 3394 
Q 2450 3394 2872 2941 
Q 3294 2488 3294 1666 
Q 3294 1616 3291 1516 
L 816 1516 
Q 847 969 1125 678 
Q 1403 388 1819 388 
Q 2128 388 2347 550 
Q 2566 713 2694 1069 
z
M 847 1978 
L 2700 1978 
Q 2663 2397 2488 2606 
Q 2219 2931 1791 2931 
Q 1403 2931 1139 2672 
Q 875 2413 847 1978 
z
" id="ArialMT-65" transform="scale(0.015625)"/>
       <path d="M 416 0 
L 416 3319 
L 922 3319 
L 922 2816 
Q 1116 3169 1280 3281 
Q 1444 3394 1641 3394 
Q 1925 3394 2219 3213 
L 2025 2691 
Q 1819 2813 1613 2813 
Q 1428 2813 1281 2702 
Q 1134 2591 1072 2394 
Q 978 2094 978 1738 
L 978 0 
L 416 0 
z
" id="ArialMT-72" transform="scale(0.015625)"/>
       <path d="M 2588 409 
Q 2275 144 1986 34 
Q 1697 -75 1366 -75 
Q 819 -75 525 192 
Q 231 459 231 875 
Q 231 1119 342 1320 
Q 453 1522 633 1644 
Q 813 1766 1038 1828 
Q 1203 1872 1538 1913 
Q 2219 1994 2541 2106 
Q 2544 2222 2544 2253 
Q 2544 2597 2384 2738 
Q 2169 2928 1744 2928 
Q 1347 2928 1158 2789 
Q 969 2650 878 2297 
L 328 2372 
Q 403 2725 575 2942 
Q 747 3159 1072 3276 
Q 1397 3394 1825 3394 
Q 2250 3394 2515 3294 
Q 2781 3194 2906 3042 
Q 3031 2891 3081 2659 
Q 3109 2516 3109 2141 
L 3109 1391 
Q 3109 606 3145 398 
Q 3181 191 3288 0 
L 2700 0 
Q 2613 175 2588 409 
z
M 2541 1666 
Q 2234 1541 1622 1453 
Q 1275 1403 1131 1340 
Q 988 1278 909 1158 
Q 831 1038 831 891 
Q 831 666 1001 516 
Q 1172 366 1500 366 
Q 1825 366 2078 508 
Q 2331 650 2450 897 
Q 2541 1088 2541 1459 
L 2541 1666 
z
" id="ArialMT-61" transform="scale(0.015625)"/>
       <path d="M 425 3934 
L 425 4581 
L 988 4581 
L 988 3934 
L 425 3934 
z
M 425 0 
L 425 3319 
L 988 3319 
L 988 0 
L 425 0 
z
" id="ArialMT-69" transform="scale(0.015625)"/>
       <path d="M 213 1659 
Q 213 2581 725 3025 
Q 1153 3394 1769 3394 
Q 2453 3394 2887 2945 
Q 3322 2497 3322 1706 
Q 3322 1066 3130 698 
Q 2938 331 2570 128 
Q 2203 -75 1769 -75 
Q 1072 -75 642 372 
Q 213 819 213 1659 
z
M 791 1659 
Q 791 1022 1069 705 
Q 1347 388 1769 388 
Q 2188 388 2466 706 
Q 2744 1025 2744 1678 
Q 2744 2294 2464 2611 
Q 2184 2928 1769 2928 
Q 1347 2928 1069 2612 
Q 791 2297 791 1659 
z
" id="ArialMT-6f" transform="scale(0.015625)"/>
       <path d="M 422 0 
L 422 3319 
L 928 3319 
L 928 2847 
Q 1294 3394 1984 3394 
Q 2284 3394 2536 3286 
Q 2788 3178 2913 3003 
Q 3038 2828 3088 2588 
Q 3119 2431 3119 2041 
L 3119 0 
L 2556 0 
L 2556 2019 
Q 2556 2363 2490 2533 
Q 2425 2703 2258 2804 
Q 2091 2906 1866 2906 
Q 1506 2906 1245 2678 
Q 984 2450 984 1813 
L 984 0 
L 422 0 
z
" id="ArialMT-6e" transform="scale(0.015625)"/>
      </defs>
      <use xlink:href="#ArialMT-49"/>
      <use x="27.783203" xlink:href="#ArialMT-74"/>
      <use x="55.566406" xlink:href="#ArialMT-65"/>
      <use x="111.181641" xlink:href="#ArialMT-72"/>
      <use x="144.482422" xlink:href="#ArialMT-61"/>
      <use x="200.097656" xlink:href="#ArialMT-74"/>
      <use x="227.880859" xlink:href="#ArialMT-69"/>
      <use x="250.097656" xlink:href="#ArialMT-6f"/>
      <use x="305.712891" xlink:href="#ArialMT-6e"/>
     </g>
    </g>
   </g>
   <g id="matplotlib.axis_2">
    <g id="ytick_1">
     <g id="line2d_10">
      <path clip-path="url(#p3a8b28d359)" d="M 55.087263 207.258881 
L 447.84 207.258881 
" style="fill:none;stroke:#ffffff;stroke-linecap:round;"/>
     </g>
     <g id="text_11">
      <!-- $\mathdefault{10^{0}}$ -->
      <g style="fill:#262626;" transform="translate(28.317263 212.930756)scale(0.11 -0.11)">
       <use transform="translate(0 0.99375)" xlink:href="#ArialMT-31"/>
       <use transform="translate(55.615234 0.99375)" xlink:href="#ArialMT-30"/>
       <use transform="translate(112.972813 70.6875)scale(0.7)" xlink:href="#ArialMT-30"/>
      </g>
     </g>
    </g>
    <g id="ytick_2">
     <g id="line2d_11">
      <path clip-path="url(#p3a8b28d359)" d="M 55.087263 29.044007 
L 447.84 29.044007 
" style="fill:none;stroke:#ffffff;stroke-linecap:round;"/>
     </g>
     <g id="text_12">
      <!-- $\mathdefault{10^{1}}$ -->
      <g style="fill:#262626;" transform="translate(28.317263 34.715882)scale(0.11 -0.11)">
       <use transform="translate(0 0.99375)" xlink:href="#ArialMT-31"/>
       <use transform="translate(55.615234 0.99375)" xlink:href="#ArialMT-30"/>
       <use transform="translate(112.972813 70.6875)scale(0.7)" xlink:href="#ArialMT-31"/>
      </g>
     </g>
    </g>
    <g id="ytick_3"/>
    <g id="ytick_4"/>
    <g id="ytick_5"/>
    <g id="ytick_6"/>
    <g id="ytick_7"/>
    <g id="ytick_8"/>
    <g id="ytick_9"/>
    <g id="ytick_10"/>
    <g id="ytick_11"/>
    <g id="ytick_12"/>
    <g id="ytick_13"/>
    <g id="ytick_14"/>
    <g id="ytick_15"/>
    <g id="ytick_16"/>
    <g id="text_13">
     <!-- Runtime (s) -->
     <g style="fill:#262626;" transform="translate(21.791638 193.96125)rotate(-90)scale(0.12 -0.12)">
      <defs>
       <path d="M 503 0 
L 503 4581 
L 2534 4581 
Q 3147 4581 3465 4457 
Q 3784 4334 3975 4021 
Q 4166 3709 4166 3331 
Q 4166 2844 3850 2509 
Q 3534 2175 2875 2084 
Q 3116 1969 3241 1856 
Q 3506 1613 3744 1247 
L 4541 0 
L 3778 0 
L 3172 953 
Q 2906 1366 2734 1584 
Q 2563 1803 2427 1890 
Q 2291 1978 2150 2013 
Q 2047 2034 1813 2034 
L 1109 2034 
L 1109 0 
L 503 0 
z
M 1109 2559 
L 2413 2559 
Q 2828 2559 3062 2645 
Q 3297 2731 3419 2920 
Q 3541 3109 3541 3331 
Q 3541 3656 3305 3865 
Q 3069 4075 2559 4075 
L 1109 4075 
L 1109 2559 
z
" id="ArialMT-52" transform="scale(0.015625)"/>
       <path d="M 2597 0 
L 2597 488 
Q 2209 -75 1544 -75 
Q 1250 -75 995 37 
Q 741 150 617 320 
Q 494 491 444 738 
Q 409 903 409 1263 
L 409 3319 
L 972 3319 
L 972 1478 
Q 972 1038 1006 884 
Q 1059 663 1231 536 
Q 1403 409 1656 409 
Q 1909 409 2131 539 
Q 2353 669 2445 892 
Q 2538 1116 2538 1541 
L 2538 3319 
L 3100 3319 
L 3100 0 
L 2597 0 
z
" id="ArialMT-75" transform="scale(0.015625)"/>
       <path d="M 422 0 
L 422 3319 
L 925 3319 
L 925 2853 
Q 1081 3097 1340 3245 
Q 1600 3394 1931 3394 
Q 2300 3394 2536 3241 
Q 2772 3088 2869 2813 
Q 3263 3394 3894 3394 
Q 4388 3394 4653 3120 
Q 4919 2847 4919 2278 
L 4919 0 
L 4359 0 
L 4359 2091 
Q 4359 2428 4304 2576 
Q 4250 2725 4106 2815 
Q 3963 2906 3769 2906 
Q 3419 2906 3187 2673 
Q 2956 2441 2956 1928 
L 2956 0 
L 2394 0 
L 2394 2156 
Q 2394 2531 2256 2718 
Q 2119 2906 1806 2906 
Q 1569 2906 1367 2781 
Q 1166 2656 1075 2415 
Q 984 2175 984 1722 
L 984 0 
L 422 0 
z
" id="ArialMT-6d" transform="scale(0.015625)"/>
       <path id="ArialMT-20" transform="scale(0.015625)"/>
       <path d="M 1497 -1347 
Q 1031 -759 709 28 
Q 388 816 388 1659 
Q 388 2403 628 3084 
Q 909 3875 1497 4659 
L 1900 4659 
Q 1522 4009 1400 3731 
Q 1209 3300 1100 2831 
Q 966 2247 966 1656 
Q 966 153 1900 -1347 
L 1497 -1347 
z
" id="ArialMT-28" transform="scale(0.015625)"/>
       <path d="M 197 991 
L 753 1078 
Q 800 744 1014 566 
Q 1228 388 1613 388 
Q 2000 388 2187 545 
Q 2375 703 2375 916 
Q 2375 1106 2209 1216 
Q 2094 1291 1634 1406 
Q 1016 1563 777 1677 
Q 538 1791 414 1992 
Q 291 2194 291 2438 
Q 291 2659 392 2848 
Q 494 3038 669 3163 
Q 800 3259 1026 3326 
Q 1253 3394 1513 3394 
Q 1903 3394 2198 3281 
Q 2494 3169 2634 2976 
Q 2775 2784 2828 2463 
L 2278 2388 
Q 2241 2644 2061 2787 
Q 1881 2931 1553 2931 
Q 1166 2931 1000 2803 
Q 834 2675 834 2503 
Q 834 2394 903 2306 
Q 972 2216 1119 2156 
Q 1203 2125 1616 2013 
Q 2213 1853 2448 1751 
Q 2684 1650 2818 1456 
Q 2953 1263 2953 975 
Q 2953 694 2789 445 
Q 2625 197 2315 61 
Q 2006 -75 1616 -75 
Q 969 -75 630 194 
Q 291 463 197 991 
z
" id="ArialMT-73" transform="scale(0.015625)"/>
       <path d="M 791 -1347 
L 388 -1347 
Q 1322 153 1322 1656 
Q 1322 2244 1188 2822 
Q 1081 3291 891 3722 
Q 769 4003 388 4659 
L 791 4659 
Q 1378 3875 1659 3084 
Q 1900 2403 1900 1659 
Q 1900 816 1576 28 
Q 1253 -759 791 -1347 
z
" id="ArialMT-29" transform="scale(0.015625)"/>
      </defs>
      <use xlink:href="#ArialMT-52"/>
      <use x="72.216797" xlink:href="#ArialMT-75"/>
      <use x="127.832031" xlink:href="#ArialMT-6e"/>
      <use x="183.447266" xlink:href="#ArialMT-74"/>
      <use x="211.230469" xlink:href="#ArialMT-69"/>
      <use x="233.447266" xlink:href="#ArialMT-6d"/>
      <use x="316.748047" xlink:href="#ArialMT-65"/>
      <use x="372.363281" xlink:href="#ArialMT-20"/>
      <use x="400.146484" xlink:href="#ArialMT-28"/>
      <use x="433.447266" xlink:href="#ArialMT-73"/>
      <use x="483.447266" xlink:href="#ArialMT-29"/>
     </g>
    </g>
   </g>
   <g id="line2d_12">
    <path clip-path="url(#p3a8b28d359)" d="M 72.93966 188.391138 
L 82.094736 189.963993 
L 91.249811 174.962938 
L 100.404887 189.100142 
L 109.559962 189.095001 
L 118.715038 191.097388 
L 127.870113 190.442338 
L 137.025189 190.461523 
L 146.180264 174.879813 
L 155.335339 190.854499 
L 164.490415 190.258822 
L 173.64549 190.435113 
L 182.800566 190.815937 
L 191.955641 189.554318 
L 201.110717 188.397568 
L 210.265792 190.754317 
L 219.420868 190.682123 
L 228.575943 190.290641 
L 237.731018 190.233723 
L 246.886094 191.308158 
L 256.041169 190.730495 
L 265.196245 189.909727 
L 274.35132 189.21169 
L 283.506396 190.128448 
L 292.661471 173.331003 
L 301.816547 189.790932 
L 310.971622 191.450253 
L 320.126698 190.501217 
L 329.281773 190.407778 
L 338.436848 190.382072 
L 347.591924 191.024874 
L 356.746999 190.175171 
L 365.902075 189.583509 
L 375.05715 189.446273 
L 384.212226 189.023604 
L 393.367301 190.035148 
L 402.522377 190.59377 
L 411.677452 191.422116 
L 420.832527 191.218396 
L 429.987603 190.362346 
" style="fill:none;stroke:#4c72b0;stroke-linecap:round;stroke-width:1.5;"/>
   </g>
   <g id="line2d_13">
    <path clip-path="url(#p3a8b28d359)" d="M 72.93966 160.573876 
L 82.094736 144.013154 
L 91.249811 143.69336 
L 100.404887 145.236776 
L 109.559962 147.066969 
L 118.715038 145.933854 
L 127.870113 146.314531 
L 137.025189 147.595183 
L 146.180264 147.820653 
L 155.335339 147.636406 
L 164.490415 147.777143 
L 173.64549 147.805177 
L 182.800566 147.482265 
L 191.955641 147.837209 
L 201.110717 147.743845 
L 210.265792 147.833007 
L 219.420868 143.876771 
L 228.575943 143.541873 
L 237.731018 144.661527 
L 246.886094 146.059801 
L 256.041169 146.048008 
L 265.196245 143.793414 
L 274.35132 146.228086 
L 283.506396 146.10211 
L 292.661471 143.665959 
L 301.816547 142.540856 
L 310.971622 145.007721 
L 320.126698 146.060082 
L 329.281773 145.997275 
L 338.436848 146.325872 
L 347.591924 147.835305 
L 356.746999 147.809127 
L 365.902075 147.771042 
L 375.05715 147.702888 
L 384.212226 147.92033 
L 393.367301 147.561999 
L 402.522377 147.894122 
L 411.677452 147.40072 
L 420.832527 147.914685 
L 429.987603 147.617959 
" style="fill:none;stroke:#dd8452;stroke-linecap:round;stroke-width:1.5;"/>
   </g>
   <g id="line2d_14">
    <path clip-path="url(#p3a8b28d359)" d="M 72.93966 273.582811 
L 82.094736 284.957942 
L 91.249811 285.596734 
L 100.404887 284.954563 
L 109.559962 282.166028 
L 118.715038 283.638008 
L 127.870113 285.569054 
L 137.025189 282.187015 
L 146.180264 285.785861 
L 155.335339 284.676911 
L 164.490415 284.30113 
L 173.64549 285.503089 
L 182.800566 285.725682 
L 191.955641 285.034438 
L 201.110717 284.712274 
L 210.265792 285.15017 
L 219.420868 284.285006 
L 228.575943 284.994702 
L 237.731018 284.978855 
L 246.886094 285.95983 
L 256.041169 285.452907 
L 265.196245 285.476293 
L 274.35132 284.699221 
L 283.506396 285.700729 
L 292.661471 285.265228 
L 301.816547 285.454183 
L 310.971622 285.567139 
L 320.126698 285.279648 
L 329.281773 285.458434 
L 338.436848 285.534362 
L 347.591924 284.62579 
L 356.746999 284.825838 
L 365.902075 285.418479 
L 375.05715 284.709747 
L 384.212226 285.070387 
L 393.367301 284.419336 
L 402.522377 285.20397 
L 411.677452 285.501174 
L 420.832527 284.728066 
L 429.987603 284.617378 
" style="fill:none;stroke:#55a868;stroke-linecap:round;stroke-width:1.5;"/>
   </g>
   <g id="line2d_15">
    <path clip-path="url(#p3a8b28d359)" d="M 72.93966 124.483282 
L 82.094736 126.187085 
L 91.249811 125.985736 
L 100.404887 125.184251 
L 109.559962 59.104127 
L 118.715038 125.325232 
L 127.870113 128.47271 
L 137.025189 127.197086 
L 146.180264 127.470464 
L 155.335339 126.169166 
L 164.490415 125.276349 
L 173.64549 125.204062 
L 182.800566 125.605459 
L 191.955641 125.259874 
L 201.110717 124.913288 
L 210.265792 125.821331 
L 219.420868 125.080618 
L 228.575943 125.292023 
L 237.731018 125.904072 
L 246.886094 125.122574 
L 256.041169 124.912166 
L 265.196245 125.878348 
L 274.35132 98.577923 
L 283.506396 127.780503 
L 292.661471 126.038104 
L 301.816547 125.090443 
L 310.971622 124.87286 
L 320.126698 125.964236 
L 329.281773 125.277611 
L 338.436848 125.113362 
L 347.591924 125.6422 
L 356.746999 125.398439 
L 365.902075 125.052812 
L 375.05715 125.855822 
L 384.212226 125.07034 
L 393.367301 125.377209 
L 402.522377 125.738004 
L 411.677452 125.014317 
L 420.832527 124.885968 
L 429.987603 126.123275 
" style="fill:none;stroke:#c44e52;stroke-linecap:round;stroke-width:1.5;"/>
   </g>
   <g id="line2d_16">
    <path clip-path="url(#p3a8b28d359)" d="M 72.93966 87.777139 
L 82.094736 93.598348 
L 91.249811 92.173314 
L 100.404887 83.031357 
L 109.559962 86.604778 
L 118.715038 82.875075 
L 127.870113 88.501005 
L 137.025189 93.873473 
L 146.180264 93.979821 
L 155.335339 87.046109 
L 164.490415 83.339188 
L 173.64549 86.463561 
L 182.800566 87.293362 
L 191.955641 89.343076 
L 201.110717 84.320952 
L 210.265792 84.292833 
L 219.420868 86.078814 
L 228.575943 83.39534 
L 237.731018 94.181662 
L 246.886094 86.863756 
L 256.041169 87.572413 
L 265.196245 89.256167 
L 274.35132 84.343151 
L 283.506396 84.283147 
L 292.661471 85.892301 
L 301.816547 83.519172 
L 310.971622 92.188555 
L 320.126698 82.86257 
L 329.281773 88.532064 
L 338.436848 91.868334 
L 347.591924 82.94993 
L 356.746999 88.488609 
L 365.902075 94.803899 
L 375.05715 86.067478 
L 384.212226 83.973324 
L 393.367301 93.235649 
L 402.522377 80.953338 
L 411.677452 39.95642 
L 420.832527 88.421387 
L 429.987603 85.923315 
" style="fill:none;stroke:#8172b3;stroke-linecap:round;stroke-width:1.5;"/>
   </g>
   <g id="line2d_17">
    <path clip-path="url(#p3a8b28d359)" d="M 72.93966 280.572096 
L 82.094736 272.6449 
L 91.249811 280.45364 
L 100.404887 280.849401 
L 109.559962 280.348498 
L 118.715038 279.132667 
L 127.870113 280.782533 
L 137.025189 279.430217 
L 146.180264 280.709525 
L 155.335339 280.22184 
L 164.490415 280.083885 
L 173.64549 280.544959 
L 182.800566 278.702306 
L 191.955641 280.673746 
L 201.110717 281.272366 
L 210.265792 279.985185 
L 219.420868 280.967262 
L 228.575943 281.016423 
L 237.731018 280.871236 
L 246.886094 279.995089 
L 256.041169 277.939306 
L 265.196245 280.387909 
L 274.35132 280.35407 
L 283.506396 279.683327 
L 292.661471 281.298954 
L 301.816547 280.515837 
L 310.971622 278.494527 
L 320.126698 280.039871 
L 329.281773 279.494352 
L 338.436848 280.851805 
L 347.591924 280.177747 
L 356.746999 281.063005 
L 365.902075 280.509455 
L 375.05715 279.759916 
L 384.212226 279.813257 
L 393.367301 279.402495 
L 402.522377 278.398221 
L 411.677452 280.6258 
L 420.832527 280.623404 
L 429.987603 280.338548 
" style="fill:none;stroke:#937860;stroke-linecap:round;stroke-width:1.5;"/>
   </g>
   <g id="line2d_18">
    <path clip-path="url(#p3a8b28d359)" d="M 72.93966 137.44456 
L 82.094736 92.839213 
L 91.249811 93.907678 
L 100.404887 94.395913 
L 109.559962 94.271102 
L 118.715038 93.030507 
L 127.870113 93.869395 
L 137.025189 93.687652 
L 146.180264 94.03348 
L 155.335339 93.918164 
L 164.490415 93.861902 
L 173.64549 92.738421 
L 182.800566 95.094852 
L 191.955641 92.733662 
L 201.110717 94.864328 
L 210.265792 93.357449 
L 219.420868 94.594059 
L 228.575943 93.905316 
L 237.731018 92.742739 
L 246.886094 96.01148 
L 256.041169 93.089496 
L 265.196245 93.888212 
L 274.35132 93.863154 
L 283.506396 92.716903 
L 292.661471 95.033044 
L 301.816547 93.875959 
L 310.971622 92.730173 
L 320.126698 95.062135 
L 329.281773 92.752434 
L 338.436848 94.814127 
L 347.591924 93.94605 
L 356.746999 94.047282 
L 365.902075 93.907928 
L 375.05715 93.856269 
L 384.212226 92.754902 
L 393.367301 95.025601 
L 402.522377 92.777205 
L 411.677452 95.023967 
L 420.832527 93.861974 
L 429.987603 93.681925 
" style="fill:none;stroke:#da8bc3;stroke-linecap:round;stroke-width:1.5;"/>
   </g>
   <g id="patch_3">
    <path d="M 55.087263 298.26 
L 55.087263 27.65625 
" style="fill:none;stroke:#ffffff;stroke-linecap:square;stroke-linejoin:miter;stroke-width:1.25;"/>
   </g>
   <g id="patch_4">
    <path d="M 447.84 298.26 
L 447.84 27.65625 
" style="fill:none;stroke:#ffffff;stroke-linecap:square;stroke-linejoin:miter;stroke-width:1.25;"/>
   </g>
   <g id="patch_5">
    <path d="M 55.087263 298.26 
L 447.84 298.26 
" style="fill:none;stroke:#ffffff;stroke-linecap:square;stroke-linejoin:miter;stroke-width:1.25;"/>
   </g>
   <g id="patch_6">
    <path d="M 55.087263 27.65625 
L 447.84 27.65625 
" style="fill:none;stroke:#ffffff;stroke-linecap:square;stroke-linejoin:miter;stroke-width:1.25;"/>
   </g>
   <g id="text_14">
    <!-- Runtime across repetition number (4096 vector size, 32 nodes) -->
    <g style="fill:#262626;" transform="translate(84.058944 21.65625)scale(0.12 -0.12)">
     <defs>
      <path d="M 2588 1216 
L 3141 1144 
Q 3050 572 2676 248 
Q 2303 -75 1759 -75 
Q 1078 -75 664 370 
Q 250 816 250 1647 
Q 250 2184 428 2587 
Q 606 2991 970 3192 
Q 1334 3394 1763 3394 
Q 2303 3394 2647 3120 
Q 2991 2847 3088 2344 
L 2541 2259 
Q 2463 2594 2264 2762 
Q 2066 2931 1784 2931 
Q 1359 2931 1093 2626 
Q 828 2322 828 1663 
Q 828 994 1084 691 
Q 1341 388 1753 388 
Q 2084 388 2306 591 
Q 2528 794 2588 1216 
z
" id="ArialMT-63" transform="scale(0.015625)"/>
      <path d="M 422 -1272 
L 422 3319 
L 934 3319 
L 934 2888 
Q 1116 3141 1344 3267 
Q 1572 3394 1897 3394 
Q 2322 3394 2647 3175 
Q 2972 2956 3137 2557 
Q 3303 2159 3303 1684 
Q 3303 1175 3120 767 
Q 2938 359 2589 142 
Q 2241 -75 1856 -75 
Q 1575 -75 1351 44 
Q 1128 163 984 344 
L 984 -1272 
L 422 -1272 
z
M 931 1641 
Q 931 1000 1190 694 
Q 1450 388 1819 388 
Q 2194 388 2461 705 
Q 2728 1022 2728 1688 
Q 2728 2322 2467 2637 
Q 2206 2953 1844 2953 
Q 1484 2953 1207 2617 
Q 931 2281 931 1641 
z
" id="ArialMT-70" transform="scale(0.015625)"/>
      <path d="M 941 0 
L 419 0 
L 419 4581 
L 981 4581 
L 981 2947 
Q 1338 3394 1891 3394 
Q 2197 3394 2470 3270 
Q 2744 3147 2920 2923 
Q 3097 2700 3197 2384 
Q 3297 2069 3297 1709 
Q 3297 856 2875 390 
Q 2453 -75 1863 -75 
Q 1275 -75 941 416 
L 941 0 
z
M 934 1684 
Q 934 1088 1097 822 
Q 1363 388 1816 388 
Q 2184 388 2453 708 
Q 2722 1028 2722 1663 
Q 2722 2313 2464 2622 
Q 2206 2931 1841 2931 
Q 1472 2931 1203 2611 
Q 934 2291 934 1684 
z
" id="ArialMT-62" transform="scale(0.015625)"/>
      <path d="M 350 1059 
L 891 1109 
Q 959 728 1153 556 
Q 1347 384 1650 384 
Q 1909 384 2104 503 
Q 2300 622 2425 820 
Q 2550 1019 2634 1356 
Q 2719 1694 2719 2044 
Q 2719 2081 2716 2156 
Q 2547 1888 2255 1720 
Q 1963 1553 1622 1553 
Q 1053 1553 659 1965 
Q 266 2378 266 3053 
Q 266 3750 677 4175 
Q 1088 4600 1706 4600 
Q 2153 4600 2523 4359 
Q 2894 4119 3086 3673 
Q 3278 3228 3278 2384 
Q 3278 1506 3087 986 
Q 2897 466 2520 194 
Q 2144 -78 1638 -78 
Q 1100 -78 759 220 
Q 419 519 350 1059 
z
M 2653 3081 
Q 2653 3566 2395 3850 
Q 2138 4134 1775 4134 
Q 1400 4134 1122 3828 
Q 844 3522 844 3034 
Q 844 2597 1108 2323 
Q 1372 2050 1759 2050 
Q 2150 2050 2401 2323 
Q 2653 2597 2653 3081 
z
" id="ArialMT-39" transform="scale(0.015625)"/>
      <path d="M 3184 3459 
L 2625 3416 
Q 2550 3747 2413 3897 
Q 2184 4138 1850 4138 
Q 1581 4138 1378 3988 
Q 1113 3794 959 3422 
Q 806 3050 800 2363 
Q 1003 2672 1297 2822 
Q 1591 2972 1913 2972 
Q 2475 2972 2870 2558 
Q 3266 2144 3266 1488 
Q 3266 1056 3080 686 
Q 2894 316 2569 119 
Q 2244 -78 1831 -78 
Q 1128 -78 684 439 
Q 241 956 241 2144 
Q 241 3472 731 4075 
Q 1159 4600 1884 4600 
Q 2425 4600 2770 4297 
Q 3116 3994 3184 3459 
z
M 888 1484 
Q 888 1194 1011 928 
Q 1134 663 1356 523 
Q 1578 384 1822 384 
Q 2178 384 2434 671 
Q 2691 959 2691 1453 
Q 2691 1928 2437 2201 
Q 2184 2475 1800 2475 
Q 1419 2475 1153 2201 
Q 888 1928 888 1484 
z
" id="ArialMT-36" transform="scale(0.015625)"/>
      <path d="M 1344 0 
L 81 3319 
L 675 3319 
L 1388 1331 
Q 1503 1009 1600 663 
Q 1675 925 1809 1294 
L 2547 3319 
L 3125 3319 
L 1869 0 
L 1344 0 
z
" id="ArialMT-76" transform="scale(0.015625)"/>
      <path d="M 125 0 
L 125 456 
L 2238 2881 
Q 1878 2863 1603 2863 
L 250 2863 
L 250 3319 
L 2963 3319 
L 2963 2947 
L 1166 841 
L 819 456 
Q 1197 484 1528 484 
L 3063 484 
L 3063 0 
L 125 0 
z
" id="ArialMT-7a" transform="scale(0.015625)"/>
      <path d="M 569 0 
L 569 641 
L 1209 641 
L 1209 0 
Q 1209 -353 1084 -570 
Q 959 -788 688 -906 
L 531 -666 
Q 709 -588 793 -436 
Q 878 -284 888 0 
L 569 0 
z
" id="ArialMT-2c" transform="scale(0.015625)"/>
      <path d="M 2575 0 
L 2575 419 
Q 2259 -75 1647 -75 
Q 1250 -75 917 144 
Q 584 363 401 755 
Q 219 1147 219 1656 
Q 219 2153 384 2558 
Q 550 2963 881 3178 
Q 1213 3394 1622 3394 
Q 1922 3394 2156 3267 
Q 2391 3141 2538 2938 
L 2538 4581 
L 3097 4581 
L 3097 0 
L 2575 0 
z
M 797 1656 
Q 797 1019 1065 703 
Q 1334 388 1700 388 
Q 2069 388 2326 689 
Q 2584 991 2584 1609 
Q 2584 2291 2321 2609 
Q 2059 2928 1675 2928 
Q 1300 2928 1048 2622 
Q 797 2316 797 1656 
z
" id="ArialMT-64" transform="scale(0.015625)"/>
     </defs>
     <use xlink:href="#ArialMT-52"/>
     <use x="72.216797" xlink:href="#ArialMT-75"/>
     <use x="127.832031" xlink:href="#ArialMT-6e"/>
     <use x="183.447266" xlink:href="#ArialMT-74"/>
     <use x="211.230469" xlink:href="#ArialMT-69"/>
     <use x="233.447266" xlink:href="#ArialMT-6d"/>
     <use x="316.748047" xlink:href="#ArialMT-65"/>
     <use x="372.363281" xlink:href="#ArialMT-20"/>
     <use x="400.146484" xlink:href="#ArialMT-61"/>
     <use x="455.761719" xlink:href="#ArialMT-63"/>
     <use x="505.761719" xlink:href="#ArialMT-72"/>
     <use x="539.0625" xlink:href="#ArialMT-6f"/>
     <use x="594.677734" xlink:href="#ArialMT-73"/>
     <use x="644.677734" xlink:href="#ArialMT-73"/>
     <use x="694.677734" xlink:href="#ArialMT-20"/>
     <use x="722.460938" xlink:href="#ArialMT-72"/>
     <use x="755.761719" xlink:href="#ArialMT-65"/>
     <use x="811.376953" xlink:href="#ArialMT-70"/>
     <use x="866.992188" xlink:href="#ArialMT-65"/>
     <use x="922.607422" xlink:href="#ArialMT-74"/>
     <use x="950.390625" xlink:href="#ArialMT-69"/>
     <use x="972.607422" xlink:href="#ArialMT-74"/>
     <use x="1000.390625" xlink:href="#ArialMT-69"/>
     <use x="1022.607422" xlink:href="#ArialMT-6f"/>
     <use x="1078.222656" xlink:href="#ArialMT-6e"/>
     <use x="1133.837891" xlink:href="#ArialMT-20"/>
     <use x="1161.621094" xlink:href="#ArialMT-6e"/>
     <use x="1217.236328" xlink:href="#ArialMT-75"/>
     <use x="1272.851562" xlink:href="#ArialMT-6d"/>
     <use x="1356.152344" xlink:href="#ArialMT-62"/>
     <use x="1411.767578" xlink:href="#ArialMT-65"/>
     <use x="1467.382812" xlink:href="#ArialMT-72"/>
     <use x="1500.683594" xlink:href="#ArialMT-20"/>
     <use x="1528.466797" xlink:href="#ArialMT-28"/>
     <use x="1561.767578" xlink:href="#ArialMT-34"/>
     <use x="1617.382812" xlink:href="#ArialMT-30"/>
     <use x="1672.998047" xlink:href="#ArialMT-39"/>
     <use x="1728.613281" xlink:href="#ArialMT-36"/>
     <use x="1784.228516" xlink:href="#ArialMT-20"/>
     <use x="1812.011719" xlink:href="#ArialMT-76"/>
     <use x="1862.011719" xlink:href="#ArialMT-65"/>
     <use x="1917.626953" xlink:href="#ArialMT-63"/>
     <use x="1967.626953" xlink:href="#ArialMT-74"/>
     <use x="1995.410156" xlink:href="#ArialMT-6f"/>
     <use x="2051.025391" xlink:href="#ArialMT-72"/>
     <use x="2084.326172" xlink:href="#ArialMT-20"/>
     <use x="2112.109375" xlink:href="#ArialMT-73"/>
     <use x="2162.109375" xlink:href="#ArialMT-69"/>
     <use x="2184.326172" xlink:href="#ArialMT-7a"/>
     <use x="2234.326172" xlink:href="#ArialMT-65"/>
     <use x="2289.941406" xlink:href="#ArialMT-2c"/>
     <use x="2317.724609" xlink:href="#ArialMT-20"/>
     <use x="2345.507812" xlink:href="#ArialMT-33"/>
     <use x="2401.123047" xlink:href="#ArialMT-32"/>
     <use x="2456.738281" xlink:href="#ArialMT-20"/>
     <use x="2484.521484" xlink:href="#ArialMT-6e"/>
     <use x="2540.136719" xlink:href="#ArialMT-6f"/>
     <use x="2595.751953" xlink:href="#ArialMT-64"/>
     <use x="2651.367188" xlink:href="#ArialMT-65"/>
     <use x="2706.982422" xlink:href="#ArialMT-73"/>
     <use x="2756.982422" xlink:href="#ArialMT-29"/>
    </g>
   </g>
   <g id="legend_1">
    <g id="patch_7">
     <path d="M 62.787263 292.76 
L 207.430388 292.76 
Q 209.630388 292.76 209.630388 290.56 
L 209.630388 165.354062 
Q 209.630388 163.154062 207.430388 163.154062 
L 62.787263 163.154062 
Q 60.587263 163.154062 60.587263 165.354062 
L 60.587263 290.56 
Q 60.587263 292.76 62.787263 292.76 
z
" style="fill:#eaeaf2;opacity:0.8;stroke:#cccccc;stroke-linejoin:miter;"/>
    </g>
    <g id="text_15">
     <!-- implementation -->
     <g style="fill:#262626;" transform="translate(94.424138 176.143437)scale(0.12 -0.12)">
      <defs>
       <path d="M 409 0 
L 409 4581 
L 972 4581 
L 972 0 
L 409 0 
z
" id="ArialMT-6c" transform="scale(0.015625)"/>
      </defs>
      <use xlink:href="#ArialMT-69"/>
      <use x="22.216797" xlink:href="#ArialMT-6d"/>
      <use x="105.517578" xlink:href="#ArialMT-70"/>
      <use x="161.132812" xlink:href="#ArialMT-6c"/>
      <use x="183.349609" xlink:href="#ArialMT-65"/>
      <use x="238.964844" xlink:href="#ArialMT-6d"/>
      <use x="322.265625" xlink:href="#ArialMT-65"/>
      <use x="377.880859" xlink:href="#ArialMT-6e"/>
      <use x="433.496094" xlink:href="#ArialMT-74"/>
      <use x="461.279297" xlink:href="#ArialMT-61"/>
      <use x="516.894531" xlink:href="#ArialMT-74"/>
      <use x="544.677734" xlink:href="#ArialMT-69"/>
      <use x="566.894531" xlink:href="#ArialMT-6f"/>
      <use x="622.509766" xlink:href="#ArialMT-6e"/>
     </g>
    </g>
    <g id="line2d_19">
     <path d="M 64.987263 188.052031 
L 86.987263 188.052031 
" style="fill:none;stroke:#4c72b0;stroke-linecap:round;stroke-width:1.5;"/>
    </g>
    <g id="line2d_20"/>
    <g id="text_16">
     <!-- allgather -->
     <g style="fill:#262626;" transform="translate(95.787263 191.902031)scale(0.11 -0.11)">
      <defs>
       <path d="M 319 -275 
L 866 -356 
Q 900 -609 1056 -725 
Q 1266 -881 1628 -881 
Q 2019 -881 2231 -725 
Q 2444 -569 2519 -288 
Q 2563 -116 2559 434 
Q 2191 0 1641 0 
Q 956 0 581 494 
Q 206 988 206 1678 
Q 206 2153 378 2554 
Q 550 2956 876 3175 
Q 1203 3394 1644 3394 
Q 2231 3394 2613 2919 
L 2613 3319 
L 3131 3319 
L 3131 450 
Q 3131 -325 2973 -648 
Q 2816 -972 2473 -1159 
Q 2131 -1347 1631 -1347 
Q 1038 -1347 672 -1080 
Q 306 -813 319 -275 
z
M 784 1719 
Q 784 1066 1043 766 
Q 1303 466 1694 466 
Q 2081 466 2343 764 
Q 2606 1063 2606 1700 
Q 2606 2309 2336 2618 
Q 2066 2928 1684 2928 
Q 1309 2928 1046 2623 
Q 784 2319 784 1719 
z
" id="ArialMT-67" transform="scale(0.015625)"/>
       <path d="M 422 0 
L 422 4581 
L 984 4581 
L 984 2938 
Q 1378 3394 1978 3394 
Q 2347 3394 2619 3248 
Q 2891 3103 3008 2847 
Q 3125 2591 3125 2103 
L 3125 0 
L 2563 0 
L 2563 2103 
Q 2563 2525 2380 2717 
Q 2197 2909 1863 2909 
Q 1613 2909 1392 2779 
Q 1172 2650 1078 2428 
Q 984 2206 984 1816 
L 984 0 
L 422 0 
z
" id="ArialMT-68" transform="scale(0.015625)"/>
      </defs>
      <use xlink:href="#ArialMT-61"/>
      <use x="55.615234" xlink:href="#ArialMT-6c"/>
      <use x="77.832031" xlink:href="#ArialMT-6c"/>
      <use x="100.048828" xlink:href="#ArialMT-67"/>
      <use x="155.664062" xlink:href="#ArialMT-61"/>
      <use x="211.279297" xlink:href="#ArialMT-74"/>
      <use x="239.0625" xlink:href="#ArialMT-68"/>
      <use x="294.677734" xlink:href="#ArialMT-65"/>
      <use x="350.292969" xlink:href="#ArialMT-72"/>
     </g>
    </g>
    <g id="line2d_21">
     <path d="M 64.987263 203.740781 
L 86.987263 203.740781 
" style="fill:none;stroke:#dd8452;stroke-linecap:round;stroke-width:1.5;"/>
    </g>
    <g id="line2d_22"/>
    <g id="text_17">
     <!-- allgather-async -->
     <g style="fill:#262626;" transform="translate(95.787263 207.590781)scale(0.11 -0.11)">
      <defs>
       <path d="M 203 1375 
L 203 1941 
L 1931 1941 
L 1931 1375 
L 203 1375 
z
" id="ArialMT-2d" transform="scale(0.015625)"/>
       <path d="M 397 -1278 
L 334 -750 
Q 519 -800 656 -800 
Q 844 -800 956 -737 
Q 1069 -675 1141 -563 
Q 1194 -478 1313 -144 
Q 1328 -97 1363 -6 
L 103 3319 
L 709 3319 
L 1400 1397 
Q 1534 1031 1641 628 
Q 1738 1016 1872 1384 
L 2581 3319 
L 3144 3319 
L 1881 -56 
Q 1678 -603 1566 -809 
Q 1416 -1088 1222 -1217 
Q 1028 -1347 759 -1347 
Q 597 -1347 397 -1278 
z
" id="ArialMT-79" transform="scale(0.015625)"/>
      </defs>
      <use xlink:href="#ArialMT-61"/>
      <use x="55.615234" xlink:href="#ArialMT-6c"/>
      <use x="77.832031" xlink:href="#ArialMT-6c"/>
      <use x="100.048828" xlink:href="#ArialMT-67"/>
      <use x="155.664062" xlink:href="#ArialMT-61"/>
      <use x="211.279297" xlink:href="#ArialMT-74"/>
      <use x="239.0625" xlink:href="#ArialMT-68"/>
      <use x="294.677734" xlink:href="#ArialMT-65"/>
      <use x="350.292969" xlink:href="#ArialMT-72"/>
      <use x="383.59375" xlink:href="#ArialMT-2d"/>
      <use x="416.894531" xlink:href="#ArialMT-61"/>
      <use x="472.509766" xlink:href="#ArialMT-73"/>
      <use x="522.509766" xlink:href="#ArialMT-79"/>
      <use x="572.509766" xlink:href="#ArialMT-6e"/>
      <use x="628.125" xlink:href="#ArialMT-63"/>
     </g>
    </g>
    <g id="line2d_23">
     <path d="M 64.987263 219.429531 
L 86.987263 219.429531 
" style="fill:none;stroke:#55a868;stroke-linecap:round;stroke-width:1.5;"/>
    </g>
    <g id="line2d_24"/>
    <g id="text_18">
     <!-- allreduce -->
     <g style="fill:#262626;" transform="translate(95.787263 223.279531)scale(0.11 -0.11)">
      <use xlink:href="#ArialMT-61"/>
      <use x="55.615234" xlink:href="#ArialMT-6c"/>
      <use x="77.832031" xlink:href="#ArialMT-6c"/>
      <use x="100.048828" xlink:href="#ArialMT-72"/>
      <use x="133.349609" xlink:href="#ArialMT-65"/>
      <use x="188.964844" xlink:href="#ArialMT-64"/>
      <use x="244.580078" xlink:href="#ArialMT-75"/>
      <use x="300.195312" xlink:href="#ArialMT-63"/>
      <use x="350.195312" xlink:href="#ArialMT-65"/>
     </g>
    </g>
    <g id="line2d_25">
     <path d="M 64.987263 235.123437 
L 86.987263 235.123437 
" style="fill:none;stroke:#c44e52;stroke-linecap:round;stroke-width:1.5;"/>
    </g>
    <g id="line2d_26"/>
    <g id="text_19">
     <!-- allreduce-butterfly -->
     <g style="fill:#262626;" transform="translate(95.787263 238.973437)scale(0.11 -0.11)">
      <defs>
       <path d="M 556 0 
L 556 2881 
L 59 2881 
L 59 3319 
L 556 3319 
L 556 3672 
Q 556 4006 616 4169 
Q 697 4388 901 4523 
Q 1106 4659 1475 4659 
Q 1713 4659 2000 4603 
L 1916 4113 
Q 1741 4144 1584 4144 
Q 1328 4144 1222 4034 
Q 1116 3925 1116 3625 
L 1116 3319 
L 1763 3319 
L 1763 2881 
L 1116 2881 
L 1116 0 
L 556 0 
z
" id="ArialMT-66" transform="scale(0.015625)"/>
      </defs>
      <use xlink:href="#ArialMT-61"/>
      <use x="55.615234" xlink:href="#ArialMT-6c"/>
      <use x="77.832031" xlink:href="#ArialMT-6c"/>
      <use x="100.048828" xlink:href="#ArialMT-72"/>
      <use x="133.349609" xlink:href="#ArialMT-65"/>
      <use x="188.964844" xlink:href="#ArialMT-64"/>
      <use x="244.580078" xlink:href="#ArialMT-75"/>
      <use x="300.195312" xlink:href="#ArialMT-63"/>
      <use x="350.195312" xlink:href="#ArialMT-65"/>
      <use x="405.810547" xlink:href="#ArialMT-2d"/>
      <use x="439.111328" xlink:href="#ArialMT-62"/>
      <use x="494.726562" xlink:href="#ArialMT-75"/>
      <use x="550.341797" xlink:href="#ArialMT-74"/>
      <use x="578.125" xlink:href="#ArialMT-74"/>
      <use x="605.908203" xlink:href="#ArialMT-65"/>
      <use x="661.523438" xlink:href="#ArialMT-72"/>
      <use x="694.824219" xlink:href="#ArialMT-66"/>
      <use x="722.607422" xlink:href="#ArialMT-6c"/>
      <use x="744.824219" xlink:href="#ArialMT-79"/>
     </g>
    </g>
    <g id="line2d_27">
     <path d="M 64.987263 250.812188 
L 86.987263 250.812188 
" style="fill:none;stroke:#8172b3;stroke-linecap:round;stroke-width:1.5;"/>
    </g>
    <g id="line2d_28"/>
    <g id="text_20">
     <!-- allreduce-rabenseifner -->
     <g style="fill:#262626;" transform="translate(95.787263 254.662188)scale(0.11 -0.11)">
      <use xlink:href="#ArialMT-61"/>
      <use x="55.615234" xlink:href="#ArialMT-6c"/>
      <use x="77.832031" xlink:href="#ArialMT-6c"/>
      <use x="100.048828" xlink:href="#ArialMT-72"/>
      <use x="133.349609" xlink:href="#ArialMT-65"/>
      <use x="188.964844" xlink:href="#ArialMT-64"/>
      <use x="244.580078" xlink:href="#ArialMT-75"/>
      <use x="300.195312" xlink:href="#ArialMT-63"/>
      <use x="350.195312" xlink:href="#ArialMT-65"/>
      <use x="405.810547" xlink:href="#ArialMT-2d"/>
      <use x="439.111328" xlink:href="#ArialMT-72"/>
      <use x="472.412109" xlink:href="#ArialMT-61"/>
      <use x="528.027344" xlink:href="#ArialMT-62"/>
      <use x="583.642578" xlink:href="#ArialMT-65"/>
      <use x="639.257812" xlink:href="#ArialMT-6e"/>
      <use x="694.873047" xlink:href="#ArialMT-73"/>
      <use x="744.873047" xlink:href="#ArialMT-65"/>
      <use x="800.488281" xlink:href="#ArialMT-69"/>
      <use x="822.705078" xlink:href="#ArialMT-66"/>
      <use x="850.488281" xlink:href="#ArialMT-6e"/>
      <use x="906.103516" xlink:href="#ArialMT-65"/>
      <use x="961.71875" xlink:href="#ArialMT-72"/>
     </g>
    </g>
    <g id="line2d_29">
     <path d="M 64.987263 266.372031 
L 86.987263 266.372031 
" style="fill:none;stroke:#937860;stroke-linecap:round;stroke-width:1.5;"/>
    </g>
    <g id="line2d_30"/>
    <g id="text_21">
     <!-- allreduce-ring -->
     <g style="fill:#262626;" transform="translate(95.787263 270.222031)scale(0.11 -0.11)">
      <use xlink:href="#ArialMT-61"/>
      <use x="55.615234" xlink:href="#ArialMT-6c"/>
      <use x="77.832031" xlink:href="#ArialMT-6c"/>
      <use x="100.048828" xlink:href="#ArialMT-72"/>
      <use x="133.349609" xlink:href="#ArialMT-65"/>
      <use x="188.964844" xlink:href="#ArialMT-64"/>
      <use x="244.580078" xlink:href="#ArialMT-75"/>
      <use x="300.195312" xlink:href="#ArialMT-63"/>
      <use x="350.195312" xlink:href="#ArialMT-65"/>
      <use x="405.810547" xlink:href="#ArialMT-2d"/>
      <use x="439.111328" xlink:href="#ArialMT-72"/>
      <use x="472.412109" xlink:href="#ArialMT-69"/>
      <use x="494.628906" xlink:href="#ArialMT-6e"/>
      <use x="550.244141" xlink:href="#ArialMT-67"/>
     </g>
    </g>
    <g id="line2d_31">
     <path d="M 64.987263 282.194844 
L 86.987263 282.194844 
" style="fill:none;stroke:#da8bc3;stroke-linecap:round;stroke-width:1.5;"/>
    </g>
    <g id="line2d_32"/>
    <g id="text_22">
     <!-- rabenseifner-gather -->
     <g style="fill:#262626;" transform="translate(95.787263 286.044844)scale(0.11 -0.11)">
      <use xlink:href="#ArialMT-72"/>
      <use x="33.300781" xlink:href="#ArialMT-61"/>
      <use x="88.916016" xlink:href="#ArialMT-62"/>
      <use x="144.53125" xlink:href="#ArialMT-65"/>
      <use x="200.146484" xlink:href="#ArialMT-6e"/>
      <use x="255.761719" xlink:href="#ArialMT-73"/>
      <use x="305.761719" xlink:href="#ArialMT-65"/>
      <use x="361.376953" xlink:href="#ArialMT-69"/>
      <use x="383.59375" xlink:href="#ArialMT-66"/>
      <use x="411.376953" xlink:href="#ArialMT-6e"/>
      <use x="466.992188" xlink:href="#ArialMT-65"/>
      <use x="522.607422" xlink:href="#ArialMT-72"/>
      <use x="555.908203" xlink:href="#ArialMT-2d"/>
      <use x="589.208984" xlink:href="#ArialMT-67"/>
      <use x="644.824219" xlink:href="#ArialMT-61"/>
      <use x="700.439453" xlink:href="#ArialMT-74"/>
      <use x="728.222656" xlink:href="#ArialMT-68"/>
      <use x="783.837891" xlink:href="#ArialMT-65"/>
      <use x="839.453125" xlink:href="#ArialMT-72"/>
     </g>
    </g>
   </g>
  </g>
 </g>
 <defs>
  <clipPath id="p3a8b28d359">
   <rect height="270.60375" width="392.752737" x="55.087263" y="27.65625"/>
  </clipPath>
 </defs>
</svg>
