<?xml version="1.0" encoding="utf-8" standalone="no"?>
<!DOCTYPE svg PUBLIC "-//W3C//DTD SVG 1.1//EN"
  "http://www.w3.org/Graphics/SVG/1.1/DTD/svg11.dtd">
<svg height="345.6pt" version="1.1" viewBox="0 0 460.8 345.6" width="460.8pt" xmlns="http://www.w3.org/2000/svg" xmlns:xlink="http://www.w3.org/1999/xlink">
 <metadata>
  <rdf:RDF xmlns:cc="http://creativecommons.org/ns#" xmlns:dc="http://purl.org/dc/elements/1.1/" xmlns:rdf="http://www.w3.org/1999/02/22-rdf-syntax-ns#">
   <cc:Work>
    <dc:type rdf:resource="http://purl.org/dc/dcmitype/StillImage"/>
    <dc:date>2021-11-13T18:51:45.374531</dc:date>
    <dc:format>image/svg+xml</dc:format>
    <dc:creator>
     <cc:Agent>
      <dc:title>Matplotlib v3.4.3, https://matplotlib.org/</dc:title>
     </cc:Agent>
    </dc:creator>
   </cc:Work>
  </rdf:RDF>
 </metadata>
 <defs>
  <style type="text/css">*{stroke-linecap:butt;stroke-linejoin:round;}</style>
 </defs>
 <g id="figure_1">
  <g id="patch_1">
   <path d="M 0 345.6 
L 460.8 345.6 
L 460.8 0 
L 0 0 
z
" style="fill:#ffffff;"/>
  </g>
  <g id="axes_1">
   <g id="patch_2">
    <path d="M 47.72 303.64 
L 450 303.64 
L 450 26.88 
L 47.72 26.88 
z
" style="fill:#ffffff;"/>
   </g>
   <g id="matplotlib.axis_1">
    <g id="xtick_1">
     <g id="line2d_1">
      <defs>
       <path d="M 0 0 
L 0 3.5 
" id="m2313d0b91a" style="stroke:#000000;stroke-width:0.8;"/>
      </defs>
      <g>
       <use style="stroke:#000000;stroke-width:0.8;" x="56.628298" xlink:href="#m2313d0b91a" y="303.64"/>
      </g>
     </g>
     <g id="text_1">
      <!-- 0 -->
      <g transform="translate(53.447048 318.238437)scale(0.1 -0.1)">
       <defs>
        <path d="M 2034 4250 
Q 1547 4250 1301 3770 
Q 1056 3291 1056 2328 
Q 1056 1369 1301 889 
Q 1547 409 2034 409 
Q 2525 409 2770 889 
Q 3016 1369 3016 2328 
Q 3016 3291 2770 3770 
Q 2525 4250 2034 4250 
z
M 2034 4750 
Q 2819 4750 3233 4129 
Q 3647 3509 3647 2328 
Q 3647 1150 3233 529 
Q 2819 -91 2034 -91 
Q 1250 -91 836 529 
Q 422 1150 422 2328 
Q 422 3509 836 4129 
Q 1250 4750 2034 4750 
z
" id="DejaVuSans-30" transform="scale(0.015625)"/>
       </defs>
       <use xlink:href="#DejaVuSans-30"/>
      </g>
     </g>
    </g>
    <g id="xtick_2">
     <g id="line2d_2">
      <g>
       <use style="stroke:#000000;stroke-width:0.8;" x="103.514079" xlink:href="#m2313d0b91a" y="303.64"/>
      </g>
     </g>
     <g id="text_2">
      <!-- 5 -->
      <g transform="translate(100.332829 318.238437)scale(0.1 -0.1)">
       <defs>
        <path d="M 691 4666 
L 3169 4666 
L 3169 4134 
L 1269 4134 
L 1269 2991 
Q 1406 3038 1543 3061 
Q 1681 3084 1819 3084 
Q 2600 3084 3056 2656 
Q 3513 2228 3513 1497 
Q 3513 744 3044 326 
Q 2575 -91 1722 -91 
Q 1428 -91 1123 -41 
Q 819 9 494 109 
L 494 744 
Q 775 591 1075 516 
Q 1375 441 1709 441 
Q 2250 441 2565 725 
Q 2881 1009 2881 1497 
Q 2881 1984 2565 2268 
Q 2250 2553 1709 2553 
Q 1456 2553 1204 2497 
Q 953 2441 691 2322 
L 691 4666 
z
" id="DejaVuSans-35" transform="scale(0.015625)"/>
       </defs>
       <use xlink:href="#DejaVuSans-35"/>
      </g>
     </g>
    </g>
    <g id="xtick_3">
     <g id="line2d_3">
      <g>
       <use style="stroke:#000000;stroke-width:0.8;" x="150.39986" xlink:href="#m2313d0b91a" y="303.64"/>
      </g>
     </g>
     <g id="text_3">
      <!-- 10 -->
      <g transform="translate(144.03736 318.238437)scale(0.1 -0.1)">
       <defs>
        <path d="M 794 531 
L 1825 531 
L 1825 4091 
L 703 3866 
L 703 4441 
L 1819 4666 
L 2450 4666 
L 2450 531 
L 3481 531 
L 3481 0 
L 794 0 
L 794 531 
z
" id="DejaVuSans-31" transform="scale(0.015625)"/>
       </defs>
       <use xlink:href="#DejaVuSans-31"/>
       <use x="63.623047" xlink:href="#DejaVuSans-30"/>
      </g>
     </g>
    </g>
    <g id="xtick_4">
     <g id="line2d_4">
      <g>
       <use style="stroke:#000000;stroke-width:0.8;" x="197.285641" xlink:href="#m2313d0b91a" y="303.64"/>
      </g>
     </g>
     <g id="text_4">
      <!-- 15 -->
      <g transform="translate(190.923141 318.238437)scale(0.1 -0.1)">
       <use xlink:href="#DejaVuSans-31"/>
       <use x="63.623047" xlink:href="#DejaVuSans-35"/>
      </g>
     </g>
    </g>
    <g id="xtick_5">
     <g id="line2d_5">
      <g>
       <use style="stroke:#000000;stroke-width:0.8;" x="244.171422" xlink:href="#m2313d0b91a" y="303.64"/>
      </g>
     </g>
     <g id="text_5">
      <!-- 20 -->
      <g transform="translate(237.808922 318.238437)scale(0.1 -0.1)">
       <defs>
        <path d="M 1228 531 
L 3431 531 
L 3431 0 
L 469 0 
L 469 531 
Q 828 903 1448 1529 
Q 2069 2156 2228 2338 
Q 2531 2678 2651 2914 
Q 2772 3150 2772 3378 
Q 2772 3750 2511 3984 
Q 2250 4219 1831 4219 
Q 1534 4219 1204 4116 
Q 875 4013 500 3803 
L 500 4441 
Q 881 4594 1212 4672 
Q 1544 4750 1819 4750 
Q 2544 4750 2975 4387 
Q 3406 4025 3406 3419 
Q 3406 3131 3298 2873 
Q 3191 2616 2906 2266 
Q 2828 2175 2409 1742 
Q 1991 1309 1228 531 
z
" id="DejaVuSans-32" transform="scale(0.015625)"/>
       </defs>
       <use xlink:href="#DejaVuSans-32"/>
       <use x="63.623047" xlink:href="#DejaVuSans-30"/>
      </g>
     </g>
    </g>
    <g id="xtick_6">
     <g id="line2d_6">
      <g>
       <use style="stroke:#000000;stroke-width:0.8;" x="291.057203" xlink:href="#m2313d0b91a" y="303.64"/>
      </g>
     </g>
     <g id="text_6">
      <!-- 25 -->
      <g transform="translate(284.694703 318.238437)scale(0.1 -0.1)">
       <use xlink:href="#DejaVuSans-32"/>
       <use x="63.623047" xlink:href="#DejaVuSans-35"/>
      </g>
     </g>
    </g>
    <g id="xtick_7">
     <g id="line2d_7">
      <g>
       <use style="stroke:#000000;stroke-width:0.8;" x="337.942984" xlink:href="#m2313d0b91a" y="303.64"/>
      </g>
     </g>
     <g id="text_7">
      <!-- 30 -->
      <g transform="translate(331.580484 318.238437)scale(0.1 -0.1)">
       <defs>
        <path d="M 2597 2516 
Q 3050 2419 3304 2112 
Q 3559 1806 3559 1356 
Q 3559 666 3084 287 
Q 2609 -91 1734 -91 
Q 1441 -91 1130 -33 
Q 819 25 488 141 
L 488 750 
Q 750 597 1062 519 
Q 1375 441 1716 441 
Q 2309 441 2620 675 
Q 2931 909 2931 1356 
Q 2931 1769 2642 2001 
Q 2353 2234 1838 2234 
L 1294 2234 
L 1294 2753 
L 1863 2753 
Q 2328 2753 2575 2939 
Q 2822 3125 2822 3475 
Q 2822 3834 2567 4026 
Q 2313 4219 1838 4219 
Q 1578 4219 1281 4162 
Q 984 4106 628 3988 
L 628 4550 
Q 988 4650 1302 4700 
Q 1616 4750 1894 4750 
Q 2613 4750 3031 4423 
Q 3450 4097 3450 3541 
Q 3450 3153 3228 2886 
Q 3006 2619 2597 2516 
z
" id="DejaVuSans-33" transform="scale(0.015625)"/>
       </defs>
       <use xlink:href="#DejaVuSans-33"/>
       <use x="63.623047" xlink:href="#DejaVuSans-30"/>
      </g>
     </g>
    </g>
    <g id="xtick_8">
     <g id="line2d_8">
      <g>
       <use style="stroke:#000000;stroke-width:0.8;" x="384.828765" xlink:href="#m2313d0b91a" y="303.64"/>
      </g>
     </g>
     <g id="text_8">
      <!-- 35 -->
      <g transform="translate(378.466265 318.238437)scale(0.1 -0.1)">
       <use xlink:href="#DejaVuSans-33"/>
       <use x="63.623047" xlink:href="#DejaVuSans-35"/>
      </g>
     </g>
    </g>
    <g id="xtick_9">
     <g id="line2d_9">
      <g>
       <use style="stroke:#000000;stroke-width:0.8;" x="431.714545" xlink:href="#m2313d0b91a" y="303.64"/>
      </g>
     </g>
     <g id="text_9">
      <!-- 40 -->
      <g transform="translate(425.352045 318.238437)scale(0.1 -0.1)">
       <defs>
        <path d="M 2419 4116 
L 825 1625 
L 2419 1625 
L 2419 4116 
z
M 2253 4666 
L 3047 4666 
L 3047 1625 
L 3713 1625 
L 3713 1100 
L 3047 1100 
L 3047 0 
L 2419 0 
L 2419 1100 
L 313 1100 
L 313 1709 
L 2253 4666 
z
" id="DejaVuSans-34" transform="scale(0.015625)"/>
       </defs>
       <use xlink:href="#DejaVuSans-34"/>
       <use x="63.623047" xlink:href="#DejaVuSans-30"/>
      </g>
     </g>
    </g>
    <g id="text_10">
     <!-- Iteration -->
     <g transform="translate(227.651406 331.916562)scale(0.1 -0.1)">
      <defs>
       <path d="M 628 4666 
L 1259 4666 
L 1259 0 
L 628 0 
L 628 4666 
z
" id="DejaVuSans-49" transform="scale(0.015625)"/>
       <path d="M 1172 4494 
L 1172 3500 
L 2356 3500 
L 2356 3053 
L 1172 3053 
L 1172 1153 
Q 1172 725 1289 603 
Q 1406 481 1766 481 
L 2356 481 
L 2356 0 
L 1766 0 
Q 1100 0 847 248 
Q 594 497 594 1153 
L 594 3053 
L 172 3053 
L 172 3500 
L 594 3500 
L 594 4494 
L 1172 4494 
z
" id="DejaVuSans-74" transform="scale(0.015625)"/>
       <path d="M 3597 1894 
L 3597 1613 
L 953 1613 
Q 991 1019 1311 708 
Q 1631 397 2203 397 
Q 2534 397 2845 478 
Q 3156 559 3463 722 
L 3463 178 
Q 3153 47 2828 -22 
Q 2503 -91 2169 -91 
Q 1331 -91 842 396 
Q 353 884 353 1716 
Q 353 2575 817 3079 
Q 1281 3584 2069 3584 
Q 2775 3584 3186 3129 
Q 3597 2675 3597 1894 
z
M 3022 2063 
Q 3016 2534 2758 2815 
Q 2500 3097 2075 3097 
Q 1594 3097 1305 2825 
Q 1016 2553 972 2059 
L 3022 2063 
z
" id="DejaVuSans-65" transform="scale(0.015625)"/>
       <path d="M 2631 2963 
Q 2534 3019 2420 3045 
Q 2306 3072 2169 3072 
Q 1681 3072 1420 2755 
Q 1159 2438 1159 1844 
L 1159 0 
L 581 0 
L 581 3500 
L 1159 3500 
L 1159 2956 
Q 1341 3275 1631 3429 
Q 1922 3584 2338 3584 
Q 2397 3584 2469 3576 
Q 2541 3569 2628 3553 
L 2631 2963 
z
" id="DejaVuSans-72" transform="scale(0.015625)"/>
       <path d="M 2194 1759 
Q 1497 1759 1228 1600 
Q 959 1441 959 1056 
Q 959 750 1161 570 
Q 1363 391 1709 391 
Q 2188 391 2477 730 
Q 2766 1069 2766 1631 
L 2766 1759 
L 2194 1759 
z
M 3341 1997 
L 3341 0 
L 2766 0 
L 2766 531 
Q 2569 213 2275 61 
Q 1981 -91 1556 -91 
Q 1019 -91 701 211 
Q 384 513 384 1019 
Q 384 1609 779 1909 
Q 1175 2209 1959 2209 
L 2766 2209 
L 2766 2266 
Q 2766 2663 2505 2880 
Q 2244 3097 1772 3097 
Q 1472 3097 1187 3025 
Q 903 2953 641 2809 
L 641 3341 
Q 956 3463 1253 3523 
Q 1550 3584 1831 3584 
Q 2591 3584 2966 3190 
Q 3341 2797 3341 1997 
z
" id="DejaVuSans-61" transform="scale(0.015625)"/>
       <path d="M 603 3500 
L 1178 3500 
L 1178 0 
L 603 0 
L 603 3500 
z
M 603 4863 
L 1178 4863 
L 1178 4134 
L 603 4134 
L 603 4863 
z
" id="DejaVuSans-69" transform="scale(0.015625)"/>
       <path d="M 1959 3097 
Q 1497 3097 1228 2736 
Q 959 2375 959 1747 
Q 959 1119 1226 758 
Q 1494 397 1959 397 
Q 2419 397 2687 759 
Q 2956 1122 2956 1747 
Q 2956 2369 2687 2733 
Q 2419 3097 1959 3097 
z
M 1959 3584 
Q 2709 3584 3137 3096 
Q 3566 2609 3566 1747 
Q 3566 888 3137 398 
Q 2709 -91 1959 -91 
Q 1206 -91 779 398 
Q 353 888 353 1747 
Q 353 2609 779 3096 
Q 1206 3584 1959 3584 
z
" id="DejaVuSans-6f" transform="scale(0.015625)"/>
       <path d="M 3513 2113 
L 3513 0 
L 2938 0 
L 2938 2094 
Q 2938 2591 2744 2837 
Q 2550 3084 2163 3084 
Q 1697 3084 1428 2787 
Q 1159 2491 1159 1978 
L 1159 0 
L 581 0 
L 581 3500 
L 1159 3500 
L 1159 2956 
Q 1366 3272 1645 3428 
Q 1925 3584 2291 3584 
Q 2894 3584 3203 3211 
Q 3513 2838 3513 2113 
z
" id="DejaVuSans-6e" transform="scale(0.015625)"/>
      </defs>
      <use xlink:href="#DejaVuSans-49"/>
      <use x="29.492188" xlink:href="#DejaVuSans-74"/>
      <use x="68.701172" xlink:href="#DejaVuSans-65"/>
      <use x="130.224609" xlink:href="#DejaVuSans-72"/>
      <use x="171.337891" xlink:href="#DejaVuSans-61"/>
      <use x="232.617188" xlink:href="#DejaVuSans-74"/>
      <use x="271.826172" xlink:href="#DejaVuSans-69"/>
      <use x="299.609375" xlink:href="#DejaVuSans-6f"/>
      <use x="360.791016" xlink:href="#DejaVuSans-6e"/>
     </g>
    </g>
   </g>
   <g id="matplotlib.axis_2">
    <g id="ytick_1">
     <g id="line2d_10">
      <defs>
       <path d="M 0 0 
L -3.5 0 
" id="m791e76fd41" style="stroke:#000000;stroke-width:0.8;"/>
      </defs>
      <g>
       <use style="stroke:#000000;stroke-width:0.8;" x="47.72" xlink:href="#m791e76fd41" y="297.939599"/>
      </g>
     </g>
     <g id="text_11">
      <!-- 0.1 -->
      <g transform="translate(24.816875 301.738818)scale(0.1 -0.1)">
       <defs>
        <path d="M 684 794 
L 1344 794 
L 1344 0 
L 684 0 
L 684 794 
z
" id="DejaVuSans-2e" transform="scale(0.015625)"/>
       </defs>
       <use xlink:href="#DejaVuSans-30"/>
       <use x="63.623047" xlink:href="#DejaVuSans-2e"/>
       <use x="95.410156" xlink:href="#DejaVuSans-31"/>
      </g>
     </g>
    </g>
    <g id="ytick_2">
     <g id="line2d_11">
      <g>
       <use style="stroke:#000000;stroke-width:0.8;" x="47.72" xlink:href="#m791e76fd41" y="250.831963"/>
      </g>
     </g>
     <g id="text_12">
      <!-- 0.2 -->
      <g transform="translate(24.816875 254.631182)scale(0.1 -0.1)">
       <use xlink:href="#DejaVuSans-30"/>
       <use x="63.623047" xlink:href="#DejaVuSans-2e"/>
       <use x="95.410156" xlink:href="#DejaVuSans-32"/>
      </g>
     </g>
    </g>
    <g id="ytick_3">
     <g id="line2d_12">
      <g>
       <use style="stroke:#000000;stroke-width:0.8;" x="47.72" xlink:href="#m791e76fd41" y="203.724327"/>
      </g>
     </g>
     <g id="text_13">
      <!-- 0.3 -->
      <g transform="translate(24.816875 207.523546)scale(0.1 -0.1)">
       <use xlink:href="#DejaVuSans-30"/>
       <use x="63.623047" xlink:href="#DejaVuSans-2e"/>
       <use x="95.410156" xlink:href="#DejaVuSans-33"/>
      </g>
     </g>
    </g>
    <g id="ytick_4">
     <g id="line2d_13">
      <g>
       <use style="stroke:#000000;stroke-width:0.8;" x="47.72" xlink:href="#m791e76fd41" y="156.616691"/>
      </g>
     </g>
     <g id="text_14">
      <!-- 0.4 -->
      <g transform="translate(24.816875 160.41591)scale(0.1 -0.1)">
       <use xlink:href="#DejaVuSans-30"/>
       <use x="63.623047" xlink:href="#DejaVuSans-2e"/>
       <use x="95.410156" xlink:href="#DejaVuSans-34"/>
      </g>
     </g>
    </g>
    <g id="ytick_5">
     <g id="line2d_14">
      <g>
       <use style="stroke:#000000;stroke-width:0.8;" x="47.72" xlink:href="#m791e76fd41" y="109.509055"/>
      </g>
     </g>
     <g id="text_15">
      <!-- 0.5 -->
      <g transform="translate(24.816875 113.308274)scale(0.1 -0.1)">
       <use xlink:href="#DejaVuSans-30"/>
       <use x="63.623047" xlink:href="#DejaVuSans-2e"/>
       <use x="95.410156" xlink:href="#DejaVuSans-35"/>
      </g>
     </g>
    </g>
    <g id="ytick_6">
     <g id="line2d_15">
      <g>
       <use style="stroke:#000000;stroke-width:0.8;" x="47.72" xlink:href="#m791e76fd41" y="62.401419"/>
      </g>
     </g>
     <g id="text_16">
      <!-- 0.6 -->
      <g transform="translate(24.816875 66.200638)scale(0.1 -0.1)">
       <defs>
        <path d="M 2113 2584 
Q 1688 2584 1439 2293 
Q 1191 2003 1191 1497 
Q 1191 994 1439 701 
Q 1688 409 2113 409 
Q 2538 409 2786 701 
Q 3034 994 3034 1497 
Q 3034 2003 2786 2293 
Q 2538 2584 2113 2584 
z
M 3366 4563 
L 3366 3988 
Q 3128 4100 2886 4159 
Q 2644 4219 2406 4219 
Q 1781 4219 1451 3797 
Q 1122 3375 1075 2522 
Q 1259 2794 1537 2939 
Q 1816 3084 2150 3084 
Q 2853 3084 3261 2657 
Q 3669 2231 3669 1497 
Q 3669 778 3244 343 
Q 2819 -91 2113 -91 
Q 1303 -91 875 529 
Q 447 1150 447 2328 
Q 447 3434 972 4092 
Q 1497 4750 2381 4750 
Q 2619 4750 2861 4703 
Q 3103 4656 3366 4563 
z
" id="DejaVuSans-36" transform="scale(0.015625)"/>
       </defs>
       <use xlink:href="#DejaVuSans-30"/>
       <use x="63.623047" xlink:href="#DejaVuSans-2e"/>
       <use x="95.410156" xlink:href="#DejaVuSans-36"/>
      </g>
     </g>
    </g>
    <g id="text_17">
     <!-- Runtime (s) -->
     <g transform="translate(18.737188 194.238125)rotate(-90)scale(0.1 -0.1)">
      <defs>
       <path d="M 2841 2188 
Q 3044 2119 3236 1894 
Q 3428 1669 3622 1275 
L 4263 0 
L 3584 0 
L 2988 1197 
Q 2756 1666 2539 1819 
Q 2322 1972 1947 1972 
L 1259 1972 
L 1259 0 
L 628 0 
L 628 4666 
L 2053 4666 
Q 2853 4666 3247 4331 
Q 3641 3997 3641 3322 
Q 3641 2881 3436 2590 
Q 3231 2300 2841 2188 
z
M 1259 4147 
L 1259 2491 
L 2053 2491 
Q 2509 2491 2742 2702 
Q 2975 2913 2975 3322 
Q 2975 3731 2742 3939 
Q 2509 4147 2053 4147 
L 1259 4147 
z
" id="DejaVuSans-52" transform="scale(0.015625)"/>
       <path d="M 544 1381 
L 544 3500 
L 1119 3500 
L 1119 1403 
Q 1119 906 1312 657 
Q 1506 409 1894 409 
Q 2359 409 2629 706 
Q 2900 1003 2900 1516 
L 2900 3500 
L 3475 3500 
L 3475 0 
L 2900 0 
L 2900 538 
Q 2691 219 2414 64 
Q 2138 -91 1772 -91 
Q 1169 -91 856 284 
Q 544 659 544 1381 
z
M 1991 3584 
L 1991 3584 
z
" id="DejaVuSans-75" transform="scale(0.015625)"/>
       <path d="M 3328 2828 
Q 3544 3216 3844 3400 
Q 4144 3584 4550 3584 
Q 5097 3584 5394 3201 
Q 5691 2819 5691 2113 
L 5691 0 
L 5113 0 
L 5113 2094 
Q 5113 2597 4934 2840 
Q 4756 3084 4391 3084 
Q 3944 3084 3684 2787 
Q 3425 2491 3425 1978 
L 3425 0 
L 2847 0 
L 2847 2094 
Q 2847 2600 2669 2842 
Q 2491 3084 2119 3084 
Q 1678 3084 1418 2786 
Q 1159 2488 1159 1978 
L 1159 0 
L 581 0 
L 581 3500 
L 1159 3500 
L 1159 2956 
Q 1356 3278 1631 3431 
Q 1906 3584 2284 3584 
Q 2666 3584 2933 3390 
Q 3200 3197 3328 2828 
z
" id="DejaVuSans-6d" transform="scale(0.015625)"/>
       <path id="DejaVuSans-20" transform="scale(0.015625)"/>
       <path d="M 1984 4856 
Q 1566 4138 1362 3434 
Q 1159 2731 1159 2009 
Q 1159 1288 1364 580 
Q 1569 -128 1984 -844 
L 1484 -844 
Q 1016 -109 783 600 
Q 550 1309 550 2009 
Q 550 2706 781 3412 
Q 1013 4119 1484 4856 
L 1984 4856 
z
" id="DejaVuSans-28" transform="scale(0.015625)"/>
       <path d="M 2834 3397 
L 2834 2853 
Q 2591 2978 2328 3040 
Q 2066 3103 1784 3103 
Q 1356 3103 1142 2972 
Q 928 2841 928 2578 
Q 928 2378 1081 2264 
Q 1234 2150 1697 2047 
L 1894 2003 
Q 2506 1872 2764 1633 
Q 3022 1394 3022 966 
Q 3022 478 2636 193 
Q 2250 -91 1575 -91 
Q 1294 -91 989 -36 
Q 684 19 347 128 
L 347 722 
Q 666 556 975 473 
Q 1284 391 1588 391 
Q 1994 391 2212 530 
Q 2431 669 2431 922 
Q 2431 1156 2273 1281 
Q 2116 1406 1581 1522 
L 1381 1569 
Q 847 1681 609 1914 
Q 372 2147 372 2553 
Q 372 3047 722 3315 
Q 1072 3584 1716 3584 
Q 2034 3584 2315 3537 
Q 2597 3491 2834 3397 
z
" id="DejaVuSans-73" transform="scale(0.015625)"/>
       <path d="M 513 4856 
L 1013 4856 
Q 1481 4119 1714 3412 
Q 1947 2706 1947 2009 
Q 1947 1309 1714 600 
Q 1481 -109 1013 -844 
L 513 -844 
Q 928 -128 1133 580 
Q 1338 1288 1338 2009 
Q 1338 2731 1133 3434 
Q 928 4138 513 4856 
z
" id="DejaVuSans-29" transform="scale(0.015625)"/>
      </defs>
      <use xlink:href="#DejaVuSans-52"/>
      <use x="64.982422" xlink:href="#DejaVuSans-75"/>
      <use x="128.361328" xlink:href="#DejaVuSans-6e"/>
      <use x="191.740234" xlink:href="#DejaVuSans-74"/>
      <use x="230.949219" xlink:href="#DejaVuSans-69"/>
      <use x="258.732422" xlink:href="#DejaVuSans-6d"/>
      <use x="356.144531" xlink:href="#DejaVuSans-65"/>
      <use x="417.667969" xlink:href="#DejaVuSans-20"/>
      <use x="449.455078" xlink:href="#DejaVuSans-28"/>
      <use x="488.46875" xlink:href="#DejaVuSans-73"/>
      <use x="540.568359" xlink:href="#DejaVuSans-29"/>
     </g>
    </g>
   </g>
   <g id="line2d_16">
    <path clip-path="url(#p7a988da2bb)" d="M 66.005455 192.476437 
L 75.382611 194.100237 
L 84.759767 157.168321 
L 94.136923 198.549553 
L 103.514079 145.578901 
L 112.891235 196.296395 
L 122.268392 194.921323 
L 131.645548 198.283395 
L 141.022704 196.674669 
L 150.39986 159.183586 
L 159.777016 192.839166 
L 169.154172 143.240949 
L 178.531329 199.383829 
L 187.908485 189.223654 
L 197.285641 195.297713 
L 206.662797 193.55897 
L 216.039953 157.002031 
L 225.41711 200.694364 
L 234.794266 147.170668 
L 244.171422 200.013187 
L 253.548578 199.588277 
L 262.925734 191.905492 
L 272.30289 197.149985 
L 281.680047 154.745576 
L 291.057203 198.903803 
L 300.434359 145.324991 
L 309.811515 198.957976 
L 319.188671 198.135006 
L 328.565828 200.420197 
L 337.942984 198.403991 
L 347.32014 158.565063 
L 356.697296 197.004423 
L 366.074452 144.481293 
L 375.451608 196.115031 
L 384.828765 195.331631 
L 394.205921 193.336151 
L 403.583077 198.443561 
L 412.960233 156.390574 
L 422.337389 194.823339 
L 431.714545 144.785608 
" style="fill:none;stroke:#1f77b4;stroke-linecap:square;stroke-width:1.5;"/>
   </g>
   <g id="line2d_17">
    <path clip-path="url(#p7a988da2bb)" d="M 66.005455 168.681899 
L 75.382611 136.414581 
L 84.759767 163.225892 
L 94.136923 122.786813 
L 103.514079 170.087591 
L 112.891235 136.780608 
L 122.268392 167.287513 
L 131.645548 160.944941 
L 141.022704 135.365965 
L 150.39986 163.538687 
L 159.777016 175.49696 
L 169.154172 180.839437 
L 178.531329 181.251629 
L 187.908485 180.867702 
L 197.285641 181.31334 
L 206.662797 181.744846 
L 216.039953 180.864404 
L 225.41711 182.470304 
L 234.794266 181.095703 
L 244.171422 178.35027 
L 253.548578 182.269154 
L 262.925734 180.96333 
L 272.30289 181.739193 
L 281.680047 181.624251 
L 291.057203 181.468795 
L 300.434359 180.610965 
L 309.811515 179.881268 
L 319.188671 181.699152 
L 328.565828 180.010343 
L 337.942984 177.933838 
L 347.32014 178.459089 
L 356.697296 176.962008 
L 366.074452 161.166818 
L 375.451608 179.315505 
L 384.828765 175.336794 
L 394.205921 174.645254 
L 403.583077 180.556792 
L 412.960233 181.242679 
L 422.337389 178.101071 
L 431.714545 175.679738 
" style="fill:none;stroke:#ff7f0e;stroke-linecap:square;stroke-width:1.5;"/>
   </g>
   <g id="line2d_18">
    <path clip-path="url(#p7a988da2bb)" d="M 66.005455 142.564483 
L 75.382611 145.681595 
L 84.759767 140.916658 
L 94.136923 136.999187 
L 103.514079 176.631312 
L 112.891235 178.728073 
L 122.268392 179.966533 
L 131.645548 181.228075 
L 141.022704 182.622461 
L 150.39986 180.871 
L 159.777016 180.22327 
L 169.154172 177.179645 
L 178.531329 179.483209 
L 187.908485 181.855078 
L 197.285641 180.309476 
L 206.662797 182.351593 
L 216.039953 177.373729 
L 225.41711 180.96757 
L 234.794266 182.167402 
L 244.171422 182.328039 
L 253.548578 176.014673 
L 262.925734 178.370997 
L 272.30289 176.962008 
L 281.680047 180.152608 
L 291.057203 180.443262 
L 300.434359 181.945996 
L 309.811515 182.099567 
L 319.188671 182.399642 
L 328.565828 181.762276 
L 337.942984 175.717424 
L 347.32014 179.372506 
L 356.697296 178.47275 
L 366.074452 179.478498 
L 375.451608 181.267646 
L 384.828765 177.856582 
L 394.205921 179.222232 
L 403.583077 180.365064 
L 412.960233 179.701788 
L 422.337389 173.450134 
L 431.714545 181.957302 
" style="fill:none;stroke:#2ca02c;stroke-linecap:square;stroke-width:1.5;"/>
   </g>
   <g id="line2d_19">
    <path clip-path="url(#p7a988da2bb)" d="M 66.005455 114.998037 
L 75.382611 116.590746 
L 84.759767 117.846635 
L 94.136923 115.967983 
L 103.514079 117.784924 
L 112.891235 121.040062 
L 122.268392 119.938685 
L 131.645548 120.313191 
L 141.022704 118.362464 
L 150.39986 118.997004 
L 159.777016 118.357753 
L 169.154172 120.89497 
L 178.531329 118.741209 
L 187.908485 118.774185 
L 197.285641 119.521312 
L 206.662797 115.74375 
L 216.039953 118.658771 
L 225.41711 115.212847 
L 234.794266 120.515754 
L 244.171422 118.242811 
L 253.548578 119.713982 
L 262.925734 117.759957 
L 272.30289 118.189108 
L 281.680047 120.357943 
L 291.057203 117.221517 
L 300.434359 116.93416 
L 309.811515 115.933123 
L 319.188671 115.388559 
L 328.565828 118.543357 
L 337.942984 118.359166 
L 347.32014 118.867458 
L 356.697296 119.397419 
L 366.074452 119.271641 
L 375.451608 117.070773 
L 384.828765 118.130223 
L 394.205921 117.466948 
L 403.583077 119.199567 
L 412.960233 118.908913 
L 422.337389 118.263067 
L 431.714545 118.397324 
" style="fill:none;stroke:#d62728;stroke-linecap:square;stroke-width:1.5;"/>
   </g>
   <g id="line2d_20">
    <path clip-path="url(#p7a988da2bb)" d="M 66.005455 61.189339 
L 75.382611 51.124793 
L 84.759767 50.911866 
L 94.136923 48.849494 
L 103.514079 51.332538 
L 112.891235 50.04697 
L 122.268392 45.873705 
L 131.645548 49.677175 
L 141.022704 49.278645 
L 150.39986 50.718725 
L 159.777016 49.768564 
L 169.154172 49.484034 
L 178.531329 39.46 
L 187.908485 50.583526 
L 197.285641 50.050268 
L 206.662797 50.141656 
L 216.039953 48.719948 
L 225.41711 50.403104 
L 234.794266 51.335835 
L 244.171422 52.041979 
L 253.548578 49.419496 
L 262.925734 50.540187 
L 272.30289 50.821891 
L 281.680047 50.735684 
L 291.057203 49.782696 
L 300.434359 46.408847 
L 309.811515 50.456335 
L 319.188671 51.679721 
L 328.565828 50.181227 
L 337.942984 51.450778 
L 347.32014 50.883602 
L 356.697296 51.46915 
L 366.074452 49.555166 
L 375.451608 50.460104 
L 384.828765 48.754337 
L 394.205921 50.918932 
L 403.583077 50.386616 
L 412.960233 50.123285 
L 422.337389 51.49977 
L 431.714545 51.736721 
" style="fill:none;stroke:#9467bd;stroke-linecap:square;stroke-width:1.5;"/>
   </g>
   <g id="line2d_21">
    <path clip-path="url(#p7a988da2bb)" d="M 66.005455 270.825386 
L 75.382611 290.702453 
L 84.759767 290.734957 
L 94.136923 289.269439 
L 103.514079 290.551709 
L 112.891235 290.890884 
L 122.268392 290.467386 
L 131.645548 290.695387 
L 141.022704 290.734486 
L 150.39986 290.711403 
L 159.777016 289.097496 
L 169.154172 290.450898 
L 178.531329 290.567254 
L 187.908485 290.146583 
L 197.285641 289.722143 
L 206.662797 290.707164 
L 216.039953 290.700098 
L 225.41711 289.965219 
L 234.794266 290.261526 
L 244.171422 290.623783 
L 253.548578 290.238914 
L 262.925734 289.146017 
L 272.30289 290.961074 
L 281.680047 290.443361 
L 291.057203 290.427816 
L 300.434359 289.141306 
L 309.811515 290.682668 
L 319.188671 290.864503 
L 328.565828 291.06 
L 337.942984 291.021372 
L 347.32014 290.982743 
L 356.697296 291.024198 
L 366.074452 290.902189 
L 375.451608 291.046339 
L 384.828765 290.956363 
L 394.205921 289.829549 
L 403.583077 290.78442 
L 412.960233 290.744379 
L 422.337389 290.59175 
L 431.714545 290.387774 
" style="fill:none;stroke:#8c564b;stroke-linecap:square;stroke-width:1.5;"/>
   </g>
   <g id="patch_3">
    <path d="M 47.72 303.64 
L 47.72 26.88 
" style="fill:none;stroke:#000000;stroke-linecap:square;stroke-linejoin:miter;stroke-width:0.8;"/>
   </g>
   <g id="patch_4">
    <path d="M 450 303.64 
L 450 26.88 
" style="fill:none;stroke:#000000;stroke-linecap:square;stroke-linejoin:miter;stroke-width:0.8;"/>
   </g>
   <g id="patch_5">
    <path d="M 47.72 303.64 
L 450 303.64 
" style="fill:none;stroke:#000000;stroke-linecap:square;stroke-linejoin:miter;stroke-width:0.8;"/>
   </g>
   <g id="patch_6">
    <path d="M 47.72 26.88 
L 450 26.88 
" style="fill:none;stroke:#000000;stroke-linecap:square;stroke-linejoin:miter;stroke-width:0.8;"/>
   </g>
   <g id="text_18">
    <!-- Runtime across repetition number (4096 vector size, 8 nodes) -->
    <g transform="translate(62.420312 20.88)scale(0.12 -0.12)">
     <defs>
      <path d="M 3122 3366 
L 3122 2828 
Q 2878 2963 2633 3030 
Q 2388 3097 2138 3097 
Q 1578 3097 1268 2742 
Q 959 2388 959 1747 
Q 959 1106 1268 751 
Q 1578 397 2138 397 
Q 2388 397 2633 464 
Q 2878 531 3122 666 
L 3122 134 
Q 2881 22 2623 -34 
Q 2366 -91 2075 -91 
Q 1284 -91 818 406 
Q 353 903 353 1747 
Q 353 2603 823 3093 
Q 1294 3584 2113 3584 
Q 2378 3584 2631 3529 
Q 2884 3475 3122 3366 
z
" id="DejaVuSans-63" transform="scale(0.015625)"/>
      <path d="M 1159 525 
L 1159 -1331 
L 581 -1331 
L 581 3500 
L 1159 3500 
L 1159 2969 
Q 1341 3281 1617 3432 
Q 1894 3584 2278 3584 
Q 2916 3584 3314 3078 
Q 3713 2572 3713 1747 
Q 3713 922 3314 415 
Q 2916 -91 2278 -91 
Q 1894 -91 1617 61 
Q 1341 213 1159 525 
z
M 3116 1747 
Q 3116 2381 2855 2742 
Q 2594 3103 2138 3103 
Q 1681 3103 1420 2742 
Q 1159 2381 1159 1747 
Q 1159 1113 1420 752 
Q 1681 391 2138 391 
Q 2594 391 2855 752 
Q 3116 1113 3116 1747 
z
" id="DejaVuSans-70" transform="scale(0.015625)"/>
      <path d="M 3116 1747 
Q 3116 2381 2855 2742 
Q 2594 3103 2138 3103 
Q 1681 3103 1420 2742 
Q 1159 2381 1159 1747 
Q 1159 1113 1420 752 
Q 1681 391 2138 391 
Q 2594 391 2855 752 
Q 3116 1113 3116 1747 
z
M 1159 2969 
Q 1341 3281 1617 3432 
Q 1894 3584 2278 3584 
Q 2916 3584 3314 3078 
Q 3713 2572 3713 1747 
Q 3713 922 3314 415 
Q 2916 -91 2278 -91 
Q 1894 -91 1617 61 
Q 1341 213 1159 525 
L 1159 0 
L 581 0 
L 581 4863 
L 1159 4863 
L 1159 2969 
z
" id="DejaVuSans-62" transform="scale(0.015625)"/>
      <path d="M 703 97 
L 703 672 
Q 941 559 1184 500 
Q 1428 441 1663 441 
Q 2288 441 2617 861 
Q 2947 1281 2994 2138 
Q 2813 1869 2534 1725 
Q 2256 1581 1919 1581 
Q 1219 1581 811 2004 
Q 403 2428 403 3163 
Q 403 3881 828 4315 
Q 1253 4750 1959 4750 
Q 2769 4750 3195 4129 
Q 3622 3509 3622 2328 
Q 3622 1225 3098 567 
Q 2575 -91 1691 -91 
Q 1453 -91 1209 -44 
Q 966 3 703 97 
z
M 1959 2075 
Q 2384 2075 2632 2365 
Q 2881 2656 2881 3163 
Q 2881 3666 2632 3958 
Q 2384 4250 1959 4250 
Q 1534 4250 1286 3958 
Q 1038 3666 1038 3163 
Q 1038 2656 1286 2365 
Q 1534 2075 1959 2075 
z
" id="DejaVuSans-39" transform="scale(0.015625)"/>
      <path d="M 191 3500 
L 800 3500 
L 1894 563 
L 2988 3500 
L 3597 3500 
L 2284 0 
L 1503 0 
L 191 3500 
z
" id="DejaVuSans-76" transform="scale(0.015625)"/>
      <path d="M 353 3500 
L 3084 3500 
L 3084 2975 
L 922 459 
L 3084 459 
L 3084 0 
L 275 0 
L 275 525 
L 2438 3041 
L 353 3041 
L 353 3500 
z
" id="DejaVuSans-7a" transform="scale(0.015625)"/>
      <path d="M 750 794 
L 1409 794 
L 1409 256 
L 897 -744 
L 494 -744 
L 750 256 
L 750 794 
z
" id="DejaVuSans-2c" transform="scale(0.015625)"/>
      <path d="M 2034 2216 
Q 1584 2216 1326 1975 
Q 1069 1734 1069 1313 
Q 1069 891 1326 650 
Q 1584 409 2034 409 
Q 2484 409 2743 651 
Q 3003 894 3003 1313 
Q 3003 1734 2745 1975 
Q 2488 2216 2034 2216 
z
M 1403 2484 
Q 997 2584 770 2862 
Q 544 3141 544 3541 
Q 544 4100 942 4425 
Q 1341 4750 2034 4750 
Q 2731 4750 3128 4425 
Q 3525 4100 3525 3541 
Q 3525 3141 3298 2862 
Q 3072 2584 2669 2484 
Q 3125 2378 3379 2068 
Q 3634 1759 3634 1313 
Q 3634 634 3220 271 
Q 2806 -91 2034 -91 
Q 1263 -91 848 271 
Q 434 634 434 1313 
Q 434 1759 690 2068 
Q 947 2378 1403 2484 
z
M 1172 3481 
Q 1172 3119 1398 2916 
Q 1625 2713 2034 2713 
Q 2441 2713 2670 2916 
Q 2900 3119 2900 3481 
Q 2900 3844 2670 4047 
Q 2441 4250 2034 4250 
Q 1625 4250 1398 4047 
Q 1172 3844 1172 3481 
z
" id="DejaVuSans-38" transform="scale(0.015625)"/>
      <path d="M 2906 2969 
L 2906 4863 
L 3481 4863 
L 3481 0 
L 2906 0 
L 2906 525 
Q 2725 213 2448 61 
Q 2172 -91 1784 -91 
Q 1150 -91 751 415 
Q 353 922 353 1747 
Q 353 2572 751 3078 
Q 1150 3584 1784 3584 
Q 2172 3584 2448 3432 
Q 2725 3281 2906 2969 
z
M 947 1747 
Q 947 1113 1208 752 
Q 1469 391 1925 391 
Q 2381 391 2643 752 
Q 2906 1113 2906 1747 
Q 2906 2381 2643 2742 
Q 2381 3103 1925 3103 
Q 1469 3103 1208 2742 
Q 947 2381 947 1747 
z
" id="DejaVuSans-64" transform="scale(0.015625)"/>
     </defs>
     <use xlink:href="#DejaVuSans-52"/>
     <use x="64.982422" xlink:href="#DejaVuSans-75"/>
     <use x="128.361328" xlink:href="#DejaVuSans-6e"/>
     <use x="191.740234" xlink:href="#DejaVuSans-74"/>
     <use x="230.949219" xlink:href="#DejaVuSans-69"/>
     <use x="258.732422" xlink:href="#DejaVuSans-6d"/>
     <use x="356.144531" xlink:href="#DejaVuSans-65"/>
     <use x="417.667969" xlink:href="#DejaVuSans-20"/>
     <use x="449.455078" xlink:href="#DejaVuSans-61"/>
     <use x="510.734375" xlink:href="#DejaVuSans-63"/>
     <use x="565.714844" xlink:href="#DejaVuSans-72"/>
     <use x="604.578125" xlink:href="#DejaVuSans-6f"/>
     <use x="665.759766" xlink:href="#DejaVuSans-73"/>
     <use x="717.859375" xlink:href="#DejaVuSans-73"/>
     <use x="769.958984" xlink:href="#DejaVuSans-20"/>
     <use x="801.746094" xlink:href="#DejaVuSans-72"/>
     <use x="840.609375" xlink:href="#DejaVuSans-65"/>
     <use x="902.132812" xlink:href="#DejaVuSans-70"/>
     <use x="965.609375" xlink:href="#DejaVuSans-65"/>
     <use x="1027.132812" xlink:href="#DejaVuSans-74"/>
     <use x="1066.341797" xlink:href="#DejaVuSans-69"/>
     <use x="1094.125" xlink:href="#DejaVuSans-74"/>
     <use x="1133.333984" xlink:href="#DejaVuSans-69"/>
     <use x="1161.117188" xlink:href="#DejaVuSans-6f"/>
     <use x="1222.298828" xlink:href="#DejaVuSans-6e"/>
     <use x="1285.677734" xlink:href="#DejaVuSans-20"/>
     <use x="1317.464844" xlink:href="#DejaVuSans-6e"/>
     <use x="1380.84375" xlink:href="#DejaVuSans-75"/>
     <use x="1444.222656" xlink:href="#DejaVuSans-6d"/>
     <use x="1541.634766" xlink:href="#DejaVuSans-62"/>
     <use x="1605.111328" xlink:href="#DejaVuSans-65"/>
     <use x="1666.634766" xlink:href="#DejaVuSans-72"/>
     <use x="1707.748047" xlink:href="#DejaVuSans-20"/>
     <use x="1739.535156" xlink:href="#DejaVuSans-28"/>
     <use x="1778.548828" xlink:href="#DejaVuSans-34"/>
     <use x="1842.171875" xlink:href="#DejaVuSans-30"/>
     <use x="1905.794922" xlink:href="#DejaVuSans-39"/>
     <use x="1969.417969" xlink:href="#DejaVuSans-36"/>
     <use x="2033.041016" xlink:href="#DejaVuSans-20"/>
     <use x="2064.828125" xlink:href="#DejaVuSans-76"/>
     <use x="2124.007812" xlink:href="#DejaVuSans-65"/>
     <use x="2185.53125" xlink:href="#DejaVuSans-63"/>
     <use x="2240.511719" xlink:href="#DejaVuSans-74"/>
     <use x="2279.720703" xlink:href="#DejaVuSans-6f"/>
     <use x="2340.902344" xlink:href="#DejaVuSans-72"/>
     <use x="2382.015625" xlink:href="#DejaVuSans-20"/>
     <use x="2413.802734" xlink:href="#DejaVuSans-73"/>
     <use x="2465.902344" xlink:href="#DejaVuSans-69"/>
     <use x="2493.685547" xlink:href="#DejaVuSans-7a"/>
     <use x="2546.175781" xlink:href="#DejaVuSans-65"/>
     <use x="2607.699219" xlink:href="#DejaVuSans-2c"/>
     <use x="2639.486328" xlink:href="#DejaVuSans-20"/>
     <use x="2671.273438" xlink:href="#DejaVuSans-38"/>
     <use x="2734.896484" xlink:href="#DejaVuSans-20"/>
     <use x="2766.683594" xlink:href="#DejaVuSans-6e"/>
     <use x="2830.0625" xlink:href="#DejaVuSans-6f"/>
     <use x="2891.244141" xlink:href="#DejaVuSans-64"/>
     <use x="2954.720703" xlink:href="#DejaVuSans-65"/>
     <use x="3016.244141" xlink:href="#DejaVuSans-73"/>
     <use x="3068.34375" xlink:href="#DejaVuSans-29"/>
    </g>
   </g>
   <g id="legend_1">
    <g id="patch_7">
     <path d="M 54.72 298.64 
L 199.729375 298.64 
Q 201.729375 298.64 201.729375 296.64 
L 201.729375 194.893125 
Q 201.729375 192.893125 199.729375 192.893125 
L 54.72 192.893125 
Q 52.72 192.893125 52.72 194.893125 
L 52.72 296.64 
Q 52.72 298.64 54.72 298.64 
z
" style="fill:#ffffff;opacity:0.8;stroke:#cccccc;stroke-linejoin:miter;"/>
    </g>
    <g id="text_19">
     <!-- implementation -->
     <g transform="translate(87.608281 204.491562)scale(0.1 -0.1)">
      <defs>
       <path d="M 603 4863 
L 1178 4863 
L 1178 0 
L 603 0 
L 603 4863 
z
" id="DejaVuSans-6c" transform="scale(0.015625)"/>
      </defs>
      <use xlink:href="#DejaVuSans-69"/>
      <use x="27.783203" xlink:href="#DejaVuSans-6d"/>
      <use x="125.195312" xlink:href="#DejaVuSans-70"/>
      <use x="188.671875" xlink:href="#DejaVuSans-6c"/>
      <use x="216.455078" xlink:href="#DejaVuSans-65"/>
      <use x="277.978516" xlink:href="#DejaVuSans-6d"/>
      <use x="375.390625" xlink:href="#DejaVuSans-65"/>
      <use x="436.914062" xlink:href="#DejaVuSans-6e"/>
      <use x="500.292969" xlink:href="#DejaVuSans-74"/>
      <use x="539.501953" xlink:href="#DejaVuSans-61"/>
      <use x="600.78125" xlink:href="#DejaVuSans-74"/>
      <use x="639.990234" xlink:href="#DejaVuSans-69"/>
      <use x="667.773438" xlink:href="#DejaVuSans-6f"/>
      <use x="728.955078" xlink:href="#DejaVuSans-6e"/>
     </g>
    </g>
    <g id="line2d_22">
     <path d="M 56.72 215.669688 
L 76.72 215.669688 
" style="fill:none;stroke:#1f77b4;stroke-linecap:square;stroke-width:1.5;"/>
    </g>
    <g id="line2d_23"/>
    <g id="text_20">
     <!-- allgather -->
     <g transform="translate(84.72 219.169688)scale(0.1 -0.1)">
      <defs>
       <path d="M 2906 1791 
Q 2906 2416 2648 2759 
Q 2391 3103 1925 3103 
Q 1463 3103 1205 2759 
Q 947 2416 947 1791 
Q 947 1169 1205 825 
Q 1463 481 1925 481 
Q 2391 481 2648 825 
Q 2906 1169 2906 1791 
z
M 3481 434 
Q 3481 -459 3084 -895 
Q 2688 -1331 1869 -1331 
Q 1566 -1331 1297 -1286 
Q 1028 -1241 775 -1147 
L 775 -588 
Q 1028 -725 1275 -790 
Q 1522 -856 1778 -856 
Q 2344 -856 2625 -561 
Q 2906 -266 2906 331 
L 2906 616 
Q 2728 306 2450 153 
Q 2172 0 1784 0 
Q 1141 0 747 490 
Q 353 981 353 1791 
Q 353 2603 747 3093 
Q 1141 3584 1784 3584 
Q 2172 3584 2450 3431 
Q 2728 3278 2906 2969 
L 2906 3500 
L 3481 3500 
L 3481 434 
z
" id="DejaVuSans-67" transform="scale(0.015625)"/>
       <path d="M 3513 2113 
L 3513 0 
L 2938 0 
L 2938 2094 
Q 2938 2591 2744 2837 
Q 2550 3084 2163 3084 
Q 1697 3084 1428 2787 
Q 1159 2491 1159 1978 
L 1159 0 
L 581 0 
L 581 4863 
L 1159 4863 
L 1159 2956 
Q 1366 3272 1645 3428 
Q 1925 3584 2291 3584 
Q 2894 3584 3203 3211 
Q 3513 2838 3513 2113 
z
" id="DejaVuSans-68" transform="scale(0.015625)"/>
      </defs>
      <use xlink:href="#DejaVuSans-61"/>
      <use x="61.279297" xlink:href="#DejaVuSans-6c"/>
      <use x="89.0625" xlink:href="#DejaVuSans-6c"/>
      <use x="116.845703" xlink:href="#DejaVuSans-67"/>
      <use x="180.322266" xlink:href="#DejaVuSans-61"/>
      <use x="241.601562" xlink:href="#DejaVuSans-74"/>
      <use x="280.810547" xlink:href="#DejaVuSans-68"/>
      <use x="344.189453" xlink:href="#DejaVuSans-65"/>
      <use x="405.712891" xlink:href="#DejaVuSans-72"/>
     </g>
    </g>
    <g id="line2d_24">
     <path d="M 56.72 230.347813 
L 76.72 230.347813 
" style="fill:none;stroke:#ff7f0e;stroke-linecap:square;stroke-width:1.5;"/>
    </g>
    <g id="line2d_25"/>
    <g id="text_21">
     <!-- allgather-async -->
     <g transform="translate(84.72 233.847813)scale(0.1 -0.1)">
      <defs>
       <path d="M 313 2009 
L 1997 2009 
L 1997 1497 
L 313 1497 
L 313 2009 
z
" id="DejaVuSans-2d" transform="scale(0.015625)"/>
       <path d="M 2059 -325 
Q 1816 -950 1584 -1140 
Q 1353 -1331 966 -1331 
L 506 -1331 
L 506 -850 
L 844 -850 
Q 1081 -850 1212 -737 
Q 1344 -625 1503 -206 
L 1606 56 
L 191 3500 
L 800 3500 
L 1894 763 
L 2988 3500 
L 3597 3500 
L 2059 -325 
z
" id="DejaVuSans-79" transform="scale(0.015625)"/>
      </defs>
      <use xlink:href="#DejaVuSans-61"/>
      <use x="61.279297" xlink:href="#DejaVuSans-6c"/>
      <use x="89.0625" xlink:href="#DejaVuSans-6c"/>
      <use x="116.845703" xlink:href="#DejaVuSans-67"/>
      <use x="180.322266" xlink:href="#DejaVuSans-61"/>
      <use x="241.601562" xlink:href="#DejaVuSans-74"/>
      <use x="280.810547" xlink:href="#DejaVuSans-68"/>
      <use x="344.189453" xlink:href="#DejaVuSans-65"/>
      <use x="405.712891" xlink:href="#DejaVuSans-72"/>
      <use x="440.451172" xlink:href="#DejaVuSans-2d"/>
      <use x="476.535156" xlink:href="#DejaVuSans-61"/>
      <use x="537.814453" xlink:href="#DejaVuSans-73"/>
      <use x="589.914062" xlink:href="#DejaVuSans-79"/>
      <use x="649.09375" xlink:href="#DejaVuSans-6e"/>
      <use x="712.472656" xlink:href="#DejaVuSans-63"/>
     </g>
    </g>
    <g id="line2d_26">
     <path d="M 56.72 245.025937 
L 76.72 245.025937 
" style="fill:none;stroke:#2ca02c;stroke-linecap:square;stroke-width:1.5;"/>
    </g>
    <g id="line2d_27"/>
    <g id="text_22">
     <!-- allreduce -->
     <g transform="translate(84.72 248.525937)scale(0.1 -0.1)">
      <use xlink:href="#DejaVuSans-61"/>
      <use x="61.279297" xlink:href="#DejaVuSans-6c"/>
      <use x="89.0625" xlink:href="#DejaVuSans-6c"/>
      <use x="116.845703" xlink:href="#DejaVuSans-72"/>
      <use x="155.708984" xlink:href="#DejaVuSans-65"/>
      <use x="217.232422" xlink:href="#DejaVuSans-64"/>
      <use x="280.708984" xlink:href="#DejaVuSans-75"/>
      <use x="344.087891" xlink:href="#DejaVuSans-63"/>
      <use x="399.068359" xlink:href="#DejaVuSans-65"/>
     </g>
    </g>
    <g id="line2d_28">
     <path d="M 56.72 259.704062 
L 76.72 259.704062 
" style="fill:none;stroke:#d62728;stroke-linecap:square;stroke-width:1.5;"/>
    </g>
    <g id="line2d_29"/>
    <g id="text_23">
     <!-- allreduce-butterfly -->
     <g transform="translate(84.72 263.204062)scale(0.1 -0.1)">
      <defs>
       <path d="M 2375 4863 
L 2375 4384 
L 1825 4384 
Q 1516 4384 1395 4259 
Q 1275 4134 1275 3809 
L 1275 3500 
L 2222 3500 
L 2222 3053 
L 1275 3053 
L 1275 0 
L 697 0 
L 697 3053 
L 147 3053 
L 147 3500 
L 697 3500 
L 697 3744 
Q 697 4328 969 4595 
Q 1241 4863 1831 4863 
L 2375 4863 
z
" id="DejaVuSans-66" transform="scale(0.015625)"/>
      </defs>
      <use xlink:href="#DejaVuSans-61"/>
      <use x="61.279297" xlink:href="#DejaVuSans-6c"/>
      <use x="89.0625" xlink:href="#DejaVuSans-6c"/>
      <use x="116.845703" xlink:href="#DejaVuSans-72"/>
      <use x="155.708984" xlink:href="#DejaVuSans-65"/>
      <use x="217.232422" xlink:href="#DejaVuSans-64"/>
      <use x="280.708984" xlink:href="#DejaVuSans-75"/>
      <use x="344.087891" xlink:href="#DejaVuSans-63"/>
      <use x="399.068359" xlink:href="#DejaVuSans-65"/>
      <use x="460.591797" xlink:href="#DejaVuSans-2d"/>
      <use x="496.675781" xlink:href="#DejaVuSans-62"/>
      <use x="560.152344" xlink:href="#DejaVuSans-75"/>
      <use x="623.53125" xlink:href="#DejaVuSans-74"/>
      <use x="662.740234" xlink:href="#DejaVuSans-74"/>
      <use x="701.949219" xlink:href="#DejaVuSans-65"/>
      <use x="763.472656" xlink:href="#DejaVuSans-72"/>
      <use x="804.585938" xlink:href="#DejaVuSans-66"/>
      <use x="839.791016" xlink:href="#DejaVuSans-6c"/>
      <use x="867.574219" xlink:href="#DejaVuSans-79"/>
     </g>
    </g>
    <g id="line2d_30">
     <path d="M 56.72 274.382187 
L 76.72 274.382187 
" style="fill:none;stroke:#9467bd;stroke-linecap:square;stroke-width:1.5;"/>
    </g>
    <g id="line2d_31"/>
    <g id="text_24">
     <!-- allreduce-rabenseifner -->
     <g transform="translate(84.72 277.882187)scale(0.1 -0.1)">
      <use xlink:href="#DejaVuSans-61"/>
      <use x="61.279297" xlink:href="#DejaVuSans-6c"/>
      <use x="89.0625" xlink:href="#DejaVuSans-6c"/>
      <use x="116.845703" xlink:href="#DejaVuSans-72"/>
      <use x="155.708984" xlink:href="#DejaVuSans-65"/>
      <use x="217.232422" xlink:href="#DejaVuSans-64"/>
      <use x="280.708984" xlink:href="#DejaVuSans-75"/>
      <use x="344.087891" xlink:href="#DejaVuSans-63"/>
      <use x="399.068359" xlink:href="#DejaVuSans-65"/>
      <use x="460.591797" xlink:href="#DejaVuSans-2d"/>
      <use x="496.675781" xlink:href="#DejaVuSans-72"/>
      <use x="537.789062" xlink:href="#DejaVuSans-61"/>
      <use x="599.068359" xlink:href="#DejaVuSans-62"/>
      <use x="662.544922" xlink:href="#DejaVuSans-65"/>
      <use x="724.068359" xlink:href="#DejaVuSans-6e"/>
      <use x="787.447266" xlink:href="#DejaVuSans-73"/>
      <use x="839.546875" xlink:href="#DejaVuSans-65"/>
      <use x="901.070312" xlink:href="#DejaVuSans-69"/>
      <use x="928.853516" xlink:href="#DejaVuSans-66"/>
      <use x="964.058594" xlink:href="#DejaVuSans-6e"/>
      <use x="1027.4375" xlink:href="#DejaVuSans-65"/>
      <use x="1088.960938" xlink:href="#DejaVuSans-72"/>
     </g>
    </g>
    <g id="line2d_32">
     <path d="M 56.72 289.060313 
L 76.72 289.060313 
" style="fill:none;stroke:#8c564b;stroke-linecap:square;stroke-width:1.5;"/>
    </g>
    <g id="line2d_33"/>
    <g id="text_25">
     <!-- rabenseifner-gather -->
     <g transform="translate(84.72 292.560313)scale(0.1 -0.1)">
      <use xlink:href="#DejaVuSans-72"/>
      <use x="41.113281" xlink:href="#DejaVuSans-61"/>
      <use x="102.392578" xlink:href="#DejaVuSans-62"/>
      <use x="165.869141" xlink:href="#DejaVuSans-65"/>
      <use x="227.392578" xlink:href="#DejaVuSans-6e"/>
      <use x="290.771484" xlink:href="#DejaVuSans-73"/>
      <use x="342.871094" xlink:href="#DejaVuSans-65"/>
      <use x="404.394531" xlink:href="#DejaVuSans-69"/>
      <use x="432.177734" xlink:href="#DejaVuSans-66"/>
      <use x="467.382812" xlink:href="#DejaVuSans-6e"/>
      <use x="530.761719" xlink:href="#DejaVuSans-65"/>
      <use x="592.285156" xlink:href="#DejaVuSans-72"/>
      <use x="627.023438" xlink:href="#DejaVuSans-2d"/>
      <use x="663.107422" xlink:href="#DejaVuSans-67"/>
      <use x="726.583984" xlink:href="#DejaVuSans-61"/>
      <use x="787.863281" xlink:href="#DejaVuSans-74"/>
      <use x="827.072266" xlink:href="#DejaVuSans-68"/>
      <use x="890.451172" xlink:href="#DejaVuSans-65"/>
      <use x="951.974609" xlink:href="#DejaVuSans-72"/>
     </g>
    </g>
   </g>
  </g>
 </g>
 <defs>
  <clipPath id="p7a988da2bb">
   <rect height="276.76" width="402.28" x="47.72" y="26.88"/>
  </clipPath>
 </defs>
</svg>
