<?xml version="1.0" encoding="utf-8" standalone="no"?>
<!DOCTYPE svg PUBLIC "-//W3C//DTD SVG 1.1//EN"
  "http://www.w3.org/Graphics/SVG/1.1/DTD/svg11.dtd">
<svg xmlns:xlink="http://www.w3.org/1999/xlink" width="1728pt" height="648pt" viewBox="0 0 1728 648" xmlns="http://www.w3.org/2000/svg" version="1.1">
 <metadata>
  <rdf:RDF xmlns:dc="http://purl.org/dc/elements/1.1/" xmlns:cc="http://creativecommons.org/ns#" xmlns:rdf="http://www.w3.org/1999/02/22-rdf-syntax-ns#">
   <cc:Work>
    <dc:type rdf:resource="http://purl.org/dc/dcmitype/StillImage"/>
    <dc:date>2021-12-17T12:34:25.822608</dc:date>
    <dc:format>image/svg+xml</dc:format>
    <dc:creator>
     <cc:Agent>
      <dc:title>Matplotlib v3.5.1, https://matplotlib.org/</dc:title>
     </cc:Agent>
    </dc:creator>
   </cc:Work>
  </rdf:RDF>
 </metadata>
 <defs>
  <style type="text/css">*{stroke-linejoin: round; stroke-linecap: butt}</style>
 </defs>
 <g id="figure_1">
  <g id="patch_1">
   <path d="M 0 648 
L 1728 648 
L 1728 0 
L 0 0 
z
" style="fill: #ffffff"/>
  </g>
  <g id="axes_1">
   <g id="patch_2">
    <path d="M 63.72 597.78 
L 882.9 597.78 
L 882.9 40.32 
L 63.72 40.32 
z
" style="fill: #eaeaf2"/>
   </g>
   <g id="matplotlib.axis_1">
    <g id="xtick_1">
     <g id="line2d_1">
      <path d="M 166.1175 597.78 
L 166.1175 40.32 
" clip-path="url(#p4dc85f3e3f)" style="fill: none; stroke: #ffffff; stroke-linecap: round"/>
     </g>
     <g id="text_1">
      <!-- allgather -->
      <g style="fill: #262626" transform="translate(141.541953 615.638281)scale(0.11 -0.11)">
       <defs>
        <path id="DejaVuSans-61" d="M 2194 1759 
Q 1497 1759 1228 1600 
Q 959 1441 959 1056 
Q 959 750 1161 570 
Q 1363 391 1709 391 
Q 2188 391 2477 730 
Q 2766 1069 2766 1631 
L 2766 1759 
L 2194 1759 
z
M 3341 1997 
L 3341 0 
L 2766 0 
L 2766 531 
Q 2569 213 2275 61 
Q 1981 -91 1556 -91 
Q 1019 -91 701 211 
Q 384 513 384 1019 
Q 384 1609 779 1909 
Q 1175 2209 1959 2209 
L 2766 2209 
L 2766 2266 
Q 2766 2663 2505 2880 
Q 2244 3097 1772 3097 
Q 1472 3097 1187 3025 
Q 903 2953 641 2809 
L 641 3341 
Q 956 3463 1253 3523 
Q 1550 3584 1831 3584 
Q 2591 3584 2966 3190 
Q 3341 2797 3341 1997 
z
" transform="scale(0.015625)"/>
        <path id="DejaVuSans-6c" d="M 603 4863 
L 1178 4863 
L 1178 0 
L 603 0 
L 603 4863 
z
" transform="scale(0.015625)"/>
        <path id="DejaVuSans-67" d="M 2906 1791 
Q 2906 2416 2648 2759 
Q 2391 3103 1925 3103 
Q 1463 3103 1205 2759 
Q 947 2416 947 1791 
Q 947 1169 1205 825 
Q 1463 481 1925 481 
Q 2391 481 2648 825 
Q 2906 1169 2906 1791 
z
M 3481 434 
Q 3481 -459 3084 -895 
Q 2688 -1331 1869 -1331 
Q 1566 -1331 1297 -1286 
Q 1028 -1241 775 -1147 
L 775 -588 
Q 1028 -725 1275 -790 
Q 1522 -856 1778 -856 
Q 2344 -856 2625 -561 
Q 2906 -266 2906 331 
L 2906 616 
Q 2728 306 2450 153 
Q 2172 0 1784 0 
Q 1141 0 747 490 
Q 353 981 353 1791 
Q 353 2603 747 3093 
Q 1141 3584 1784 3584 
Q 2172 3584 2450 3431 
Q 2728 3278 2906 2969 
L 2906 3500 
L 3481 3500 
L 3481 434 
z
" transform="scale(0.015625)"/>
        <path id="DejaVuSans-74" d="M 1172 4494 
L 1172 3500 
L 2356 3500 
L 2356 3053 
L 1172 3053 
L 1172 1153 
Q 1172 725 1289 603 
Q 1406 481 1766 481 
L 2356 481 
L 2356 0 
L 1766 0 
Q 1100 0 847 248 
Q 594 497 594 1153 
L 594 3053 
L 172 3053 
L 172 3500 
L 594 3500 
L 594 4494 
L 1172 4494 
z
" transform="scale(0.015625)"/>
        <path id="DejaVuSans-68" d="M 3513 2113 
L 3513 0 
L 2938 0 
L 2938 2094 
Q 2938 2591 2744 2837 
Q 2550 3084 2163 3084 
Q 1697 3084 1428 2787 
Q 1159 2491 1159 1978 
L 1159 0 
L 581 0 
L 581 4863 
L 1159 4863 
L 1159 2956 
Q 1366 3272 1645 3428 
Q 1925 3584 2291 3584 
Q 2894 3584 3203 3211 
Q 3513 2838 3513 2113 
z
" transform="scale(0.015625)"/>
        <path id="DejaVuSans-65" d="M 3597 1894 
L 3597 1613 
L 953 1613 
Q 991 1019 1311 708 
Q 1631 397 2203 397 
Q 2534 397 2845 478 
Q 3156 559 3463 722 
L 3463 178 
Q 3153 47 2828 -22 
Q 2503 -91 2169 -91 
Q 1331 -91 842 396 
Q 353 884 353 1716 
Q 353 2575 817 3079 
Q 1281 3584 2069 3584 
Q 2775 3584 3186 3129 
Q 3597 2675 3597 1894 
z
M 3022 2063 
Q 3016 2534 2758 2815 
Q 2500 3097 2075 3097 
Q 1594 3097 1305 2825 
Q 1016 2553 972 2059 
L 3022 2063 
z
" transform="scale(0.015625)"/>
        <path id="DejaVuSans-72" d="M 2631 2963 
Q 2534 3019 2420 3045 
Q 2306 3072 2169 3072 
Q 1681 3072 1420 2755 
Q 1159 2438 1159 1844 
L 1159 0 
L 581 0 
L 581 3500 
L 1159 3500 
L 1159 2956 
Q 1341 3275 1631 3429 
Q 1922 3584 2338 3584 
Q 2397 3584 2469 3576 
Q 2541 3569 2628 3553 
L 2631 2963 
z
" transform="scale(0.015625)"/>
       </defs>
       <use xlink:href="#DejaVuSans-61"/>
       <use xlink:href="#DejaVuSans-6c" x="61.279297"/>
       <use xlink:href="#DejaVuSans-6c" x="89.0625"/>
       <use xlink:href="#DejaVuSans-67" x="116.845703"/>
       <use xlink:href="#DejaVuSans-61" x="180.322266"/>
       <use xlink:href="#DejaVuSans-74" x="241.601562"/>
       <use xlink:href="#DejaVuSans-68" x="280.810547"/>
       <use xlink:href="#DejaVuSans-65" x="344.189453"/>
       <use xlink:href="#DejaVuSans-72" x="405.712891"/>
      </g>
     </g>
    </g>
    <g id="xtick_2">
     <g id="line2d_2">
      <path d="M 370.9125 597.78 
L 370.9125 40.32 
" clip-path="url(#p4dc85f3e3f)" style="fill: none; stroke: #ffffff; stroke-linecap: round"/>
     </g>
     <g id="text_2">
      <!-- allreduce -->
      <g style="fill: #262626" transform="translate(345.578984 615.638281)scale(0.11 -0.11)">
       <defs>
        <path id="DejaVuSans-64" d="M 2906 2969 
L 2906 4863 
L 3481 4863 
L 3481 0 
L 2906 0 
L 2906 525 
Q 2725 213 2448 61 
Q 2172 -91 1784 -91 
Q 1150 -91 751 415 
Q 353 922 353 1747 
Q 353 2572 751 3078 
Q 1150 3584 1784 3584 
Q 2172 3584 2448 3432 
Q 2725 3281 2906 2969 
z
M 947 1747 
Q 947 1113 1208 752 
Q 1469 391 1925 391 
Q 2381 391 2643 752 
Q 2906 1113 2906 1747 
Q 2906 2381 2643 2742 
Q 2381 3103 1925 3103 
Q 1469 3103 1208 2742 
Q 947 2381 947 1747 
z
" transform="scale(0.015625)"/>
        <path id="DejaVuSans-75" d="M 544 1381 
L 544 3500 
L 1119 3500 
L 1119 1403 
Q 1119 906 1312 657 
Q 1506 409 1894 409 
Q 2359 409 2629 706 
Q 2900 1003 2900 1516 
L 2900 3500 
L 3475 3500 
L 3475 0 
L 2900 0 
L 2900 538 
Q 2691 219 2414 64 
Q 2138 -91 1772 -91 
Q 1169 -91 856 284 
Q 544 659 544 1381 
z
M 1991 3584 
L 1991 3584 
z
" transform="scale(0.015625)"/>
        <path id="DejaVuSans-63" d="M 3122 3366 
L 3122 2828 
Q 2878 2963 2633 3030 
Q 2388 3097 2138 3097 
Q 1578 3097 1268 2742 
Q 959 2388 959 1747 
Q 959 1106 1268 751 
Q 1578 397 2138 397 
Q 2388 397 2633 464 
Q 2878 531 3122 666 
L 3122 134 
Q 2881 22 2623 -34 
Q 2366 -91 2075 -91 
Q 1284 -91 818 406 
Q 353 903 353 1747 
Q 353 2603 823 3093 
Q 1294 3584 2113 3584 
Q 2378 3584 2631 3529 
Q 2884 3475 3122 3366 
z
" transform="scale(0.015625)"/>
       </defs>
       <use xlink:href="#DejaVuSans-61"/>
       <use xlink:href="#DejaVuSans-6c" x="61.279297"/>
       <use xlink:href="#DejaVuSans-6c" x="89.0625"/>
       <use xlink:href="#DejaVuSans-72" x="116.845703"/>
       <use xlink:href="#DejaVuSans-65" x="155.708984"/>
       <use xlink:href="#DejaVuSans-64" x="217.232422"/>
       <use xlink:href="#DejaVuSans-75" x="280.708984"/>
       <use xlink:href="#DejaVuSans-63" x="344.087891"/>
       <use xlink:href="#DejaVuSans-65" x="399.068359"/>
      </g>
     </g>
    </g>
    <g id="xtick_3">
     <g id="line2d_3">
      <path d="M 575.7075 597.78 
L 575.7075 40.32 
" clip-path="url(#p4dc85f3e3f)" style="fill: none; stroke: #ffffff; stroke-linecap: round"/>
     </g>
     <g id="text_3">
      <!-- allreduce-ring -->
      <g style="fill: #262626" transform="translate(537.623438 615.638281)scale(0.11 -0.11)">
       <defs>
        <path id="DejaVuSans-2d" d="M 313 2009 
L 1997 2009 
L 1997 1497 
L 313 1497 
L 313 2009 
z
" transform="scale(0.015625)"/>
        <path id="DejaVuSans-69" d="M 603 3500 
L 1178 3500 
L 1178 0 
L 603 0 
L 603 3500 
z
M 603 4863 
L 1178 4863 
L 1178 4134 
L 603 4134 
L 603 4863 
z
" transform="scale(0.015625)"/>
        <path id="DejaVuSans-6e" d="M 3513 2113 
L 3513 0 
L 2938 0 
L 2938 2094 
Q 2938 2591 2744 2837 
Q 2550 3084 2163 3084 
Q 1697 3084 1428 2787 
Q 1159 2491 1159 1978 
L 1159 0 
L 581 0 
L 581 3500 
L 1159 3500 
L 1159 2956 
Q 1366 3272 1645 3428 
Q 1925 3584 2291 3584 
Q 2894 3584 3203 3211 
Q 3513 2838 3513 2113 
z
" transform="scale(0.015625)"/>
       </defs>
       <use xlink:href="#DejaVuSans-61"/>
       <use xlink:href="#DejaVuSans-6c" x="61.279297"/>
       <use xlink:href="#DejaVuSans-6c" x="89.0625"/>
       <use xlink:href="#DejaVuSans-72" x="116.845703"/>
       <use xlink:href="#DejaVuSans-65" x="155.708984"/>
       <use xlink:href="#DejaVuSans-64" x="217.232422"/>
       <use xlink:href="#DejaVuSans-75" x="280.708984"/>
       <use xlink:href="#DejaVuSans-63" x="344.087891"/>
       <use xlink:href="#DejaVuSans-65" x="399.068359"/>
       <use xlink:href="#DejaVuSans-2d" x="460.591797"/>
       <use xlink:href="#DejaVuSans-72" x="496.675781"/>
       <use xlink:href="#DejaVuSans-69" x="537.789062"/>
       <use xlink:href="#DejaVuSans-6e" x="565.572266"/>
       <use xlink:href="#DejaVuSans-67" x="628.951172"/>
      </g>
     </g>
    </g>
    <g id="xtick_4">
     <g id="line2d_4">
      <path d="M 780.5025 597.78 
L 780.5025 40.32 
" clip-path="url(#p4dc85f3e3f)" style="fill: none; stroke: #ffffff; stroke-linecap: round"/>
     </g>
     <g id="text_4">
      <!-- g-rabenseifner-allgather -->
      <g style="fill: #262626" transform="translate(713.98 615.638281)scale(0.11 -0.11)">
       <defs>
        <path id="DejaVuSans-62" d="M 3116 1747 
Q 3116 2381 2855 2742 
Q 2594 3103 2138 3103 
Q 1681 3103 1420 2742 
Q 1159 2381 1159 1747 
Q 1159 1113 1420 752 
Q 1681 391 2138 391 
Q 2594 391 2855 752 
Q 3116 1113 3116 1747 
z
M 1159 2969 
Q 1341 3281 1617 3432 
Q 1894 3584 2278 3584 
Q 2916 3584 3314 3078 
Q 3713 2572 3713 1747 
Q 3713 922 3314 415 
Q 2916 -91 2278 -91 
Q 1894 -91 1617 61 
Q 1341 213 1159 525 
L 1159 0 
L 581 0 
L 581 4863 
L 1159 4863 
L 1159 2969 
z
" transform="scale(0.015625)"/>
        <path id="DejaVuSans-73" d="M 2834 3397 
L 2834 2853 
Q 2591 2978 2328 3040 
Q 2066 3103 1784 3103 
Q 1356 3103 1142 2972 
Q 928 2841 928 2578 
Q 928 2378 1081 2264 
Q 1234 2150 1697 2047 
L 1894 2003 
Q 2506 1872 2764 1633 
Q 3022 1394 3022 966 
Q 3022 478 2636 193 
Q 2250 -91 1575 -91 
Q 1294 -91 989 -36 
Q 684 19 347 128 
L 347 722 
Q 666 556 975 473 
Q 1284 391 1588 391 
Q 1994 391 2212 530 
Q 2431 669 2431 922 
Q 2431 1156 2273 1281 
Q 2116 1406 1581 1522 
L 1381 1569 
Q 847 1681 609 1914 
Q 372 2147 372 2553 
Q 372 3047 722 3315 
Q 1072 3584 1716 3584 
Q 2034 3584 2315 3537 
Q 2597 3491 2834 3397 
z
" transform="scale(0.015625)"/>
        <path id="DejaVuSans-66" d="M 2375 4863 
L 2375 4384 
L 1825 4384 
Q 1516 4384 1395 4259 
Q 1275 4134 1275 3809 
L 1275 3500 
L 2222 3500 
L 2222 3053 
L 1275 3053 
L 1275 0 
L 697 0 
L 697 3053 
L 147 3053 
L 147 3500 
L 697 3500 
L 697 3744 
Q 697 4328 969 4595 
Q 1241 4863 1831 4863 
L 2375 4863 
z
" transform="scale(0.015625)"/>
       </defs>
       <use xlink:href="#DejaVuSans-67"/>
       <use xlink:href="#DejaVuSans-2d" x="63.476562"/>
       <use xlink:href="#DejaVuSans-72" x="99.560547"/>
       <use xlink:href="#DejaVuSans-61" x="140.673828"/>
       <use xlink:href="#DejaVuSans-62" x="201.953125"/>
       <use xlink:href="#DejaVuSans-65" x="265.429688"/>
       <use xlink:href="#DejaVuSans-6e" x="326.953125"/>
       <use xlink:href="#DejaVuSans-73" x="390.332031"/>
       <use xlink:href="#DejaVuSans-65" x="442.431641"/>
       <use xlink:href="#DejaVuSans-69" x="503.955078"/>
       <use xlink:href="#DejaVuSans-66" x="531.738281"/>
       <use xlink:href="#DejaVuSans-6e" x="566.943359"/>
       <use xlink:href="#DejaVuSans-65" x="630.322266"/>
       <use xlink:href="#DejaVuSans-72" x="691.845703"/>
       <use xlink:href="#DejaVuSans-2d" x="726.583984"/>
       <use xlink:href="#DejaVuSans-61" x="762.667969"/>
       <use xlink:href="#DejaVuSans-6c" x="823.947266"/>
       <use xlink:href="#DejaVuSans-6c" x="851.730469"/>
       <use xlink:href="#DejaVuSans-67" x="879.513672"/>
       <use xlink:href="#DejaVuSans-61" x="942.990234"/>
       <use xlink:href="#DejaVuSans-74" x="1004.269531"/>
       <use xlink:href="#DejaVuSans-68" x="1043.478516"/>
       <use xlink:href="#DejaVuSans-65" x="1106.857422"/>
       <use xlink:href="#DejaVuSans-72" x="1168.380859"/>
      </g>
     </g>
    </g>
    <g id="text_5">
     <!-- [impl] -->
     <g style="fill: #262626" transform="translate(455.640938 631.044062)scale(0.12 -0.12)">
      <defs>
       <path id="DejaVuSans-5b" d="M 550 4863 
L 1875 4863 
L 1875 4416 
L 1125 4416 
L 1125 -397 
L 1875 -397 
L 1875 -844 
L 550 -844 
L 550 4863 
z
" transform="scale(0.015625)"/>
       <path id="DejaVuSans-6d" d="M 3328 2828 
Q 3544 3216 3844 3400 
Q 4144 3584 4550 3584 
Q 5097 3584 5394 3201 
Q 5691 2819 5691 2113 
L 5691 0 
L 5113 0 
L 5113 2094 
Q 5113 2597 4934 2840 
Q 4756 3084 4391 3084 
Q 3944 3084 3684 2787 
Q 3425 2491 3425 1978 
L 3425 0 
L 2847 0 
L 2847 2094 
Q 2847 2600 2669 2842 
Q 2491 3084 2119 3084 
Q 1678 3084 1418 2786 
Q 1159 2488 1159 1978 
L 1159 0 
L 581 0 
L 581 3500 
L 1159 3500 
L 1159 2956 
Q 1356 3278 1631 3431 
Q 1906 3584 2284 3584 
Q 2666 3584 2933 3390 
Q 3200 3197 3328 2828 
z
" transform="scale(0.015625)"/>
       <path id="DejaVuSans-70" d="M 1159 525 
L 1159 -1331 
L 581 -1331 
L 581 3500 
L 1159 3500 
L 1159 2969 
Q 1341 3281 1617 3432 
Q 1894 3584 2278 3584 
Q 2916 3584 3314 3078 
Q 3713 2572 3713 1747 
Q 3713 922 3314 415 
Q 2916 -91 2278 -91 
Q 1894 -91 1617 61 
Q 1341 213 1159 525 
z
M 3116 1747 
Q 3116 2381 2855 2742 
Q 2594 3103 2138 3103 
Q 1681 3103 1420 2742 
Q 1159 2381 1159 1747 
Q 1159 1113 1420 752 
Q 1681 391 2138 391 
Q 2594 391 2855 752 
Q 3116 1113 3116 1747 
z
" transform="scale(0.015625)"/>
       <path id="DejaVuSans-5d" d="M 1947 4863 
L 1947 -844 
L 622 -844 
L 622 -397 
L 1369 -397 
L 1369 4416 
L 622 4416 
L 622 4863 
L 1947 4863 
z
" transform="scale(0.015625)"/>
      </defs>
      <use xlink:href="#DejaVuSans-5b"/>
      <use xlink:href="#DejaVuSans-69" x="39.013672"/>
      <use xlink:href="#DejaVuSans-6d" x="66.796875"/>
      <use xlink:href="#DejaVuSans-70" x="164.208984"/>
      <use xlink:href="#DejaVuSans-6c" x="227.685547"/>
      <use xlink:href="#DejaVuSans-5d" x="255.46875"/>
     </g>
    </g>
   </g>
   <g id="matplotlib.axis_2">
    <g id="ytick_1">
     <g id="line2d_5">
      <path d="M 63.72 586.634563 
L 882.9 586.634563 
" clip-path="url(#p4dc85f3e3f)" style="fill: none; stroke: #ffffff; stroke-linecap: round"/>
     </g>
     <g id="text_6">
      <!-- 0.0 -->
      <g style="fill: #262626" transform="translate(36.726562 590.813703)scale(0.11 -0.11)">
       <defs>
        <path id="DejaVuSans-30" d="M 2034 4250 
Q 1547 4250 1301 3770 
Q 1056 3291 1056 2328 
Q 1056 1369 1301 889 
Q 1547 409 2034 409 
Q 2525 409 2770 889 
Q 3016 1369 3016 2328 
Q 3016 3291 2770 3770 
Q 2525 4250 2034 4250 
z
M 2034 4750 
Q 2819 4750 3233 4129 
Q 3647 3509 3647 2328 
Q 3647 1150 3233 529 
Q 2819 -91 2034 -91 
Q 1250 -91 836 529 
Q 422 1150 422 2328 
Q 422 3509 836 4129 
Q 1250 4750 2034 4750 
z
" transform="scale(0.015625)"/>
        <path id="DejaVuSans-2e" d="M 684 794 
L 1344 794 
L 1344 0 
L 684 0 
L 684 794 
z
" transform="scale(0.015625)"/>
       </defs>
       <use xlink:href="#DejaVuSans-30"/>
       <use xlink:href="#DejaVuSans-2e" x="63.623047"/>
       <use xlink:href="#DejaVuSans-30" x="95.410156"/>
      </g>
     </g>
    </g>
    <g id="ytick_2">
     <g id="line2d_6">
      <path d="M 63.72 517.040636 
L 882.9 517.040636 
" clip-path="url(#p4dc85f3e3f)" style="fill: none; stroke: #ffffff; stroke-linecap: round"/>
     </g>
     <g id="text_7">
      <!-- 2.5 -->
      <g style="fill: #262626" transform="translate(36.726562 521.219777)scale(0.11 -0.11)">
       <defs>
        <path id="DejaVuSans-32" d="M 1228 531 
L 3431 531 
L 3431 0 
L 469 0 
L 469 531 
Q 828 903 1448 1529 
Q 2069 2156 2228 2338 
Q 2531 2678 2651 2914 
Q 2772 3150 2772 3378 
Q 2772 3750 2511 3984 
Q 2250 4219 1831 4219 
Q 1534 4219 1204 4116 
Q 875 4013 500 3803 
L 500 4441 
Q 881 4594 1212 4672 
Q 1544 4750 1819 4750 
Q 2544 4750 2975 4387 
Q 3406 4025 3406 3419 
Q 3406 3131 3298 2873 
Q 3191 2616 2906 2266 
Q 2828 2175 2409 1742 
Q 1991 1309 1228 531 
z
" transform="scale(0.015625)"/>
        <path id="DejaVuSans-35" d="M 691 4666 
L 3169 4666 
L 3169 4134 
L 1269 4134 
L 1269 2991 
Q 1406 3038 1543 3061 
Q 1681 3084 1819 3084 
Q 2600 3084 3056 2656 
Q 3513 2228 3513 1497 
Q 3513 744 3044 326 
Q 2575 -91 1722 -91 
Q 1428 -91 1123 -41 
Q 819 9 494 109 
L 494 744 
Q 775 591 1075 516 
Q 1375 441 1709 441 
Q 2250 441 2565 725 
Q 2881 1009 2881 1497 
Q 2881 1984 2565 2268 
Q 2250 2553 1709 2553 
Q 1456 2553 1204 2497 
Q 953 2441 691 2322 
L 691 4666 
z
" transform="scale(0.015625)"/>
       </defs>
       <use xlink:href="#DejaVuSans-32"/>
       <use xlink:href="#DejaVuSans-2e" x="63.623047"/>
       <use xlink:href="#DejaVuSans-35" x="95.410156"/>
      </g>
     </g>
    </g>
    <g id="ytick_3">
     <g id="line2d_7">
      <path d="M 63.72 447.446709 
L 882.9 447.446709 
" clip-path="url(#p4dc85f3e3f)" style="fill: none; stroke: #ffffff; stroke-linecap: round"/>
     </g>
     <g id="text_8">
      <!-- 5.0 -->
      <g style="fill: #262626" transform="translate(36.726562 451.62585)scale(0.11 -0.11)">
       <use xlink:href="#DejaVuSans-35"/>
       <use xlink:href="#DejaVuSans-2e" x="63.623047"/>
       <use xlink:href="#DejaVuSans-30" x="95.410156"/>
      </g>
     </g>
    </g>
    <g id="ytick_4">
     <g id="line2d_8">
      <path d="M 63.72 377.852783 
L 882.9 377.852783 
" clip-path="url(#p4dc85f3e3f)" style="fill: none; stroke: #ffffff; stroke-linecap: round"/>
     </g>
     <g id="text_9">
      <!-- 7.5 -->
      <g style="fill: #262626" transform="translate(36.726562 382.031923)scale(0.11 -0.11)">
       <defs>
        <path id="DejaVuSans-37" d="M 525 4666 
L 3525 4666 
L 3525 4397 
L 1831 0 
L 1172 0 
L 2766 4134 
L 525 4134 
L 525 4666 
z
" transform="scale(0.015625)"/>
       </defs>
       <use xlink:href="#DejaVuSans-37"/>
       <use xlink:href="#DejaVuSans-2e" x="63.623047"/>
       <use xlink:href="#DejaVuSans-35" x="95.410156"/>
      </g>
     </g>
    </g>
    <g id="ytick_5">
     <g id="line2d_9">
      <path d="M 63.72 308.258856 
L 882.9 308.258856 
" clip-path="url(#p4dc85f3e3f)" style="fill: none; stroke: #ffffff; stroke-linecap: round"/>
     </g>
     <g id="text_10">
      <!-- 10.0 -->
      <g style="fill: #262626" transform="translate(29.727812 312.437997)scale(0.11 -0.11)">
       <defs>
        <path id="DejaVuSans-31" d="M 794 531 
L 1825 531 
L 1825 4091 
L 703 3866 
L 703 4441 
L 1819 4666 
L 2450 4666 
L 2450 531 
L 3481 531 
L 3481 0 
L 794 0 
L 794 531 
z
" transform="scale(0.015625)"/>
       </defs>
       <use xlink:href="#DejaVuSans-31"/>
       <use xlink:href="#DejaVuSans-30" x="63.623047"/>
       <use xlink:href="#DejaVuSans-2e" x="127.246094"/>
       <use xlink:href="#DejaVuSans-30" x="159.033203"/>
      </g>
     </g>
    </g>
    <g id="ytick_6">
     <g id="line2d_10">
      <path d="M 63.72 238.66493 
L 882.9 238.66493 
" clip-path="url(#p4dc85f3e3f)" style="fill: none; stroke: #ffffff; stroke-linecap: round"/>
     </g>
     <g id="text_11">
      <!-- 12.5 -->
      <g style="fill: #262626" transform="translate(29.727812 242.84407)scale(0.11 -0.11)">
       <use xlink:href="#DejaVuSans-31"/>
       <use xlink:href="#DejaVuSans-32" x="63.623047"/>
       <use xlink:href="#DejaVuSans-2e" x="127.246094"/>
       <use xlink:href="#DejaVuSans-35" x="159.033203"/>
      </g>
     </g>
    </g>
    <g id="ytick_7">
     <g id="line2d_11">
      <path d="M 63.72 169.071003 
L 882.9 169.071003 
" clip-path="url(#p4dc85f3e3f)" style="fill: none; stroke: #ffffff; stroke-linecap: round"/>
     </g>
     <g id="text_12">
      <!-- 15.0 -->
      <g style="fill: #262626" transform="translate(29.727812 173.250144)scale(0.11 -0.11)">
       <use xlink:href="#DejaVuSans-31"/>
       <use xlink:href="#DejaVuSans-35" x="63.623047"/>
       <use xlink:href="#DejaVuSans-2e" x="127.246094"/>
       <use xlink:href="#DejaVuSans-30" x="159.033203"/>
      </g>
     </g>
    </g>
    <g id="ytick_8">
     <g id="line2d_12">
      <path d="M 63.72 99.477076 
L 882.9 99.477076 
" clip-path="url(#p4dc85f3e3f)" style="fill: none; stroke: #ffffff; stroke-linecap: round"/>
     </g>
     <g id="text_13">
      <!-- 17.5 -->
      <g style="fill: #262626" transform="translate(29.727812 103.656217)scale(0.11 -0.11)">
       <use xlink:href="#DejaVuSans-31"/>
       <use xlink:href="#DejaVuSans-37" x="63.623047"/>
       <use xlink:href="#DejaVuSans-2e" x="127.246094"/>
       <use xlink:href="#DejaVuSans-35" x="159.033203"/>
      </g>
     </g>
    </g>
    <g id="text_14">
     <!-- Runtime (s) -->
     <g style="fill: #262626" transform="translate(23.232187 353.82375)rotate(-90)scale(0.12 -0.12)">
      <defs>
       <path id="DejaVuSans-52" d="M 2841 2188 
Q 3044 2119 3236 1894 
Q 3428 1669 3622 1275 
L 4263 0 
L 3584 0 
L 2988 1197 
Q 2756 1666 2539 1819 
Q 2322 1972 1947 1972 
L 1259 1972 
L 1259 0 
L 628 0 
L 628 4666 
L 2053 4666 
Q 2853 4666 3247 4331 
Q 3641 3997 3641 3322 
Q 3641 2881 3436 2590 
Q 3231 2300 2841 2188 
z
M 1259 4147 
L 1259 2491 
L 2053 2491 
Q 2509 2491 2742 2702 
Q 2975 2913 2975 3322 
Q 2975 3731 2742 3939 
Q 2509 4147 2053 4147 
L 1259 4147 
z
" transform="scale(0.015625)"/>
       <path id="DejaVuSans-20" transform="scale(0.015625)"/>
       <path id="DejaVuSans-28" d="M 1984 4856 
Q 1566 4138 1362 3434 
Q 1159 2731 1159 2009 
Q 1159 1288 1364 580 
Q 1569 -128 1984 -844 
L 1484 -844 
Q 1016 -109 783 600 
Q 550 1309 550 2009 
Q 550 2706 781 3412 
Q 1013 4119 1484 4856 
L 1984 4856 
z
" transform="scale(0.015625)"/>
       <path id="DejaVuSans-29" d="M 513 4856 
L 1013 4856 
Q 1481 4119 1714 3412 
Q 1947 2706 1947 2009 
Q 1947 1309 1714 600 
Q 1481 -109 1013 -844 
L 513 -844 
Q 928 -128 1133 580 
Q 1338 1288 1338 2009 
Q 1338 2731 1133 3434 
Q 928 4138 513 4856 
z
" transform="scale(0.015625)"/>
      </defs>
      <use xlink:href="#DejaVuSans-52"/>
      <use xlink:href="#DejaVuSans-75" x="64.982422"/>
      <use xlink:href="#DejaVuSans-6e" x="128.361328"/>
      <use xlink:href="#DejaVuSans-74" x="191.740234"/>
      <use xlink:href="#DejaVuSans-69" x="230.949219"/>
      <use xlink:href="#DejaVuSans-6d" x="258.732422"/>
      <use xlink:href="#DejaVuSans-65" x="356.144531"/>
      <use xlink:href="#DejaVuSans-20" x="417.667969"/>
      <use xlink:href="#DejaVuSans-28" x="449.455078"/>
      <use xlink:href="#DejaVuSans-73" x="488.46875"/>
      <use xlink:href="#DejaVuSans-29" x="540.568359"/>
     </g>
    </g>
   </g>
   <g id="line2d_13">
    <path d="M 120.038625 481.189854 
L 212.196375 481.189854 
L 212.196375 473.828626 
L 120.038625 473.828626 
L 120.038625 481.189854 
" clip-path="url(#p4dc85f3e3f)" style="fill: none; stroke: #4c4c4c; stroke-linecap: round"/>
   </g>
   <g id="line2d_14">
    <path d="M 166.1175 481.189854 
L 166.1175 497.232298 
" clip-path="url(#p4dc85f3e3f)" style="fill: none; stroke: #4c4c4c; stroke-linecap: round"/>
   </g>
   <g id="line2d_15">
    <path d="M 166.1175 473.828626 
L 166.1175 465.950537 
" clip-path="url(#p4dc85f3e3f)" style="fill: none; stroke: #4c4c4c; stroke-linecap: round"/>
   </g>
   <g id="line2d_16">
    <path d="M 143.078062 497.232298 
L 189.156938 497.232298 
" clip-path="url(#p4dc85f3e3f)" style="fill: none; stroke: #1a1a1a; stroke-linecap: round"/>
   </g>
   <g id="line2d_17">
    <path d="M 143.078062 465.950537 
L 189.156938 465.950537 
" clip-path="url(#p4dc85f3e3f)" style="fill: none; stroke: #1a1a1a; stroke-linecap: round"/>
   </g>
   <g id="line2d_18">
    <path d="M 324.833625 546.744281 
L 416.991375 546.744281 
L 416.991375 491.067595 
L 324.833625 491.067595 
L 324.833625 546.744281 
" clip-path="url(#p4dc85f3e3f)" style="fill: none; stroke: #4c4c4c; stroke-linecap: round"/>
   </g>
   <g id="line2d_19">
    <path d="M 370.9125 546.744281 
L 370.9125 548.920765 
" clip-path="url(#p4dc85f3e3f)" style="fill: none; stroke: #4c4c4c; stroke-linecap: round"/>
   </g>
   <g id="line2d_20">
    <path d="M 370.9125 491.067595 
L 370.9125 356.687558 
" clip-path="url(#p4dc85f3e3f)" style="fill: none; stroke: #4c4c4c; stroke-linecap: round"/>
   </g>
   <g id="line2d_21">
    <path d="M 347.873063 548.920765 
L 393.951937 548.920765 
" clip-path="url(#p4dc85f3e3f)" style="fill: none; stroke: #1a1a1a; stroke-linecap: round"/>
   </g>
   <g id="line2d_22">
    <path d="M 347.873063 356.687558 
L 393.951937 356.687558 
" clip-path="url(#p4dc85f3e3f)" style="fill: none; stroke: #1a1a1a; stroke-linecap: round"/>
   </g>
   <g id="line2d_23">
    <path d="M 529.628625 559.281644 
L 621.786375 559.281644 
L 621.786375 460.735993 
L 529.628625 460.735993 
L 529.628625 559.281644 
" clip-path="url(#p4dc85f3e3f)" style="fill: none; stroke: #4c4c4c; stroke-linecap: round"/>
   </g>
   <g id="line2d_24">
    <path d="M 575.7075 559.281644 
L 575.7075 560.134838 
" clip-path="url(#p4dc85f3e3f)" style="fill: none; stroke: #4c4c4c; stroke-linecap: round"/>
   </g>
   <g id="line2d_25">
    <path d="M 575.7075 460.735993 
L 575.7075 294.071202 
" clip-path="url(#p4dc85f3e3f)" style="fill: none; stroke: #4c4c4c; stroke-linecap: round"/>
   </g>
   <g id="line2d_26">
    <path d="M 552.668063 560.134838 
L 598.746938 560.134838 
" clip-path="url(#p4dc85f3e3f)" style="fill: none; stroke: #1a1a1a; stroke-linecap: round"/>
   </g>
   <g id="line2d_27">
    <path d="M 552.668063 294.071202 
L 598.746938 294.071202 
" clip-path="url(#p4dc85f3e3f)" style="fill: none; stroke: #1a1a1a; stroke-linecap: round"/>
   </g>
   <g id="line2d_28">
    <path d="M 734.423625 572.168219 
L 826.581375 572.168219 
L 826.581375 554.469669 
L 734.423625 554.469669 
L 734.423625 572.168219 
" clip-path="url(#p4dc85f3e3f)" style="fill: none; stroke: #4c4c4c; stroke-linecap: round"/>
   </g>
   <g id="line2d_29">
    <path d="M 780.5025 572.168219 
L 780.5025 572.405263 
" clip-path="url(#p4dc85f3e3f)" style="fill: none; stroke: #4c4c4c; stroke-linecap: round"/>
   </g>
   <g id="line2d_30">
    <path d="M 780.5025 554.469669 
L 780.5025 496.622182 
" clip-path="url(#p4dc85f3e3f)" style="fill: none; stroke: #4c4c4c; stroke-linecap: round"/>
   </g>
   <g id="line2d_31">
    <path d="M 757.463063 572.405263 
L 803.541938 572.405263 
" clip-path="url(#p4dc85f3e3f)" style="fill: none; stroke: #1a1a1a; stroke-linecap: round"/>
   </g>
   <g id="line2d_32">
    <path d="M 757.463063 496.622182 
L 803.541938 496.622182 
" clip-path="url(#p4dc85f3e3f)" style="fill: none; stroke: #1a1a1a; stroke-linecap: round"/>
   </g>
   <g id="line2d_33">
    <path d="M 120.038625 477.73304 
L 212.196375 477.73304 
" clip-path="url(#p4dc85f3e3f)" style="fill: none; stroke: #b0b0b0; stroke-linecap: round"/>
   </g>
   <g id="line2d_34">
    <path d="M 324.833625 545.075728 
L 416.991375 545.075728 
" clip-path="url(#p4dc85f3e3f)" style="fill: none; stroke: #b0b0b0; stroke-linecap: round"/>
   </g>
   <g id="line2d_35">
    <path d="M 529.628625 558.001422 
L 621.786375 558.001422 
" clip-path="url(#p4dc85f3e3f)" style="fill: none; stroke: #b0b0b0; stroke-linecap: round"/>
   </g>
   <g id="line2d_36">
    <path d="M 734.423625 572.024654 
L 826.581375 572.024654 
" clip-path="url(#p4dc85f3e3f)" style="fill: none; stroke: #b0b0b0; stroke-linecap: round"/>
   </g>
   <g id="patch_3">
    <path d="M 63.72 597.78 
L 63.72 40.32 
" style="fill: none; stroke: #ffffff; stroke-width: 1.25; stroke-linejoin: miter; stroke-linecap: square"/>
   </g>
   <g id="patch_4">
    <path d="M 882.9 597.78 
L 882.9 40.32 
" style="fill: none; stroke: #ffffff; stroke-width: 1.25; stroke-linejoin: miter; stroke-linecap: square"/>
   </g>
   <g id="patch_5">
    <path d="M 63.72 597.78 
L 882.9 597.78 
" style="fill: none; stroke: #ffffff; stroke-width: 1.25; stroke-linejoin: miter; stroke-linecap: square"/>
   </g>
   <g id="patch_6">
    <path d="M 63.72 40.32 
L 882.9 40.32 
" style="fill: none; stroke: #ffffff; stroke-width: 1.25; stroke-linejoin: miter; stroke-linecap: square"/>
   </g>
  </g>
  <g id="axes_2">
   <g id="patch_7">
    <path d="M 895.86 597.78 
L 1715.04 597.78 
L 1715.04 40.32 
L 895.86 40.32 
z
" style="fill: #eaeaf2"/>
   </g>
   <g id="matplotlib.axis_3">
    <g id="xtick_5">
     <g id="line2d_37">
      <path d="M 986.288961 597.78 
L 986.288961 40.32 
" clip-path="url(#p54b13993fc)" style="fill: none; stroke: #ffffff; stroke-linecap: round"/>
     </g>
     <g id="text_15">
      <!-- allgather -->
      <g style="fill: #262626" transform="translate(961.713414 615.638281)scale(0.11 -0.11)">
       <use xlink:href="#DejaVuSans-61"/>
       <use xlink:href="#DejaVuSans-6c" x="61.279297"/>
       <use xlink:href="#DejaVuSans-6c" x="89.0625"/>
       <use xlink:href="#DejaVuSans-67" x="116.845703"/>
       <use xlink:href="#DejaVuSans-61" x="180.322266"/>
       <use xlink:href="#DejaVuSans-74" x="241.601562"/>
       <use xlink:href="#DejaVuSans-68" x="280.810547"/>
       <use xlink:href="#DejaVuSans-65" x="344.189453"/>
       <use xlink:href="#DejaVuSans-72" x="405.712891"/>
      </g>
     </g>
    </g>
    <g id="xtick_6">
     <g id="line2d_38">
      <path d="M 1199.062987 597.78 
L 1199.062987 40.32 
" clip-path="url(#p54b13993fc)" style="fill: none; stroke: #ffffff; stroke-linecap: round"/>
     </g>
     <g id="text_16">
      <!-- allreduce -->
      <g style="fill: #262626" transform="translate(1173.729471 615.638281)scale(0.11 -0.11)">
       <use xlink:href="#DejaVuSans-61"/>
       <use xlink:href="#DejaVuSans-6c" x="61.279297"/>
       <use xlink:href="#DejaVuSans-6c" x="89.0625"/>
       <use xlink:href="#DejaVuSans-72" x="116.845703"/>
       <use xlink:href="#DejaVuSans-65" x="155.708984"/>
       <use xlink:href="#DejaVuSans-64" x="217.232422"/>
       <use xlink:href="#DejaVuSans-75" x="280.708984"/>
       <use xlink:href="#DejaVuSans-63" x="344.087891"/>
       <use xlink:href="#DejaVuSans-65" x="399.068359"/>
      </g>
     </g>
    </g>
    <g id="xtick_7">
     <g id="line2d_39">
      <path d="M 1411.837013 597.78 
L 1411.837013 40.32 
" clip-path="url(#p54b13993fc)" style="fill: none; stroke: #ffffff; stroke-linecap: round"/>
     </g>
     <g id="text_17">
      <!-- allreduce-ring -->
      <g style="fill: #262626" transform="translate(1373.75295 615.638281)scale(0.11 -0.11)">
       <use xlink:href="#DejaVuSans-61"/>
       <use xlink:href="#DejaVuSans-6c" x="61.279297"/>
       <use xlink:href="#DejaVuSans-6c" x="89.0625"/>
       <use xlink:href="#DejaVuSans-72" x="116.845703"/>
       <use xlink:href="#DejaVuSans-65" x="155.708984"/>
       <use xlink:href="#DejaVuSans-64" x="217.232422"/>
       <use xlink:href="#DejaVuSans-75" x="280.708984"/>
       <use xlink:href="#DejaVuSans-63" x="344.087891"/>
       <use xlink:href="#DejaVuSans-65" x="399.068359"/>
       <use xlink:href="#DejaVuSans-2d" x="460.591797"/>
       <use xlink:href="#DejaVuSans-72" x="496.675781"/>
       <use xlink:href="#DejaVuSans-69" x="537.789062"/>
       <use xlink:href="#DejaVuSans-6e" x="565.572266"/>
       <use xlink:href="#DejaVuSans-67" x="628.951172"/>
      </g>
     </g>
    </g>
    <g id="xtick_8">
     <g id="line2d_40">
      <path d="M 1624.611039 597.78 
L 1624.611039 40.32 
" clip-path="url(#p54b13993fc)" style="fill: none; stroke: #ffffff; stroke-linecap: round"/>
     </g>
     <g id="text_18">
      <!-- g-rabenseifner-allgather -->
      <g style="fill: #262626" transform="translate(1558.088539 615.638281)scale(0.11 -0.11)">
       <use xlink:href="#DejaVuSans-67"/>
       <use xlink:href="#DejaVuSans-2d" x="63.476562"/>
       <use xlink:href="#DejaVuSans-72" x="99.560547"/>
       <use xlink:href="#DejaVuSans-61" x="140.673828"/>
       <use xlink:href="#DejaVuSans-62" x="201.953125"/>
       <use xlink:href="#DejaVuSans-65" x="265.429688"/>
       <use xlink:href="#DejaVuSans-6e" x="326.953125"/>
       <use xlink:href="#DejaVuSans-73" x="390.332031"/>
       <use xlink:href="#DejaVuSans-65" x="442.431641"/>
       <use xlink:href="#DejaVuSans-69" x="503.955078"/>
       <use xlink:href="#DejaVuSans-66" x="531.738281"/>
       <use xlink:href="#DejaVuSans-6e" x="566.943359"/>
       <use xlink:href="#DejaVuSans-65" x="630.322266"/>
       <use xlink:href="#DejaVuSans-72" x="691.845703"/>
       <use xlink:href="#DejaVuSans-2d" x="726.583984"/>
       <use xlink:href="#DejaVuSans-61" x="762.667969"/>
       <use xlink:href="#DejaVuSans-6c" x="823.947266"/>
       <use xlink:href="#DejaVuSans-6c" x="851.730469"/>
       <use xlink:href="#DejaVuSans-67" x="879.513672"/>
       <use xlink:href="#DejaVuSans-61" x="942.990234"/>
       <use xlink:href="#DejaVuSans-74" x="1004.269531"/>
       <use xlink:href="#DejaVuSans-68" x="1043.478516"/>
       <use xlink:href="#DejaVuSans-65" x="1106.857422"/>
       <use xlink:href="#DejaVuSans-72" x="1168.380859"/>
      </g>
     </g>
    </g>
    <g id="text_19">
     <!-- [impl] -->
     <g style="fill: #262626" transform="translate(1287.780938 631.044062)scale(0.12 -0.12)">
      <use xlink:href="#DejaVuSans-5b"/>
      <use xlink:href="#DejaVuSans-69" x="39.013672"/>
      <use xlink:href="#DejaVuSans-6d" x="66.796875"/>
      <use xlink:href="#DejaVuSans-70" x="164.208984"/>
      <use xlink:href="#DejaVuSans-6c" x="227.685547"/>
      <use xlink:href="#DejaVuSans-5d" x="255.46875"/>
     </g>
    </g>
   </g>
   <g id="matplotlib.axis_4">
    <g id="ytick_9">
     <g id="line2d_41">
      <path d="M 895.86 586.634563 
L 1715.04 586.634563 
" clip-path="url(#p54b13993fc)" style="fill: none; stroke: #ffffff; stroke-linecap: round"/>
     </g>
    </g>
    <g id="ytick_10">
     <g id="line2d_42">
      <path d="M 895.86 517.040636 
L 1715.04 517.040636 
" clip-path="url(#p54b13993fc)" style="fill: none; stroke: #ffffff; stroke-linecap: round"/>
     </g>
    </g>
    <g id="ytick_11">
     <g id="line2d_43">
      <path d="M 895.86 447.446709 
L 1715.04 447.446709 
" clip-path="url(#p54b13993fc)" style="fill: none; stroke: #ffffff; stroke-linecap: round"/>
     </g>
    </g>
    <g id="ytick_12">
     <g id="line2d_44">
      <path d="M 895.86 377.852783 
L 1715.04 377.852783 
" clip-path="url(#p54b13993fc)" style="fill: none; stroke: #ffffff; stroke-linecap: round"/>
     </g>
    </g>
    <g id="ytick_13">
     <g id="line2d_45">
      <path d="M 895.86 308.258856 
L 1715.04 308.258856 
" clip-path="url(#p54b13993fc)" style="fill: none; stroke: #ffffff; stroke-linecap: round"/>
     </g>
    </g>
    <g id="ytick_14">
     <g id="line2d_46">
      <path d="M 895.86 238.66493 
L 1715.04 238.66493 
" clip-path="url(#p54b13993fc)" style="fill: none; stroke: #ffffff; stroke-linecap: round"/>
     </g>
    </g>
    <g id="ytick_15">
     <g id="line2d_47">
      <path d="M 895.86 169.071003 
L 1715.04 169.071003 
" clip-path="url(#p54b13993fc)" style="fill: none; stroke: #ffffff; stroke-linecap: round"/>
     </g>
    </g>
    <g id="ytick_16">
     <g id="line2d_48">
      <path d="M 895.86 99.477076 
L 1715.04 99.477076 
" clip-path="url(#p54b13993fc)" style="fill: none; stroke: #ffffff; stroke-linecap: round"/>
     </g>
    </g>
   </g>
   <g id="PolyCollection_1">
    <defs>
     <path id="mf17db55316" d="M 998.775257 -150.474531 
L 973.802665 -150.474531 
L 973.398864 -150.864984 
L 973.057878 -151.255438 
L 972.780177 -151.645891 
L 972.564571 -152.036345 
L 972.408339 -152.426798 
L 972.307426 -152.817252 
L 972.256654 -153.207705 
L 972.249954 -153.598158 
L 972.280585 -153.988612 
L 972.341318 -154.379065 
L 972.424594 -154.769519 
L 972.52262 -155.159972 
L 972.627426 -155.550425 
L 972.730867 -155.940879 
L 972.82459 -156.331332 
L 972.899979 -156.721786 
L 972.948086 -157.112239 
L 972.959571 -157.502693 
L 972.924668 -157.893146 
L 972.833185 -158.283599 
L 972.674566 -158.674053 
L 972.438002 -159.064506 
L 972.112616 -159.45496 
L 971.687707 -159.845413 
L 971.153058 -160.235867 
L 970.499292 -160.62632 
L 969.718259 -161.016773 
L 968.803454 -161.407227 
L 967.750418 -161.79768 
L 966.557129 -162.188134 
L 965.224338 -162.578587 
L 963.755843 -162.96904 
L 962.158677 -163.359494 
L 960.443189 -163.749947 
L 958.623014 -164.140401 
L 956.714923 -164.530854 
L 954.738558 -164.921308 
L 952.716044 -165.311761 
L 950.671523 -165.702214 
L 948.630587 -166.092668 
L 946.619681 -166.483121 
L 944.665456 -166.873575 
L 942.794145 -167.264028 
L 941.030951 -167.654482 
L 939.399489 -168.044935 
L 937.921306 -168.435388 
L 936.615474 -168.825842 
L 935.498275 -169.216295 
L 934.582986 -169.606749 
L 933.879733 -169.997202 
L 933.395437 -170.387655 
L 933.133817 -170.778109 
L 933.095455 -171.168562 
L 933.277892 -171.559016 
L 933.675776 -171.949469 
L 934.281025 -172.339923 
L 935.083021 -172.730376 
L 936.068835 -173.120829 
L 937.223478 -173.511283 
L 938.530187 -173.901736 
L 939.970738 -174.29219 
L 941.525805 -174.682643 
L 943.175339 -175.073097 
L 944.898976 -175.46355 
L 946.676454 -175.854003 
L 948.488029 -176.244457 
L 950.314868 -176.63491 
L 952.139407 -177.025364 
L 953.945655 -177.415817 
L 955.719424 -177.80627 
L 957.448492 -178.196724 
L 959.122672 -178.587177 
L 960.733807 -178.977631 
L 962.275687 -179.368084 
L 963.743905 -179.758538 
L 965.135667 -180.148991 
L 966.449572 -180.539444 
L 967.685385 -180.929898 
L 968.843812 -181.320351 
L 969.926302 -181.710805 
L 970.934882 -182.101258 
L 971.872022 -182.491712 
L 972.740557 -182.882165 
L 973.543626 -183.272618 
L 974.284654 -183.663072 
L 974.96735 -184.053525 
L 975.595712 -184.443979 
L 976.174028 -184.834432 
L 976.706869 -185.224886 
L 977.199054 -185.615339 
L 977.655592 -186.005792 
L 978.081599 -186.396246 
L 978.48219 -186.786699 
L 978.862345 -187.177153 
L 979.226772 -187.567606 
L 979.579769 -187.958059 
L 979.925084 -188.348513 
L 980.265812 -188.738966 
L 980.604301 -189.12942 
L 991.973621 -189.12942 
L 991.973621 -189.12942 
L 992.31211 -188.738966 
L 992.652838 -188.348513 
L 992.998153 -187.958059 
L 993.35115 -187.567606 
L 993.715577 -187.177153 
L 994.095732 -186.786699 
L 994.496323 -186.396246 
L 994.92233 -186.005792 
L 995.378868 -185.615339 
L 995.871053 -185.224886 
L 996.403894 -184.834432 
L 996.982211 -184.443979 
L 997.610572 -184.053525 
L 998.293268 -183.663072 
L 999.034296 -183.272618 
L 999.837365 -182.882165 
L 1000.7059 -182.491712 
L 1001.64304 -182.101258 
L 1002.65162 -181.710805 
L 1003.73411 -181.320351 
L 1004.892537 -180.929898 
L 1006.12835 -180.539444 
L 1007.442255 -180.148991 
L 1008.834017 -179.758538 
L 1010.302235 -179.368084 
L 1011.844115 -178.977631 
L 1013.45525 -178.587177 
L 1015.12943 -178.196724 
L 1016.858498 -177.80627 
L 1018.632268 -177.415817 
L 1020.438515 -177.025364 
L 1022.263054 -176.63491 
L 1024.089893 -176.244457 
L 1025.901468 -175.854003 
L 1027.678946 -175.46355 
L 1029.402583 -175.073097 
L 1031.052117 -174.682643 
L 1032.607184 -174.29219 
L 1034.047735 -173.901736 
L 1035.354444 -173.511283 
L 1036.509087 -173.120829 
L 1037.494901 -172.730376 
L 1038.296897 -172.339923 
L 1038.902146 -171.949469 
L 1039.30003 -171.559016 
L 1039.482468 -171.168562 
L 1039.444105 -170.778109 
L 1039.182485 -170.387655 
L 1038.698189 -169.997202 
L 1037.994936 -169.606749 
L 1037.079647 -169.216295 
L 1035.962449 -168.825842 
L 1034.656616 -168.435388 
L 1033.178433 -168.044935 
L 1031.546971 -167.654482 
L 1029.783777 -167.264028 
L 1027.912466 -166.873575 
L 1025.958242 -166.483121 
L 1023.947335 -166.092668 
L 1021.906399 -165.702214 
L 1019.861878 -165.311761 
L 1017.839364 -164.921308 
L 1015.862999 -164.530854 
L 1013.954908 -164.140401 
L 1012.134733 -163.749947 
L 1010.419245 -163.359494 
L 1008.822079 -162.96904 
L 1007.353584 -162.578587 
L 1006.020793 -162.188134 
L 1004.827504 -161.79768 
L 1003.774468 -161.407227 
L 1002.859663 -161.016773 
L 1002.078631 -160.62632 
L 1001.424864 -160.235867 
L 1000.890215 -159.845413 
L 1000.465307 -159.45496 
L 1000.13992 -159.064506 
L 999.903356 -158.674053 
L 999.744737 -158.283599 
L 999.653254 -157.893146 
L 999.618351 -157.502693 
L 999.629836 -157.112239 
L 999.677943 -156.721786 
L 999.753332 -156.331332 
L 999.847055 -155.940879 
L 999.950496 -155.550425 
L 1000.055302 -155.159972 
L 1000.153328 -154.769519 
L 1000.236604 -154.379065 
L 1000.297337 -153.988612 
L 1000.327968 -153.598158 
L 1000.321269 -153.207705 
L 1000.270497 -152.817252 
L 1000.169583 -152.426798 
L 1000.013351 -152.036345 
L 999.797745 -151.645891 
L 999.520045 -151.255438 
L 999.179058 -150.864984 
L 998.775257 -150.474531 
z
" style="stroke: #ffffff; stroke-opacity: 0.3"/>
    </defs>
    <g clip-path="url(#p54b13993fc)">
     <use xlink:href="#mf17db55316" x="0" y="648" style="fill: #4c72b0; fill-opacity: 0.3; stroke: #ffffff; stroke-opacity: 0.3"/>
    </g>
   </g>
   <g id="PolyCollection_2">
    <defs>
     <path id="mf2f72bc733" d="M 1250.954142 -98.859305 
L 1147.171832 -98.859305 
L 1146.299932 -102.270091 
L 1145.869481 -105.680878 
L 1145.878717 -109.091665 
L 1146.313232 -112.502451 
L 1147.146978 -115.913238 
L 1148.343807 -119.324025 
L 1149.859436 -122.734811 
L 1151.643691 -126.145598 
L 1153.642875 -129.556385 
L 1155.802106 -132.967171 
L 1158.067506 -136.377958 
L 1160.388108 -139.788745 
L 1162.717418 -143.199531 
L 1165.014572 -146.610318 
L 1167.245095 -150.021105 
L 1169.38125 -153.431891 
L 1171.40205 -156.842678 
L 1173.292957 -160.253465 
L 1175.045367 -163.664251 
L 1176.655911 -167.075038 
L 1178.12568 -170.485825 
L 1179.459384 -173.896611 
L 1180.664526 -177.307398 
L 1181.750614 -180.718185 
L 1182.728432 -184.128971 
L 1183.609391 -187.539758 
L 1184.404978 -190.950545 
L 1185.126288 -194.361331 
L 1185.783667 -197.772118 
L 1186.386445 -201.182905 
L 1186.942755 -204.593691 
L 1187.459456 -208.004478 
L 1187.942125 -211.415265 
L 1188.395121 -214.826051 
L 1188.821714 -218.236838 
L 1189.224259 -221.647625 
L 1189.604391 -225.058411 
L 1189.963245 -228.469198 
L 1190.301666 -231.879985 
L 1190.620404 -235.290771 
L 1190.920281 -238.701558 
L 1191.202318 -242.112345 
L 1191.467817 -245.523131 
L 1191.718402 -248.933918 
L 1191.956011 -252.344705 
L 1192.182858 -255.755492 
L 1192.401348 -259.166278 
L 1192.613989 -262.577065 
L 1192.823269 -265.987852 
L 1193.031545 -269.398638 
L 1193.24092 -272.809425 
L 1193.453139 -276.220212 
L 1193.669498 -279.630998 
L 1193.890769 -283.041785 
L 1194.11715 -286.452572 
L 1194.348245 -289.863358 
L 1194.583069 -293.274145 
L 1194.82007 -296.684932 
L 1195.057195 -300.095718 
L 1195.291966 -303.506505 
L 1195.521583 -306.917292 
L 1195.743041 -310.328078 
L 1195.953269 -313.738865 
L 1196.149257 -317.149652 
L 1196.3282 -320.560438 
L 1196.487628 -323.971225 
L 1196.625519 -327.382012 
L 1196.740393 -330.792798 
L 1196.831392 -334.203585 
L 1196.898311 -337.614372 
L 1196.941619 -341.025158 
L 1196.962434 -344.435945 
L 1196.962474 -347.846732 
L 1196.943986 -351.257518 
L 1196.909646 -354.668305 
L 1196.862444 -358.079092 
L 1196.805569 -361.489878 
L 1196.74228 -364.900665 
L 1196.675788 -368.311452 
L 1196.609149 -371.722238 
L 1196.545169 -375.133025 
L 1196.486335 -378.543812 
L 1196.434761 -381.954598 
L 1196.392162 -385.365385 
L 1196.359849 -388.776172 
L 1196.338743 -392.186958 
L 1196.329408 -395.597745 
L 1196.332091 -399.008532 
L 1196.346777 -402.419318 
L 1196.373242 -405.830105 
L 1196.411099 -409.240892 
L 1196.45985 -412.651678 
L 1196.518919 -416.062465 
L 1196.587677 -419.473252 
L 1196.665457 -422.884038 
L 1196.751562 -426.294825 
L 1196.845253 -429.705612 
L 1196.945751 -433.116399 
L 1197.052215 -436.527185 
L 1201.073759 -436.527185 
L 1201.073759 -436.527185 
L 1201.180223 -433.116399 
L 1201.280721 -429.705612 
L 1201.374412 -426.294825 
L 1201.460517 -422.884038 
L 1201.538297 -419.473252 
L 1201.607055 -416.062465 
L 1201.666124 -412.651678 
L 1201.714875 -409.240892 
L 1201.752732 -405.830105 
L 1201.779197 -402.419318 
L 1201.793883 -399.008532 
L 1201.796566 -395.597745 
L 1201.787231 -392.186958 
L 1201.766125 -388.776172 
L 1201.733812 -385.365385 
L 1201.691213 -381.954598 
L 1201.639639 -378.543812 
L 1201.580805 -375.133025 
L 1201.516825 -371.722238 
L 1201.450186 -368.311452 
L 1201.383694 -364.900665 
L 1201.320405 -361.489878 
L 1201.26353 -358.079092 
L 1201.216328 -354.668305 
L 1201.181988 -351.257518 
L 1201.1635 -347.846732 
L 1201.16354 -344.435945 
L 1201.184355 -341.025158 
L 1201.227663 -337.614372 
L 1201.294582 -334.203585 
L 1201.385581 -330.792798 
L 1201.500455 -327.382012 
L 1201.638346 -323.971225 
L 1201.797774 -320.560438 
L 1201.976717 -317.149652 
L 1202.172705 -313.738865 
L 1202.382933 -310.328078 
L 1202.604392 -306.917292 
L 1202.834008 -303.506505 
L 1203.068779 -300.095718 
L 1203.305904 -296.684932 
L 1203.542905 -293.274145 
L 1203.777729 -289.863358 
L 1204.008824 -286.452572 
L 1204.235205 -283.041785 
L 1204.456476 -279.630998 
L 1204.672835 -276.220212 
L 1204.885054 -272.809425 
L 1205.094429 -269.398638 
L 1205.302705 -265.987852 
L 1205.511985 -262.577065 
L 1205.724626 -259.166278 
L 1205.943116 -255.755492 
L 1206.169963 -252.344705 
L 1206.407573 -248.933918 
L 1206.658157 -245.523131 
L 1206.923656 -242.112345 
L 1207.205693 -238.701558 
L 1207.50557 -235.290771 
L 1207.824308 -231.879985 
L 1208.162729 -228.469198 
L 1208.521583 -225.058411 
L 1208.901715 -221.647625 
L 1209.30426 -218.236838 
L 1209.730853 -214.826051 
L 1210.183849 -211.415265 
L 1210.666518 -208.004478 
L 1211.183219 -204.593691 
L 1211.739529 -201.182905 
L 1212.342307 -197.772118 
L 1212.999686 -194.361331 
L 1213.720996 -190.950545 
L 1214.516583 -187.539758 
L 1215.397542 -184.128971 
L 1216.37536 -180.718185 
L 1217.461448 -177.307398 
L 1218.666591 -173.896611 
L 1220.000294 -170.485825 
L 1221.470063 -167.075038 
L 1223.080607 -163.664251 
L 1224.833017 -160.253465 
L 1226.723924 -156.842678 
L 1228.744724 -153.431891 
L 1230.880879 -150.021105 
L 1233.111402 -146.610318 
L 1235.408556 -143.199531 
L 1237.737866 -139.788745 
L 1240.058468 -136.377958 
L 1242.323868 -132.967171 
L 1244.483099 -129.556385 
L 1246.482283 -126.145598 
L 1248.266538 -122.734811 
L 1249.782167 -119.324025 
L 1250.978996 -115.913238 
L 1251.812742 -112.502451 
L 1252.247258 -109.091665 
L 1252.256494 -105.680878 
L 1251.826042 -102.270091 
L 1250.954142 -98.859305 
z
" style="stroke: #ffffff; stroke-opacity: 0.3"/>
    </defs>
    <g clip-path="url(#p54b13993fc)">
     <use xlink:href="#mf2f72bc733" x="0" y="648" style="fill: #4c72b0; fill-opacity: 0.3; stroke: #ffffff; stroke-opacity: 0.3"/>
    </g>
   </g>
   <g id="PolyCollection_3">
    <defs>
     <path id="m0ef7f56eb0" d="M 1464.31945 -87.772909 
L 1359.354576 -87.772909 
L 1358.762811 -92.768545 
L 1358.643506 -97.764181 
L 1358.989657 -102.759818 
L 1359.780576 -107.755454 
L 1360.983077 -112.75109 
L 1362.553241 -117.746727 
L 1364.438654 -122.742363 
L 1366.580941 -127.737999 
L 1368.918453 -132.733636 
L 1371.388935 -137.729272 
L 1373.932013 -142.724909 
L 1376.491382 -147.720545 
L 1379.016585 -152.716181 
L 1381.464331 -157.711818 
L 1383.799312 -162.707454 
L 1385.994537 -167.70309 
L 1388.031217 -172.698727 
L 1389.898264 -177.694363 
L 1391.591483 -182.69 
L 1393.112543 -187.685636 
L 1394.467824 -192.681272 
L 1395.667212 -197.676909 
L 1396.722936 -202.672545 
L 1397.648492 -207.668181 
L 1398.457717 -212.663818 
L 1399.164032 -217.659454 
L 1399.779878 -222.655091 
L 1400.316351 -227.650727 
L 1400.783015 -232.646363 
L 1401.187874 -237.642 
L 1401.537492 -242.637636 
L 1401.837202 -247.633272 
L 1402.09139 -252.628909 
L 1402.303811 -257.624545 
L 1402.4779 -262.620181 
L 1402.617061 -267.615818 
L 1402.724899 -272.611454 
L 1402.805387 -277.607091 
L 1402.862949 -282.602727 
L 1402.902475 -287.598363 
L 1402.929242 -292.594 
L 1402.948783 -297.589636 
L 1402.966699 -302.585272 
L 1402.988435 -307.580909 
L 1403.019051 -312.576545 
L 1403.062994 -317.572182 
L 1403.123902 -322.567818 
L 1403.204449 -327.563454 
L 1403.306257 -332.559091 
L 1403.429857 -337.554727 
L 1403.574737 -342.550363 
L 1403.73944 -347.546 
L 1403.921729 -352.541636 
L 1404.11879 -357.537272 
L 1404.327469 -362.532909 
L 1404.544515 -367.528545 
L 1404.766814 -372.524182 
L 1404.991602 -377.519818 
L 1405.216629 -382.515454 
L 1405.440276 -387.511091 
L 1405.661609 -392.506727 
L 1405.880369 -397.502363 
L 1406.096916 -402.498 
L 1406.312101 -407.493636 
L 1406.527125 -412.489273 
L 1406.743353 -417.484909 
L 1406.962134 -422.480545 
L 1407.184619 -427.476182 
L 1407.41161 -432.471818 
L 1407.643432 -437.467454 
L 1407.879855 -442.463091 
L 1408.120054 -447.458727 
L 1408.362625 -452.454363 
L 1408.60563 -457.45 
L 1408.846694 -462.445636 
L 1409.083119 -467.441273 
L 1409.312022 -472.436909 
L 1409.530482 -477.432545 
L 1409.73569 -482.428182 
L 1409.925078 -487.423818 
L 1410.096447 -492.419454 
L 1410.248067 -497.415091 
L 1410.378747 -502.410727 
L 1410.487889 -507.406364 
L 1410.575505 -512.402 
L 1410.642215 -517.397636 
L 1410.689216 -522.393273 
L 1410.718232 -527.388909 
L 1410.731441 -532.384545 
L 1410.73139 -537.380182 
L 1410.720894 -542.375818 
L 1410.702934 -547.371455 
L 1410.68054 -552.367091 
L 1410.656682 -557.362727 
L 1410.634165 -562.358364 
L 1410.615529 -567.354 
L 1410.602968 -572.349636 
L 1410.598259 -577.345273 
L 1410.602716 -582.340909 
L 1413.07131 -582.340909 
L 1413.07131 -582.340909 
L 1413.075767 -577.345273 
L 1413.071058 -572.349636 
L 1413.058497 -567.354 
L 1413.039861 -562.358364 
L 1413.017344 -557.362727 
L 1412.993486 -552.367091 
L 1412.971092 -547.371455 
L 1412.953132 -542.375818 
L 1412.942636 -537.380182 
L 1412.942585 -532.384545 
L 1412.955794 -527.388909 
L 1412.98481 -522.393273 
L 1413.031811 -517.397636 
L 1413.098521 -512.402 
L 1413.186137 -507.406364 
L 1413.295279 -502.410727 
L 1413.425959 -497.415091 
L 1413.577579 -492.419454 
L 1413.748948 -487.423818 
L 1413.938336 -482.428182 
L 1414.143544 -477.432545 
L 1414.362004 -472.436909 
L 1414.590907 -467.441273 
L 1414.827332 -462.445636 
L 1415.068396 -457.45 
L 1415.311401 -452.454363 
L 1415.553972 -447.458727 
L 1415.794171 -442.463091 
L 1416.030594 -437.467454 
L 1416.262416 -432.471818 
L 1416.489407 -427.476182 
L 1416.711892 -422.480545 
L 1416.930673 -417.484909 
L 1417.146901 -412.489273 
L 1417.361925 -407.493636 
L 1417.57711 -402.498 
L 1417.793656 -397.502363 
L 1418.012417 -392.506727 
L 1418.23375 -387.511091 
L 1418.457397 -382.515454 
L 1418.682424 -377.519818 
L 1418.907212 -372.524182 
L 1419.129511 -367.528545 
L 1419.346557 -362.532909 
L 1419.555236 -357.537272 
L 1419.752297 -352.541636 
L 1419.934586 -347.546 
L 1420.099289 -342.550363 
L 1420.244169 -337.554727 
L 1420.367769 -332.559091 
L 1420.469577 -327.563454 
L 1420.550124 -322.567818 
L 1420.611032 -317.572182 
L 1420.654974 -312.576545 
L 1420.685591 -307.580909 
L 1420.707327 -302.585272 
L 1420.725243 -297.589636 
L 1420.744784 -292.594 
L 1420.771551 -287.598363 
L 1420.811077 -282.602727 
L 1420.868639 -277.607091 
L 1420.949127 -272.611454 
L 1421.056965 -267.615818 
L 1421.196126 -262.620181 
L 1421.370215 -257.624545 
L 1421.582636 -252.628909 
L 1421.836824 -247.633272 
L 1422.136534 -242.637636 
L 1422.486152 -237.642 
L 1422.891011 -232.646363 
L 1423.357675 -227.650727 
L 1423.894148 -222.655091 
L 1424.509994 -217.659454 
L 1425.216309 -212.663818 
L 1426.025534 -207.668181 
L 1426.95109 -202.672545 
L 1428.006814 -197.676909 
L 1429.206202 -192.681272 
L 1430.561482 -187.685636 
L 1432.082543 -182.69 
L 1433.775762 -177.694363 
L 1435.642809 -172.698727 
L 1437.679489 -167.70309 
L 1439.874714 -162.707454 
L 1442.209695 -157.711818 
L 1444.657441 -152.716181 
L 1447.182644 -147.720545 
L 1449.742013 -142.724909 
L 1452.285091 -137.729272 
L 1454.755573 -132.733636 
L 1457.093085 -127.737999 
L 1459.235372 -122.742363 
L 1461.120785 -117.746727 
L 1462.690949 -112.75109 
L 1463.89345 -107.755454 
L 1464.684369 -102.759818 
L 1465.030519 -97.764181 
L 1464.911215 -92.768545 
L 1464.31945 -87.772909 
z
" style="stroke: #ffffff; stroke-opacity: 0.3"/>
    </defs>
    <g clip-path="url(#p54b13993fc)">
     <use xlink:href="#m0ef7f56eb0" x="0" y="648" style="fill: #4c72b0; fill-opacity: 0.3; stroke: #ffffff; stroke-opacity: 0.3"/>
    </g>
   </g>
   <g id="PolyCollection_4">
    <defs>
     <path id="mab0cb196ae" d="M 1677.416677 -75.559091 
L 1571.8054 -75.559091 
L 1571.417532 -79.31595 
L 1571.988862 -83.072809 
L 1573.456646 -86.829668 
L 1575.708208 -90.586527 
L 1578.593028 -94.343386 
L 1581.937791 -98.100245 
L 1585.562377 -101.857104 
L 1589.294817 -105.613963 
L 1592.983562 -109.370822 
L 1596.506023 -113.127681 
L 1599.77295 -116.88454 
L 1602.728861 -120.641399 
L 1605.34921 -124.398258 
L 1607.635259 -128.155117 
L 1609.607718 -131.911976 
L 1611.300106 -135.668835 
L 1612.752604 -139.425694 
L 1614.006893 -143.182553 
L 1615.102234 -146.939412 
L 1616.072818 -150.696271 
L 1616.946291 -154.45313 
L 1617.743267 -158.209989 
L 1618.477606 -161.966848 
L 1619.157254 -165.723707 
L 1619.785434 -169.480566 
L 1620.362031 -173.237425 
L 1620.885019 -176.994284 
L 1621.3518 -180.751143 
L 1621.760351 -184.508002 
L 1622.110098 -188.264861 
L 1622.402475 -192.02172 
L 1622.641126 -195.778579 
L 1622.831788 -199.535438 
L 1622.981895 -203.292297 
L 1623.09997 -207.049156 
L 1623.194907 -210.806015 
L 1623.275238 -214.562874 
L 1623.348473 -218.319733 
L 1623.420588 -222.076592 
L 1623.495708 -225.833451 
L 1623.575999 -229.59031 
L 1623.661771 -233.347169 
L 1623.751731 -237.104028 
L 1623.843365 -240.860887 
L 1623.933357 -244.617746 
L 1624.018022 -248.374605 
L 1624.093684 -252.131464 
L 1624.156987 -255.888323 
L 1624.205125 -259.645182 
L 1624.235991 -263.402041 
L 1624.248276 -267.1589 
L 1624.241518 -270.915759 
L 1624.216136 -274.672618 
L 1624.173438 -278.429477 
L 1624.115618 -282.186336 
L 1624.04572 -285.943195 
L 1623.967559 -289.700053 
L 1623.885578 -293.456912 
L 1623.804636 -297.213771 
L 1623.729724 -300.97063 
L 1623.665635 -304.727489 
L 1623.616605 -308.484348 
L 1623.585975 -312.241207 
L 1623.575915 -315.998066 
L 1623.587243 -319.754925 
L 1623.619378 -323.511784 
L 1623.670419 -327.268643 
L 1623.737361 -331.025502 
L 1623.816398 -334.782361 
L 1623.903288 -338.53922 
L 1623.99373 -342.296079 
L 1624.083698 -346.052938 
L 1624.169708 -349.809797 
L 1624.248994 -353.566656 
L 1624.319571 -357.323515 
L 1624.380209 -361.080374 
L 1624.430331 -364.837233 
L 1624.469854 -368.594092 
L 1624.499005 -372.350951 
L 1624.518144 -376.10781 
L 1624.527605 -379.864669 
L 1624.527585 -383.621528 
L 1624.518084 -387.378387 
L 1624.498904 -391.135246 
L 1624.469709 -394.892105 
L 1624.430142 -398.648964 
L 1624.379976 -402.405823 
L 1624.319295 -406.162682 
L 1624.248679 -409.919541 
L 1624.169362 -413.6764 
L 1624.083332 -417.433259 
L 1623.993361 -421.190118 
L 1623.902938 -424.946977 
L 1623.816095 -428.703836 
L 1623.737145 -432.460695 
L 1623.670342 -436.217554 
L 1623.619516 -439.974413 
L 1623.58771 -443.731272 
L 1623.576884 -447.488131 
L 1625.645194 -447.488131 
L 1625.645194 -447.488131 
L 1625.634368 -443.731272 
L 1625.602562 -439.974413 
L 1625.551736 -436.217554 
L 1625.484933 -432.460695 
L 1625.405983 -428.703836 
L 1625.31914 -424.946977 
L 1625.228717 -421.190118 
L 1625.138746 -417.433259 
L 1625.052716 -413.6764 
L 1624.973399 -409.919541 
L 1624.902783 -406.162682 
L 1624.842102 -402.405823 
L 1624.791936 -398.648964 
L 1624.752369 -394.892105 
L 1624.723174 -391.135246 
L 1624.703994 -387.378387 
L 1624.694493 -383.621528 
L 1624.694473 -379.864669 
L 1624.703934 -376.10781 
L 1624.723073 -372.350951 
L 1624.752224 -368.594092 
L 1624.791747 -364.837233 
L 1624.841869 -361.080374 
L 1624.902507 -357.323515 
L 1624.973084 -353.566656 
L 1625.05237 -349.809797 
L 1625.13838 -346.052938 
L 1625.228348 -342.296079 
L 1625.31879 -338.53922 
L 1625.40568 -334.782361 
L 1625.484717 -331.025502 
L 1625.551659 -327.268643 
L 1625.6027 -323.511784 
L 1625.634835 -319.754925 
L 1625.646163 -315.998066 
L 1625.636102 -312.241207 
L 1625.605473 -308.484348 
L 1625.556443 -304.727489 
L 1625.492354 -300.97063 
L 1625.417442 -297.213771 
L 1625.3365 -293.456912 
L 1625.254519 -289.700053 
L 1625.176358 -285.943195 
L 1625.10646 -282.186336 
L 1625.048639 -278.429477 
L 1625.005941 -274.672618 
L 1624.98056 -270.915759 
L 1624.973802 -267.1589 
L 1624.986087 -263.402041 
L 1625.016953 -259.645182 
L 1625.065091 -255.888323 
L 1625.128394 -252.131464 
L 1625.204056 -248.374605 
L 1625.288721 -244.617746 
L 1625.378713 -240.860887 
L 1625.470346 -237.104028 
L 1625.560307 -233.347169 
L 1625.646079 -229.59031 
L 1625.72637 -225.833451 
L 1625.80149 -222.076592 
L 1625.873605 -218.319733 
L 1625.94684 -214.562874 
L 1626.027171 -210.806015 
L 1626.122108 -207.049156 
L 1626.240182 -203.292297 
L 1626.39029 -199.535438 
L 1626.580952 -195.778579 
L 1626.819603 -192.02172 
L 1627.11198 -188.264861 
L 1627.461727 -184.508002 
L 1627.870278 -180.751143 
L 1628.337059 -176.994284 
L 1628.860047 -173.237425 
L 1629.436644 -169.480566 
L 1630.064824 -165.723707 
L 1630.744472 -161.966848 
L 1631.478811 -158.209989 
L 1632.275787 -154.45313 
L 1633.14926 -150.696271 
L 1634.119843 -146.939412 
L 1635.215185 -143.182553 
L 1636.469474 -139.425694 
L 1637.921971 -135.668835 
L 1639.614359 -131.911976 
L 1641.586819 -128.155117 
L 1643.872868 -124.398258 
L 1646.493217 -120.641399 
L 1649.449128 -116.88454 
L 1652.716054 -113.127681 
L 1656.238516 -109.370822 
L 1659.927261 -105.613963 
L 1663.659701 -101.857104 
L 1667.284287 -98.100245 
L 1670.629049 -94.343386 
L 1673.51387 -90.586527 
L 1675.765432 -86.829668 
L 1677.233216 -83.072809 
L 1677.804545 -79.31595 
L 1677.416677 -75.559091 
z
" style="stroke: #ffffff; stroke-opacity: 0.3"/>
    </defs>
    <g clip-path="url(#p54b13993fc)">
     <use xlink:href="#mab0cb196ae" x="0" y="648" style="fill: #4c72b0; fill-opacity: 0.3; stroke: #ffffff; stroke-opacity: 0.3"/>
    </g>
   </g>
   <g id="LineCollection_1">
    <path d="M 959.692208 477.73304 
L 1012.885714 477.73304 
" clip-path="url(#p54b13993fc)" style="fill: none; stroke: #4c72b0; stroke-width: 1.5"/>
    <path d="M 1172.466234 545.075728 
L 1225.65974 545.075728 
" clip-path="url(#p54b13993fc)" style="fill: none; stroke: #4c72b0; stroke-width: 1.5"/>
    <path d="M 1385.24026 558.001422 
L 1438.433766 558.001422 
" clip-path="url(#p54b13993fc)" style="fill: none; stroke: #4c72b0; stroke-width: 1.5"/>
    <path d="M 1598.014286 572.024654 
L 1651.207792 572.024654 
" clip-path="url(#p54b13993fc)" style="fill: none; stroke: #4c72b0; stroke-width: 1.5"/>
   </g>
   <g id="LineCollection_2">
    <path d="M 959.692208 497.392252 
L 1012.885714 497.392252 
" clip-path="url(#p54b13993fc)" style="fill: none; stroke: #4c72b0; stroke-width: 1.5"/>
    <path d="M 959.692208 465.660103 
L 1012.885714 465.660103 
" clip-path="url(#p54b13993fc)" style="fill: none; stroke: #4c72b0; stroke-width: 1.5"/>
    <path d="M 1172.466234 548.951312 
L 1225.65974 548.951312 
" clip-path="url(#p54b13993fc)" style="fill: none; stroke: #4c72b0; stroke-width: 1.5"/>
    <path d="M 1172.466234 353.372367 
L 1225.65974 353.372367 
" clip-path="url(#p54b13993fc)" style="fill: none; stroke: #4c72b0; stroke-width: 1.5"/>
    <path d="M 1385.24026 560.168426 
L 1438.433766 560.168426 
" clip-path="url(#p54b13993fc)" style="fill: none; stroke: #4c72b0; stroke-width: 1.5"/>
    <path d="M 1385.24026 241.295669 
L 1438.433766 241.295669 
" clip-path="url(#p54b13993fc)" style="fill: none; stroke: #4c72b0; stroke-width: 1.5"/>
    <path d="M 1598.014286 572.408434 
L 1651.207792 572.408434 
" clip-path="url(#p54b13993fc)" style="fill: none; stroke: #4c72b0; stroke-width: 1.5"/>
    <path d="M 1598.014286 485.186297 
L 1651.207792 485.186297 
" clip-path="url(#p54b13993fc)" style="fill: none; stroke: #4c72b0; stroke-width: 1.5"/>
   </g>
   <g id="patch_8">
    <path d="M 895.86 597.78 
L 895.86 40.32 
" style="fill: none; stroke: #ffffff; stroke-width: 1.25; stroke-linejoin: miter; stroke-linecap: square"/>
   </g>
   <g id="patch_9">
    <path d="M 1715.04 597.78 
L 1715.04 40.32 
" style="fill: none; stroke: #ffffff; stroke-width: 1.25; stroke-linejoin: miter; stroke-linecap: square"/>
   </g>
   <g id="patch_10">
    <path d="M 895.86 597.78 
L 1715.04 597.78 
" style="fill: none; stroke: #ffffff; stroke-width: 1.25; stroke-linejoin: miter; stroke-linecap: square"/>
   </g>
   <g id="patch_11">
    <path d="M 895.86 40.32 
L 1715.04 40.32 
" style="fill: none; stroke: #ffffff; stroke-width: 1.25; stroke-linejoin: miter; stroke-linecap: square"/>
   </g>
   <g id="legend_1">
    <g id="patch_12">
     <path d="M 1702.94 54.62 
L 1707.34 54.62 
Q 1709.54 54.62 1709.54 52.42 
L 1709.54 48.02 
Q 1709.54 45.82 1707.34 45.82 
L 1702.94 45.82 
Q 1700.74 45.82 1700.74 48.02 
L 1700.74 52.42 
Q 1700.74 54.62 1702.94 54.62 
z
" style="fill: #eaeaf2; opacity: 0.8; stroke: #cccccc; stroke-linejoin: miter"/>
    </g>
   </g>
  </g>
  <g id="text_20">
   <!-- Runtime plots for N = M = 8000 and num_procs = 48 -->
   <g style="fill: #262626" transform="translate(671.353875 23.90175)scale(0.144 -0.144)">
    <defs>
     <path id="DejaVuSans-6f" d="M 1959 3097 
Q 1497 3097 1228 2736 
Q 959 2375 959 1747 
Q 959 1119 1226 758 
Q 1494 397 1959 397 
Q 2419 397 2687 759 
Q 2956 1122 2956 1747 
Q 2956 2369 2687 2733 
Q 2419 3097 1959 3097 
z
M 1959 3584 
Q 2709 3584 3137 3096 
Q 3566 2609 3566 1747 
Q 3566 888 3137 398 
Q 2709 -91 1959 -91 
Q 1206 -91 779 398 
Q 353 888 353 1747 
Q 353 2609 779 3096 
Q 1206 3584 1959 3584 
z
" transform="scale(0.015625)"/>
     <path id="DejaVuSans-4e" d="M 628 4666 
L 1478 4666 
L 3547 763 
L 3547 4666 
L 4159 4666 
L 4159 0 
L 3309 0 
L 1241 3903 
L 1241 0 
L 628 0 
L 628 4666 
z
" transform="scale(0.015625)"/>
     <path id="DejaVuSans-3d" d="M 678 2906 
L 4684 2906 
L 4684 2381 
L 678 2381 
L 678 2906 
z
M 678 1631 
L 4684 1631 
L 4684 1100 
L 678 1100 
L 678 1631 
z
" transform="scale(0.015625)"/>
     <path id="DejaVuSans-4d" d="M 628 4666 
L 1569 4666 
L 2759 1491 
L 3956 4666 
L 4897 4666 
L 4897 0 
L 4281 0 
L 4281 4097 
L 3078 897 
L 2444 897 
L 1241 4097 
L 1241 0 
L 628 0 
L 628 4666 
z
" transform="scale(0.015625)"/>
     <path id="DejaVuSans-38" d="M 2034 2216 
Q 1584 2216 1326 1975 
Q 1069 1734 1069 1313 
Q 1069 891 1326 650 
Q 1584 409 2034 409 
Q 2484 409 2743 651 
Q 3003 894 3003 1313 
Q 3003 1734 2745 1975 
Q 2488 2216 2034 2216 
z
M 1403 2484 
Q 997 2584 770 2862 
Q 544 3141 544 3541 
Q 544 4100 942 4425 
Q 1341 4750 2034 4750 
Q 2731 4750 3128 4425 
Q 3525 4100 3525 3541 
Q 3525 3141 3298 2862 
Q 3072 2584 2669 2484 
Q 3125 2378 3379 2068 
Q 3634 1759 3634 1313 
Q 3634 634 3220 271 
Q 2806 -91 2034 -91 
Q 1263 -91 848 271 
Q 434 634 434 1313 
Q 434 1759 690 2068 
Q 947 2378 1403 2484 
z
M 1172 3481 
Q 1172 3119 1398 2916 
Q 1625 2713 2034 2713 
Q 2441 2713 2670 2916 
Q 2900 3119 2900 3481 
Q 2900 3844 2670 4047 
Q 2441 4250 2034 4250 
Q 1625 4250 1398 4047 
Q 1172 3844 1172 3481 
z
" transform="scale(0.015625)"/>
     <path id="DejaVuSans-5f" d="M 3263 -1063 
L 3263 -1509 
L -63 -1509 
L -63 -1063 
L 3263 -1063 
z
" transform="scale(0.015625)"/>
     <path id="DejaVuSans-34" d="M 2419 4116 
L 825 1625 
L 2419 1625 
L 2419 4116 
z
M 2253 4666 
L 3047 4666 
L 3047 1625 
L 3713 1625 
L 3713 1100 
L 3047 1100 
L 3047 0 
L 2419 0 
L 2419 1100 
L 313 1100 
L 313 1709 
L 2253 4666 
z
" transform="scale(0.015625)"/>
    </defs>
    <use xlink:href="#DejaVuSans-52"/>
    <use xlink:href="#DejaVuSans-75" x="64.982422"/>
    <use xlink:href="#DejaVuSans-6e" x="128.361328"/>
    <use xlink:href="#DejaVuSans-74" x="191.740234"/>
    <use xlink:href="#DejaVuSans-69" x="230.949219"/>
    <use xlink:href="#DejaVuSans-6d" x="258.732422"/>
    <use xlink:href="#DejaVuSans-65" x="356.144531"/>
    <use xlink:href="#DejaVuSans-20" x="417.667969"/>
    <use xlink:href="#DejaVuSans-70" x="449.455078"/>
    <use xlink:href="#DejaVuSans-6c" x="512.931641"/>
    <use xlink:href="#DejaVuSans-6f" x="540.714844"/>
    <use xlink:href="#DejaVuSans-74" x="601.896484"/>
    <use xlink:href="#DejaVuSans-73" x="641.105469"/>
    <use xlink:href="#DejaVuSans-20" x="693.205078"/>
    <use xlink:href="#DejaVuSans-66" x="724.992188"/>
    <use xlink:href="#DejaVuSans-6f" x="760.197266"/>
    <use xlink:href="#DejaVuSans-72" x="821.378906"/>
    <use xlink:href="#DejaVuSans-20" x="862.492188"/>
    <use xlink:href="#DejaVuSans-4e" x="894.279297"/>
    <use xlink:href="#DejaVuSans-20" x="969.083984"/>
    <use xlink:href="#DejaVuSans-3d" x="1000.871094"/>
    <use xlink:href="#DejaVuSans-20" x="1084.660156"/>
    <use xlink:href="#DejaVuSans-4d" x="1116.447266"/>
    <use xlink:href="#DejaVuSans-20" x="1202.726562"/>
    <use xlink:href="#DejaVuSans-3d" x="1234.513672"/>
    <use xlink:href="#DejaVuSans-20" x="1318.302734"/>
    <use xlink:href="#DejaVuSans-38" x="1350.089844"/>
    <use xlink:href="#DejaVuSans-30" x="1413.712891"/>
    <use xlink:href="#DejaVuSans-30" x="1477.335938"/>
    <use xlink:href="#DejaVuSans-30" x="1540.958984"/>
    <use xlink:href="#DejaVuSans-20" x="1604.582031"/>
    <use xlink:href="#DejaVuSans-61" x="1636.369141"/>
    <use xlink:href="#DejaVuSans-6e" x="1697.648438"/>
    <use xlink:href="#DejaVuSans-64" x="1761.027344"/>
    <use xlink:href="#DejaVuSans-20" x="1824.503906"/>
    <use xlink:href="#DejaVuSans-6e" x="1856.291016"/>
    <use xlink:href="#DejaVuSans-75" x="1919.669922"/>
    <use xlink:href="#DejaVuSans-6d" x="1983.048828"/>
    <use xlink:href="#DejaVuSans-5f" x="2080.460938"/>
    <use xlink:href="#DejaVuSans-70" x="2130.460938"/>
    <use xlink:href="#DejaVuSans-72" x="2193.9375"/>
    <use xlink:href="#DejaVuSans-6f" x="2232.800781"/>
    <use xlink:href="#DejaVuSans-63" x="2293.982422"/>
    <use xlink:href="#DejaVuSans-73" x="2348.962891"/>
    <use xlink:href="#DejaVuSans-20" x="2401.0625"/>
    <use xlink:href="#DejaVuSans-3d" x="2432.849609"/>
    <use xlink:href="#DejaVuSans-20" x="2516.638672"/>
    <use xlink:href="#DejaVuSans-34" x="2548.425781"/>
    <use xlink:href="#DejaVuSans-38" x="2612.048828"/>
   </g>
  </g>
 </g>
 <defs>
  <clipPath id="p4dc85f3e3f">
   <rect x="63.72" y="40.32" width="819.18" height="557.46"/>
  </clipPath>
  <clipPath id="p54b13993fc">
   <rect x="895.86" y="40.32" width="819.18" height="557.46"/>
  </clipPath>
 </defs>
</svg>
