<?xml version="1.0" encoding="utf-8" standalone="no"?>
<!DOCTYPE svg PUBLIC "-//W3C//DTD SVG 1.1//EN"
  "http://www.w3.org/Graphics/SVG/1.1/DTD/svg11.dtd">
<svg xmlns:xlink="http://www.w3.org/1999/xlink" width="600pt" height="504pt" viewBox="0 0 600 504" xmlns="http://www.w3.org/2000/svg" version="1.1">
 <metadata>
  <rdf:RDF xmlns:dc="http://purl.org/dc/elements/1.1/" xmlns:cc="http://creativecommons.org/ns#" xmlns:rdf="http://www.w3.org/1999/02/22-rdf-syntax-ns#">
   <cc:Work>
    <dc:type rdf:resource="http://purl.org/dc/dcmitype/StillImage"/>
    <dc:date>2021-12-30T22:06:30.405150</dc:date>
    <dc:format>image/svg+xml</dc:format>
    <dc:creator>
     <cc:Agent>
      <dc:title>Matplotlib v3.5.1, https://matplotlib.org/</dc:title>
     </cc:Agent>
    </dc:creator>
   </cc:Work>
  </rdf:RDF>
 </metadata>
 <defs>
  <style type="text/css">*{stroke-linejoin: round; stroke-linecap: butt}</style>
 </defs>
 <g id="figure_1">
  <g id="patch_1">
   <path d="M 0 504 
L 600 504 
L 600 0 
L 0 0 
z
" style="fill: #ffffff"/>
  </g>
  <g id="axes_1">
   <g id="patch_2">
    <path d="M 56.88 444.1 
L 587.04 444.1 
L 587.04 55.68 
L 56.88 55.68 
z
" style="fill: #eaeaf2"/>
   </g>
   <g id="matplotlib.axis_1">
    <g id="xtick_1">
     <g id="line2d_1">
      <path d="M 80.978182 444.1 
L 80.978182 55.68 
" clip-path="url(#p8a5c4dd8b6)" style="fill: none; stroke: #ffffff; stroke-linecap: round"/>
     </g>
     <g id="text_1">
      <!-- 1000 -->
      <g style="fill: #262626" transform="translate(66.980682 461.958281)scale(0.11 -0.11)">
       <defs>
        <path id="DejaVuSans-31" d="M 794 531 
L 1825 531 
L 1825 4091 
L 703 3866 
L 703 4441 
L 1819 4666 
L 2450 4666 
L 2450 531 
L 3481 531 
L 3481 0 
L 794 0 
L 794 531 
z
" transform="scale(0.015625)"/>
        <path id="DejaVuSans-30" d="M 2034 4250 
Q 1547 4250 1301 3770 
Q 1056 3291 1056 2328 
Q 1056 1369 1301 889 
Q 1547 409 2034 409 
Q 2525 409 2770 889 
Q 3016 1369 3016 2328 
Q 3016 3291 2770 3770 
Q 2525 4250 2034 4250 
z
M 2034 4750 
Q 2819 4750 3233 4129 
Q 3647 3509 3647 2328 
Q 3647 1150 3233 529 
Q 2819 -91 2034 -91 
Q 1250 -91 836 529 
Q 422 1150 422 2328 
Q 422 3509 836 4129 
Q 1250 4750 2034 4750 
z
" transform="scale(0.015625)"/>
       </defs>
       <use xlink:href="#DejaVuSans-31"/>
       <use xlink:href="#DejaVuSans-30" x="63.623047"/>
       <use xlink:href="#DejaVuSans-30" x="127.246094"/>
       <use xlink:href="#DejaVuSans-30" x="190.869141"/>
      </g>
     </g>
    </g>
    <g id="xtick_2">
     <g id="line2d_2">
      <path d="M 149.83013 444.1 
L 149.83013 55.68 
" clip-path="url(#p8a5c4dd8b6)" style="fill: none; stroke: #ffffff; stroke-linecap: round"/>
     </g>
     <g id="text_2">
      <!-- 2000 -->
      <g style="fill: #262626" transform="translate(135.83263 461.958281)scale(0.11 -0.11)">
       <defs>
        <path id="DejaVuSans-32" d="M 1228 531 
L 3431 531 
L 3431 0 
L 469 0 
L 469 531 
Q 828 903 1448 1529 
Q 2069 2156 2228 2338 
Q 2531 2678 2651 2914 
Q 2772 3150 2772 3378 
Q 2772 3750 2511 3984 
Q 2250 4219 1831 4219 
Q 1534 4219 1204 4116 
Q 875 4013 500 3803 
L 500 4441 
Q 881 4594 1212 4672 
Q 1544 4750 1819 4750 
Q 2544 4750 2975 4387 
Q 3406 4025 3406 3419 
Q 3406 3131 3298 2873 
Q 3191 2616 2906 2266 
Q 2828 2175 2409 1742 
Q 1991 1309 1228 531 
z
" transform="scale(0.015625)"/>
       </defs>
       <use xlink:href="#DejaVuSans-32"/>
       <use xlink:href="#DejaVuSans-30" x="63.623047"/>
       <use xlink:href="#DejaVuSans-30" x="127.246094"/>
       <use xlink:href="#DejaVuSans-30" x="190.869141"/>
      </g>
     </g>
    </g>
    <g id="xtick_3">
     <g id="line2d_3">
      <path d="M 218.682078 444.1 
L 218.682078 55.68 
" clip-path="url(#p8a5c4dd8b6)" style="fill: none; stroke: #ffffff; stroke-linecap: round"/>
     </g>
     <g id="text_3">
      <!-- 3000 -->
      <g style="fill: #262626" transform="translate(204.684578 461.958281)scale(0.11 -0.11)">
       <defs>
        <path id="DejaVuSans-33" d="M 2597 2516 
Q 3050 2419 3304 2112 
Q 3559 1806 3559 1356 
Q 3559 666 3084 287 
Q 2609 -91 1734 -91 
Q 1441 -91 1130 -33 
Q 819 25 488 141 
L 488 750 
Q 750 597 1062 519 
Q 1375 441 1716 441 
Q 2309 441 2620 675 
Q 2931 909 2931 1356 
Q 2931 1769 2642 2001 
Q 2353 2234 1838 2234 
L 1294 2234 
L 1294 2753 
L 1863 2753 
Q 2328 2753 2575 2939 
Q 2822 3125 2822 3475 
Q 2822 3834 2567 4026 
Q 2313 4219 1838 4219 
Q 1578 4219 1281 4162 
Q 984 4106 628 3988 
L 628 4550 
Q 988 4650 1302 4700 
Q 1616 4750 1894 4750 
Q 2613 4750 3031 4423 
Q 3450 4097 3450 3541 
Q 3450 3153 3228 2886 
Q 3006 2619 2597 2516 
z
" transform="scale(0.015625)"/>
       </defs>
       <use xlink:href="#DejaVuSans-33"/>
       <use xlink:href="#DejaVuSans-30" x="63.623047"/>
       <use xlink:href="#DejaVuSans-30" x="127.246094"/>
       <use xlink:href="#DejaVuSans-30" x="190.869141"/>
      </g>
     </g>
    </g>
    <g id="xtick_4">
     <g id="line2d_4">
      <path d="M 287.534026 444.1 
L 287.534026 55.68 
" clip-path="url(#p8a5c4dd8b6)" style="fill: none; stroke: #ffffff; stroke-linecap: round"/>
     </g>
     <g id="text_4">
      <!-- 4000 -->
      <g style="fill: #262626" transform="translate(273.536526 461.958281)scale(0.11 -0.11)">
       <defs>
        <path id="DejaVuSans-34" d="M 2419 4116 
L 825 1625 
L 2419 1625 
L 2419 4116 
z
M 2253 4666 
L 3047 4666 
L 3047 1625 
L 3713 1625 
L 3713 1100 
L 3047 1100 
L 3047 0 
L 2419 0 
L 2419 1100 
L 313 1100 
L 313 1709 
L 2253 4666 
z
" transform="scale(0.015625)"/>
       </defs>
       <use xlink:href="#DejaVuSans-34"/>
       <use xlink:href="#DejaVuSans-30" x="63.623047"/>
       <use xlink:href="#DejaVuSans-30" x="127.246094"/>
       <use xlink:href="#DejaVuSans-30" x="190.869141"/>
      </g>
     </g>
    </g>
    <g id="xtick_5">
     <g id="line2d_5">
      <path d="M 356.385974 444.1 
L 356.385974 55.68 
" clip-path="url(#p8a5c4dd8b6)" style="fill: none; stroke: #ffffff; stroke-linecap: round"/>
     </g>
     <g id="text_5">
      <!-- 5000 -->
      <g style="fill: #262626" transform="translate(342.388474 461.958281)scale(0.11 -0.11)">
       <defs>
        <path id="DejaVuSans-35" d="M 691 4666 
L 3169 4666 
L 3169 4134 
L 1269 4134 
L 1269 2991 
Q 1406 3038 1543 3061 
Q 1681 3084 1819 3084 
Q 2600 3084 3056 2656 
Q 3513 2228 3513 1497 
Q 3513 744 3044 326 
Q 2575 -91 1722 -91 
Q 1428 -91 1123 -41 
Q 819 9 494 109 
L 494 744 
Q 775 591 1075 516 
Q 1375 441 1709 441 
Q 2250 441 2565 725 
Q 2881 1009 2881 1497 
Q 2881 1984 2565 2268 
Q 2250 2553 1709 2553 
Q 1456 2553 1204 2497 
Q 953 2441 691 2322 
L 691 4666 
z
" transform="scale(0.015625)"/>
       </defs>
       <use xlink:href="#DejaVuSans-35"/>
       <use xlink:href="#DejaVuSans-30" x="63.623047"/>
       <use xlink:href="#DejaVuSans-30" x="127.246094"/>
       <use xlink:href="#DejaVuSans-30" x="190.869141"/>
      </g>
     </g>
    </g>
    <g id="xtick_6">
     <g id="line2d_6">
      <path d="M 425.237922 444.1 
L 425.237922 55.68 
" clip-path="url(#p8a5c4dd8b6)" style="fill: none; stroke: #ffffff; stroke-linecap: round"/>
     </g>
     <g id="text_6">
      <!-- 6000 -->
      <g style="fill: #262626" transform="translate(411.240422 461.958281)scale(0.11 -0.11)">
       <defs>
        <path id="DejaVuSans-36" d="M 2113 2584 
Q 1688 2584 1439 2293 
Q 1191 2003 1191 1497 
Q 1191 994 1439 701 
Q 1688 409 2113 409 
Q 2538 409 2786 701 
Q 3034 994 3034 1497 
Q 3034 2003 2786 2293 
Q 2538 2584 2113 2584 
z
M 3366 4563 
L 3366 3988 
Q 3128 4100 2886 4159 
Q 2644 4219 2406 4219 
Q 1781 4219 1451 3797 
Q 1122 3375 1075 2522 
Q 1259 2794 1537 2939 
Q 1816 3084 2150 3084 
Q 2853 3084 3261 2657 
Q 3669 2231 3669 1497 
Q 3669 778 3244 343 
Q 2819 -91 2113 -91 
Q 1303 -91 875 529 
Q 447 1150 447 2328 
Q 447 3434 972 4092 
Q 1497 4750 2381 4750 
Q 2619 4750 2861 4703 
Q 3103 4656 3366 4563 
z
" transform="scale(0.015625)"/>
       </defs>
       <use xlink:href="#DejaVuSans-36"/>
       <use xlink:href="#DejaVuSans-30" x="63.623047"/>
       <use xlink:href="#DejaVuSans-30" x="127.246094"/>
       <use xlink:href="#DejaVuSans-30" x="190.869141"/>
      </g>
     </g>
    </g>
    <g id="xtick_7">
     <g id="line2d_7">
      <path d="M 494.08987 444.1 
L 494.08987 55.68 
" clip-path="url(#p8a5c4dd8b6)" style="fill: none; stroke: #ffffff; stroke-linecap: round"/>
     </g>
     <g id="text_7">
      <!-- 7000 -->
      <g style="fill: #262626" transform="translate(480.09237 461.958281)scale(0.11 -0.11)">
       <defs>
        <path id="DejaVuSans-37" d="M 525 4666 
L 3525 4666 
L 3525 4397 
L 1831 0 
L 1172 0 
L 2766 4134 
L 525 4134 
L 525 4666 
z
" transform="scale(0.015625)"/>
       </defs>
       <use xlink:href="#DejaVuSans-37"/>
       <use xlink:href="#DejaVuSans-30" x="63.623047"/>
       <use xlink:href="#DejaVuSans-30" x="127.246094"/>
       <use xlink:href="#DejaVuSans-30" x="190.869141"/>
      </g>
     </g>
    </g>
    <g id="xtick_8">
     <g id="line2d_8">
      <path d="M 562.941818 444.1 
L 562.941818 55.68 
" clip-path="url(#p8a5c4dd8b6)" style="fill: none; stroke: #ffffff; stroke-linecap: round"/>
     </g>
     <g id="text_8">
      <!-- 8000 -->
      <g style="fill: #262626" transform="translate(548.944318 461.958281)scale(0.11 -0.11)">
       <defs>
        <path id="DejaVuSans-38" d="M 2034 2216 
Q 1584 2216 1326 1975 
Q 1069 1734 1069 1313 
Q 1069 891 1326 650 
Q 1584 409 2034 409 
Q 2484 409 2743 651 
Q 3003 894 3003 1313 
Q 3003 1734 2745 1975 
Q 2488 2216 2034 2216 
z
M 1403 2484 
Q 997 2584 770 2862 
Q 544 3141 544 3541 
Q 544 4100 942 4425 
Q 1341 4750 2034 4750 
Q 2731 4750 3128 4425 
Q 3525 4100 3525 3541 
Q 3525 3141 3298 2862 
Q 3072 2584 2669 2484 
Q 3125 2378 3379 2068 
Q 3634 1759 3634 1313 
Q 3634 634 3220 271 
Q 2806 -91 2034 -91 
Q 1263 -91 848 271 
Q 434 634 434 1313 
Q 434 1759 690 2068 
Q 947 2378 1403 2484 
z
M 1172 3481 
Q 1172 3119 1398 2916 
Q 1625 2713 2034 2713 
Q 2441 2713 2670 2916 
Q 2900 3119 2900 3481 
Q 2900 3844 2670 4047 
Q 2441 4250 2034 4250 
Q 1625 4250 1398 4047 
Q 1172 3844 1172 3481 
z
" transform="scale(0.015625)"/>
       </defs>
       <use xlink:href="#DejaVuSans-38"/>
       <use xlink:href="#DejaVuSans-30" x="63.623047"/>
       <use xlink:href="#DejaVuSans-30" x="127.246094"/>
       <use xlink:href="#DejaVuSans-30" x="190.869141"/>
      </g>
     </g>
    </g>
   </g>
   <g id="matplotlib.axis_2">
    <g id="ytick_1">
     <g id="line2d_9">
      <path d="M 56.88 431.46326 
L 587.04 431.46326 
" clip-path="url(#p8a5c4dd8b6)" style="fill: none; stroke: #ffffff; stroke-linecap: round"/>
     </g>
     <g id="text_9">
      <!-- 0.5 -->
      <g style="fill: #262626" transform="translate(29.886562 435.6424)scale(0.11 -0.11)">
       <defs>
        <path id="DejaVuSans-2e" d="M 684 794 
L 1344 794 
L 1344 0 
L 684 0 
L 684 794 
z
" transform="scale(0.015625)"/>
       </defs>
       <use xlink:href="#DejaVuSans-30"/>
       <use xlink:href="#DejaVuSans-2e" x="63.623047"/>
       <use xlink:href="#DejaVuSans-35" x="95.410156"/>
      </g>
     </g>
    </g>
    <g id="ytick_2">
     <g id="line2d_10">
      <path d="M 56.88 357.31986 
L 587.04 357.31986 
" clip-path="url(#p8a5c4dd8b6)" style="fill: none; stroke: #ffffff; stroke-linecap: round"/>
     </g>
     <g id="text_10">
      <!-- 1.0 -->
      <g style="fill: #262626" transform="translate(29.886562 361.499)scale(0.11 -0.11)">
       <use xlink:href="#DejaVuSans-31"/>
       <use xlink:href="#DejaVuSans-2e" x="63.623047"/>
       <use xlink:href="#DejaVuSans-30" x="95.410156"/>
      </g>
     </g>
    </g>
    <g id="ytick_3">
     <g id="line2d_11">
      <path d="M 56.88 283.176459 
L 587.04 283.176459 
" clip-path="url(#p8a5c4dd8b6)" style="fill: none; stroke: #ffffff; stroke-linecap: round"/>
     </g>
     <g id="text_11">
      <!-- 1.5 -->
      <g style="fill: #262626" transform="translate(29.886562 287.3556)scale(0.11 -0.11)">
       <use xlink:href="#DejaVuSans-31"/>
       <use xlink:href="#DejaVuSans-2e" x="63.623047"/>
       <use xlink:href="#DejaVuSans-35" x="95.410156"/>
      </g>
     </g>
    </g>
    <g id="ytick_4">
     <g id="line2d_12">
      <path d="M 56.88 209.033059 
L 587.04 209.033059 
" clip-path="url(#p8a5c4dd8b6)" style="fill: none; stroke: #ffffff; stroke-linecap: round"/>
     </g>
     <g id="text_12">
      <!-- 2.0 -->
      <g style="fill: #262626" transform="translate(29.886562 213.2122)scale(0.11 -0.11)">
       <use xlink:href="#DejaVuSans-32"/>
       <use xlink:href="#DejaVuSans-2e" x="63.623047"/>
       <use xlink:href="#DejaVuSans-30" x="95.410156"/>
      </g>
     </g>
    </g>
    <g id="ytick_5">
     <g id="line2d_13">
      <path d="M 56.88 134.889659 
L 587.04 134.889659 
" clip-path="url(#p8a5c4dd8b6)" style="fill: none; stroke: #ffffff; stroke-linecap: round"/>
     </g>
     <g id="text_13">
      <!-- 2.5 -->
      <g style="fill: #262626" transform="translate(29.886562 139.0688)scale(0.11 -0.11)">
       <use xlink:href="#DejaVuSans-32"/>
       <use xlink:href="#DejaVuSans-2e" x="63.623047"/>
       <use xlink:href="#DejaVuSans-35" x="95.410156"/>
      </g>
     </g>
    </g>
    <g id="ytick_6">
     <g id="line2d_14">
      <path d="M 56.88 60.746259 
L 587.04 60.746259 
" clip-path="url(#p8a5c4dd8b6)" style="fill: none; stroke: #ffffff; stroke-linecap: round"/>
     </g>
     <g id="text_14">
      <!-- 3.0 -->
      <g style="fill: #262626" transform="translate(29.886562 64.925399)scale(0.11 -0.11)">
       <use xlink:href="#DejaVuSans-33"/>
       <use xlink:href="#DejaVuSans-2e" x="63.623047"/>
       <use xlink:href="#DejaVuSans-30" x="95.410156"/>
      </g>
     </g>
    </g>
    <g id="text_15">
     <!-- Speedup -->
     <g style="fill: #262626" transform="translate(23.390937 276.3125)rotate(-90)scale(0.12 -0.12)">
      <defs>
       <path id="DejaVuSans-53" d="M 3425 4513 
L 3425 3897 
Q 3066 4069 2747 4153 
Q 2428 4238 2131 4238 
Q 1616 4238 1336 4038 
Q 1056 3838 1056 3469 
Q 1056 3159 1242 3001 
Q 1428 2844 1947 2747 
L 2328 2669 
Q 3034 2534 3370 2195 
Q 3706 1856 3706 1288 
Q 3706 609 3251 259 
Q 2797 -91 1919 -91 
Q 1588 -91 1214 -16 
Q 841 59 441 206 
L 441 856 
Q 825 641 1194 531 
Q 1563 422 1919 422 
Q 2459 422 2753 634 
Q 3047 847 3047 1241 
Q 3047 1584 2836 1778 
Q 2625 1972 2144 2069 
L 1759 2144 
Q 1053 2284 737 2584 
Q 422 2884 422 3419 
Q 422 4038 858 4394 
Q 1294 4750 2059 4750 
Q 2388 4750 2728 4690 
Q 3069 4631 3425 4513 
z
" transform="scale(0.015625)"/>
       <path id="DejaVuSans-70" d="M 1159 525 
L 1159 -1331 
L 581 -1331 
L 581 3500 
L 1159 3500 
L 1159 2969 
Q 1341 3281 1617 3432 
Q 1894 3584 2278 3584 
Q 2916 3584 3314 3078 
Q 3713 2572 3713 1747 
Q 3713 922 3314 415 
Q 2916 -91 2278 -91 
Q 1894 -91 1617 61 
Q 1341 213 1159 525 
z
M 3116 1747 
Q 3116 2381 2855 2742 
Q 2594 3103 2138 3103 
Q 1681 3103 1420 2742 
Q 1159 2381 1159 1747 
Q 1159 1113 1420 752 
Q 1681 391 2138 391 
Q 2594 391 2855 752 
Q 3116 1113 3116 1747 
z
" transform="scale(0.015625)"/>
       <path id="DejaVuSans-65" d="M 3597 1894 
L 3597 1613 
L 953 1613 
Q 991 1019 1311 708 
Q 1631 397 2203 397 
Q 2534 397 2845 478 
Q 3156 559 3463 722 
L 3463 178 
Q 3153 47 2828 -22 
Q 2503 -91 2169 -91 
Q 1331 -91 842 396 
Q 353 884 353 1716 
Q 353 2575 817 3079 
Q 1281 3584 2069 3584 
Q 2775 3584 3186 3129 
Q 3597 2675 3597 1894 
z
M 3022 2063 
Q 3016 2534 2758 2815 
Q 2500 3097 2075 3097 
Q 1594 3097 1305 2825 
Q 1016 2553 972 2059 
L 3022 2063 
z
" transform="scale(0.015625)"/>
       <path id="DejaVuSans-64" d="M 2906 2969 
L 2906 4863 
L 3481 4863 
L 3481 0 
L 2906 0 
L 2906 525 
Q 2725 213 2448 61 
Q 2172 -91 1784 -91 
Q 1150 -91 751 415 
Q 353 922 353 1747 
Q 353 2572 751 3078 
Q 1150 3584 1784 3584 
Q 2172 3584 2448 3432 
Q 2725 3281 2906 2969 
z
M 947 1747 
Q 947 1113 1208 752 
Q 1469 391 1925 391 
Q 2381 391 2643 752 
Q 2906 1113 2906 1747 
Q 2906 2381 2643 2742 
Q 2381 3103 1925 3103 
Q 1469 3103 1208 2742 
Q 947 2381 947 1747 
z
" transform="scale(0.015625)"/>
       <path id="DejaVuSans-75" d="M 544 1381 
L 544 3500 
L 1119 3500 
L 1119 1403 
Q 1119 906 1312 657 
Q 1506 409 1894 409 
Q 2359 409 2629 706 
Q 2900 1003 2900 1516 
L 2900 3500 
L 3475 3500 
L 3475 0 
L 2900 0 
L 2900 538 
Q 2691 219 2414 64 
Q 2138 -91 1772 -91 
Q 1169 -91 856 284 
Q 544 659 544 1381 
z
M 1991 3584 
L 1991 3584 
z
" transform="scale(0.015625)"/>
      </defs>
      <use xlink:href="#DejaVuSans-53"/>
      <use xlink:href="#DejaVuSans-70" x="63.476562"/>
      <use xlink:href="#DejaVuSans-65" x="126.953125"/>
      <use xlink:href="#DejaVuSans-65" x="188.476562"/>
      <use xlink:href="#DejaVuSans-64" x="250"/>
      <use xlink:href="#DejaVuSans-75" x="313.476562"/>
      <use xlink:href="#DejaVuSans-70" x="376.855469"/>
     </g>
    </g>
   </g>
   <g id="PolyCollection_1">
    <defs>
     <path id="m3e51894931" d="M 80.978182 -78.544419 
L 80.978182 -77.555455 
L 149.83013 -80.584872 
L 218.682078 -89.354414 
L 287.534026 -82.370882 
L 356.385974 -80.915329 
L 425.237922 -81.082001 
L 494.08987 -81.294622 
L 562.941818 -81.166023 
L 562.941818 -82.005204 
L 562.941818 -82.005204 
L 494.08987 -82.079457 
L 425.237922 -82.338233 
L 356.385974 -81.990598 
L 287.534026 -83.399536 
L 218.682078 -91.50547 
L 149.83013 -81.233898 
L 80.978182 -78.544419 
z
" style="stroke: #1f77b4; stroke-opacity: 0.25"/>
    </defs>
    <g clip-path="url(#p8a5c4dd8b6)">
     <use xlink:href="#m3e51894931" x="0" y="504" style="fill: #1f77b4; fill-opacity: 0.25; stroke: #1f77b4; stroke-opacity: 0.25"/>
    </g>
   </g>
   <g id="PolyCollection_2">
    <defs>
     <path id="m73b9be3f09" d="M 80.978182 -160.73609 
L 80.978182 -159.691325 
L 149.83013 -165.13504 
L 218.682078 -213.86954 
L 287.534026 -214.841493 
L 356.385974 -214.380663 
L 425.237922 -214.373701 
L 494.08987 -213.231288 
L 562.941818 -212.245824 
L 562.941818 -213.097844 
L 562.941818 -213.097844 
L 494.08987 -214.422688 
L 425.237922 -215.153774 
L 356.385974 -215.215506 
L 287.534026 -216.248626 
L 218.682078 -215.163428 
L 149.83013 -166.823633 
L 80.978182 -160.73609 
z
" style="stroke: #2ca02c; stroke-opacity: 0.25"/>
    </defs>
    <g clip-path="url(#p8a5c4dd8b6)">
     <use xlink:href="#m73b9be3f09" x="0" y="504" style="fill: #2ca02c; fill-opacity: 0.25; stroke: #2ca02c; stroke-opacity: 0.25"/>
    </g>
   </g>
   <g id="PolyCollection_3">
    <defs>
     <path id="mb7ce87b2cb" d="M 80.978182 -264.104238 
L 80.978182 -262.738971 
L 149.83013 -314.462753 
L 218.682078 -411.002133 
L 287.534026 -422.751628 
L 356.385974 -424.847075 
L 425.237922 -427.059769 
L 494.08987 -425.895491 
L 562.941818 -424.740754 
L 562.941818 -427.907971 
L 562.941818 -427.907971 
L 494.08987 -430.487251 
L 425.237922 -430.664545 
L 356.385974 -429.062416 
L 287.534026 -426.078337 
L 218.682078 -414.280191 
L 149.83013 -318.545039 
L 80.978182 -264.104238 
z
" style="stroke: #d62728; stroke-opacity: 0.25"/>
    </defs>
    <g clip-path="url(#p8a5c4dd8b6)">
     <use xlink:href="#mb7ce87b2cb" x="0" y="504" style="fill: #d62728; fill-opacity: 0.25; stroke: #d62728; stroke-opacity: 0.25"/>
    </g>
   </g>
   <g id="LineCollection_1">
    <path d="M 80.978182 426.444545 
L 80.978182 425.455581 
" clip-path="url(#p8a5c4dd8b6)" style="fill: none; stroke: #1f77b4; stroke-opacity: 0.9; stroke-width: 1.5"/>
    <path d="M 149.83013 423.415128 
L 149.83013 422.766102 
" clip-path="url(#p8a5c4dd8b6)" style="fill: none; stroke: #1f77b4; stroke-opacity: 0.9; stroke-width: 1.5"/>
    <path d="M 218.682078 414.645586 
L 218.682078 412.49453 
" clip-path="url(#p8a5c4dd8b6)" style="fill: none; stroke: #1f77b4; stroke-opacity: 0.9; stroke-width: 1.5"/>
    <path d="M 287.534026 421.629118 
L 287.534026 420.600464 
" clip-path="url(#p8a5c4dd8b6)" style="fill: none; stroke: #1f77b4; stroke-opacity: 0.9; stroke-width: 1.5"/>
    <path d="M 356.385974 423.084671 
L 356.385974 422.009402 
" clip-path="url(#p8a5c4dd8b6)" style="fill: none; stroke: #1f77b4; stroke-opacity: 0.9; stroke-width: 1.5"/>
    <path d="M 425.237922 422.917999 
L 425.237922 421.661767 
" clip-path="url(#p8a5c4dd8b6)" style="fill: none; stroke: #1f77b4; stroke-opacity: 0.9; stroke-width: 1.5"/>
    <path d="M 494.08987 422.705378 
L 494.08987 421.920543 
" clip-path="url(#p8a5c4dd8b6)" style="fill: none; stroke: #1f77b4; stroke-opacity: 0.9; stroke-width: 1.5"/>
    <path d="M 562.941818 422.833977 
L 562.941818 421.994796 
" clip-path="url(#p8a5c4dd8b6)" style="fill: none; stroke: #1f77b4; stroke-opacity: 0.9; stroke-width: 1.5"/>
   </g>
   <g id="line2d_15">
    <defs>
     <path id="m2689d15eec" d="M 3 0 
L -3 -0 
" style="stroke: #1f77b4; stroke-opacity: 0.9"/>
    </defs>
    <g clip-path="url(#p8a5c4dd8b6)">
     <use xlink:href="#m2689d15eec" x="80.978182" y="426.444545" style="fill: #1f77b4; fill-opacity: 0.9; stroke: #1f77b4; stroke-opacity: 0.9"/>
     <use xlink:href="#m2689d15eec" x="149.83013" y="423.415128" style="fill: #1f77b4; fill-opacity: 0.9; stroke: #1f77b4; stroke-opacity: 0.9"/>
     <use xlink:href="#m2689d15eec" x="218.682078" y="414.645586" style="fill: #1f77b4; fill-opacity: 0.9; stroke: #1f77b4; stroke-opacity: 0.9"/>
     <use xlink:href="#m2689d15eec" x="287.534026" y="421.629118" style="fill: #1f77b4; fill-opacity: 0.9; stroke: #1f77b4; stroke-opacity: 0.9"/>
     <use xlink:href="#m2689d15eec" x="356.385974" y="423.084671" style="fill: #1f77b4; fill-opacity: 0.9; stroke: #1f77b4; stroke-opacity: 0.9"/>
     <use xlink:href="#m2689d15eec" x="425.237922" y="422.917999" style="fill: #1f77b4; fill-opacity: 0.9; stroke: #1f77b4; stroke-opacity: 0.9"/>
     <use xlink:href="#m2689d15eec" x="494.08987" y="422.705378" style="fill: #1f77b4; fill-opacity: 0.9; stroke: #1f77b4; stroke-opacity: 0.9"/>
     <use xlink:href="#m2689d15eec" x="562.941818" y="422.833977" style="fill: #1f77b4; fill-opacity: 0.9; stroke: #1f77b4; stroke-opacity: 0.9"/>
    </g>
   </g>
   <g id="line2d_16">
    <g clip-path="url(#p8a5c4dd8b6)">
     <use xlink:href="#m2689d15eec" x="80.978182" y="425.455581" style="fill: #1f77b4; fill-opacity: 0.9; stroke: #1f77b4; stroke-opacity: 0.9"/>
     <use xlink:href="#m2689d15eec" x="149.83013" y="422.766102" style="fill: #1f77b4; fill-opacity: 0.9; stroke: #1f77b4; stroke-opacity: 0.9"/>
     <use xlink:href="#m2689d15eec" x="218.682078" y="412.49453" style="fill: #1f77b4; fill-opacity: 0.9; stroke: #1f77b4; stroke-opacity: 0.9"/>
     <use xlink:href="#m2689d15eec" x="287.534026" y="420.600464" style="fill: #1f77b4; fill-opacity: 0.9; stroke: #1f77b4; stroke-opacity: 0.9"/>
     <use xlink:href="#m2689d15eec" x="356.385974" y="422.009402" style="fill: #1f77b4; fill-opacity: 0.9; stroke: #1f77b4; stroke-opacity: 0.9"/>
     <use xlink:href="#m2689d15eec" x="425.237922" y="421.661767" style="fill: #1f77b4; fill-opacity: 0.9; stroke: #1f77b4; stroke-opacity: 0.9"/>
     <use xlink:href="#m2689d15eec" x="494.08987" y="421.920543" style="fill: #1f77b4; fill-opacity: 0.9; stroke: #1f77b4; stroke-opacity: 0.9"/>
     <use xlink:href="#m2689d15eec" x="562.941818" y="421.994796" style="fill: #1f77b4; fill-opacity: 0.9; stroke: #1f77b4; stroke-opacity: 0.9"/>
    </g>
   </g>
   <g id="LineCollection_2">
    <path d="M 80.978182 344.308675 
L 80.978182 343.26391 
" clip-path="url(#p8a5c4dd8b6)" style="fill: none; stroke: #2ca02c; stroke-opacity: 0.9; stroke-width: 1.5"/>
    <path d="M 149.83013 338.86496 
L 149.83013 337.176367 
" clip-path="url(#p8a5c4dd8b6)" style="fill: none; stroke: #2ca02c; stroke-opacity: 0.9; stroke-width: 1.5"/>
    <path d="M 218.682078 290.13046 
L 218.682078 288.836572 
" clip-path="url(#p8a5c4dd8b6)" style="fill: none; stroke: #2ca02c; stroke-opacity: 0.9; stroke-width: 1.5"/>
    <path d="M 287.534026 289.158507 
L 287.534026 287.751374 
" clip-path="url(#p8a5c4dd8b6)" style="fill: none; stroke: #2ca02c; stroke-opacity: 0.9; stroke-width: 1.5"/>
    <path d="M 356.385974 289.619337 
L 356.385974 288.784494 
" clip-path="url(#p8a5c4dd8b6)" style="fill: none; stroke: #2ca02c; stroke-opacity: 0.9; stroke-width: 1.5"/>
    <path d="M 425.237922 289.626299 
L 425.237922 288.846226 
" clip-path="url(#p8a5c4dd8b6)" style="fill: none; stroke: #2ca02c; stroke-opacity: 0.9; stroke-width: 1.5"/>
    <path d="M 494.08987 290.768712 
L 494.08987 289.577312 
" clip-path="url(#p8a5c4dd8b6)" style="fill: none; stroke: #2ca02c; stroke-opacity: 0.9; stroke-width: 1.5"/>
    <path d="M 562.941818 291.754176 
L 562.941818 290.902156 
" clip-path="url(#p8a5c4dd8b6)" style="fill: none; stroke: #2ca02c; stroke-opacity: 0.9; stroke-width: 1.5"/>
   </g>
   <g id="line2d_17">
    <defs>
     <path id="mdbd5cafca7" d="M 3 0 
L -3 -0 
" style="stroke: #2ca02c; stroke-opacity: 0.9"/>
    </defs>
    <g clip-path="url(#p8a5c4dd8b6)">
     <use xlink:href="#mdbd5cafca7" x="80.978182" y="344.308675" style="fill: #2ca02c; fill-opacity: 0.9; stroke: #2ca02c; stroke-opacity: 0.9"/>
     <use xlink:href="#mdbd5cafca7" x="149.83013" y="338.86496" style="fill: #2ca02c; fill-opacity: 0.9; stroke: #2ca02c; stroke-opacity: 0.9"/>
     <use xlink:href="#mdbd5cafca7" x="218.682078" y="290.13046" style="fill: #2ca02c; fill-opacity: 0.9; stroke: #2ca02c; stroke-opacity: 0.9"/>
     <use xlink:href="#mdbd5cafca7" x="287.534026" y="289.158507" style="fill: #2ca02c; fill-opacity: 0.9; stroke: #2ca02c; stroke-opacity: 0.9"/>
     <use xlink:href="#mdbd5cafca7" x="356.385974" y="289.619337" style="fill: #2ca02c; fill-opacity: 0.9; stroke: #2ca02c; stroke-opacity: 0.9"/>
     <use xlink:href="#mdbd5cafca7" x="425.237922" y="289.626299" style="fill: #2ca02c; fill-opacity: 0.9; stroke: #2ca02c; stroke-opacity: 0.9"/>
     <use xlink:href="#mdbd5cafca7" x="494.08987" y="290.768712" style="fill: #2ca02c; fill-opacity: 0.9; stroke: #2ca02c; stroke-opacity: 0.9"/>
     <use xlink:href="#mdbd5cafca7" x="562.941818" y="291.754176" style="fill: #2ca02c; fill-opacity: 0.9; stroke: #2ca02c; stroke-opacity: 0.9"/>
    </g>
   </g>
   <g id="line2d_18">
    <g clip-path="url(#p8a5c4dd8b6)">
     <use xlink:href="#mdbd5cafca7" x="80.978182" y="343.26391" style="fill: #2ca02c; fill-opacity: 0.9; stroke: #2ca02c; stroke-opacity: 0.9"/>
     <use xlink:href="#mdbd5cafca7" x="149.83013" y="337.176367" style="fill: #2ca02c; fill-opacity: 0.9; stroke: #2ca02c; stroke-opacity: 0.9"/>
     <use xlink:href="#mdbd5cafca7" x="218.682078" y="288.836572" style="fill: #2ca02c; fill-opacity: 0.9; stroke: #2ca02c; stroke-opacity: 0.9"/>
     <use xlink:href="#mdbd5cafca7" x="287.534026" y="287.751374" style="fill: #2ca02c; fill-opacity: 0.9; stroke: #2ca02c; stroke-opacity: 0.9"/>
     <use xlink:href="#mdbd5cafca7" x="356.385974" y="288.784494" style="fill: #2ca02c; fill-opacity: 0.9; stroke: #2ca02c; stroke-opacity: 0.9"/>
     <use xlink:href="#mdbd5cafca7" x="425.237922" y="288.846226" style="fill: #2ca02c; fill-opacity: 0.9; stroke: #2ca02c; stroke-opacity: 0.9"/>
     <use xlink:href="#mdbd5cafca7" x="494.08987" y="289.577312" style="fill: #2ca02c; fill-opacity: 0.9; stroke: #2ca02c; stroke-opacity: 0.9"/>
     <use xlink:href="#mdbd5cafca7" x="562.941818" y="290.902156" style="fill: #2ca02c; fill-opacity: 0.9; stroke: #2ca02c; stroke-opacity: 0.9"/>
    </g>
   </g>
   <g id="LineCollection_3">
    <path d="M 80.978182 241.261029 
L 80.978182 239.895762 
" clip-path="url(#p8a5c4dd8b6)" style="fill: none; stroke: #d62728; stroke-opacity: 0.9; stroke-width: 1.5"/>
    <path d="M 149.83013 189.537247 
L 149.83013 185.454961 
" clip-path="url(#p8a5c4dd8b6)" style="fill: none; stroke: #d62728; stroke-opacity: 0.9; stroke-width: 1.5"/>
    <path d="M 218.682078 92.997867 
L 218.682078 89.719809 
" clip-path="url(#p8a5c4dd8b6)" style="fill: none; stroke: #d62728; stroke-opacity: 0.9; stroke-width: 1.5"/>
    <path d="M 287.534026 81.248372 
L 287.534026 77.921663 
" clip-path="url(#p8a5c4dd8b6)" style="fill: none; stroke: #d62728; stroke-opacity: 0.9; stroke-width: 1.5"/>
    <path d="M 356.385974 79.152925 
L 356.385974 74.937584 
" clip-path="url(#p8a5c4dd8b6)" style="fill: none; stroke: #d62728; stroke-opacity: 0.9; stroke-width: 1.5"/>
    <path d="M 425.237922 76.940231 
L 425.237922 73.335455 
" clip-path="url(#p8a5c4dd8b6)" style="fill: none; stroke: #d62728; stroke-opacity: 0.9; stroke-width: 1.5"/>
    <path d="M 494.08987 78.104509 
L 494.08987 73.512749 
" clip-path="url(#p8a5c4dd8b6)" style="fill: none; stroke: #d62728; stroke-opacity: 0.9; stroke-width: 1.5"/>
    <path d="M 562.941818 79.259246 
L 562.941818 76.092029 
" clip-path="url(#p8a5c4dd8b6)" style="fill: none; stroke: #d62728; stroke-opacity: 0.9; stroke-width: 1.5"/>
   </g>
   <g id="line2d_19">
    <defs>
     <path id="m1d96632ec9" d="M 3 0 
L -3 -0 
" style="stroke: #d62728; stroke-opacity: 0.9"/>
    </defs>
    <g clip-path="url(#p8a5c4dd8b6)">
     <use xlink:href="#m1d96632ec9" x="80.978182" y="241.261029" style="fill: #d62728; fill-opacity: 0.9; stroke: #d62728; stroke-opacity: 0.9"/>
     <use xlink:href="#m1d96632ec9" x="149.83013" y="189.537247" style="fill: #d62728; fill-opacity: 0.9; stroke: #d62728; stroke-opacity: 0.9"/>
     <use xlink:href="#m1d96632ec9" x="218.682078" y="92.997867" style="fill: #d62728; fill-opacity: 0.9; stroke: #d62728; stroke-opacity: 0.9"/>
     <use xlink:href="#m1d96632ec9" x="287.534026" y="81.248372" style="fill: #d62728; fill-opacity: 0.9; stroke: #d62728; stroke-opacity: 0.9"/>
     <use xlink:href="#m1d96632ec9" x="356.385974" y="79.152925" style="fill: #d62728; fill-opacity: 0.9; stroke: #d62728; stroke-opacity: 0.9"/>
     <use xlink:href="#m1d96632ec9" x="425.237922" y="76.940231" style="fill: #d62728; fill-opacity: 0.9; stroke: #d62728; stroke-opacity: 0.9"/>
     <use xlink:href="#m1d96632ec9" x="494.08987" y="78.104509" style="fill: #d62728; fill-opacity: 0.9; stroke: #d62728; stroke-opacity: 0.9"/>
     <use xlink:href="#m1d96632ec9" x="562.941818" y="79.259246" style="fill: #d62728; fill-opacity: 0.9; stroke: #d62728; stroke-opacity: 0.9"/>
    </g>
   </g>
   <g id="line2d_20">
    <g clip-path="url(#p8a5c4dd8b6)">
     <use xlink:href="#m1d96632ec9" x="80.978182" y="239.895762" style="fill: #d62728; fill-opacity: 0.9; stroke: #d62728; stroke-opacity: 0.9"/>
     <use xlink:href="#m1d96632ec9" x="149.83013" y="185.454961" style="fill: #d62728; fill-opacity: 0.9; stroke: #d62728; stroke-opacity: 0.9"/>
     <use xlink:href="#m1d96632ec9" x="218.682078" y="89.719809" style="fill: #d62728; fill-opacity: 0.9; stroke: #d62728; stroke-opacity: 0.9"/>
     <use xlink:href="#m1d96632ec9" x="287.534026" y="77.921663" style="fill: #d62728; fill-opacity: 0.9; stroke: #d62728; stroke-opacity: 0.9"/>
     <use xlink:href="#m1d96632ec9" x="356.385974" y="74.937584" style="fill: #d62728; fill-opacity: 0.9; stroke: #d62728; stroke-opacity: 0.9"/>
     <use xlink:href="#m1d96632ec9" x="425.237922" y="73.335455" style="fill: #d62728; fill-opacity: 0.9; stroke: #d62728; stroke-opacity: 0.9"/>
     <use xlink:href="#m1d96632ec9" x="494.08987" y="73.512749" style="fill: #d62728; fill-opacity: 0.9; stroke: #d62728; stroke-opacity: 0.9"/>
     <use xlink:href="#m1d96632ec9" x="562.941818" y="76.092029" style="fill: #d62728; fill-opacity: 0.9; stroke: #d62728; stroke-opacity: 0.9"/>
    </g>
   </g>
   <g id="line2d_21">
    <path d="M 56.88 357.31986 
L 587.04 357.31986 
" clip-path="url(#p8a5c4dd8b6)" style="fill: none; stroke-dasharray: 3.7,1.6; stroke-dashoffset: 0; stroke: #808080"/>
   </g>
   <g id="line2d_22">
    <path d="M 80.978182 425.788839 
L 149.83013 423.158074 
L 218.682078 413.373667 
L 287.534026 421.17863 
L 356.385974 422.534611 
L 425.237922 422.358892 
L 494.08987 422.40751 
L 562.941818 422.373765 
" clip-path="url(#p8a5c4dd8b6)" style="fill: none; stroke-dasharray: 1.5,2.475; stroke-dashoffset: 0; stroke: #1f77b4; stroke-opacity: 0.9; stroke-width: 1.5"/>
   </g>
   <g id="line2d_23">
    <path d="M 80.978182 343.904205 
L 149.83013 338.009908 
L 218.682078 289.564554 
L 287.534026 288.587943 
L 356.385974 289.121136 
L 425.237922 289.178552 
L 494.08987 289.996148 
L 562.941818 291.231512 
" clip-path="url(#p8a5c4dd8b6)" style="fill: none; stroke-dasharray: 1.5,2.475; stroke-dashoffset: 0; stroke: #2ca02c; stroke-opacity: 0.9; stroke-width: 1.5"/>
   </g>
   <g id="line2d_24">
    <path d="M 80.978182 240.714083 
L 149.83013 186.772908 
L 218.682078 91.039487 
L 287.534026 79.584207 
L 356.385974 76.61184 
L 425.237922 75.174179 
L 494.08987 75.465288 
L 562.941818 77.431476 
" clip-path="url(#p8a5c4dd8b6)" style="fill: none; stroke-dasharray: 1.5,2.475; stroke-dashoffset: 0; stroke: #d62728; stroke-opacity: 0.9; stroke-width: 1.5"/>
   </g>
   <g id="patch_3">
    <path d="M 56.88 444.1 
L 56.88 55.68 
" style="fill: none; stroke: #ffffff; stroke-width: 1.25; stroke-linejoin: miter; stroke-linecap: square"/>
   </g>
   <g id="patch_4">
    <path d="M 587.04 444.1 
L 587.04 55.68 
" style="fill: none; stroke: #ffffff; stroke-width: 1.25; stroke-linejoin: miter; stroke-linecap: square"/>
   </g>
   <g id="patch_5">
    <path d="M 56.88 444.1 
L 587.04 444.1 
" style="fill: none; stroke: #ffffff; stroke-width: 1.25; stroke-linejoin: miter; stroke-linecap: square"/>
   </g>
   <g id="patch_6">
    <path d="M 56.88 55.68 
L 587.04 55.68 
" style="fill: none; stroke: #ffffff; stroke-width: 1.25; stroke-linejoin: miter; stroke-linecap: square"/>
   </g>
   <g id="text_16">
    <!-- numprocs = 32 -->
    <g style="fill: #262626" transform="translate(275.7975 49.68)scale(0.12 -0.12)">
     <defs>
      <path id="DejaVuSans-6e" d="M 3513 2113 
L 3513 0 
L 2938 0 
L 2938 2094 
Q 2938 2591 2744 2837 
Q 2550 3084 2163 3084 
Q 1697 3084 1428 2787 
Q 1159 2491 1159 1978 
L 1159 0 
L 581 0 
L 581 3500 
L 1159 3500 
L 1159 2956 
Q 1366 3272 1645 3428 
Q 1925 3584 2291 3584 
Q 2894 3584 3203 3211 
Q 3513 2838 3513 2113 
z
" transform="scale(0.015625)"/>
      <path id="DejaVuSans-6d" d="M 3328 2828 
Q 3544 3216 3844 3400 
Q 4144 3584 4550 3584 
Q 5097 3584 5394 3201 
Q 5691 2819 5691 2113 
L 5691 0 
L 5113 0 
L 5113 2094 
Q 5113 2597 4934 2840 
Q 4756 3084 4391 3084 
Q 3944 3084 3684 2787 
Q 3425 2491 3425 1978 
L 3425 0 
L 2847 0 
L 2847 2094 
Q 2847 2600 2669 2842 
Q 2491 3084 2119 3084 
Q 1678 3084 1418 2786 
Q 1159 2488 1159 1978 
L 1159 0 
L 581 0 
L 581 3500 
L 1159 3500 
L 1159 2956 
Q 1356 3278 1631 3431 
Q 1906 3584 2284 3584 
Q 2666 3584 2933 3390 
Q 3200 3197 3328 2828 
z
" transform="scale(0.015625)"/>
      <path id="DejaVuSans-72" d="M 2631 2963 
Q 2534 3019 2420 3045 
Q 2306 3072 2169 3072 
Q 1681 3072 1420 2755 
Q 1159 2438 1159 1844 
L 1159 0 
L 581 0 
L 581 3500 
L 1159 3500 
L 1159 2956 
Q 1341 3275 1631 3429 
Q 1922 3584 2338 3584 
Q 2397 3584 2469 3576 
Q 2541 3569 2628 3553 
L 2631 2963 
z
" transform="scale(0.015625)"/>
      <path id="DejaVuSans-6f" d="M 1959 3097 
Q 1497 3097 1228 2736 
Q 959 2375 959 1747 
Q 959 1119 1226 758 
Q 1494 397 1959 397 
Q 2419 397 2687 759 
Q 2956 1122 2956 1747 
Q 2956 2369 2687 2733 
Q 2419 3097 1959 3097 
z
M 1959 3584 
Q 2709 3584 3137 3096 
Q 3566 2609 3566 1747 
Q 3566 888 3137 398 
Q 2709 -91 1959 -91 
Q 1206 -91 779 398 
Q 353 888 353 1747 
Q 353 2609 779 3096 
Q 1206 3584 1959 3584 
z
" transform="scale(0.015625)"/>
      <path id="DejaVuSans-63" d="M 3122 3366 
L 3122 2828 
Q 2878 2963 2633 3030 
Q 2388 3097 2138 3097 
Q 1578 3097 1268 2742 
Q 959 2388 959 1747 
Q 959 1106 1268 751 
Q 1578 397 2138 397 
Q 2388 397 2633 464 
Q 2878 531 3122 666 
L 3122 134 
Q 2881 22 2623 -34 
Q 2366 -91 2075 -91 
Q 1284 -91 818 406 
Q 353 903 353 1747 
Q 353 2603 823 3093 
Q 1294 3584 2113 3584 
Q 2378 3584 2631 3529 
Q 2884 3475 3122 3366 
z
" transform="scale(0.015625)"/>
      <path id="DejaVuSans-73" d="M 2834 3397 
L 2834 2853 
Q 2591 2978 2328 3040 
Q 2066 3103 1784 3103 
Q 1356 3103 1142 2972 
Q 928 2841 928 2578 
Q 928 2378 1081 2264 
Q 1234 2150 1697 2047 
L 1894 2003 
Q 2506 1872 2764 1633 
Q 3022 1394 3022 966 
Q 3022 478 2636 193 
Q 2250 -91 1575 -91 
Q 1294 -91 989 -36 
Q 684 19 347 128 
L 347 722 
Q 666 556 975 473 
Q 1284 391 1588 391 
Q 1994 391 2212 530 
Q 2431 669 2431 922 
Q 2431 1156 2273 1281 
Q 2116 1406 1581 1522 
L 1381 1569 
Q 847 1681 609 1914 
Q 372 2147 372 2553 
Q 372 3047 722 3315 
Q 1072 3584 1716 3584 
Q 2034 3584 2315 3537 
Q 2597 3491 2834 3397 
z
" transform="scale(0.015625)"/>
      <path id="DejaVuSans-20" transform="scale(0.015625)"/>
      <path id="DejaVuSans-3d" d="M 678 2906 
L 4684 2906 
L 4684 2381 
L 678 2381 
L 678 2906 
z
M 678 1631 
L 4684 1631 
L 4684 1100 
L 678 1100 
L 678 1631 
z
" transform="scale(0.015625)"/>
     </defs>
     <use xlink:href="#DejaVuSans-6e"/>
     <use xlink:href="#DejaVuSans-75" x="63.378906"/>
     <use xlink:href="#DejaVuSans-6d" x="126.757812"/>
     <use xlink:href="#DejaVuSans-70" x="224.169922"/>
     <use xlink:href="#DejaVuSans-72" x="287.646484"/>
     <use xlink:href="#DejaVuSans-6f" x="326.509766"/>
     <use xlink:href="#DejaVuSans-63" x="387.691406"/>
     <use xlink:href="#DejaVuSans-73" x="442.671875"/>
     <use xlink:href="#DejaVuSans-20" x="494.771484"/>
     <use xlink:href="#DejaVuSans-3d" x="526.558594"/>
     <use xlink:href="#DejaVuSans-20" x="610.347656"/>
     <use xlink:href="#DejaVuSans-33" x="642.134766"/>
     <use xlink:href="#DejaVuSans-32" x="705.757812"/>
    </g>
   </g>
   <g id="legend_1">
    <g id="patch_7">
     <path d="M 433.818594 283.831875 
L 579.34 283.831875 
Q 581.54 283.831875 581.54 281.631875 
L 581.54 218.148125 
Q 581.54 215.948125 579.34 215.948125 
L 433.818594 215.948125 
Q 431.618594 215.948125 431.618594 218.148125 
L 431.618594 281.631875 
Q 431.618594 283.831875 433.818594 283.831875 
z
" style="fill: #eaeaf2; opacity: 0.8; stroke: #cccccc; stroke-linejoin: miter"/>
    </g>
    <g id="line2d_25">
     <path d="M 436.018594 224.856406 
L 447.018594 224.856406 
L 458.018594 224.856406 
" style="fill: none; stroke-dasharray: 3.7,1.6; stroke-dashoffset: 0; stroke: #808080"/>
    </g>
    <g id="text_17">
     <!-- allreduce -->
     <g style="fill: #262626" transform="translate(466.818594 228.706406)scale(0.11 -0.11)">
      <defs>
       <path id="DejaVuSans-61" d="M 2194 1759 
Q 1497 1759 1228 1600 
Q 959 1441 959 1056 
Q 959 750 1161 570 
Q 1363 391 1709 391 
Q 2188 391 2477 730 
Q 2766 1069 2766 1631 
L 2766 1759 
L 2194 1759 
z
M 3341 1997 
L 3341 0 
L 2766 0 
L 2766 531 
Q 2569 213 2275 61 
Q 1981 -91 1556 -91 
Q 1019 -91 701 211 
Q 384 513 384 1019 
Q 384 1609 779 1909 
Q 1175 2209 1959 2209 
L 2766 2209 
L 2766 2266 
Q 2766 2663 2505 2880 
Q 2244 3097 1772 3097 
Q 1472 3097 1187 3025 
Q 903 2953 641 2809 
L 641 3341 
Q 956 3463 1253 3523 
Q 1550 3584 1831 3584 
Q 2591 3584 2966 3190 
Q 3341 2797 3341 1997 
z
" transform="scale(0.015625)"/>
       <path id="DejaVuSans-6c" d="M 603 4863 
L 1178 4863 
L 1178 0 
L 603 0 
L 603 4863 
z
" transform="scale(0.015625)"/>
      </defs>
      <use xlink:href="#DejaVuSans-61"/>
      <use xlink:href="#DejaVuSans-6c" x="61.279297"/>
      <use xlink:href="#DejaVuSans-6c" x="89.0625"/>
      <use xlink:href="#DejaVuSans-72" x="116.845703"/>
      <use xlink:href="#DejaVuSans-65" x="155.708984"/>
      <use xlink:href="#DejaVuSans-64" x="217.232422"/>
      <use xlink:href="#DejaVuSans-75" x="280.708984"/>
      <use xlink:href="#DejaVuSans-63" x="344.087891"/>
      <use xlink:href="#DejaVuSans-65" x="399.068359"/>
     </g>
    </g>
    <g id="LineCollection_4">
     <path d="M 447.018594 246.502344 
L 447.018594 235.502344 
" style="fill: none; stroke: #1f77b4; stroke-opacity: 0.9; stroke-width: 1.5"/>
    </g>
    <g id="line2d_26">
     <g>
      <use xlink:href="#m2689d15eec" x="447.018594" y="246.502344" style="fill: #1f77b4; fill-opacity: 0.9; stroke: #1f77b4; stroke-opacity: 0.9"/>
     </g>
    </g>
    <g id="line2d_27">
     <g>
      <use xlink:href="#m2689d15eec" x="447.018594" y="235.502344" style="fill: #1f77b4; fill-opacity: 0.9; stroke: #1f77b4; stroke-opacity: 0.9"/>
     </g>
    </g>
    <g id="line2d_28">
     <path d="M 436.018594 241.002344 
L 458.018594 241.002344 
" style="fill: none; stroke-dasharray: 1.5,2.475; stroke-dashoffset: 0; stroke: #1f77b4; stroke-opacity: 0.9; stroke-width: 1.5"/>
    </g>
    <g id="line2d_29"/>
    <g id="text_18">
     <!-- allgather -->
     <g style="fill: #262626" transform="translate(466.818594 244.852344)scale(0.11 -0.11)">
      <defs>
       <path id="DejaVuSans-67" d="M 2906 1791 
Q 2906 2416 2648 2759 
Q 2391 3103 1925 3103 
Q 1463 3103 1205 2759 
Q 947 2416 947 1791 
Q 947 1169 1205 825 
Q 1463 481 1925 481 
Q 2391 481 2648 825 
Q 2906 1169 2906 1791 
z
M 3481 434 
Q 3481 -459 3084 -895 
Q 2688 -1331 1869 -1331 
Q 1566 -1331 1297 -1286 
Q 1028 -1241 775 -1147 
L 775 -588 
Q 1028 -725 1275 -790 
Q 1522 -856 1778 -856 
Q 2344 -856 2625 -561 
Q 2906 -266 2906 331 
L 2906 616 
Q 2728 306 2450 153 
Q 2172 0 1784 0 
Q 1141 0 747 490 
Q 353 981 353 1791 
Q 353 2603 747 3093 
Q 1141 3584 1784 3584 
Q 2172 3584 2450 3431 
Q 2728 3278 2906 2969 
L 2906 3500 
L 3481 3500 
L 3481 434 
z
" transform="scale(0.015625)"/>
       <path id="DejaVuSans-74" d="M 1172 4494 
L 1172 3500 
L 2356 3500 
L 2356 3053 
L 1172 3053 
L 1172 1153 
Q 1172 725 1289 603 
Q 1406 481 1766 481 
L 2356 481 
L 2356 0 
L 1766 0 
Q 1100 0 847 248 
Q 594 497 594 1153 
L 594 3053 
L 172 3053 
L 172 3500 
L 594 3500 
L 594 4494 
L 1172 4494 
z
" transform="scale(0.015625)"/>
       <path id="DejaVuSans-68" d="M 3513 2113 
L 3513 0 
L 2938 0 
L 2938 2094 
Q 2938 2591 2744 2837 
Q 2550 3084 2163 3084 
Q 1697 3084 1428 2787 
Q 1159 2491 1159 1978 
L 1159 0 
L 581 0 
L 581 4863 
L 1159 4863 
L 1159 2956 
Q 1366 3272 1645 3428 
Q 1925 3584 2291 3584 
Q 2894 3584 3203 3211 
Q 3513 2838 3513 2113 
z
" transform="scale(0.015625)"/>
      </defs>
      <use xlink:href="#DejaVuSans-61"/>
      <use xlink:href="#DejaVuSans-6c" x="61.279297"/>
      <use xlink:href="#DejaVuSans-6c" x="89.0625"/>
      <use xlink:href="#DejaVuSans-67" x="116.845703"/>
      <use xlink:href="#DejaVuSans-61" x="180.322266"/>
      <use xlink:href="#DejaVuSans-74" x="241.601562"/>
      <use xlink:href="#DejaVuSans-68" x="280.810547"/>
      <use xlink:href="#DejaVuSans-65" x="344.189453"/>
      <use xlink:href="#DejaVuSans-72" x="405.712891"/>
     </g>
    </g>
    <g id="LineCollection_5">
     <path d="M 447.018594 262.648281 
L 447.018594 251.648281 
" style="fill: none; stroke: #2ca02c; stroke-opacity: 0.9; stroke-width: 1.5"/>
    </g>
    <g id="line2d_30">
     <g>
      <use xlink:href="#mdbd5cafca7" x="447.018594" y="262.648281" style="fill: #2ca02c; fill-opacity: 0.9; stroke: #2ca02c; stroke-opacity: 0.9"/>
     </g>
    </g>
    <g id="line2d_31">
     <g>
      <use xlink:href="#mdbd5cafca7" x="447.018594" y="251.648281" style="fill: #2ca02c; fill-opacity: 0.9; stroke: #2ca02c; stroke-opacity: 0.9"/>
     </g>
    </g>
    <g id="line2d_32">
     <path d="M 436.018594 257.148281 
L 458.018594 257.148281 
" style="fill: none; stroke-dasharray: 1.5,2.475; stroke-dashoffset: 0; stroke: #2ca02c; stroke-opacity: 0.9; stroke-width: 1.5"/>
    </g>
    <g id="line2d_33"/>
    <g id="text_19">
     <!-- allreduce-ring -->
     <g style="fill: #262626" transform="translate(466.818594 260.998281)scale(0.11 -0.11)">
      <defs>
       <path id="DejaVuSans-2d" d="M 313 2009 
L 1997 2009 
L 1997 1497 
L 313 1497 
L 313 2009 
z
" transform="scale(0.015625)"/>
       <path id="DejaVuSans-69" d="M 603 3500 
L 1178 3500 
L 1178 0 
L 603 0 
L 603 3500 
z
M 603 4863 
L 1178 4863 
L 1178 4134 
L 603 4134 
L 603 4863 
z
" transform="scale(0.015625)"/>
      </defs>
      <use xlink:href="#DejaVuSans-61"/>
      <use xlink:href="#DejaVuSans-6c" x="61.279297"/>
      <use xlink:href="#DejaVuSans-6c" x="89.0625"/>
      <use xlink:href="#DejaVuSans-72" x="116.845703"/>
      <use xlink:href="#DejaVuSans-65" x="155.708984"/>
      <use xlink:href="#DejaVuSans-64" x="217.232422"/>
      <use xlink:href="#DejaVuSans-75" x="280.708984"/>
      <use xlink:href="#DejaVuSans-63" x="344.087891"/>
      <use xlink:href="#DejaVuSans-65" x="399.068359"/>
      <use xlink:href="#DejaVuSans-2d" x="460.591797"/>
      <use xlink:href="#DejaVuSans-72" x="496.675781"/>
      <use xlink:href="#DejaVuSans-69" x="537.789062"/>
      <use xlink:href="#DejaVuSans-6e" x="565.572266"/>
      <use xlink:href="#DejaVuSans-67" x="628.951172"/>
     </g>
    </g>
    <g id="LineCollection_6">
     <path d="M 447.018594 278.794219 
L 447.018594 267.794219 
" style="fill: none; stroke: #d62728; stroke-opacity: 0.9; stroke-width: 1.5"/>
    </g>
    <g id="line2d_34">
     <g>
      <use xlink:href="#m1d96632ec9" x="447.018594" y="278.794219" style="fill: #d62728; fill-opacity: 0.9; stroke: #d62728; stroke-opacity: 0.9"/>
     </g>
    </g>
    <g id="line2d_35">
     <g>
      <use xlink:href="#m1d96632ec9" x="447.018594" y="267.794219" style="fill: #d62728; fill-opacity: 0.9; stroke: #d62728; stroke-opacity: 0.9"/>
     </g>
    </g>
    <g id="line2d_36">
     <path d="M 436.018594 273.294219 
L 458.018594 273.294219 
" style="fill: none; stroke-dasharray: 1.5,2.475; stroke-dashoffset: 0; stroke: #d62728; stroke-opacity: 0.9; stroke-width: 1.5"/>
    </g>
    <g id="line2d_37"/>
    <g id="text_20">
     <!-- g-rabenseifner-dsop -->
     <g style="fill: #262626" transform="translate(466.818594 277.144219)scale(0.11 -0.11)">
      <defs>
       <path id="DejaVuSans-62" d="M 3116 1747 
Q 3116 2381 2855 2742 
Q 2594 3103 2138 3103 
Q 1681 3103 1420 2742 
Q 1159 2381 1159 1747 
Q 1159 1113 1420 752 
Q 1681 391 2138 391 
Q 2594 391 2855 752 
Q 3116 1113 3116 1747 
z
M 1159 2969 
Q 1341 3281 1617 3432 
Q 1894 3584 2278 3584 
Q 2916 3584 3314 3078 
Q 3713 2572 3713 1747 
Q 3713 922 3314 415 
Q 2916 -91 2278 -91 
Q 1894 -91 1617 61 
Q 1341 213 1159 525 
L 1159 0 
L 581 0 
L 581 4863 
L 1159 4863 
L 1159 2969 
z
" transform="scale(0.015625)"/>
       <path id="DejaVuSans-66" d="M 2375 4863 
L 2375 4384 
L 1825 4384 
Q 1516 4384 1395 4259 
Q 1275 4134 1275 3809 
L 1275 3500 
L 2222 3500 
L 2222 3053 
L 1275 3053 
L 1275 0 
L 697 0 
L 697 3053 
L 147 3053 
L 147 3500 
L 697 3500 
L 697 3744 
Q 697 4328 969 4595 
Q 1241 4863 1831 4863 
L 2375 4863 
z
" transform="scale(0.015625)"/>
      </defs>
      <use xlink:href="#DejaVuSans-67"/>
      <use xlink:href="#DejaVuSans-2d" x="63.476562"/>
      <use xlink:href="#DejaVuSans-72" x="99.560547"/>
      <use xlink:href="#DejaVuSans-61" x="140.673828"/>
      <use xlink:href="#DejaVuSans-62" x="201.953125"/>
      <use xlink:href="#DejaVuSans-65" x="265.429688"/>
      <use xlink:href="#DejaVuSans-6e" x="326.953125"/>
      <use xlink:href="#DejaVuSans-73" x="390.332031"/>
      <use xlink:href="#DejaVuSans-65" x="442.431641"/>
      <use xlink:href="#DejaVuSans-69" x="503.955078"/>
      <use xlink:href="#DejaVuSans-66" x="531.738281"/>
      <use xlink:href="#DejaVuSans-6e" x="566.943359"/>
      <use xlink:href="#DejaVuSans-65" x="630.322266"/>
      <use xlink:href="#DejaVuSans-72" x="691.845703"/>
      <use xlink:href="#DejaVuSans-2d" x="726.583984"/>
      <use xlink:href="#DejaVuSans-64" x="762.667969"/>
      <use xlink:href="#DejaVuSans-73" x="826.144531"/>
      <use xlink:href="#DejaVuSans-6f" x="878.244141"/>
      <use xlink:href="#DejaVuSans-70" x="939.425781"/>
     </g>
    </g>
   </g>
  </g>
  <g id="text_21">
   <!-- Speedup against 'allreduce' - 95% confidence interval over 50th percentile -->
   <g style="fill: #262626" transform="translate(29.969625 21.02175)scale(0.144 -0.144)">
    <defs>
     <path id="DejaVuSans-27" d="M 1147 4666 
L 1147 2931 
L 616 2931 
L 616 4666 
L 1147 4666 
z
" transform="scale(0.015625)"/>
     <path id="DejaVuSans-39" d="M 703 97 
L 703 672 
Q 941 559 1184 500 
Q 1428 441 1663 441 
Q 2288 441 2617 861 
Q 2947 1281 2994 2138 
Q 2813 1869 2534 1725 
Q 2256 1581 1919 1581 
Q 1219 1581 811 2004 
Q 403 2428 403 3163 
Q 403 3881 828 4315 
Q 1253 4750 1959 4750 
Q 2769 4750 3195 4129 
Q 3622 3509 3622 2328 
Q 3622 1225 3098 567 
Q 2575 -91 1691 -91 
Q 1453 -91 1209 -44 
Q 966 3 703 97 
z
M 1959 2075 
Q 2384 2075 2632 2365 
Q 2881 2656 2881 3163 
Q 2881 3666 2632 3958 
Q 2384 4250 1959 4250 
Q 1534 4250 1286 3958 
Q 1038 3666 1038 3163 
Q 1038 2656 1286 2365 
Q 1534 2075 1959 2075 
z
" transform="scale(0.015625)"/>
     <path id="DejaVuSans-25" d="M 4653 2053 
Q 4381 2053 4226 1822 
Q 4072 1591 4072 1178 
Q 4072 772 4226 539 
Q 4381 306 4653 306 
Q 4919 306 5073 539 
Q 5228 772 5228 1178 
Q 5228 1588 5073 1820 
Q 4919 2053 4653 2053 
z
M 4653 2450 
Q 5147 2450 5437 2106 
Q 5728 1763 5728 1178 
Q 5728 594 5436 251 
Q 5144 -91 4653 -91 
Q 4153 -91 3862 251 
Q 3572 594 3572 1178 
Q 3572 1766 3864 2108 
Q 4156 2450 4653 2450 
z
M 1428 4353 
Q 1159 4353 1004 4120 
Q 850 3888 850 3481 
Q 850 3069 1003 2837 
Q 1156 2606 1428 2606 
Q 1700 2606 1854 2837 
Q 2009 3069 2009 3481 
Q 2009 3884 1853 4118 
Q 1697 4353 1428 4353 
z
M 4250 4750 
L 4750 4750 
L 1831 -91 
L 1331 -91 
L 4250 4750 
z
M 1428 4750 
Q 1922 4750 2215 4408 
Q 2509 4066 2509 3481 
Q 2509 2891 2217 2550 
Q 1925 2209 1428 2209 
Q 931 2209 642 2551 
Q 353 2894 353 3481 
Q 353 4063 643 4406 
Q 934 4750 1428 4750 
z
" transform="scale(0.015625)"/>
     <path id="DejaVuSans-76" d="M 191 3500 
L 800 3500 
L 1894 563 
L 2988 3500 
L 3597 3500 
L 2284 0 
L 1503 0 
L 191 3500 
z
" transform="scale(0.015625)"/>
    </defs>
    <use xlink:href="#DejaVuSans-53"/>
    <use xlink:href="#DejaVuSans-70" x="63.476562"/>
    <use xlink:href="#DejaVuSans-65" x="126.953125"/>
    <use xlink:href="#DejaVuSans-65" x="188.476562"/>
    <use xlink:href="#DejaVuSans-64" x="250"/>
    <use xlink:href="#DejaVuSans-75" x="313.476562"/>
    <use xlink:href="#DejaVuSans-70" x="376.855469"/>
    <use xlink:href="#DejaVuSans-20" x="440.332031"/>
    <use xlink:href="#DejaVuSans-61" x="472.119141"/>
    <use xlink:href="#DejaVuSans-67" x="533.398438"/>
    <use xlink:href="#DejaVuSans-61" x="596.875"/>
    <use xlink:href="#DejaVuSans-69" x="658.154297"/>
    <use xlink:href="#DejaVuSans-6e" x="685.9375"/>
    <use xlink:href="#DejaVuSans-73" x="749.316406"/>
    <use xlink:href="#DejaVuSans-74" x="801.416016"/>
    <use xlink:href="#DejaVuSans-20" x="840.625"/>
    <use xlink:href="#DejaVuSans-27" x="872.412109"/>
    <use xlink:href="#DejaVuSans-61" x="899.902344"/>
    <use xlink:href="#DejaVuSans-6c" x="961.181641"/>
    <use xlink:href="#DejaVuSans-6c" x="988.964844"/>
    <use xlink:href="#DejaVuSans-72" x="1016.748047"/>
    <use xlink:href="#DejaVuSans-65" x="1055.611328"/>
    <use xlink:href="#DejaVuSans-64" x="1117.134766"/>
    <use xlink:href="#DejaVuSans-75" x="1180.611328"/>
    <use xlink:href="#DejaVuSans-63" x="1243.990234"/>
    <use xlink:href="#DejaVuSans-65" x="1298.970703"/>
    <use xlink:href="#DejaVuSans-27" x="1360.494141"/>
    <use xlink:href="#DejaVuSans-20" x="1387.984375"/>
    <use xlink:href="#DejaVuSans-2d" x="1419.771484"/>
    <use xlink:href="#DejaVuSans-20" x="1455.855469"/>
    <use xlink:href="#DejaVuSans-39" x="1487.642578"/>
    <use xlink:href="#DejaVuSans-35" x="1551.265625"/>
    <use xlink:href="#DejaVuSans-25" x="1614.888672"/>
    <use xlink:href="#DejaVuSans-20" x="1709.908203"/>
    <use xlink:href="#DejaVuSans-63" x="1741.695312"/>
    <use xlink:href="#DejaVuSans-6f" x="1796.675781"/>
    <use xlink:href="#DejaVuSans-6e" x="1857.857422"/>
    <use xlink:href="#DejaVuSans-66" x="1921.236328"/>
    <use xlink:href="#DejaVuSans-69" x="1956.441406"/>
    <use xlink:href="#DejaVuSans-64" x="1984.224609"/>
    <use xlink:href="#DejaVuSans-65" x="2047.701172"/>
    <use xlink:href="#DejaVuSans-6e" x="2109.224609"/>
    <use xlink:href="#DejaVuSans-63" x="2172.603516"/>
    <use xlink:href="#DejaVuSans-65" x="2227.583984"/>
    <use xlink:href="#DejaVuSans-20" x="2289.107422"/>
    <use xlink:href="#DejaVuSans-69" x="2320.894531"/>
    <use xlink:href="#DejaVuSans-6e" x="2348.677734"/>
    <use xlink:href="#DejaVuSans-74" x="2412.056641"/>
    <use xlink:href="#DejaVuSans-65" x="2451.265625"/>
    <use xlink:href="#DejaVuSans-72" x="2512.789062"/>
    <use xlink:href="#DejaVuSans-76" x="2553.902344"/>
    <use xlink:href="#DejaVuSans-61" x="2613.082031"/>
    <use xlink:href="#DejaVuSans-6c" x="2674.361328"/>
    <use xlink:href="#DejaVuSans-20" x="2702.144531"/>
    <use xlink:href="#DejaVuSans-6f" x="2733.931641"/>
    <use xlink:href="#DejaVuSans-76" x="2795.113281"/>
    <use xlink:href="#DejaVuSans-65" x="2854.292969"/>
    <use xlink:href="#DejaVuSans-72" x="2915.816406"/>
    <use xlink:href="#DejaVuSans-20" x="2956.929688"/>
    <use xlink:href="#DejaVuSans-35" x="2988.716797"/>
    <use xlink:href="#DejaVuSans-30" x="3052.339844"/>
    <use xlink:href="#DejaVuSans-74" x="3115.962891"/>
    <use xlink:href="#DejaVuSans-68" x="3155.171875"/>
    <use xlink:href="#DejaVuSans-20" x="3218.550781"/>
    <use xlink:href="#DejaVuSans-70" x="3250.337891"/>
    <use xlink:href="#DejaVuSans-65" x="3313.814453"/>
    <use xlink:href="#DejaVuSans-72" x="3375.337891"/>
    <use xlink:href="#DejaVuSans-63" x="3414.201172"/>
    <use xlink:href="#DejaVuSans-65" x="3469.181641"/>
    <use xlink:href="#DejaVuSans-6e" x="3530.705078"/>
    <use xlink:href="#DejaVuSans-74" x="3594.083984"/>
    <use xlink:href="#DejaVuSans-69" x="3633.292969"/>
    <use xlink:href="#DejaVuSans-6c" x="3661.076172"/>
    <use xlink:href="#DejaVuSans-65" x="3688.859375"/>
   </g>
  </g>
  <g id="text_22">
   <!-- Number of vector elements N = M -->
   <g style="fill: #262626" transform="translate(176.49525 495.96525)scale(0.144 -0.144)">
    <defs>
     <path id="DejaVuSans-4e" d="M 628 4666 
L 1478 4666 
L 3547 763 
L 3547 4666 
L 4159 4666 
L 4159 0 
L 3309 0 
L 1241 3903 
L 1241 0 
L 628 0 
L 628 4666 
z
" transform="scale(0.015625)"/>
     <path id="DejaVuSans-4d" d="M 628 4666 
L 1569 4666 
L 2759 1491 
L 3956 4666 
L 4897 4666 
L 4897 0 
L 4281 0 
L 4281 4097 
L 3078 897 
L 2444 897 
L 1241 4097 
L 1241 0 
L 628 0 
L 628 4666 
z
" transform="scale(0.015625)"/>
    </defs>
    <use xlink:href="#DejaVuSans-4e"/>
    <use xlink:href="#DejaVuSans-75" x="74.804688"/>
    <use xlink:href="#DejaVuSans-6d" x="138.183594"/>
    <use xlink:href="#DejaVuSans-62" x="235.595703"/>
    <use xlink:href="#DejaVuSans-65" x="299.072266"/>
    <use xlink:href="#DejaVuSans-72" x="360.595703"/>
    <use xlink:href="#DejaVuSans-20" x="401.708984"/>
    <use xlink:href="#DejaVuSans-6f" x="433.496094"/>
    <use xlink:href="#DejaVuSans-66" x="494.677734"/>
    <use xlink:href="#DejaVuSans-20" x="529.882812"/>
    <use xlink:href="#DejaVuSans-76" x="561.669922"/>
    <use xlink:href="#DejaVuSans-65" x="620.849609"/>
    <use xlink:href="#DejaVuSans-63" x="682.373047"/>
    <use xlink:href="#DejaVuSans-74" x="737.353516"/>
    <use xlink:href="#DejaVuSans-6f" x="776.5625"/>
    <use xlink:href="#DejaVuSans-72" x="837.744141"/>
    <use xlink:href="#DejaVuSans-20" x="878.857422"/>
    <use xlink:href="#DejaVuSans-65" x="910.644531"/>
    <use xlink:href="#DejaVuSans-6c" x="972.167969"/>
    <use xlink:href="#DejaVuSans-65" x="999.951172"/>
    <use xlink:href="#DejaVuSans-6d" x="1061.474609"/>
    <use xlink:href="#DejaVuSans-65" x="1158.886719"/>
    <use xlink:href="#DejaVuSans-6e" x="1220.410156"/>
    <use xlink:href="#DejaVuSans-74" x="1283.789062"/>
    <use xlink:href="#DejaVuSans-73" x="1322.998047"/>
    <use xlink:href="#DejaVuSans-20" x="1375.097656"/>
    <use xlink:href="#DejaVuSans-4e" x="1406.884766"/>
    <use xlink:href="#DejaVuSans-20" x="1481.689453"/>
    <use xlink:href="#DejaVuSans-3d" x="1513.476562"/>
    <use xlink:href="#DejaVuSans-20" x="1597.265625"/>
    <use xlink:href="#DejaVuSans-4d" x="1629.052734"/>
   </g>
  </g>
 </g>
 <defs>
  <clipPath id="p8a5c4dd8b6">
   <rect x="56.88" y="55.68" width="530.16" height="388.42"/>
  </clipPath>
 </defs>
</svg>
