<?xml version="1.0" encoding="utf-8" standalone="no"?>
<!DOCTYPE svg PUBLIC "-//W3C//DTD SVG 1.1//EN"
  "http://www.w3.org/Graphics/SVG/1.1/DTD/svg11.dtd">
<!-- Created with matplotlib (https://matplotlib.org/) -->
<svg height="345.6pt" version="1.1" viewBox="0 0 460.8 345.6" width="460.8pt" xmlns="http://www.w3.org/2000/svg" xmlns:xlink="http://www.w3.org/1999/xlink">
 <metadata>
  <rdf:RDF xmlns:cc="http://creativecommons.org/ns#" xmlns:dc="http://purl.org/dc/elements/1.1/" xmlns:rdf="http://www.w3.org/1999/02/22-rdf-syntax-ns#">
   <cc:Work>
    <dc:type rdf:resource="http://purl.org/dc/dcmitype/StillImage"/>
    <dc:date>2021-11-27T22:17:41.514695</dc:date>
    <dc:format>image/svg+xml</dc:format>
    <dc:creator>
     <cc:Agent>
      <dc:title>Matplotlib v3.3.4, https://matplotlib.org/</dc:title>
     </cc:Agent>
    </dc:creator>
   </cc:Work>
  </rdf:RDF>
 </metadata>
 <defs>
  <style type="text/css">*{stroke-linecap:butt;stroke-linejoin:round;}</style>
 </defs>
 <g id="figure_1">
  <g id="patch_1">
   <path d="M 0 345.6 
L 460.8 345.6 
L 460.8 0 
L 0 0 
z
" style="fill:#ffffff;"/>
  </g>
  <g id="axes_1">
   <g id="patch_2">
    <path d="M 65.502548 295.38 
L 447.84 295.38 
L 447.84 29.04 
L 65.502548 29.04 
z
" style="fill:#eaeaf2;"/>
   </g>
   <g id="matplotlib.axis_1">
    <g id="xtick_1">
     <g id="line2d_1">
      <path clip-path="url(#p0031a21ed4)" d="M 82.881524 295.38 
L 82.881524 29.04 
" style="fill:none;stroke:#ffffff;stroke-linecap:round;"/>
     </g>
     <g id="text_1">
      <!-- 1000 -->
      <g style="fill:#262626;" transform="translate(68.884024 313.238281)scale(0.11 -0.11)">
       <defs>
        <path d="M 12.40625 8.296875 
L 28.515625 8.296875 
L 28.515625 63.921875 
L 10.984375 60.40625 
L 10.984375 69.390625 
L 28.421875 72.90625 
L 38.28125 72.90625 
L 38.28125 8.296875 
L 54.390625 8.296875 
L 54.390625 0 
L 12.40625 0 
z
" id="DejaVuSans-49"/>
        <path d="M 31.78125 66.40625 
Q 24.171875 66.40625 20.328125 58.90625 
Q 16.5 51.421875 16.5 36.375 
Q 16.5 21.390625 20.328125 13.890625 
Q 24.171875 6.390625 31.78125 6.390625 
Q 39.453125 6.390625 43.28125 13.890625 
Q 47.125 21.390625 47.125 36.375 
Q 47.125 51.421875 43.28125 58.90625 
Q 39.453125 66.40625 31.78125 66.40625 
z
M 31.78125 74.21875 
Q 44.046875 74.21875 50.515625 64.515625 
Q 56.984375 54.828125 56.984375 36.375 
Q 56.984375 17.96875 50.515625 8.265625 
Q 44.046875 -1.421875 31.78125 -1.421875 
Q 19.53125 -1.421875 13.0625 8.265625 
Q 6.59375 17.96875 6.59375 36.375 
Q 6.59375 54.828125 13.0625 64.515625 
Q 19.53125 74.21875 31.78125 74.21875 
z
" id="DejaVuSans-48"/>
       </defs>
       <use xlink:href="#DejaVuSans-49"/>
       <use x="63.623047" xlink:href="#DejaVuSans-48"/>
       <use x="127.246094" xlink:href="#DejaVuSans-48"/>
       <use x="190.869141" xlink:href="#DejaVuSans-48"/>
      </g>
     </g>
    </g>
    <g id="xtick_2">
     <g id="line2d_2">
      <path clip-path="url(#p0031a21ed4)" d="M 132.535738 295.38 
L 132.535738 29.04 
" style="fill:none;stroke:#ffffff;stroke-linecap:round;"/>
     </g>
     <g id="text_2">
      <!-- 2000 -->
      <g style="fill:#262626;" transform="translate(118.538238 313.238281)scale(0.11 -0.11)">
       <defs>
        <path d="M 19.1875 8.296875 
L 53.609375 8.296875 
L 53.609375 0 
L 7.328125 0 
L 7.328125 8.296875 
Q 12.9375 14.109375 22.625 23.890625 
Q 32.328125 33.6875 34.8125 36.53125 
Q 39.546875 41.84375 41.421875 45.53125 
Q 43.3125 49.21875 43.3125 52.78125 
Q 43.3125 58.59375 39.234375 62.25 
Q 35.15625 65.921875 28.609375 65.921875 
Q 23.96875 65.921875 18.8125 64.3125 
Q 13.671875 62.703125 7.8125 59.421875 
L 7.8125 69.390625 
Q 13.765625 71.78125 18.9375 73 
Q 24.125 74.21875 28.421875 74.21875 
Q 39.75 74.21875 46.484375 68.546875 
Q 53.21875 62.890625 53.21875 53.421875 
Q 53.21875 48.921875 51.53125 44.890625 
Q 49.859375 40.875 45.40625 35.40625 
Q 44.1875 33.984375 37.640625 27.21875 
Q 31.109375 20.453125 19.1875 8.296875 
z
" id="DejaVuSans-50"/>
       </defs>
       <use xlink:href="#DejaVuSans-50"/>
       <use x="63.623047" xlink:href="#DejaVuSans-48"/>
       <use x="127.246094" xlink:href="#DejaVuSans-48"/>
       <use x="190.869141" xlink:href="#DejaVuSans-48"/>
      </g>
     </g>
    </g>
    <g id="xtick_3">
     <g id="line2d_3">
      <path clip-path="url(#p0031a21ed4)" d="M 182.189952 295.38 
L 182.189952 29.04 
" style="fill:none;stroke:#ffffff;stroke-linecap:round;"/>
     </g>
     <g id="text_3">
      <!-- 3000 -->
      <g style="fill:#262626;" transform="translate(168.192452 313.238281)scale(0.11 -0.11)">
       <defs>
        <path d="M 40.578125 39.3125 
Q 47.65625 37.796875 51.625 33 
Q 55.609375 28.21875 55.609375 21.1875 
Q 55.609375 10.40625 48.1875 4.484375 
Q 40.765625 -1.421875 27.09375 -1.421875 
Q 22.515625 -1.421875 17.65625 -0.515625 
Q 12.796875 0.390625 7.625 2.203125 
L 7.625 11.71875 
Q 11.71875 9.328125 16.59375 8.109375 
Q 21.484375 6.890625 26.8125 6.890625 
Q 36.078125 6.890625 40.9375 10.546875 
Q 45.796875 14.203125 45.796875 21.1875 
Q 45.796875 27.640625 41.28125 31.265625 
Q 36.765625 34.90625 28.71875 34.90625 
L 20.21875 34.90625 
L 20.21875 43.015625 
L 29.109375 43.015625 
Q 36.375 43.015625 40.234375 45.921875 
Q 44.09375 48.828125 44.09375 54.296875 
Q 44.09375 59.90625 40.109375 62.90625 
Q 36.140625 65.921875 28.71875 65.921875 
Q 24.65625 65.921875 20.015625 65.03125 
Q 15.375 64.15625 9.8125 62.3125 
L 9.8125 71.09375 
Q 15.4375 72.65625 20.34375 73.4375 
Q 25.25 74.21875 29.59375 74.21875 
Q 40.828125 74.21875 47.359375 69.109375 
Q 53.90625 64.015625 53.90625 55.328125 
Q 53.90625 49.265625 50.4375 45.09375 
Q 46.96875 40.921875 40.578125 39.3125 
z
" id="DejaVuSans-51"/>
       </defs>
       <use xlink:href="#DejaVuSans-51"/>
       <use x="63.623047" xlink:href="#DejaVuSans-48"/>
       <use x="127.246094" xlink:href="#DejaVuSans-48"/>
       <use x="190.869141" xlink:href="#DejaVuSans-48"/>
      </g>
     </g>
    </g>
    <g id="xtick_4">
     <g id="line2d_4">
      <path clip-path="url(#p0031a21ed4)" d="M 231.844167 295.38 
L 231.844167 29.04 
" style="fill:none;stroke:#ffffff;stroke-linecap:round;"/>
     </g>
     <g id="text_4">
      <!-- 4000 -->
      <g style="fill:#262626;" transform="translate(217.846667 313.238281)scale(0.11 -0.11)">
       <defs>
        <path d="M 37.796875 64.3125 
L 12.890625 25.390625 
L 37.796875 25.390625 
z
M 35.203125 72.90625 
L 47.609375 72.90625 
L 47.609375 25.390625 
L 58.015625 25.390625 
L 58.015625 17.1875 
L 47.609375 17.1875 
L 47.609375 0 
L 37.796875 0 
L 37.796875 17.1875 
L 4.890625 17.1875 
L 4.890625 26.703125 
z
" id="DejaVuSans-52"/>
       </defs>
       <use xlink:href="#DejaVuSans-52"/>
       <use x="63.623047" xlink:href="#DejaVuSans-48"/>
       <use x="127.246094" xlink:href="#DejaVuSans-48"/>
       <use x="190.869141" xlink:href="#DejaVuSans-48"/>
      </g>
     </g>
    </g>
    <g id="xtick_5">
     <g id="line2d_5">
      <path clip-path="url(#p0031a21ed4)" d="M 281.498381 295.38 
L 281.498381 29.04 
" style="fill:none;stroke:#ffffff;stroke-linecap:round;"/>
     </g>
     <g id="text_5">
      <!-- 5000 -->
      <g style="fill:#262626;" transform="translate(267.500881 313.238281)scale(0.11 -0.11)">
       <defs>
        <path d="M 10.796875 72.90625 
L 49.515625 72.90625 
L 49.515625 64.59375 
L 19.828125 64.59375 
L 19.828125 46.734375 
Q 21.96875 47.46875 24.109375 47.828125 
Q 26.265625 48.1875 28.421875 48.1875 
Q 40.625 48.1875 47.75 41.5 
Q 54.890625 34.8125 54.890625 23.390625 
Q 54.890625 11.625 47.5625 5.09375 
Q 40.234375 -1.421875 26.90625 -1.421875 
Q 22.3125 -1.421875 17.546875 -0.640625 
Q 12.796875 0.140625 7.71875 1.703125 
L 7.71875 11.625 
Q 12.109375 9.234375 16.796875 8.0625 
Q 21.484375 6.890625 26.703125 6.890625 
Q 35.15625 6.890625 40.078125 11.328125 
Q 45.015625 15.765625 45.015625 23.390625 
Q 45.015625 31 40.078125 35.4375 
Q 35.15625 39.890625 26.703125 39.890625 
Q 22.75 39.890625 18.8125 39.015625 
Q 14.890625 38.140625 10.796875 36.28125 
z
" id="DejaVuSans-53"/>
       </defs>
       <use xlink:href="#DejaVuSans-53"/>
       <use x="63.623047" xlink:href="#DejaVuSans-48"/>
       <use x="127.246094" xlink:href="#DejaVuSans-48"/>
       <use x="190.869141" xlink:href="#DejaVuSans-48"/>
      </g>
     </g>
    </g>
    <g id="xtick_6">
     <g id="line2d_6">
      <path clip-path="url(#p0031a21ed4)" d="M 331.152596 295.38 
L 331.152596 29.04 
" style="fill:none;stroke:#ffffff;stroke-linecap:round;"/>
     </g>
     <g id="text_6">
      <!-- 6000 -->
      <g style="fill:#262626;" transform="translate(317.155096 313.238281)scale(0.11 -0.11)">
       <defs>
        <path d="M 33.015625 40.375 
Q 26.375 40.375 22.484375 35.828125 
Q 18.609375 31.296875 18.609375 23.390625 
Q 18.609375 15.53125 22.484375 10.953125 
Q 26.375 6.390625 33.015625 6.390625 
Q 39.65625 6.390625 43.53125 10.953125 
Q 47.40625 15.53125 47.40625 23.390625 
Q 47.40625 31.296875 43.53125 35.828125 
Q 39.65625 40.375 33.015625 40.375 
z
M 52.59375 71.296875 
L 52.59375 62.3125 
Q 48.875 64.0625 45.09375 64.984375 
Q 41.3125 65.921875 37.59375 65.921875 
Q 27.828125 65.921875 22.671875 59.328125 
Q 17.53125 52.734375 16.796875 39.40625 
Q 19.671875 43.65625 24.015625 45.921875 
Q 28.375 48.1875 33.59375 48.1875 
Q 44.578125 48.1875 50.953125 41.515625 
Q 57.328125 34.859375 57.328125 23.390625 
Q 57.328125 12.15625 50.6875 5.359375 
Q 44.046875 -1.421875 33.015625 -1.421875 
Q 20.359375 -1.421875 13.671875 8.265625 
Q 6.984375 17.96875 6.984375 36.375 
Q 6.984375 53.65625 15.1875 63.9375 
Q 23.390625 74.21875 37.203125 74.21875 
Q 40.921875 74.21875 44.703125 73.484375 
Q 48.484375 72.75 52.59375 71.296875 
z
" id="DejaVuSans-54"/>
       </defs>
       <use xlink:href="#DejaVuSans-54"/>
       <use x="63.623047" xlink:href="#DejaVuSans-48"/>
       <use x="127.246094" xlink:href="#DejaVuSans-48"/>
       <use x="190.869141" xlink:href="#DejaVuSans-48"/>
      </g>
     </g>
    </g>
    <g id="xtick_7">
     <g id="line2d_7">
      <path clip-path="url(#p0031a21ed4)" d="M 380.80681 295.38 
L 380.80681 29.04 
" style="fill:none;stroke:#ffffff;stroke-linecap:round;"/>
     </g>
     <g id="text_7">
      <!-- 7000 -->
      <g style="fill:#262626;" transform="translate(366.80931 313.238281)scale(0.11 -0.11)">
       <defs>
        <path d="M 8.203125 72.90625 
L 55.078125 72.90625 
L 55.078125 68.703125 
L 28.609375 0 
L 18.3125 0 
L 43.21875 64.59375 
L 8.203125 64.59375 
z
" id="DejaVuSans-55"/>
       </defs>
       <use xlink:href="#DejaVuSans-55"/>
       <use x="63.623047" xlink:href="#DejaVuSans-48"/>
       <use x="127.246094" xlink:href="#DejaVuSans-48"/>
       <use x="190.869141" xlink:href="#DejaVuSans-48"/>
      </g>
     </g>
    </g>
    <g id="xtick_8">
     <g id="line2d_8">
      <path clip-path="url(#p0031a21ed4)" d="M 430.461025 295.38 
L 430.461025 29.04 
" style="fill:none;stroke:#ffffff;stroke-linecap:round;"/>
     </g>
     <g id="text_8">
      <!-- 8000 -->
      <g style="fill:#262626;" transform="translate(416.463525 313.238281)scale(0.11 -0.11)">
       <defs>
        <path d="M 31.78125 34.625 
Q 24.75 34.625 20.71875 30.859375 
Q 16.703125 27.09375 16.703125 20.515625 
Q 16.703125 13.921875 20.71875 10.15625 
Q 24.75 6.390625 31.78125 6.390625 
Q 38.8125 6.390625 42.859375 10.171875 
Q 46.921875 13.96875 46.921875 20.515625 
Q 46.921875 27.09375 42.890625 30.859375 
Q 38.875 34.625 31.78125 34.625 
z
M 21.921875 38.8125 
Q 15.578125 40.375 12.03125 44.71875 
Q 8.5 49.078125 8.5 55.328125 
Q 8.5 64.0625 14.71875 69.140625 
Q 20.953125 74.21875 31.78125 74.21875 
Q 42.671875 74.21875 48.875 69.140625 
Q 55.078125 64.0625 55.078125 55.328125 
Q 55.078125 49.078125 51.53125 44.71875 
Q 48 40.375 41.703125 38.8125 
Q 48.828125 37.15625 52.796875 32.3125 
Q 56.78125 27.484375 56.78125 20.515625 
Q 56.78125 9.90625 50.3125 4.234375 
Q 43.84375 -1.421875 31.78125 -1.421875 
Q 19.734375 -1.421875 13.25 4.234375 
Q 6.78125 9.90625 6.78125 20.515625 
Q 6.78125 27.484375 10.78125 32.3125 
Q 14.796875 37.15625 21.921875 38.8125 
z
M 18.3125 54.390625 
Q 18.3125 48.734375 21.84375 45.5625 
Q 25.390625 42.390625 31.78125 42.390625 
Q 38.140625 42.390625 41.71875 45.5625 
Q 45.3125 48.734375 45.3125 54.390625 
Q 45.3125 60.0625 41.71875 63.234375 
Q 38.140625 66.40625 31.78125 66.40625 
Q 25.390625 66.40625 21.84375 63.234375 
Q 18.3125 60.0625 18.3125 54.390625 
z
" id="DejaVuSans-56"/>
       </defs>
       <use xlink:href="#DejaVuSans-56"/>
       <use x="63.623047" xlink:href="#DejaVuSans-48"/>
       <use x="127.246094" xlink:href="#DejaVuSans-48"/>
       <use x="190.869141" xlink:href="#DejaVuSans-48"/>
      </g>
     </g>
    </g>
    <g id="text_9">
     <!-- Input Dimension -->
     <g style="fill:#262626;" transform="translate(207.336274 328.644063)scale(0.12 -0.12)">
      <defs>
       <path d="M 9.8125 72.90625 
L 19.671875 72.90625 
L 19.671875 0 
L 9.8125 0 
z
" id="DejaVuSans-73"/>
       <path d="M 54.890625 33.015625 
L 54.890625 0 
L 45.90625 0 
L 45.90625 32.71875 
Q 45.90625 40.484375 42.875 44.328125 
Q 39.84375 48.1875 33.796875 48.1875 
Q 26.515625 48.1875 22.3125 43.546875 
Q 18.109375 38.921875 18.109375 30.90625 
L 18.109375 0 
L 9.078125 0 
L 9.078125 54.6875 
L 18.109375 54.6875 
L 18.109375 46.1875 
Q 21.34375 51.125 25.703125 53.5625 
Q 30.078125 56 35.796875 56 
Q 45.21875 56 50.046875 50.171875 
Q 54.890625 44.34375 54.890625 33.015625 
z
" id="DejaVuSans-110"/>
       <path d="M 18.109375 8.203125 
L 18.109375 -20.796875 
L 9.078125 -20.796875 
L 9.078125 54.6875 
L 18.109375 54.6875 
L 18.109375 46.390625 
Q 20.953125 51.265625 25.265625 53.625 
Q 29.59375 56 35.59375 56 
Q 45.5625 56 51.78125 48.09375 
Q 58.015625 40.1875 58.015625 27.296875 
Q 58.015625 14.40625 51.78125 6.484375 
Q 45.5625 -1.421875 35.59375 -1.421875 
Q 29.59375 -1.421875 25.265625 0.953125 
Q 20.953125 3.328125 18.109375 8.203125 
z
M 48.6875 27.296875 
Q 48.6875 37.203125 44.609375 42.84375 
Q 40.53125 48.484375 33.40625 48.484375 
Q 26.265625 48.484375 22.1875 42.84375 
Q 18.109375 37.203125 18.109375 27.296875 
Q 18.109375 17.390625 22.1875 11.75 
Q 26.265625 6.109375 33.40625 6.109375 
Q 40.53125 6.109375 44.609375 11.75 
Q 48.6875 17.390625 48.6875 27.296875 
z
" id="DejaVuSans-112"/>
       <path d="M 8.5 21.578125 
L 8.5 54.6875 
L 17.484375 54.6875 
L 17.484375 21.921875 
Q 17.484375 14.15625 20.5 10.265625 
Q 23.53125 6.390625 29.59375 6.390625 
Q 36.859375 6.390625 41.078125 11.03125 
Q 45.3125 15.671875 45.3125 23.6875 
L 45.3125 54.6875 
L 54.296875 54.6875 
L 54.296875 0 
L 45.3125 0 
L 45.3125 8.40625 
Q 42.046875 3.421875 37.71875 1 
Q 33.40625 -1.421875 27.6875 -1.421875 
Q 18.265625 -1.421875 13.375 4.4375 
Q 8.5 10.296875 8.5 21.578125 
z
M 31.109375 56 
z
" id="DejaVuSans-117"/>
       <path d="M 18.3125 70.21875 
L 18.3125 54.6875 
L 36.8125 54.6875 
L 36.8125 47.703125 
L 18.3125 47.703125 
L 18.3125 18.015625 
Q 18.3125 11.328125 20.140625 9.421875 
Q 21.96875 7.515625 27.59375 7.515625 
L 36.8125 7.515625 
L 36.8125 0 
L 27.59375 0 
Q 17.1875 0 13.234375 3.875 
Q 9.28125 7.765625 9.28125 18.015625 
L 9.28125 47.703125 
L 2.6875 47.703125 
L 2.6875 54.6875 
L 9.28125 54.6875 
L 9.28125 70.21875 
z
" id="DejaVuSans-116"/>
       <path id="DejaVuSans-32"/>
       <path d="M 19.671875 64.796875 
L 19.671875 8.109375 
L 31.59375 8.109375 
Q 46.6875 8.109375 53.6875 14.9375 
Q 60.6875 21.78125 60.6875 36.53125 
Q 60.6875 51.171875 53.6875 57.984375 
Q 46.6875 64.796875 31.59375 64.796875 
z
M 9.8125 72.90625 
L 30.078125 72.90625 
Q 51.265625 72.90625 61.171875 64.09375 
Q 71.09375 55.28125 71.09375 36.53125 
Q 71.09375 17.671875 61.125 8.828125 
Q 51.171875 0 30.078125 0 
L 9.8125 0 
z
" id="DejaVuSans-68"/>
       <path d="M 9.421875 54.6875 
L 18.40625 54.6875 
L 18.40625 0 
L 9.421875 0 
z
M 9.421875 75.984375 
L 18.40625 75.984375 
L 18.40625 64.59375 
L 9.421875 64.59375 
z
" id="DejaVuSans-105"/>
       <path d="M 52 44.1875 
Q 55.375 50.25 60.0625 53.125 
Q 64.75 56 71.09375 56 
Q 79.640625 56 84.28125 50.015625 
Q 88.921875 44.046875 88.921875 33.015625 
L 88.921875 0 
L 79.890625 0 
L 79.890625 32.71875 
Q 79.890625 40.578125 77.09375 44.375 
Q 74.3125 48.1875 68.609375 48.1875 
Q 61.625 48.1875 57.5625 43.546875 
Q 53.515625 38.921875 53.515625 30.90625 
L 53.515625 0 
L 44.484375 0 
L 44.484375 32.71875 
Q 44.484375 40.625 41.703125 44.40625 
Q 38.921875 48.1875 33.109375 48.1875 
Q 26.21875 48.1875 22.15625 43.53125 
Q 18.109375 38.875 18.109375 30.90625 
L 18.109375 0 
L 9.078125 0 
L 9.078125 54.6875 
L 18.109375 54.6875 
L 18.109375 46.1875 
Q 21.1875 51.21875 25.484375 53.609375 
Q 29.78125 56 35.6875 56 
Q 41.65625 56 45.828125 52.96875 
Q 50 49.953125 52 44.1875 
z
" id="DejaVuSans-109"/>
       <path d="M 56.203125 29.59375 
L 56.203125 25.203125 
L 14.890625 25.203125 
Q 15.484375 15.921875 20.484375 11.0625 
Q 25.484375 6.203125 34.421875 6.203125 
Q 39.59375 6.203125 44.453125 7.46875 
Q 49.3125 8.734375 54.109375 11.28125 
L 54.109375 2.78125 
Q 49.265625 0.734375 44.1875 -0.34375 
Q 39.109375 -1.421875 33.890625 -1.421875 
Q 20.796875 -1.421875 13.15625 6.1875 
Q 5.515625 13.8125 5.515625 26.8125 
Q 5.515625 40.234375 12.765625 48.109375 
Q 20.015625 56 32.328125 56 
Q 43.359375 56 49.78125 48.890625 
Q 56.203125 41.796875 56.203125 29.59375 
z
M 47.21875 32.234375 
Q 47.125 39.59375 43.09375 43.984375 
Q 39.0625 48.390625 32.421875 48.390625 
Q 24.90625 48.390625 20.390625 44.140625 
Q 15.875 39.890625 15.1875 32.171875 
z
" id="DejaVuSans-101"/>
       <path d="M 44.28125 53.078125 
L 44.28125 44.578125 
Q 40.484375 46.53125 36.375 47.5 
Q 32.28125 48.484375 27.875 48.484375 
Q 21.1875 48.484375 17.84375 46.4375 
Q 14.5 44.390625 14.5 40.28125 
Q 14.5 37.15625 16.890625 35.375 
Q 19.28125 33.59375 26.515625 31.984375 
L 29.59375 31.296875 
Q 39.15625 29.25 43.1875 25.515625 
Q 47.21875 21.78125 47.21875 15.09375 
Q 47.21875 7.46875 41.1875 3.015625 
Q 35.15625 -1.421875 24.609375 -1.421875 
Q 20.21875 -1.421875 15.453125 -0.5625 
Q 10.6875 0.296875 5.421875 2 
L 5.421875 11.28125 
Q 10.40625 8.6875 15.234375 7.390625 
Q 20.0625 6.109375 24.8125 6.109375 
Q 31.15625 6.109375 34.5625 8.28125 
Q 37.984375 10.453125 37.984375 14.40625 
Q 37.984375 18.0625 35.515625 20.015625 
Q 33.0625 21.96875 24.703125 23.78125 
L 21.578125 24.515625 
Q 13.234375 26.265625 9.515625 29.90625 
Q 5.8125 33.546875 5.8125 39.890625 
Q 5.8125 47.609375 11.28125 51.796875 
Q 16.75 56 26.8125 56 
Q 31.78125 56 36.171875 55.265625 
Q 40.578125 54.546875 44.28125 53.078125 
z
" id="DejaVuSans-115"/>
       <path d="M 30.609375 48.390625 
Q 23.390625 48.390625 19.1875 42.75 
Q 14.984375 37.109375 14.984375 27.296875 
Q 14.984375 17.484375 19.15625 11.84375 
Q 23.34375 6.203125 30.609375 6.203125 
Q 37.796875 6.203125 41.984375 11.859375 
Q 46.1875 17.53125 46.1875 27.296875 
Q 46.1875 37.015625 41.984375 42.703125 
Q 37.796875 48.390625 30.609375 48.390625 
z
M 30.609375 56 
Q 42.328125 56 49.015625 48.375 
Q 55.71875 40.765625 55.71875 27.296875 
Q 55.71875 13.875 49.015625 6.21875 
Q 42.328125 -1.421875 30.609375 -1.421875 
Q 18.84375 -1.421875 12.171875 6.21875 
Q 5.515625 13.875 5.515625 27.296875 
Q 5.515625 40.765625 12.171875 48.375 
Q 18.84375 56 30.609375 56 
z
" id="DejaVuSans-111"/>
      </defs>
      <use xlink:href="#DejaVuSans-73"/>
      <use x="29.492188" xlink:href="#DejaVuSans-110"/>
      <use x="92.871094" xlink:href="#DejaVuSans-112"/>
      <use x="156.347656" xlink:href="#DejaVuSans-117"/>
      <use x="219.726562" xlink:href="#DejaVuSans-116"/>
      <use x="258.935547" xlink:href="#DejaVuSans-32"/>
      <use x="290.722656" xlink:href="#DejaVuSans-68"/>
      <use x="367.724609" xlink:href="#DejaVuSans-105"/>
      <use x="395.507812" xlink:href="#DejaVuSans-109"/>
      <use x="492.919922" xlink:href="#DejaVuSans-101"/>
      <use x="554.443359" xlink:href="#DejaVuSans-110"/>
      <use x="617.822266" xlink:href="#DejaVuSans-115"/>
      <use x="669.921875" xlink:href="#DejaVuSans-105"/>
      <use x="697.705078" xlink:href="#DejaVuSans-111"/>
      <use x="758.886719" xlink:href="#DejaVuSans-110"/>
     </g>
    </g>
   </g>
   <g id="matplotlib.axis_2">
    <g id="ytick_1">
     <g id="line2d_9">
      <path clip-path="url(#p0031a21ed4)" d="M 65.502548 268.446174 
L 447.84 268.446174 
" style="fill:none;stroke:#ffffff;stroke-linecap:round;"/>
     </g>
     <g id="text_10">
      <!-- $\mathdefault{10^{-2}}$ -->
      <g style="fill:#262626;" transform="translate(30.152548 272.625314)scale(0.11 -0.11)">
       <defs>
        <path d="M 10.59375 35.5 
L 73.1875 35.5 
L 73.1875 27.203125 
L 10.59375 27.203125 
z
" id="DejaVuSans-8722"/>
       </defs>
       <use transform="translate(0 0.765625)" xlink:href="#DejaVuSans-49"/>
       <use transform="translate(63.623047 0.765625)" xlink:href="#DejaVuSans-48"/>
       <use transform="translate(128.203125 39.046875)scale(0.7)" xlink:href="#DejaVuSans-8722"/>
       <use transform="translate(186.855469 39.046875)scale(0.7)" xlink:href="#DejaVuSans-50"/>
      </g>
     </g>
    </g>
    <g id="ytick_2">
     <g id="line2d_10">
      <path clip-path="url(#p0031a21ed4)" d="M 65.502548 170.795371 
L 447.84 170.795371 
" style="fill:none;stroke:#ffffff;stroke-linecap:round;"/>
     </g>
     <g id="text_11">
      <!-- $\mathdefault{10^{-1}}$ -->
      <g style="fill:#262626;" transform="translate(30.152548 174.974511)scale(0.11 -0.11)">
       <use transform="translate(0 0.684375)" xlink:href="#DejaVuSans-49"/>
       <use transform="translate(63.623047 0.684375)" xlink:href="#DejaVuSans-48"/>
       <use transform="translate(128.203125 38.965625)scale(0.7)" xlink:href="#DejaVuSans-8722"/>
       <use transform="translate(186.855469 38.965625)scale(0.7)" xlink:href="#DejaVuSans-49"/>
      </g>
     </g>
    </g>
    <g id="ytick_3">
     <g id="line2d_11">
      <path clip-path="url(#p0031a21ed4)" d="M 65.502548 73.144568 
L 447.84 73.144568 
" style="fill:none;stroke:#ffffff;stroke-linecap:round;"/>
     </g>
     <g id="text_12">
      <!-- $\mathdefault{10^{0}}$ -->
      <g style="fill:#262626;" transform="translate(36.642548 77.323708)scale(0.11 -0.11)">
       <use transform="translate(0 0.765625)" xlink:href="#DejaVuSans-49"/>
       <use transform="translate(63.623047 0.765625)" xlink:href="#DejaVuSans-48"/>
       <use transform="translate(128.203125 39.046875)scale(0.7)" xlink:href="#DejaVuSans-48"/>
      </g>
     </g>
    </g>
    <g id="ytick_4"/>
    <g id="ytick_5"/>
    <g id="ytick_6"/>
    <g id="ytick_7"/>
    <g id="ytick_8"/>
    <g id="ytick_9"/>
    <g id="ytick_10"/>
    <g id="ytick_11"/>
    <g id="ytick_12"/>
    <g id="ytick_13"/>
    <g id="ytick_14"/>
    <g id="ytick_15"/>
    <g id="ytick_16"/>
    <g id="ytick_17"/>
    <g id="ytick_18"/>
    <g id="ytick_19"/>
    <g id="ytick_20"/>
    <g id="ytick_21"/>
    <g id="ytick_22"/>
    <g id="ytick_23"/>
    <g id="ytick_24"/>
    <g id="text_13">
     <!-- Runtime (s) -->
     <g style="fill:#262626;" transform="translate(23.656923 196.98375)rotate(-90)scale(0.12 -0.12)">
      <defs>
       <path d="M 44.390625 34.1875 
Q 47.5625 33.109375 50.5625 29.59375 
Q 53.5625 26.078125 56.59375 19.921875 
L 66.609375 0 
L 56 0 
L 46.6875 18.703125 
Q 43.0625 26.03125 39.671875 28.421875 
Q 36.28125 30.8125 30.421875 30.8125 
L 19.671875 30.8125 
L 19.671875 0 
L 9.8125 0 
L 9.8125 72.90625 
L 32.078125 72.90625 
Q 44.578125 72.90625 50.734375 67.671875 
Q 56.890625 62.453125 56.890625 51.90625 
Q 56.890625 45.015625 53.6875 40.46875 
Q 50.484375 35.9375 44.390625 34.1875 
z
M 19.671875 64.796875 
L 19.671875 38.921875 
L 32.078125 38.921875 
Q 39.203125 38.921875 42.84375 42.21875 
Q 46.484375 45.515625 46.484375 51.90625 
Q 46.484375 58.296875 42.84375 61.546875 
Q 39.203125 64.796875 32.078125 64.796875 
z
" id="DejaVuSans-82"/>
       <path d="M 31 75.875 
Q 24.46875 64.65625 21.28125 53.65625 
Q 18.109375 42.671875 18.109375 31.390625 
Q 18.109375 20.125 21.3125 9.0625 
Q 24.515625 -2 31 -13.1875 
L 23.1875 -13.1875 
Q 15.875 -1.703125 12.234375 9.375 
Q 8.59375 20.453125 8.59375 31.390625 
Q 8.59375 42.28125 12.203125 53.3125 
Q 15.828125 64.359375 23.1875 75.875 
z
" id="DejaVuSans-40"/>
       <path d="M 8.015625 75.875 
L 15.828125 75.875 
Q 23.140625 64.359375 26.78125 53.3125 
Q 30.421875 42.28125 30.421875 31.390625 
Q 30.421875 20.453125 26.78125 9.375 
Q 23.140625 -1.703125 15.828125 -13.1875 
L 8.015625 -13.1875 
Q 14.5 -2 17.703125 9.0625 
Q 20.90625 20.125 20.90625 31.390625 
Q 20.90625 42.671875 17.703125 53.65625 
Q 14.5 64.65625 8.015625 75.875 
z
" id="DejaVuSans-41"/>
      </defs>
      <use xlink:href="#DejaVuSans-82"/>
      <use x="64.982422" xlink:href="#DejaVuSans-117"/>
      <use x="128.361328" xlink:href="#DejaVuSans-110"/>
      <use x="191.740234" xlink:href="#DejaVuSans-116"/>
      <use x="230.949219" xlink:href="#DejaVuSans-105"/>
      <use x="258.732422" xlink:href="#DejaVuSans-109"/>
      <use x="356.144531" xlink:href="#DejaVuSans-101"/>
      <use x="417.667969" xlink:href="#DejaVuSans-32"/>
      <use x="449.455078" xlink:href="#DejaVuSans-40"/>
      <use x="488.46875" xlink:href="#DejaVuSans-115"/>
      <use x="540.568359" xlink:href="#DejaVuSans-41"/>
     </g>
    </g>
   </g>
   <g id="line2d_12">
    <path clip-path="url(#p0031a21ed4)" d="M 82.881524 278.223441 
L 107.708631 243.972213 
L 132.535738 220.082301 
L 157.362845 201.254897 
L 182.189952 184.2601 
L 207.01706 170.616992 
L 231.844167 149.733544 
L 256.671274 141.913363 
L 281.498381 133.1647 
L 306.325489 126.127115 
L 331.152596 111.806139 
L 355.979703 110.979246 
L 380.80681 91.789569 
L 405.633918 99.431491 
L 430.461025 93.910917 
" style="fill:none;stroke:#4c72b0;stroke-linecap:round;stroke-width:1.5;"/>
    <defs>
     <path d="M 0 3 
C 0.795609 3 1.55874 2.683901 2.12132 2.12132 
C 2.683901 1.55874 3 0.795609 3 0 
C 3 -0.795609 2.683901 -1.55874 2.12132 -2.12132 
C 1.55874 -2.683901 0.795609 -3 0 -3 
C -0.795609 -3 -1.55874 -2.683901 -2.12132 -2.12132 
C -2.683901 -1.55874 -3 -0.795609 -3 0 
C -3 0.795609 -2.683901 1.55874 -2.12132 2.12132 
C -1.55874 2.683901 -0.795609 3 0 3 
z
" id="ma9e8155ad2" style="stroke:#4c72b0;"/>
    </defs>
    <g clip-path="url(#p0031a21ed4)">
     <use style="fill:#4c72b0;stroke:#4c72b0;" x="82.881524" xlink:href="#ma9e8155ad2" y="278.223441"/>
     <use style="fill:#4c72b0;stroke:#4c72b0;" x="107.708631" xlink:href="#ma9e8155ad2" y="243.972213"/>
     <use style="fill:#4c72b0;stroke:#4c72b0;" x="132.535738" xlink:href="#ma9e8155ad2" y="220.082301"/>
     <use style="fill:#4c72b0;stroke:#4c72b0;" x="157.362845" xlink:href="#ma9e8155ad2" y="201.254897"/>
     <use style="fill:#4c72b0;stroke:#4c72b0;" x="182.189952" xlink:href="#ma9e8155ad2" y="184.2601"/>
     <use style="fill:#4c72b0;stroke:#4c72b0;" x="207.01706" xlink:href="#ma9e8155ad2" y="170.616992"/>
     <use style="fill:#4c72b0;stroke:#4c72b0;" x="231.844167" xlink:href="#ma9e8155ad2" y="149.733544"/>
     <use style="fill:#4c72b0;stroke:#4c72b0;" x="256.671274" xlink:href="#ma9e8155ad2" y="141.913363"/>
     <use style="fill:#4c72b0;stroke:#4c72b0;" x="281.498381" xlink:href="#ma9e8155ad2" y="133.1647"/>
     <use style="fill:#4c72b0;stroke:#4c72b0;" x="306.325489" xlink:href="#ma9e8155ad2" y="126.127115"/>
     <use style="fill:#4c72b0;stroke:#4c72b0;" x="331.152596" xlink:href="#ma9e8155ad2" y="111.806139"/>
     <use style="fill:#4c72b0;stroke:#4c72b0;" x="355.979703" xlink:href="#ma9e8155ad2" y="110.979246"/>
     <use style="fill:#4c72b0;stroke:#4c72b0;" x="380.80681" xlink:href="#ma9e8155ad2" y="91.789569"/>
     <use style="fill:#4c72b0;stroke:#4c72b0;" x="405.633918" xlink:href="#ma9e8155ad2" y="99.431491"/>
     <use style="fill:#4c72b0;stroke:#4c72b0;" x="430.461025" xlink:href="#ma9e8155ad2" y="93.910917"/>
    </g>
   </g>
   <g id="line2d_13">
    <path clip-path="url(#p0031a21ed4)" d="M 82.881524 280.272171 
L 107.708631 246.112629 
L 132.535738 222.025587 
L 157.362845 201.461088 
L 182.189952 186.310585 
L 207.01706 160.668873 
L 231.844167 147.211203 
L 256.671274 144.04338 
L 281.498381 134.904482 
L 306.325489 125.831712 
L 331.152596 115.688454 
L 355.979703 111.582898 
L 380.80681 104.309847 
L 405.633918 101.539643 
L 430.461025 96.478291 
" style="fill:none;stroke:#dd8452;stroke-linecap:round;stroke-width:1.5;"/>
    <defs>
     <path d="M 0 3 
C 0.795609 3 1.55874 2.683901 2.12132 2.12132 
C 2.683901 1.55874 3 0.795609 3 0 
C 3 -0.795609 2.683901 -1.55874 2.12132 -2.12132 
C 1.55874 -2.683901 0.795609 -3 0 -3 
C -0.795609 -3 -1.55874 -2.683901 -2.12132 -2.12132 
C -2.683901 -1.55874 -3 -0.795609 -3 0 
C -3 0.795609 -2.683901 1.55874 -2.12132 2.12132 
C -1.55874 2.683901 -0.795609 3 0 3 
z
" id="mc9f84d227b" style="stroke:#dd8452;"/>
    </defs>
    <g clip-path="url(#p0031a21ed4)">
     <use style="fill:#dd8452;stroke:#dd8452;" x="82.881524" xlink:href="#mc9f84d227b" y="280.272171"/>
     <use style="fill:#dd8452;stroke:#dd8452;" x="107.708631" xlink:href="#mc9f84d227b" y="246.112629"/>
     <use style="fill:#dd8452;stroke:#dd8452;" x="132.535738" xlink:href="#mc9f84d227b" y="222.025587"/>
     <use style="fill:#dd8452;stroke:#dd8452;" x="157.362845" xlink:href="#mc9f84d227b" y="201.461088"/>
     <use style="fill:#dd8452;stroke:#dd8452;" x="182.189952" xlink:href="#mc9f84d227b" y="186.310585"/>
     <use style="fill:#dd8452;stroke:#dd8452;" x="207.01706" xlink:href="#mc9f84d227b" y="160.668873"/>
     <use style="fill:#dd8452;stroke:#dd8452;" x="231.844167" xlink:href="#mc9f84d227b" y="147.211203"/>
     <use style="fill:#dd8452;stroke:#dd8452;" x="256.671274" xlink:href="#mc9f84d227b" y="144.04338"/>
     <use style="fill:#dd8452;stroke:#dd8452;" x="281.498381" xlink:href="#mc9f84d227b" y="134.904482"/>
     <use style="fill:#dd8452;stroke:#dd8452;" x="306.325489" xlink:href="#mc9f84d227b" y="125.831712"/>
     <use style="fill:#dd8452;stroke:#dd8452;" x="331.152596" xlink:href="#mc9f84d227b" y="115.688454"/>
     <use style="fill:#dd8452;stroke:#dd8452;" x="355.979703" xlink:href="#mc9f84d227b" y="111.582898"/>
     <use style="fill:#dd8452;stroke:#dd8452;" x="380.80681" xlink:href="#mc9f84d227b" y="104.309847"/>
     <use style="fill:#dd8452;stroke:#dd8452;" x="405.633918" xlink:href="#mc9f84d227b" y="101.539643"/>
     <use style="fill:#dd8452;stroke:#dd8452;" x="430.461025" xlink:href="#mc9f84d227b" y="96.478291"/>
    </g>
   </g>
   <g id="line2d_14">
    <path clip-path="url(#p0031a21ed4)" d="M 82.881524 232.68931 
L 107.708631 215.882863 
L 132.535738 191.590518 
L 157.362845 161.444819 
L 182.189952 145.558641 
L 207.01706 131.383838 
L 231.844167 120.494416 
L 256.671274 112.105474 
L 281.498381 100.942487 
L 306.325489 92.912041 
L 331.152596 86.16247 
L 355.979703 80.324049 
L 380.80681 73.057062 
L 405.633918 67.310002 
L 430.461025 61.681958 
" style="fill:none;stroke:#55a868;stroke-linecap:round;stroke-width:1.5;"/>
    <defs>
     <path d="M 0 3 
C 0.795609 3 1.55874 2.683901 2.12132 2.12132 
C 2.683901 1.55874 3 0.795609 3 0 
C 3 -0.795609 2.683901 -1.55874 2.12132 -2.12132 
C 1.55874 -2.683901 0.795609 -3 0 -3 
C -0.795609 -3 -1.55874 -2.683901 -2.12132 -2.12132 
C -2.683901 -1.55874 -3 -0.795609 -3 0 
C -3 0.795609 -2.683901 1.55874 -2.12132 2.12132 
C -1.55874 2.683901 -0.795609 3 0 3 
z
" id="m6f13897e67" style="stroke:#55a868;"/>
    </defs>
    <g clip-path="url(#p0031a21ed4)">
     <use style="fill:#55a868;stroke:#55a868;" x="82.881524" xlink:href="#m6f13897e67" y="232.68931"/>
     <use style="fill:#55a868;stroke:#55a868;" x="107.708631" xlink:href="#m6f13897e67" y="215.882863"/>
     <use style="fill:#55a868;stroke:#55a868;" x="132.535738" xlink:href="#m6f13897e67" y="191.590518"/>
     <use style="fill:#55a868;stroke:#55a868;" x="157.362845" xlink:href="#m6f13897e67" y="161.444819"/>
     <use style="fill:#55a868;stroke:#55a868;" x="182.189952" xlink:href="#m6f13897e67" y="145.558641"/>
     <use style="fill:#55a868;stroke:#55a868;" x="207.01706" xlink:href="#m6f13897e67" y="131.383838"/>
     <use style="fill:#55a868;stroke:#55a868;" x="231.844167" xlink:href="#m6f13897e67" y="120.494416"/>
     <use style="fill:#55a868;stroke:#55a868;" x="256.671274" xlink:href="#m6f13897e67" y="112.105474"/>
     <use style="fill:#55a868;stroke:#55a868;" x="281.498381" xlink:href="#m6f13897e67" y="100.942487"/>
     <use style="fill:#55a868;stroke:#55a868;" x="306.325489" xlink:href="#m6f13897e67" y="92.912041"/>
     <use style="fill:#55a868;stroke:#55a868;" x="331.152596" xlink:href="#m6f13897e67" y="86.16247"/>
     <use style="fill:#55a868;stroke:#55a868;" x="355.979703" xlink:href="#m6f13897e67" y="80.324049"/>
     <use style="fill:#55a868;stroke:#55a868;" x="380.80681" xlink:href="#m6f13897e67" y="73.057062"/>
     <use style="fill:#55a868;stroke:#55a868;" x="405.633918" xlink:href="#m6f13897e67" y="67.310002"/>
     <use style="fill:#55a868;stroke:#55a868;" x="430.461025" xlink:href="#m6f13897e67" y="61.681958"/>
    </g>
   </g>
   <g id="line2d_15">
    <path clip-path="url(#p0031a21ed4)" d="M 82.881524 232.305045 
L 107.708631 197.133994 
L 132.535738 172.353781 
L 157.362845 149.147229 
L 182.189952 132.375546 
L 207.01706 118.966311 
L 231.844167 107.693253 
L 256.671274 98.316928 
L 281.498381 89.273147 
L 306.325489 79.779551 
L 331.152596 73.446833 
L 355.979703 66.599406 
L 380.80681 60.424801 
L 405.633918 55.014804 
L 430.461025 49.263908 
" style="fill:none;stroke:#c44e52;stroke-linecap:round;stroke-width:1.5;"/>
    <defs>
     <path d="M 0 3 
C 0.795609 3 1.55874 2.683901 2.12132 2.12132 
C 2.683901 1.55874 3 0.795609 3 0 
C 3 -0.795609 2.683901 -1.55874 2.12132 -2.12132 
C 1.55874 -2.683901 0.795609 -3 0 -3 
C -0.795609 -3 -1.55874 -2.683901 -2.12132 -2.12132 
C -2.683901 -1.55874 -3 -0.795609 -3 0 
C -3 0.795609 -2.683901 1.55874 -2.12132 2.12132 
C -1.55874 2.683901 -0.795609 3 0 3 
z
" id="m225a8d1722" style="stroke:#c44e52;"/>
    </defs>
    <g clip-path="url(#p0031a21ed4)">
     <use style="fill:#c44e52;stroke:#c44e52;" x="82.881524" xlink:href="#m225a8d1722" y="232.305045"/>
     <use style="fill:#c44e52;stroke:#c44e52;" x="107.708631" xlink:href="#m225a8d1722" y="197.133994"/>
     <use style="fill:#c44e52;stroke:#c44e52;" x="132.535738" xlink:href="#m225a8d1722" y="172.353781"/>
     <use style="fill:#c44e52;stroke:#c44e52;" x="157.362845" xlink:href="#m225a8d1722" y="149.147229"/>
     <use style="fill:#c44e52;stroke:#c44e52;" x="182.189952" xlink:href="#m225a8d1722" y="132.375546"/>
     <use style="fill:#c44e52;stroke:#c44e52;" x="207.01706" xlink:href="#m225a8d1722" y="118.966311"/>
     <use style="fill:#c44e52;stroke:#c44e52;" x="231.844167" xlink:href="#m225a8d1722" y="107.693253"/>
     <use style="fill:#c44e52;stroke:#c44e52;" x="256.671274" xlink:href="#m225a8d1722" y="98.316928"/>
     <use style="fill:#c44e52;stroke:#c44e52;" x="281.498381" xlink:href="#m225a8d1722" y="89.273147"/>
     <use style="fill:#c44e52;stroke:#c44e52;" x="306.325489" xlink:href="#m225a8d1722" y="79.779551"/>
     <use style="fill:#c44e52;stroke:#c44e52;" x="331.152596" xlink:href="#m225a8d1722" y="73.446833"/>
     <use style="fill:#c44e52;stroke:#c44e52;" x="355.979703" xlink:href="#m225a8d1722" y="66.599406"/>
     <use style="fill:#c44e52;stroke:#c44e52;" x="380.80681" xlink:href="#m225a8d1722" y="60.424801"/>
     <use style="fill:#c44e52;stroke:#c44e52;" x="405.633918" xlink:href="#m225a8d1722" y="55.014804"/>
     <use style="fill:#c44e52;stroke:#c44e52;" x="430.461025" xlink:href="#m225a8d1722" y="49.263908"/>
    </g>
   </g>
   <g id="line2d_16">
    <path clip-path="url(#p0031a21ed4)" d="M 82.881524 227.513014 
L 107.708631 193.607886 
L 132.535738 169.290157 
L 157.362845 146.968103 
L 182.189952 131.52489 
L 207.01706 118.000793 
L 231.844167 106.140336 
L 256.671274 95.868829 
L 281.498381 86.742769 
L 306.325489 78.376282 
L 331.152596 71.361062 
L 355.979703 63.654806 
L 380.80681 58.49252 
L 405.633918 50.866161 
L 430.461025 46.466994 
" style="fill:none;stroke:#8172b3;stroke-linecap:round;stroke-width:1.5;"/>
    <defs>
     <path d="M 0 3 
C 0.795609 3 1.55874 2.683901 2.12132 2.12132 
C 2.683901 1.55874 3 0.795609 3 0 
C 3 -0.795609 2.683901 -1.55874 2.12132 -2.12132 
C 1.55874 -2.683901 0.795609 -3 0 -3 
C -0.795609 -3 -1.55874 -2.683901 -2.12132 -2.12132 
C -2.683901 -1.55874 -3 -0.795609 -3 0 
C -3 0.795609 -2.683901 1.55874 -2.12132 2.12132 
C -1.55874 2.683901 -0.795609 3 0 3 
z
" id="m5098635e09" style="stroke:#8172b3;"/>
    </defs>
    <g clip-path="url(#p0031a21ed4)">
     <use style="fill:#8172b3;stroke:#8172b3;" x="82.881524" xlink:href="#m5098635e09" y="227.513014"/>
     <use style="fill:#8172b3;stroke:#8172b3;" x="107.708631" xlink:href="#m5098635e09" y="193.607886"/>
     <use style="fill:#8172b3;stroke:#8172b3;" x="132.535738" xlink:href="#m5098635e09" y="169.290157"/>
     <use style="fill:#8172b3;stroke:#8172b3;" x="157.362845" xlink:href="#m5098635e09" y="146.968103"/>
     <use style="fill:#8172b3;stroke:#8172b3;" x="182.189952" xlink:href="#m5098635e09" y="131.52489"/>
     <use style="fill:#8172b3;stroke:#8172b3;" x="207.01706" xlink:href="#m5098635e09" y="118.000793"/>
     <use style="fill:#8172b3;stroke:#8172b3;" x="231.844167" xlink:href="#m5098635e09" y="106.140336"/>
     <use style="fill:#8172b3;stroke:#8172b3;" x="256.671274" xlink:href="#m5098635e09" y="95.868829"/>
     <use style="fill:#8172b3;stroke:#8172b3;" x="281.498381" xlink:href="#m5098635e09" y="86.742769"/>
     <use style="fill:#8172b3;stroke:#8172b3;" x="306.325489" xlink:href="#m5098635e09" y="78.376282"/>
     <use style="fill:#8172b3;stroke:#8172b3;" x="331.152596" xlink:href="#m5098635e09" y="71.361062"/>
     <use style="fill:#8172b3;stroke:#8172b3;" x="355.979703" xlink:href="#m5098635e09" y="63.654806"/>
     <use style="fill:#8172b3;stroke:#8172b3;" x="380.80681" xlink:href="#m5098635e09" y="58.49252"/>
     <use style="fill:#8172b3;stroke:#8172b3;" x="405.633918" xlink:href="#m5098635e09" y="50.866161"/>
     <use style="fill:#8172b3;stroke:#8172b3;" x="430.461025" xlink:href="#m5098635e09" y="46.466994"/>
    </g>
   </g>
   <g id="line2d_17">
    <path clip-path="url(#p0031a21ed4)" d="M 82.881524 253.690234 
L 107.708631 221.108045 
L 132.535738 197.236317 
L 157.362845 178.688775 
L 182.189952 162.796919 
L 207.01706 149.748257 
L 231.844167 137.932186 
L 256.671274 127.525593 
L 281.498381 118.50085 
L 306.325489 109.821939 
L 331.152596 96.771881 
L 355.979703 89.399698 
L 380.80681 83.420896 
L 405.633918 75.819644 
L 430.461025 72.266478 
" style="fill:none;stroke:#937860;stroke-linecap:round;stroke-width:1.5;"/>
    <defs>
     <path d="M 0 3 
C 0.795609 3 1.55874 2.683901 2.12132 2.12132 
C 2.683901 1.55874 3 0.795609 3 0 
C 3 -0.795609 2.683901 -1.55874 2.12132 -2.12132 
C 1.55874 -2.683901 0.795609 -3 0 -3 
C -0.795609 -3 -1.55874 -2.683901 -2.12132 -2.12132 
C -2.683901 -1.55874 -3 -0.795609 -3 0 
C -3 0.795609 -2.683901 1.55874 -2.12132 2.12132 
C -1.55874 2.683901 -0.795609 3 0 3 
z
" id="mc84358fc53" style="stroke:#937860;"/>
    </defs>
    <g clip-path="url(#p0031a21ed4)">
     <use style="fill:#937860;stroke:#937860;" x="82.881524" xlink:href="#mc84358fc53" y="253.690234"/>
     <use style="fill:#937860;stroke:#937860;" x="107.708631" xlink:href="#mc84358fc53" y="221.108045"/>
     <use style="fill:#937860;stroke:#937860;" x="132.535738" xlink:href="#mc84358fc53" y="197.236317"/>
     <use style="fill:#937860;stroke:#937860;" x="157.362845" xlink:href="#mc84358fc53" y="178.688775"/>
     <use style="fill:#937860;stroke:#937860;" x="182.189952" xlink:href="#mc84358fc53" y="162.796919"/>
     <use style="fill:#937860;stroke:#937860;" x="207.01706" xlink:href="#mc84358fc53" y="149.748257"/>
     <use style="fill:#937860;stroke:#937860;" x="231.844167" xlink:href="#mc84358fc53" y="137.932186"/>
     <use style="fill:#937860;stroke:#937860;" x="256.671274" xlink:href="#mc84358fc53" y="127.525593"/>
     <use style="fill:#937860;stroke:#937860;" x="281.498381" xlink:href="#mc84358fc53" y="118.50085"/>
     <use style="fill:#937860;stroke:#937860;" x="306.325489" xlink:href="#mc84358fc53" y="109.821939"/>
     <use style="fill:#937860;stroke:#937860;" x="331.152596" xlink:href="#mc84358fc53" y="96.771881"/>
     <use style="fill:#937860;stroke:#937860;" x="355.979703" xlink:href="#mc84358fc53" y="89.399698"/>
     <use style="fill:#937860;stroke:#937860;" x="380.80681" xlink:href="#mc84358fc53" y="83.420896"/>
     <use style="fill:#937860;stroke:#937860;" x="405.633918" xlink:href="#mc84358fc53" y="75.819644"/>
     <use style="fill:#937860;stroke:#937860;" x="430.461025" xlink:href="#mc84358fc53" y="72.266478"/>
    </g>
   </g>
   <g id="line2d_18">
    <path clip-path="url(#p0031a21ed4)" d="M 82.881524 278.132749 
L 107.708631 243.679125 
L 132.535738 218.730017 
L 157.362845 201.224902 
L 182.189952 182.917778 
L 207.01706 166.107496 
L 231.844167 150.395922 
L 256.671274 137.427264 
L 281.498381 133.131098 
L 306.325489 122.508779 
L 331.152596 117.159012 
L 355.979703 106.951054 
L 380.80681 102.650328 
L 405.633918 88.503088 
L 430.461025 92.58307 
" style="fill:none;stroke:#da8bc3;stroke-linecap:round;stroke-width:1.5;"/>
    <defs>
     <path d="M 0 3 
C 0.795609 3 1.55874 2.683901 2.12132 2.12132 
C 2.683901 1.55874 3 0.795609 3 0 
C 3 -0.795609 2.683901 -1.55874 2.12132 -2.12132 
C 1.55874 -2.683901 0.795609 -3 0 -3 
C -0.795609 -3 -1.55874 -2.683901 -2.12132 -2.12132 
C -2.683901 -1.55874 -3 -0.795609 -3 0 
C -3 0.795609 -2.683901 1.55874 -2.12132 2.12132 
C -1.55874 2.683901 -0.795609 3 0 3 
z
" id="m64307d8490" style="stroke:#da8bc3;"/>
    </defs>
    <g clip-path="url(#p0031a21ed4)">
     <use style="fill:#da8bc3;stroke:#da8bc3;" x="82.881524" xlink:href="#m64307d8490" y="278.132749"/>
     <use style="fill:#da8bc3;stroke:#da8bc3;" x="107.708631" xlink:href="#m64307d8490" y="243.679125"/>
     <use style="fill:#da8bc3;stroke:#da8bc3;" x="132.535738" xlink:href="#m64307d8490" y="218.730017"/>
     <use style="fill:#da8bc3;stroke:#da8bc3;" x="157.362845" xlink:href="#m64307d8490" y="201.224902"/>
     <use style="fill:#da8bc3;stroke:#da8bc3;" x="182.189952" xlink:href="#m64307d8490" y="182.917778"/>
     <use style="fill:#da8bc3;stroke:#da8bc3;" x="207.01706" xlink:href="#m64307d8490" y="166.107496"/>
     <use style="fill:#da8bc3;stroke:#da8bc3;" x="231.844167" xlink:href="#m64307d8490" y="150.395922"/>
     <use style="fill:#da8bc3;stroke:#da8bc3;" x="256.671274" xlink:href="#m64307d8490" y="137.427264"/>
     <use style="fill:#da8bc3;stroke:#da8bc3;" x="281.498381" xlink:href="#m64307d8490" y="133.131098"/>
     <use style="fill:#da8bc3;stroke:#da8bc3;" x="306.325489" xlink:href="#m64307d8490" y="122.508779"/>
     <use style="fill:#da8bc3;stroke:#da8bc3;" x="331.152596" xlink:href="#m64307d8490" y="117.159012"/>
     <use style="fill:#da8bc3;stroke:#da8bc3;" x="355.979703" xlink:href="#m64307d8490" y="106.951054"/>
     <use style="fill:#da8bc3;stroke:#da8bc3;" x="380.80681" xlink:href="#m64307d8490" y="102.650328"/>
     <use style="fill:#da8bc3;stroke:#da8bc3;" x="405.633918" xlink:href="#m64307d8490" y="88.503088"/>
     <use style="fill:#da8bc3;stroke:#da8bc3;" x="430.461025" xlink:href="#m64307d8490" y="92.58307"/>
    </g>
   </g>
   <g id="line2d_19">
    <path clip-path="url(#p0031a21ed4)" d="M 82.881524 283.273636 
L 107.708631 249.352898 
L 132.535738 225.515693 
L 157.362845 206.832275 
L 182.189952 191.591556 
L 207.01706 178.472218 
L 231.844167 167.213658 
L 256.671274 157.392833 
L 281.498381 148.440917 
L 306.325489 139.939179 
L 331.152596 132.814633 
L 355.979703 126.001789 
L 380.80681 119.859411 
L 405.633918 114.302314 
L 430.461025 108.552196 
" style="fill:none;stroke:#8c8c8c;stroke-linecap:round;stroke-width:1.5;"/>
    <defs>
     <path d="M 0 3 
C 0.795609 3 1.55874 2.683901 2.12132 2.12132 
C 2.683901 1.55874 3 0.795609 3 0 
C 3 -0.795609 2.683901 -1.55874 2.12132 -2.12132 
C 1.55874 -2.683901 0.795609 -3 0 -3 
C -0.795609 -3 -1.55874 -2.683901 -2.12132 -2.12132 
C -2.683901 -1.55874 -3 -0.795609 -3 0 
C -3 0.795609 -2.683901 1.55874 -2.12132 2.12132 
C -1.55874 2.683901 -0.795609 3 0 3 
z
" id="m1385726d4b" style="stroke:#8c8c8c;"/>
    </defs>
    <g clip-path="url(#p0031a21ed4)">
     <use style="fill:#8c8c8c;stroke:#8c8c8c;" x="82.881524" xlink:href="#m1385726d4b" y="283.273636"/>
     <use style="fill:#8c8c8c;stroke:#8c8c8c;" x="107.708631" xlink:href="#m1385726d4b" y="249.352898"/>
     <use style="fill:#8c8c8c;stroke:#8c8c8c;" x="132.535738" xlink:href="#m1385726d4b" y="225.515693"/>
     <use style="fill:#8c8c8c;stroke:#8c8c8c;" x="157.362845" xlink:href="#m1385726d4b" y="206.832275"/>
     <use style="fill:#8c8c8c;stroke:#8c8c8c;" x="182.189952" xlink:href="#m1385726d4b" y="191.591556"/>
     <use style="fill:#8c8c8c;stroke:#8c8c8c;" x="207.01706" xlink:href="#m1385726d4b" y="178.472218"/>
     <use style="fill:#8c8c8c;stroke:#8c8c8c;" x="231.844167" xlink:href="#m1385726d4b" y="167.213658"/>
     <use style="fill:#8c8c8c;stroke:#8c8c8c;" x="256.671274" xlink:href="#m1385726d4b" y="157.392833"/>
     <use style="fill:#8c8c8c;stroke:#8c8c8c;" x="281.498381" xlink:href="#m1385726d4b" y="148.440917"/>
     <use style="fill:#8c8c8c;stroke:#8c8c8c;" x="306.325489" xlink:href="#m1385726d4b" y="139.939179"/>
     <use style="fill:#8c8c8c;stroke:#8c8c8c;" x="331.152596" xlink:href="#m1385726d4b" y="132.814633"/>
     <use style="fill:#8c8c8c;stroke:#8c8c8c;" x="355.979703" xlink:href="#m1385726d4b" y="126.001789"/>
     <use style="fill:#8c8c8c;stroke:#8c8c8c;" x="380.80681" xlink:href="#m1385726d4b" y="119.859411"/>
     <use style="fill:#8c8c8c;stroke:#8c8c8c;" x="405.633918" xlink:href="#m1385726d4b" y="114.302314"/>
     <use style="fill:#8c8c8c;stroke:#8c8c8c;" x="430.461025" xlink:href="#m1385726d4b" y="108.552196"/>
    </g>
   </g>
   <g id="line2d_20">
    <path clip-path="url(#p0031a21ed4)" d="M 82.881524 282.63477 
L 107.708631 248.562758 
L 132.535738 224.600976 
L 157.362845 205.791675 
L 182.189952 190.089418 
L 207.01706 177.352963 
L 231.844167 165.716681 
L 256.671274 156.002762 
L 281.498381 146.898522 
L 306.325489 138.871837 
L 331.152596 131.412815 
L 355.979703 124.340875 
L 380.80681 117.127775 
L 405.633918 41.146364 
L 430.461025 106.807115 
" style="fill:none;stroke:#ccb974;stroke-linecap:round;stroke-width:1.5;"/>
    <defs>
     <path d="M 0 3 
C 0.795609 3 1.55874 2.683901 2.12132 2.12132 
C 2.683901 1.55874 3 0.795609 3 0 
C 3 -0.795609 2.683901 -1.55874 2.12132 -2.12132 
C 1.55874 -2.683901 0.795609 -3 0 -3 
C -0.795609 -3 -1.55874 -2.683901 -2.12132 -2.12132 
C -2.683901 -1.55874 -3 -0.795609 -3 0 
C -3 0.795609 -2.683901 1.55874 -2.12132 2.12132 
C -1.55874 2.683901 -0.795609 3 0 3 
z
" id="md0d63139df" style="stroke:#ccb974;"/>
    </defs>
    <g clip-path="url(#p0031a21ed4)">
     <use style="fill:#ccb974;stroke:#ccb974;" x="82.881524" xlink:href="#md0d63139df" y="282.63477"/>
     <use style="fill:#ccb974;stroke:#ccb974;" x="107.708631" xlink:href="#md0d63139df" y="248.562758"/>
     <use style="fill:#ccb974;stroke:#ccb974;" x="132.535738" xlink:href="#md0d63139df" y="224.600976"/>
     <use style="fill:#ccb974;stroke:#ccb974;" x="157.362845" xlink:href="#md0d63139df" y="205.791675"/>
     <use style="fill:#ccb974;stroke:#ccb974;" x="182.189952" xlink:href="#md0d63139df" y="190.089418"/>
     <use style="fill:#ccb974;stroke:#ccb974;" x="207.01706" xlink:href="#md0d63139df" y="177.352963"/>
     <use style="fill:#ccb974;stroke:#ccb974;" x="231.844167" xlink:href="#md0d63139df" y="165.716681"/>
     <use style="fill:#ccb974;stroke:#ccb974;" x="256.671274" xlink:href="#md0d63139df" y="156.002762"/>
     <use style="fill:#ccb974;stroke:#ccb974;" x="281.498381" xlink:href="#md0d63139df" y="146.898522"/>
     <use style="fill:#ccb974;stroke:#ccb974;" x="306.325489" xlink:href="#md0d63139df" y="138.871837"/>
     <use style="fill:#ccb974;stroke:#ccb974;" x="331.152596" xlink:href="#md0d63139df" y="131.412815"/>
     <use style="fill:#ccb974;stroke:#ccb974;" x="355.979703" xlink:href="#md0d63139df" y="124.340875"/>
     <use style="fill:#ccb974;stroke:#ccb974;" x="380.80681" xlink:href="#md0d63139df" y="117.127775"/>
     <use style="fill:#ccb974;stroke:#ccb974;" x="405.633918" xlink:href="#md0d63139df" y="41.146364"/>
     <use style="fill:#ccb974;stroke:#ccb974;" x="430.461025" xlink:href="#md0d63139df" y="106.807115"/>
    </g>
   </g>
   <g id="patch_3">
    <path d="M 65.502548 295.38 
L 65.502548 29.04 
" style="fill:none;stroke:#ffffff;stroke-linecap:square;stroke-linejoin:miter;stroke-width:1.25;"/>
   </g>
   <g id="patch_4">
    <path d="M 447.84 295.38 
L 447.84 29.04 
" style="fill:none;stroke:#ffffff;stroke-linecap:square;stroke-linejoin:miter;stroke-width:1.25;"/>
   </g>
   <g id="patch_5">
    <path d="M 65.502548 295.38 
L 447.84 295.38 
" style="fill:none;stroke:#ffffff;stroke-linecap:square;stroke-linejoin:miter;stroke-width:1.25;"/>
   </g>
   <g id="patch_6">
    <path d="M 65.502548 29.04 
L 447.84 29.04 
" style="fill:none;stroke:#ffffff;stroke-linecap:square;stroke-linejoin:miter;stroke-width:1.25;"/>
   </g>
   <g id="text_14">
    <!-- Runtime (8 nodes) -->
    <g style="fill:#262626;" transform="translate(201.198462 23.04)scale(0.12 -0.12)">
     <defs>
      <path d="M 45.40625 46.390625 
L 45.40625 75.984375 
L 54.390625 75.984375 
L 54.390625 0 
L 45.40625 0 
L 45.40625 8.203125 
Q 42.578125 3.328125 38.25 0.953125 
Q 33.9375 -1.421875 27.875 -1.421875 
Q 17.96875 -1.421875 11.734375 6.484375 
Q 5.515625 14.40625 5.515625 27.296875 
Q 5.515625 40.1875 11.734375 48.09375 
Q 17.96875 56 27.875 56 
Q 33.9375 56 38.25 53.625 
Q 42.578125 51.265625 45.40625 46.390625 
z
M 14.796875 27.296875 
Q 14.796875 17.390625 18.875 11.75 
Q 22.953125 6.109375 30.078125 6.109375 
Q 37.203125 6.109375 41.296875 11.75 
Q 45.40625 17.390625 45.40625 27.296875 
Q 45.40625 37.203125 41.296875 42.84375 
Q 37.203125 48.484375 30.078125 48.484375 
Q 22.953125 48.484375 18.875 42.84375 
Q 14.796875 37.203125 14.796875 27.296875 
z
" id="DejaVuSans-100"/>
     </defs>
     <use xlink:href="#DejaVuSans-82"/>
     <use x="64.982422" xlink:href="#DejaVuSans-117"/>
     <use x="128.361328" xlink:href="#DejaVuSans-110"/>
     <use x="191.740234" xlink:href="#DejaVuSans-116"/>
     <use x="230.949219" xlink:href="#DejaVuSans-105"/>
     <use x="258.732422" xlink:href="#DejaVuSans-109"/>
     <use x="356.144531" xlink:href="#DejaVuSans-101"/>
     <use x="417.667969" xlink:href="#DejaVuSans-32"/>
     <use x="449.455078" xlink:href="#DejaVuSans-40"/>
     <use x="488.46875" xlink:href="#DejaVuSans-56"/>
     <use x="552.091797" xlink:href="#DejaVuSans-32"/>
     <use x="583.878906" xlink:href="#DejaVuSans-110"/>
     <use x="647.257812" xlink:href="#DejaVuSans-111"/>
     <use x="708.439453" xlink:href="#DejaVuSans-100"/>
     <use x="771.916016" xlink:href="#DejaVuSans-101"/>
     <use x="833.439453" xlink:href="#DejaVuSans-115"/>
     <use x="885.539062" xlink:href="#DejaVuSans-41"/>
    </g>
   </g>
   <g id="legend_1">
    <g id="patch_7">
     <path d="M 271.895 289.88 
L 440.14 289.88 
Q 442.34 289.88 442.34 287.68 
L 442.34 126.352812 
Q 442.34 124.152812 440.14 124.152812 
L 271.895 124.152812 
Q 269.695 124.152812 269.695 126.352812 
L 269.695 287.68 
Q 269.695 289.88 271.895 289.88 
z
" style="fill:#eaeaf2;opacity:0.8;stroke:#cccccc;stroke-linejoin:miter;"/>
    </g>
    <g id="text_15">
     <!-- implementation -->
     <g style="fill:#262626;" transform="translate(308.477813 137.670937)scale(0.12 -0.12)">
      <defs>
       <path d="M 9.421875 75.984375 
L 18.40625 75.984375 
L 18.40625 0 
L 9.421875 0 
z
" id="DejaVuSans-108"/>
       <path d="M 34.28125 27.484375 
Q 23.390625 27.484375 19.1875 25 
Q 14.984375 22.515625 14.984375 16.5 
Q 14.984375 11.71875 18.140625 8.90625 
Q 21.296875 6.109375 26.703125 6.109375 
Q 34.1875 6.109375 38.703125 11.40625 
Q 43.21875 16.703125 43.21875 25.484375 
L 43.21875 27.484375 
z
M 52.203125 31.203125 
L 52.203125 0 
L 43.21875 0 
L 43.21875 8.296875 
Q 40.140625 3.328125 35.546875 0.953125 
Q 30.953125 -1.421875 24.3125 -1.421875 
Q 15.921875 -1.421875 10.953125 3.296875 
Q 6 8.015625 6 15.921875 
Q 6 25.140625 12.171875 29.828125 
Q 18.359375 34.515625 30.609375 34.515625 
L 43.21875 34.515625 
L 43.21875 35.40625 
Q 43.21875 41.609375 39.140625 45 
Q 35.0625 48.390625 27.6875 48.390625 
Q 23 48.390625 18.546875 47.265625 
Q 14.109375 46.140625 10.015625 43.890625 
L 10.015625 52.203125 
Q 14.9375 54.109375 19.578125 55.046875 
Q 24.21875 56 28.609375 56 
Q 40.484375 56 46.34375 49.84375 
Q 52.203125 43.703125 52.203125 31.203125 
z
" id="DejaVuSans-97"/>
      </defs>
      <use xlink:href="#DejaVuSans-105"/>
      <use x="27.783203" xlink:href="#DejaVuSans-109"/>
      <use x="125.195312" xlink:href="#DejaVuSans-112"/>
      <use x="188.671875" xlink:href="#DejaVuSans-108"/>
      <use x="216.455078" xlink:href="#DejaVuSans-101"/>
      <use x="277.978516" xlink:href="#DejaVuSans-109"/>
      <use x="375.390625" xlink:href="#DejaVuSans-101"/>
      <use x="436.914062" xlink:href="#DejaVuSans-110"/>
      <use x="500.292969" xlink:href="#DejaVuSans-116"/>
      <use x="539.501953" xlink:href="#DejaVuSans-97"/>
      <use x="600.78125" xlink:href="#DejaVuSans-116"/>
      <use x="639.990234" xlink:href="#DejaVuSans-105"/>
      <use x="667.773438" xlink:href="#DejaVuSans-111"/>
      <use x="728.955078" xlink:href="#DejaVuSans-110"/>
     </g>
    </g>
    <g id="line2d_21">
     <path d="M 274.095 150.174844 
L 296.095 150.174844 
" style="fill:none;stroke:#4c72b0;stroke-linecap:round;stroke-width:1.5;"/>
    </g>
    <g id="line2d_22">
     <g>
      <use style="fill:#4c72b0;stroke:#4c72b0;" x="285.095" xlink:href="#ma9e8155ad2" y="150.174844"/>
     </g>
    </g>
    <g id="text_16">
     <!-- allgather -->
     <g style="fill:#262626;" transform="translate(304.895 154.024844)scale(0.11 -0.11)">
      <defs>
       <path d="M 45.40625 27.984375 
Q 45.40625 37.75 41.375 43.109375 
Q 37.359375 48.484375 30.078125 48.484375 
Q 22.859375 48.484375 18.828125 43.109375 
Q 14.796875 37.75 14.796875 27.984375 
Q 14.796875 18.265625 18.828125 12.890625 
Q 22.859375 7.515625 30.078125 7.515625 
Q 37.359375 7.515625 41.375 12.890625 
Q 45.40625 18.265625 45.40625 27.984375 
z
M 54.390625 6.78125 
Q 54.390625 -7.171875 48.1875 -13.984375 
Q 42 -20.796875 29.203125 -20.796875 
Q 24.46875 -20.796875 20.265625 -20.09375 
Q 16.0625 -19.390625 12.109375 -17.921875 
L 12.109375 -9.1875 
Q 16.0625 -11.328125 19.921875 -12.34375 
Q 23.78125 -13.375 27.78125 -13.375 
Q 36.625 -13.375 41.015625 -8.765625 
Q 45.40625 -4.15625 45.40625 5.171875 
L 45.40625 9.625 
Q 42.625 4.78125 38.28125 2.390625 
Q 33.9375 0 27.875 0 
Q 17.828125 0 11.671875 7.65625 
Q 5.515625 15.328125 5.515625 27.984375 
Q 5.515625 40.671875 11.671875 48.328125 
Q 17.828125 56 27.875 56 
Q 33.9375 56 38.28125 53.609375 
Q 42.625 51.21875 45.40625 46.390625 
L 45.40625 54.6875 
L 54.390625 54.6875 
z
" id="DejaVuSans-103"/>
       <path d="M 54.890625 33.015625 
L 54.890625 0 
L 45.90625 0 
L 45.90625 32.71875 
Q 45.90625 40.484375 42.875 44.328125 
Q 39.84375 48.1875 33.796875 48.1875 
Q 26.515625 48.1875 22.3125 43.546875 
Q 18.109375 38.921875 18.109375 30.90625 
L 18.109375 0 
L 9.078125 0 
L 9.078125 75.984375 
L 18.109375 75.984375 
L 18.109375 46.1875 
Q 21.34375 51.125 25.703125 53.5625 
Q 30.078125 56 35.796875 56 
Q 45.21875 56 50.046875 50.171875 
Q 54.890625 44.34375 54.890625 33.015625 
z
" id="DejaVuSans-104"/>
       <path d="M 41.109375 46.296875 
Q 39.59375 47.171875 37.8125 47.578125 
Q 36.03125 48 33.890625 48 
Q 26.265625 48 22.1875 43.046875 
Q 18.109375 38.09375 18.109375 28.8125 
L 18.109375 0 
L 9.078125 0 
L 9.078125 54.6875 
L 18.109375 54.6875 
L 18.109375 46.1875 
Q 20.953125 51.171875 25.484375 53.578125 
Q 30.03125 56 36.53125 56 
Q 37.453125 56 38.578125 55.875 
Q 39.703125 55.765625 41.0625 55.515625 
z
" id="DejaVuSans-114"/>
      </defs>
      <use xlink:href="#DejaVuSans-97"/>
      <use x="61.279297" xlink:href="#DejaVuSans-108"/>
      <use x="89.0625" xlink:href="#DejaVuSans-108"/>
      <use x="116.845703" xlink:href="#DejaVuSans-103"/>
      <use x="180.322266" xlink:href="#DejaVuSans-97"/>
      <use x="241.601562" xlink:href="#DejaVuSans-116"/>
      <use x="280.810547" xlink:href="#DejaVuSans-104"/>
      <use x="344.189453" xlink:href="#DejaVuSans-101"/>
      <use x="405.712891" xlink:href="#DejaVuSans-114"/>
     </g>
    </g>
    <g id="line2d_23">
     <path d="M 274.095 166.320781 
L 296.095 166.320781 
" style="fill:none;stroke:#dd8452;stroke-linecap:round;stroke-width:1.5;"/>
    </g>
    <g id="line2d_24">
     <g>
      <use style="fill:#dd8452;stroke:#dd8452;" x="285.095" xlink:href="#mc9f84d227b" y="166.320781"/>
     </g>
    </g>
    <g id="text_17">
     <!-- allgather-async -->
     <g style="fill:#262626;" transform="translate(304.895 170.170781)scale(0.11 -0.11)">
      <defs>
       <path d="M 4.890625 31.390625 
L 31.203125 31.390625 
L 31.203125 23.390625 
L 4.890625 23.390625 
z
" id="DejaVuSans-45"/>
       <path d="M 32.171875 -5.078125 
Q 28.375 -14.84375 24.75 -17.8125 
Q 21.140625 -20.796875 15.09375 -20.796875 
L 7.90625 -20.796875 
L 7.90625 -13.28125 
L 13.1875 -13.28125 
Q 16.890625 -13.28125 18.9375 -11.515625 
Q 21 -9.765625 23.484375 -3.21875 
L 25.09375 0.875 
L 2.984375 54.6875 
L 12.5 54.6875 
L 29.59375 11.921875 
L 46.6875 54.6875 
L 56.203125 54.6875 
z
" id="DejaVuSans-121"/>
       <path d="M 48.78125 52.59375 
L 48.78125 44.1875 
Q 44.96875 46.296875 41.140625 47.34375 
Q 37.3125 48.390625 33.40625 48.390625 
Q 24.65625 48.390625 19.8125 42.84375 
Q 14.984375 37.3125 14.984375 27.296875 
Q 14.984375 17.28125 19.8125 11.734375 
Q 24.65625 6.203125 33.40625 6.203125 
Q 37.3125 6.203125 41.140625 7.25 
Q 44.96875 8.296875 48.78125 10.40625 
L 48.78125 2.09375 
Q 45.015625 0.34375 40.984375 -0.53125 
Q 36.96875 -1.421875 32.421875 -1.421875 
Q 20.0625 -1.421875 12.78125 6.34375 
Q 5.515625 14.109375 5.515625 27.296875 
Q 5.515625 40.671875 12.859375 48.328125 
Q 20.21875 56 33.015625 56 
Q 37.15625 56 41.109375 55.140625 
Q 45.0625 54.296875 48.78125 52.59375 
z
" id="DejaVuSans-99"/>
      </defs>
      <use xlink:href="#DejaVuSans-97"/>
      <use x="61.279297" xlink:href="#DejaVuSans-108"/>
      <use x="89.0625" xlink:href="#DejaVuSans-108"/>
      <use x="116.845703" xlink:href="#DejaVuSans-103"/>
      <use x="180.322266" xlink:href="#DejaVuSans-97"/>
      <use x="241.601562" xlink:href="#DejaVuSans-116"/>
      <use x="280.810547" xlink:href="#DejaVuSans-104"/>
      <use x="344.189453" xlink:href="#DejaVuSans-101"/>
      <use x="405.712891" xlink:href="#DejaVuSans-114"/>
      <use x="440.451172" xlink:href="#DejaVuSans-45"/>
      <use x="476.535156" xlink:href="#DejaVuSans-97"/>
      <use x="537.814453" xlink:href="#DejaVuSans-115"/>
      <use x="589.914062" xlink:href="#DejaVuSans-121"/>
      <use x="649.09375" xlink:href="#DejaVuSans-110"/>
      <use x="712.472656" xlink:href="#DejaVuSans-99"/>
     </g>
    </g>
    <g id="line2d_25">
     <path d="M 274.095 182.466719 
L 296.095 182.466719 
" style="fill:none;stroke:#55a868;stroke-linecap:round;stroke-width:1.5;"/>
    </g>
    <g id="line2d_26">
     <g>
      <use style="fill:#55a868;stroke:#55a868;" x="285.095" xlink:href="#m6f13897e67" y="182.466719"/>
     </g>
    </g>
    <g id="text_18">
     <!-- allreduce -->
     <g style="fill:#262626;" transform="translate(304.895 186.316719)scale(0.11 -0.11)">
      <use xlink:href="#DejaVuSans-97"/>
      <use x="61.279297" xlink:href="#DejaVuSans-108"/>
      <use x="89.0625" xlink:href="#DejaVuSans-108"/>
      <use x="116.845703" xlink:href="#DejaVuSans-114"/>
      <use x="155.708984" xlink:href="#DejaVuSans-101"/>
      <use x="217.232422" xlink:href="#DejaVuSans-100"/>
      <use x="280.708984" xlink:href="#DejaVuSans-117"/>
      <use x="344.087891" xlink:href="#DejaVuSans-99"/>
      <use x="399.068359" xlink:href="#DejaVuSans-101"/>
     </g>
    </g>
    <g id="line2d_27">
     <path d="M 274.095 198.612656 
L 296.095 198.612656 
" style="fill:none;stroke:#c44e52;stroke-linecap:round;stroke-width:1.5;"/>
    </g>
    <g id="line2d_28">
     <g>
      <use style="fill:#c44e52;stroke:#c44e52;" x="285.095" xlink:href="#m225a8d1722" y="198.612656"/>
     </g>
    </g>
    <g id="text_19">
     <!-- allreduce-butterfly -->
     <g style="fill:#262626;" transform="translate(304.895 202.462656)scale(0.11 -0.11)">
      <defs>
       <path d="M 48.6875 27.296875 
Q 48.6875 37.203125 44.609375 42.84375 
Q 40.53125 48.484375 33.40625 48.484375 
Q 26.265625 48.484375 22.1875 42.84375 
Q 18.109375 37.203125 18.109375 27.296875 
Q 18.109375 17.390625 22.1875 11.75 
Q 26.265625 6.109375 33.40625 6.109375 
Q 40.53125 6.109375 44.609375 11.75 
Q 48.6875 17.390625 48.6875 27.296875 
z
M 18.109375 46.390625 
Q 20.953125 51.265625 25.265625 53.625 
Q 29.59375 56 35.59375 56 
Q 45.5625 56 51.78125 48.09375 
Q 58.015625 40.1875 58.015625 27.296875 
Q 58.015625 14.40625 51.78125 6.484375 
Q 45.5625 -1.421875 35.59375 -1.421875 
Q 29.59375 -1.421875 25.265625 0.953125 
Q 20.953125 3.328125 18.109375 8.203125 
L 18.109375 0 
L 9.078125 0 
L 9.078125 75.984375 
L 18.109375 75.984375 
z
" id="DejaVuSans-98"/>
       <path d="M 37.109375 75.984375 
L 37.109375 68.5 
L 28.515625 68.5 
Q 23.6875 68.5 21.796875 66.546875 
Q 19.921875 64.59375 19.921875 59.515625 
L 19.921875 54.6875 
L 34.71875 54.6875 
L 34.71875 47.703125 
L 19.921875 47.703125 
L 19.921875 0 
L 10.890625 0 
L 10.890625 47.703125 
L 2.296875 47.703125 
L 2.296875 54.6875 
L 10.890625 54.6875 
L 10.890625 58.5 
Q 10.890625 67.625 15.140625 71.796875 
Q 19.390625 75.984375 28.609375 75.984375 
z
" id="DejaVuSans-102"/>
      </defs>
      <use xlink:href="#DejaVuSans-97"/>
      <use x="61.279297" xlink:href="#DejaVuSans-108"/>
      <use x="89.0625" xlink:href="#DejaVuSans-108"/>
      <use x="116.845703" xlink:href="#DejaVuSans-114"/>
      <use x="155.708984" xlink:href="#DejaVuSans-101"/>
      <use x="217.232422" xlink:href="#DejaVuSans-100"/>
      <use x="280.708984" xlink:href="#DejaVuSans-117"/>
      <use x="344.087891" xlink:href="#DejaVuSans-99"/>
      <use x="399.068359" xlink:href="#DejaVuSans-101"/>
      <use x="460.591797" xlink:href="#DejaVuSans-45"/>
      <use x="496.675781" xlink:href="#DejaVuSans-98"/>
      <use x="560.152344" xlink:href="#DejaVuSans-117"/>
      <use x="623.53125" xlink:href="#DejaVuSans-116"/>
      <use x="662.740234" xlink:href="#DejaVuSans-116"/>
      <use x="701.949219" xlink:href="#DejaVuSans-101"/>
      <use x="763.472656" xlink:href="#DejaVuSans-114"/>
      <use x="804.585938" xlink:href="#DejaVuSans-102"/>
      <use x="839.791016" xlink:href="#DejaVuSans-108"/>
      <use x="867.574219" xlink:href="#DejaVuSans-121"/>
     </g>
    </g>
    <g id="line2d_29">
     <path d="M 274.095 214.758594 
L 296.095 214.758594 
" style="fill:none;stroke:#8172b3;stroke-linecap:round;stroke-width:1.5;"/>
    </g>
    <g id="line2d_30">
     <g>
      <use style="fill:#8172b3;stroke:#8172b3;" x="285.095" xlink:href="#m5098635e09" y="214.758594"/>
     </g>
    </g>
    <g id="text_20">
     <!-- allreduce-rabenseifner -->
     <g style="fill:#262626;" transform="translate(304.895 218.608594)scale(0.11 -0.11)">
      <use xlink:href="#DejaVuSans-97"/>
      <use x="61.279297" xlink:href="#DejaVuSans-108"/>
      <use x="89.0625" xlink:href="#DejaVuSans-108"/>
      <use x="116.845703" xlink:href="#DejaVuSans-114"/>
      <use x="155.708984" xlink:href="#DejaVuSans-101"/>
      <use x="217.232422" xlink:href="#DejaVuSans-100"/>
      <use x="280.708984" xlink:href="#DejaVuSans-117"/>
      <use x="344.087891" xlink:href="#DejaVuSans-99"/>
      <use x="399.068359" xlink:href="#DejaVuSans-101"/>
      <use x="460.591797" xlink:href="#DejaVuSans-45"/>
      <use x="496.675781" xlink:href="#DejaVuSans-114"/>
      <use x="537.789062" xlink:href="#DejaVuSans-97"/>
      <use x="599.068359" xlink:href="#DejaVuSans-98"/>
      <use x="662.544922" xlink:href="#DejaVuSans-101"/>
      <use x="724.068359" xlink:href="#DejaVuSans-110"/>
      <use x="787.447266" xlink:href="#DejaVuSans-115"/>
      <use x="839.546875" xlink:href="#DejaVuSans-101"/>
      <use x="901.070312" xlink:href="#DejaVuSans-105"/>
      <use x="928.853516" xlink:href="#DejaVuSans-102"/>
      <use x="964.058594" xlink:href="#DejaVuSans-110"/>
      <use x="1027.4375" xlink:href="#DejaVuSans-101"/>
      <use x="1088.960938" xlink:href="#DejaVuSans-114"/>
     </g>
    </g>
    <g id="line2d_31">
     <path d="M 274.095 230.904531 
L 296.095 230.904531 
" style="fill:none;stroke:#937860;stroke-linecap:round;stroke-width:1.5;"/>
    </g>
    <g id="line2d_32">
     <g>
      <use style="fill:#937860;stroke:#937860;" x="285.095" xlink:href="#mc84358fc53" y="230.904531"/>
     </g>
    </g>
    <g id="text_21">
     <!-- allreduce-ring -->
     <g style="fill:#262626;" transform="translate(304.895 234.754531)scale(0.11 -0.11)">
      <use xlink:href="#DejaVuSans-97"/>
      <use x="61.279297" xlink:href="#DejaVuSans-108"/>
      <use x="89.0625" xlink:href="#DejaVuSans-108"/>
      <use x="116.845703" xlink:href="#DejaVuSans-114"/>
      <use x="155.708984" xlink:href="#DejaVuSans-101"/>
      <use x="217.232422" xlink:href="#DejaVuSans-100"/>
      <use x="280.708984" xlink:href="#DejaVuSans-117"/>
      <use x="344.087891" xlink:href="#DejaVuSans-99"/>
      <use x="399.068359" xlink:href="#DejaVuSans-101"/>
      <use x="460.591797" xlink:href="#DejaVuSans-45"/>
      <use x="496.675781" xlink:href="#DejaVuSans-114"/>
      <use x="537.789062" xlink:href="#DejaVuSans-105"/>
      <use x="565.572266" xlink:href="#DejaVuSans-110"/>
      <use x="628.951172" xlink:href="#DejaVuSans-103"/>
     </g>
    </g>
    <g id="line2d_33">
     <path d="M 274.095 247.050469 
L 296.095 247.050469 
" style="fill:none;stroke:#da8bc3;stroke-linecap:round;stroke-width:1.5;"/>
    </g>
    <g id="line2d_34">
     <g>
      <use style="fill:#da8bc3;stroke:#da8bc3;" x="285.095" xlink:href="#m64307d8490" y="247.050469"/>
     </g>
    </g>
    <g id="text_22">
     <!-- bruck-async -->
     <g style="fill:#262626;" transform="translate(304.895 250.900469)scale(0.11 -0.11)">
      <defs>
       <path d="M 9.078125 75.984375 
L 18.109375 75.984375 
L 18.109375 31.109375 
L 44.921875 54.6875 
L 56.390625 54.6875 
L 27.390625 29.109375 
L 57.625 0 
L 45.90625 0 
L 18.109375 26.703125 
L 18.109375 0 
L 9.078125 0 
z
" id="DejaVuSans-107"/>
      </defs>
      <use xlink:href="#DejaVuSans-98"/>
      <use x="63.476562" xlink:href="#DejaVuSans-114"/>
      <use x="104.589844" xlink:href="#DejaVuSans-117"/>
      <use x="167.96875" xlink:href="#DejaVuSans-99"/>
      <use x="222.949219" xlink:href="#DejaVuSans-107"/>
      <use x="280.859375" xlink:href="#DejaVuSans-45"/>
      <use x="316.943359" xlink:href="#DejaVuSans-97"/>
      <use x="378.222656" xlink:href="#DejaVuSans-115"/>
      <use x="430.322266" xlink:href="#DejaVuSans-121"/>
      <use x="489.501953" xlink:href="#DejaVuSans-110"/>
      <use x="552.880859" xlink:href="#DejaVuSans-99"/>
     </g>
    </g>
    <g id="line2d_35">
     <path d="M 274.095 263.196406 
L 296.095 263.196406 
" style="fill:none;stroke:#8c8c8c;stroke-linecap:round;stroke-width:1.5;"/>
    </g>
    <g id="line2d_36">
     <g>
      <use style="fill:#8c8c8c;stroke:#8c8c8c;" x="285.095" xlink:href="#m1385726d4b" y="263.196406"/>
     </g>
    </g>
    <g id="text_23">
     <!-- g-rabenseifner-allgather -->
     <g style="fill:#262626;" transform="translate(304.895 267.046406)scale(0.11 -0.11)">
      <use xlink:href="#DejaVuSans-103"/>
      <use x="63.476562" xlink:href="#DejaVuSans-45"/>
      <use x="99.560547" xlink:href="#DejaVuSans-114"/>
      <use x="140.673828" xlink:href="#DejaVuSans-97"/>
      <use x="201.953125" xlink:href="#DejaVuSans-98"/>
      <use x="265.429688" xlink:href="#DejaVuSans-101"/>
      <use x="326.953125" xlink:href="#DejaVuSans-110"/>
      <use x="390.332031" xlink:href="#DejaVuSans-115"/>
      <use x="442.431641" xlink:href="#DejaVuSans-101"/>
      <use x="503.955078" xlink:href="#DejaVuSans-105"/>
      <use x="531.738281" xlink:href="#DejaVuSans-102"/>
      <use x="566.943359" xlink:href="#DejaVuSans-110"/>
      <use x="630.322266" xlink:href="#DejaVuSans-101"/>
      <use x="691.845703" xlink:href="#DejaVuSans-114"/>
      <use x="726.583984" xlink:href="#DejaVuSans-45"/>
      <use x="762.667969" xlink:href="#DejaVuSans-97"/>
      <use x="823.947266" xlink:href="#DejaVuSans-108"/>
      <use x="851.730469" xlink:href="#DejaVuSans-108"/>
      <use x="879.513672" xlink:href="#DejaVuSans-103"/>
      <use x="942.990234" xlink:href="#DejaVuSans-97"/>
      <use x="1004.269531" xlink:href="#DejaVuSans-116"/>
      <use x="1043.478516" xlink:href="#DejaVuSans-104"/>
      <use x="1106.857422" xlink:href="#DejaVuSans-101"/>
      <use x="1168.380859" xlink:href="#DejaVuSans-114"/>
     </g>
    </g>
    <g id="line2d_37">
     <path d="M 274.095 279.342344 
L 296.095 279.342344 
" style="fill:none;stroke:#ccb974;stroke-linecap:round;stroke-width:1.5;"/>
    </g>
    <g id="line2d_38">
     <g>
      <use style="fill:#ccb974;stroke:#ccb974;" x="285.095" xlink:href="#md0d63139df" y="279.342344"/>
     </g>
    </g>
    <g id="text_24">
     <!-- rabenseifner-gather -->
     <g style="fill:#262626;" transform="translate(304.895 283.192344)scale(0.11 -0.11)">
      <use xlink:href="#DejaVuSans-114"/>
      <use x="41.113281" xlink:href="#DejaVuSans-97"/>
      <use x="102.392578" xlink:href="#DejaVuSans-98"/>
      <use x="165.869141" xlink:href="#DejaVuSans-101"/>
      <use x="227.392578" xlink:href="#DejaVuSans-110"/>
      <use x="290.771484" xlink:href="#DejaVuSans-115"/>
      <use x="342.871094" xlink:href="#DejaVuSans-101"/>
      <use x="404.394531" xlink:href="#DejaVuSans-105"/>
      <use x="432.177734" xlink:href="#DejaVuSans-102"/>
      <use x="467.382812" xlink:href="#DejaVuSans-110"/>
      <use x="530.761719" xlink:href="#DejaVuSans-101"/>
      <use x="592.285156" xlink:href="#DejaVuSans-114"/>
      <use x="627.023438" xlink:href="#DejaVuSans-45"/>
      <use x="663.107422" xlink:href="#DejaVuSans-103"/>
      <use x="726.583984" xlink:href="#DejaVuSans-97"/>
      <use x="787.863281" xlink:href="#DejaVuSans-116"/>
      <use x="827.072266" xlink:href="#DejaVuSans-104"/>
      <use x="890.451172" xlink:href="#DejaVuSans-101"/>
      <use x="951.974609" xlink:href="#DejaVuSans-114"/>
     </g>
    </g>
   </g>
  </g>
 </g>
 <defs>
  <clipPath id="p0031a21ed4">
   <rect height="266.34" width="382.337452" x="65.502548" y="29.04"/>
  </clipPath>
 </defs>
</svg>
