<?xml version="1.0" encoding="utf-8" standalone="no"?>
<!DOCTYPE svg PUBLIC "-//W3C//DTD SVG 1.1//EN"
  "http://www.w3.org/Graphics/SVG/1.1/DTD/svg11.dtd">
<svg height="345.6pt" version="1.1" viewBox="0 0 460.8 345.6" width="460.8pt" xmlns="http://www.w3.org/2000/svg" xmlns:xlink="http://www.w3.org/1999/xlink">
 <metadata>
  <rdf:RDF xmlns:cc="http://creativecommons.org/ns#" xmlns:dc="http://purl.org/dc/elements/1.1/" xmlns:rdf="http://www.w3.org/1999/02/22-rdf-syntax-ns#">
   <cc:Work>
    <dc:type rdf:resource="http://purl.org/dc/dcmitype/StillImage"/>
    <dc:date>2021-11-17T11:13:22.752018</dc:date>
    <dc:format>image/svg+xml</dc:format>
    <dc:creator>
     <cc:Agent>
      <dc:title>Matplotlib v3.4.3, https://matplotlib.org/</dc:title>
     </cc:Agent>
    </dc:creator>
   </cc:Work>
  </rdf:RDF>
 </metadata>
 <defs>
  <style type="text/css">*{stroke-linecap:butt;stroke-linejoin:round;}</style>
 </defs>
 <g id="figure_1">
  <g id="patch_1">
   <path d="M 0 345.6 
L 460.8 345.6 
L 460.8 0 
L 0 0 
z
" style="fill:#ffffff;"/>
  </g>
  <g id="axes_1">
   <g id="patch_2">
    <path d="M 33.64 303.64 
L 445.817312 303.64 
L 445.817312 26.88 
L 33.64 26.88 
z
" style="fill:#ffffff;"/>
   </g>
   <g id="matplotlib.axis_1">
    <g id="xtick_1">
     <g id="line2d_1">
      <defs>
       <path d="M 0 0 
L 0 3.5 
" id="ma25fc18994" style="stroke:#000000;stroke-width:0.8;"/>
      </defs>
      <g>
       <use style="stroke:#000000;stroke-width:0.8;" x="36.083739" xlink:href="#ma25fc18994" y="303.64"/>
      </g>
     </g>
     <g id="text_1">
      <!-- 0 -->
      <g transform="translate(32.902489 318.238437)scale(0.1 -0.1)">
       <defs>
        <path d="M 2034 4250 
Q 1547 4250 1301 3770 
Q 1056 3291 1056 2328 
Q 1056 1369 1301 889 
Q 1547 409 2034 409 
Q 2525 409 2770 889 
Q 3016 1369 3016 2328 
Q 3016 3291 2770 3770 
Q 2525 4250 2034 4250 
z
M 2034 4750 
Q 2819 4750 3233 4129 
Q 3647 3509 3647 2328 
Q 3647 1150 3233 529 
Q 2819 -91 2034 -91 
Q 1250 -91 836 529 
Q 422 1150 422 2328 
Q 422 3509 836 4129 
Q 1250 4750 2034 4750 
z
" id="DejaVuSans-30" transform="scale(0.015625)"/>
       </defs>
       <use xlink:href="#DejaVuSans-30"/>
      </g>
     </g>
    </g>
    <g id="xtick_2">
     <g id="line2d_2">
      <g>
       <use style="stroke:#000000;stroke-width:0.8;" x="117.541706" xlink:href="#ma25fc18994" y="303.64"/>
      </g>
     </g>
     <g id="text_2">
      <!-- 10 -->
      <g transform="translate(111.179206 318.238437)scale(0.1 -0.1)">
       <defs>
        <path d="M 794 531 
L 1825 531 
L 1825 4091 
L 703 3866 
L 703 4441 
L 1819 4666 
L 2450 4666 
L 2450 531 
L 3481 531 
L 3481 0 
L 794 0 
L 794 531 
z
" id="DejaVuSans-31" transform="scale(0.015625)"/>
       </defs>
       <use xlink:href="#DejaVuSans-31"/>
       <use x="63.623047" xlink:href="#DejaVuSans-30"/>
      </g>
     </g>
    </g>
    <g id="xtick_3">
     <g id="line2d_3">
      <g>
       <use style="stroke:#000000;stroke-width:0.8;" x="198.999673" xlink:href="#ma25fc18994" y="303.64"/>
      </g>
     </g>
     <g id="text_3">
      <!-- 20 -->
      <g transform="translate(192.637173 318.238437)scale(0.1 -0.1)">
       <defs>
        <path d="M 1228 531 
L 3431 531 
L 3431 0 
L 469 0 
L 469 531 
Q 828 903 1448 1529 
Q 2069 2156 2228 2338 
Q 2531 2678 2651 2914 
Q 2772 3150 2772 3378 
Q 2772 3750 2511 3984 
Q 2250 4219 1831 4219 
Q 1534 4219 1204 4116 
Q 875 4013 500 3803 
L 500 4441 
Q 881 4594 1212 4672 
Q 1544 4750 1819 4750 
Q 2544 4750 2975 4387 
Q 3406 4025 3406 3419 
Q 3406 3131 3298 2873 
Q 3191 2616 2906 2266 
Q 2828 2175 2409 1742 
Q 1991 1309 1228 531 
z
" id="DejaVuSans-32" transform="scale(0.015625)"/>
       </defs>
       <use xlink:href="#DejaVuSans-32"/>
       <use x="63.623047" xlink:href="#DejaVuSans-30"/>
      </g>
     </g>
    </g>
    <g id="xtick_4">
     <g id="line2d_4">
      <g>
       <use style="stroke:#000000;stroke-width:0.8;" x="280.45764" xlink:href="#ma25fc18994" y="303.64"/>
      </g>
     </g>
     <g id="text_4">
      <!-- 30 -->
      <g transform="translate(274.09514 318.238437)scale(0.1 -0.1)">
       <defs>
        <path d="M 2597 2516 
Q 3050 2419 3304 2112 
Q 3559 1806 3559 1356 
Q 3559 666 3084 287 
Q 2609 -91 1734 -91 
Q 1441 -91 1130 -33 
Q 819 25 488 141 
L 488 750 
Q 750 597 1062 519 
Q 1375 441 1716 441 
Q 2309 441 2620 675 
Q 2931 909 2931 1356 
Q 2931 1769 2642 2001 
Q 2353 2234 1838 2234 
L 1294 2234 
L 1294 2753 
L 1863 2753 
Q 2328 2753 2575 2939 
Q 2822 3125 2822 3475 
Q 2822 3834 2567 4026 
Q 2313 4219 1838 4219 
Q 1578 4219 1281 4162 
Q 984 4106 628 3988 
L 628 4550 
Q 988 4650 1302 4700 
Q 1616 4750 1894 4750 
Q 2613 4750 3031 4423 
Q 3450 4097 3450 3541 
Q 3450 3153 3228 2886 
Q 3006 2619 2597 2516 
z
" id="DejaVuSans-33" transform="scale(0.015625)"/>
       </defs>
       <use xlink:href="#DejaVuSans-33"/>
       <use x="63.623047" xlink:href="#DejaVuSans-30"/>
      </g>
     </g>
    </g>
    <g id="xtick_5">
     <g id="line2d_5">
      <g>
       <use style="stroke:#000000;stroke-width:0.8;" x="361.915606" xlink:href="#ma25fc18994" y="303.64"/>
      </g>
     </g>
     <g id="text_5">
      <!-- 40 -->
      <g transform="translate(355.553106 318.238437)scale(0.1 -0.1)">
       <defs>
        <path d="M 2419 4116 
L 825 1625 
L 2419 1625 
L 2419 4116 
z
M 2253 4666 
L 3047 4666 
L 3047 1625 
L 3713 1625 
L 3713 1100 
L 3047 1100 
L 3047 0 
L 2419 0 
L 2419 1100 
L 313 1100 
L 313 1709 
L 2253 4666 
z
" id="DejaVuSans-34" transform="scale(0.015625)"/>
       </defs>
       <use xlink:href="#DejaVuSans-34"/>
       <use x="63.623047" xlink:href="#DejaVuSans-30"/>
      </g>
     </g>
    </g>
    <g id="xtick_6">
     <g id="line2d_6">
      <g>
       <use style="stroke:#000000;stroke-width:0.8;" x="443.373573" xlink:href="#ma25fc18994" y="303.64"/>
      </g>
     </g>
     <g id="text_6">
      <!-- 50 -->
      <g transform="translate(437.011073 318.238437)scale(0.1 -0.1)">
       <defs>
        <path d="M 691 4666 
L 3169 4666 
L 3169 4134 
L 1269 4134 
L 1269 2991 
Q 1406 3038 1543 3061 
Q 1681 3084 1819 3084 
Q 2600 3084 3056 2656 
Q 3513 2228 3513 1497 
Q 3513 744 3044 326 
Q 2575 -91 1722 -91 
Q 1428 -91 1123 -41 
Q 819 9 494 109 
L 494 744 
Q 775 591 1075 516 
Q 1375 441 1709 441 
Q 2250 441 2565 725 
Q 2881 1009 2881 1497 
Q 2881 1984 2565 2268 
Q 2250 2553 1709 2553 
Q 1456 2553 1204 2497 
Q 953 2441 691 2322 
L 691 4666 
z
" id="DejaVuSans-35" transform="scale(0.015625)"/>
       </defs>
       <use xlink:href="#DejaVuSans-35"/>
       <use x="63.623047" xlink:href="#DejaVuSans-30"/>
      </g>
     </g>
    </g>
    <g id="text_7">
     <!-- Number of processes -->
     <g transform="translate(186.752094 331.916562)scale(0.1 -0.1)">
      <defs>
       <path d="M 628 4666 
L 1478 4666 
L 3547 763 
L 3547 4666 
L 4159 4666 
L 4159 0 
L 3309 0 
L 1241 3903 
L 1241 0 
L 628 0 
L 628 4666 
z
" id="DejaVuSans-4e" transform="scale(0.015625)"/>
       <path d="M 544 1381 
L 544 3500 
L 1119 3500 
L 1119 1403 
Q 1119 906 1312 657 
Q 1506 409 1894 409 
Q 2359 409 2629 706 
Q 2900 1003 2900 1516 
L 2900 3500 
L 3475 3500 
L 3475 0 
L 2900 0 
L 2900 538 
Q 2691 219 2414 64 
Q 2138 -91 1772 -91 
Q 1169 -91 856 284 
Q 544 659 544 1381 
z
M 1991 3584 
L 1991 3584 
z
" id="DejaVuSans-75" transform="scale(0.015625)"/>
       <path d="M 3328 2828 
Q 3544 3216 3844 3400 
Q 4144 3584 4550 3584 
Q 5097 3584 5394 3201 
Q 5691 2819 5691 2113 
L 5691 0 
L 5113 0 
L 5113 2094 
Q 5113 2597 4934 2840 
Q 4756 3084 4391 3084 
Q 3944 3084 3684 2787 
Q 3425 2491 3425 1978 
L 3425 0 
L 2847 0 
L 2847 2094 
Q 2847 2600 2669 2842 
Q 2491 3084 2119 3084 
Q 1678 3084 1418 2786 
Q 1159 2488 1159 1978 
L 1159 0 
L 581 0 
L 581 3500 
L 1159 3500 
L 1159 2956 
Q 1356 3278 1631 3431 
Q 1906 3584 2284 3584 
Q 2666 3584 2933 3390 
Q 3200 3197 3328 2828 
z
" id="DejaVuSans-6d" transform="scale(0.015625)"/>
       <path d="M 3116 1747 
Q 3116 2381 2855 2742 
Q 2594 3103 2138 3103 
Q 1681 3103 1420 2742 
Q 1159 2381 1159 1747 
Q 1159 1113 1420 752 
Q 1681 391 2138 391 
Q 2594 391 2855 752 
Q 3116 1113 3116 1747 
z
M 1159 2969 
Q 1341 3281 1617 3432 
Q 1894 3584 2278 3584 
Q 2916 3584 3314 3078 
Q 3713 2572 3713 1747 
Q 3713 922 3314 415 
Q 2916 -91 2278 -91 
Q 1894 -91 1617 61 
Q 1341 213 1159 525 
L 1159 0 
L 581 0 
L 581 4863 
L 1159 4863 
L 1159 2969 
z
" id="DejaVuSans-62" transform="scale(0.015625)"/>
       <path d="M 3597 1894 
L 3597 1613 
L 953 1613 
Q 991 1019 1311 708 
Q 1631 397 2203 397 
Q 2534 397 2845 478 
Q 3156 559 3463 722 
L 3463 178 
Q 3153 47 2828 -22 
Q 2503 -91 2169 -91 
Q 1331 -91 842 396 
Q 353 884 353 1716 
Q 353 2575 817 3079 
Q 1281 3584 2069 3584 
Q 2775 3584 3186 3129 
Q 3597 2675 3597 1894 
z
M 3022 2063 
Q 3016 2534 2758 2815 
Q 2500 3097 2075 3097 
Q 1594 3097 1305 2825 
Q 1016 2553 972 2059 
L 3022 2063 
z
" id="DejaVuSans-65" transform="scale(0.015625)"/>
       <path d="M 2631 2963 
Q 2534 3019 2420 3045 
Q 2306 3072 2169 3072 
Q 1681 3072 1420 2755 
Q 1159 2438 1159 1844 
L 1159 0 
L 581 0 
L 581 3500 
L 1159 3500 
L 1159 2956 
Q 1341 3275 1631 3429 
Q 1922 3584 2338 3584 
Q 2397 3584 2469 3576 
Q 2541 3569 2628 3553 
L 2631 2963 
z
" id="DejaVuSans-72" transform="scale(0.015625)"/>
       <path id="DejaVuSans-20" transform="scale(0.015625)"/>
       <path d="M 1959 3097 
Q 1497 3097 1228 2736 
Q 959 2375 959 1747 
Q 959 1119 1226 758 
Q 1494 397 1959 397 
Q 2419 397 2687 759 
Q 2956 1122 2956 1747 
Q 2956 2369 2687 2733 
Q 2419 3097 1959 3097 
z
M 1959 3584 
Q 2709 3584 3137 3096 
Q 3566 2609 3566 1747 
Q 3566 888 3137 398 
Q 2709 -91 1959 -91 
Q 1206 -91 779 398 
Q 353 888 353 1747 
Q 353 2609 779 3096 
Q 1206 3584 1959 3584 
z
" id="DejaVuSans-6f" transform="scale(0.015625)"/>
       <path d="M 2375 4863 
L 2375 4384 
L 1825 4384 
Q 1516 4384 1395 4259 
Q 1275 4134 1275 3809 
L 1275 3500 
L 2222 3500 
L 2222 3053 
L 1275 3053 
L 1275 0 
L 697 0 
L 697 3053 
L 147 3053 
L 147 3500 
L 697 3500 
L 697 3744 
Q 697 4328 969 4595 
Q 1241 4863 1831 4863 
L 2375 4863 
z
" id="DejaVuSans-66" transform="scale(0.015625)"/>
       <path d="M 1159 525 
L 1159 -1331 
L 581 -1331 
L 581 3500 
L 1159 3500 
L 1159 2969 
Q 1341 3281 1617 3432 
Q 1894 3584 2278 3584 
Q 2916 3584 3314 3078 
Q 3713 2572 3713 1747 
Q 3713 922 3314 415 
Q 2916 -91 2278 -91 
Q 1894 -91 1617 61 
Q 1341 213 1159 525 
z
M 3116 1747 
Q 3116 2381 2855 2742 
Q 2594 3103 2138 3103 
Q 1681 3103 1420 2742 
Q 1159 2381 1159 1747 
Q 1159 1113 1420 752 
Q 1681 391 2138 391 
Q 2594 391 2855 752 
Q 3116 1113 3116 1747 
z
" id="DejaVuSans-70" transform="scale(0.015625)"/>
       <path d="M 3122 3366 
L 3122 2828 
Q 2878 2963 2633 3030 
Q 2388 3097 2138 3097 
Q 1578 3097 1268 2742 
Q 959 2388 959 1747 
Q 959 1106 1268 751 
Q 1578 397 2138 397 
Q 2388 397 2633 464 
Q 2878 531 3122 666 
L 3122 134 
Q 2881 22 2623 -34 
Q 2366 -91 2075 -91 
Q 1284 -91 818 406 
Q 353 903 353 1747 
Q 353 2603 823 3093 
Q 1294 3584 2113 3584 
Q 2378 3584 2631 3529 
Q 2884 3475 3122 3366 
z
" id="DejaVuSans-63" transform="scale(0.015625)"/>
       <path d="M 2834 3397 
L 2834 2853 
Q 2591 2978 2328 3040 
Q 2066 3103 1784 3103 
Q 1356 3103 1142 2972 
Q 928 2841 928 2578 
Q 928 2378 1081 2264 
Q 1234 2150 1697 2047 
L 1894 2003 
Q 2506 1872 2764 1633 
Q 3022 1394 3022 966 
Q 3022 478 2636 193 
Q 2250 -91 1575 -91 
Q 1294 -91 989 -36 
Q 684 19 347 128 
L 347 722 
Q 666 556 975 473 
Q 1284 391 1588 391 
Q 1994 391 2212 530 
Q 2431 669 2431 922 
Q 2431 1156 2273 1281 
Q 2116 1406 1581 1522 
L 1381 1569 
Q 847 1681 609 1914 
Q 372 2147 372 2553 
Q 372 3047 722 3315 
Q 1072 3584 1716 3584 
Q 2034 3584 2315 3537 
Q 2597 3491 2834 3397 
z
" id="DejaVuSans-73" transform="scale(0.015625)"/>
      </defs>
      <use xlink:href="#DejaVuSans-4e"/>
      <use x="74.804688" xlink:href="#DejaVuSans-75"/>
      <use x="138.183594" xlink:href="#DejaVuSans-6d"/>
      <use x="235.595703" xlink:href="#DejaVuSans-62"/>
      <use x="299.072266" xlink:href="#DejaVuSans-65"/>
      <use x="360.595703" xlink:href="#DejaVuSans-72"/>
      <use x="401.708984" xlink:href="#DejaVuSans-20"/>
      <use x="433.496094" xlink:href="#DejaVuSans-6f"/>
      <use x="494.677734" xlink:href="#DejaVuSans-66"/>
      <use x="529.882812" xlink:href="#DejaVuSans-20"/>
      <use x="561.669922" xlink:href="#DejaVuSans-70"/>
      <use x="625.146484" xlink:href="#DejaVuSans-72"/>
      <use x="664.009766" xlink:href="#DejaVuSans-6f"/>
      <use x="725.191406" xlink:href="#DejaVuSans-63"/>
      <use x="780.171875" xlink:href="#DejaVuSans-65"/>
      <use x="841.695312" xlink:href="#DejaVuSans-73"/>
      <use x="893.794922" xlink:href="#DejaVuSans-73"/>
      <use x="945.894531" xlink:href="#DejaVuSans-65"/>
      <use x="1007.417969" xlink:href="#DejaVuSans-73"/>
     </g>
    </g>
   </g>
   <g id="matplotlib.axis_2">
    <g id="ytick_1">
     <g id="line2d_7">
      <defs>
       <path d="M 0 0 
L -3.5 0 
" id="me4d8335557" style="stroke:#000000;stroke-width:0.8;"/>
      </defs>
      <g>
       <use style="stroke:#000000;stroke-width:0.8;" x="33.64" xlink:href="#me4d8335557" y="303.64"/>
      </g>
     </g>
     <g id="text_8">
      <!-- 0.0 -->
      <g transform="translate(10.736875 307.439219)scale(0.1 -0.1)">
       <defs>
        <path d="M 684 794 
L 1344 794 
L 1344 0 
L 684 0 
L 684 794 
z
" id="DejaVuSans-2e" transform="scale(0.015625)"/>
       </defs>
       <use xlink:href="#DejaVuSans-30"/>
       <use x="63.623047" xlink:href="#DejaVuSans-2e"/>
       <use x="95.410156" xlink:href="#DejaVuSans-30"/>
      </g>
     </g>
    </g>
    <g id="ytick_2">
     <g id="line2d_8">
      <g>
       <use style="stroke:#000000;stroke-width:0.8;" x="33.64" xlink:href="#me4d8335557" y="248.288"/>
      </g>
     </g>
     <g id="text_9">
      <!-- 0.2 -->
      <g transform="translate(10.736875 252.087219)scale(0.1 -0.1)">
       <use xlink:href="#DejaVuSans-30"/>
       <use x="63.623047" xlink:href="#DejaVuSans-2e"/>
       <use x="95.410156" xlink:href="#DejaVuSans-32"/>
      </g>
     </g>
    </g>
    <g id="ytick_3">
     <g id="line2d_9">
      <g>
       <use style="stroke:#000000;stroke-width:0.8;" x="33.64" xlink:href="#me4d8335557" y="192.936"/>
      </g>
     </g>
     <g id="text_10">
      <!-- 0.4 -->
      <g transform="translate(10.736875 196.735219)scale(0.1 -0.1)">
       <use xlink:href="#DejaVuSans-30"/>
       <use x="63.623047" xlink:href="#DejaVuSans-2e"/>
       <use x="95.410156" xlink:href="#DejaVuSans-34"/>
      </g>
     </g>
    </g>
    <g id="ytick_4">
     <g id="line2d_10">
      <g>
       <use style="stroke:#000000;stroke-width:0.8;" x="33.64" xlink:href="#me4d8335557" y="137.584"/>
      </g>
     </g>
     <g id="text_11">
      <!-- 0.6 -->
      <g transform="translate(10.736875 141.383219)scale(0.1 -0.1)">
       <defs>
        <path d="M 2113 2584 
Q 1688 2584 1439 2293 
Q 1191 2003 1191 1497 
Q 1191 994 1439 701 
Q 1688 409 2113 409 
Q 2538 409 2786 701 
Q 3034 994 3034 1497 
Q 3034 2003 2786 2293 
Q 2538 2584 2113 2584 
z
M 3366 4563 
L 3366 3988 
Q 3128 4100 2886 4159 
Q 2644 4219 2406 4219 
Q 1781 4219 1451 3797 
Q 1122 3375 1075 2522 
Q 1259 2794 1537 2939 
Q 1816 3084 2150 3084 
Q 2853 3084 3261 2657 
Q 3669 2231 3669 1497 
Q 3669 778 3244 343 
Q 2819 -91 2113 -91 
Q 1303 -91 875 529 
Q 447 1150 447 2328 
Q 447 3434 972 4092 
Q 1497 4750 2381 4750 
Q 2619 4750 2861 4703 
Q 3103 4656 3366 4563 
z
" id="DejaVuSans-36" transform="scale(0.015625)"/>
       </defs>
       <use xlink:href="#DejaVuSans-30"/>
       <use x="63.623047" xlink:href="#DejaVuSans-2e"/>
       <use x="95.410156" xlink:href="#DejaVuSans-36"/>
      </g>
     </g>
    </g>
    <g id="ytick_5">
     <g id="line2d_11">
      <g>
       <use style="stroke:#000000;stroke-width:0.8;" x="33.64" xlink:href="#me4d8335557" y="82.232"/>
      </g>
     </g>
     <g id="text_12">
      <!-- 0.8 -->
      <g transform="translate(10.736875 86.031219)scale(0.1 -0.1)">
       <defs>
        <path d="M 2034 2216 
Q 1584 2216 1326 1975 
Q 1069 1734 1069 1313 
Q 1069 891 1326 650 
Q 1584 409 2034 409 
Q 2484 409 2743 651 
Q 3003 894 3003 1313 
Q 3003 1734 2745 1975 
Q 2488 2216 2034 2216 
z
M 1403 2484 
Q 997 2584 770 2862 
Q 544 3141 544 3541 
Q 544 4100 942 4425 
Q 1341 4750 2034 4750 
Q 2731 4750 3128 4425 
Q 3525 4100 3525 3541 
Q 3525 3141 3298 2862 
Q 3072 2584 2669 2484 
Q 3125 2378 3379 2068 
Q 3634 1759 3634 1313 
Q 3634 634 3220 271 
Q 2806 -91 2034 -91 
Q 1263 -91 848 271 
Q 434 634 434 1313 
Q 434 1759 690 2068 
Q 947 2378 1403 2484 
z
M 1172 3481 
Q 1172 3119 1398 2916 
Q 1625 2713 2034 2713 
Q 2441 2713 2670 2916 
Q 2900 3119 2900 3481 
Q 2900 3844 2670 4047 
Q 2441 4250 2034 4250 
Q 1625 4250 1398 4047 
Q 1172 3844 1172 3481 
z
" id="DejaVuSans-38" transform="scale(0.015625)"/>
       </defs>
       <use xlink:href="#DejaVuSans-30"/>
       <use x="63.623047" xlink:href="#DejaVuSans-2e"/>
       <use x="95.410156" xlink:href="#DejaVuSans-38"/>
      </g>
     </g>
    </g>
    <g id="ytick_6">
     <g id="line2d_12">
      <g>
       <use style="stroke:#000000;stroke-width:0.8;" x="33.64" xlink:href="#me4d8335557" y="26.88"/>
      </g>
     </g>
     <g id="text_13">
      <!-- 1.0 -->
      <g transform="translate(10.736875 30.679219)scale(0.1 -0.1)">
       <use xlink:href="#DejaVuSans-31"/>
       <use x="63.623047" xlink:href="#DejaVuSans-2e"/>
       <use x="95.410156" xlink:href="#DejaVuSans-30"/>
      </g>
     </g>
    </g>
   </g>
   <g id="line2d_13">
    <path clip-path="url(#p8b08ef8141)" d="M 52.375332 229.837333 
L 68.666926 220.612 
L 84.958519 237.2176 
L 101.250112 211.386667 
L 117.541706 227.288782 
L 133.833299 222.637073 
L 150.124893 212.64886 
L 166.416486 189.489755 
L 182.708079 204.62965 
L 198.999673 201.217008 
L 215.291266 198.976397 
L 231.582859 185.028571 
L 247.874453 172.543158 
L 264.166046 191.233655 
L 280.45764 158.520508 
L 296.749233 166.705187 
L 313.040826 188.655213 
L 329.33242 179.844761 
L 345.624013 182.022413 
L 361.915606 169.137314 
L 378.2072 168.362449 
L 394.498793 153.719289 
L 410.790387 162.697407 
L 427.08198 159.24627 
" style="fill:none;stroke:#1f77b4;stroke-linecap:square;stroke-width:1.5;"/>
    <defs>
     <path d="M 0 3 
C 0.795609 3 1.55874 2.683901 2.12132 2.12132 
C 2.683901 1.55874 3 0.795609 3 0 
C 3 -0.795609 2.683901 -1.55874 2.12132 -2.12132 
C 1.55874 -2.683901 0.795609 -3 0 -3 
C -0.795609 -3 -1.55874 -2.683901 -2.12132 -2.12132 
C -2.683901 -1.55874 -3 -0.795609 -3 0 
C -3 0.795609 -2.683901 1.55874 -2.12132 2.12132 
C -1.55874 2.683901 -0.795609 3 0 3 
z
" id="mf59383cac9" style="stroke:#1f77b4;"/>
    </defs>
    <g clip-path="url(#p8b08ef8141)">
     <use style="fill:#1f77b4;stroke:#1f77b4;" x="52.375332" xlink:href="#mf59383cac9" y="229.837333"/>
     <use style="fill:#1f77b4;stroke:#1f77b4;" x="68.666926" xlink:href="#mf59383cac9" y="220.612"/>
     <use style="fill:#1f77b4;stroke:#1f77b4;" x="84.958519" xlink:href="#mf59383cac9" y="237.2176"/>
     <use style="fill:#1f77b4;stroke:#1f77b4;" x="101.250112" xlink:href="#mf59383cac9" y="211.386667"/>
     <use style="fill:#1f77b4;stroke:#1f77b4;" x="117.541706" xlink:href="#mf59383cac9" y="227.288782"/>
     <use style="fill:#1f77b4;stroke:#1f77b4;" x="133.833299" xlink:href="#mf59383cac9" y="222.637073"/>
     <use style="fill:#1f77b4;stroke:#1f77b4;" x="150.124893" xlink:href="#mf59383cac9" y="212.64886"/>
     <use style="fill:#1f77b4;stroke:#1f77b4;" x="166.416486" xlink:href="#mf59383cac9" y="189.489755"/>
     <use style="fill:#1f77b4;stroke:#1f77b4;" x="182.708079" xlink:href="#mf59383cac9" y="204.62965"/>
     <use style="fill:#1f77b4;stroke:#1f77b4;" x="198.999673" xlink:href="#mf59383cac9" y="201.217008"/>
     <use style="fill:#1f77b4;stroke:#1f77b4;" x="215.291266" xlink:href="#mf59383cac9" y="198.976397"/>
     <use style="fill:#1f77b4;stroke:#1f77b4;" x="231.582859" xlink:href="#mf59383cac9" y="185.028571"/>
     <use style="fill:#1f77b4;stroke:#1f77b4;" x="247.874453" xlink:href="#mf59383cac9" y="172.543158"/>
     <use style="fill:#1f77b4;stroke:#1f77b4;" x="264.166046" xlink:href="#mf59383cac9" y="191.233655"/>
     <use style="fill:#1f77b4;stroke:#1f77b4;" x="280.45764" xlink:href="#mf59383cac9" y="158.520508"/>
     <use style="fill:#1f77b4;stroke:#1f77b4;" x="296.749233" xlink:href="#mf59383cac9" y="166.705187"/>
     <use style="fill:#1f77b4;stroke:#1f77b4;" x="313.040826" xlink:href="#mf59383cac9" y="188.655213"/>
     <use style="fill:#1f77b4;stroke:#1f77b4;" x="329.33242" xlink:href="#mf59383cac9" y="179.844761"/>
     <use style="fill:#1f77b4;stroke:#1f77b4;" x="345.624013" xlink:href="#mf59383cac9" y="182.022413"/>
     <use style="fill:#1f77b4;stroke:#1f77b4;" x="361.915606" xlink:href="#mf59383cac9" y="169.137314"/>
     <use style="fill:#1f77b4;stroke:#1f77b4;" x="378.2072" xlink:href="#mf59383cac9" y="168.362449"/>
     <use style="fill:#1f77b4;stroke:#1f77b4;" x="394.498793" xlink:href="#mf59383cac9" y="153.719289"/>
     <use style="fill:#1f77b4;stroke:#1f77b4;" x="410.790387" xlink:href="#mf59383cac9" y="162.697407"/>
     <use style="fill:#1f77b4;stroke:#1f77b4;" x="427.08198" xlink:href="#mf59383cac9" y="159.24627"/>
    </g>
   </g>
   <g id="line2d_14">
    <path clip-path="url(#p8b08ef8141)" d="M 52.375332 165.26 
L 68.666926 134.508889 
L 84.958519 82.232 
L 101.250112 88.766611 
L 117.541706 105.524534 
L 133.833299 89.151 
L 150.124893 91.682953 
L 166.416486 96.656356 
L 182.708079 95.537769 
L 198.999673 100.411333 
L 215.291266 105.010515 
L 231.582859 96.716636 
L 247.874453 103.552969 
L 264.166046 99.428738 
L 280.45764 93.999806 
L 296.749233 101.438589 
L 313.040826 93.608564 
L 329.33242 100.95805 
L 345.624013 109.314704 
L 361.915606 98.694448 
L 378.2072 102.550309 
L 394.498793 101.836651 
L 410.790387 292.966615 
L 427.08198 99.96326 
" style="fill:none;stroke:#ff7f0e;stroke-linecap:square;stroke-width:1.5;"/>
    <defs>
     <path d="M 0 3 
C 0.795609 3 1.55874 2.683901 2.12132 2.12132 
C 2.683901 1.55874 3 0.795609 3 0 
C 3 -0.795609 2.683901 -1.55874 2.12132 -2.12132 
C 1.55874 -2.683901 0.795609 -3 0 -3 
C -0.795609 -3 -1.55874 -2.683901 -2.12132 -2.12132 
C -2.683901 -1.55874 -3 -0.795609 -3 0 
C -3 0.795609 -2.683901 1.55874 -2.12132 2.12132 
C -1.55874 2.683901 -0.795609 3 0 3 
z
" id="m8d6f531b34" style="stroke:#ff7f0e;"/>
    </defs>
    <g clip-path="url(#p8b08ef8141)">
     <use style="fill:#ff7f0e;stroke:#ff7f0e;" x="52.375332" xlink:href="#m8d6f531b34" y="165.26"/>
     <use style="fill:#ff7f0e;stroke:#ff7f0e;" x="68.666926" xlink:href="#m8d6f531b34" y="134.508889"/>
     <use style="fill:#ff7f0e;stroke:#ff7f0e;" x="84.958519" xlink:href="#m8d6f531b34" y="82.232"/>
     <use style="fill:#ff7f0e;stroke:#ff7f0e;" x="101.250112" xlink:href="#m8d6f531b34" y="88.766611"/>
     <use style="fill:#ff7f0e;stroke:#ff7f0e;" x="117.541706" xlink:href="#m8d6f531b34" y="105.524534"/>
     <use style="fill:#ff7f0e;stroke:#ff7f0e;" x="133.833299" xlink:href="#m8d6f531b34" y="89.151"/>
     <use style="fill:#ff7f0e;stroke:#ff7f0e;" x="150.124893" xlink:href="#m8d6f531b34" y="91.682953"/>
     <use style="fill:#ff7f0e;stroke:#ff7f0e;" x="166.416486" xlink:href="#m8d6f531b34" y="96.656356"/>
     <use style="fill:#ff7f0e;stroke:#ff7f0e;" x="182.708079" xlink:href="#m8d6f531b34" y="95.537769"/>
     <use style="fill:#ff7f0e;stroke:#ff7f0e;" x="198.999673" xlink:href="#m8d6f531b34" y="100.411333"/>
     <use style="fill:#ff7f0e;stroke:#ff7f0e;" x="215.291266" xlink:href="#m8d6f531b34" y="105.010515"/>
     <use style="fill:#ff7f0e;stroke:#ff7f0e;" x="231.582859" xlink:href="#m8d6f531b34" y="96.716636"/>
     <use style="fill:#ff7f0e;stroke:#ff7f0e;" x="247.874453" xlink:href="#m8d6f531b34" y="103.552969"/>
     <use style="fill:#ff7f0e;stroke:#ff7f0e;" x="264.166046" xlink:href="#m8d6f531b34" y="99.428738"/>
     <use style="fill:#ff7f0e;stroke:#ff7f0e;" x="280.45764" xlink:href="#m8d6f531b34" y="93.999806"/>
     <use style="fill:#ff7f0e;stroke:#ff7f0e;" x="296.749233" xlink:href="#m8d6f531b34" y="101.438589"/>
     <use style="fill:#ff7f0e;stroke:#ff7f0e;" x="313.040826" xlink:href="#m8d6f531b34" y="93.608564"/>
     <use style="fill:#ff7f0e;stroke:#ff7f0e;" x="329.33242" xlink:href="#m8d6f531b34" y="100.95805"/>
     <use style="fill:#ff7f0e;stroke:#ff7f0e;" x="345.624013" xlink:href="#m8d6f531b34" y="109.314704"/>
     <use style="fill:#ff7f0e;stroke:#ff7f0e;" x="361.915606" xlink:href="#m8d6f531b34" y="98.694448"/>
     <use style="fill:#ff7f0e;stroke:#ff7f0e;" x="378.2072" xlink:href="#m8d6f531b34" y="102.550309"/>
     <use style="fill:#ff7f0e;stroke:#ff7f0e;" x="394.498793" xlink:href="#m8d6f531b34" y="101.836651"/>
     <use style="fill:#ff7f0e;stroke:#ff7f0e;" x="410.790387" xlink:href="#m8d6f531b34" y="292.966615"/>
     <use style="fill:#ff7f0e;stroke:#ff7f0e;" x="427.08198" xlink:href="#m8d6f531b34" y="99.96326"/>
    </g>
   </g>
   <g id="line2d_15">
    <path clip-path="url(#p8b08ef8141)" d="M 52.375332 274.507368 
L 68.666926 296.889756 
L 84.958519 298.949153 
L 101.250112 295.188821 
L 117.541706 299.796111 
L 133.833299 298.263065 
L 150.124893 300.179959 
L 166.416486 296.846042 
L 182.708079 300.664086 
L 198.999673 300.695745 
L 215.291266 297.874167 
L 231.582859 300.8724 
L 247.874453 301.016624 
L 264.166046 300.844444 
L 280.45764 300.95301 
L 296.749233 299.688877 
L 313.040826 301.029057 
L 329.33242 301.00419 
L 345.624013 301.112459 
L 361.915606 301.053458 
L 378.2072 299.851024 
L 394.498793 301.065433 
L 410.790387 299.046394 
L 427.08198 301.190796 
" style="fill:none;stroke:#2ca02c;stroke-linecap:square;stroke-width:1.5;"/>
    <defs>
     <path d="M 0 3 
C 0.795609 3 1.55874 2.683901 2.12132 2.12132 
C 2.683901 1.55874 3 0.795609 3 0 
C 3 -0.795609 2.683901 -1.55874 2.12132 -2.12132 
C 1.55874 -2.683901 0.795609 -3 0 -3 
C -0.795609 -3 -1.55874 -2.683901 -2.12132 -2.12132 
C -2.683901 -1.55874 -3 -0.795609 -3 0 
C -3 0.795609 -2.683901 1.55874 -2.12132 2.12132 
C -1.55874 2.683901 -0.795609 3 0 3 
z
" id="mdd7345cd56" style="stroke:#2ca02c;"/>
    </defs>
    <g clip-path="url(#p8b08ef8141)">
     <use style="fill:#2ca02c;stroke:#2ca02c;" x="52.375332" xlink:href="#mdd7345cd56" y="274.507368"/>
     <use style="fill:#2ca02c;stroke:#2ca02c;" x="68.666926" xlink:href="#mdd7345cd56" y="296.889756"/>
     <use style="fill:#2ca02c;stroke:#2ca02c;" x="84.958519" xlink:href="#mdd7345cd56" y="298.949153"/>
     <use style="fill:#2ca02c;stroke:#2ca02c;" x="101.250112" xlink:href="#mdd7345cd56" y="295.188821"/>
     <use style="fill:#2ca02c;stroke:#2ca02c;" x="117.541706" xlink:href="#mdd7345cd56" y="299.796111"/>
     <use style="fill:#2ca02c;stroke:#2ca02c;" x="133.833299" xlink:href="#mdd7345cd56" y="298.263065"/>
     <use style="fill:#2ca02c;stroke:#2ca02c;" x="150.124893" xlink:href="#mdd7345cd56" y="300.179959"/>
     <use style="fill:#2ca02c;stroke:#2ca02c;" x="166.416486" xlink:href="#mdd7345cd56" y="296.846042"/>
     <use style="fill:#2ca02c;stroke:#2ca02c;" x="182.708079" xlink:href="#mdd7345cd56" y="300.664086"/>
     <use style="fill:#2ca02c;stroke:#2ca02c;" x="198.999673" xlink:href="#mdd7345cd56" y="300.695745"/>
     <use style="fill:#2ca02c;stroke:#2ca02c;" x="215.291266" xlink:href="#mdd7345cd56" y="297.874167"/>
     <use style="fill:#2ca02c;stroke:#2ca02c;" x="231.582859" xlink:href="#mdd7345cd56" y="300.8724"/>
     <use style="fill:#2ca02c;stroke:#2ca02c;" x="247.874453" xlink:href="#mdd7345cd56" y="301.016624"/>
     <use style="fill:#2ca02c;stroke:#2ca02c;" x="264.166046" xlink:href="#mdd7345cd56" y="300.844444"/>
     <use style="fill:#2ca02c;stroke:#2ca02c;" x="280.45764" xlink:href="#mdd7345cd56" y="300.95301"/>
     <use style="fill:#2ca02c;stroke:#2ca02c;" x="296.749233" xlink:href="#mdd7345cd56" y="299.688877"/>
     <use style="fill:#2ca02c;stroke:#2ca02c;" x="313.040826" xlink:href="#mdd7345cd56" y="301.029057"/>
     <use style="fill:#2ca02c;stroke:#2ca02c;" x="329.33242" xlink:href="#mdd7345cd56" y="301.00419"/>
     <use style="fill:#2ca02c;stroke:#2ca02c;" x="345.624013" xlink:href="#mdd7345cd56" y="301.112459"/>
     <use style="fill:#2ca02c;stroke:#2ca02c;" x="361.915606" xlink:href="#mdd7345cd56" y="301.053458"/>
     <use style="fill:#2ca02c;stroke:#2ca02c;" x="378.2072" xlink:href="#mdd7345cd56" y="299.851024"/>
     <use style="fill:#2ca02c;stroke:#2ca02c;" x="394.498793" xlink:href="#mdd7345cd56" y="301.065433"/>
     <use style="fill:#2ca02c;stroke:#2ca02c;" x="410.790387" xlink:href="#mdd7345cd56" y="299.046394"/>
     <use style="fill:#2ca02c;stroke:#2ca02c;" x="427.08198" xlink:href="#mdd7345cd56" y="301.190796"/>
    </g>
   </g>
   <g id="line2d_16">
    <path clip-path="url(#p8b08ef8141)" d="M 52.375332 271.08 
L 68.666926 289.802 
M 101.250112 295.675271 
M 166.416486 291.606957 
M 296.749233 292.568493 
" style="fill:none;stroke:#d62728;stroke-linecap:square;stroke-width:1.5;"/>
    <defs>
     <path d="M 0 3 
C 0.795609 3 1.55874 2.683901 2.12132 2.12132 
C 2.683901 1.55874 3 0.795609 3 0 
C 3 -0.795609 2.683901 -1.55874 2.12132 -2.12132 
C 1.55874 -2.683901 0.795609 -3 0 -3 
C -0.795609 -3 -1.55874 -2.683901 -2.12132 -2.12132 
C -2.683901 -1.55874 -3 -0.795609 -3 0 
C -3 0.795609 -2.683901 1.55874 -2.12132 2.12132 
C -1.55874 2.683901 -0.795609 3 0 3 
z
" id="mbda4e517e1" style="stroke:#d62728;"/>
    </defs>
    <g clip-path="url(#p8b08ef8141)">
     <use style="fill:#d62728;stroke:#d62728;" x="52.375332" xlink:href="#mbda4e517e1" y="271.08"/>
     <use style="fill:#d62728;stroke:#d62728;" x="68.666926" xlink:href="#mbda4e517e1" y="289.802"/>
     <use style="fill:#d62728;stroke:#d62728;" x="101.250112" xlink:href="#mbda4e517e1" y="295.675271"/>
     <use style="fill:#d62728;stroke:#d62728;" x="166.416486" xlink:href="#mbda4e517e1" y="291.606957"/>
     <use style="fill:#d62728;stroke:#d62728;" x="296.749233" xlink:href="#mbda4e517e1" y="292.568493"/>
    </g>
   </g>
   <g id="line2d_17">
    <path clip-path="url(#p8b08ef8141)" d="M 52.375332 282.350769 
L 68.666926 292.61522 
M 101.250112 294.490284 
M 166.416486 296.083325 
M 296.749233 296.427937 
" style="fill:none;stroke:#9467bd;stroke-linecap:square;stroke-width:1.5;"/>
    <defs>
     <path d="M 0 3 
C 0.795609 3 1.55874 2.683901 2.12132 2.12132 
C 2.683901 1.55874 3 0.795609 3 0 
C 3 -0.795609 2.683901 -1.55874 2.12132 -2.12132 
C 1.55874 -2.683901 0.795609 -3 0 -3 
C -0.795609 -3 -1.55874 -2.683901 -2.12132 -2.12132 
C -2.683901 -1.55874 -3 -0.795609 -3 0 
C -3 0.795609 -2.683901 1.55874 -2.12132 2.12132 
C -1.55874 2.683901 -0.795609 3 0 3 
z
" id="m05a0cdc4dc" style="stroke:#9467bd;"/>
    </defs>
    <g clip-path="url(#p8b08ef8141)">
     <use style="fill:#9467bd;stroke:#9467bd;" x="52.375332" xlink:href="#m05a0cdc4dc" y="282.350769"/>
     <use style="fill:#9467bd;stroke:#9467bd;" x="68.666926" xlink:href="#m05a0cdc4dc" y="292.61522"/>
     <use style="fill:#9467bd;stroke:#9467bd;" x="101.250112" xlink:href="#m05a0cdc4dc" y="294.490284"/>
     <use style="fill:#9467bd;stroke:#9467bd;" x="166.416486" xlink:href="#m05a0cdc4dc" y="296.083325"/>
     <use style="fill:#9467bd;stroke:#9467bd;" x="296.749233" xlink:href="#m05a0cdc4dc" y="296.427937"/>
    </g>
   </g>
   <g id="line2d_18">
    <path clip-path="url(#p8b08ef8141)" d="M 52.375332 273.438016 
L 68.666926 290.028852 
L 84.958519 289.071162 
L 101.250112 290.906003 
L 117.541706 291.173333 
L 133.833299 290.666875 
L 150.124893 289.550214 
L 166.416486 288.985972 
L 182.708079 289.527479 
L 198.999673 290.400134 
L 215.291266 290.523118 
L 231.582859 290.287544 
L 247.874453 289.769831 
L 264.166046 289.132183 
L 280.45764 301.738252 
L 296.749233 290.537661 
L 313.040826 290.828756 
L 329.33242 290.418847 
L 345.624013 295.600933 
L 361.915606 290.558258 
L 378.2072 291.525123 
L 394.498793 289.324828 
L 410.790387 290.20391 
L 427.08198 290.460952 
" style="fill:none;stroke:#8c564b;stroke-linecap:square;stroke-width:1.5;"/>
    <defs>
     <path d="M 0 3 
C 0.795609 3 1.55874 2.683901 2.12132 2.12132 
C 2.683901 1.55874 3 0.795609 3 0 
C 3 -0.795609 2.683901 -1.55874 2.12132 -2.12132 
C 1.55874 -2.683901 0.795609 -3 0 -3 
C -0.795609 -3 -1.55874 -2.683901 -2.12132 -2.12132 
C -2.683901 -1.55874 -3 -0.795609 -3 0 
C -3 0.795609 -2.683901 1.55874 -2.12132 2.12132 
C -1.55874 2.683901 -0.795609 3 0 3 
z
" id="mc3089e3c04" style="stroke:#8c564b;"/>
    </defs>
    <g clip-path="url(#p8b08ef8141)">
     <use style="fill:#8c564b;stroke:#8c564b;" x="52.375332" xlink:href="#mc3089e3c04" y="273.438016"/>
     <use style="fill:#8c564b;stroke:#8c564b;" x="68.666926" xlink:href="#mc3089e3c04" y="290.028852"/>
     <use style="fill:#8c564b;stroke:#8c564b;" x="84.958519" xlink:href="#mc3089e3c04" y="289.071162"/>
     <use style="fill:#8c564b;stroke:#8c564b;" x="101.250112" xlink:href="#mc3089e3c04" y="290.906003"/>
     <use style="fill:#8c564b;stroke:#8c564b;" x="117.541706" xlink:href="#mc3089e3c04" y="291.173333"/>
     <use style="fill:#8c564b;stroke:#8c564b;" x="133.833299" xlink:href="#mc3089e3c04" y="290.666875"/>
     <use style="fill:#8c564b;stroke:#8c564b;" x="150.124893" xlink:href="#mc3089e3c04" y="289.550214"/>
     <use style="fill:#8c564b;stroke:#8c564b;" x="166.416486" xlink:href="#mc3089e3c04" y="288.985972"/>
     <use style="fill:#8c564b;stroke:#8c564b;" x="182.708079" xlink:href="#mc3089e3c04" y="289.527479"/>
     <use style="fill:#8c564b;stroke:#8c564b;" x="198.999673" xlink:href="#mc3089e3c04" y="290.400134"/>
     <use style="fill:#8c564b;stroke:#8c564b;" x="215.291266" xlink:href="#mc3089e3c04" y="290.523118"/>
     <use style="fill:#8c564b;stroke:#8c564b;" x="231.582859" xlink:href="#mc3089e3c04" y="290.287544"/>
     <use style="fill:#8c564b;stroke:#8c564b;" x="247.874453" xlink:href="#mc3089e3c04" y="289.769831"/>
     <use style="fill:#8c564b;stroke:#8c564b;" x="264.166046" xlink:href="#mc3089e3c04" y="289.132183"/>
     <use style="fill:#8c564b;stroke:#8c564b;" x="280.45764" xlink:href="#mc3089e3c04" y="301.738252"/>
     <use style="fill:#8c564b;stroke:#8c564b;" x="296.749233" xlink:href="#mc3089e3c04" y="290.537661"/>
     <use style="fill:#8c564b;stroke:#8c564b;" x="313.040826" xlink:href="#mc3089e3c04" y="290.828756"/>
     <use style="fill:#8c564b;stroke:#8c564b;" x="329.33242" xlink:href="#mc3089e3c04" y="290.418847"/>
     <use style="fill:#8c564b;stroke:#8c564b;" x="345.624013" xlink:href="#mc3089e3c04" y="295.600933"/>
     <use style="fill:#8c564b;stroke:#8c564b;" x="361.915606" xlink:href="#mc3089e3c04" y="290.558258"/>
     <use style="fill:#8c564b;stroke:#8c564b;" x="378.2072" xlink:href="#mc3089e3c04" y="291.525123"/>
     <use style="fill:#8c564b;stroke:#8c564b;" x="394.498793" xlink:href="#mc3089e3c04" y="289.324828"/>
     <use style="fill:#8c564b;stroke:#8c564b;" x="410.790387" xlink:href="#mc3089e3c04" y="290.20391"/>
     <use style="fill:#8c564b;stroke:#8c564b;" x="427.08198" xlink:href="#mc3089e3c04" y="290.460952"/>
    </g>
   </g>
   <g id="line2d_19">
    <path clip-path="url(#p8b08ef8141)" d="M 52.375332 275.964 
L 68.666926 281.924985 
M 101.250112 284.979667 
M 166.416486 279.168481 
M 296.749233 280.788257 
" style="fill:none;stroke:#e377c2;stroke-linecap:square;stroke-width:1.5;"/>
    <defs>
     <path d="M 0 3 
C 0.795609 3 1.55874 2.683901 2.12132 2.12132 
C 2.683901 1.55874 3 0.795609 3 0 
C 3 -0.795609 2.683901 -1.55874 2.12132 -2.12132 
C 1.55874 -2.683901 0.795609 -3 0 -3 
C -0.795609 -3 -1.55874 -2.683901 -2.12132 -2.12132 
C -2.683901 -1.55874 -3 -0.795609 -3 0 
C -3 0.795609 -2.683901 1.55874 -2.12132 2.12132 
C -1.55874 2.683901 -0.795609 3 0 3 
z
" id="mf24a0a93e7" style="stroke:#e377c2;"/>
    </defs>
    <g clip-path="url(#p8b08ef8141)">
     <use style="fill:#e377c2;stroke:#e377c2;" x="52.375332" xlink:href="#mf24a0a93e7" y="275.964"/>
     <use style="fill:#e377c2;stroke:#e377c2;" x="68.666926" xlink:href="#mf24a0a93e7" y="281.924985"/>
     <use style="fill:#e377c2;stroke:#e377c2;" x="101.250112" xlink:href="#mf24a0a93e7" y="284.979667"/>
     <use style="fill:#e377c2;stroke:#e377c2;" x="166.416486" xlink:href="#mf24a0a93e7" y="279.168481"/>
     <use style="fill:#e377c2;stroke:#e377c2;" x="296.749233" xlink:href="#mf24a0a93e7" y="280.788257"/>
    </g>
   </g>
   <g id="patch_3">
    <path d="M 33.64 303.64 
L 33.64 26.88 
" style="fill:none;stroke:#000000;stroke-linecap:square;stroke-linejoin:miter;stroke-width:0.8;"/>
   </g>
   <g id="patch_4">
    <path d="M 445.817312 303.64 
L 445.817312 26.88 
" style="fill:none;stroke:#000000;stroke-linecap:square;stroke-linejoin:miter;stroke-width:0.8;"/>
   </g>
   <g id="patch_5">
    <path d="M 33.64 303.64 
L 445.817312 303.64 
" style="fill:none;stroke:#000000;stroke-linecap:square;stroke-linejoin:miter;stroke-width:0.8;"/>
   </g>
   <g id="patch_6">
    <path d="M 33.64 26.88 
L 445.817312 26.88 
" style="fill:none;stroke:#000000;stroke-linecap:square;stroke-linejoin:miter;stroke-width:0.8;"/>
   </g>
   <g id="text_14">
    <!-- Compute ratio (32 vector size) -->
    <g transform="translate(147.923969 20.88)scale(0.12 -0.12)">
     <defs>
      <path d="M 4122 4306 
L 4122 3641 
Q 3803 3938 3442 4084 
Q 3081 4231 2675 4231 
Q 1875 4231 1450 3742 
Q 1025 3253 1025 2328 
Q 1025 1406 1450 917 
Q 1875 428 2675 428 
Q 3081 428 3442 575 
Q 3803 722 4122 1019 
L 4122 359 
Q 3791 134 3420 21 
Q 3050 -91 2638 -91 
Q 1578 -91 968 557 
Q 359 1206 359 2328 
Q 359 3453 968 4101 
Q 1578 4750 2638 4750 
Q 3056 4750 3426 4639 
Q 3797 4528 4122 4306 
z
" id="DejaVuSans-43" transform="scale(0.015625)"/>
      <path d="M 1172 4494 
L 1172 3500 
L 2356 3500 
L 2356 3053 
L 1172 3053 
L 1172 1153 
Q 1172 725 1289 603 
Q 1406 481 1766 481 
L 2356 481 
L 2356 0 
L 1766 0 
Q 1100 0 847 248 
Q 594 497 594 1153 
L 594 3053 
L 172 3053 
L 172 3500 
L 594 3500 
L 594 4494 
L 1172 4494 
z
" id="DejaVuSans-74" transform="scale(0.015625)"/>
      <path d="M 2194 1759 
Q 1497 1759 1228 1600 
Q 959 1441 959 1056 
Q 959 750 1161 570 
Q 1363 391 1709 391 
Q 2188 391 2477 730 
Q 2766 1069 2766 1631 
L 2766 1759 
L 2194 1759 
z
M 3341 1997 
L 3341 0 
L 2766 0 
L 2766 531 
Q 2569 213 2275 61 
Q 1981 -91 1556 -91 
Q 1019 -91 701 211 
Q 384 513 384 1019 
Q 384 1609 779 1909 
Q 1175 2209 1959 2209 
L 2766 2209 
L 2766 2266 
Q 2766 2663 2505 2880 
Q 2244 3097 1772 3097 
Q 1472 3097 1187 3025 
Q 903 2953 641 2809 
L 641 3341 
Q 956 3463 1253 3523 
Q 1550 3584 1831 3584 
Q 2591 3584 2966 3190 
Q 3341 2797 3341 1997 
z
" id="DejaVuSans-61" transform="scale(0.015625)"/>
      <path d="M 603 3500 
L 1178 3500 
L 1178 0 
L 603 0 
L 603 3500 
z
M 603 4863 
L 1178 4863 
L 1178 4134 
L 603 4134 
L 603 4863 
z
" id="DejaVuSans-69" transform="scale(0.015625)"/>
      <path d="M 1984 4856 
Q 1566 4138 1362 3434 
Q 1159 2731 1159 2009 
Q 1159 1288 1364 580 
Q 1569 -128 1984 -844 
L 1484 -844 
Q 1016 -109 783 600 
Q 550 1309 550 2009 
Q 550 2706 781 3412 
Q 1013 4119 1484 4856 
L 1984 4856 
z
" id="DejaVuSans-28" transform="scale(0.015625)"/>
      <path d="M 191 3500 
L 800 3500 
L 1894 563 
L 2988 3500 
L 3597 3500 
L 2284 0 
L 1503 0 
L 191 3500 
z
" id="DejaVuSans-76" transform="scale(0.015625)"/>
      <path d="M 353 3500 
L 3084 3500 
L 3084 2975 
L 922 459 
L 3084 459 
L 3084 0 
L 275 0 
L 275 525 
L 2438 3041 
L 353 3041 
L 353 3500 
z
" id="DejaVuSans-7a" transform="scale(0.015625)"/>
      <path d="M 513 4856 
L 1013 4856 
Q 1481 4119 1714 3412 
Q 1947 2706 1947 2009 
Q 1947 1309 1714 600 
Q 1481 -109 1013 -844 
L 513 -844 
Q 928 -128 1133 580 
Q 1338 1288 1338 2009 
Q 1338 2731 1133 3434 
Q 928 4138 513 4856 
z
" id="DejaVuSans-29" transform="scale(0.015625)"/>
     </defs>
     <use xlink:href="#DejaVuSans-43"/>
     <use x="69.824219" xlink:href="#DejaVuSans-6f"/>
     <use x="131.005859" xlink:href="#DejaVuSans-6d"/>
     <use x="228.417969" xlink:href="#DejaVuSans-70"/>
     <use x="291.894531" xlink:href="#DejaVuSans-75"/>
     <use x="355.273438" xlink:href="#DejaVuSans-74"/>
     <use x="394.482422" xlink:href="#DejaVuSans-65"/>
     <use x="456.005859" xlink:href="#DejaVuSans-20"/>
     <use x="487.792969" xlink:href="#DejaVuSans-72"/>
     <use x="528.90625" xlink:href="#DejaVuSans-61"/>
     <use x="590.185547" xlink:href="#DejaVuSans-74"/>
     <use x="629.394531" xlink:href="#DejaVuSans-69"/>
     <use x="657.177734" xlink:href="#DejaVuSans-6f"/>
     <use x="718.359375" xlink:href="#DejaVuSans-20"/>
     <use x="750.146484" xlink:href="#DejaVuSans-28"/>
     <use x="789.160156" xlink:href="#DejaVuSans-33"/>
     <use x="852.783203" xlink:href="#DejaVuSans-32"/>
     <use x="916.40625" xlink:href="#DejaVuSans-20"/>
     <use x="948.193359" xlink:href="#DejaVuSans-76"/>
     <use x="1007.373047" xlink:href="#DejaVuSans-65"/>
     <use x="1068.896484" xlink:href="#DejaVuSans-63"/>
     <use x="1123.876953" xlink:href="#DejaVuSans-74"/>
     <use x="1163.085938" xlink:href="#DejaVuSans-6f"/>
     <use x="1224.267578" xlink:href="#DejaVuSans-72"/>
     <use x="1265.380859" xlink:href="#DejaVuSans-20"/>
     <use x="1297.167969" xlink:href="#DejaVuSans-73"/>
     <use x="1349.267578" xlink:href="#DejaVuSans-69"/>
     <use x="1377.050781" xlink:href="#DejaVuSans-7a"/>
     <use x="1429.541016" xlink:href="#DejaVuSans-65"/>
     <use x="1491.064453" xlink:href="#DejaVuSans-29"/>
    </g>
   </g>
   <g id="legend_1">
    <g id="patch_7">
     <path d="M 293.807937 152.305 
L 438.817312 152.305 
Q 440.817312 152.305 440.817312 150.305 
L 440.817312 33.88 
Q 440.817312 31.88 438.817312 31.88 
L 293.807937 31.88 
Q 291.807937 31.88 291.807937 33.88 
L 291.807937 150.305 
Q 291.807937 152.305 293.807937 152.305 
z
" style="fill:#ffffff;opacity:0.8;stroke:#cccccc;stroke-linejoin:miter;"/>
    </g>
    <g id="text_15">
     <!-- implementation -->
     <g transform="translate(326.696219 43.478437)scale(0.1 -0.1)">
      <defs>
       <path d="M 603 4863 
L 1178 4863 
L 1178 0 
L 603 0 
L 603 4863 
z
" id="DejaVuSans-6c" transform="scale(0.015625)"/>
       <path d="M 3513 2113 
L 3513 0 
L 2938 0 
L 2938 2094 
Q 2938 2591 2744 2837 
Q 2550 3084 2163 3084 
Q 1697 3084 1428 2787 
Q 1159 2491 1159 1978 
L 1159 0 
L 581 0 
L 581 3500 
L 1159 3500 
L 1159 2956 
Q 1366 3272 1645 3428 
Q 1925 3584 2291 3584 
Q 2894 3584 3203 3211 
Q 3513 2838 3513 2113 
z
" id="DejaVuSans-6e" transform="scale(0.015625)"/>
      </defs>
      <use xlink:href="#DejaVuSans-69"/>
      <use x="27.783203" xlink:href="#DejaVuSans-6d"/>
      <use x="125.195312" xlink:href="#DejaVuSans-70"/>
      <use x="188.671875" xlink:href="#DejaVuSans-6c"/>
      <use x="216.455078" xlink:href="#DejaVuSans-65"/>
      <use x="277.978516" xlink:href="#DejaVuSans-6d"/>
      <use x="375.390625" xlink:href="#DejaVuSans-65"/>
      <use x="436.914062" xlink:href="#DejaVuSans-6e"/>
      <use x="500.292969" xlink:href="#DejaVuSans-74"/>
      <use x="539.501953" xlink:href="#DejaVuSans-61"/>
      <use x="600.78125" xlink:href="#DejaVuSans-74"/>
      <use x="639.990234" xlink:href="#DejaVuSans-69"/>
      <use x="667.773438" xlink:href="#DejaVuSans-6f"/>
      <use x="728.955078" xlink:href="#DejaVuSans-6e"/>
     </g>
    </g>
    <g id="line2d_20">
     <path d="M 295.807937 54.656563 
L 315.807937 54.656563 
" style="fill:none;stroke:#1f77b4;stroke-linecap:square;stroke-width:1.5;"/>
    </g>
    <g id="line2d_21">
     <g>
      <use style="fill:#1f77b4;stroke:#1f77b4;" x="305.807937" xlink:href="#mf59383cac9" y="54.656563"/>
     </g>
    </g>
    <g id="text_16">
     <!-- allgather -->
     <g transform="translate(323.807937 58.156563)scale(0.1 -0.1)">
      <defs>
       <path d="M 2906 1791 
Q 2906 2416 2648 2759 
Q 2391 3103 1925 3103 
Q 1463 3103 1205 2759 
Q 947 2416 947 1791 
Q 947 1169 1205 825 
Q 1463 481 1925 481 
Q 2391 481 2648 825 
Q 2906 1169 2906 1791 
z
M 3481 434 
Q 3481 -459 3084 -895 
Q 2688 -1331 1869 -1331 
Q 1566 -1331 1297 -1286 
Q 1028 -1241 775 -1147 
L 775 -588 
Q 1028 -725 1275 -790 
Q 1522 -856 1778 -856 
Q 2344 -856 2625 -561 
Q 2906 -266 2906 331 
L 2906 616 
Q 2728 306 2450 153 
Q 2172 0 1784 0 
Q 1141 0 747 490 
Q 353 981 353 1791 
Q 353 2603 747 3093 
Q 1141 3584 1784 3584 
Q 2172 3584 2450 3431 
Q 2728 3278 2906 2969 
L 2906 3500 
L 3481 3500 
L 3481 434 
z
" id="DejaVuSans-67" transform="scale(0.015625)"/>
       <path d="M 3513 2113 
L 3513 0 
L 2938 0 
L 2938 2094 
Q 2938 2591 2744 2837 
Q 2550 3084 2163 3084 
Q 1697 3084 1428 2787 
Q 1159 2491 1159 1978 
L 1159 0 
L 581 0 
L 581 4863 
L 1159 4863 
L 1159 2956 
Q 1366 3272 1645 3428 
Q 1925 3584 2291 3584 
Q 2894 3584 3203 3211 
Q 3513 2838 3513 2113 
z
" id="DejaVuSans-68" transform="scale(0.015625)"/>
      </defs>
      <use xlink:href="#DejaVuSans-61"/>
      <use x="61.279297" xlink:href="#DejaVuSans-6c"/>
      <use x="89.0625" xlink:href="#DejaVuSans-6c"/>
      <use x="116.845703" xlink:href="#DejaVuSans-67"/>
      <use x="180.322266" xlink:href="#DejaVuSans-61"/>
      <use x="241.601562" xlink:href="#DejaVuSans-74"/>
      <use x="280.810547" xlink:href="#DejaVuSans-68"/>
      <use x="344.189453" xlink:href="#DejaVuSans-65"/>
      <use x="405.712891" xlink:href="#DejaVuSans-72"/>
     </g>
    </g>
    <g id="line2d_22">
     <path d="M 295.807937 69.334688 
L 315.807937 69.334688 
" style="fill:none;stroke:#ff7f0e;stroke-linecap:square;stroke-width:1.5;"/>
    </g>
    <g id="line2d_23">
     <g>
      <use style="fill:#ff7f0e;stroke:#ff7f0e;" x="305.807937" xlink:href="#m8d6f531b34" y="69.334688"/>
     </g>
    </g>
    <g id="text_17">
     <!-- allgather-async -->
     <g transform="translate(323.807937 72.834688)scale(0.1 -0.1)">
      <defs>
       <path d="M 313 2009 
L 1997 2009 
L 1997 1497 
L 313 1497 
L 313 2009 
z
" id="DejaVuSans-2d" transform="scale(0.015625)"/>
       <path d="M 2059 -325 
Q 1816 -950 1584 -1140 
Q 1353 -1331 966 -1331 
L 506 -1331 
L 506 -850 
L 844 -850 
Q 1081 -850 1212 -737 
Q 1344 -625 1503 -206 
L 1606 56 
L 191 3500 
L 800 3500 
L 1894 763 
L 2988 3500 
L 3597 3500 
L 2059 -325 
z
" id="DejaVuSans-79" transform="scale(0.015625)"/>
      </defs>
      <use xlink:href="#DejaVuSans-61"/>
      <use x="61.279297" xlink:href="#DejaVuSans-6c"/>
      <use x="89.0625" xlink:href="#DejaVuSans-6c"/>
      <use x="116.845703" xlink:href="#DejaVuSans-67"/>
      <use x="180.322266" xlink:href="#DejaVuSans-61"/>
      <use x="241.601562" xlink:href="#DejaVuSans-74"/>
      <use x="280.810547" xlink:href="#DejaVuSans-68"/>
      <use x="344.189453" xlink:href="#DejaVuSans-65"/>
      <use x="405.712891" xlink:href="#DejaVuSans-72"/>
      <use x="440.451172" xlink:href="#DejaVuSans-2d"/>
      <use x="476.535156" xlink:href="#DejaVuSans-61"/>
      <use x="537.814453" xlink:href="#DejaVuSans-73"/>
      <use x="589.914062" xlink:href="#DejaVuSans-79"/>
      <use x="649.09375" xlink:href="#DejaVuSans-6e"/>
      <use x="712.472656" xlink:href="#DejaVuSans-63"/>
     </g>
    </g>
    <g id="line2d_24">
     <path d="M 295.807937 84.012812 
L 315.807937 84.012812 
" style="fill:none;stroke:#2ca02c;stroke-linecap:square;stroke-width:1.5;"/>
    </g>
    <g id="line2d_25">
     <g>
      <use style="fill:#2ca02c;stroke:#2ca02c;" x="305.807937" xlink:href="#mdd7345cd56" y="84.012812"/>
     </g>
    </g>
    <g id="text_18">
     <!-- allreduce -->
     <g transform="translate(323.807937 87.512812)scale(0.1 -0.1)">
      <defs>
       <path d="M 2906 2969 
L 2906 4863 
L 3481 4863 
L 3481 0 
L 2906 0 
L 2906 525 
Q 2725 213 2448 61 
Q 2172 -91 1784 -91 
Q 1150 -91 751 415 
Q 353 922 353 1747 
Q 353 2572 751 3078 
Q 1150 3584 1784 3584 
Q 2172 3584 2448 3432 
Q 2725 3281 2906 2969 
z
M 947 1747 
Q 947 1113 1208 752 
Q 1469 391 1925 391 
Q 2381 391 2643 752 
Q 2906 1113 2906 1747 
Q 2906 2381 2643 2742 
Q 2381 3103 1925 3103 
Q 1469 3103 1208 2742 
Q 947 2381 947 1747 
z
" id="DejaVuSans-64" transform="scale(0.015625)"/>
      </defs>
      <use xlink:href="#DejaVuSans-61"/>
      <use x="61.279297" xlink:href="#DejaVuSans-6c"/>
      <use x="89.0625" xlink:href="#DejaVuSans-6c"/>
      <use x="116.845703" xlink:href="#DejaVuSans-72"/>
      <use x="155.708984" xlink:href="#DejaVuSans-65"/>
      <use x="217.232422" xlink:href="#DejaVuSans-64"/>
      <use x="280.708984" xlink:href="#DejaVuSans-75"/>
      <use x="344.087891" xlink:href="#DejaVuSans-63"/>
      <use x="399.068359" xlink:href="#DejaVuSans-65"/>
     </g>
    </g>
    <g id="line2d_26">
     <path d="M 295.807937 98.690938 
L 315.807937 98.690938 
" style="fill:none;stroke:#d62728;stroke-linecap:square;stroke-width:1.5;"/>
    </g>
    <g id="line2d_27">
     <g>
      <use style="fill:#d62728;stroke:#d62728;" x="305.807937" xlink:href="#mbda4e517e1" y="98.690938"/>
     </g>
    </g>
    <g id="text_19">
     <!-- allreduce-butterfly -->
     <g transform="translate(323.807937 102.190938)scale(0.1 -0.1)">
      <use xlink:href="#DejaVuSans-61"/>
      <use x="61.279297" xlink:href="#DejaVuSans-6c"/>
      <use x="89.0625" xlink:href="#DejaVuSans-6c"/>
      <use x="116.845703" xlink:href="#DejaVuSans-72"/>
      <use x="155.708984" xlink:href="#DejaVuSans-65"/>
      <use x="217.232422" xlink:href="#DejaVuSans-64"/>
      <use x="280.708984" xlink:href="#DejaVuSans-75"/>
      <use x="344.087891" xlink:href="#DejaVuSans-63"/>
      <use x="399.068359" xlink:href="#DejaVuSans-65"/>
      <use x="460.591797" xlink:href="#DejaVuSans-2d"/>
      <use x="496.675781" xlink:href="#DejaVuSans-62"/>
      <use x="560.152344" xlink:href="#DejaVuSans-75"/>
      <use x="623.53125" xlink:href="#DejaVuSans-74"/>
      <use x="662.740234" xlink:href="#DejaVuSans-74"/>
      <use x="701.949219" xlink:href="#DejaVuSans-65"/>
      <use x="763.472656" xlink:href="#DejaVuSans-72"/>
      <use x="804.585938" xlink:href="#DejaVuSans-66"/>
      <use x="839.791016" xlink:href="#DejaVuSans-6c"/>
      <use x="867.574219" xlink:href="#DejaVuSans-79"/>
     </g>
    </g>
    <g id="line2d_28">
     <path d="M 295.807937 113.369063 
L 315.807937 113.369063 
" style="fill:none;stroke:#9467bd;stroke-linecap:square;stroke-width:1.5;"/>
    </g>
    <g id="line2d_29">
     <g>
      <use style="fill:#9467bd;stroke:#9467bd;" x="305.807937" xlink:href="#m05a0cdc4dc" y="113.369063"/>
     </g>
    </g>
    <g id="text_20">
     <!-- allreduce-rabenseifner -->
     <g transform="translate(323.807937 116.869063)scale(0.1 -0.1)">
      <use xlink:href="#DejaVuSans-61"/>
      <use x="61.279297" xlink:href="#DejaVuSans-6c"/>
      <use x="89.0625" xlink:href="#DejaVuSans-6c"/>
      <use x="116.845703" xlink:href="#DejaVuSans-72"/>
      <use x="155.708984" xlink:href="#DejaVuSans-65"/>
      <use x="217.232422" xlink:href="#DejaVuSans-64"/>
      <use x="280.708984" xlink:href="#DejaVuSans-75"/>
      <use x="344.087891" xlink:href="#DejaVuSans-63"/>
      <use x="399.068359" xlink:href="#DejaVuSans-65"/>
      <use x="460.591797" xlink:href="#DejaVuSans-2d"/>
      <use x="496.675781" xlink:href="#DejaVuSans-72"/>
      <use x="537.789062" xlink:href="#DejaVuSans-61"/>
      <use x="599.068359" xlink:href="#DejaVuSans-62"/>
      <use x="662.544922" xlink:href="#DejaVuSans-65"/>
      <use x="724.068359" xlink:href="#DejaVuSans-6e"/>
      <use x="787.447266" xlink:href="#DejaVuSans-73"/>
      <use x="839.546875" xlink:href="#DejaVuSans-65"/>
      <use x="901.070312" xlink:href="#DejaVuSans-69"/>
      <use x="928.853516" xlink:href="#DejaVuSans-66"/>
      <use x="964.058594" xlink:href="#DejaVuSans-6e"/>
      <use x="1027.4375" xlink:href="#DejaVuSans-65"/>
      <use x="1088.960938" xlink:href="#DejaVuSans-72"/>
     </g>
    </g>
    <g id="line2d_30">
     <path d="M 295.807937 128.047188 
L 315.807937 128.047188 
" style="fill:none;stroke:#8c564b;stroke-linecap:square;stroke-width:1.5;"/>
    </g>
    <g id="line2d_31">
     <g>
      <use style="fill:#8c564b;stroke:#8c564b;" x="305.807937" xlink:href="#mc3089e3c04" y="128.047188"/>
     </g>
    </g>
    <g id="text_21">
     <!-- allreduce-ring -->
     <g transform="translate(323.807937 131.547188)scale(0.1 -0.1)">
      <use xlink:href="#DejaVuSans-61"/>
      <use x="61.279297" xlink:href="#DejaVuSans-6c"/>
      <use x="89.0625" xlink:href="#DejaVuSans-6c"/>
      <use x="116.845703" xlink:href="#DejaVuSans-72"/>
      <use x="155.708984" xlink:href="#DejaVuSans-65"/>
      <use x="217.232422" xlink:href="#DejaVuSans-64"/>
      <use x="280.708984" xlink:href="#DejaVuSans-75"/>
      <use x="344.087891" xlink:href="#DejaVuSans-63"/>
      <use x="399.068359" xlink:href="#DejaVuSans-65"/>
      <use x="460.591797" xlink:href="#DejaVuSans-2d"/>
      <use x="496.675781" xlink:href="#DejaVuSans-72"/>
      <use x="537.789062" xlink:href="#DejaVuSans-69"/>
      <use x="565.572266" xlink:href="#DejaVuSans-6e"/>
      <use x="628.951172" xlink:href="#DejaVuSans-67"/>
     </g>
    </g>
    <g id="line2d_32">
     <path d="M 295.807937 142.725313 
L 315.807937 142.725313 
" style="fill:none;stroke:#e377c2;stroke-linecap:square;stroke-width:1.5;"/>
    </g>
    <g id="line2d_33">
     <g>
      <use style="fill:#e377c2;stroke:#e377c2;" x="305.807937" xlink:href="#mf24a0a93e7" y="142.725313"/>
     </g>
    </g>
    <g id="text_22">
     <!-- rabenseifner-gather -->
     <g transform="translate(323.807937 146.225313)scale(0.1 -0.1)">
      <use xlink:href="#DejaVuSans-72"/>
      <use x="41.113281" xlink:href="#DejaVuSans-61"/>
      <use x="102.392578" xlink:href="#DejaVuSans-62"/>
      <use x="165.869141" xlink:href="#DejaVuSans-65"/>
      <use x="227.392578" xlink:href="#DejaVuSans-6e"/>
      <use x="290.771484" xlink:href="#DejaVuSans-73"/>
      <use x="342.871094" xlink:href="#DejaVuSans-65"/>
      <use x="404.394531" xlink:href="#DejaVuSans-69"/>
      <use x="432.177734" xlink:href="#DejaVuSans-66"/>
      <use x="467.382812" xlink:href="#DejaVuSans-6e"/>
      <use x="530.761719" xlink:href="#DejaVuSans-65"/>
      <use x="592.285156" xlink:href="#DejaVuSans-72"/>
      <use x="627.023438" xlink:href="#DejaVuSans-2d"/>
      <use x="663.107422" xlink:href="#DejaVuSans-67"/>
      <use x="726.583984" xlink:href="#DejaVuSans-61"/>
      <use x="787.863281" xlink:href="#DejaVuSans-74"/>
      <use x="827.072266" xlink:href="#DejaVuSans-68"/>
      <use x="890.451172" xlink:href="#DejaVuSans-65"/>
      <use x="951.974609" xlink:href="#DejaVuSans-72"/>
     </g>
    </g>
   </g>
  </g>
 </g>
 <defs>
  <clipPath id="p8b08ef8141">
   <rect height="276.76" width="412.177312" x="33.64" y="26.88"/>
  </clipPath>
 </defs>
</svg>
