<?xml version="1.0" encoding="utf-8" standalone="no"?>
<!DOCTYPE svg PUBLIC "-//W3C//DTD SVG 1.1//EN"
  "http://www.w3.org/Graphics/SVG/1.1/DTD/svg11.dtd">
<svg height="345.6pt" version="1.1" viewBox="0 0 460.8 345.6" width="460.8pt" xmlns="http://www.w3.org/2000/svg" xmlns:xlink="http://www.w3.org/1999/xlink">
 <metadata>
  <rdf:RDF xmlns:cc="http://creativecommons.org/ns#" xmlns:dc="http://purl.org/dc/elements/1.1/" xmlns:rdf="http://www.w3.org/1999/02/22-rdf-syntax-ns#">
   <cc:Work>
    <dc:type rdf:resource="http://purl.org/dc/dcmitype/StillImage"/>
    <dc:date>2021-11-17T11:13:26.817751</dc:date>
    <dc:format>image/svg+xml</dc:format>
    <dc:creator>
     <cc:Agent>
      <dc:title>Matplotlib v3.4.3, https://matplotlib.org/</dc:title>
     </cc:Agent>
    </dc:creator>
   </cc:Work>
  </rdf:RDF>
 </metadata>
 <defs>
  <style type="text/css">*{stroke-linecap:butt;stroke-linejoin:round;}</style>
 </defs>
 <g id="figure_1">
  <g id="patch_1">
   <path d="M 0 345.6 
L 460.8 345.6 
L 460.8 0 
L 0 0 
z
" style="fill:#ffffff;"/>
  </g>
  <g id="axes_1">
   <g id="patch_2">
    <path d="M 50.092685 303.64 
L 450 303.64 
L 450 26.88 
L 50.092685 26.88 
z
" style="fill:#ffffff;"/>
   </g>
   <g id="matplotlib.axis_1">
    <g id="xtick_1">
     <g id="line2d_1">
      <defs>
       <path d="M 0 0 
L 0 3.5 
" id="md3953d6361" style="stroke:#000000;stroke-width:0.8;"/>
      </defs>
      <g>
       <use style="stroke:#000000;stroke-width:0.8;" x="58.948441" xlink:href="#md3953d6361" y="303.64"/>
      </g>
     </g>
     <g id="text_1">
      <!-- 0 -->
      <g transform="translate(55.767191 318.238437)scale(0.1 -0.1)">
       <defs>
        <path d="M 2034 4250 
Q 1547 4250 1301 3770 
Q 1056 3291 1056 2328 
Q 1056 1369 1301 889 
Q 1547 409 2034 409 
Q 2525 409 2770 889 
Q 3016 1369 3016 2328 
Q 3016 3291 2770 3770 
Q 2525 4250 2034 4250 
z
M 2034 4750 
Q 2819 4750 3233 4129 
Q 3647 3509 3647 2328 
Q 3647 1150 3233 529 
Q 2819 -91 2034 -91 
Q 1250 -91 836 529 
Q 422 1150 422 2328 
Q 422 3509 836 4129 
Q 1250 4750 2034 4750 
z
" id="DejaVuSans-30" transform="scale(0.015625)"/>
       </defs>
       <use xlink:href="#DejaVuSans-30"/>
      </g>
     </g>
    </g>
    <g id="xtick_2">
     <g id="line2d_2">
      <g>
       <use style="stroke:#000000;stroke-width:0.8;" x="105.557685" xlink:href="#md3953d6361" y="303.64"/>
      </g>
     </g>
     <g id="text_2">
      <!-- 5 -->
      <g transform="translate(102.376435 318.238437)scale(0.1 -0.1)">
       <defs>
        <path d="M 691 4666 
L 3169 4666 
L 3169 4134 
L 1269 4134 
L 1269 2991 
Q 1406 3038 1543 3061 
Q 1681 3084 1819 3084 
Q 2600 3084 3056 2656 
Q 3513 2228 3513 1497 
Q 3513 744 3044 326 
Q 2575 -91 1722 -91 
Q 1428 -91 1123 -41 
Q 819 9 494 109 
L 494 744 
Q 775 591 1075 516 
Q 1375 441 1709 441 
Q 2250 441 2565 725 
Q 2881 1009 2881 1497 
Q 2881 1984 2565 2268 
Q 2250 2553 1709 2553 
Q 1456 2553 1204 2497 
Q 953 2441 691 2322 
L 691 4666 
z
" id="DejaVuSans-35" transform="scale(0.015625)"/>
       </defs>
       <use xlink:href="#DejaVuSans-35"/>
      </g>
     </g>
    </g>
    <g id="xtick_3">
     <g id="line2d_3">
      <g>
       <use style="stroke:#000000;stroke-width:0.8;" x="152.16693" xlink:href="#md3953d6361" y="303.64"/>
      </g>
     </g>
     <g id="text_3">
      <!-- 10 -->
      <g transform="translate(145.80443 318.238437)scale(0.1 -0.1)">
       <defs>
        <path d="M 794 531 
L 1825 531 
L 1825 4091 
L 703 3866 
L 703 4441 
L 1819 4666 
L 2450 4666 
L 2450 531 
L 3481 531 
L 3481 0 
L 794 0 
L 794 531 
z
" id="DejaVuSans-31" transform="scale(0.015625)"/>
       </defs>
       <use xlink:href="#DejaVuSans-31"/>
       <use x="63.623047" xlink:href="#DejaVuSans-30"/>
      </g>
     </g>
    </g>
    <g id="xtick_4">
     <g id="line2d_4">
      <g>
       <use style="stroke:#000000;stroke-width:0.8;" x="198.776174" xlink:href="#md3953d6361" y="303.64"/>
      </g>
     </g>
     <g id="text_4">
      <!-- 15 -->
      <g transform="translate(192.413674 318.238437)scale(0.1 -0.1)">
       <use xlink:href="#DejaVuSans-31"/>
       <use x="63.623047" xlink:href="#DejaVuSans-35"/>
      </g>
     </g>
    </g>
    <g id="xtick_5">
     <g id="line2d_5">
      <g>
       <use style="stroke:#000000;stroke-width:0.8;" x="245.385418" xlink:href="#md3953d6361" y="303.64"/>
      </g>
     </g>
     <g id="text_5">
      <!-- 20 -->
      <g transform="translate(239.022918 318.238437)scale(0.1 -0.1)">
       <defs>
        <path d="M 1228 531 
L 3431 531 
L 3431 0 
L 469 0 
L 469 531 
Q 828 903 1448 1529 
Q 2069 2156 2228 2338 
Q 2531 2678 2651 2914 
Q 2772 3150 2772 3378 
Q 2772 3750 2511 3984 
Q 2250 4219 1831 4219 
Q 1534 4219 1204 4116 
Q 875 4013 500 3803 
L 500 4441 
Q 881 4594 1212 4672 
Q 1544 4750 1819 4750 
Q 2544 4750 2975 4387 
Q 3406 4025 3406 3419 
Q 3406 3131 3298 2873 
Q 3191 2616 2906 2266 
Q 2828 2175 2409 1742 
Q 1991 1309 1228 531 
z
" id="DejaVuSans-32" transform="scale(0.015625)"/>
       </defs>
       <use xlink:href="#DejaVuSans-32"/>
       <use x="63.623047" xlink:href="#DejaVuSans-30"/>
      </g>
     </g>
    </g>
    <g id="xtick_6">
     <g id="line2d_6">
      <g>
       <use style="stroke:#000000;stroke-width:0.8;" x="291.994662" xlink:href="#md3953d6361" y="303.64"/>
      </g>
     </g>
     <g id="text_6">
      <!-- 25 -->
      <g transform="translate(285.632162 318.238437)scale(0.1 -0.1)">
       <use xlink:href="#DejaVuSans-32"/>
       <use x="63.623047" xlink:href="#DejaVuSans-35"/>
      </g>
     </g>
    </g>
    <g id="xtick_7">
     <g id="line2d_7">
      <g>
       <use style="stroke:#000000;stroke-width:0.8;" x="338.603906" xlink:href="#md3953d6361" y="303.64"/>
      </g>
     </g>
     <g id="text_7">
      <!-- 30 -->
      <g transform="translate(332.241406 318.238437)scale(0.1 -0.1)">
       <defs>
        <path d="M 2597 2516 
Q 3050 2419 3304 2112 
Q 3559 1806 3559 1356 
Q 3559 666 3084 287 
Q 2609 -91 1734 -91 
Q 1441 -91 1130 -33 
Q 819 25 488 141 
L 488 750 
Q 750 597 1062 519 
Q 1375 441 1716 441 
Q 2309 441 2620 675 
Q 2931 909 2931 1356 
Q 2931 1769 2642 2001 
Q 2353 2234 1838 2234 
L 1294 2234 
L 1294 2753 
L 1863 2753 
Q 2328 2753 2575 2939 
Q 2822 3125 2822 3475 
Q 2822 3834 2567 4026 
Q 2313 4219 1838 4219 
Q 1578 4219 1281 4162 
Q 984 4106 628 3988 
L 628 4550 
Q 988 4650 1302 4700 
Q 1616 4750 1894 4750 
Q 2613 4750 3031 4423 
Q 3450 4097 3450 3541 
Q 3450 3153 3228 2886 
Q 3006 2619 2597 2516 
z
" id="DejaVuSans-33" transform="scale(0.015625)"/>
       </defs>
       <use xlink:href="#DejaVuSans-33"/>
       <use x="63.623047" xlink:href="#DejaVuSans-30"/>
      </g>
     </g>
    </g>
    <g id="xtick_8">
     <g id="line2d_8">
      <g>
       <use style="stroke:#000000;stroke-width:0.8;" x="385.213151" xlink:href="#md3953d6361" y="303.64"/>
      </g>
     </g>
     <g id="text_8">
      <!-- 35 -->
      <g transform="translate(378.850651 318.238437)scale(0.1 -0.1)">
       <use xlink:href="#DejaVuSans-33"/>
       <use x="63.623047" xlink:href="#DejaVuSans-35"/>
      </g>
     </g>
    </g>
    <g id="xtick_9">
     <g id="line2d_9">
      <g>
       <use style="stroke:#000000;stroke-width:0.8;" x="431.822395" xlink:href="#md3953d6361" y="303.64"/>
      </g>
     </g>
     <g id="text_9">
      <!-- 40 -->
      <g transform="translate(425.459895 318.238437)scale(0.1 -0.1)">
       <defs>
        <path d="M 2419 4116 
L 825 1625 
L 2419 1625 
L 2419 4116 
z
M 2253 4666 
L 3047 4666 
L 3047 1625 
L 3713 1625 
L 3713 1100 
L 3047 1100 
L 3047 0 
L 2419 0 
L 2419 1100 
L 313 1100 
L 313 1709 
L 2253 4666 
z
" id="DejaVuSans-34" transform="scale(0.015625)"/>
       </defs>
       <use xlink:href="#DejaVuSans-34"/>
       <use x="63.623047" xlink:href="#DejaVuSans-30"/>
      </g>
     </g>
    </g>
    <g id="text_10">
     <!-- Iteration -->
     <g transform="translate(228.837749 331.916562)scale(0.1 -0.1)">
      <defs>
       <path d="M 628 4666 
L 1259 4666 
L 1259 0 
L 628 0 
L 628 4666 
z
" id="DejaVuSans-49" transform="scale(0.015625)"/>
       <path d="M 1172 4494 
L 1172 3500 
L 2356 3500 
L 2356 3053 
L 1172 3053 
L 1172 1153 
Q 1172 725 1289 603 
Q 1406 481 1766 481 
L 2356 481 
L 2356 0 
L 1766 0 
Q 1100 0 847 248 
Q 594 497 594 1153 
L 594 3053 
L 172 3053 
L 172 3500 
L 594 3500 
L 594 4494 
L 1172 4494 
z
" id="DejaVuSans-74" transform="scale(0.015625)"/>
       <path d="M 3597 1894 
L 3597 1613 
L 953 1613 
Q 991 1019 1311 708 
Q 1631 397 2203 397 
Q 2534 397 2845 478 
Q 3156 559 3463 722 
L 3463 178 
Q 3153 47 2828 -22 
Q 2503 -91 2169 -91 
Q 1331 -91 842 396 
Q 353 884 353 1716 
Q 353 2575 817 3079 
Q 1281 3584 2069 3584 
Q 2775 3584 3186 3129 
Q 3597 2675 3597 1894 
z
M 3022 2063 
Q 3016 2534 2758 2815 
Q 2500 3097 2075 3097 
Q 1594 3097 1305 2825 
Q 1016 2553 972 2059 
L 3022 2063 
z
" id="DejaVuSans-65" transform="scale(0.015625)"/>
       <path d="M 2631 2963 
Q 2534 3019 2420 3045 
Q 2306 3072 2169 3072 
Q 1681 3072 1420 2755 
Q 1159 2438 1159 1844 
L 1159 0 
L 581 0 
L 581 3500 
L 1159 3500 
L 1159 2956 
Q 1341 3275 1631 3429 
Q 1922 3584 2338 3584 
Q 2397 3584 2469 3576 
Q 2541 3569 2628 3553 
L 2631 2963 
z
" id="DejaVuSans-72" transform="scale(0.015625)"/>
       <path d="M 2194 1759 
Q 1497 1759 1228 1600 
Q 959 1441 959 1056 
Q 959 750 1161 570 
Q 1363 391 1709 391 
Q 2188 391 2477 730 
Q 2766 1069 2766 1631 
L 2766 1759 
L 2194 1759 
z
M 3341 1997 
L 3341 0 
L 2766 0 
L 2766 531 
Q 2569 213 2275 61 
Q 1981 -91 1556 -91 
Q 1019 -91 701 211 
Q 384 513 384 1019 
Q 384 1609 779 1909 
Q 1175 2209 1959 2209 
L 2766 2209 
L 2766 2266 
Q 2766 2663 2505 2880 
Q 2244 3097 1772 3097 
Q 1472 3097 1187 3025 
Q 903 2953 641 2809 
L 641 3341 
Q 956 3463 1253 3523 
Q 1550 3584 1831 3584 
Q 2591 3584 2966 3190 
Q 3341 2797 3341 1997 
z
" id="DejaVuSans-61" transform="scale(0.015625)"/>
       <path d="M 603 3500 
L 1178 3500 
L 1178 0 
L 603 0 
L 603 3500 
z
M 603 4863 
L 1178 4863 
L 1178 4134 
L 603 4134 
L 603 4863 
z
" id="DejaVuSans-69" transform="scale(0.015625)"/>
       <path d="M 1959 3097 
Q 1497 3097 1228 2736 
Q 959 2375 959 1747 
Q 959 1119 1226 758 
Q 1494 397 1959 397 
Q 2419 397 2687 759 
Q 2956 1122 2956 1747 
Q 2956 2369 2687 2733 
Q 2419 3097 1959 3097 
z
M 1959 3584 
Q 2709 3584 3137 3096 
Q 3566 2609 3566 1747 
Q 3566 888 3137 398 
Q 2709 -91 1959 -91 
Q 1206 -91 779 398 
Q 353 888 353 1747 
Q 353 2609 779 3096 
Q 1206 3584 1959 3584 
z
" id="DejaVuSans-6f" transform="scale(0.015625)"/>
       <path d="M 3513 2113 
L 3513 0 
L 2938 0 
L 2938 2094 
Q 2938 2591 2744 2837 
Q 2550 3084 2163 3084 
Q 1697 3084 1428 2787 
Q 1159 2491 1159 1978 
L 1159 0 
L 581 0 
L 581 3500 
L 1159 3500 
L 1159 2956 
Q 1366 3272 1645 3428 
Q 1925 3584 2291 3584 
Q 2894 3584 3203 3211 
Q 3513 2838 3513 2113 
z
" id="DejaVuSans-6e" transform="scale(0.015625)"/>
      </defs>
      <use xlink:href="#DejaVuSans-49"/>
      <use x="29.492188" xlink:href="#DejaVuSans-74"/>
      <use x="68.701172" xlink:href="#DejaVuSans-65"/>
      <use x="130.224609" xlink:href="#DejaVuSans-72"/>
      <use x="171.337891" xlink:href="#DejaVuSans-61"/>
      <use x="232.617188" xlink:href="#DejaVuSans-74"/>
      <use x="271.826172" xlink:href="#DejaVuSans-69"/>
      <use x="299.609375" xlink:href="#DejaVuSans-6f"/>
      <use x="360.791016" xlink:href="#DejaVuSans-6e"/>
     </g>
    </g>
   </g>
   <g id="matplotlib.axis_2">
    <g id="ytick_1">
     <g id="line2d_10">
      <defs>
       <path d="M 0 0 
L -3.5 0 
" id="m4e6d4a1922" style="stroke:#000000;stroke-width:0.8;"/>
      </defs>
      <g>
       <use style="stroke:#000000;stroke-width:0.8;" x="50.092685" xlink:href="#m4e6d4a1922" y="120.788728"/>
      </g>
     </g>
     <g id="text_11">
      <!-- $\mathdefault{10^{0}}$ -->
      <g transform="translate(25.492685 124.587947)scale(0.1 -0.1)">
       <use transform="translate(0 0.765625)" xlink:href="#DejaVuSans-31"/>
       <use transform="translate(63.623047 0.765625)" xlink:href="#DejaVuSans-30"/>
       <use transform="translate(128.203125 39.046875)scale(0.7)" xlink:href="#DejaVuSans-30"/>
      </g>
     </g>
    </g>
    <g id="ytick_2">
     <g id="line2d_11">
      <defs>
       <path d="M 0 0 
L -2 0 
" id="m3ed817cf5a" style="stroke:#000000;stroke-width:0.6;"/>
      </defs>
      <g>
       <use style="stroke:#000000;stroke-width:0.6;" x="50.092685" xlink:href="#m3ed817cf5a" y="251.678984"/>
      </g>
     </g>
    </g>
    <g id="ytick_3">
     <g id="line2d_12">
      <g>
       <use style="stroke:#000000;stroke-width:0.6;" x="50.092685" xlink:href="#m3ed817cf5a" y="218.703849"/>
      </g>
     </g>
    </g>
    <g id="ytick_4">
     <g id="line2d_13">
      <g>
       <use style="stroke:#000000;stroke-width:0.6;" x="50.092685" xlink:href="#m3ed817cf5a" y="195.307619"/>
      </g>
     </g>
    </g>
    <g id="ytick_5">
     <g id="line2d_14">
      <g>
       <use style="stroke:#000000;stroke-width:0.6;" x="50.092685" xlink:href="#m3ed817cf5a" y="177.160093"/>
      </g>
     </g>
    </g>
    <g id="ytick_6">
     <g id="line2d_15">
      <g>
       <use style="stroke:#000000;stroke-width:0.6;" x="50.092685" xlink:href="#m3ed817cf5a" y="162.332485"/>
      </g>
     </g>
    </g>
    <g id="ytick_7">
     <g id="line2d_16">
      <g>
       <use style="stroke:#000000;stroke-width:0.6;" x="50.092685" xlink:href="#m3ed817cf5a" y="149.79592"/>
      </g>
     </g>
    </g>
    <g id="ytick_8">
     <g id="line2d_17">
      <g>
       <use style="stroke:#000000;stroke-width:0.6;" x="50.092685" xlink:href="#m3ed817cf5a" y="138.936254"/>
      </g>
     </g>
    </g>
    <g id="ytick_9">
     <g id="line2d_18">
      <g>
       <use style="stroke:#000000;stroke-width:0.6;" x="50.092685" xlink:href="#m3ed817cf5a" y="129.35735"/>
      </g>
     </g>
    </g>
    <g id="ytick_10">
     <g id="line2d_19">
      <g>
       <use style="stroke:#000000;stroke-width:0.6;" x="50.092685" xlink:href="#m3ed817cf5a" y="64.417363"/>
      </g>
     </g>
    </g>
    <g id="ytick_11">
     <g id="line2d_20">
      <g>
       <use style="stroke:#000000;stroke-width:0.6;" x="50.092685" xlink:href="#m3ed817cf5a" y="31.442229"/>
      </g>
     </g>
    </g>
    <g id="text_12">
     <!-- Runtime (s) -->
     <g transform="translate(19.412997 194.238125)rotate(-90)scale(0.1 -0.1)">
      <defs>
       <path d="M 2841 2188 
Q 3044 2119 3236 1894 
Q 3428 1669 3622 1275 
L 4263 0 
L 3584 0 
L 2988 1197 
Q 2756 1666 2539 1819 
Q 2322 1972 1947 1972 
L 1259 1972 
L 1259 0 
L 628 0 
L 628 4666 
L 2053 4666 
Q 2853 4666 3247 4331 
Q 3641 3997 3641 3322 
Q 3641 2881 3436 2590 
Q 3231 2300 2841 2188 
z
M 1259 4147 
L 1259 2491 
L 2053 2491 
Q 2509 2491 2742 2702 
Q 2975 2913 2975 3322 
Q 2975 3731 2742 3939 
Q 2509 4147 2053 4147 
L 1259 4147 
z
" id="DejaVuSans-52" transform="scale(0.015625)"/>
       <path d="M 544 1381 
L 544 3500 
L 1119 3500 
L 1119 1403 
Q 1119 906 1312 657 
Q 1506 409 1894 409 
Q 2359 409 2629 706 
Q 2900 1003 2900 1516 
L 2900 3500 
L 3475 3500 
L 3475 0 
L 2900 0 
L 2900 538 
Q 2691 219 2414 64 
Q 2138 -91 1772 -91 
Q 1169 -91 856 284 
Q 544 659 544 1381 
z
M 1991 3584 
L 1991 3584 
z
" id="DejaVuSans-75" transform="scale(0.015625)"/>
       <path d="M 3328 2828 
Q 3544 3216 3844 3400 
Q 4144 3584 4550 3584 
Q 5097 3584 5394 3201 
Q 5691 2819 5691 2113 
L 5691 0 
L 5113 0 
L 5113 2094 
Q 5113 2597 4934 2840 
Q 4756 3084 4391 3084 
Q 3944 3084 3684 2787 
Q 3425 2491 3425 1978 
L 3425 0 
L 2847 0 
L 2847 2094 
Q 2847 2600 2669 2842 
Q 2491 3084 2119 3084 
Q 1678 3084 1418 2786 
Q 1159 2488 1159 1978 
L 1159 0 
L 581 0 
L 581 3500 
L 1159 3500 
L 1159 2956 
Q 1356 3278 1631 3431 
Q 1906 3584 2284 3584 
Q 2666 3584 2933 3390 
Q 3200 3197 3328 2828 
z
" id="DejaVuSans-6d" transform="scale(0.015625)"/>
       <path id="DejaVuSans-20" transform="scale(0.015625)"/>
       <path d="M 1984 4856 
Q 1566 4138 1362 3434 
Q 1159 2731 1159 2009 
Q 1159 1288 1364 580 
Q 1569 -128 1984 -844 
L 1484 -844 
Q 1016 -109 783 600 
Q 550 1309 550 2009 
Q 550 2706 781 3412 
Q 1013 4119 1484 4856 
L 1984 4856 
z
" id="DejaVuSans-28" transform="scale(0.015625)"/>
       <path d="M 2834 3397 
L 2834 2853 
Q 2591 2978 2328 3040 
Q 2066 3103 1784 3103 
Q 1356 3103 1142 2972 
Q 928 2841 928 2578 
Q 928 2378 1081 2264 
Q 1234 2150 1697 2047 
L 1894 2003 
Q 2506 1872 2764 1633 
Q 3022 1394 3022 966 
Q 3022 478 2636 193 
Q 2250 -91 1575 -91 
Q 1294 -91 989 -36 
Q 684 19 347 128 
L 347 722 
Q 666 556 975 473 
Q 1284 391 1588 391 
Q 1994 391 2212 530 
Q 2431 669 2431 922 
Q 2431 1156 2273 1281 
Q 2116 1406 1581 1522 
L 1381 1569 
Q 847 1681 609 1914 
Q 372 2147 372 2553 
Q 372 3047 722 3315 
Q 1072 3584 1716 3584 
Q 2034 3584 2315 3537 
Q 2597 3491 2834 3397 
z
" id="DejaVuSans-73" transform="scale(0.015625)"/>
       <path d="M 513 4856 
L 1013 4856 
Q 1481 4119 1714 3412 
Q 1947 2706 1947 2009 
Q 1947 1309 1714 600 
Q 1481 -109 1013 -844 
L 513 -844 
Q 928 -128 1133 580 
Q 1338 1288 1338 2009 
Q 1338 2731 1133 3434 
Q 928 4138 513 4856 
z
" id="DejaVuSans-29" transform="scale(0.015625)"/>
      </defs>
      <use xlink:href="#DejaVuSans-52"/>
      <use x="64.982422" xlink:href="#DejaVuSans-75"/>
      <use x="128.361328" xlink:href="#DejaVuSans-6e"/>
      <use x="191.740234" xlink:href="#DejaVuSans-74"/>
      <use x="230.949219" xlink:href="#DejaVuSans-69"/>
      <use x="258.732422" xlink:href="#DejaVuSans-6d"/>
      <use x="356.144531" xlink:href="#DejaVuSans-65"/>
      <use x="417.667969" xlink:href="#DejaVuSans-20"/>
      <use x="449.455078" xlink:href="#DejaVuSans-28"/>
      <use x="488.46875" xlink:href="#DejaVuSans-73"/>
      <use x="540.568359" xlink:href="#DejaVuSans-29"/>
     </g>
    </g>
   </g>
   <g id="line2d_21">
    <path clip-path="url(#p8d42415dd0)" d="M 68.27029 159.624488 
L 77.592139 160.709778 
L 86.913988 139.185597 
L 96.235837 158.786598 
L 105.557685 159.658452 
L 114.879534 160.149289 
L 124.201383 139.704751 
L 133.523232 161.055567 
L 142.845081 160.839426 
L 152.16693 160.754965 
L 161.488778 160.901731 
L 170.810627 160.520795 
L 180.132476 159.610985 
L 189.454325 160.877762 
L 198.776174 160.430573 
L 208.098023 159.986488 
L 217.419871 160.853534 
L 226.74172 160.857394 
L 236.063569 160.877229 
L 245.385418 158.594389 
L 254.707267 160.967949 
L 264.029116 160.571581 
L 273.350964 160.810819 
L 282.672813 160.942228 
L 291.994662 160.353414 
L 301.316511 161.035021 
L 310.63836 160.643239 
L 319.960209 160.703799 
L 329.282058 160.709645 
L 338.603906 160.789404 
L 347.925755 160.87217 
L 357.247604 160.509264 
L 366.569453 160.874833 
L 375.891302 160.520265 
L 385.213151 160.855397 
L 394.534999 160.406875 
L 403.856848 160.825853 
L 413.178697 160.767329 
L 422.500546 160.922243 
L 431.822395 160.829845 
" style="fill:none;stroke:#1f77b4;stroke-linecap:square;stroke-width:1.5;"/>
   </g>
   <g id="line2d_22">
    <path clip-path="url(#p8d42415dd0)" d="M 68.27029 148.222123 
L 77.592139 152.367983 
L 86.913988 152.526544 
L 96.235837 152.244925 
L 105.557685 152.224214 
L 114.879534 152.430843 
L 124.201383 152.330099 
L 133.523232 152.248397 
L 142.845081 151.607458 
L 152.16693 152.369302 
L 161.488778 152.155653 
L 170.810627 140.885863 
L 180.132476 152.363786 
L 189.454325 152.207936 
L 198.776174 152.350717 
L 208.098023 151.743714 
L 217.419871 140.529497 
L 226.74172 152.431683 
L 236.063569 141.911582 
L 245.385418 152.017153 
L 254.707267 152.234987 
L 264.029116 152.360429 
L 273.350964 152.423642 
L 282.672813 152.430483 
L 291.994662 152.295947 
L 301.316511 152.439483 
L 310.63836 152.400846 
L 319.960209 141.867307 
L 329.282058 152.476098 
L 338.603906 152.331777 
L 347.925755 152.35959 
L 357.247604 152.401806 
L 366.569453 141.859614 
L 375.891302 152.442484 
L 385.213151 141.902303 
L 394.534999 152.231755 
L 403.856848 151.990412 
L 413.178697 152.145488 
L 422.500546 152.420763 
L 431.822395 152.001633 
" style="fill:none;stroke:#ff7f0e;stroke-linecap:square;stroke-width:1.5;"/>
   </g>
   <g id="line2d_23">
    <path clip-path="url(#p8d42415dd0)" d="M 68.27029 69.308281 
L 77.592139 204.824459 
L 86.913988 46.563892 
L 96.235837 203.391985 
L 105.557685 205.235298 
L 114.879534 205.117769 
L 124.201383 205.012321 
L 133.523232 205.261259 
L 142.845081 204.611951 
L 152.16693 205.032712 
L 161.488778 204.608303 
L 170.810627 204.715511 
L 180.132476 204.896715 
L 189.454325 205.25092 
L 198.776174 204.367262 
L 208.098023 204.554753 
L 217.419871 205.117769 
L 226.74172 205.283322 
L 236.063569 204.051734 
L 245.385418 205.30838 
L 254.707267 205.129239 
L 264.029116 204.992622 
L 273.350964 203.870142 
L 282.672813 205.262868 
L 291.994662 205.356447 
L 301.316511 205.397408 
L 310.63836 204.953925 
L 319.960209 205.107447 
L 329.282058 205.148741 
L 338.603906 204.395676 
L 347.925755 204.757063 
L 357.247604 205.072135 
L 366.569453 205.419047 
L 375.891302 203.761561 
L 385.213151 205.13291 
L 394.534999 205.509349 
L 403.856848 205.287 
L 413.178697 203.996513 
L 422.500546 205.075803 
L 431.822395 205.508196 
" style="fill:none;stroke:#2ca02c;stroke-linecap:square;stroke-width:1.5;"/>
   </g>
   <g id="line2d_24">
    <path clip-path="url(#p8d42415dd0)" d="M 68.27029 162.486337 
L 77.592139 161.675854 
L 86.913988 68.189475 
L 96.235837 162.584173 
L 105.557685 42.838216 
L 114.879534 162.425386 
L 124.201383 162.693698 
L 133.523232 162.867063 
L 142.845081 39.46 
L 152.16693 162.943914 
L 161.488778 162.824915 
L 170.810627 163.204081 
L 180.132476 162.940363 
L 189.454325 162.498968 
L 198.776174 162.840053 
L 208.098023 162.607426 
L 217.419871 162.744497 
L 226.74172 162.650551 
L 236.063569 163.031364 
L 245.385418 162.222768 
L 254.707267 43.522922 
L 264.029116 162.682943 
L 273.350964 162.686619 
L 282.672813 162.797782 
L 291.994662 162.766025 
L 301.316511 162.728968 
L 310.63836 162.658035 
L 319.960209 162.819733 
L 329.282058 162.647966 
L 338.603906 163.01537 
L 347.925755 162.2814 
L 357.247604 162.503994 
L 366.569453 163.145601 
L 375.891302 161.81042 
L 385.213151 163.083196 
L 394.534999 162.788649 
L 403.856848 162.571122 
L 413.178697 162.911554 
L 422.500546 162.34482 
L 431.822395 162.89067 
" style="fill:none;stroke:#d62728;stroke-linecap:square;stroke-width:1.5;"/>
   </g>
   <g id="line2d_25">
    <path clip-path="url(#p8d42415dd0)" d="M 68.27029 156.462359 
L 77.592139 152.996356 
L 86.913988 152.294869 
L 96.235837 152.678674 
L 105.557685 152.472736 
L 114.879534 152.567405 
L 124.201383 152.775752 
L 133.523232 152.351077 
L 142.845081 153.19563 
L 152.16693 152.628494 
L 161.488778 152.902876 
L 170.810627 152.824576 
L 180.132476 152.82542 
L 189.454325 152.681563 
L 198.776174 152.867276 
L 208.098023 152.331298 
L 217.419871 153.056559 
L 226.74172 152.46133 
L 236.063569 152.37254 
L 245.385418 152.338729 
L 254.707267 150.936766 
L 264.029116 152.592653 
L 273.350964 152.798172 
L 282.672813 151.428271 
L 291.994662 152.980285 
L 301.316511 152.442364 
L 310.63836 152.425562 
L 319.960209 153.293814 
L 329.282058 152.904566 
L 338.603906 152.65701 
L 347.925755 152.590127 
L 357.247604 151.000061 
L 366.569453 152.840737 
L 375.891302 151.75383 
L 385.213151 152.904446 
L 394.534999 153.208351 
L 403.856848 152.971587 
L 413.178697 152.59145 
L 422.500546 153.136293 
L 431.822395 151.764423 
" style="fill:none;stroke:#9467bd;stroke-linecap:square;stroke-width:1.5;"/>
   </g>
   <g id="line2d_26">
    <path clip-path="url(#p8d42415dd0)" d="M 68.27029 197.324104 
L 77.592139 196.29788 
L 86.913988 194.560215 
L 96.235837 197.797972 
L 105.557685 196.890081 
L 114.879534 196.015796 
L 124.201383 196.842828 
L 133.523232 194.457739 
L 142.845081 195.815869 
L 152.16693 195.806868 
L 161.488778 197.313058 
L 170.810627 196.786284 
L 180.132476 194.804748 
L 189.454325 194.697725 
L 198.776174 195.719768 
L 208.098023 197.183541 
L 217.419871 197.078122 
L 226.74172 196.923258 
L 236.063569 193.498846 
L 245.385418 196.451764 
L 254.707267 196.625361 
L 264.029116 197.520047 
L 273.350964 196.147368 
L 282.672813 193.887521 
L 291.994662 196.926991 
L 301.316511 197.35579 
L 310.63836 196.020923 
L 319.960209 195.036643 
L 329.282058 193.95488 
L 338.603906 193.963279 
L 347.925755 195.249695 
L 357.247604 194.71932 
L 366.569453 195.968843 
L 375.891302 197.195193 
L 385.213151 194.626522 
L 394.534999 197.06254 
L 403.856848 197.321186 
L 413.178697 194.326459 
L 422.500546 196.581978 
L 431.822395 196.21272 
" style="fill:none;stroke:#8c564b;stroke-linecap:square;stroke-width:1.5;"/>
   </g>
   <g id="line2d_27">
    <path clip-path="url(#p8d42415dd0)" d="M 68.27029 243.799549 
L 77.592139 87.360028 
L 86.913988 290.335328 
L 96.235837 289.227694 
L 105.557685 290.34056 
L 114.879534 291.06 
L 124.201383 289.884608 
L 133.523232 289.988749 
L 142.845081 289.792294 
L 152.16693 290.09172 
L 161.488778 290.820795 
L 170.810627 290.317669 
L 180.132476 290.364767 
L 189.454325 290.030443 
L 198.776174 288.469219 
L 208.098023 290.805005 
L 217.419871 290.48394 
L 226.74172 288.567723 
L 236.063569 290.753049 
L 245.385418 290.434154 
L 254.707267 288.378497 
L 264.029116 290.258182 
L 273.350964 290.58426 
L 282.672813 290.669596 
L 291.994662 289.681915 
L 301.316511 289.90022 
L 310.63836 289.420201 
L 319.960209 290.363458 
L 329.282058 290.313092 
L 338.603906 290.588196 
L 347.925755 290.356915 
L 357.247604 290.035656 
L 366.569453 289.950332 
L 375.891302 290.437429 
L 385.213151 290.370001 
L 394.534999 290.313092 
L 403.856848 289.677373 
L 413.178697 290.028488 
L 422.500546 290.309822 
L 431.822395 289.781249 
" style="fill:none;stroke:#e377c2;stroke-linecap:square;stroke-width:1.5;"/>
   </g>
   <g id="patch_3">
    <path d="M 50.092685 303.64 
L 50.092685 26.88 
" style="fill:none;stroke:#000000;stroke-linecap:square;stroke-linejoin:miter;stroke-width:0.8;"/>
   </g>
   <g id="patch_4">
    <path d="M 450 303.64 
L 450 26.88 
" style="fill:none;stroke:#000000;stroke-linecap:square;stroke-linejoin:miter;stroke-width:0.8;"/>
   </g>
   <g id="patch_5">
    <path d="M 50.092685 303.64 
L 450 303.64 
" style="fill:none;stroke:#000000;stroke-linecap:square;stroke-linejoin:miter;stroke-width:0.8;"/>
   </g>
   <g id="patch_6">
    <path d="M 50.092685 26.88 
L 450 26.88 
" style="fill:none;stroke:#000000;stroke-linecap:square;stroke-linejoin:miter;stroke-width:0.8;"/>
   </g>
   <g id="text_13">
    <!-- Runtime across repetition number (4096 vector size, 16 nodes) -->
    <g transform="translate(59.789155 20.88)scale(0.12 -0.12)">
     <defs>
      <path d="M 3122 3366 
L 3122 2828 
Q 2878 2963 2633 3030 
Q 2388 3097 2138 3097 
Q 1578 3097 1268 2742 
Q 959 2388 959 1747 
Q 959 1106 1268 751 
Q 1578 397 2138 397 
Q 2388 397 2633 464 
Q 2878 531 3122 666 
L 3122 134 
Q 2881 22 2623 -34 
Q 2366 -91 2075 -91 
Q 1284 -91 818 406 
Q 353 903 353 1747 
Q 353 2603 823 3093 
Q 1294 3584 2113 3584 
Q 2378 3584 2631 3529 
Q 2884 3475 3122 3366 
z
" id="DejaVuSans-63" transform="scale(0.015625)"/>
      <path d="M 1159 525 
L 1159 -1331 
L 581 -1331 
L 581 3500 
L 1159 3500 
L 1159 2969 
Q 1341 3281 1617 3432 
Q 1894 3584 2278 3584 
Q 2916 3584 3314 3078 
Q 3713 2572 3713 1747 
Q 3713 922 3314 415 
Q 2916 -91 2278 -91 
Q 1894 -91 1617 61 
Q 1341 213 1159 525 
z
M 3116 1747 
Q 3116 2381 2855 2742 
Q 2594 3103 2138 3103 
Q 1681 3103 1420 2742 
Q 1159 2381 1159 1747 
Q 1159 1113 1420 752 
Q 1681 391 2138 391 
Q 2594 391 2855 752 
Q 3116 1113 3116 1747 
z
" id="DejaVuSans-70" transform="scale(0.015625)"/>
      <path d="M 3116 1747 
Q 3116 2381 2855 2742 
Q 2594 3103 2138 3103 
Q 1681 3103 1420 2742 
Q 1159 2381 1159 1747 
Q 1159 1113 1420 752 
Q 1681 391 2138 391 
Q 2594 391 2855 752 
Q 3116 1113 3116 1747 
z
M 1159 2969 
Q 1341 3281 1617 3432 
Q 1894 3584 2278 3584 
Q 2916 3584 3314 3078 
Q 3713 2572 3713 1747 
Q 3713 922 3314 415 
Q 2916 -91 2278 -91 
Q 1894 -91 1617 61 
Q 1341 213 1159 525 
L 1159 0 
L 581 0 
L 581 4863 
L 1159 4863 
L 1159 2969 
z
" id="DejaVuSans-62" transform="scale(0.015625)"/>
      <path d="M 703 97 
L 703 672 
Q 941 559 1184 500 
Q 1428 441 1663 441 
Q 2288 441 2617 861 
Q 2947 1281 2994 2138 
Q 2813 1869 2534 1725 
Q 2256 1581 1919 1581 
Q 1219 1581 811 2004 
Q 403 2428 403 3163 
Q 403 3881 828 4315 
Q 1253 4750 1959 4750 
Q 2769 4750 3195 4129 
Q 3622 3509 3622 2328 
Q 3622 1225 3098 567 
Q 2575 -91 1691 -91 
Q 1453 -91 1209 -44 
Q 966 3 703 97 
z
M 1959 2075 
Q 2384 2075 2632 2365 
Q 2881 2656 2881 3163 
Q 2881 3666 2632 3958 
Q 2384 4250 1959 4250 
Q 1534 4250 1286 3958 
Q 1038 3666 1038 3163 
Q 1038 2656 1286 2365 
Q 1534 2075 1959 2075 
z
" id="DejaVuSans-39" transform="scale(0.015625)"/>
      <path d="M 2113 2584 
Q 1688 2584 1439 2293 
Q 1191 2003 1191 1497 
Q 1191 994 1439 701 
Q 1688 409 2113 409 
Q 2538 409 2786 701 
Q 3034 994 3034 1497 
Q 3034 2003 2786 2293 
Q 2538 2584 2113 2584 
z
M 3366 4563 
L 3366 3988 
Q 3128 4100 2886 4159 
Q 2644 4219 2406 4219 
Q 1781 4219 1451 3797 
Q 1122 3375 1075 2522 
Q 1259 2794 1537 2939 
Q 1816 3084 2150 3084 
Q 2853 3084 3261 2657 
Q 3669 2231 3669 1497 
Q 3669 778 3244 343 
Q 2819 -91 2113 -91 
Q 1303 -91 875 529 
Q 447 1150 447 2328 
Q 447 3434 972 4092 
Q 1497 4750 2381 4750 
Q 2619 4750 2861 4703 
Q 3103 4656 3366 4563 
z
" id="DejaVuSans-36" transform="scale(0.015625)"/>
      <path d="M 191 3500 
L 800 3500 
L 1894 563 
L 2988 3500 
L 3597 3500 
L 2284 0 
L 1503 0 
L 191 3500 
z
" id="DejaVuSans-76" transform="scale(0.015625)"/>
      <path d="M 353 3500 
L 3084 3500 
L 3084 2975 
L 922 459 
L 3084 459 
L 3084 0 
L 275 0 
L 275 525 
L 2438 3041 
L 353 3041 
L 353 3500 
z
" id="DejaVuSans-7a" transform="scale(0.015625)"/>
      <path d="M 750 794 
L 1409 794 
L 1409 256 
L 897 -744 
L 494 -744 
L 750 256 
L 750 794 
z
" id="DejaVuSans-2c" transform="scale(0.015625)"/>
      <path d="M 2906 2969 
L 2906 4863 
L 3481 4863 
L 3481 0 
L 2906 0 
L 2906 525 
Q 2725 213 2448 61 
Q 2172 -91 1784 -91 
Q 1150 -91 751 415 
Q 353 922 353 1747 
Q 353 2572 751 3078 
Q 1150 3584 1784 3584 
Q 2172 3584 2448 3432 
Q 2725 3281 2906 2969 
z
M 947 1747 
Q 947 1113 1208 752 
Q 1469 391 1925 391 
Q 2381 391 2643 752 
Q 2906 1113 2906 1747 
Q 2906 2381 2643 2742 
Q 2381 3103 1925 3103 
Q 1469 3103 1208 2742 
Q 947 2381 947 1747 
z
" id="DejaVuSans-64" transform="scale(0.015625)"/>
     </defs>
     <use xlink:href="#DejaVuSans-52"/>
     <use x="64.982422" xlink:href="#DejaVuSans-75"/>
     <use x="128.361328" xlink:href="#DejaVuSans-6e"/>
     <use x="191.740234" xlink:href="#DejaVuSans-74"/>
     <use x="230.949219" xlink:href="#DejaVuSans-69"/>
     <use x="258.732422" xlink:href="#DejaVuSans-6d"/>
     <use x="356.144531" xlink:href="#DejaVuSans-65"/>
     <use x="417.667969" xlink:href="#DejaVuSans-20"/>
     <use x="449.455078" xlink:href="#DejaVuSans-61"/>
     <use x="510.734375" xlink:href="#DejaVuSans-63"/>
     <use x="565.714844" xlink:href="#DejaVuSans-72"/>
     <use x="604.578125" xlink:href="#DejaVuSans-6f"/>
     <use x="665.759766" xlink:href="#DejaVuSans-73"/>
     <use x="717.859375" xlink:href="#DejaVuSans-73"/>
     <use x="769.958984" xlink:href="#DejaVuSans-20"/>
     <use x="801.746094" xlink:href="#DejaVuSans-72"/>
     <use x="840.609375" xlink:href="#DejaVuSans-65"/>
     <use x="902.132812" xlink:href="#DejaVuSans-70"/>
     <use x="965.609375" xlink:href="#DejaVuSans-65"/>
     <use x="1027.132812" xlink:href="#DejaVuSans-74"/>
     <use x="1066.341797" xlink:href="#DejaVuSans-69"/>
     <use x="1094.125" xlink:href="#DejaVuSans-74"/>
     <use x="1133.333984" xlink:href="#DejaVuSans-69"/>
     <use x="1161.117188" xlink:href="#DejaVuSans-6f"/>
     <use x="1222.298828" xlink:href="#DejaVuSans-6e"/>
     <use x="1285.677734" xlink:href="#DejaVuSans-20"/>
     <use x="1317.464844" xlink:href="#DejaVuSans-6e"/>
     <use x="1380.84375" xlink:href="#DejaVuSans-75"/>
     <use x="1444.222656" xlink:href="#DejaVuSans-6d"/>
     <use x="1541.634766" xlink:href="#DejaVuSans-62"/>
     <use x="1605.111328" xlink:href="#DejaVuSans-65"/>
     <use x="1666.634766" xlink:href="#DejaVuSans-72"/>
     <use x="1707.748047" xlink:href="#DejaVuSans-20"/>
     <use x="1739.535156" xlink:href="#DejaVuSans-28"/>
     <use x="1778.548828" xlink:href="#DejaVuSans-34"/>
     <use x="1842.171875" xlink:href="#DejaVuSans-30"/>
     <use x="1905.794922" xlink:href="#DejaVuSans-39"/>
     <use x="1969.417969" xlink:href="#DejaVuSans-36"/>
     <use x="2033.041016" xlink:href="#DejaVuSans-20"/>
     <use x="2064.828125" xlink:href="#DejaVuSans-76"/>
     <use x="2124.007812" xlink:href="#DejaVuSans-65"/>
     <use x="2185.53125" xlink:href="#DejaVuSans-63"/>
     <use x="2240.511719" xlink:href="#DejaVuSans-74"/>
     <use x="2279.720703" xlink:href="#DejaVuSans-6f"/>
     <use x="2340.902344" xlink:href="#DejaVuSans-72"/>
     <use x="2382.015625" xlink:href="#DejaVuSans-20"/>
     <use x="2413.802734" xlink:href="#DejaVuSans-73"/>
     <use x="2465.902344" xlink:href="#DejaVuSans-69"/>
     <use x="2493.685547" xlink:href="#DejaVuSans-7a"/>
     <use x="2546.175781" xlink:href="#DejaVuSans-65"/>
     <use x="2607.699219" xlink:href="#DejaVuSans-2c"/>
     <use x="2639.486328" xlink:href="#DejaVuSans-20"/>
     <use x="2671.273438" xlink:href="#DejaVuSans-31"/>
     <use x="2734.896484" xlink:href="#DejaVuSans-36"/>
     <use x="2798.519531" xlink:href="#DejaVuSans-20"/>
     <use x="2830.306641" xlink:href="#DejaVuSans-6e"/>
     <use x="2893.685547" xlink:href="#DejaVuSans-6f"/>
     <use x="2954.867188" xlink:href="#DejaVuSans-64"/>
     <use x="3018.34375" xlink:href="#DejaVuSans-65"/>
     <use x="3079.867188" xlink:href="#DejaVuSans-73"/>
     <use x="3131.966797" xlink:href="#DejaVuSans-29"/>
    </g>
   </g>
   <g id="legend_1">
    <g id="patch_7">
     <path d="M 297.990625 152.305 
L 443 152.305 
Q 445 152.305 445 150.305 
L 445 33.88 
Q 445 31.88 443 31.88 
L 297.990625 31.88 
Q 295.990625 31.88 295.990625 33.88 
L 295.990625 150.305 
Q 295.990625 152.305 297.990625 152.305 
z
" style="fill:#ffffff;opacity:0.8;stroke:#cccccc;stroke-linejoin:miter;"/>
    </g>
    <g id="text_14">
     <!-- implementation -->
     <g transform="translate(330.878906 43.478437)scale(0.1 -0.1)">
      <defs>
       <path d="M 603 4863 
L 1178 4863 
L 1178 0 
L 603 0 
L 603 4863 
z
" id="DejaVuSans-6c" transform="scale(0.015625)"/>
      </defs>
      <use xlink:href="#DejaVuSans-69"/>
      <use x="27.783203" xlink:href="#DejaVuSans-6d"/>
      <use x="125.195312" xlink:href="#DejaVuSans-70"/>
      <use x="188.671875" xlink:href="#DejaVuSans-6c"/>
      <use x="216.455078" xlink:href="#DejaVuSans-65"/>
      <use x="277.978516" xlink:href="#DejaVuSans-6d"/>
      <use x="375.390625" xlink:href="#DejaVuSans-65"/>
      <use x="436.914062" xlink:href="#DejaVuSans-6e"/>
      <use x="500.292969" xlink:href="#DejaVuSans-74"/>
      <use x="539.501953" xlink:href="#DejaVuSans-61"/>
      <use x="600.78125" xlink:href="#DejaVuSans-74"/>
      <use x="639.990234" xlink:href="#DejaVuSans-69"/>
      <use x="667.773438" xlink:href="#DejaVuSans-6f"/>
      <use x="728.955078" xlink:href="#DejaVuSans-6e"/>
     </g>
    </g>
    <g id="line2d_28">
     <path d="M 299.990625 54.656563 
L 319.990625 54.656563 
" style="fill:none;stroke:#1f77b4;stroke-linecap:square;stroke-width:1.5;"/>
    </g>
    <g id="line2d_29"/>
    <g id="text_15">
     <!-- allgather -->
     <g transform="translate(327.990625 58.156563)scale(0.1 -0.1)">
      <defs>
       <path d="M 2906 1791 
Q 2906 2416 2648 2759 
Q 2391 3103 1925 3103 
Q 1463 3103 1205 2759 
Q 947 2416 947 1791 
Q 947 1169 1205 825 
Q 1463 481 1925 481 
Q 2391 481 2648 825 
Q 2906 1169 2906 1791 
z
M 3481 434 
Q 3481 -459 3084 -895 
Q 2688 -1331 1869 -1331 
Q 1566 -1331 1297 -1286 
Q 1028 -1241 775 -1147 
L 775 -588 
Q 1028 -725 1275 -790 
Q 1522 -856 1778 -856 
Q 2344 -856 2625 -561 
Q 2906 -266 2906 331 
L 2906 616 
Q 2728 306 2450 153 
Q 2172 0 1784 0 
Q 1141 0 747 490 
Q 353 981 353 1791 
Q 353 2603 747 3093 
Q 1141 3584 1784 3584 
Q 2172 3584 2450 3431 
Q 2728 3278 2906 2969 
L 2906 3500 
L 3481 3500 
L 3481 434 
z
" id="DejaVuSans-67" transform="scale(0.015625)"/>
       <path d="M 3513 2113 
L 3513 0 
L 2938 0 
L 2938 2094 
Q 2938 2591 2744 2837 
Q 2550 3084 2163 3084 
Q 1697 3084 1428 2787 
Q 1159 2491 1159 1978 
L 1159 0 
L 581 0 
L 581 4863 
L 1159 4863 
L 1159 2956 
Q 1366 3272 1645 3428 
Q 1925 3584 2291 3584 
Q 2894 3584 3203 3211 
Q 3513 2838 3513 2113 
z
" id="DejaVuSans-68" transform="scale(0.015625)"/>
      </defs>
      <use xlink:href="#DejaVuSans-61"/>
      <use x="61.279297" xlink:href="#DejaVuSans-6c"/>
      <use x="89.0625" xlink:href="#DejaVuSans-6c"/>
      <use x="116.845703" xlink:href="#DejaVuSans-67"/>
      <use x="180.322266" xlink:href="#DejaVuSans-61"/>
      <use x="241.601562" xlink:href="#DejaVuSans-74"/>
      <use x="280.810547" xlink:href="#DejaVuSans-68"/>
      <use x="344.189453" xlink:href="#DejaVuSans-65"/>
      <use x="405.712891" xlink:href="#DejaVuSans-72"/>
     </g>
    </g>
    <g id="line2d_30">
     <path d="M 299.990625 69.334688 
L 319.990625 69.334688 
" style="fill:none;stroke:#ff7f0e;stroke-linecap:square;stroke-width:1.5;"/>
    </g>
    <g id="line2d_31"/>
    <g id="text_16">
     <!-- allgather-async -->
     <g transform="translate(327.990625 72.834688)scale(0.1 -0.1)">
      <defs>
       <path d="M 313 2009 
L 1997 2009 
L 1997 1497 
L 313 1497 
L 313 2009 
z
" id="DejaVuSans-2d" transform="scale(0.015625)"/>
       <path d="M 2059 -325 
Q 1816 -950 1584 -1140 
Q 1353 -1331 966 -1331 
L 506 -1331 
L 506 -850 
L 844 -850 
Q 1081 -850 1212 -737 
Q 1344 -625 1503 -206 
L 1606 56 
L 191 3500 
L 800 3500 
L 1894 763 
L 2988 3500 
L 3597 3500 
L 2059 -325 
z
" id="DejaVuSans-79" transform="scale(0.015625)"/>
      </defs>
      <use xlink:href="#DejaVuSans-61"/>
      <use x="61.279297" xlink:href="#DejaVuSans-6c"/>
      <use x="89.0625" xlink:href="#DejaVuSans-6c"/>
      <use x="116.845703" xlink:href="#DejaVuSans-67"/>
      <use x="180.322266" xlink:href="#DejaVuSans-61"/>
      <use x="241.601562" xlink:href="#DejaVuSans-74"/>
      <use x="280.810547" xlink:href="#DejaVuSans-68"/>
      <use x="344.189453" xlink:href="#DejaVuSans-65"/>
      <use x="405.712891" xlink:href="#DejaVuSans-72"/>
      <use x="440.451172" xlink:href="#DejaVuSans-2d"/>
      <use x="476.535156" xlink:href="#DejaVuSans-61"/>
      <use x="537.814453" xlink:href="#DejaVuSans-73"/>
      <use x="589.914062" xlink:href="#DejaVuSans-79"/>
      <use x="649.09375" xlink:href="#DejaVuSans-6e"/>
      <use x="712.472656" xlink:href="#DejaVuSans-63"/>
     </g>
    </g>
    <g id="line2d_32">
     <path d="M 299.990625 84.012812 
L 319.990625 84.012812 
" style="fill:none;stroke:#2ca02c;stroke-linecap:square;stroke-width:1.5;"/>
    </g>
    <g id="line2d_33"/>
    <g id="text_17">
     <!-- allreduce -->
     <g transform="translate(327.990625 87.512812)scale(0.1 -0.1)">
      <use xlink:href="#DejaVuSans-61"/>
      <use x="61.279297" xlink:href="#DejaVuSans-6c"/>
      <use x="89.0625" xlink:href="#DejaVuSans-6c"/>
      <use x="116.845703" xlink:href="#DejaVuSans-72"/>
      <use x="155.708984" xlink:href="#DejaVuSans-65"/>
      <use x="217.232422" xlink:href="#DejaVuSans-64"/>
      <use x="280.708984" xlink:href="#DejaVuSans-75"/>
      <use x="344.087891" xlink:href="#DejaVuSans-63"/>
      <use x="399.068359" xlink:href="#DejaVuSans-65"/>
     </g>
    </g>
    <g id="line2d_34">
     <path d="M 299.990625 98.690938 
L 319.990625 98.690938 
" style="fill:none;stroke:#d62728;stroke-linecap:square;stroke-width:1.5;"/>
    </g>
    <g id="line2d_35"/>
    <g id="text_18">
     <!-- allreduce-butterfly -->
     <g transform="translate(327.990625 102.190938)scale(0.1 -0.1)">
      <defs>
       <path d="M 2375 4863 
L 2375 4384 
L 1825 4384 
Q 1516 4384 1395 4259 
Q 1275 4134 1275 3809 
L 1275 3500 
L 2222 3500 
L 2222 3053 
L 1275 3053 
L 1275 0 
L 697 0 
L 697 3053 
L 147 3053 
L 147 3500 
L 697 3500 
L 697 3744 
Q 697 4328 969 4595 
Q 1241 4863 1831 4863 
L 2375 4863 
z
" id="DejaVuSans-66" transform="scale(0.015625)"/>
      </defs>
      <use xlink:href="#DejaVuSans-61"/>
      <use x="61.279297" xlink:href="#DejaVuSans-6c"/>
      <use x="89.0625" xlink:href="#DejaVuSans-6c"/>
      <use x="116.845703" xlink:href="#DejaVuSans-72"/>
      <use x="155.708984" xlink:href="#DejaVuSans-65"/>
      <use x="217.232422" xlink:href="#DejaVuSans-64"/>
      <use x="280.708984" xlink:href="#DejaVuSans-75"/>
      <use x="344.087891" xlink:href="#DejaVuSans-63"/>
      <use x="399.068359" xlink:href="#DejaVuSans-65"/>
      <use x="460.591797" xlink:href="#DejaVuSans-2d"/>
      <use x="496.675781" xlink:href="#DejaVuSans-62"/>
      <use x="560.152344" xlink:href="#DejaVuSans-75"/>
      <use x="623.53125" xlink:href="#DejaVuSans-74"/>
      <use x="662.740234" xlink:href="#DejaVuSans-74"/>
      <use x="701.949219" xlink:href="#DejaVuSans-65"/>
      <use x="763.472656" xlink:href="#DejaVuSans-72"/>
      <use x="804.585938" xlink:href="#DejaVuSans-66"/>
      <use x="839.791016" xlink:href="#DejaVuSans-6c"/>
      <use x="867.574219" xlink:href="#DejaVuSans-79"/>
     </g>
    </g>
    <g id="line2d_36">
     <path d="M 299.990625 113.369063 
L 319.990625 113.369063 
" style="fill:none;stroke:#9467bd;stroke-linecap:square;stroke-width:1.5;"/>
    </g>
    <g id="line2d_37"/>
    <g id="text_19">
     <!-- allreduce-rabenseifner -->
     <g transform="translate(327.990625 116.869063)scale(0.1 -0.1)">
      <use xlink:href="#DejaVuSans-61"/>
      <use x="61.279297" xlink:href="#DejaVuSans-6c"/>
      <use x="89.0625" xlink:href="#DejaVuSans-6c"/>
      <use x="116.845703" xlink:href="#DejaVuSans-72"/>
      <use x="155.708984" xlink:href="#DejaVuSans-65"/>
      <use x="217.232422" xlink:href="#DejaVuSans-64"/>
      <use x="280.708984" xlink:href="#DejaVuSans-75"/>
      <use x="344.087891" xlink:href="#DejaVuSans-63"/>
      <use x="399.068359" xlink:href="#DejaVuSans-65"/>
      <use x="460.591797" xlink:href="#DejaVuSans-2d"/>
      <use x="496.675781" xlink:href="#DejaVuSans-72"/>
      <use x="537.789062" xlink:href="#DejaVuSans-61"/>
      <use x="599.068359" xlink:href="#DejaVuSans-62"/>
      <use x="662.544922" xlink:href="#DejaVuSans-65"/>
      <use x="724.068359" xlink:href="#DejaVuSans-6e"/>
      <use x="787.447266" xlink:href="#DejaVuSans-73"/>
      <use x="839.546875" xlink:href="#DejaVuSans-65"/>
      <use x="901.070312" xlink:href="#DejaVuSans-69"/>
      <use x="928.853516" xlink:href="#DejaVuSans-66"/>
      <use x="964.058594" xlink:href="#DejaVuSans-6e"/>
      <use x="1027.4375" xlink:href="#DejaVuSans-65"/>
      <use x="1088.960938" xlink:href="#DejaVuSans-72"/>
     </g>
    </g>
    <g id="line2d_38">
     <path d="M 299.990625 128.047188 
L 319.990625 128.047188 
" style="fill:none;stroke:#8c564b;stroke-linecap:square;stroke-width:1.5;"/>
    </g>
    <g id="line2d_39"/>
    <g id="text_20">
     <!-- allreduce-ring -->
     <g transform="translate(327.990625 131.547188)scale(0.1 -0.1)">
      <use xlink:href="#DejaVuSans-61"/>
      <use x="61.279297" xlink:href="#DejaVuSans-6c"/>
      <use x="89.0625" xlink:href="#DejaVuSans-6c"/>
      <use x="116.845703" xlink:href="#DejaVuSans-72"/>
      <use x="155.708984" xlink:href="#DejaVuSans-65"/>
      <use x="217.232422" xlink:href="#DejaVuSans-64"/>
      <use x="280.708984" xlink:href="#DejaVuSans-75"/>
      <use x="344.087891" xlink:href="#DejaVuSans-63"/>
      <use x="399.068359" xlink:href="#DejaVuSans-65"/>
      <use x="460.591797" xlink:href="#DejaVuSans-2d"/>
      <use x="496.675781" xlink:href="#DejaVuSans-72"/>
      <use x="537.789062" xlink:href="#DejaVuSans-69"/>
      <use x="565.572266" xlink:href="#DejaVuSans-6e"/>
      <use x="628.951172" xlink:href="#DejaVuSans-67"/>
     </g>
    </g>
    <g id="line2d_40">
     <path d="M 299.990625 142.725313 
L 319.990625 142.725313 
" style="fill:none;stroke:#e377c2;stroke-linecap:square;stroke-width:1.5;"/>
    </g>
    <g id="line2d_41"/>
    <g id="text_21">
     <!-- rabenseifner-gather -->
     <g transform="translate(327.990625 146.225313)scale(0.1 -0.1)">
      <use xlink:href="#DejaVuSans-72"/>
      <use x="41.113281" xlink:href="#DejaVuSans-61"/>
      <use x="102.392578" xlink:href="#DejaVuSans-62"/>
      <use x="165.869141" xlink:href="#DejaVuSans-65"/>
      <use x="227.392578" xlink:href="#DejaVuSans-6e"/>
      <use x="290.771484" xlink:href="#DejaVuSans-73"/>
      <use x="342.871094" xlink:href="#DejaVuSans-65"/>
      <use x="404.394531" xlink:href="#DejaVuSans-69"/>
      <use x="432.177734" xlink:href="#DejaVuSans-66"/>
      <use x="467.382812" xlink:href="#DejaVuSans-6e"/>
      <use x="530.761719" xlink:href="#DejaVuSans-65"/>
      <use x="592.285156" xlink:href="#DejaVuSans-72"/>
      <use x="627.023438" xlink:href="#DejaVuSans-2d"/>
      <use x="663.107422" xlink:href="#DejaVuSans-67"/>
      <use x="726.583984" xlink:href="#DejaVuSans-61"/>
      <use x="787.863281" xlink:href="#DejaVuSans-74"/>
      <use x="827.072266" xlink:href="#DejaVuSans-68"/>
      <use x="890.451172" xlink:href="#DejaVuSans-65"/>
      <use x="951.974609" xlink:href="#DejaVuSans-72"/>
     </g>
    </g>
   </g>
  </g>
 </g>
 <defs>
  <clipPath id="p8d42415dd0">
   <rect height="276.76" width="399.907315" x="50.092685" y="26.88"/>
  </clipPath>
 </defs>
</svg>
