<?xml version="1.0" encoding="utf-8" standalone="no"?>
<!DOCTYPE svg PUBLIC "-//W3C//DTD SVG 1.1//EN"
  "http://www.w3.org/Graphics/SVG/1.1/DTD/svg11.dtd">
<svg height="345.6pt" version="1.1" viewBox="0 0 460.8 345.6" width="460.8pt" xmlns="http://www.w3.org/2000/svg" xmlns:xlink="http://www.w3.org/1999/xlink">
 <metadata>
  <rdf:RDF xmlns:cc="http://creativecommons.org/ns#" xmlns:dc="http://purl.org/dc/elements/1.1/" xmlns:rdf="http://www.w3.org/1999/02/22-rdf-syntax-ns#">
   <cc:Work>
    <dc:type rdf:resource="http://purl.org/dc/dcmitype/StillImage"/>
    <dc:date>2021-11-17T11:13:20.956404</dc:date>
    <dc:format>image/svg+xml</dc:format>
    <dc:creator>
     <cc:Agent>
      <dc:title>Matplotlib v3.4.3, https://matplotlib.org/</dc:title>
     </cc:Agent>
    </dc:creator>
   </cc:Work>
  </rdf:RDF>
 </metadata>
 <defs>
  <style type="text/css">*{stroke-linecap:butt;stroke-linejoin:round;}</style>
 </defs>
 <g id="figure_1">
  <g id="patch_1">
   <path d="M 0 345.6 
L 460.8 345.6 
L 460.8 0 
L 0 0 
z
" style="fill:#ffffff;"/>
  </g>
  <g id="axes_1">
   <g id="patch_2">
    <path d="M 55.772054 303.64 
L 445.817312 303.64 
L 445.817312 26.88 
L 55.772054 26.88 
z
" style="fill:#ffffff;"/>
   </g>
   <g id="matplotlib.axis_1">
    <g id="xtick_1">
     <g id="line2d_1">
      <defs>
       <path d="M 0 0 
L 0 3.5 
" id="m8dd0b97971" style="stroke:#000000;stroke-width:0.8;"/>
      </defs>
      <g>
       <use style="stroke:#000000;stroke-width:0.8;" x="58.084575" xlink:href="#m8dd0b97971" y="303.64"/>
      </g>
     </g>
     <g id="text_1">
      <!-- 0 -->
      <g transform="translate(54.903325 318.238437)scale(0.1 -0.1)">
       <defs>
        <path d="M 2034 4250 
Q 1547 4250 1301 3770 
Q 1056 3291 1056 2328 
Q 1056 1369 1301 889 
Q 1547 409 2034 409 
Q 2525 409 2770 889 
Q 3016 1369 3016 2328 
Q 3016 3291 2770 3770 
Q 2525 4250 2034 4250 
z
M 2034 4750 
Q 2819 4750 3233 4129 
Q 3647 3509 3647 2328 
Q 3647 1150 3233 529 
Q 2819 -91 2034 -91 
Q 1250 -91 836 529 
Q 422 1150 422 2328 
Q 422 3509 836 4129 
Q 1250 4750 2034 4750 
z
" id="DejaVuSans-30" transform="scale(0.015625)"/>
       </defs>
       <use xlink:href="#DejaVuSans-30"/>
      </g>
     </g>
    </g>
    <g id="xtick_2">
     <g id="line2d_2">
      <g>
       <use style="stroke:#000000;stroke-width:0.8;" x="135.168618" xlink:href="#m8dd0b97971" y="303.64"/>
      </g>
     </g>
     <g id="text_2">
      <!-- 10 -->
      <g transform="translate(128.806118 318.238437)scale(0.1 -0.1)">
       <defs>
        <path d="M 794 531 
L 1825 531 
L 1825 4091 
L 703 3866 
L 703 4441 
L 1819 4666 
L 2450 4666 
L 2450 531 
L 3481 531 
L 3481 0 
L 794 0 
L 794 531 
z
" id="DejaVuSans-31" transform="scale(0.015625)"/>
       </defs>
       <use xlink:href="#DejaVuSans-31"/>
       <use x="63.623047" xlink:href="#DejaVuSans-30"/>
      </g>
     </g>
    </g>
    <g id="xtick_3">
     <g id="line2d_3">
      <g>
       <use style="stroke:#000000;stroke-width:0.8;" x="212.252662" xlink:href="#m8dd0b97971" y="303.64"/>
      </g>
     </g>
     <g id="text_3">
      <!-- 20 -->
      <g transform="translate(205.890162 318.238437)scale(0.1 -0.1)">
       <defs>
        <path d="M 1228 531 
L 3431 531 
L 3431 0 
L 469 0 
L 469 531 
Q 828 903 1448 1529 
Q 2069 2156 2228 2338 
Q 2531 2678 2651 2914 
Q 2772 3150 2772 3378 
Q 2772 3750 2511 3984 
Q 2250 4219 1831 4219 
Q 1534 4219 1204 4116 
Q 875 4013 500 3803 
L 500 4441 
Q 881 4594 1212 4672 
Q 1544 4750 1819 4750 
Q 2544 4750 2975 4387 
Q 3406 4025 3406 3419 
Q 3406 3131 3298 2873 
Q 3191 2616 2906 2266 
Q 2828 2175 2409 1742 
Q 1991 1309 1228 531 
z
" id="DejaVuSans-32" transform="scale(0.015625)"/>
       </defs>
       <use xlink:href="#DejaVuSans-32"/>
       <use x="63.623047" xlink:href="#DejaVuSans-30"/>
      </g>
     </g>
    </g>
    <g id="xtick_4">
     <g id="line2d_4">
      <g>
       <use style="stroke:#000000;stroke-width:0.8;" x="289.336705" xlink:href="#m8dd0b97971" y="303.64"/>
      </g>
     </g>
     <g id="text_4">
      <!-- 30 -->
      <g transform="translate(282.974205 318.238437)scale(0.1 -0.1)">
       <defs>
        <path d="M 2597 2516 
Q 3050 2419 3304 2112 
Q 3559 1806 3559 1356 
Q 3559 666 3084 287 
Q 2609 -91 1734 -91 
Q 1441 -91 1130 -33 
Q 819 25 488 141 
L 488 750 
Q 750 597 1062 519 
Q 1375 441 1716 441 
Q 2309 441 2620 675 
Q 2931 909 2931 1356 
Q 2931 1769 2642 2001 
Q 2353 2234 1838 2234 
L 1294 2234 
L 1294 2753 
L 1863 2753 
Q 2328 2753 2575 2939 
Q 2822 3125 2822 3475 
Q 2822 3834 2567 4026 
Q 2313 4219 1838 4219 
Q 1578 4219 1281 4162 
Q 984 4106 628 3988 
L 628 4550 
Q 988 4650 1302 4700 
Q 1616 4750 1894 4750 
Q 2613 4750 3031 4423 
Q 3450 4097 3450 3541 
Q 3450 3153 3228 2886 
Q 3006 2619 2597 2516 
z
" id="DejaVuSans-33" transform="scale(0.015625)"/>
       </defs>
       <use xlink:href="#DejaVuSans-33"/>
       <use x="63.623047" xlink:href="#DejaVuSans-30"/>
      </g>
     </g>
    </g>
    <g id="xtick_5">
     <g id="line2d_5">
      <g>
       <use style="stroke:#000000;stroke-width:0.8;" x="366.420748" xlink:href="#m8dd0b97971" y="303.64"/>
      </g>
     </g>
     <g id="text_5">
      <!-- 40 -->
      <g transform="translate(360.058248 318.238437)scale(0.1 -0.1)">
       <defs>
        <path d="M 2419 4116 
L 825 1625 
L 2419 1625 
L 2419 4116 
z
M 2253 4666 
L 3047 4666 
L 3047 1625 
L 3713 1625 
L 3713 1100 
L 3047 1100 
L 3047 0 
L 2419 0 
L 2419 1100 
L 313 1100 
L 313 1709 
L 2253 4666 
z
" id="DejaVuSans-34" transform="scale(0.015625)"/>
       </defs>
       <use xlink:href="#DejaVuSans-34"/>
       <use x="63.623047" xlink:href="#DejaVuSans-30"/>
      </g>
     </g>
    </g>
    <g id="xtick_6">
     <g id="line2d_6">
      <g>
       <use style="stroke:#000000;stroke-width:0.8;" x="443.504791" xlink:href="#m8dd0b97971" y="303.64"/>
      </g>
     </g>
     <g id="text_6">
      <!-- 50 -->
      <g transform="translate(437.142291 318.238437)scale(0.1 -0.1)">
       <defs>
        <path d="M 691 4666 
L 3169 4666 
L 3169 4134 
L 1269 4134 
L 1269 2991 
Q 1406 3038 1543 3061 
Q 1681 3084 1819 3084 
Q 2600 3084 3056 2656 
Q 3513 2228 3513 1497 
Q 3513 744 3044 326 
Q 2575 -91 1722 -91 
Q 1428 -91 1123 -41 
Q 819 9 494 109 
L 494 744 
Q 775 591 1075 516 
Q 1375 441 1709 441 
Q 2250 441 2565 725 
Q 2881 1009 2881 1497 
Q 2881 1984 2565 2268 
Q 2250 2553 1709 2553 
Q 1456 2553 1204 2497 
Q 953 2441 691 2322 
L 691 4666 
z
" id="DejaVuSans-35" transform="scale(0.015625)"/>
       </defs>
       <use xlink:href="#DejaVuSans-35"/>
       <use x="63.623047" xlink:href="#DejaVuSans-30"/>
      </g>
     </g>
    </g>
    <g id="text_7">
     <!-- Number of processes -->
     <g transform="translate(197.818121 331.916562)scale(0.1 -0.1)">
      <defs>
       <path d="M 628 4666 
L 1478 4666 
L 3547 763 
L 3547 4666 
L 4159 4666 
L 4159 0 
L 3309 0 
L 1241 3903 
L 1241 0 
L 628 0 
L 628 4666 
z
" id="DejaVuSans-4e" transform="scale(0.015625)"/>
       <path d="M 544 1381 
L 544 3500 
L 1119 3500 
L 1119 1403 
Q 1119 906 1312 657 
Q 1506 409 1894 409 
Q 2359 409 2629 706 
Q 2900 1003 2900 1516 
L 2900 3500 
L 3475 3500 
L 3475 0 
L 2900 0 
L 2900 538 
Q 2691 219 2414 64 
Q 2138 -91 1772 -91 
Q 1169 -91 856 284 
Q 544 659 544 1381 
z
M 1991 3584 
L 1991 3584 
z
" id="DejaVuSans-75" transform="scale(0.015625)"/>
       <path d="M 3328 2828 
Q 3544 3216 3844 3400 
Q 4144 3584 4550 3584 
Q 5097 3584 5394 3201 
Q 5691 2819 5691 2113 
L 5691 0 
L 5113 0 
L 5113 2094 
Q 5113 2597 4934 2840 
Q 4756 3084 4391 3084 
Q 3944 3084 3684 2787 
Q 3425 2491 3425 1978 
L 3425 0 
L 2847 0 
L 2847 2094 
Q 2847 2600 2669 2842 
Q 2491 3084 2119 3084 
Q 1678 3084 1418 2786 
Q 1159 2488 1159 1978 
L 1159 0 
L 581 0 
L 581 3500 
L 1159 3500 
L 1159 2956 
Q 1356 3278 1631 3431 
Q 1906 3584 2284 3584 
Q 2666 3584 2933 3390 
Q 3200 3197 3328 2828 
z
" id="DejaVuSans-6d" transform="scale(0.015625)"/>
       <path d="M 3116 1747 
Q 3116 2381 2855 2742 
Q 2594 3103 2138 3103 
Q 1681 3103 1420 2742 
Q 1159 2381 1159 1747 
Q 1159 1113 1420 752 
Q 1681 391 2138 391 
Q 2594 391 2855 752 
Q 3116 1113 3116 1747 
z
M 1159 2969 
Q 1341 3281 1617 3432 
Q 1894 3584 2278 3584 
Q 2916 3584 3314 3078 
Q 3713 2572 3713 1747 
Q 3713 922 3314 415 
Q 2916 -91 2278 -91 
Q 1894 -91 1617 61 
Q 1341 213 1159 525 
L 1159 0 
L 581 0 
L 581 4863 
L 1159 4863 
L 1159 2969 
z
" id="DejaVuSans-62" transform="scale(0.015625)"/>
       <path d="M 3597 1894 
L 3597 1613 
L 953 1613 
Q 991 1019 1311 708 
Q 1631 397 2203 397 
Q 2534 397 2845 478 
Q 3156 559 3463 722 
L 3463 178 
Q 3153 47 2828 -22 
Q 2503 -91 2169 -91 
Q 1331 -91 842 396 
Q 353 884 353 1716 
Q 353 2575 817 3079 
Q 1281 3584 2069 3584 
Q 2775 3584 3186 3129 
Q 3597 2675 3597 1894 
z
M 3022 2063 
Q 3016 2534 2758 2815 
Q 2500 3097 2075 3097 
Q 1594 3097 1305 2825 
Q 1016 2553 972 2059 
L 3022 2063 
z
" id="DejaVuSans-65" transform="scale(0.015625)"/>
       <path d="M 2631 2963 
Q 2534 3019 2420 3045 
Q 2306 3072 2169 3072 
Q 1681 3072 1420 2755 
Q 1159 2438 1159 1844 
L 1159 0 
L 581 0 
L 581 3500 
L 1159 3500 
L 1159 2956 
Q 1341 3275 1631 3429 
Q 1922 3584 2338 3584 
Q 2397 3584 2469 3576 
Q 2541 3569 2628 3553 
L 2631 2963 
z
" id="DejaVuSans-72" transform="scale(0.015625)"/>
       <path id="DejaVuSans-20" transform="scale(0.015625)"/>
       <path d="M 1959 3097 
Q 1497 3097 1228 2736 
Q 959 2375 959 1747 
Q 959 1119 1226 758 
Q 1494 397 1959 397 
Q 2419 397 2687 759 
Q 2956 1122 2956 1747 
Q 2956 2369 2687 2733 
Q 2419 3097 1959 3097 
z
M 1959 3584 
Q 2709 3584 3137 3096 
Q 3566 2609 3566 1747 
Q 3566 888 3137 398 
Q 2709 -91 1959 -91 
Q 1206 -91 779 398 
Q 353 888 353 1747 
Q 353 2609 779 3096 
Q 1206 3584 1959 3584 
z
" id="DejaVuSans-6f" transform="scale(0.015625)"/>
       <path d="M 2375 4863 
L 2375 4384 
L 1825 4384 
Q 1516 4384 1395 4259 
Q 1275 4134 1275 3809 
L 1275 3500 
L 2222 3500 
L 2222 3053 
L 1275 3053 
L 1275 0 
L 697 0 
L 697 3053 
L 147 3053 
L 147 3500 
L 697 3500 
L 697 3744 
Q 697 4328 969 4595 
Q 1241 4863 1831 4863 
L 2375 4863 
z
" id="DejaVuSans-66" transform="scale(0.015625)"/>
       <path d="M 1159 525 
L 1159 -1331 
L 581 -1331 
L 581 3500 
L 1159 3500 
L 1159 2969 
Q 1341 3281 1617 3432 
Q 1894 3584 2278 3584 
Q 2916 3584 3314 3078 
Q 3713 2572 3713 1747 
Q 3713 922 3314 415 
Q 2916 -91 2278 -91 
Q 1894 -91 1617 61 
Q 1341 213 1159 525 
z
M 3116 1747 
Q 3116 2381 2855 2742 
Q 2594 3103 2138 3103 
Q 1681 3103 1420 2742 
Q 1159 2381 1159 1747 
Q 1159 1113 1420 752 
Q 1681 391 2138 391 
Q 2594 391 2855 752 
Q 3116 1113 3116 1747 
z
" id="DejaVuSans-70" transform="scale(0.015625)"/>
       <path d="M 3122 3366 
L 3122 2828 
Q 2878 2963 2633 3030 
Q 2388 3097 2138 3097 
Q 1578 3097 1268 2742 
Q 959 2388 959 1747 
Q 959 1106 1268 751 
Q 1578 397 2138 397 
Q 2388 397 2633 464 
Q 2878 531 3122 666 
L 3122 134 
Q 2881 22 2623 -34 
Q 2366 -91 2075 -91 
Q 1284 -91 818 406 
Q 353 903 353 1747 
Q 353 2603 823 3093 
Q 1294 3584 2113 3584 
Q 2378 3584 2631 3529 
Q 2884 3475 3122 3366 
z
" id="DejaVuSans-63" transform="scale(0.015625)"/>
       <path d="M 2834 3397 
L 2834 2853 
Q 2591 2978 2328 3040 
Q 2066 3103 1784 3103 
Q 1356 3103 1142 2972 
Q 928 2841 928 2578 
Q 928 2378 1081 2264 
Q 1234 2150 1697 2047 
L 1894 2003 
Q 2506 1872 2764 1633 
Q 3022 1394 3022 966 
Q 3022 478 2636 193 
Q 2250 -91 1575 -91 
Q 1294 -91 989 -36 
Q 684 19 347 128 
L 347 722 
Q 666 556 975 473 
Q 1284 391 1588 391 
Q 1994 391 2212 530 
Q 2431 669 2431 922 
Q 2431 1156 2273 1281 
Q 2116 1406 1581 1522 
L 1381 1569 
Q 847 1681 609 1914 
Q 372 2147 372 2553 
Q 372 3047 722 3315 
Q 1072 3584 1716 3584 
Q 2034 3584 2315 3537 
Q 2597 3491 2834 3397 
z
" id="DejaVuSans-73" transform="scale(0.015625)"/>
      </defs>
      <use xlink:href="#DejaVuSans-4e"/>
      <use x="74.804688" xlink:href="#DejaVuSans-75"/>
      <use x="138.183594" xlink:href="#DejaVuSans-6d"/>
      <use x="235.595703" xlink:href="#DejaVuSans-62"/>
      <use x="299.072266" xlink:href="#DejaVuSans-65"/>
      <use x="360.595703" xlink:href="#DejaVuSans-72"/>
      <use x="401.708984" xlink:href="#DejaVuSans-20"/>
      <use x="433.496094" xlink:href="#DejaVuSans-6f"/>
      <use x="494.677734" xlink:href="#DejaVuSans-66"/>
      <use x="529.882812" xlink:href="#DejaVuSans-20"/>
      <use x="561.669922" xlink:href="#DejaVuSans-70"/>
      <use x="625.146484" xlink:href="#DejaVuSans-72"/>
      <use x="664.009766" xlink:href="#DejaVuSans-6f"/>
      <use x="725.191406" xlink:href="#DejaVuSans-63"/>
      <use x="780.171875" xlink:href="#DejaVuSans-65"/>
      <use x="841.695312" xlink:href="#DejaVuSans-73"/>
      <use x="893.794922" xlink:href="#DejaVuSans-73"/>
      <use x="945.894531" xlink:href="#DejaVuSans-65"/>
      <use x="1007.417969" xlink:href="#DejaVuSans-73"/>
     </g>
    </g>
   </g>
   <g id="matplotlib.axis_2">
    <g id="ytick_1">
     <g id="line2d_7">
      <defs>
       <path d="M 0 0 
L -3.5 0 
" id="md0ac87ed44" style="stroke:#000000;stroke-width:0.8;"/>
      </defs>
      <g>
       <use style="stroke:#000000;stroke-width:0.8;" x="55.772054" xlink:href="#md0ac87ed44" y="266.169661"/>
      </g>
     </g>
     <g id="text_8">
      <!-- $\mathdefault{10^{-1}}$ -->
      <g transform="translate(25.272054 269.96888)scale(0.1 -0.1)">
       <defs>
        <path d="M 678 2272 
L 4684 2272 
L 4684 1741 
L 678 1741 
L 678 2272 
z
" id="DejaVuSans-2212" transform="scale(0.015625)"/>
       </defs>
       <use transform="translate(0 0.684375)" xlink:href="#DejaVuSans-31"/>
       <use transform="translate(63.623047 0.684375)" xlink:href="#DejaVuSans-30"/>
       <use transform="translate(128.203125 38.965625)scale(0.7)" xlink:href="#DejaVuSans-2212"/>
       <use transform="translate(186.855469 38.965625)scale(0.7)" xlink:href="#DejaVuSans-31"/>
      </g>
     </g>
    </g>
    <g id="ytick_2">
     <g id="line2d_8">
      <g>
       <use style="stroke:#000000;stroke-width:0.8;" x="55.772054" xlink:href="#md0ac87ed44" y="131.820772"/>
      </g>
     </g>
     <g id="text_9">
      <!-- $\mathdefault{10^{0}}$ -->
      <g transform="translate(31.172054 135.619991)scale(0.1 -0.1)">
       <use transform="translate(0 0.765625)" xlink:href="#DejaVuSans-31"/>
       <use transform="translate(63.623047 0.765625)" xlink:href="#DejaVuSans-30"/>
       <use transform="translate(128.203125 39.046875)scale(0.7)" xlink:href="#DejaVuSans-30"/>
      </g>
     </g>
    </g>
    <g id="ytick_3">
     <g id="line2d_9">
      <defs>
       <path d="M 0 0 
L -2 0 
" id="md18aa23444" style="stroke:#000000;stroke-width:0.6;"/>
      </defs>
      <g>
       <use style="stroke:#000000;stroke-width:0.6;" x="55.772054" xlink:href="#md18aa23444" y="295.974794"/>
      </g>
     </g>
    </g>
    <g id="ytick_4">
     <g id="line2d_10">
      <g>
       <use style="stroke:#000000;stroke-width:0.6;" x="55.772054" xlink:href="#md18aa23444" y="286.980568"/>
      </g>
     </g>
    </g>
    <g id="ytick_5">
     <g id="line2d_11">
      <g>
       <use style="stroke:#000000;stroke-width:0.6;" x="55.772054" xlink:href="#md18aa23444" y="279.189414"/>
      </g>
     </g>
    </g>
    <g id="ytick_6">
     <g id="line2d_12">
      <g>
       <use style="stroke:#000000;stroke-width:0.6;" x="55.772054" xlink:href="#md18aa23444" y="272.317129"/>
      </g>
     </g>
    </g>
    <g id="ytick_7">
     <g id="line2d_13">
      <g>
       <use style="stroke:#000000;stroke-width:0.6;" x="55.772054" xlink:href="#md18aa23444" y="225.726616"/>
      </g>
     </g>
    </g>
    <g id="ytick_8">
     <g id="line2d_14">
      <g>
       <use style="stroke:#000000;stroke-width:0.6;" x="55.772054" xlink:href="#md18aa23444" y="202.068951"/>
      </g>
     </g>
    </g>
    <g id="ytick_9">
     <g id="line2d_15">
      <g>
       <use style="stroke:#000000;stroke-width:0.6;" x="55.772054" xlink:href="#md18aa23444" y="185.28357"/>
      </g>
     </g>
    </g>
    <g id="ytick_10">
     <g id="line2d_16">
      <g>
       <use style="stroke:#000000;stroke-width:0.6;" x="55.772054" xlink:href="#md18aa23444" y="172.263818"/>
      </g>
     </g>
    </g>
    <g id="ytick_11">
     <g id="line2d_17">
      <g>
       <use style="stroke:#000000;stroke-width:0.6;" x="55.772054" xlink:href="#md18aa23444" y="161.625905"/>
      </g>
     </g>
    </g>
    <g id="ytick_12">
     <g id="line2d_18">
      <g>
       <use style="stroke:#000000;stroke-width:0.6;" x="55.772054" xlink:href="#md18aa23444" y="152.631679"/>
      </g>
     </g>
    </g>
    <g id="ytick_13">
     <g id="line2d_19">
      <g>
       <use style="stroke:#000000;stroke-width:0.6;" x="55.772054" xlink:href="#md18aa23444" y="144.840525"/>
      </g>
     </g>
    </g>
    <g id="ytick_14">
     <g id="line2d_20">
      <g>
       <use style="stroke:#000000;stroke-width:0.6;" x="55.772054" xlink:href="#md18aa23444" y="137.96824"/>
      </g>
     </g>
    </g>
    <g id="ytick_15">
     <g id="line2d_21">
      <g>
       <use style="stroke:#000000;stroke-width:0.6;" x="55.772054" xlink:href="#md18aa23444" y="91.377727"/>
      </g>
     </g>
    </g>
    <g id="ytick_16">
     <g id="line2d_22">
      <g>
       <use style="stroke:#000000;stroke-width:0.6;" x="55.772054" xlink:href="#md18aa23444" y="67.720062"/>
      </g>
     </g>
    </g>
    <g id="ytick_17">
     <g id="line2d_23">
      <g>
       <use style="stroke:#000000;stroke-width:0.6;" x="55.772054" xlink:href="#md18aa23444" y="50.934681"/>
      </g>
     </g>
    </g>
    <g id="ytick_18">
     <g id="line2d_24">
      <g>
       <use style="stroke:#000000;stroke-width:0.6;" x="55.772054" xlink:href="#md18aa23444" y="37.914929"/>
      </g>
     </g>
    </g>
    <g id="ytick_19">
     <g id="line2d_25">
      <g>
       <use style="stroke:#000000;stroke-width:0.6;" x="55.772054" xlink:href="#md18aa23444" y="27.277016"/>
      </g>
     </g>
    </g>
    <g id="text_10">
     <!-- Runtime (s) -->
     <g transform="translate(19.192366 194.238125)rotate(-90)scale(0.1 -0.1)">
      <defs>
       <path d="M 2841 2188 
Q 3044 2119 3236 1894 
Q 3428 1669 3622 1275 
L 4263 0 
L 3584 0 
L 2988 1197 
Q 2756 1666 2539 1819 
Q 2322 1972 1947 1972 
L 1259 1972 
L 1259 0 
L 628 0 
L 628 4666 
L 2053 4666 
Q 2853 4666 3247 4331 
Q 3641 3997 3641 3322 
Q 3641 2881 3436 2590 
Q 3231 2300 2841 2188 
z
M 1259 4147 
L 1259 2491 
L 2053 2491 
Q 2509 2491 2742 2702 
Q 2975 2913 2975 3322 
Q 2975 3731 2742 3939 
Q 2509 4147 2053 4147 
L 1259 4147 
z
" id="DejaVuSans-52" transform="scale(0.015625)"/>
       <path d="M 3513 2113 
L 3513 0 
L 2938 0 
L 2938 2094 
Q 2938 2591 2744 2837 
Q 2550 3084 2163 3084 
Q 1697 3084 1428 2787 
Q 1159 2491 1159 1978 
L 1159 0 
L 581 0 
L 581 3500 
L 1159 3500 
L 1159 2956 
Q 1366 3272 1645 3428 
Q 1925 3584 2291 3584 
Q 2894 3584 3203 3211 
Q 3513 2838 3513 2113 
z
" id="DejaVuSans-6e" transform="scale(0.015625)"/>
       <path d="M 1172 4494 
L 1172 3500 
L 2356 3500 
L 2356 3053 
L 1172 3053 
L 1172 1153 
Q 1172 725 1289 603 
Q 1406 481 1766 481 
L 2356 481 
L 2356 0 
L 1766 0 
Q 1100 0 847 248 
Q 594 497 594 1153 
L 594 3053 
L 172 3053 
L 172 3500 
L 594 3500 
L 594 4494 
L 1172 4494 
z
" id="DejaVuSans-74" transform="scale(0.015625)"/>
       <path d="M 603 3500 
L 1178 3500 
L 1178 0 
L 603 0 
L 603 3500 
z
M 603 4863 
L 1178 4863 
L 1178 4134 
L 603 4134 
L 603 4863 
z
" id="DejaVuSans-69" transform="scale(0.015625)"/>
       <path d="M 1984 4856 
Q 1566 4138 1362 3434 
Q 1159 2731 1159 2009 
Q 1159 1288 1364 580 
Q 1569 -128 1984 -844 
L 1484 -844 
Q 1016 -109 783 600 
Q 550 1309 550 2009 
Q 550 2706 781 3412 
Q 1013 4119 1484 4856 
L 1984 4856 
z
" id="DejaVuSans-28" transform="scale(0.015625)"/>
       <path d="M 513 4856 
L 1013 4856 
Q 1481 4119 1714 3412 
Q 1947 2706 1947 2009 
Q 1947 1309 1714 600 
Q 1481 -109 1013 -844 
L 513 -844 
Q 928 -128 1133 580 
Q 1338 1288 1338 2009 
Q 1338 2731 1133 3434 
Q 928 4138 513 4856 
z
" id="DejaVuSans-29" transform="scale(0.015625)"/>
      </defs>
      <use xlink:href="#DejaVuSans-52"/>
      <use x="64.982422" xlink:href="#DejaVuSans-75"/>
      <use x="128.361328" xlink:href="#DejaVuSans-6e"/>
      <use x="191.740234" xlink:href="#DejaVuSans-74"/>
      <use x="230.949219" xlink:href="#DejaVuSans-69"/>
      <use x="258.732422" xlink:href="#DejaVuSans-6d"/>
      <use x="356.144531" xlink:href="#DejaVuSans-65"/>
      <use x="417.667969" xlink:href="#DejaVuSans-20"/>
      <use x="449.455078" xlink:href="#DejaVuSans-28"/>
      <use x="488.46875" xlink:href="#DejaVuSans-73"/>
      <use x="540.568359" xlink:href="#DejaVuSans-29"/>
     </g>
    </g>
   </g>
   <g id="line2d_26">
    <path clip-path="url(#p65657862ad)" d="M 73.501384 291.06 
L 88.918192 244.366445 
L 104.335001 218.57842 
L 119.75181 201.558322 
L 135.168618 186.117666 
L 150.585427 181.419315 
L 166.002236 168.736165 
L 181.419044 160.477919 
L 196.835853 144.989171 
L 212.252662 144.732828 
L 227.66947 141.554039 
L 243.086279 136.40843 
L 258.503087 130.98536 
L 273.919896 125.523161 
L 289.336705 122.239603 
L 304.753513 110.737404 
L 320.170322 114.617052 
L 335.587131 108.839835 
L 351.003939 101.532664 
L 366.420748 99.079811 
L 381.837556 95.362325 
L 397.254365 97.93067 
L 412.671174 94.47647 
L 428.087982 80.057645 
" style="fill:none;stroke:#1f77b4;stroke-linecap:square;stroke-width:1.5;"/>
    <defs>
     <path d="M 0 3 
C 0.795609 3 1.55874 2.683901 2.12132 2.12132 
C 2.683901 1.55874 3 0.795609 3 0 
C 3 -0.795609 2.683901 -1.55874 2.12132 -2.12132 
C 1.55874 -2.683901 0.795609 -3 0 -3 
C -0.795609 -3 -1.55874 -2.683901 -2.12132 -2.12132 
C -2.683901 -1.55874 -3 -0.795609 -3 0 
C -3 0.795609 -2.683901 1.55874 -2.12132 2.12132 
C -1.55874 2.683901 -0.795609 3 0 3 
z
" id="m9b7586febd" style="stroke:#1f77b4;"/>
    </defs>
    <g clip-path="url(#p65657862ad)">
     <use style="fill:#1f77b4;stroke:#1f77b4;" x="73.501384" xlink:href="#m9b7586febd" y="291.06"/>
     <use style="fill:#1f77b4;stroke:#1f77b4;" x="88.918192" xlink:href="#m9b7586febd" y="244.366445"/>
     <use style="fill:#1f77b4;stroke:#1f77b4;" x="104.335001" xlink:href="#m9b7586febd" y="218.57842"/>
     <use style="fill:#1f77b4;stroke:#1f77b4;" x="119.75181" xlink:href="#m9b7586febd" y="201.558322"/>
     <use style="fill:#1f77b4;stroke:#1f77b4;" x="135.168618" xlink:href="#m9b7586febd" y="186.117666"/>
     <use style="fill:#1f77b4;stroke:#1f77b4;" x="150.585427" xlink:href="#m9b7586febd" y="181.419315"/>
     <use style="fill:#1f77b4;stroke:#1f77b4;" x="166.002236" xlink:href="#m9b7586febd" y="168.736165"/>
     <use style="fill:#1f77b4;stroke:#1f77b4;" x="181.419044" xlink:href="#m9b7586febd" y="160.477919"/>
     <use style="fill:#1f77b4;stroke:#1f77b4;" x="196.835853" xlink:href="#m9b7586febd" y="144.989171"/>
     <use style="fill:#1f77b4;stroke:#1f77b4;" x="212.252662" xlink:href="#m9b7586febd" y="144.732828"/>
     <use style="fill:#1f77b4;stroke:#1f77b4;" x="227.66947" xlink:href="#m9b7586febd" y="141.554039"/>
     <use style="fill:#1f77b4;stroke:#1f77b4;" x="243.086279" xlink:href="#m9b7586febd" y="136.40843"/>
     <use style="fill:#1f77b4;stroke:#1f77b4;" x="258.503087" xlink:href="#m9b7586febd" y="130.98536"/>
     <use style="fill:#1f77b4;stroke:#1f77b4;" x="273.919896" xlink:href="#m9b7586febd" y="125.523161"/>
     <use style="fill:#1f77b4;stroke:#1f77b4;" x="289.336705" xlink:href="#m9b7586febd" y="122.239603"/>
     <use style="fill:#1f77b4;stroke:#1f77b4;" x="304.753513" xlink:href="#m9b7586febd" y="110.737404"/>
     <use style="fill:#1f77b4;stroke:#1f77b4;" x="320.170322" xlink:href="#m9b7586febd" y="114.617052"/>
     <use style="fill:#1f77b4;stroke:#1f77b4;" x="335.587131" xlink:href="#m9b7586febd" y="108.839835"/>
     <use style="fill:#1f77b4;stroke:#1f77b4;" x="351.003939" xlink:href="#m9b7586febd" y="101.532664"/>
     <use style="fill:#1f77b4;stroke:#1f77b4;" x="366.420748" xlink:href="#m9b7586febd" y="99.079811"/>
     <use style="fill:#1f77b4;stroke:#1f77b4;" x="381.837556" xlink:href="#m9b7586febd" y="95.362325"/>
     <use style="fill:#1f77b4;stroke:#1f77b4;" x="397.254365" xlink:href="#m9b7586febd" y="97.93067"/>
     <use style="fill:#1f77b4;stroke:#1f77b4;" x="412.671174" xlink:href="#m9b7586febd" y="94.47647"/>
     <use style="fill:#1f77b4;stroke:#1f77b4;" x="428.087982" xlink:href="#m9b7586febd" y="80.057645"/>
    </g>
   </g>
   <g id="line2d_27">
    <path clip-path="url(#p65657862ad)" d="M 73.501384 282.874967 
L 88.918192 237.649429 
L 104.335001 211.90649 
L 119.75181 194.414977 
L 135.168618 180.536398 
L 150.585427 176.420605 
L 166.002236 161.607237 
L 181.419044 154.408237 
L 196.835853 145.263355 
L 212.252662 140.659415 
L 227.66947 132.590819 
L 243.086279 130.848169 
L 258.503087 125.818424 
L 273.919896 86.874021 
L 289.336705 86.921355 
L 304.753513 112.252203 
L 320.170322 84.03017 
L 335.587131 83.578336 
L 351.003939 79.413022 
L 366.420748 75.207237 
L 381.837556 75.174742 
L 397.254365 73.473122 
L 412.671174 71.976609 
L 428.087982 70.660781 
" style="fill:none;stroke:#ff7f0e;stroke-linecap:square;stroke-width:1.5;"/>
    <defs>
     <path d="M 0 3 
C 0.795609 3 1.55874 2.683901 2.12132 2.12132 
C 2.683901 1.55874 3 0.795609 3 0 
C 3 -0.795609 2.683901 -1.55874 2.12132 -2.12132 
C 1.55874 -2.683901 0.795609 -3 0 -3 
C -0.795609 -3 -1.55874 -2.683901 -2.12132 -2.12132 
C -2.683901 -1.55874 -3 -0.795609 -3 0 
C -3 0.795609 -2.683901 1.55874 -2.12132 2.12132 
C -1.55874 2.683901 -0.795609 3 0 3 
z
" id="m9632b0b09c" style="stroke:#ff7f0e;"/>
    </defs>
    <g clip-path="url(#p65657862ad)">
     <use style="fill:#ff7f0e;stroke:#ff7f0e;" x="73.501384" xlink:href="#m9632b0b09c" y="282.874967"/>
     <use style="fill:#ff7f0e;stroke:#ff7f0e;" x="88.918192" xlink:href="#m9632b0b09c" y="237.649429"/>
     <use style="fill:#ff7f0e;stroke:#ff7f0e;" x="104.335001" xlink:href="#m9632b0b09c" y="211.90649"/>
     <use style="fill:#ff7f0e;stroke:#ff7f0e;" x="119.75181" xlink:href="#m9632b0b09c" y="194.414977"/>
     <use style="fill:#ff7f0e;stroke:#ff7f0e;" x="135.168618" xlink:href="#m9632b0b09c" y="180.536398"/>
     <use style="fill:#ff7f0e;stroke:#ff7f0e;" x="150.585427" xlink:href="#m9632b0b09c" y="176.420605"/>
     <use style="fill:#ff7f0e;stroke:#ff7f0e;" x="166.002236" xlink:href="#m9632b0b09c" y="161.607237"/>
     <use style="fill:#ff7f0e;stroke:#ff7f0e;" x="181.419044" xlink:href="#m9632b0b09c" y="154.408237"/>
     <use style="fill:#ff7f0e;stroke:#ff7f0e;" x="196.835853" xlink:href="#m9632b0b09c" y="145.263355"/>
     <use style="fill:#ff7f0e;stroke:#ff7f0e;" x="212.252662" xlink:href="#m9632b0b09c" y="140.659415"/>
     <use style="fill:#ff7f0e;stroke:#ff7f0e;" x="227.66947" xlink:href="#m9632b0b09c" y="132.590819"/>
     <use style="fill:#ff7f0e;stroke:#ff7f0e;" x="243.086279" xlink:href="#m9632b0b09c" y="130.848169"/>
     <use style="fill:#ff7f0e;stroke:#ff7f0e;" x="258.503087" xlink:href="#m9632b0b09c" y="125.818424"/>
     <use style="fill:#ff7f0e;stroke:#ff7f0e;" x="273.919896" xlink:href="#m9632b0b09c" y="86.874021"/>
     <use style="fill:#ff7f0e;stroke:#ff7f0e;" x="289.336705" xlink:href="#m9632b0b09c" y="86.921355"/>
     <use style="fill:#ff7f0e;stroke:#ff7f0e;" x="304.753513" xlink:href="#m9632b0b09c" y="112.252203"/>
     <use style="fill:#ff7f0e;stroke:#ff7f0e;" x="320.170322" xlink:href="#m9632b0b09c" y="84.03017"/>
     <use style="fill:#ff7f0e;stroke:#ff7f0e;" x="335.587131" xlink:href="#m9632b0b09c" y="83.578336"/>
     <use style="fill:#ff7f0e;stroke:#ff7f0e;" x="351.003939" xlink:href="#m9632b0b09c" y="79.413022"/>
     <use style="fill:#ff7f0e;stroke:#ff7f0e;" x="366.420748" xlink:href="#m9632b0b09c" y="75.207237"/>
     <use style="fill:#ff7f0e;stroke:#ff7f0e;" x="381.837556" xlink:href="#m9632b0b09c" y="75.174742"/>
     <use style="fill:#ff7f0e;stroke:#ff7f0e;" x="397.254365" xlink:href="#m9632b0b09c" y="73.473122"/>
     <use style="fill:#ff7f0e;stroke:#ff7f0e;" x="412.671174" xlink:href="#m9632b0b09c" y="71.976609"/>
     <use style="fill:#ff7f0e;stroke:#ff7f0e;" x="428.087982" xlink:href="#m9632b0b09c" y="70.660781"/>
    </g>
   </g>
   <g id="line2d_28">
    <path clip-path="url(#p65657862ad)" d="M 73.501384 218.450287 
L 88.918192 196.106239 
L 104.335001 197.353566 
L 119.75181 194.691971 
L 135.168618 195.446233 
L 150.585427 194.135556 
L 166.002236 189.816072 
L 181.419044 192.274877 
L 196.835853 188.566223 
L 212.252662 189.154162 
L 227.66947 190.034036 
L 243.086279 189.499268 
L 258.503087 188.62041 
L 273.919896 188.926798 
L 289.336705 189.367394 
L 304.753513 188.06273 
L 320.170322 188.660659 
L 335.587131 188.265479 
L 351.003939 186.609656 
L 366.420748 186.349251 
L 381.837556 187.467231 
L 397.254365 188.025337 
L 412.671174 186.85699 
L 428.087982 187.455042 
" style="fill:none;stroke:#2ca02c;stroke-linecap:square;stroke-width:1.5;"/>
    <defs>
     <path d="M 0 3 
C 0.795609 3 1.55874 2.683901 2.12132 2.12132 
C 2.683901 1.55874 3 0.795609 3 0 
C 3 -0.795609 2.683901 -1.55874 2.12132 -2.12132 
C 1.55874 -2.683901 0.795609 -3 0 -3 
C -0.795609 -3 -1.55874 -2.683901 -2.12132 -2.12132 
C -2.683901 -1.55874 -3 -0.795609 -3 0 
C -3 0.795609 -2.683901 1.55874 -2.12132 2.12132 
C -1.55874 2.683901 -0.795609 3 0 3 
z
" id="m85db8dfbe1" style="stroke:#2ca02c;"/>
    </defs>
    <g clip-path="url(#p65657862ad)">
     <use style="fill:#2ca02c;stroke:#2ca02c;" x="73.501384" xlink:href="#m85db8dfbe1" y="218.450287"/>
     <use style="fill:#2ca02c;stroke:#2ca02c;" x="88.918192" xlink:href="#m85db8dfbe1" y="196.106239"/>
     <use style="fill:#2ca02c;stroke:#2ca02c;" x="104.335001" xlink:href="#m85db8dfbe1" y="197.353566"/>
     <use style="fill:#2ca02c;stroke:#2ca02c;" x="119.75181" xlink:href="#m85db8dfbe1" y="194.691971"/>
     <use style="fill:#2ca02c;stroke:#2ca02c;" x="135.168618" xlink:href="#m85db8dfbe1" y="195.446233"/>
     <use style="fill:#2ca02c;stroke:#2ca02c;" x="150.585427" xlink:href="#m85db8dfbe1" y="194.135556"/>
     <use style="fill:#2ca02c;stroke:#2ca02c;" x="166.002236" xlink:href="#m85db8dfbe1" y="189.816072"/>
     <use style="fill:#2ca02c;stroke:#2ca02c;" x="181.419044" xlink:href="#m85db8dfbe1" y="192.274877"/>
     <use style="fill:#2ca02c;stroke:#2ca02c;" x="196.835853" xlink:href="#m85db8dfbe1" y="188.566223"/>
     <use style="fill:#2ca02c;stroke:#2ca02c;" x="212.252662" xlink:href="#m85db8dfbe1" y="189.154162"/>
     <use style="fill:#2ca02c;stroke:#2ca02c;" x="227.66947" xlink:href="#m85db8dfbe1" y="190.034036"/>
     <use style="fill:#2ca02c;stroke:#2ca02c;" x="243.086279" xlink:href="#m85db8dfbe1" y="189.499268"/>
     <use style="fill:#2ca02c;stroke:#2ca02c;" x="258.503087" xlink:href="#m85db8dfbe1" y="188.62041"/>
     <use style="fill:#2ca02c;stroke:#2ca02c;" x="273.919896" xlink:href="#m85db8dfbe1" y="188.926798"/>
     <use style="fill:#2ca02c;stroke:#2ca02c;" x="289.336705" xlink:href="#m85db8dfbe1" y="189.367394"/>
     <use style="fill:#2ca02c;stroke:#2ca02c;" x="304.753513" xlink:href="#m85db8dfbe1" y="188.06273"/>
     <use style="fill:#2ca02c;stroke:#2ca02c;" x="320.170322" xlink:href="#m85db8dfbe1" y="188.660659"/>
     <use style="fill:#2ca02c;stroke:#2ca02c;" x="335.587131" xlink:href="#m85db8dfbe1" y="188.265479"/>
     <use style="fill:#2ca02c;stroke:#2ca02c;" x="351.003939" xlink:href="#m85db8dfbe1" y="186.609656"/>
     <use style="fill:#2ca02c;stroke:#2ca02c;" x="366.420748" xlink:href="#m85db8dfbe1" y="186.349251"/>
     <use style="fill:#2ca02c;stroke:#2ca02c;" x="381.837556" xlink:href="#m85db8dfbe1" y="187.467231"/>
     <use style="fill:#2ca02c;stroke:#2ca02c;" x="397.254365" xlink:href="#m85db8dfbe1" y="188.025337"/>
     <use style="fill:#2ca02c;stroke:#2ca02c;" x="412.671174" xlink:href="#m85db8dfbe1" y="186.85699"/>
     <use style="fill:#2ca02c;stroke:#2ca02c;" x="428.087982" xlink:href="#m85db8dfbe1" y="187.455042"/>
    </g>
   </g>
   <g id="line2d_29">
    <path clip-path="url(#p65657862ad)" d="M 73.501384 229.999965 
L 88.918192 197.539082 
M 119.75181 177.082985 
M 181.419044 161.878657 
M 304.753513 147.478689 
" style="fill:none;stroke:#d62728;stroke-linecap:square;stroke-width:1.5;"/>
    <defs>
     <path d="M 0 3 
C 0.795609 3 1.55874 2.683901 2.12132 2.12132 
C 2.683901 1.55874 3 0.795609 3 0 
C 3 -0.795609 2.683901 -1.55874 2.12132 -2.12132 
C 1.55874 -2.683901 0.795609 -3 0 -3 
C -0.795609 -3 -1.55874 -2.683901 -2.12132 -2.12132 
C -2.683901 -1.55874 -3 -0.795609 -3 0 
C -3 0.795609 -2.683901 1.55874 -2.12132 2.12132 
C -1.55874 2.683901 -0.795609 3 0 3 
z
" id="m64f84c1871" style="stroke:#d62728;"/>
    </defs>
    <g clip-path="url(#p65657862ad)">
     <use style="fill:#d62728;stroke:#d62728;" x="73.501384" xlink:href="#m64f84c1871" y="229.999965"/>
     <use style="fill:#d62728;stroke:#d62728;" x="88.918192" xlink:href="#m64f84c1871" y="197.539082"/>
     <use style="fill:#d62728;stroke:#d62728;" x="119.75181" xlink:href="#m64f84c1871" y="177.082985"/>
     <use style="fill:#d62728;stroke:#d62728;" x="181.419044" xlink:href="#m64f84c1871" y="161.878657"/>
     <use style="fill:#d62728;stroke:#d62728;" x="304.753513" xlink:href="#m64f84c1871" y="147.478689"/>
    </g>
   </g>
   <g id="line2d_30">
    <path clip-path="url(#p65657862ad)" d="M 73.501384 182.476279 
L 88.918192 163.309748 
M 119.75181 158.134147 
M 181.419044 154.692108 
M 304.753513 39.46 
" style="fill:none;stroke:#9467bd;stroke-linecap:square;stroke-width:1.5;"/>
    <defs>
     <path d="M 0 3 
C 0.795609 3 1.55874 2.683901 2.12132 2.12132 
C 2.683901 1.55874 3 0.795609 3 0 
C 3 -0.795609 2.683901 -1.55874 2.12132 -2.12132 
C 1.55874 -2.683901 0.795609 -3 0 -3 
C -0.795609 -3 -1.55874 -2.683901 -2.12132 -2.12132 
C -2.683901 -1.55874 -3 -0.795609 -3 0 
C -3 0.795609 -2.683901 1.55874 -2.12132 2.12132 
C -1.55874 2.683901 -0.795609 3 0 3 
z
" id="maec53768dd" style="stroke:#9467bd;"/>
    </defs>
    <g clip-path="url(#p65657862ad)">
     <use style="fill:#9467bd;stroke:#9467bd;" x="73.501384" xlink:href="#maec53768dd" y="182.476279"/>
     <use style="fill:#9467bd;stroke:#9467bd;" x="88.918192" xlink:href="#maec53768dd" y="163.309748"/>
     <use style="fill:#9467bd;stroke:#9467bd;" x="119.75181" xlink:href="#maec53768dd" y="158.134147"/>
     <use style="fill:#9467bd;stroke:#9467bd;" x="181.419044" xlink:href="#maec53768dd" y="154.692108"/>
     <use style="fill:#9467bd;stroke:#9467bd;" x="304.753513" xlink:href="#maec53768dd" y="39.46"/>
    </g>
   </g>
   <g id="line2d_31">
    <path clip-path="url(#p65657862ad)" d="M 73.501384 197.634449 
L 88.918192 179.961558 
L 104.335001 194.703799 
L 119.75181 190.437039 
L 135.168618 192.201913 
L 150.585427 188.584048 
L 166.002236 184.966878 
L 181.419044 185.909478 
L 196.835853 186.246615 
L 212.252662 186.735809 
L 227.66947 185.911247 
L 243.086279 186.936767 
L 258.503087 184.874319 
L 273.919896 186.724819 
L 289.336705 185.463703 
L 304.753513 184.455621 
L 320.170322 184.801 
L 335.587131 182.992846 
L 351.003939 182.321135 
L 366.420748 184.388428 
L 381.837556 182.848635 
L 397.254365 184.351738 
L 412.671174 183.690687 
L 428.087982 183.284455 
" style="fill:none;stroke:#8c564b;stroke-linecap:square;stroke-width:1.5;"/>
    <defs>
     <path d="M 0 3 
C 0.795609 3 1.55874 2.683901 2.12132 2.12132 
C 2.683901 1.55874 3 0.795609 3 0 
C 3 -0.795609 2.683901 -1.55874 2.12132 -2.12132 
C 1.55874 -2.683901 0.795609 -3 0 -3 
C -0.795609 -3 -1.55874 -2.683901 -2.12132 -2.12132 
C -2.683901 -1.55874 -3 -0.795609 -3 0 
C -3 0.795609 -2.683901 1.55874 -2.12132 2.12132 
C -1.55874 2.683901 -0.795609 3 0 3 
z
" id="m2d409ccdc9" style="stroke:#8c564b;"/>
    </defs>
    <g clip-path="url(#p65657862ad)">
     <use style="fill:#8c564b;stroke:#8c564b;" x="73.501384" xlink:href="#m2d409ccdc9" y="197.634449"/>
     <use style="fill:#8c564b;stroke:#8c564b;" x="88.918192" xlink:href="#m2d409ccdc9" y="179.961558"/>
     <use style="fill:#8c564b;stroke:#8c564b;" x="104.335001" xlink:href="#m2d409ccdc9" y="194.703799"/>
     <use style="fill:#8c564b;stroke:#8c564b;" x="119.75181" xlink:href="#m2d409ccdc9" y="190.437039"/>
     <use style="fill:#8c564b;stroke:#8c564b;" x="135.168618" xlink:href="#m2d409ccdc9" y="192.201913"/>
     <use style="fill:#8c564b;stroke:#8c564b;" x="150.585427" xlink:href="#m2d409ccdc9" y="188.584048"/>
     <use style="fill:#8c564b;stroke:#8c564b;" x="166.002236" xlink:href="#m2d409ccdc9" y="184.966878"/>
     <use style="fill:#8c564b;stroke:#8c564b;" x="181.419044" xlink:href="#m2d409ccdc9" y="185.909478"/>
     <use style="fill:#8c564b;stroke:#8c564b;" x="196.835853" xlink:href="#m2d409ccdc9" y="186.246615"/>
     <use style="fill:#8c564b;stroke:#8c564b;" x="212.252662" xlink:href="#m2d409ccdc9" y="186.735809"/>
     <use style="fill:#8c564b;stroke:#8c564b;" x="227.66947" xlink:href="#m2d409ccdc9" y="185.911247"/>
     <use style="fill:#8c564b;stroke:#8c564b;" x="243.086279" xlink:href="#m2d409ccdc9" y="186.936767"/>
     <use style="fill:#8c564b;stroke:#8c564b;" x="258.503087" xlink:href="#m2d409ccdc9" y="184.874319"/>
     <use style="fill:#8c564b;stroke:#8c564b;" x="273.919896" xlink:href="#m2d409ccdc9" y="186.724819"/>
     <use style="fill:#8c564b;stroke:#8c564b;" x="289.336705" xlink:href="#m2d409ccdc9" y="185.463703"/>
     <use style="fill:#8c564b;stroke:#8c564b;" x="304.753513" xlink:href="#m2d409ccdc9" y="184.455621"/>
     <use style="fill:#8c564b;stroke:#8c564b;" x="320.170322" xlink:href="#m2d409ccdc9" y="184.801"/>
     <use style="fill:#8c564b;stroke:#8c564b;" x="335.587131" xlink:href="#m2d409ccdc9" y="182.992846"/>
     <use style="fill:#8c564b;stroke:#8c564b;" x="351.003939" xlink:href="#m2d409ccdc9" y="182.321135"/>
     <use style="fill:#8c564b;stroke:#8c564b;" x="366.420748" xlink:href="#m2d409ccdc9" y="184.388428"/>
     <use style="fill:#8c564b;stroke:#8c564b;" x="381.837556" xlink:href="#m2d409ccdc9" y="182.848635"/>
     <use style="fill:#8c564b;stroke:#8c564b;" x="397.254365" xlink:href="#m2d409ccdc9" y="184.351738"/>
     <use style="fill:#8c564b;stroke:#8c564b;" x="412.671174" xlink:href="#m2d409ccdc9" y="183.690687"/>
     <use style="fill:#8c564b;stroke:#8c564b;" x="428.087982" xlink:href="#m2d409ccdc9" y="183.284455"/>
    </g>
   </g>
   <g id="line2d_32">
    <path clip-path="url(#p65657862ad)" d="M 73.501384 279.251806 
L 88.918192 265.366525 
M 119.75181 257.86777 
M 181.419044 253.423379 
M 304.753513 53.893797 
" style="fill:none;stroke:#e377c2;stroke-linecap:square;stroke-width:1.5;"/>
    <defs>
     <path d="M 0 3 
C 0.795609 3 1.55874 2.683901 2.12132 2.12132 
C 2.683901 1.55874 3 0.795609 3 0 
C 3 -0.795609 2.683901 -1.55874 2.12132 -2.12132 
C 1.55874 -2.683901 0.795609 -3 0 -3 
C -0.795609 -3 -1.55874 -2.683901 -2.12132 -2.12132 
C -2.683901 -1.55874 -3 -0.795609 -3 0 
C -3 0.795609 -2.683901 1.55874 -2.12132 2.12132 
C -1.55874 2.683901 -0.795609 3 0 3 
z
" id="m8d35f1c8a2" style="stroke:#e377c2;"/>
    </defs>
    <g clip-path="url(#p65657862ad)">
     <use style="fill:#e377c2;stroke:#e377c2;" x="73.501384" xlink:href="#m8d35f1c8a2" y="279.251806"/>
     <use style="fill:#e377c2;stroke:#e377c2;" x="88.918192" xlink:href="#m8d35f1c8a2" y="265.366525"/>
     <use style="fill:#e377c2;stroke:#e377c2;" x="119.75181" xlink:href="#m8d35f1c8a2" y="257.86777"/>
     <use style="fill:#e377c2;stroke:#e377c2;" x="181.419044" xlink:href="#m8d35f1c8a2" y="253.423379"/>
     <use style="fill:#e377c2;stroke:#e377c2;" x="304.753513" xlink:href="#m8d35f1c8a2" y="53.893797"/>
    </g>
   </g>
   <g id="patch_3">
    <path d="M 55.772054 303.64 
L 55.772054 26.88 
" style="fill:none;stroke:#000000;stroke-linecap:square;stroke-linejoin:miter;stroke-width:0.8;"/>
   </g>
   <g id="patch_4">
    <path d="M 445.817312 303.64 
L 445.817312 26.88 
" style="fill:none;stroke:#000000;stroke-linecap:square;stroke-linejoin:miter;stroke-width:0.8;"/>
   </g>
   <g id="patch_5">
    <path d="M 55.772054 303.64 
L 445.817312 303.64 
" style="fill:none;stroke:#000000;stroke-linecap:square;stroke-linejoin:miter;stroke-width:0.8;"/>
   </g>
   <g id="patch_6">
    <path d="M 55.772054 26.88 
L 445.817312 26.88 
" style="fill:none;stroke:#000000;stroke-linecap:square;stroke-linejoin:miter;stroke-width:0.8;"/>
   </g>
   <g id="text_11">
    <!-- Runtime (4096 vector size) -->
    <g transform="translate(169.397183 20.88)scale(0.12 -0.12)">
     <defs>
      <path d="M 703 97 
L 703 672 
Q 941 559 1184 500 
Q 1428 441 1663 441 
Q 2288 441 2617 861 
Q 2947 1281 2994 2138 
Q 2813 1869 2534 1725 
Q 2256 1581 1919 1581 
Q 1219 1581 811 2004 
Q 403 2428 403 3163 
Q 403 3881 828 4315 
Q 1253 4750 1959 4750 
Q 2769 4750 3195 4129 
Q 3622 3509 3622 2328 
Q 3622 1225 3098 567 
Q 2575 -91 1691 -91 
Q 1453 -91 1209 -44 
Q 966 3 703 97 
z
M 1959 2075 
Q 2384 2075 2632 2365 
Q 2881 2656 2881 3163 
Q 2881 3666 2632 3958 
Q 2384 4250 1959 4250 
Q 1534 4250 1286 3958 
Q 1038 3666 1038 3163 
Q 1038 2656 1286 2365 
Q 1534 2075 1959 2075 
z
" id="DejaVuSans-39" transform="scale(0.015625)"/>
      <path d="M 2113 2584 
Q 1688 2584 1439 2293 
Q 1191 2003 1191 1497 
Q 1191 994 1439 701 
Q 1688 409 2113 409 
Q 2538 409 2786 701 
Q 3034 994 3034 1497 
Q 3034 2003 2786 2293 
Q 2538 2584 2113 2584 
z
M 3366 4563 
L 3366 3988 
Q 3128 4100 2886 4159 
Q 2644 4219 2406 4219 
Q 1781 4219 1451 3797 
Q 1122 3375 1075 2522 
Q 1259 2794 1537 2939 
Q 1816 3084 2150 3084 
Q 2853 3084 3261 2657 
Q 3669 2231 3669 1497 
Q 3669 778 3244 343 
Q 2819 -91 2113 -91 
Q 1303 -91 875 529 
Q 447 1150 447 2328 
Q 447 3434 972 4092 
Q 1497 4750 2381 4750 
Q 2619 4750 2861 4703 
Q 3103 4656 3366 4563 
z
" id="DejaVuSans-36" transform="scale(0.015625)"/>
      <path d="M 191 3500 
L 800 3500 
L 1894 563 
L 2988 3500 
L 3597 3500 
L 2284 0 
L 1503 0 
L 191 3500 
z
" id="DejaVuSans-76" transform="scale(0.015625)"/>
      <path d="M 353 3500 
L 3084 3500 
L 3084 2975 
L 922 459 
L 3084 459 
L 3084 0 
L 275 0 
L 275 525 
L 2438 3041 
L 353 3041 
L 353 3500 
z
" id="DejaVuSans-7a" transform="scale(0.015625)"/>
     </defs>
     <use xlink:href="#DejaVuSans-52"/>
     <use x="64.982422" xlink:href="#DejaVuSans-75"/>
     <use x="128.361328" xlink:href="#DejaVuSans-6e"/>
     <use x="191.740234" xlink:href="#DejaVuSans-74"/>
     <use x="230.949219" xlink:href="#DejaVuSans-69"/>
     <use x="258.732422" xlink:href="#DejaVuSans-6d"/>
     <use x="356.144531" xlink:href="#DejaVuSans-65"/>
     <use x="417.667969" xlink:href="#DejaVuSans-20"/>
     <use x="449.455078" xlink:href="#DejaVuSans-28"/>
     <use x="488.46875" xlink:href="#DejaVuSans-34"/>
     <use x="552.091797" xlink:href="#DejaVuSans-30"/>
     <use x="615.714844" xlink:href="#DejaVuSans-39"/>
     <use x="679.337891" xlink:href="#DejaVuSans-36"/>
     <use x="742.960938" xlink:href="#DejaVuSans-20"/>
     <use x="774.748047" xlink:href="#DejaVuSans-76"/>
     <use x="833.927734" xlink:href="#DejaVuSans-65"/>
     <use x="895.451172" xlink:href="#DejaVuSans-63"/>
     <use x="950.431641" xlink:href="#DejaVuSans-74"/>
     <use x="989.640625" xlink:href="#DejaVuSans-6f"/>
     <use x="1050.822266" xlink:href="#DejaVuSans-72"/>
     <use x="1091.935547" xlink:href="#DejaVuSans-20"/>
     <use x="1123.722656" xlink:href="#DejaVuSans-73"/>
     <use x="1175.822266" xlink:href="#DejaVuSans-69"/>
     <use x="1203.605469" xlink:href="#DejaVuSans-7a"/>
     <use x="1256.095703" xlink:href="#DejaVuSans-65"/>
     <use x="1317.619141" xlink:href="#DejaVuSans-29"/>
    </g>
   </g>
   <g id="legend_1">
    <g id="patch_7">
     <path d="M 62.772054 152.305 
L 207.781429 152.305 
Q 209.781429 152.305 209.781429 150.305 
L 209.781429 33.88 
Q 209.781429 31.88 207.781429 31.88 
L 62.772054 31.88 
Q 60.772054 31.88 60.772054 33.88 
L 60.772054 150.305 
Q 60.772054 152.305 62.772054 152.305 
z
" style="fill:#ffffff;opacity:0.8;stroke:#cccccc;stroke-linejoin:miter;"/>
    </g>
    <g id="text_12">
     <!-- implementation -->
     <g transform="translate(95.660335 43.478437)scale(0.1 -0.1)">
      <defs>
       <path d="M 603 4863 
L 1178 4863 
L 1178 0 
L 603 0 
L 603 4863 
z
" id="DejaVuSans-6c" transform="scale(0.015625)"/>
       <path d="M 2194 1759 
Q 1497 1759 1228 1600 
Q 959 1441 959 1056 
Q 959 750 1161 570 
Q 1363 391 1709 391 
Q 2188 391 2477 730 
Q 2766 1069 2766 1631 
L 2766 1759 
L 2194 1759 
z
M 3341 1997 
L 3341 0 
L 2766 0 
L 2766 531 
Q 2569 213 2275 61 
Q 1981 -91 1556 -91 
Q 1019 -91 701 211 
Q 384 513 384 1019 
Q 384 1609 779 1909 
Q 1175 2209 1959 2209 
L 2766 2209 
L 2766 2266 
Q 2766 2663 2505 2880 
Q 2244 3097 1772 3097 
Q 1472 3097 1187 3025 
Q 903 2953 641 2809 
L 641 3341 
Q 956 3463 1253 3523 
Q 1550 3584 1831 3584 
Q 2591 3584 2966 3190 
Q 3341 2797 3341 1997 
z
" id="DejaVuSans-61" transform="scale(0.015625)"/>
      </defs>
      <use xlink:href="#DejaVuSans-69"/>
      <use x="27.783203" xlink:href="#DejaVuSans-6d"/>
      <use x="125.195312" xlink:href="#DejaVuSans-70"/>
      <use x="188.671875" xlink:href="#DejaVuSans-6c"/>
      <use x="216.455078" xlink:href="#DejaVuSans-65"/>
      <use x="277.978516" xlink:href="#DejaVuSans-6d"/>
      <use x="375.390625" xlink:href="#DejaVuSans-65"/>
      <use x="436.914062" xlink:href="#DejaVuSans-6e"/>
      <use x="500.292969" xlink:href="#DejaVuSans-74"/>
      <use x="539.501953" xlink:href="#DejaVuSans-61"/>
      <use x="600.78125" xlink:href="#DejaVuSans-74"/>
      <use x="639.990234" xlink:href="#DejaVuSans-69"/>
      <use x="667.773438" xlink:href="#DejaVuSans-6f"/>
      <use x="728.955078" xlink:href="#DejaVuSans-6e"/>
     </g>
    </g>
    <g id="line2d_33">
     <path d="M 64.772054 54.656563 
L 84.772054 54.656563 
" style="fill:none;stroke:#1f77b4;stroke-linecap:square;stroke-width:1.5;"/>
    </g>
    <g id="line2d_34">
     <g>
      <use style="fill:#1f77b4;stroke:#1f77b4;" x="74.772054" xlink:href="#m9b7586febd" y="54.656563"/>
     </g>
    </g>
    <g id="text_13">
     <!-- allgather -->
     <g transform="translate(92.772054 58.156563)scale(0.1 -0.1)">
      <defs>
       <path d="M 2906 1791 
Q 2906 2416 2648 2759 
Q 2391 3103 1925 3103 
Q 1463 3103 1205 2759 
Q 947 2416 947 1791 
Q 947 1169 1205 825 
Q 1463 481 1925 481 
Q 2391 481 2648 825 
Q 2906 1169 2906 1791 
z
M 3481 434 
Q 3481 -459 3084 -895 
Q 2688 -1331 1869 -1331 
Q 1566 -1331 1297 -1286 
Q 1028 -1241 775 -1147 
L 775 -588 
Q 1028 -725 1275 -790 
Q 1522 -856 1778 -856 
Q 2344 -856 2625 -561 
Q 2906 -266 2906 331 
L 2906 616 
Q 2728 306 2450 153 
Q 2172 0 1784 0 
Q 1141 0 747 490 
Q 353 981 353 1791 
Q 353 2603 747 3093 
Q 1141 3584 1784 3584 
Q 2172 3584 2450 3431 
Q 2728 3278 2906 2969 
L 2906 3500 
L 3481 3500 
L 3481 434 
z
" id="DejaVuSans-67" transform="scale(0.015625)"/>
       <path d="M 3513 2113 
L 3513 0 
L 2938 0 
L 2938 2094 
Q 2938 2591 2744 2837 
Q 2550 3084 2163 3084 
Q 1697 3084 1428 2787 
Q 1159 2491 1159 1978 
L 1159 0 
L 581 0 
L 581 4863 
L 1159 4863 
L 1159 2956 
Q 1366 3272 1645 3428 
Q 1925 3584 2291 3584 
Q 2894 3584 3203 3211 
Q 3513 2838 3513 2113 
z
" id="DejaVuSans-68" transform="scale(0.015625)"/>
      </defs>
      <use xlink:href="#DejaVuSans-61"/>
      <use x="61.279297" xlink:href="#DejaVuSans-6c"/>
      <use x="89.0625" xlink:href="#DejaVuSans-6c"/>
      <use x="116.845703" xlink:href="#DejaVuSans-67"/>
      <use x="180.322266" xlink:href="#DejaVuSans-61"/>
      <use x="241.601562" xlink:href="#DejaVuSans-74"/>
      <use x="280.810547" xlink:href="#DejaVuSans-68"/>
      <use x="344.189453" xlink:href="#DejaVuSans-65"/>
      <use x="405.712891" xlink:href="#DejaVuSans-72"/>
     </g>
    </g>
    <g id="line2d_35">
     <path d="M 64.772054 69.334688 
L 84.772054 69.334688 
" style="fill:none;stroke:#ff7f0e;stroke-linecap:square;stroke-width:1.5;"/>
    </g>
    <g id="line2d_36">
     <g>
      <use style="fill:#ff7f0e;stroke:#ff7f0e;" x="74.772054" xlink:href="#m9632b0b09c" y="69.334688"/>
     </g>
    </g>
    <g id="text_14">
     <!-- allgather-async -->
     <g transform="translate(92.772054 72.834688)scale(0.1 -0.1)">
      <defs>
       <path d="M 313 2009 
L 1997 2009 
L 1997 1497 
L 313 1497 
L 313 2009 
z
" id="DejaVuSans-2d" transform="scale(0.015625)"/>
       <path d="M 2059 -325 
Q 1816 -950 1584 -1140 
Q 1353 -1331 966 -1331 
L 506 -1331 
L 506 -850 
L 844 -850 
Q 1081 -850 1212 -737 
Q 1344 -625 1503 -206 
L 1606 56 
L 191 3500 
L 800 3500 
L 1894 763 
L 2988 3500 
L 3597 3500 
L 2059 -325 
z
" id="DejaVuSans-79" transform="scale(0.015625)"/>
      </defs>
      <use xlink:href="#DejaVuSans-61"/>
      <use x="61.279297" xlink:href="#DejaVuSans-6c"/>
      <use x="89.0625" xlink:href="#DejaVuSans-6c"/>
      <use x="116.845703" xlink:href="#DejaVuSans-67"/>
      <use x="180.322266" xlink:href="#DejaVuSans-61"/>
      <use x="241.601562" xlink:href="#DejaVuSans-74"/>
      <use x="280.810547" xlink:href="#DejaVuSans-68"/>
      <use x="344.189453" xlink:href="#DejaVuSans-65"/>
      <use x="405.712891" xlink:href="#DejaVuSans-72"/>
      <use x="440.451172" xlink:href="#DejaVuSans-2d"/>
      <use x="476.535156" xlink:href="#DejaVuSans-61"/>
      <use x="537.814453" xlink:href="#DejaVuSans-73"/>
      <use x="589.914062" xlink:href="#DejaVuSans-79"/>
      <use x="649.09375" xlink:href="#DejaVuSans-6e"/>
      <use x="712.472656" xlink:href="#DejaVuSans-63"/>
     </g>
    </g>
    <g id="line2d_37">
     <path d="M 64.772054 84.012812 
L 84.772054 84.012812 
" style="fill:none;stroke:#2ca02c;stroke-linecap:square;stroke-width:1.5;"/>
    </g>
    <g id="line2d_38">
     <g>
      <use style="fill:#2ca02c;stroke:#2ca02c;" x="74.772054" xlink:href="#m85db8dfbe1" y="84.012812"/>
     </g>
    </g>
    <g id="text_15">
     <!-- allreduce -->
     <g transform="translate(92.772054 87.512812)scale(0.1 -0.1)">
      <defs>
       <path d="M 2906 2969 
L 2906 4863 
L 3481 4863 
L 3481 0 
L 2906 0 
L 2906 525 
Q 2725 213 2448 61 
Q 2172 -91 1784 -91 
Q 1150 -91 751 415 
Q 353 922 353 1747 
Q 353 2572 751 3078 
Q 1150 3584 1784 3584 
Q 2172 3584 2448 3432 
Q 2725 3281 2906 2969 
z
M 947 1747 
Q 947 1113 1208 752 
Q 1469 391 1925 391 
Q 2381 391 2643 752 
Q 2906 1113 2906 1747 
Q 2906 2381 2643 2742 
Q 2381 3103 1925 3103 
Q 1469 3103 1208 2742 
Q 947 2381 947 1747 
z
" id="DejaVuSans-64" transform="scale(0.015625)"/>
      </defs>
      <use xlink:href="#DejaVuSans-61"/>
      <use x="61.279297" xlink:href="#DejaVuSans-6c"/>
      <use x="89.0625" xlink:href="#DejaVuSans-6c"/>
      <use x="116.845703" xlink:href="#DejaVuSans-72"/>
      <use x="155.708984" xlink:href="#DejaVuSans-65"/>
      <use x="217.232422" xlink:href="#DejaVuSans-64"/>
      <use x="280.708984" xlink:href="#DejaVuSans-75"/>
      <use x="344.087891" xlink:href="#DejaVuSans-63"/>
      <use x="399.068359" xlink:href="#DejaVuSans-65"/>
     </g>
    </g>
    <g id="line2d_39">
     <path d="M 64.772054 98.690938 
L 84.772054 98.690938 
" style="fill:none;stroke:#d62728;stroke-linecap:square;stroke-width:1.5;"/>
    </g>
    <g id="line2d_40">
     <g>
      <use style="fill:#d62728;stroke:#d62728;" x="74.772054" xlink:href="#m64f84c1871" y="98.690938"/>
     </g>
    </g>
    <g id="text_16">
     <!-- allreduce-butterfly -->
     <g transform="translate(92.772054 102.190938)scale(0.1 -0.1)">
      <use xlink:href="#DejaVuSans-61"/>
      <use x="61.279297" xlink:href="#DejaVuSans-6c"/>
      <use x="89.0625" xlink:href="#DejaVuSans-6c"/>
      <use x="116.845703" xlink:href="#DejaVuSans-72"/>
      <use x="155.708984" xlink:href="#DejaVuSans-65"/>
      <use x="217.232422" xlink:href="#DejaVuSans-64"/>
      <use x="280.708984" xlink:href="#DejaVuSans-75"/>
      <use x="344.087891" xlink:href="#DejaVuSans-63"/>
      <use x="399.068359" xlink:href="#DejaVuSans-65"/>
      <use x="460.591797" xlink:href="#DejaVuSans-2d"/>
      <use x="496.675781" xlink:href="#DejaVuSans-62"/>
      <use x="560.152344" xlink:href="#DejaVuSans-75"/>
      <use x="623.53125" xlink:href="#DejaVuSans-74"/>
      <use x="662.740234" xlink:href="#DejaVuSans-74"/>
      <use x="701.949219" xlink:href="#DejaVuSans-65"/>
      <use x="763.472656" xlink:href="#DejaVuSans-72"/>
      <use x="804.585938" xlink:href="#DejaVuSans-66"/>
      <use x="839.791016" xlink:href="#DejaVuSans-6c"/>
      <use x="867.574219" xlink:href="#DejaVuSans-79"/>
     </g>
    </g>
    <g id="line2d_41">
     <path d="M 64.772054 113.369063 
L 84.772054 113.369063 
" style="fill:none;stroke:#9467bd;stroke-linecap:square;stroke-width:1.5;"/>
    </g>
    <g id="line2d_42">
     <g>
      <use style="fill:#9467bd;stroke:#9467bd;" x="74.772054" xlink:href="#maec53768dd" y="113.369063"/>
     </g>
    </g>
    <g id="text_17">
     <!-- allreduce-rabenseifner -->
     <g transform="translate(92.772054 116.869063)scale(0.1 -0.1)">
      <use xlink:href="#DejaVuSans-61"/>
      <use x="61.279297" xlink:href="#DejaVuSans-6c"/>
      <use x="89.0625" xlink:href="#DejaVuSans-6c"/>
      <use x="116.845703" xlink:href="#DejaVuSans-72"/>
      <use x="155.708984" xlink:href="#DejaVuSans-65"/>
      <use x="217.232422" xlink:href="#DejaVuSans-64"/>
      <use x="280.708984" xlink:href="#DejaVuSans-75"/>
      <use x="344.087891" xlink:href="#DejaVuSans-63"/>
      <use x="399.068359" xlink:href="#DejaVuSans-65"/>
      <use x="460.591797" xlink:href="#DejaVuSans-2d"/>
      <use x="496.675781" xlink:href="#DejaVuSans-72"/>
      <use x="537.789062" xlink:href="#DejaVuSans-61"/>
      <use x="599.068359" xlink:href="#DejaVuSans-62"/>
      <use x="662.544922" xlink:href="#DejaVuSans-65"/>
      <use x="724.068359" xlink:href="#DejaVuSans-6e"/>
      <use x="787.447266" xlink:href="#DejaVuSans-73"/>
      <use x="839.546875" xlink:href="#DejaVuSans-65"/>
      <use x="901.070312" xlink:href="#DejaVuSans-69"/>
      <use x="928.853516" xlink:href="#DejaVuSans-66"/>
      <use x="964.058594" xlink:href="#DejaVuSans-6e"/>
      <use x="1027.4375" xlink:href="#DejaVuSans-65"/>
      <use x="1088.960938" xlink:href="#DejaVuSans-72"/>
     </g>
    </g>
    <g id="line2d_43">
     <path d="M 64.772054 128.047188 
L 84.772054 128.047188 
" style="fill:none;stroke:#8c564b;stroke-linecap:square;stroke-width:1.5;"/>
    </g>
    <g id="line2d_44">
     <g>
      <use style="fill:#8c564b;stroke:#8c564b;" x="74.772054" xlink:href="#m2d409ccdc9" y="128.047188"/>
     </g>
    </g>
    <g id="text_18">
     <!-- allreduce-ring -->
     <g transform="translate(92.772054 131.547188)scale(0.1 -0.1)">
      <use xlink:href="#DejaVuSans-61"/>
      <use x="61.279297" xlink:href="#DejaVuSans-6c"/>
      <use x="89.0625" xlink:href="#DejaVuSans-6c"/>
      <use x="116.845703" xlink:href="#DejaVuSans-72"/>
      <use x="155.708984" xlink:href="#DejaVuSans-65"/>
      <use x="217.232422" xlink:href="#DejaVuSans-64"/>
      <use x="280.708984" xlink:href="#DejaVuSans-75"/>
      <use x="344.087891" xlink:href="#DejaVuSans-63"/>
      <use x="399.068359" xlink:href="#DejaVuSans-65"/>
      <use x="460.591797" xlink:href="#DejaVuSans-2d"/>
      <use x="496.675781" xlink:href="#DejaVuSans-72"/>
      <use x="537.789062" xlink:href="#DejaVuSans-69"/>
      <use x="565.572266" xlink:href="#DejaVuSans-6e"/>
      <use x="628.951172" xlink:href="#DejaVuSans-67"/>
     </g>
    </g>
    <g id="line2d_45">
     <path d="M 64.772054 142.725313 
L 84.772054 142.725313 
" style="fill:none;stroke:#e377c2;stroke-linecap:square;stroke-width:1.5;"/>
    </g>
    <g id="line2d_46">
     <g>
      <use style="fill:#e377c2;stroke:#e377c2;" x="74.772054" xlink:href="#m8d35f1c8a2" y="142.725313"/>
     </g>
    </g>
    <g id="text_19">
     <!-- rabenseifner-gather -->
     <g transform="translate(92.772054 146.225313)scale(0.1 -0.1)">
      <use xlink:href="#DejaVuSans-72"/>
      <use x="41.113281" xlink:href="#DejaVuSans-61"/>
      <use x="102.392578" xlink:href="#DejaVuSans-62"/>
      <use x="165.869141" xlink:href="#DejaVuSans-65"/>
      <use x="227.392578" xlink:href="#DejaVuSans-6e"/>
      <use x="290.771484" xlink:href="#DejaVuSans-73"/>
      <use x="342.871094" xlink:href="#DejaVuSans-65"/>
      <use x="404.394531" xlink:href="#DejaVuSans-69"/>
      <use x="432.177734" xlink:href="#DejaVuSans-66"/>
      <use x="467.382812" xlink:href="#DejaVuSans-6e"/>
      <use x="530.761719" xlink:href="#DejaVuSans-65"/>
      <use x="592.285156" xlink:href="#DejaVuSans-72"/>
      <use x="627.023438" xlink:href="#DejaVuSans-2d"/>
      <use x="663.107422" xlink:href="#DejaVuSans-67"/>
      <use x="726.583984" xlink:href="#DejaVuSans-61"/>
      <use x="787.863281" xlink:href="#DejaVuSans-74"/>
      <use x="827.072266" xlink:href="#DejaVuSans-68"/>
      <use x="890.451172" xlink:href="#DejaVuSans-65"/>
      <use x="951.974609" xlink:href="#DejaVuSans-72"/>
     </g>
    </g>
   </g>
  </g>
 </g>
 <defs>
  <clipPath id="p65657862ad">
   <rect height="276.76" width="390.045258" x="55.772054" y="26.88"/>
  </clipPath>
 </defs>
</svg>
