<?xml version="1.0" encoding="utf-8" standalone="no"?>
<!DOCTYPE svg PUBLIC "-//W3C//DTD SVG 1.1//EN"
  "http://www.w3.org/Graphics/SVG/1.1/DTD/svg11.dtd">
<svg height="345.6pt" version="1.1" viewBox="0 0 460.8 345.6" width="460.8pt" xmlns="http://www.w3.org/2000/svg" xmlns:xlink="http://www.w3.org/1999/xlink">
 <metadata>
  <rdf:RDF xmlns:cc="http://creativecommons.org/ns#" xmlns:dc="http://purl.org/dc/elements/1.1/" xmlns:rdf="http://www.w3.org/1999/02/22-rdf-syntax-ns#">
   <cc:Work>
    <dc:type rdf:resource="http://purl.org/dc/dcmitype/StillImage"/>
    <dc:date>2021-11-17T11:13:19.231636</dc:date>
    <dc:format>image/svg+xml</dc:format>
    <dc:creator>
     <cc:Agent>
      <dc:title>Matplotlib v3.4.3, https://matplotlib.org/</dc:title>
     </cc:Agent>
    </dc:creator>
   </cc:Work>
  </rdf:RDF>
 </metadata>
 <defs>
  <style type="text/css">*{stroke-linecap:butt;stroke-linejoin:round;}</style>
 </defs>
 <g id="figure_1">
  <g id="patch_1">
   <path d="M 0 345.6 
L 460.8 345.6 
L 460.8 0 
L 0 0 
z
" style="fill:#ffffff;"/>
  </g>
  <g id="axes_1">
   <g id="patch_2">
    <path d="M 55.997054 303.64 
L 445.817312 303.64 
L 445.817312 26.88 
L 55.997054 26.88 
z
" style="fill:#ffffff;"/>
   </g>
   <g id="matplotlib.axis_1">
    <g id="xtick_1">
     <g id="line2d_1">
      <defs>
       <path d="M 0 0 
L 0 3.5 
" id="me035f8e2ca" style="stroke:#000000;stroke-width:0.8;"/>
      </defs>
      <g>
       <use style="stroke:#000000;stroke-width:0.8;" x="58.308241" xlink:href="#me035f8e2ca" y="303.64"/>
      </g>
     </g>
     <g id="text_1">
      <!-- 0 -->
      <g transform="translate(55.126991 318.238437)scale(0.1 -0.1)">
       <defs>
        <path d="M 2034 4250 
Q 1547 4250 1301 3770 
Q 1056 3291 1056 2328 
Q 1056 1369 1301 889 
Q 1547 409 2034 409 
Q 2525 409 2770 889 
Q 3016 1369 3016 2328 
Q 3016 3291 2770 3770 
Q 2525 4250 2034 4250 
z
M 2034 4750 
Q 2819 4750 3233 4129 
Q 3647 3509 3647 2328 
Q 3647 1150 3233 529 
Q 2819 -91 2034 -91 
Q 1250 -91 836 529 
Q 422 1150 422 2328 
Q 422 3509 836 4129 
Q 1250 4750 2034 4750 
z
" id="DejaVuSans-30" transform="scale(0.015625)"/>
       </defs>
       <use xlink:href="#DejaVuSans-30"/>
      </g>
     </g>
    </g>
    <g id="xtick_2">
     <g id="line2d_2">
      <g>
       <use style="stroke:#000000;stroke-width:0.8;" x="135.347818" xlink:href="#me035f8e2ca" y="303.64"/>
      </g>
     </g>
     <g id="text_2">
      <!-- 10 -->
      <g transform="translate(128.985318 318.238437)scale(0.1 -0.1)">
       <defs>
        <path d="M 794 531 
L 1825 531 
L 1825 4091 
L 703 3866 
L 703 4441 
L 1819 4666 
L 2450 4666 
L 2450 531 
L 3481 531 
L 3481 0 
L 794 0 
L 794 531 
z
" id="DejaVuSans-31" transform="scale(0.015625)"/>
       </defs>
       <use xlink:href="#DejaVuSans-31"/>
       <use x="63.623047" xlink:href="#DejaVuSans-30"/>
      </g>
     </g>
    </g>
    <g id="xtick_3">
     <g id="line2d_3">
      <g>
       <use style="stroke:#000000;stroke-width:0.8;" x="212.387395" xlink:href="#me035f8e2ca" y="303.64"/>
      </g>
     </g>
     <g id="text_3">
      <!-- 20 -->
      <g transform="translate(206.024895 318.238437)scale(0.1 -0.1)">
       <defs>
        <path d="M 1228 531 
L 3431 531 
L 3431 0 
L 469 0 
L 469 531 
Q 828 903 1448 1529 
Q 2069 2156 2228 2338 
Q 2531 2678 2651 2914 
Q 2772 3150 2772 3378 
Q 2772 3750 2511 3984 
Q 2250 4219 1831 4219 
Q 1534 4219 1204 4116 
Q 875 4013 500 3803 
L 500 4441 
Q 881 4594 1212 4672 
Q 1544 4750 1819 4750 
Q 2544 4750 2975 4387 
Q 3406 4025 3406 3419 
Q 3406 3131 3298 2873 
Q 3191 2616 2906 2266 
Q 2828 2175 2409 1742 
Q 1991 1309 1228 531 
z
" id="DejaVuSans-32" transform="scale(0.015625)"/>
       </defs>
       <use xlink:href="#DejaVuSans-32"/>
       <use x="63.623047" xlink:href="#DejaVuSans-30"/>
      </g>
     </g>
    </g>
    <g id="xtick_4">
     <g id="line2d_4">
      <g>
       <use style="stroke:#000000;stroke-width:0.8;" x="289.426971" xlink:href="#me035f8e2ca" y="303.64"/>
      </g>
     </g>
     <g id="text_4">
      <!-- 30 -->
      <g transform="translate(283.064471 318.238437)scale(0.1 -0.1)">
       <defs>
        <path d="M 2597 2516 
Q 3050 2419 3304 2112 
Q 3559 1806 3559 1356 
Q 3559 666 3084 287 
Q 2609 -91 1734 -91 
Q 1441 -91 1130 -33 
Q 819 25 488 141 
L 488 750 
Q 750 597 1062 519 
Q 1375 441 1716 441 
Q 2309 441 2620 675 
Q 2931 909 2931 1356 
Q 2931 1769 2642 2001 
Q 2353 2234 1838 2234 
L 1294 2234 
L 1294 2753 
L 1863 2753 
Q 2328 2753 2575 2939 
Q 2822 3125 2822 3475 
Q 2822 3834 2567 4026 
Q 2313 4219 1838 4219 
Q 1578 4219 1281 4162 
Q 984 4106 628 3988 
L 628 4550 
Q 988 4650 1302 4700 
Q 1616 4750 1894 4750 
Q 2613 4750 3031 4423 
Q 3450 4097 3450 3541 
Q 3450 3153 3228 2886 
Q 3006 2619 2597 2516 
z
" id="DejaVuSans-33" transform="scale(0.015625)"/>
       </defs>
       <use xlink:href="#DejaVuSans-33"/>
       <use x="63.623047" xlink:href="#DejaVuSans-30"/>
      </g>
     </g>
    </g>
    <g id="xtick_5">
     <g id="line2d_5">
      <g>
       <use style="stroke:#000000;stroke-width:0.8;" x="366.466548" xlink:href="#me035f8e2ca" y="303.64"/>
      </g>
     </g>
     <g id="text_5">
      <!-- 40 -->
      <g transform="translate(360.104048 318.238437)scale(0.1 -0.1)">
       <defs>
        <path d="M 2419 4116 
L 825 1625 
L 2419 1625 
L 2419 4116 
z
M 2253 4666 
L 3047 4666 
L 3047 1625 
L 3713 1625 
L 3713 1100 
L 3047 1100 
L 3047 0 
L 2419 0 
L 2419 1100 
L 313 1100 
L 313 1709 
L 2253 4666 
z
" id="DejaVuSans-34" transform="scale(0.015625)"/>
       </defs>
       <use xlink:href="#DejaVuSans-34"/>
       <use x="63.623047" xlink:href="#DejaVuSans-30"/>
      </g>
     </g>
    </g>
    <g id="xtick_6">
     <g id="line2d_6">
      <g>
       <use style="stroke:#000000;stroke-width:0.8;" x="443.506125" xlink:href="#me035f8e2ca" y="303.64"/>
      </g>
     </g>
     <g id="text_6">
      <!-- 50 -->
      <g transform="translate(437.143625 318.238437)scale(0.1 -0.1)">
       <defs>
        <path d="M 691 4666 
L 3169 4666 
L 3169 4134 
L 1269 4134 
L 1269 2991 
Q 1406 3038 1543 3061 
Q 1681 3084 1819 3084 
Q 2600 3084 3056 2656 
Q 3513 2228 3513 1497 
Q 3513 744 3044 326 
Q 2575 -91 1722 -91 
Q 1428 -91 1123 -41 
Q 819 9 494 109 
L 494 744 
Q 775 591 1075 516 
Q 1375 441 1709 441 
Q 2250 441 2565 725 
Q 2881 1009 2881 1497 
Q 2881 1984 2565 2268 
Q 2250 2553 1709 2553 
Q 1456 2553 1204 2497 
Q 953 2441 691 2322 
L 691 4666 
z
" id="DejaVuSans-35" transform="scale(0.015625)"/>
       </defs>
       <use xlink:href="#DejaVuSans-35"/>
       <use x="63.623047" xlink:href="#DejaVuSans-30"/>
      </g>
     </g>
    </g>
    <g id="text_7">
     <!-- Number of processes -->
     <g transform="translate(197.930621 331.916562)scale(0.1 -0.1)">
      <defs>
       <path d="M 628 4666 
L 1478 4666 
L 3547 763 
L 3547 4666 
L 4159 4666 
L 4159 0 
L 3309 0 
L 1241 3903 
L 1241 0 
L 628 0 
L 628 4666 
z
" id="DejaVuSans-4e" transform="scale(0.015625)"/>
       <path d="M 544 1381 
L 544 3500 
L 1119 3500 
L 1119 1403 
Q 1119 906 1312 657 
Q 1506 409 1894 409 
Q 2359 409 2629 706 
Q 2900 1003 2900 1516 
L 2900 3500 
L 3475 3500 
L 3475 0 
L 2900 0 
L 2900 538 
Q 2691 219 2414 64 
Q 2138 -91 1772 -91 
Q 1169 -91 856 284 
Q 544 659 544 1381 
z
M 1991 3584 
L 1991 3584 
z
" id="DejaVuSans-75" transform="scale(0.015625)"/>
       <path d="M 3328 2828 
Q 3544 3216 3844 3400 
Q 4144 3584 4550 3584 
Q 5097 3584 5394 3201 
Q 5691 2819 5691 2113 
L 5691 0 
L 5113 0 
L 5113 2094 
Q 5113 2597 4934 2840 
Q 4756 3084 4391 3084 
Q 3944 3084 3684 2787 
Q 3425 2491 3425 1978 
L 3425 0 
L 2847 0 
L 2847 2094 
Q 2847 2600 2669 2842 
Q 2491 3084 2119 3084 
Q 1678 3084 1418 2786 
Q 1159 2488 1159 1978 
L 1159 0 
L 581 0 
L 581 3500 
L 1159 3500 
L 1159 2956 
Q 1356 3278 1631 3431 
Q 1906 3584 2284 3584 
Q 2666 3584 2933 3390 
Q 3200 3197 3328 2828 
z
" id="DejaVuSans-6d" transform="scale(0.015625)"/>
       <path d="M 3116 1747 
Q 3116 2381 2855 2742 
Q 2594 3103 2138 3103 
Q 1681 3103 1420 2742 
Q 1159 2381 1159 1747 
Q 1159 1113 1420 752 
Q 1681 391 2138 391 
Q 2594 391 2855 752 
Q 3116 1113 3116 1747 
z
M 1159 2969 
Q 1341 3281 1617 3432 
Q 1894 3584 2278 3584 
Q 2916 3584 3314 3078 
Q 3713 2572 3713 1747 
Q 3713 922 3314 415 
Q 2916 -91 2278 -91 
Q 1894 -91 1617 61 
Q 1341 213 1159 525 
L 1159 0 
L 581 0 
L 581 4863 
L 1159 4863 
L 1159 2969 
z
" id="DejaVuSans-62" transform="scale(0.015625)"/>
       <path d="M 3597 1894 
L 3597 1613 
L 953 1613 
Q 991 1019 1311 708 
Q 1631 397 2203 397 
Q 2534 397 2845 478 
Q 3156 559 3463 722 
L 3463 178 
Q 3153 47 2828 -22 
Q 2503 -91 2169 -91 
Q 1331 -91 842 396 
Q 353 884 353 1716 
Q 353 2575 817 3079 
Q 1281 3584 2069 3584 
Q 2775 3584 3186 3129 
Q 3597 2675 3597 1894 
z
M 3022 2063 
Q 3016 2534 2758 2815 
Q 2500 3097 2075 3097 
Q 1594 3097 1305 2825 
Q 1016 2553 972 2059 
L 3022 2063 
z
" id="DejaVuSans-65" transform="scale(0.015625)"/>
       <path d="M 2631 2963 
Q 2534 3019 2420 3045 
Q 2306 3072 2169 3072 
Q 1681 3072 1420 2755 
Q 1159 2438 1159 1844 
L 1159 0 
L 581 0 
L 581 3500 
L 1159 3500 
L 1159 2956 
Q 1341 3275 1631 3429 
Q 1922 3584 2338 3584 
Q 2397 3584 2469 3576 
Q 2541 3569 2628 3553 
L 2631 2963 
z
" id="DejaVuSans-72" transform="scale(0.015625)"/>
       <path id="DejaVuSans-20" transform="scale(0.015625)"/>
       <path d="M 1959 3097 
Q 1497 3097 1228 2736 
Q 959 2375 959 1747 
Q 959 1119 1226 758 
Q 1494 397 1959 397 
Q 2419 397 2687 759 
Q 2956 1122 2956 1747 
Q 2956 2369 2687 2733 
Q 2419 3097 1959 3097 
z
M 1959 3584 
Q 2709 3584 3137 3096 
Q 3566 2609 3566 1747 
Q 3566 888 3137 398 
Q 2709 -91 1959 -91 
Q 1206 -91 779 398 
Q 353 888 353 1747 
Q 353 2609 779 3096 
Q 1206 3584 1959 3584 
z
" id="DejaVuSans-6f" transform="scale(0.015625)"/>
       <path d="M 2375 4863 
L 2375 4384 
L 1825 4384 
Q 1516 4384 1395 4259 
Q 1275 4134 1275 3809 
L 1275 3500 
L 2222 3500 
L 2222 3053 
L 1275 3053 
L 1275 0 
L 697 0 
L 697 3053 
L 147 3053 
L 147 3500 
L 697 3500 
L 697 3744 
Q 697 4328 969 4595 
Q 1241 4863 1831 4863 
L 2375 4863 
z
" id="DejaVuSans-66" transform="scale(0.015625)"/>
       <path d="M 1159 525 
L 1159 -1331 
L 581 -1331 
L 581 3500 
L 1159 3500 
L 1159 2969 
Q 1341 3281 1617 3432 
Q 1894 3584 2278 3584 
Q 2916 3584 3314 3078 
Q 3713 2572 3713 1747 
Q 3713 922 3314 415 
Q 2916 -91 2278 -91 
Q 1894 -91 1617 61 
Q 1341 213 1159 525 
z
M 3116 1747 
Q 3116 2381 2855 2742 
Q 2594 3103 2138 3103 
Q 1681 3103 1420 2742 
Q 1159 2381 1159 1747 
Q 1159 1113 1420 752 
Q 1681 391 2138 391 
Q 2594 391 2855 752 
Q 3116 1113 3116 1747 
z
" id="DejaVuSans-70" transform="scale(0.015625)"/>
       <path d="M 3122 3366 
L 3122 2828 
Q 2878 2963 2633 3030 
Q 2388 3097 2138 3097 
Q 1578 3097 1268 2742 
Q 959 2388 959 1747 
Q 959 1106 1268 751 
Q 1578 397 2138 397 
Q 2388 397 2633 464 
Q 2878 531 3122 666 
L 3122 134 
Q 2881 22 2623 -34 
Q 2366 -91 2075 -91 
Q 1284 -91 818 406 
Q 353 903 353 1747 
Q 353 2603 823 3093 
Q 1294 3584 2113 3584 
Q 2378 3584 2631 3529 
Q 2884 3475 3122 3366 
z
" id="DejaVuSans-63" transform="scale(0.015625)"/>
       <path d="M 2834 3397 
L 2834 2853 
Q 2591 2978 2328 3040 
Q 2066 3103 1784 3103 
Q 1356 3103 1142 2972 
Q 928 2841 928 2578 
Q 928 2378 1081 2264 
Q 1234 2150 1697 2047 
L 1894 2003 
Q 2506 1872 2764 1633 
Q 3022 1394 3022 966 
Q 3022 478 2636 193 
Q 2250 -91 1575 -91 
Q 1294 -91 989 -36 
Q 684 19 347 128 
L 347 722 
Q 666 556 975 473 
Q 1284 391 1588 391 
Q 1994 391 2212 530 
Q 2431 669 2431 922 
Q 2431 1156 2273 1281 
Q 2116 1406 1581 1522 
L 1381 1569 
Q 847 1681 609 1914 
Q 372 2147 372 2553 
Q 372 3047 722 3315 
Q 1072 3584 1716 3584 
Q 2034 3584 2315 3537 
Q 2597 3491 2834 3397 
z
" id="DejaVuSans-73" transform="scale(0.015625)"/>
      </defs>
      <use xlink:href="#DejaVuSans-4e"/>
      <use x="74.804688" xlink:href="#DejaVuSans-75"/>
      <use x="138.183594" xlink:href="#DejaVuSans-6d"/>
      <use x="235.595703" xlink:href="#DejaVuSans-62"/>
      <use x="299.072266" xlink:href="#DejaVuSans-65"/>
      <use x="360.595703" xlink:href="#DejaVuSans-72"/>
      <use x="401.708984" xlink:href="#DejaVuSans-20"/>
      <use x="433.496094" xlink:href="#DejaVuSans-6f"/>
      <use x="494.677734" xlink:href="#DejaVuSans-66"/>
      <use x="529.882812" xlink:href="#DejaVuSans-20"/>
      <use x="561.669922" xlink:href="#DejaVuSans-70"/>
      <use x="625.146484" xlink:href="#DejaVuSans-72"/>
      <use x="664.009766" xlink:href="#DejaVuSans-6f"/>
      <use x="725.191406" xlink:href="#DejaVuSans-63"/>
      <use x="780.171875" xlink:href="#DejaVuSans-65"/>
      <use x="841.695312" xlink:href="#DejaVuSans-73"/>
      <use x="893.794922" xlink:href="#DejaVuSans-73"/>
      <use x="945.894531" xlink:href="#DejaVuSans-65"/>
      <use x="1007.417969" xlink:href="#DejaVuSans-73"/>
     </g>
    </g>
   </g>
   <g id="matplotlib.axis_2">
    <g id="ytick_1">
     <g id="line2d_7">
      <defs>
       <path d="M 0 0 
L -3.5 0 
" id="mc842d8a8a4" style="stroke:#000000;stroke-width:0.8;"/>
      </defs>
      <g>
       <use style="stroke:#000000;stroke-width:0.8;" x="55.997054" xlink:href="#mc842d8a8a4" y="273.058447"/>
      </g>
     </g>
     <g id="text_8">
      <!-- $\mathdefault{10^{-4}}$ -->
      <g transform="translate(25.497054 276.857666)scale(0.1 -0.1)">
       <defs>
        <path d="M 678 2272 
L 4684 2272 
L 4684 1741 
L 678 1741 
L 678 2272 
z
" id="DejaVuSans-2212" transform="scale(0.015625)"/>
       </defs>
       <use transform="translate(0 0.684375)" xlink:href="#DejaVuSans-31"/>
       <use transform="translate(63.623047 0.684375)" xlink:href="#DejaVuSans-30"/>
       <use transform="translate(128.203125 38.965625)scale(0.7)" xlink:href="#DejaVuSans-2212"/>
       <use transform="translate(186.855469 38.965625)scale(0.7)" xlink:href="#DejaVuSans-34"/>
      </g>
     </g>
    </g>
    <g id="ytick_2">
     <g id="line2d_8">
      <g>
       <use style="stroke:#000000;stroke-width:0.8;" x="55.997054" xlink:href="#mc842d8a8a4" y="135.398513"/>
      </g>
     </g>
     <g id="text_9">
      <!-- $\mathdefault{10^{-3}}$ -->
      <g transform="translate(25.497054 139.197732)scale(0.1 -0.1)">
       <use transform="translate(0 0.765625)" xlink:href="#DejaVuSans-31"/>
       <use transform="translate(63.623047 0.765625)" xlink:href="#DejaVuSans-30"/>
       <use transform="translate(128.203125 39.046875)scale(0.7)" xlink:href="#DejaVuSans-2212"/>
       <use transform="translate(186.855469 39.046875)scale(0.7)" xlink:href="#DejaVuSans-33"/>
      </g>
     </g>
    </g>
    <g id="ytick_3">
     <g id="line2d_9">
      <defs>
       <path d="M 0 0 
L -2 0 
" id="ma938623d29" style="stroke:#000000;stroke-width:0.6;"/>
      </defs>
      <g>
       <use style="stroke:#000000;stroke-width:0.6;" x="55.997054" xlink:href="#ma938623d29" y="303.598131"/>
      </g>
     </g>
    </g>
    <g id="ytick_4">
     <g id="line2d_10">
      <g>
       <use style="stroke:#000000;stroke-width:0.6;" x="55.997054" xlink:href="#ma938623d29" y="294.382241"/>
      </g>
     </g>
    </g>
    <g id="ytick_5">
     <g id="line2d_11">
      <g>
       <use style="stroke:#000000;stroke-width:0.6;" x="55.997054" xlink:href="#ma938623d29" y="286.399073"/>
      </g>
     </g>
    </g>
    <g id="ytick_6">
     <g id="line2d_12">
      <g>
       <use style="stroke:#000000;stroke-width:0.6;" x="55.997054" xlink:href="#ma938623d29" y="279.35742"/>
      </g>
     </g>
    </g>
    <g id="ytick_7">
     <g id="line2d_13">
      <g>
       <use style="stroke:#000000;stroke-width:0.6;" x="55.997054" xlink:href="#ma938623d29" y="231.618678"/>
      </g>
     </g>
    </g>
    <g id="ytick_8">
     <g id="line2d_14">
      <g>
       <use style="stroke:#000000;stroke-width:0.6;" x="55.997054" xlink:href="#ma938623d29" y="207.377967"/>
      </g>
     </g>
    </g>
    <g id="ytick_9">
     <g id="line2d_15">
      <g>
       <use style="stroke:#000000;stroke-width:0.6;" x="55.997054" xlink:href="#ma938623d29" y="190.178908"/>
      </g>
     </g>
    </g>
    <g id="ytick_10">
     <g id="line2d_16">
      <g>
       <use style="stroke:#000000;stroke-width:0.6;" x="55.997054" xlink:href="#ma938623d29" y="176.838282"/>
      </g>
     </g>
    </g>
    <g id="ytick_11">
     <g id="line2d_17">
      <g>
       <use style="stroke:#000000;stroke-width:0.6;" x="55.997054" xlink:href="#ma938623d29" y="165.938197"/>
      </g>
     </g>
    </g>
    <g id="ytick_12">
     <g id="line2d_18">
      <g>
       <use style="stroke:#000000;stroke-width:0.6;" x="55.997054" xlink:href="#ma938623d29" y="156.722307"/>
      </g>
     </g>
    </g>
    <g id="ytick_13">
     <g id="line2d_19">
      <g>
       <use style="stroke:#000000;stroke-width:0.6;" x="55.997054" xlink:href="#ma938623d29" y="148.739139"/>
      </g>
     </g>
    </g>
    <g id="ytick_14">
     <g id="line2d_20">
      <g>
       <use style="stroke:#000000;stroke-width:0.6;" x="55.997054" xlink:href="#ma938623d29" y="141.697486"/>
      </g>
     </g>
    </g>
    <g id="ytick_15">
     <g id="line2d_21">
      <g>
       <use style="stroke:#000000;stroke-width:0.6;" x="55.997054" xlink:href="#ma938623d29" y="93.958744"/>
      </g>
     </g>
    </g>
    <g id="ytick_16">
     <g id="line2d_22">
      <g>
       <use style="stroke:#000000;stroke-width:0.6;" x="55.997054" xlink:href="#ma938623d29" y="69.718033"/>
      </g>
     </g>
    </g>
    <g id="ytick_17">
     <g id="line2d_23">
      <g>
       <use style="stroke:#000000;stroke-width:0.6;" x="55.997054" xlink:href="#ma938623d29" y="52.518974"/>
      </g>
     </g>
    </g>
    <g id="ytick_18">
     <g id="line2d_24">
      <g>
       <use style="stroke:#000000;stroke-width:0.6;" x="55.997054" xlink:href="#ma938623d29" y="39.178348"/>
      </g>
     </g>
    </g>
    <g id="ytick_19">
     <g id="line2d_25">
      <g>
       <use style="stroke:#000000;stroke-width:0.6;" x="55.997054" xlink:href="#ma938623d29" y="28.278263"/>
      </g>
     </g>
    </g>
    <g id="text_10">
     <!-- Runtime (s) -->
     <g transform="translate(19.417366 194.238125)rotate(-90)scale(0.1 -0.1)">
      <defs>
       <path d="M 2841 2188 
Q 3044 2119 3236 1894 
Q 3428 1669 3622 1275 
L 4263 0 
L 3584 0 
L 2988 1197 
Q 2756 1666 2539 1819 
Q 2322 1972 1947 1972 
L 1259 1972 
L 1259 0 
L 628 0 
L 628 4666 
L 2053 4666 
Q 2853 4666 3247 4331 
Q 3641 3997 3641 3322 
Q 3641 2881 3436 2590 
Q 3231 2300 2841 2188 
z
M 1259 4147 
L 1259 2491 
L 2053 2491 
Q 2509 2491 2742 2702 
Q 2975 2913 2975 3322 
Q 2975 3731 2742 3939 
Q 2509 4147 2053 4147 
L 1259 4147 
z
" id="DejaVuSans-52" transform="scale(0.015625)"/>
       <path d="M 3513 2113 
L 3513 0 
L 2938 0 
L 2938 2094 
Q 2938 2591 2744 2837 
Q 2550 3084 2163 3084 
Q 1697 3084 1428 2787 
Q 1159 2491 1159 1978 
L 1159 0 
L 581 0 
L 581 3500 
L 1159 3500 
L 1159 2956 
Q 1366 3272 1645 3428 
Q 1925 3584 2291 3584 
Q 2894 3584 3203 3211 
Q 3513 2838 3513 2113 
z
" id="DejaVuSans-6e" transform="scale(0.015625)"/>
       <path d="M 1172 4494 
L 1172 3500 
L 2356 3500 
L 2356 3053 
L 1172 3053 
L 1172 1153 
Q 1172 725 1289 603 
Q 1406 481 1766 481 
L 2356 481 
L 2356 0 
L 1766 0 
Q 1100 0 847 248 
Q 594 497 594 1153 
L 594 3053 
L 172 3053 
L 172 3500 
L 594 3500 
L 594 4494 
L 1172 4494 
z
" id="DejaVuSans-74" transform="scale(0.015625)"/>
       <path d="M 603 3500 
L 1178 3500 
L 1178 0 
L 603 0 
L 603 3500 
z
M 603 4863 
L 1178 4863 
L 1178 4134 
L 603 4134 
L 603 4863 
z
" id="DejaVuSans-69" transform="scale(0.015625)"/>
       <path d="M 1984 4856 
Q 1566 4138 1362 3434 
Q 1159 2731 1159 2009 
Q 1159 1288 1364 580 
Q 1569 -128 1984 -844 
L 1484 -844 
Q 1016 -109 783 600 
Q 550 1309 550 2009 
Q 550 2706 781 3412 
Q 1013 4119 1484 4856 
L 1984 4856 
z
" id="DejaVuSans-28" transform="scale(0.015625)"/>
       <path d="M 513 4856 
L 1013 4856 
Q 1481 4119 1714 3412 
Q 1947 2706 1947 2009 
Q 1947 1309 1714 600 
Q 1481 -109 1013 -844 
L 513 -844 
Q 928 -128 1133 580 
Q 1338 1288 1338 2009 
Q 1338 2731 1133 3434 
Q 928 4138 513 4856 
z
" id="DejaVuSans-29" transform="scale(0.015625)"/>
      </defs>
      <use xlink:href="#DejaVuSans-52"/>
      <use x="64.982422" xlink:href="#DejaVuSans-75"/>
      <use x="128.361328" xlink:href="#DejaVuSans-6e"/>
      <use x="191.740234" xlink:href="#DejaVuSans-74"/>
      <use x="230.949219" xlink:href="#DejaVuSans-69"/>
      <use x="258.732422" xlink:href="#DejaVuSans-6d"/>
      <use x="356.144531" xlink:href="#DejaVuSans-65"/>
      <use x="417.667969" xlink:href="#DejaVuSans-20"/>
      <use x="449.455078" xlink:href="#DejaVuSans-28"/>
      <use x="488.46875" xlink:href="#DejaVuSans-73"/>
      <use x="540.568359" xlink:href="#DejaVuSans-29"/>
     </g>
    </g>
   </g>
   <g id="line2d_26">
    <path clip-path="url(#pecbec559ee)" d="M 73.716157 291.06 
L 89.124072 245.711326 
L 104.531987 218.278052 
L 119.939903 204.841846 
L 135.347818 185.301653 
L 150.755733 180.347001 
L 166.163649 166.438493 
L 181.571564 164.316311 
L 196.979479 152.757211 
L 212.387395 145.929076 
L 227.79531 128.463239 
L 243.203225 137.8702 
L 258.611141 80.905776 
L 274.019056 130.548815 
L 289.426971 108.736395 
L 304.834887 120.663354 
L 320.242802 115.539309 
L 335.650718 98.943709 
L 351.058633 92.511668 
L 366.466548 95.120825 
L 381.874464 92.322313 
L 397.282379 91.757822 
L 412.690294 91.499075 
L 428.09821 86.572661 
" style="fill:none;stroke:#1f77b4;stroke-linecap:square;stroke-width:1.5;"/>
    <defs>
     <path d="M 0 3 
C 0.795609 3 1.55874 2.683901 2.12132 2.12132 
C 2.683901 1.55874 3 0.795609 3 0 
C 3 -0.795609 2.683901 -1.55874 2.12132 -2.12132 
C 1.55874 -2.683901 0.795609 -3 0 -3 
C -0.795609 -3 -1.55874 -2.683901 -2.12132 -2.12132 
C -2.683901 -1.55874 -3 -0.795609 -3 0 
C -3 0.795609 -2.683901 1.55874 -2.12132 2.12132 
C -1.55874 2.683901 -0.795609 3 0 3 
z
" id="m1c32be5d2c" style="stroke:#1f77b4;"/>
    </defs>
    <g clip-path="url(#pecbec559ee)">
     <use style="fill:#1f77b4;stroke:#1f77b4;" x="73.716157" xlink:href="#m1c32be5d2c" y="291.06"/>
     <use style="fill:#1f77b4;stroke:#1f77b4;" x="89.124072" xlink:href="#m1c32be5d2c" y="245.711326"/>
     <use style="fill:#1f77b4;stroke:#1f77b4;" x="104.531987" xlink:href="#m1c32be5d2c" y="218.278052"/>
     <use style="fill:#1f77b4;stroke:#1f77b4;" x="119.939903" xlink:href="#m1c32be5d2c" y="204.841846"/>
     <use style="fill:#1f77b4;stroke:#1f77b4;" x="135.347818" xlink:href="#m1c32be5d2c" y="185.301653"/>
     <use style="fill:#1f77b4;stroke:#1f77b4;" x="150.755733" xlink:href="#m1c32be5d2c" y="180.347001"/>
     <use style="fill:#1f77b4;stroke:#1f77b4;" x="166.163649" xlink:href="#m1c32be5d2c" y="166.438493"/>
     <use style="fill:#1f77b4;stroke:#1f77b4;" x="181.571564" xlink:href="#m1c32be5d2c" y="164.316311"/>
     <use style="fill:#1f77b4;stroke:#1f77b4;" x="196.979479" xlink:href="#m1c32be5d2c" y="152.757211"/>
     <use style="fill:#1f77b4;stroke:#1f77b4;" x="212.387395" xlink:href="#m1c32be5d2c" y="145.929076"/>
     <use style="fill:#1f77b4;stroke:#1f77b4;" x="227.79531" xlink:href="#m1c32be5d2c" y="128.463239"/>
     <use style="fill:#1f77b4;stroke:#1f77b4;" x="243.203225" xlink:href="#m1c32be5d2c" y="137.8702"/>
     <use style="fill:#1f77b4;stroke:#1f77b4;" x="258.611141" xlink:href="#m1c32be5d2c" y="80.905776"/>
     <use style="fill:#1f77b4;stroke:#1f77b4;" x="274.019056" xlink:href="#m1c32be5d2c" y="130.548815"/>
     <use style="fill:#1f77b4;stroke:#1f77b4;" x="289.426971" xlink:href="#m1c32be5d2c" y="108.736395"/>
     <use style="fill:#1f77b4;stroke:#1f77b4;" x="304.834887" xlink:href="#m1c32be5d2c" y="120.663354"/>
     <use style="fill:#1f77b4;stroke:#1f77b4;" x="320.242802" xlink:href="#m1c32be5d2c" y="115.539309"/>
     <use style="fill:#1f77b4;stroke:#1f77b4;" x="335.650718" xlink:href="#m1c32be5d2c" y="98.943709"/>
     <use style="fill:#1f77b4;stroke:#1f77b4;" x="351.058633" xlink:href="#m1c32be5d2c" y="92.511668"/>
     <use style="fill:#1f77b4;stroke:#1f77b4;" x="366.466548" xlink:href="#m1c32be5d2c" y="95.120825"/>
     <use style="fill:#1f77b4;stroke:#1f77b4;" x="381.874464" xlink:href="#m1c32be5d2c" y="92.322313"/>
     <use style="fill:#1f77b4;stroke:#1f77b4;" x="397.282379" xlink:href="#m1c32be5d2c" y="91.757822"/>
     <use style="fill:#1f77b4;stroke:#1f77b4;" x="412.690294" xlink:href="#m1c32be5d2c" y="91.499075"/>
     <use style="fill:#1f77b4;stroke:#1f77b4;" x="428.09821" xlink:href="#m1c32be5d2c" y="86.572661"/>
    </g>
   </g>
   <g id="line2d_27">
    <path clip-path="url(#pecbec559ee)" d="M 73.716157 291.06 
L 89.124072 240.289036 
L 104.531987 218.397741 
L 119.939903 195.001635 
L 135.347818 190.178908 
L 150.755733 183.004548 
L 166.163649 168.171511 
L 181.571564 147.775443 
L 196.979479 153.117966 
L 212.387395 134.214614 
L 227.79531 128.01243 
L 243.203225 136.912137 
L 258.611141 130.935953 
L 274.019056 129.2402 
L 289.426971 122.465813 
L 304.834887 108.90888 
L 320.242802 94.168358 
L 335.650718 97.214404 
L 351.058633 97.151306 
L 366.466548 95.441716 
L 381.874464 86.704899 
L 397.282379 86.401187 
L 412.690294 83.558954 
L 428.09821 83.258275 
" style="fill:none;stroke:#ff7f0e;stroke-linecap:square;stroke-width:1.5;"/>
    <defs>
     <path d="M 0 3 
C 0.795609 3 1.55874 2.683901 2.12132 2.12132 
C 2.683901 1.55874 3 0.795609 3 0 
C 3 -0.795609 2.683901 -1.55874 2.12132 -2.12132 
C 1.55874 -2.683901 0.795609 -3 0 -3 
C -0.795609 -3 -1.55874 -2.683901 -2.12132 -2.12132 
C -2.683901 -1.55874 -3 -0.795609 -3 0 
C -3 0.795609 -2.683901 1.55874 -2.12132 2.12132 
C -1.55874 2.683901 -0.795609 3 0 3 
z
" id="mddb4a1b694" style="stroke:#ff7f0e;"/>
    </defs>
    <g clip-path="url(#pecbec559ee)">
     <use style="fill:#ff7f0e;stroke:#ff7f0e;" x="73.716157" xlink:href="#mddb4a1b694" y="291.06"/>
     <use style="fill:#ff7f0e;stroke:#ff7f0e;" x="89.124072" xlink:href="#mddb4a1b694" y="240.289036"/>
     <use style="fill:#ff7f0e;stroke:#ff7f0e;" x="104.531987" xlink:href="#mddb4a1b694" y="218.397741"/>
     <use style="fill:#ff7f0e;stroke:#ff7f0e;" x="119.939903" xlink:href="#mddb4a1b694" y="195.001635"/>
     <use style="fill:#ff7f0e;stroke:#ff7f0e;" x="135.347818" xlink:href="#mddb4a1b694" y="190.178908"/>
     <use style="fill:#ff7f0e;stroke:#ff7f0e;" x="150.755733" xlink:href="#mddb4a1b694" y="183.004548"/>
     <use style="fill:#ff7f0e;stroke:#ff7f0e;" x="166.163649" xlink:href="#mddb4a1b694" y="168.171511"/>
     <use style="fill:#ff7f0e;stroke:#ff7f0e;" x="181.571564" xlink:href="#mddb4a1b694" y="147.775443"/>
     <use style="fill:#ff7f0e;stroke:#ff7f0e;" x="196.979479" xlink:href="#mddb4a1b694" y="153.117966"/>
     <use style="fill:#ff7f0e;stroke:#ff7f0e;" x="212.387395" xlink:href="#mddb4a1b694" y="134.214614"/>
     <use style="fill:#ff7f0e;stroke:#ff7f0e;" x="227.79531" xlink:href="#mddb4a1b694" y="128.01243"/>
     <use style="fill:#ff7f0e;stroke:#ff7f0e;" x="243.203225" xlink:href="#mddb4a1b694" y="136.912137"/>
     <use style="fill:#ff7f0e;stroke:#ff7f0e;" x="258.611141" xlink:href="#mddb4a1b694" y="130.935953"/>
     <use style="fill:#ff7f0e;stroke:#ff7f0e;" x="274.019056" xlink:href="#mddb4a1b694" y="129.2402"/>
     <use style="fill:#ff7f0e;stroke:#ff7f0e;" x="289.426971" xlink:href="#mddb4a1b694" y="122.465813"/>
     <use style="fill:#ff7f0e;stroke:#ff7f0e;" x="304.834887" xlink:href="#mddb4a1b694" y="108.90888"/>
     <use style="fill:#ff7f0e;stroke:#ff7f0e;" x="320.242802" xlink:href="#mddb4a1b694" y="94.168358"/>
     <use style="fill:#ff7f0e;stroke:#ff7f0e;" x="335.650718" xlink:href="#mddb4a1b694" y="97.214404"/>
     <use style="fill:#ff7f0e;stroke:#ff7f0e;" x="351.058633" xlink:href="#mddb4a1b694" y="97.151306"/>
     <use style="fill:#ff7f0e;stroke:#ff7f0e;" x="366.466548" xlink:href="#mddb4a1b694" y="95.441716"/>
     <use style="fill:#ff7f0e;stroke:#ff7f0e;" x="381.874464" xlink:href="#mddb4a1b694" y="86.704899"/>
     <use style="fill:#ff7f0e;stroke:#ff7f0e;" x="397.282379" xlink:href="#mddb4a1b694" y="86.401187"/>
     <use style="fill:#ff7f0e;stroke:#ff7f0e;" x="412.690294" xlink:href="#mddb4a1b694" y="83.558954"/>
     <use style="fill:#ff7f0e;stroke:#ff7f0e;" x="428.09821" xlink:href="#mddb4a1b694" y="83.258275"/>
    </g>
   </g>
   <g id="line2d_28">
    <path clip-path="url(#pecbec559ee)" d="M 73.716157 246.281616 
L 89.124072 219.120955 
L 104.531987 208.993874 
L 119.939903 203.894363 
L 135.347818 197.229903 
L 150.755733 191.539434 
L 166.163649 185.785744 
L 181.571564 182.34539 
L 196.979479 178.474668 
L 212.387395 176.243402 
L 227.79531 171.63133 
L 243.203225 146.718564 
L 258.611141 168.690932 
L 274.019056 166.187822 
L 289.426971 163.30665 
L 304.834887 128.489863 
L 320.242802 159.878844 
L 335.650718 158.455325 
L 351.058633 136.302081 
L 366.466548 39.46 
L 381.874464 153.968291 
L 397.282379 151.45276 
L 412.690294 149.189216 
L 428.09821 147.518618 
" style="fill:none;stroke:#2ca02c;stroke-linecap:square;stroke-width:1.5;"/>
    <defs>
     <path d="M 0 3 
C 0.795609 3 1.55874 2.683901 2.12132 2.12132 
C 2.683901 1.55874 3 0.795609 3 0 
C 3 -0.795609 2.683901 -1.55874 2.12132 -2.12132 
C 1.55874 -2.683901 0.795609 -3 0 -3 
C -0.795609 -3 -1.55874 -2.683901 -2.12132 -2.12132 
C -2.683901 -1.55874 -3 -0.795609 -3 0 
C -3 0.795609 -2.683901 1.55874 -2.12132 2.12132 
C -1.55874 2.683901 -0.795609 3 0 3 
z
" id="m4fc4a9d879" style="stroke:#2ca02c;"/>
    </defs>
    <g clip-path="url(#pecbec559ee)">
     <use style="fill:#2ca02c;stroke:#2ca02c;" x="73.716157" xlink:href="#m4fc4a9d879" y="246.281616"/>
     <use style="fill:#2ca02c;stroke:#2ca02c;" x="89.124072" xlink:href="#m4fc4a9d879" y="219.120955"/>
     <use style="fill:#2ca02c;stroke:#2ca02c;" x="104.531987" xlink:href="#m4fc4a9d879" y="208.993874"/>
     <use style="fill:#2ca02c;stroke:#2ca02c;" x="119.939903" xlink:href="#m4fc4a9d879" y="203.894363"/>
     <use style="fill:#2ca02c;stroke:#2ca02c;" x="135.347818" xlink:href="#m4fc4a9d879" y="197.229903"/>
     <use style="fill:#2ca02c;stroke:#2ca02c;" x="150.755733" xlink:href="#m4fc4a9d879" y="191.539434"/>
     <use style="fill:#2ca02c;stroke:#2ca02c;" x="166.163649" xlink:href="#m4fc4a9d879" y="185.785744"/>
     <use style="fill:#2ca02c;stroke:#2ca02c;" x="181.571564" xlink:href="#m4fc4a9d879" y="182.34539"/>
     <use style="fill:#2ca02c;stroke:#2ca02c;" x="196.979479" xlink:href="#m4fc4a9d879" y="178.474668"/>
     <use style="fill:#2ca02c;stroke:#2ca02c;" x="212.387395" xlink:href="#m4fc4a9d879" y="176.243402"/>
     <use style="fill:#2ca02c;stroke:#2ca02c;" x="227.79531" xlink:href="#m4fc4a9d879" y="171.63133"/>
     <use style="fill:#2ca02c;stroke:#2ca02c;" x="243.203225" xlink:href="#m4fc4a9d879" y="146.718564"/>
     <use style="fill:#2ca02c;stroke:#2ca02c;" x="258.611141" xlink:href="#m4fc4a9d879" y="168.690932"/>
     <use style="fill:#2ca02c;stroke:#2ca02c;" x="274.019056" xlink:href="#m4fc4a9d879" y="166.187822"/>
     <use style="fill:#2ca02c;stroke:#2ca02c;" x="289.426971" xlink:href="#m4fc4a9d879" y="163.30665"/>
     <use style="fill:#2ca02c;stroke:#2ca02c;" x="304.834887" xlink:href="#m4fc4a9d879" y="128.489863"/>
     <use style="fill:#2ca02c;stroke:#2ca02c;" x="320.242802" xlink:href="#m4fc4a9d879" y="159.878844"/>
     <use style="fill:#2ca02c;stroke:#2ca02c;" x="335.650718" xlink:href="#m4fc4a9d879" y="158.455325"/>
     <use style="fill:#2ca02c;stroke:#2ca02c;" x="351.058633" xlink:href="#m4fc4a9d879" y="136.302081"/>
     <use style="fill:#2ca02c;stroke:#2ca02c;" x="366.466548" xlink:href="#m4fc4a9d879" y="39.46"/>
     <use style="fill:#2ca02c;stroke:#2ca02c;" x="381.874464" xlink:href="#m4fc4a9d879" y="153.968291"/>
     <use style="fill:#2ca02c;stroke:#2ca02c;" x="397.282379" xlink:href="#m4fc4a9d879" y="151.45276"/>
     <use style="fill:#2ca02c;stroke:#2ca02c;" x="412.690294" xlink:href="#m4fc4a9d879" y="149.189216"/>
     <use style="fill:#2ca02c;stroke:#2ca02c;" x="428.09821" xlink:href="#m4fc4a9d879" y="147.518618"/>
    </g>
   </g>
   <g id="line2d_29">
    <path clip-path="url(#pecbec559ee)" d="M 73.716157 253.802701 
L 89.124072 215.247366 
M 119.939903 191.539434 
M 181.571564 172.96117 
M 304.834887 127.90685 
" style="fill:none;stroke:#d62728;stroke-linecap:square;stroke-width:1.5;"/>
    <defs>
     <path d="M 0 3 
C 0.795609 3 1.55874 2.683901 2.12132 2.12132 
C 2.683901 1.55874 3 0.795609 3 0 
C 3 -0.795609 2.683901 -1.55874 2.12132 -2.12132 
C 1.55874 -2.683901 0.795609 -3 0 -3 
C -0.795609 -3 -1.55874 -2.683901 -2.12132 -2.12132 
C -2.683901 -1.55874 -3 -0.795609 -3 0 
C -3 0.795609 -2.683901 1.55874 -2.12132 2.12132 
C -1.55874 2.683901 -0.795609 3 0 3 
z
" id="mcd328effb2" style="stroke:#d62728;"/>
    </defs>
    <g clip-path="url(#pecbec559ee)">
     <use style="fill:#d62728;stroke:#d62728;" x="73.716157" xlink:href="#mcd328effb2" y="253.802701"/>
     <use style="fill:#d62728;stroke:#d62728;" x="89.124072" xlink:href="#mcd328effb2" y="215.247366"/>
     <use style="fill:#d62728;stroke:#d62728;" x="119.939903" xlink:href="#mcd328effb2" y="191.539434"/>
     <use style="fill:#d62728;stroke:#d62728;" x="181.571564" xlink:href="#mcd328effb2" y="172.96117"/>
     <use style="fill:#d62728;stroke:#d62728;" x="304.834887" xlink:href="#mcd328effb2" y="127.90685"/>
    </g>
   </g>
   <g id="line2d_30">
    <path clip-path="url(#pecbec559ee)" d="M 73.716157 208.585785 
L 89.124072 180.283636 
M 119.939903 170.599124 
M 181.571564 162.831787 
M 304.834887 128.091738 
" style="fill:none;stroke:#9467bd;stroke-linecap:square;stroke-width:1.5;"/>
    <defs>
     <path d="M 0 3 
C 0.795609 3 1.55874 2.683901 2.12132 2.12132 
C 2.683901 1.55874 3 0.795609 3 0 
C 3 -0.795609 2.683901 -1.55874 2.12132 -2.12132 
C 1.55874 -2.683901 0.795609 -3 0 -3 
C -0.795609 -3 -1.55874 -2.683901 -2.12132 -2.12132 
C -2.683901 -1.55874 -3 -0.795609 -3 0 
C -3 0.795609 -2.683901 1.55874 -2.12132 2.12132 
C -1.55874 2.683901 -0.795609 3 0 3 
z
" id="mc5b8e1d3a1" style="stroke:#9467bd;"/>
    </defs>
    <g clip-path="url(#pecbec559ee)">
     <use style="fill:#9467bd;stroke:#9467bd;" x="73.716157" xlink:href="#mc5b8e1d3a1" y="208.585785"/>
     <use style="fill:#9467bd;stroke:#9467bd;" x="89.124072" xlink:href="#mc5b8e1d3a1" y="180.283636"/>
     <use style="fill:#9467bd;stroke:#9467bd;" x="119.939903" xlink:href="#mc5b8e1d3a1" y="170.599124"/>
     <use style="fill:#9467bd;stroke:#9467bd;" x="181.571564" xlink:href="#mc5b8e1d3a1" y="162.831787"/>
     <use style="fill:#9467bd;stroke:#9467bd;" x="304.834887" xlink:href="#mc5b8e1d3a1" y="128.091738"/>
    </g>
   </g>
   <g id="line2d_31">
    <path clip-path="url(#pecbec559ee)" d="M 73.716157 241.687578 
L 89.124072 218.517671 
L 104.531987 207.179015 
L 119.939903 200.870112 
L 135.347818 196.312042 
L 150.755733 190.029633 
L 166.163649 185.232816 
L 181.571564 181.370084 
L 196.979479 178.168235 
L 212.387395 175.830481 
L 227.79531 172.071331 
L 243.203225 134.15603 
L 258.611141 168.586686 
L 274.019056 163.977859 
L 289.426971 121.58151 
L 304.834887 161.337085 
L 320.242802 133.370714 
L 335.650718 158.235931 
L 351.058633 92.191572 
L 366.466548 152.637441 
L 381.874464 152.677338 
L 397.282379 130.880493 
L 412.690294 147.922696 
L 428.09821 146.754699 
" style="fill:none;stroke:#8c564b;stroke-linecap:square;stroke-width:1.5;"/>
    <defs>
     <path d="M 0 3 
C 0.795609 3 1.55874 2.683901 2.12132 2.12132 
C 2.683901 1.55874 3 0.795609 3 0 
C 3 -0.795609 2.683901 -1.55874 2.12132 -2.12132 
C 1.55874 -2.683901 0.795609 -3 0 -3 
C -0.795609 -3 -1.55874 -2.683901 -2.12132 -2.12132 
C -2.683901 -1.55874 -3 -0.795609 -3 0 
C -3 0.795609 -2.683901 1.55874 -2.12132 2.12132 
C -1.55874 2.683901 -0.795609 3 0 3 
z
" id="m43ff5021e2" style="stroke:#8c564b;"/>
    </defs>
    <g clip-path="url(#pecbec559ee)">
     <use style="fill:#8c564b;stroke:#8c564b;" x="73.716157" xlink:href="#m43ff5021e2" y="241.687578"/>
     <use style="fill:#8c564b;stroke:#8c564b;" x="89.124072" xlink:href="#m43ff5021e2" y="218.517671"/>
     <use style="fill:#8c564b;stroke:#8c564b;" x="104.531987" xlink:href="#m43ff5021e2" y="207.179015"/>
     <use style="fill:#8c564b;stroke:#8c564b;" x="119.939903" xlink:href="#m43ff5021e2" y="200.870112"/>
     <use style="fill:#8c564b;stroke:#8c564b;" x="135.347818" xlink:href="#m43ff5021e2" y="196.312042"/>
     <use style="fill:#8c564b;stroke:#8c564b;" x="150.755733" xlink:href="#m43ff5021e2" y="190.029633"/>
     <use style="fill:#8c564b;stroke:#8c564b;" x="166.163649" xlink:href="#m43ff5021e2" y="185.232816"/>
     <use style="fill:#8c564b;stroke:#8c564b;" x="181.571564" xlink:href="#m43ff5021e2" y="181.370084"/>
     <use style="fill:#8c564b;stroke:#8c564b;" x="196.979479" xlink:href="#m43ff5021e2" y="178.168235"/>
     <use style="fill:#8c564b;stroke:#8c564b;" x="212.387395" xlink:href="#m43ff5021e2" y="175.830481"/>
     <use style="fill:#8c564b;stroke:#8c564b;" x="227.79531" xlink:href="#m43ff5021e2" y="172.071331"/>
     <use style="fill:#8c564b;stroke:#8c564b;" x="243.203225" xlink:href="#m43ff5021e2" y="134.15603"/>
     <use style="fill:#8c564b;stroke:#8c564b;" x="258.611141" xlink:href="#m43ff5021e2" y="168.586686"/>
     <use style="fill:#8c564b;stroke:#8c564b;" x="274.019056" xlink:href="#m43ff5021e2" y="163.977859"/>
     <use style="fill:#8c564b;stroke:#8c564b;" x="289.426971" xlink:href="#m43ff5021e2" y="121.58151"/>
     <use style="fill:#8c564b;stroke:#8c564b;" x="304.834887" xlink:href="#m43ff5021e2" y="161.337085"/>
     <use style="fill:#8c564b;stroke:#8c564b;" x="320.242802" xlink:href="#m43ff5021e2" y="133.370714"/>
     <use style="fill:#8c564b;stroke:#8c564b;" x="335.650718" xlink:href="#m43ff5021e2" y="158.235931"/>
     <use style="fill:#8c564b;stroke:#8c564b;" x="351.058633" xlink:href="#m43ff5021e2" y="92.191572"/>
     <use style="fill:#8c564b;stroke:#8c564b;" x="366.466548" xlink:href="#m43ff5021e2" y="152.637441"/>
     <use style="fill:#8c564b;stroke:#8c564b;" x="381.874464" xlink:href="#m43ff5021e2" y="152.677338"/>
     <use style="fill:#8c564b;stroke:#8c564b;" x="397.282379" xlink:href="#m43ff5021e2" y="130.880493"/>
     <use style="fill:#8c564b;stroke:#8c564b;" x="412.690294" xlink:href="#m43ff5021e2" y="147.922696"/>
     <use style="fill:#8c564b;stroke:#8c564b;" x="428.09821" xlink:href="#m43ff5021e2" y="146.754699"/>
    </g>
   </g>
   <g id="line2d_32">
    <path clip-path="url(#pecbec559ee)" d="M 73.716157 281.384223 
L 89.124072 257.834675 
M 119.939903 246.472928 
M 181.571564 219.608004 
M 304.834887 208.180461 
" style="fill:none;stroke:#e377c2;stroke-linecap:square;stroke-width:1.5;"/>
    <defs>
     <path d="M 0 3 
C 0.795609 3 1.55874 2.683901 2.12132 2.12132 
C 2.683901 1.55874 3 0.795609 3 0 
C 3 -0.795609 2.683901 -1.55874 2.12132 -2.12132 
C 1.55874 -2.683901 0.795609 -3 0 -3 
C -0.795609 -3 -1.55874 -2.683901 -2.12132 -2.12132 
C -2.683901 -1.55874 -3 -0.795609 -3 0 
C -3 0.795609 -2.683901 1.55874 -2.12132 2.12132 
C -1.55874 2.683901 -0.795609 3 0 3 
z
" id="m342fe6adbd" style="stroke:#e377c2;"/>
    </defs>
    <g clip-path="url(#pecbec559ee)">
     <use style="fill:#e377c2;stroke:#e377c2;" x="73.716157" xlink:href="#m342fe6adbd" y="281.384223"/>
     <use style="fill:#e377c2;stroke:#e377c2;" x="89.124072" xlink:href="#m342fe6adbd" y="257.834675"/>
     <use style="fill:#e377c2;stroke:#e377c2;" x="119.939903" xlink:href="#m342fe6adbd" y="246.472928"/>
     <use style="fill:#e377c2;stroke:#e377c2;" x="181.571564" xlink:href="#m342fe6adbd" y="219.608004"/>
     <use style="fill:#e377c2;stroke:#e377c2;" x="304.834887" xlink:href="#m342fe6adbd" y="208.180461"/>
    </g>
   </g>
   <g id="patch_3">
    <path d="M 55.997054 303.64 
L 55.997054 26.88 
" style="fill:none;stroke:#000000;stroke-linecap:square;stroke-linejoin:miter;stroke-width:0.8;"/>
   </g>
   <g id="patch_4">
    <path d="M 445.817312 303.64 
L 445.817312 26.88 
" style="fill:none;stroke:#000000;stroke-linecap:square;stroke-linejoin:miter;stroke-width:0.8;"/>
   </g>
   <g id="patch_5">
    <path d="M 55.997054 303.64 
L 445.817312 303.64 
" style="fill:none;stroke:#000000;stroke-linecap:square;stroke-linejoin:miter;stroke-width:0.8;"/>
   </g>
   <g id="patch_6">
    <path d="M 55.997054 26.88 
L 445.817312 26.88 
" style="fill:none;stroke:#000000;stroke-linecap:square;stroke-linejoin:miter;stroke-width:0.8;"/>
   </g>
   <g id="text_11">
    <!-- Runtime (128 vector size) -->
    <g transform="translate(173.327183 20.88)scale(0.12 -0.12)">
     <defs>
      <path d="M 2034 2216 
Q 1584 2216 1326 1975 
Q 1069 1734 1069 1313 
Q 1069 891 1326 650 
Q 1584 409 2034 409 
Q 2484 409 2743 651 
Q 3003 894 3003 1313 
Q 3003 1734 2745 1975 
Q 2488 2216 2034 2216 
z
M 1403 2484 
Q 997 2584 770 2862 
Q 544 3141 544 3541 
Q 544 4100 942 4425 
Q 1341 4750 2034 4750 
Q 2731 4750 3128 4425 
Q 3525 4100 3525 3541 
Q 3525 3141 3298 2862 
Q 3072 2584 2669 2484 
Q 3125 2378 3379 2068 
Q 3634 1759 3634 1313 
Q 3634 634 3220 271 
Q 2806 -91 2034 -91 
Q 1263 -91 848 271 
Q 434 634 434 1313 
Q 434 1759 690 2068 
Q 947 2378 1403 2484 
z
M 1172 3481 
Q 1172 3119 1398 2916 
Q 1625 2713 2034 2713 
Q 2441 2713 2670 2916 
Q 2900 3119 2900 3481 
Q 2900 3844 2670 4047 
Q 2441 4250 2034 4250 
Q 1625 4250 1398 4047 
Q 1172 3844 1172 3481 
z
" id="DejaVuSans-38" transform="scale(0.015625)"/>
      <path d="M 191 3500 
L 800 3500 
L 1894 563 
L 2988 3500 
L 3597 3500 
L 2284 0 
L 1503 0 
L 191 3500 
z
" id="DejaVuSans-76" transform="scale(0.015625)"/>
      <path d="M 353 3500 
L 3084 3500 
L 3084 2975 
L 922 459 
L 3084 459 
L 3084 0 
L 275 0 
L 275 525 
L 2438 3041 
L 353 3041 
L 353 3500 
z
" id="DejaVuSans-7a" transform="scale(0.015625)"/>
     </defs>
     <use xlink:href="#DejaVuSans-52"/>
     <use x="64.982422" xlink:href="#DejaVuSans-75"/>
     <use x="128.361328" xlink:href="#DejaVuSans-6e"/>
     <use x="191.740234" xlink:href="#DejaVuSans-74"/>
     <use x="230.949219" xlink:href="#DejaVuSans-69"/>
     <use x="258.732422" xlink:href="#DejaVuSans-6d"/>
     <use x="356.144531" xlink:href="#DejaVuSans-65"/>
     <use x="417.667969" xlink:href="#DejaVuSans-20"/>
     <use x="449.455078" xlink:href="#DejaVuSans-28"/>
     <use x="488.46875" xlink:href="#DejaVuSans-31"/>
     <use x="552.091797" xlink:href="#DejaVuSans-32"/>
     <use x="615.714844" xlink:href="#DejaVuSans-38"/>
     <use x="679.337891" xlink:href="#DejaVuSans-20"/>
     <use x="711.125" xlink:href="#DejaVuSans-76"/>
     <use x="770.304688" xlink:href="#DejaVuSans-65"/>
     <use x="831.828125" xlink:href="#DejaVuSans-63"/>
     <use x="886.808594" xlink:href="#DejaVuSans-74"/>
     <use x="926.017578" xlink:href="#DejaVuSans-6f"/>
     <use x="987.199219" xlink:href="#DejaVuSans-72"/>
     <use x="1028.3125" xlink:href="#DejaVuSans-20"/>
     <use x="1060.099609" xlink:href="#DejaVuSans-73"/>
     <use x="1112.199219" xlink:href="#DejaVuSans-69"/>
     <use x="1139.982422" xlink:href="#DejaVuSans-7a"/>
     <use x="1192.472656" xlink:href="#DejaVuSans-65"/>
     <use x="1253.996094" xlink:href="#DejaVuSans-29"/>
    </g>
   </g>
   <g id="legend_1">
    <g id="patch_7">
     <path d="M 293.807937 298.64 
L 438.817312 298.64 
Q 440.817312 298.64 440.817312 296.64 
L 440.817312 180.215 
Q 440.817312 178.215 438.817312 178.215 
L 293.807937 178.215 
Q 291.807937 178.215 291.807937 180.215 
L 291.807937 296.64 
Q 291.807937 298.64 293.807937 298.64 
z
" style="fill:#ffffff;opacity:0.8;stroke:#cccccc;stroke-linejoin:miter;"/>
    </g>
    <g id="text_12">
     <!-- implementation -->
     <g transform="translate(326.696219 189.813437)scale(0.1 -0.1)">
      <defs>
       <path d="M 603 4863 
L 1178 4863 
L 1178 0 
L 603 0 
L 603 4863 
z
" id="DejaVuSans-6c" transform="scale(0.015625)"/>
       <path d="M 2194 1759 
Q 1497 1759 1228 1600 
Q 959 1441 959 1056 
Q 959 750 1161 570 
Q 1363 391 1709 391 
Q 2188 391 2477 730 
Q 2766 1069 2766 1631 
L 2766 1759 
L 2194 1759 
z
M 3341 1997 
L 3341 0 
L 2766 0 
L 2766 531 
Q 2569 213 2275 61 
Q 1981 -91 1556 -91 
Q 1019 -91 701 211 
Q 384 513 384 1019 
Q 384 1609 779 1909 
Q 1175 2209 1959 2209 
L 2766 2209 
L 2766 2266 
Q 2766 2663 2505 2880 
Q 2244 3097 1772 3097 
Q 1472 3097 1187 3025 
Q 903 2953 641 2809 
L 641 3341 
Q 956 3463 1253 3523 
Q 1550 3584 1831 3584 
Q 2591 3584 2966 3190 
Q 3341 2797 3341 1997 
z
" id="DejaVuSans-61" transform="scale(0.015625)"/>
      </defs>
      <use xlink:href="#DejaVuSans-69"/>
      <use x="27.783203" xlink:href="#DejaVuSans-6d"/>
      <use x="125.195312" xlink:href="#DejaVuSans-70"/>
      <use x="188.671875" xlink:href="#DejaVuSans-6c"/>
      <use x="216.455078" xlink:href="#DejaVuSans-65"/>
      <use x="277.978516" xlink:href="#DejaVuSans-6d"/>
      <use x="375.390625" xlink:href="#DejaVuSans-65"/>
      <use x="436.914062" xlink:href="#DejaVuSans-6e"/>
      <use x="500.292969" xlink:href="#DejaVuSans-74"/>
      <use x="539.501953" xlink:href="#DejaVuSans-61"/>
      <use x="600.78125" xlink:href="#DejaVuSans-74"/>
      <use x="639.990234" xlink:href="#DejaVuSans-69"/>
      <use x="667.773438" xlink:href="#DejaVuSans-6f"/>
      <use x="728.955078" xlink:href="#DejaVuSans-6e"/>
     </g>
    </g>
    <g id="line2d_33">
     <path d="M 295.807937 200.991562 
L 315.807937 200.991562 
" style="fill:none;stroke:#1f77b4;stroke-linecap:square;stroke-width:1.5;"/>
    </g>
    <g id="line2d_34">
     <g>
      <use style="fill:#1f77b4;stroke:#1f77b4;" x="305.807937" xlink:href="#m1c32be5d2c" y="200.991562"/>
     </g>
    </g>
    <g id="text_13">
     <!-- allgather -->
     <g transform="translate(323.807937 204.491562)scale(0.1 -0.1)">
      <defs>
       <path d="M 2906 1791 
Q 2906 2416 2648 2759 
Q 2391 3103 1925 3103 
Q 1463 3103 1205 2759 
Q 947 2416 947 1791 
Q 947 1169 1205 825 
Q 1463 481 1925 481 
Q 2391 481 2648 825 
Q 2906 1169 2906 1791 
z
M 3481 434 
Q 3481 -459 3084 -895 
Q 2688 -1331 1869 -1331 
Q 1566 -1331 1297 -1286 
Q 1028 -1241 775 -1147 
L 775 -588 
Q 1028 -725 1275 -790 
Q 1522 -856 1778 -856 
Q 2344 -856 2625 -561 
Q 2906 -266 2906 331 
L 2906 616 
Q 2728 306 2450 153 
Q 2172 0 1784 0 
Q 1141 0 747 490 
Q 353 981 353 1791 
Q 353 2603 747 3093 
Q 1141 3584 1784 3584 
Q 2172 3584 2450 3431 
Q 2728 3278 2906 2969 
L 2906 3500 
L 3481 3500 
L 3481 434 
z
" id="DejaVuSans-67" transform="scale(0.015625)"/>
       <path d="M 3513 2113 
L 3513 0 
L 2938 0 
L 2938 2094 
Q 2938 2591 2744 2837 
Q 2550 3084 2163 3084 
Q 1697 3084 1428 2787 
Q 1159 2491 1159 1978 
L 1159 0 
L 581 0 
L 581 4863 
L 1159 4863 
L 1159 2956 
Q 1366 3272 1645 3428 
Q 1925 3584 2291 3584 
Q 2894 3584 3203 3211 
Q 3513 2838 3513 2113 
z
" id="DejaVuSans-68" transform="scale(0.015625)"/>
      </defs>
      <use xlink:href="#DejaVuSans-61"/>
      <use x="61.279297" xlink:href="#DejaVuSans-6c"/>
      <use x="89.0625" xlink:href="#DejaVuSans-6c"/>
      <use x="116.845703" xlink:href="#DejaVuSans-67"/>
      <use x="180.322266" xlink:href="#DejaVuSans-61"/>
      <use x="241.601562" xlink:href="#DejaVuSans-74"/>
      <use x="280.810547" xlink:href="#DejaVuSans-68"/>
      <use x="344.189453" xlink:href="#DejaVuSans-65"/>
      <use x="405.712891" xlink:href="#DejaVuSans-72"/>
     </g>
    </g>
    <g id="line2d_35">
     <path d="M 295.807937 215.669688 
L 315.807937 215.669688 
" style="fill:none;stroke:#ff7f0e;stroke-linecap:square;stroke-width:1.5;"/>
    </g>
    <g id="line2d_36">
     <g>
      <use style="fill:#ff7f0e;stroke:#ff7f0e;" x="305.807937" xlink:href="#mddb4a1b694" y="215.669688"/>
     </g>
    </g>
    <g id="text_14">
     <!-- allgather-async -->
     <g transform="translate(323.807937 219.169688)scale(0.1 -0.1)">
      <defs>
       <path d="M 313 2009 
L 1997 2009 
L 1997 1497 
L 313 1497 
L 313 2009 
z
" id="DejaVuSans-2d" transform="scale(0.015625)"/>
       <path d="M 2059 -325 
Q 1816 -950 1584 -1140 
Q 1353 -1331 966 -1331 
L 506 -1331 
L 506 -850 
L 844 -850 
Q 1081 -850 1212 -737 
Q 1344 -625 1503 -206 
L 1606 56 
L 191 3500 
L 800 3500 
L 1894 763 
L 2988 3500 
L 3597 3500 
L 2059 -325 
z
" id="DejaVuSans-79" transform="scale(0.015625)"/>
      </defs>
      <use xlink:href="#DejaVuSans-61"/>
      <use x="61.279297" xlink:href="#DejaVuSans-6c"/>
      <use x="89.0625" xlink:href="#DejaVuSans-6c"/>
      <use x="116.845703" xlink:href="#DejaVuSans-67"/>
      <use x="180.322266" xlink:href="#DejaVuSans-61"/>
      <use x="241.601562" xlink:href="#DejaVuSans-74"/>
      <use x="280.810547" xlink:href="#DejaVuSans-68"/>
      <use x="344.189453" xlink:href="#DejaVuSans-65"/>
      <use x="405.712891" xlink:href="#DejaVuSans-72"/>
      <use x="440.451172" xlink:href="#DejaVuSans-2d"/>
      <use x="476.535156" xlink:href="#DejaVuSans-61"/>
      <use x="537.814453" xlink:href="#DejaVuSans-73"/>
      <use x="589.914062" xlink:href="#DejaVuSans-79"/>
      <use x="649.09375" xlink:href="#DejaVuSans-6e"/>
      <use x="712.472656" xlink:href="#DejaVuSans-63"/>
     </g>
    </g>
    <g id="line2d_37">
     <path d="M 295.807937 230.347812 
L 315.807937 230.347812 
" style="fill:none;stroke:#2ca02c;stroke-linecap:square;stroke-width:1.5;"/>
    </g>
    <g id="line2d_38">
     <g>
      <use style="fill:#2ca02c;stroke:#2ca02c;" x="305.807937" xlink:href="#m4fc4a9d879" y="230.347812"/>
     </g>
    </g>
    <g id="text_15">
     <!-- allreduce -->
     <g transform="translate(323.807937 233.847812)scale(0.1 -0.1)">
      <defs>
       <path d="M 2906 2969 
L 2906 4863 
L 3481 4863 
L 3481 0 
L 2906 0 
L 2906 525 
Q 2725 213 2448 61 
Q 2172 -91 1784 -91 
Q 1150 -91 751 415 
Q 353 922 353 1747 
Q 353 2572 751 3078 
Q 1150 3584 1784 3584 
Q 2172 3584 2448 3432 
Q 2725 3281 2906 2969 
z
M 947 1747 
Q 947 1113 1208 752 
Q 1469 391 1925 391 
Q 2381 391 2643 752 
Q 2906 1113 2906 1747 
Q 2906 2381 2643 2742 
Q 2381 3103 1925 3103 
Q 1469 3103 1208 2742 
Q 947 2381 947 1747 
z
" id="DejaVuSans-64" transform="scale(0.015625)"/>
      </defs>
      <use xlink:href="#DejaVuSans-61"/>
      <use x="61.279297" xlink:href="#DejaVuSans-6c"/>
      <use x="89.0625" xlink:href="#DejaVuSans-6c"/>
      <use x="116.845703" xlink:href="#DejaVuSans-72"/>
      <use x="155.708984" xlink:href="#DejaVuSans-65"/>
      <use x="217.232422" xlink:href="#DejaVuSans-64"/>
      <use x="280.708984" xlink:href="#DejaVuSans-75"/>
      <use x="344.087891" xlink:href="#DejaVuSans-63"/>
      <use x="399.068359" xlink:href="#DejaVuSans-65"/>
     </g>
    </g>
    <g id="line2d_39">
     <path d="M 295.807937 245.025937 
L 315.807937 245.025937 
" style="fill:none;stroke:#d62728;stroke-linecap:square;stroke-width:1.5;"/>
    </g>
    <g id="line2d_40">
     <g>
      <use style="fill:#d62728;stroke:#d62728;" x="305.807937" xlink:href="#mcd328effb2" y="245.025937"/>
     </g>
    </g>
    <g id="text_16">
     <!-- allreduce-butterfly -->
     <g transform="translate(323.807937 248.525937)scale(0.1 -0.1)">
      <use xlink:href="#DejaVuSans-61"/>
      <use x="61.279297" xlink:href="#DejaVuSans-6c"/>
      <use x="89.0625" xlink:href="#DejaVuSans-6c"/>
      <use x="116.845703" xlink:href="#DejaVuSans-72"/>
      <use x="155.708984" xlink:href="#DejaVuSans-65"/>
      <use x="217.232422" xlink:href="#DejaVuSans-64"/>
      <use x="280.708984" xlink:href="#DejaVuSans-75"/>
      <use x="344.087891" xlink:href="#DejaVuSans-63"/>
      <use x="399.068359" xlink:href="#DejaVuSans-65"/>
      <use x="460.591797" xlink:href="#DejaVuSans-2d"/>
      <use x="496.675781" xlink:href="#DejaVuSans-62"/>
      <use x="560.152344" xlink:href="#DejaVuSans-75"/>
      <use x="623.53125" xlink:href="#DejaVuSans-74"/>
      <use x="662.740234" xlink:href="#DejaVuSans-74"/>
      <use x="701.949219" xlink:href="#DejaVuSans-65"/>
      <use x="763.472656" xlink:href="#DejaVuSans-72"/>
      <use x="804.585938" xlink:href="#DejaVuSans-66"/>
      <use x="839.791016" xlink:href="#DejaVuSans-6c"/>
      <use x="867.574219" xlink:href="#DejaVuSans-79"/>
     </g>
    </g>
    <g id="line2d_41">
     <path d="M 295.807937 259.704062 
L 315.807937 259.704062 
" style="fill:none;stroke:#9467bd;stroke-linecap:square;stroke-width:1.5;"/>
    </g>
    <g id="line2d_42">
     <g>
      <use style="fill:#9467bd;stroke:#9467bd;" x="305.807937" xlink:href="#mc5b8e1d3a1" y="259.704062"/>
     </g>
    </g>
    <g id="text_17">
     <!-- allreduce-rabenseifner -->
     <g transform="translate(323.807937 263.204062)scale(0.1 -0.1)">
      <use xlink:href="#DejaVuSans-61"/>
      <use x="61.279297" xlink:href="#DejaVuSans-6c"/>
      <use x="89.0625" xlink:href="#DejaVuSans-6c"/>
      <use x="116.845703" xlink:href="#DejaVuSans-72"/>
      <use x="155.708984" xlink:href="#DejaVuSans-65"/>
      <use x="217.232422" xlink:href="#DejaVuSans-64"/>
      <use x="280.708984" xlink:href="#DejaVuSans-75"/>
      <use x="344.087891" xlink:href="#DejaVuSans-63"/>
      <use x="399.068359" xlink:href="#DejaVuSans-65"/>
      <use x="460.591797" xlink:href="#DejaVuSans-2d"/>
      <use x="496.675781" xlink:href="#DejaVuSans-72"/>
      <use x="537.789062" xlink:href="#DejaVuSans-61"/>
      <use x="599.068359" xlink:href="#DejaVuSans-62"/>
      <use x="662.544922" xlink:href="#DejaVuSans-65"/>
      <use x="724.068359" xlink:href="#DejaVuSans-6e"/>
      <use x="787.447266" xlink:href="#DejaVuSans-73"/>
      <use x="839.546875" xlink:href="#DejaVuSans-65"/>
      <use x="901.070312" xlink:href="#DejaVuSans-69"/>
      <use x="928.853516" xlink:href="#DejaVuSans-66"/>
      <use x="964.058594" xlink:href="#DejaVuSans-6e"/>
      <use x="1027.4375" xlink:href="#DejaVuSans-65"/>
      <use x="1088.960938" xlink:href="#DejaVuSans-72"/>
     </g>
    </g>
    <g id="line2d_43">
     <path d="M 295.807937 274.382187 
L 315.807937 274.382187 
" style="fill:none;stroke:#8c564b;stroke-linecap:square;stroke-width:1.5;"/>
    </g>
    <g id="line2d_44">
     <g>
      <use style="fill:#8c564b;stroke:#8c564b;" x="305.807937" xlink:href="#m43ff5021e2" y="274.382187"/>
     </g>
    </g>
    <g id="text_18">
     <!-- allreduce-ring -->
     <g transform="translate(323.807937 277.882187)scale(0.1 -0.1)">
      <use xlink:href="#DejaVuSans-61"/>
      <use x="61.279297" xlink:href="#DejaVuSans-6c"/>
      <use x="89.0625" xlink:href="#DejaVuSans-6c"/>
      <use x="116.845703" xlink:href="#DejaVuSans-72"/>
      <use x="155.708984" xlink:href="#DejaVuSans-65"/>
      <use x="217.232422" xlink:href="#DejaVuSans-64"/>
      <use x="280.708984" xlink:href="#DejaVuSans-75"/>
      <use x="344.087891" xlink:href="#DejaVuSans-63"/>
      <use x="399.068359" xlink:href="#DejaVuSans-65"/>
      <use x="460.591797" xlink:href="#DejaVuSans-2d"/>
      <use x="496.675781" xlink:href="#DejaVuSans-72"/>
      <use x="537.789062" xlink:href="#DejaVuSans-69"/>
      <use x="565.572266" xlink:href="#DejaVuSans-6e"/>
      <use x="628.951172" xlink:href="#DejaVuSans-67"/>
     </g>
    </g>
    <g id="line2d_45">
     <path d="M 295.807937 289.060313 
L 315.807937 289.060313 
" style="fill:none;stroke:#e377c2;stroke-linecap:square;stroke-width:1.5;"/>
    </g>
    <g id="line2d_46">
     <g>
      <use style="fill:#e377c2;stroke:#e377c2;" x="305.807937" xlink:href="#m342fe6adbd" y="289.060313"/>
     </g>
    </g>
    <g id="text_19">
     <!-- rabenseifner-gather -->
     <g transform="translate(323.807937 292.560313)scale(0.1 -0.1)">
      <use xlink:href="#DejaVuSans-72"/>
      <use x="41.113281" xlink:href="#DejaVuSans-61"/>
      <use x="102.392578" xlink:href="#DejaVuSans-62"/>
      <use x="165.869141" xlink:href="#DejaVuSans-65"/>
      <use x="227.392578" xlink:href="#DejaVuSans-6e"/>
      <use x="290.771484" xlink:href="#DejaVuSans-73"/>
      <use x="342.871094" xlink:href="#DejaVuSans-65"/>
      <use x="404.394531" xlink:href="#DejaVuSans-69"/>
      <use x="432.177734" xlink:href="#DejaVuSans-66"/>
      <use x="467.382812" xlink:href="#DejaVuSans-6e"/>
      <use x="530.761719" xlink:href="#DejaVuSans-65"/>
      <use x="592.285156" xlink:href="#DejaVuSans-72"/>
      <use x="627.023438" xlink:href="#DejaVuSans-2d"/>
      <use x="663.107422" xlink:href="#DejaVuSans-67"/>
      <use x="726.583984" xlink:href="#DejaVuSans-61"/>
      <use x="787.863281" xlink:href="#DejaVuSans-74"/>
      <use x="827.072266" xlink:href="#DejaVuSans-68"/>
      <use x="890.451172" xlink:href="#DejaVuSans-65"/>
      <use x="951.974609" xlink:href="#DejaVuSans-72"/>
     </g>
    </g>
   </g>
  </g>
 </g>
 <defs>
  <clipPath id="pecbec559ee">
   <rect height="276.76" width="389.820258" x="55.997054" y="26.88"/>
  </clipPath>
 </defs>
</svg>
