<?xml version="1.0" encoding="utf-8" standalone="no"?>
<!DOCTYPE svg PUBLIC "-//W3C//DTD SVG 1.1//EN"
  "http://www.w3.org/Graphics/SVG/1.1/DTD/svg11.dtd">
<svg height="345.6pt" version="1.1" viewBox="0 0 460.8 345.6" width="460.8pt" xmlns="http://www.w3.org/2000/svg" xmlns:xlink="http://www.w3.org/1999/xlink">
 <metadata>
  <rdf:RDF xmlns:cc="http://creativecommons.org/ns#" xmlns:dc="http://purl.org/dc/elements/1.1/" xmlns:rdf="http://www.w3.org/1999/02/22-rdf-syntax-ns#">
   <cc:Work>
    <dc:type rdf:resource="http://purl.org/dc/dcmitype/StillImage"/>
    <dc:date>2021-12-01T11:06:28.429278</dc:date>
    <dc:format>image/svg+xml</dc:format>
    <dc:creator>
     <cc:Agent>
      <dc:title>Matplotlib v3.4.3, https://matplotlib.org/</dc:title>
     </cc:Agent>
    </dc:creator>
   </cc:Work>
  </rdf:RDF>
 </metadata>
 <defs>
  <style type="text/css">*{stroke-linecap:butt;stroke-linejoin:round;}</style>
 </defs>
 <g id="figure_1">
  <g id="patch_1">
   <path d="M 0 345.6 
L 460.8 345.6 
L 460.8 0 
L 0 0 
z
" style="fill:#ffffff;"/>
  </g>
  <g id="axes_1">
   <g id="patch_2">
    <path d="M 59.497017 298.20375 
L 447.84 298.20375 
L 447.84 27.65625 
L 59.497017 27.65625 
z
" style="fill:#eaeaf2;"/>
   </g>
   <g id="matplotlib.axis_1">
    <g id="xtick_1">
     <g id="line2d_1">
      <path clip-path="url(#p8eb6636d5b)" d="M 77.148971 298.20375 
L 77.148971 27.65625 
" style="fill:none;stroke:#ffffff;stroke-linecap:round;"/>
     </g>
     <g id="text_1">
      <!-- 1000 -->
      <g style="fill:#262626;" transform="translate(64.914908 315.577344)scale(0.11 -0.11)">
       <defs>
        <path d="M 2384 0 
L 1822 0 
L 1822 3584 
Q 1619 3391 1289 3197 
Q 959 3003 697 2906 
L 697 3450 
Q 1169 3672 1522 3987 
Q 1875 4303 2022 4600 
L 2384 4600 
L 2384 0 
z
" id="ArialMT-31" transform="scale(0.015625)"/>
        <path d="M 266 2259 
Q 266 3072 433 3567 
Q 600 4063 929 4331 
Q 1259 4600 1759 4600 
Q 2128 4600 2406 4451 
Q 2684 4303 2865 4023 
Q 3047 3744 3150 3342 
Q 3253 2941 3253 2259 
Q 3253 1453 3087 958 
Q 2922 463 2592 192 
Q 2263 -78 1759 -78 
Q 1097 -78 719 397 
Q 266 969 266 2259 
z
M 844 2259 
Q 844 1131 1108 757 
Q 1372 384 1759 384 
Q 2147 384 2411 759 
Q 2675 1134 2675 2259 
Q 2675 3391 2411 3762 
Q 2147 4134 1753 4134 
Q 1366 4134 1134 3806 
Q 844 3388 844 2259 
z
" id="ArialMT-30" transform="scale(0.015625)"/>
       </defs>
       <use xlink:href="#ArialMT-31"/>
       <use x="55.615234" xlink:href="#ArialMT-30"/>
       <use x="111.230469" xlink:href="#ArialMT-30"/>
       <use x="166.845703" xlink:href="#ArialMT-30"/>
      </g>
     </g>
    </g>
    <g id="xtick_2">
     <g id="line2d_2">
      <path clip-path="url(#p8eb6636d5b)" d="M 127.583125 298.20375 
L 127.583125 27.65625 
" style="fill:none;stroke:#ffffff;stroke-linecap:round;"/>
     </g>
     <g id="text_2">
      <!-- 2000 -->
      <g style="fill:#262626;" transform="translate(115.349062 315.577344)scale(0.11 -0.11)">
       <defs>
        <path d="M 3222 541 
L 3222 0 
L 194 0 
Q 188 203 259 391 
Q 375 700 629 1000 
Q 884 1300 1366 1694 
Q 2113 2306 2375 2664 
Q 2638 3022 2638 3341 
Q 2638 3675 2398 3904 
Q 2159 4134 1775 4134 
Q 1369 4134 1125 3890 
Q 881 3647 878 3216 
L 300 3275 
Q 359 3922 746 4261 
Q 1134 4600 1788 4600 
Q 2447 4600 2831 4234 
Q 3216 3869 3216 3328 
Q 3216 3053 3103 2787 
Q 2991 2522 2730 2228 
Q 2469 1934 1863 1422 
Q 1356 997 1212 845 
Q 1069 694 975 541 
L 3222 541 
z
" id="ArialMT-32" transform="scale(0.015625)"/>
       </defs>
       <use xlink:href="#ArialMT-32"/>
       <use x="55.615234" xlink:href="#ArialMT-30"/>
       <use x="111.230469" xlink:href="#ArialMT-30"/>
       <use x="166.845703" xlink:href="#ArialMT-30"/>
      </g>
     </g>
    </g>
    <g id="xtick_3">
     <g id="line2d_3">
      <path clip-path="url(#p8eb6636d5b)" d="M 178.017278 298.20375 
L 178.017278 27.65625 
" style="fill:none;stroke:#ffffff;stroke-linecap:round;"/>
     </g>
     <g id="text_3">
      <!-- 3000 -->
      <g style="fill:#262626;" transform="translate(165.783216 315.577344)scale(0.11 -0.11)">
       <defs>
        <path d="M 269 1209 
L 831 1284 
Q 928 806 1161 595 
Q 1394 384 1728 384 
Q 2125 384 2398 659 
Q 2672 934 2672 1341 
Q 2672 1728 2419 1979 
Q 2166 2231 1775 2231 
Q 1616 2231 1378 2169 
L 1441 2663 
Q 1497 2656 1531 2656 
Q 1891 2656 2178 2843 
Q 2466 3031 2466 3422 
Q 2466 3731 2256 3934 
Q 2047 4138 1716 4138 
Q 1388 4138 1169 3931 
Q 950 3725 888 3313 
L 325 3413 
Q 428 3978 793 4289 
Q 1159 4600 1703 4600 
Q 2078 4600 2393 4439 
Q 2709 4278 2876 4000 
Q 3044 3722 3044 3409 
Q 3044 3113 2884 2869 
Q 2725 2625 2413 2481 
Q 2819 2388 3044 2092 
Q 3269 1797 3269 1353 
Q 3269 753 2831 336 
Q 2394 -81 1725 -81 
Q 1122 -81 723 278 
Q 325 638 269 1209 
z
" id="ArialMT-33" transform="scale(0.015625)"/>
       </defs>
       <use xlink:href="#ArialMT-33"/>
       <use x="55.615234" xlink:href="#ArialMT-30"/>
       <use x="111.230469" xlink:href="#ArialMT-30"/>
       <use x="166.845703" xlink:href="#ArialMT-30"/>
      </g>
     </g>
    </g>
    <g id="xtick_4">
     <g id="line2d_4">
      <path clip-path="url(#p8eb6636d5b)" d="M 228.451432 298.20375 
L 228.451432 27.65625 
" style="fill:none;stroke:#ffffff;stroke-linecap:round;"/>
     </g>
     <g id="text_4">
      <!-- 4000 -->
      <g style="fill:#262626;" transform="translate(216.217369 315.577344)scale(0.11 -0.11)">
       <defs>
        <path d="M 2069 0 
L 2069 1097 
L 81 1097 
L 81 1613 
L 2172 4581 
L 2631 4581 
L 2631 1613 
L 3250 1613 
L 3250 1097 
L 2631 1097 
L 2631 0 
L 2069 0 
z
M 2069 1613 
L 2069 3678 
L 634 1613 
L 2069 1613 
z
" id="ArialMT-34" transform="scale(0.015625)"/>
       </defs>
       <use xlink:href="#ArialMT-34"/>
       <use x="55.615234" xlink:href="#ArialMT-30"/>
       <use x="111.230469" xlink:href="#ArialMT-30"/>
       <use x="166.845703" xlink:href="#ArialMT-30"/>
      </g>
     </g>
    </g>
    <g id="xtick_5">
     <g id="line2d_5">
      <path clip-path="url(#p8eb6636d5b)" d="M 278.885585 298.20375 
L 278.885585 27.65625 
" style="fill:none;stroke:#ffffff;stroke-linecap:round;"/>
     </g>
     <g id="text_5">
      <!-- 5000 -->
      <g style="fill:#262626;" transform="translate(266.651523 315.577344)scale(0.11 -0.11)">
       <defs>
        <path d="M 266 1200 
L 856 1250 
Q 922 819 1161 601 
Q 1400 384 1738 384 
Q 2144 384 2425 690 
Q 2706 997 2706 1503 
Q 2706 1984 2436 2262 
Q 2166 2541 1728 2541 
Q 1456 2541 1237 2417 
Q 1019 2294 894 2097 
L 366 2166 
L 809 4519 
L 3088 4519 
L 3088 3981 
L 1259 3981 
L 1013 2750 
Q 1425 3038 1878 3038 
Q 2478 3038 2890 2622 
Q 3303 2206 3303 1553 
Q 3303 931 2941 478 
Q 2500 -78 1738 -78 
Q 1113 -78 717 272 
Q 322 622 266 1200 
z
" id="ArialMT-35" transform="scale(0.015625)"/>
       </defs>
       <use xlink:href="#ArialMT-35"/>
       <use x="55.615234" xlink:href="#ArialMT-30"/>
       <use x="111.230469" xlink:href="#ArialMT-30"/>
       <use x="166.845703" xlink:href="#ArialMT-30"/>
      </g>
     </g>
    </g>
    <g id="xtick_6">
     <g id="line2d_6">
      <path clip-path="url(#p8eb6636d5b)" d="M 329.319739 298.20375 
L 329.319739 27.65625 
" style="fill:none;stroke:#ffffff;stroke-linecap:round;"/>
     </g>
     <g id="text_6">
      <!-- 6000 -->
      <g style="fill:#262626;" transform="translate(317.085677 315.577344)scale(0.11 -0.11)">
       <defs>
        <path d="M 3184 3459 
L 2625 3416 
Q 2550 3747 2413 3897 
Q 2184 4138 1850 4138 
Q 1581 4138 1378 3988 
Q 1113 3794 959 3422 
Q 806 3050 800 2363 
Q 1003 2672 1297 2822 
Q 1591 2972 1913 2972 
Q 2475 2972 2870 2558 
Q 3266 2144 3266 1488 
Q 3266 1056 3080 686 
Q 2894 316 2569 119 
Q 2244 -78 1831 -78 
Q 1128 -78 684 439 
Q 241 956 241 2144 
Q 241 3472 731 4075 
Q 1159 4600 1884 4600 
Q 2425 4600 2770 4297 
Q 3116 3994 3184 3459 
z
M 888 1484 
Q 888 1194 1011 928 
Q 1134 663 1356 523 
Q 1578 384 1822 384 
Q 2178 384 2434 671 
Q 2691 959 2691 1453 
Q 2691 1928 2437 2201 
Q 2184 2475 1800 2475 
Q 1419 2475 1153 2201 
Q 888 1928 888 1484 
z
" id="ArialMT-36" transform="scale(0.015625)"/>
       </defs>
       <use xlink:href="#ArialMT-36"/>
       <use x="55.615234" xlink:href="#ArialMT-30"/>
       <use x="111.230469" xlink:href="#ArialMT-30"/>
       <use x="166.845703" xlink:href="#ArialMT-30"/>
      </g>
     </g>
    </g>
    <g id="xtick_7">
     <g id="line2d_7">
      <path clip-path="url(#p8eb6636d5b)" d="M 379.753893 298.20375 
L 379.753893 27.65625 
" style="fill:none;stroke:#ffffff;stroke-linecap:round;"/>
     </g>
     <g id="text_7">
      <!-- 7000 -->
      <g style="fill:#262626;" transform="translate(367.51983 315.577344)scale(0.11 -0.11)">
       <defs>
        <path d="M 303 3981 
L 303 4522 
L 3269 4522 
L 3269 4084 
Q 2831 3619 2401 2847 
Q 1972 2075 1738 1259 
Q 1569 684 1522 0 
L 944 0 
Q 953 541 1156 1306 
Q 1359 2072 1739 2783 
Q 2119 3494 2547 3981 
L 303 3981 
z
" id="ArialMT-37" transform="scale(0.015625)"/>
       </defs>
       <use xlink:href="#ArialMT-37"/>
       <use x="55.615234" xlink:href="#ArialMT-30"/>
       <use x="111.230469" xlink:href="#ArialMT-30"/>
       <use x="166.845703" xlink:href="#ArialMT-30"/>
      </g>
     </g>
    </g>
    <g id="xtick_8">
     <g id="line2d_8">
      <path clip-path="url(#p8eb6636d5b)" d="M 430.188046 298.20375 
L 430.188046 27.65625 
" style="fill:none;stroke:#ffffff;stroke-linecap:round;"/>
     </g>
     <g id="text_8">
      <!-- 8000 -->
      <g style="fill:#262626;" transform="translate(417.953984 315.577344)scale(0.11 -0.11)">
       <defs>
        <path d="M 1131 2484 
Q 781 2613 612 2850 
Q 444 3088 444 3419 
Q 444 3919 803 4259 
Q 1163 4600 1759 4600 
Q 2359 4600 2725 4251 
Q 3091 3903 3091 3403 
Q 3091 3084 2923 2848 
Q 2756 2613 2416 2484 
Q 2838 2347 3058 2040 
Q 3278 1734 3278 1309 
Q 3278 722 2862 322 
Q 2447 -78 1769 -78 
Q 1091 -78 675 323 
Q 259 725 259 1325 
Q 259 1772 486 2073 
Q 713 2375 1131 2484 
z
M 1019 3438 
Q 1019 3113 1228 2906 
Q 1438 2700 1772 2700 
Q 2097 2700 2305 2904 
Q 2513 3109 2513 3406 
Q 2513 3716 2298 3927 
Q 2084 4138 1766 4138 
Q 1444 4138 1231 3931 
Q 1019 3725 1019 3438 
z
M 838 1322 
Q 838 1081 952 856 
Q 1066 631 1291 507 
Q 1516 384 1775 384 
Q 2178 384 2440 643 
Q 2703 903 2703 1303 
Q 2703 1709 2433 1975 
Q 2163 2241 1756 2241 
Q 1359 2241 1098 1978 
Q 838 1716 838 1322 
z
" id="ArialMT-38" transform="scale(0.015625)"/>
       </defs>
       <use xlink:href="#ArialMT-38"/>
       <use x="55.615234" xlink:href="#ArialMT-30"/>
       <use x="111.230469" xlink:href="#ArialMT-30"/>
       <use x="166.845703" xlink:href="#ArialMT-30"/>
      </g>
     </g>
    </g>
    <g id="text_9">
     <!-- Input Dimension -->
     <g style="fill:#262626;" transform="translate(210.314759 330.352969)scale(0.12 -0.12)">
      <defs>
       <path d="M 597 0 
L 597 4581 
L 1203 4581 
L 1203 0 
L 597 0 
z
" id="ArialMT-49" transform="scale(0.015625)"/>
       <path d="M 422 0 
L 422 3319 
L 928 3319 
L 928 2847 
Q 1294 3394 1984 3394 
Q 2284 3394 2536 3286 
Q 2788 3178 2913 3003 
Q 3038 2828 3088 2588 
Q 3119 2431 3119 2041 
L 3119 0 
L 2556 0 
L 2556 2019 
Q 2556 2363 2490 2533 
Q 2425 2703 2258 2804 
Q 2091 2906 1866 2906 
Q 1506 2906 1245 2678 
Q 984 2450 984 1813 
L 984 0 
L 422 0 
z
" id="ArialMT-6e" transform="scale(0.015625)"/>
       <path d="M 422 -1272 
L 422 3319 
L 934 3319 
L 934 2888 
Q 1116 3141 1344 3267 
Q 1572 3394 1897 3394 
Q 2322 3394 2647 3175 
Q 2972 2956 3137 2557 
Q 3303 2159 3303 1684 
Q 3303 1175 3120 767 
Q 2938 359 2589 142 
Q 2241 -75 1856 -75 
Q 1575 -75 1351 44 
Q 1128 163 984 344 
L 984 -1272 
L 422 -1272 
z
M 931 1641 
Q 931 1000 1190 694 
Q 1450 388 1819 388 
Q 2194 388 2461 705 
Q 2728 1022 2728 1688 
Q 2728 2322 2467 2637 
Q 2206 2953 1844 2953 
Q 1484 2953 1207 2617 
Q 931 2281 931 1641 
z
" id="ArialMT-70" transform="scale(0.015625)"/>
       <path d="M 2597 0 
L 2597 488 
Q 2209 -75 1544 -75 
Q 1250 -75 995 37 
Q 741 150 617 320 
Q 494 491 444 738 
Q 409 903 409 1263 
L 409 3319 
L 972 3319 
L 972 1478 
Q 972 1038 1006 884 
Q 1059 663 1231 536 
Q 1403 409 1656 409 
Q 1909 409 2131 539 
Q 2353 669 2445 892 
Q 2538 1116 2538 1541 
L 2538 3319 
L 3100 3319 
L 3100 0 
L 2597 0 
z
" id="ArialMT-75" transform="scale(0.015625)"/>
       <path d="M 1650 503 
L 1731 6 
Q 1494 -44 1306 -44 
Q 1000 -44 831 53 
Q 663 150 594 308 
Q 525 466 525 972 
L 525 2881 
L 113 2881 
L 113 3319 
L 525 3319 
L 525 4141 
L 1084 4478 
L 1084 3319 
L 1650 3319 
L 1650 2881 
L 1084 2881 
L 1084 941 
Q 1084 700 1114 631 
Q 1144 563 1211 522 
Q 1278 481 1403 481 
Q 1497 481 1650 503 
z
" id="ArialMT-74" transform="scale(0.015625)"/>
       <path id="ArialMT-20" transform="scale(0.015625)"/>
       <path d="M 494 0 
L 494 4581 
L 2072 4581 
Q 2606 4581 2888 4516 
Q 3281 4425 3559 4188 
Q 3922 3881 4101 3404 
Q 4281 2928 4281 2316 
Q 4281 1794 4159 1391 
Q 4038 988 3847 723 
Q 3656 459 3429 307 
Q 3203 156 2883 78 
Q 2563 0 2147 0 
L 494 0 
z
M 1100 541 
L 2078 541 
Q 2531 541 2789 625 
Q 3047 709 3200 863 
Q 3416 1078 3536 1442 
Q 3656 1806 3656 2325 
Q 3656 3044 3420 3430 
Q 3184 3816 2847 3947 
Q 2603 4041 2063 4041 
L 1100 4041 
L 1100 541 
z
" id="ArialMT-44" transform="scale(0.015625)"/>
       <path d="M 425 3934 
L 425 4581 
L 988 4581 
L 988 3934 
L 425 3934 
z
M 425 0 
L 425 3319 
L 988 3319 
L 988 0 
L 425 0 
z
" id="ArialMT-69" transform="scale(0.015625)"/>
       <path d="M 422 0 
L 422 3319 
L 925 3319 
L 925 2853 
Q 1081 3097 1340 3245 
Q 1600 3394 1931 3394 
Q 2300 3394 2536 3241 
Q 2772 3088 2869 2813 
Q 3263 3394 3894 3394 
Q 4388 3394 4653 3120 
Q 4919 2847 4919 2278 
L 4919 0 
L 4359 0 
L 4359 2091 
Q 4359 2428 4304 2576 
Q 4250 2725 4106 2815 
Q 3963 2906 3769 2906 
Q 3419 2906 3187 2673 
Q 2956 2441 2956 1928 
L 2956 0 
L 2394 0 
L 2394 2156 
Q 2394 2531 2256 2718 
Q 2119 2906 1806 2906 
Q 1569 2906 1367 2781 
Q 1166 2656 1075 2415 
Q 984 2175 984 1722 
L 984 0 
L 422 0 
z
" id="ArialMT-6d" transform="scale(0.015625)"/>
       <path d="M 2694 1069 
L 3275 997 
Q 3138 488 2766 206 
Q 2394 -75 1816 -75 
Q 1088 -75 661 373 
Q 234 822 234 1631 
Q 234 2469 665 2931 
Q 1097 3394 1784 3394 
Q 2450 3394 2872 2941 
Q 3294 2488 3294 1666 
Q 3294 1616 3291 1516 
L 816 1516 
Q 847 969 1125 678 
Q 1403 388 1819 388 
Q 2128 388 2347 550 
Q 2566 713 2694 1069 
z
M 847 1978 
L 2700 1978 
Q 2663 2397 2488 2606 
Q 2219 2931 1791 2931 
Q 1403 2931 1139 2672 
Q 875 2413 847 1978 
z
" id="ArialMT-65" transform="scale(0.015625)"/>
       <path d="M 197 991 
L 753 1078 
Q 800 744 1014 566 
Q 1228 388 1613 388 
Q 2000 388 2187 545 
Q 2375 703 2375 916 
Q 2375 1106 2209 1216 
Q 2094 1291 1634 1406 
Q 1016 1563 777 1677 
Q 538 1791 414 1992 
Q 291 2194 291 2438 
Q 291 2659 392 2848 
Q 494 3038 669 3163 
Q 800 3259 1026 3326 
Q 1253 3394 1513 3394 
Q 1903 3394 2198 3281 
Q 2494 3169 2634 2976 
Q 2775 2784 2828 2463 
L 2278 2388 
Q 2241 2644 2061 2787 
Q 1881 2931 1553 2931 
Q 1166 2931 1000 2803 
Q 834 2675 834 2503 
Q 834 2394 903 2306 
Q 972 2216 1119 2156 
Q 1203 2125 1616 2013 
Q 2213 1853 2448 1751 
Q 2684 1650 2818 1456 
Q 2953 1263 2953 975 
Q 2953 694 2789 445 
Q 2625 197 2315 61 
Q 2006 -75 1616 -75 
Q 969 -75 630 194 
Q 291 463 197 991 
z
" id="ArialMT-73" transform="scale(0.015625)"/>
       <path d="M 213 1659 
Q 213 2581 725 3025 
Q 1153 3394 1769 3394 
Q 2453 3394 2887 2945 
Q 3322 2497 3322 1706 
Q 3322 1066 3130 698 
Q 2938 331 2570 128 
Q 2203 -75 1769 -75 
Q 1072 -75 642 372 
Q 213 819 213 1659 
z
M 791 1659 
Q 791 1022 1069 705 
Q 1347 388 1769 388 
Q 2188 388 2466 706 
Q 2744 1025 2744 1678 
Q 2744 2294 2464 2611 
Q 2184 2928 1769 2928 
Q 1347 2928 1069 2612 
Q 791 2297 791 1659 
z
" id="ArialMT-6f" transform="scale(0.015625)"/>
      </defs>
      <use xlink:href="#ArialMT-49"/>
      <use x="27.783203" xlink:href="#ArialMT-6e"/>
      <use x="83.398438" xlink:href="#ArialMT-70"/>
      <use x="139.013672" xlink:href="#ArialMT-75"/>
      <use x="194.628906" xlink:href="#ArialMT-74"/>
      <use x="222.412109" xlink:href="#ArialMT-20"/>
      <use x="250.195312" xlink:href="#ArialMT-44"/>
      <use x="322.412109" xlink:href="#ArialMT-69"/>
      <use x="344.628906" xlink:href="#ArialMT-6d"/>
      <use x="427.929688" xlink:href="#ArialMT-65"/>
      <use x="483.544922" xlink:href="#ArialMT-6e"/>
      <use x="539.160156" xlink:href="#ArialMT-73"/>
      <use x="589.160156" xlink:href="#ArialMT-69"/>
      <use x="611.376953" xlink:href="#ArialMT-6f"/>
      <use x="666.992188" xlink:href="#ArialMT-6e"/>
     </g>
    </g>
   </g>
   <g id="matplotlib.axis_2">
    <g id="ytick_1">
     <g id="line2d_9">
      <path clip-path="url(#p8eb6636d5b)" d="M 59.497017 297.023507 
L 447.84 297.023507 
" style="fill:none;stroke:#ffffff;stroke-linecap:round;"/>
     </g>
     <g id="text_10">
      <!-- $\mathdefault{10^{-2}}$ -->
      <g style="fill:#262626;" transform="translate(28.217017 302.695382)scale(0.11 -0.11)">
       <defs>
        <path d="M 3381 1997 
L 356 1997 
L 356 2522 
L 3381 2522 
L 3381 1997 
z
" id="ArialMT-2212" transform="scale(0.015625)"/>
       </defs>
       <use transform="translate(0 0.99375)" xlink:href="#ArialMT-31"/>
       <use transform="translate(55.615234 0.99375)" xlink:href="#ArialMT-30"/>
       <use transform="translate(112.972813 70.6875)scale(0.7)" xlink:href="#ArialMT-2212"/>
       <use transform="translate(153.851719 70.6875)scale(0.7)" xlink:href="#ArialMT-32"/>
      </g>
     </g>
    </g>
    <g id="ytick_2">
     <g id="line2d_10">
      <path clip-path="url(#p8eb6636d5b)" d="M 59.497017 224.393014 
L 447.84 224.393014 
" style="fill:none;stroke:#ffffff;stroke-linecap:round;"/>
     </g>
     <g id="text_11">
      <!-- $\mathdefault{10^{-1}}$ -->
      <g style="fill:#262626;" transform="translate(28.217017 230.064889)scale(0.11 -0.11)">
       <use transform="translate(0 0.99375)" xlink:href="#ArialMT-31"/>
       <use transform="translate(55.615234 0.99375)" xlink:href="#ArialMT-30"/>
       <use transform="translate(112.972813 70.6875)scale(0.7)" xlink:href="#ArialMT-2212"/>
       <use transform="translate(153.851719 70.6875)scale(0.7)" xlink:href="#ArialMT-31"/>
      </g>
     </g>
    </g>
    <g id="ytick_3">
     <g id="line2d_11">
      <path clip-path="url(#p8eb6636d5b)" d="M 59.497017 151.762521 
L 447.84 151.762521 
" style="fill:none;stroke:#ffffff;stroke-linecap:round;"/>
     </g>
     <g id="text_12">
      <!-- $\mathdefault{10^{0}}$ -->
      <g style="fill:#262626;" transform="translate(32.727017 157.434396)scale(0.11 -0.11)">
       <use transform="translate(0 0.99375)" xlink:href="#ArialMT-31"/>
       <use transform="translate(55.615234 0.99375)" xlink:href="#ArialMT-30"/>
       <use transform="translate(112.972813 70.6875)scale(0.7)" xlink:href="#ArialMT-30"/>
      </g>
     </g>
    </g>
    <g id="ytick_4">
     <g id="line2d_12">
      <path clip-path="url(#p8eb6636d5b)" d="M 59.497017 79.132028 
L 447.84 79.132028 
" style="fill:none;stroke:#ffffff;stroke-linecap:round;"/>
     </g>
     <g id="text_13">
      <!-- $\mathdefault{10^{1}}$ -->
      <g style="fill:#262626;" transform="translate(32.727017 84.803903)scale(0.11 -0.11)">
       <use transform="translate(0 0.99375)" xlink:href="#ArialMT-31"/>
       <use transform="translate(55.615234 0.99375)" xlink:href="#ArialMT-30"/>
       <use transform="translate(112.972813 70.6875)scale(0.7)" xlink:href="#ArialMT-31"/>
      </g>
     </g>
    </g>
    <g id="ytick_5"/>
    <g id="ytick_6"/>
    <g id="ytick_7"/>
    <g id="ytick_8"/>
    <g id="ytick_9"/>
    <g id="ytick_10"/>
    <g id="ytick_11"/>
    <g id="ytick_12"/>
    <g id="ytick_13"/>
    <g id="ytick_14"/>
    <g id="ytick_15"/>
    <g id="ytick_16"/>
    <g id="ytick_17"/>
    <g id="ytick_18"/>
    <g id="ytick_19"/>
    <g id="ytick_20"/>
    <g id="ytick_21"/>
    <g id="ytick_22"/>
    <g id="ytick_23"/>
    <g id="ytick_24"/>
    <g id="ytick_25"/>
    <g id="ytick_26"/>
    <g id="ytick_27"/>
    <g id="ytick_28"/>
    <g id="ytick_29"/>
    <g id="ytick_30"/>
    <g id="ytick_31"/>
    <g id="ytick_32"/>
    <g id="text_14">
     <!-- Runtime (s) -->
     <g style="fill:#262626;" transform="translate(21.691392 193.933125)rotate(-90)scale(0.12 -0.12)">
      <defs>
       <path d="M 503 0 
L 503 4581 
L 2534 4581 
Q 3147 4581 3465 4457 
Q 3784 4334 3975 4021 
Q 4166 3709 4166 3331 
Q 4166 2844 3850 2509 
Q 3534 2175 2875 2084 
Q 3116 1969 3241 1856 
Q 3506 1613 3744 1247 
L 4541 0 
L 3778 0 
L 3172 953 
Q 2906 1366 2734 1584 
Q 2563 1803 2427 1890 
Q 2291 1978 2150 2013 
Q 2047 2034 1813 2034 
L 1109 2034 
L 1109 0 
L 503 0 
z
M 1109 2559 
L 2413 2559 
Q 2828 2559 3062 2645 
Q 3297 2731 3419 2920 
Q 3541 3109 3541 3331 
Q 3541 3656 3305 3865 
Q 3069 4075 2559 4075 
L 1109 4075 
L 1109 2559 
z
" id="ArialMT-52" transform="scale(0.015625)"/>
       <path d="M 1497 -1347 
Q 1031 -759 709 28 
Q 388 816 388 1659 
Q 388 2403 628 3084 
Q 909 3875 1497 4659 
L 1900 4659 
Q 1522 4009 1400 3731 
Q 1209 3300 1100 2831 
Q 966 2247 966 1656 
Q 966 153 1900 -1347 
L 1497 -1347 
z
" id="ArialMT-28" transform="scale(0.015625)"/>
       <path d="M 791 -1347 
L 388 -1347 
Q 1322 153 1322 1656 
Q 1322 2244 1188 2822 
Q 1081 3291 891 3722 
Q 769 4003 388 4659 
L 791 4659 
Q 1378 3875 1659 3084 
Q 1900 2403 1900 1659 
Q 1900 816 1576 28 
Q 1253 -759 791 -1347 
z
" id="ArialMT-29" transform="scale(0.015625)"/>
      </defs>
      <use xlink:href="#ArialMT-52"/>
      <use x="72.216797" xlink:href="#ArialMT-75"/>
      <use x="127.832031" xlink:href="#ArialMT-6e"/>
      <use x="183.447266" xlink:href="#ArialMT-74"/>
      <use x="211.230469" xlink:href="#ArialMT-69"/>
      <use x="233.447266" xlink:href="#ArialMT-6d"/>
      <use x="316.748047" xlink:href="#ArialMT-65"/>
      <use x="372.363281" xlink:href="#ArialMT-20"/>
      <use x="400.146484" xlink:href="#ArialMT-28"/>
      <use x="433.447266" xlink:href="#ArialMT-73"/>
      <use x="483.447266" xlink:href="#ArialMT-29"/>
     </g>
    </g>
   </g>
   <g id="line2d_13">
    <path clip-path="url(#p8eb6636d5b)" d="M 77.148971 258.267379 
L 102.366048 258.485545 
L 127.583125 239.653092 
L 152.800201 217.119579 
L 178.017278 204.735591 
L 203.234355 195.080714 
L 228.451432 187.142982 
L 253.668509 179.857806 
L 278.885585 173.087094 
L 304.102662 167.045685 
L 329.319739 161.222649 
L 354.536816 156.860317 
L 379.753893 151.857672 
L 404.970969 147.755738 
L 430.188046 143.841384 
" style="fill:none;stroke:#4c72b0;stroke-linecap:round;stroke-width:1.5;"/>
    <defs>
     <path d="M 0 3 
C 0.795609 3 1.55874 2.683901 2.12132 2.12132 
C 2.683901 1.55874 3 0.795609 3 0 
C 3 -0.795609 2.683901 -1.55874 2.12132 -2.12132 
C 1.55874 -2.683901 0.795609 -3 0 -3 
C -0.795609 -3 -1.55874 -2.683901 -2.12132 -2.12132 
C -2.683901 -1.55874 -3 -0.795609 -3 0 
C -3 0.795609 -2.683901 1.55874 -2.12132 2.12132 
C -1.55874 2.683901 -0.795609 3 0 3 
z
" id="mb93f02b05f" style="stroke:#4c72b0;"/>
    </defs>
    <g clip-path="url(#p8eb6636d5b)">
     <use style="fill:#4c72b0;stroke:#4c72b0;" x="77.148971" xlink:href="#mb93f02b05f" y="258.267379"/>
     <use style="fill:#4c72b0;stroke:#4c72b0;" x="102.366048" xlink:href="#mb93f02b05f" y="258.485545"/>
     <use style="fill:#4c72b0;stroke:#4c72b0;" x="127.583125" xlink:href="#mb93f02b05f" y="239.653092"/>
     <use style="fill:#4c72b0;stroke:#4c72b0;" x="152.800201" xlink:href="#mb93f02b05f" y="217.119579"/>
     <use style="fill:#4c72b0;stroke:#4c72b0;" x="178.017278" xlink:href="#mb93f02b05f" y="204.735591"/>
     <use style="fill:#4c72b0;stroke:#4c72b0;" x="203.234355" xlink:href="#mb93f02b05f" y="195.080714"/>
     <use style="fill:#4c72b0;stroke:#4c72b0;" x="228.451432" xlink:href="#mb93f02b05f" y="187.142982"/>
     <use style="fill:#4c72b0;stroke:#4c72b0;" x="253.668509" xlink:href="#mb93f02b05f" y="179.857806"/>
     <use style="fill:#4c72b0;stroke:#4c72b0;" x="278.885585" xlink:href="#mb93f02b05f" y="173.087094"/>
     <use style="fill:#4c72b0;stroke:#4c72b0;" x="304.102662" xlink:href="#mb93f02b05f" y="167.045685"/>
     <use style="fill:#4c72b0;stroke:#4c72b0;" x="329.319739" xlink:href="#mb93f02b05f" y="161.222649"/>
     <use style="fill:#4c72b0;stroke:#4c72b0;" x="354.536816" xlink:href="#mb93f02b05f" y="156.860317"/>
     <use style="fill:#4c72b0;stroke:#4c72b0;" x="379.753893" xlink:href="#mb93f02b05f" y="151.857672"/>
     <use style="fill:#4c72b0;stroke:#4c72b0;" x="404.970969" xlink:href="#mb93f02b05f" y="147.755738"/>
     <use style="fill:#4c72b0;stroke:#4c72b0;" x="430.188046" xlink:href="#mb93f02b05f" y="143.841384"/>
    </g>
   </g>
   <g id="line2d_14">
    <path clip-path="url(#p8eb6636d5b)" d="M 77.148971 263.270629 
L 102.366048 244.894817 
L 127.583125 224.424889 
L 152.800201 207.625629 
L 178.017278 195.662434 
L 203.234355 186.205549 
L 228.451432 177.388121 
L 253.668509 170.017549 
L 278.885585 162.70136 
L 304.102662 136.836056 
L 329.319739 151.765928 
L 354.536816 147.306112 
L 379.753893 142.451937 
L 404.970969 138.38242 
L 430.188046 134.048604 
" style="fill:none;stroke:#dd8452;stroke-linecap:round;stroke-width:1.5;"/>
    <defs>
     <path d="M 0 3 
C 0.795609 3 1.55874 2.683901 2.12132 2.12132 
C 2.683901 1.55874 3 0.795609 3 0 
C 3 -0.795609 2.683901 -1.55874 2.12132 -2.12132 
C 1.55874 -2.683901 0.795609 -3 0 -3 
C -0.795609 -3 -1.55874 -2.683901 -2.12132 -2.12132 
C -2.683901 -1.55874 -3 -0.795609 -3 0 
C -3 0.795609 -2.683901 1.55874 -2.12132 2.12132 
C -1.55874 2.683901 -0.795609 3 0 3 
z
" id="mc1de534a8e" style="stroke:#dd8452;"/>
    </defs>
    <g clip-path="url(#p8eb6636d5b)">
     <use style="fill:#dd8452;stroke:#dd8452;" x="77.148971" xlink:href="#mc1de534a8e" y="263.270629"/>
     <use style="fill:#dd8452;stroke:#dd8452;" x="102.366048" xlink:href="#mc1de534a8e" y="244.894817"/>
     <use style="fill:#dd8452;stroke:#dd8452;" x="127.583125" xlink:href="#mc1de534a8e" y="224.424889"/>
     <use style="fill:#dd8452;stroke:#dd8452;" x="152.800201" xlink:href="#mc1de534a8e" y="207.625629"/>
     <use style="fill:#dd8452;stroke:#dd8452;" x="178.017278" xlink:href="#mc1de534a8e" y="195.662434"/>
     <use style="fill:#dd8452;stroke:#dd8452;" x="203.234355" xlink:href="#mc1de534a8e" y="186.205549"/>
     <use style="fill:#dd8452;stroke:#dd8452;" x="228.451432" xlink:href="#mc1de534a8e" y="177.388121"/>
     <use style="fill:#dd8452;stroke:#dd8452;" x="253.668509" xlink:href="#mc1de534a8e" y="170.017549"/>
     <use style="fill:#dd8452;stroke:#dd8452;" x="278.885585" xlink:href="#mc1de534a8e" y="162.70136"/>
     <use style="fill:#dd8452;stroke:#dd8452;" x="304.102662" xlink:href="#mc1de534a8e" y="136.836056"/>
     <use style="fill:#dd8452;stroke:#dd8452;" x="329.319739" xlink:href="#mc1de534a8e" y="151.765928"/>
     <use style="fill:#dd8452;stroke:#dd8452;" x="354.536816" xlink:href="#mc1de534a8e" y="147.306112"/>
     <use style="fill:#dd8452;stroke:#dd8452;" x="379.753893" xlink:href="#mc1de534a8e" y="142.451937"/>
     <use style="fill:#dd8452;stroke:#dd8452;" x="404.970969" xlink:href="#mc1de534a8e" y="138.38242"/>
     <use style="fill:#dd8452;stroke:#dd8452;" x="430.188046" xlink:href="#mc1de534a8e" y="134.048604"/>
    </g>
   </g>
   <g id="line2d_15">
    <path clip-path="url(#p8eb6636d5b)" d="M 77.148971 221.735974 
L 102.366048 196.239059 
L 127.583125 176.897199 
L 152.800201 163.308805 
L 178.017278 151.563248 
L 203.234355 138.45601 
L 228.451432 133.527025 
L 253.668509 122.865967 
L 278.885585 118.93575 
L 304.102662 98.692281 
L 329.319739 107.726858 
L 354.536816 102.93448 
L 379.753893 98.247405 
L 404.970969 93.799694 
L 430.188046 78.304332 
" style="fill:none;stroke:#55a868;stroke-linecap:round;stroke-width:1.5;"/>
    <defs>
     <path d="M 0 3 
C 0.795609 3 1.55874 2.683901 2.12132 2.12132 
C 2.683901 1.55874 3 0.795609 3 0 
C 3 -0.795609 2.683901 -1.55874 2.12132 -2.12132 
C 1.55874 -2.683901 0.795609 -3 0 -3 
C -0.795609 -3 -1.55874 -2.683901 -2.12132 -2.12132 
C -2.683901 -1.55874 -3 -0.795609 -3 0 
C -3 0.795609 -2.683901 1.55874 -2.12132 2.12132 
C -1.55874 2.683901 -0.795609 3 0 3 
z
" id="m8f70507bde" style="stroke:#55a868;"/>
    </defs>
    <g clip-path="url(#p8eb6636d5b)">
     <use style="fill:#55a868;stroke:#55a868;" x="77.148971" xlink:href="#m8f70507bde" y="221.735974"/>
     <use style="fill:#55a868;stroke:#55a868;" x="102.366048" xlink:href="#m8f70507bde" y="196.239059"/>
     <use style="fill:#55a868;stroke:#55a868;" x="127.583125" xlink:href="#m8f70507bde" y="176.897199"/>
     <use style="fill:#55a868;stroke:#55a868;" x="152.800201" xlink:href="#m8f70507bde" y="163.308805"/>
     <use style="fill:#55a868;stroke:#55a868;" x="178.017278" xlink:href="#m8f70507bde" y="151.563248"/>
     <use style="fill:#55a868;stroke:#55a868;" x="203.234355" xlink:href="#m8f70507bde" y="138.45601"/>
     <use style="fill:#55a868;stroke:#55a868;" x="228.451432" xlink:href="#m8f70507bde" y="133.527025"/>
     <use style="fill:#55a868;stroke:#55a868;" x="253.668509" xlink:href="#m8f70507bde" y="122.865967"/>
     <use style="fill:#55a868;stroke:#55a868;" x="278.885585" xlink:href="#m8f70507bde" y="118.93575"/>
     <use style="fill:#55a868;stroke:#55a868;" x="304.102662" xlink:href="#m8f70507bde" y="98.692281"/>
     <use style="fill:#55a868;stroke:#55a868;" x="329.319739" xlink:href="#m8f70507bde" y="107.726858"/>
     <use style="fill:#55a868;stroke:#55a868;" x="354.536816" xlink:href="#m8f70507bde" y="102.93448"/>
     <use style="fill:#55a868;stroke:#55a868;" x="379.753893" xlink:href="#m8f70507bde" y="98.247405"/>
     <use style="fill:#55a868;stroke:#55a868;" x="404.970969" xlink:href="#m8f70507bde" y="93.799694"/>
     <use style="fill:#55a868;stroke:#55a868;" x="430.188046" xlink:href="#m8f70507bde" y="78.304332"/>
    </g>
   </g>
   <g id="line2d_16">
    <path clip-path="url(#p8eb6636d5b)" d="M 77.148971 272.171106 
L 102.366048 248.19663 
L 127.583125 230.771265 
L 152.800201 216.673278 
L 178.017278 205.55481 
L 203.234355 194.607037 
L 228.451432 186.792745 
L 253.668509 179.490844 
L 278.885585 172.673042 
L 304.102662 166.377072 
L 329.319739 159.924707 
L 354.536816 156.648787 
L 379.753893 151.968252 
L 404.970969 147.917137 
L 430.188046 143.009252 
" style="fill:none;stroke:#c44e52;stroke-linecap:round;stroke-width:1.5;"/>
    <defs>
     <path d="M 0 3 
C 0.795609 3 1.55874 2.683901 2.12132 2.12132 
C 2.683901 1.55874 3 0.795609 3 0 
C 3 -0.795609 2.683901 -1.55874 2.12132 -2.12132 
C 1.55874 -2.683901 0.795609 -3 0 -3 
C -0.795609 -3 -1.55874 -2.683901 -2.12132 -2.12132 
C -2.683901 -1.55874 -3 -0.795609 -3 0 
C -3 0.795609 -2.683901 1.55874 -2.12132 2.12132 
C -1.55874 2.683901 -0.795609 3 0 3 
z
" id="ma30d5eea23" style="stroke:#c44e52;"/>
    </defs>
    <g clip-path="url(#p8eb6636d5b)">
     <use style="fill:#c44e52;stroke:#c44e52;" x="77.148971" xlink:href="#ma30d5eea23" y="272.171106"/>
     <use style="fill:#c44e52;stroke:#c44e52;" x="102.366048" xlink:href="#ma30d5eea23" y="248.19663"/>
     <use style="fill:#c44e52;stroke:#c44e52;" x="127.583125" xlink:href="#ma30d5eea23" y="230.771265"/>
     <use style="fill:#c44e52;stroke:#c44e52;" x="152.800201" xlink:href="#ma30d5eea23" y="216.673278"/>
     <use style="fill:#c44e52;stroke:#c44e52;" x="178.017278" xlink:href="#ma30d5eea23" y="205.55481"/>
     <use style="fill:#c44e52;stroke:#c44e52;" x="203.234355" xlink:href="#ma30d5eea23" y="194.607037"/>
     <use style="fill:#c44e52;stroke:#c44e52;" x="228.451432" xlink:href="#ma30d5eea23" y="186.792745"/>
     <use style="fill:#c44e52;stroke:#c44e52;" x="253.668509" xlink:href="#ma30d5eea23" y="179.490844"/>
     <use style="fill:#c44e52;stroke:#c44e52;" x="278.885585" xlink:href="#ma30d5eea23" y="172.673042"/>
     <use style="fill:#c44e52;stroke:#c44e52;" x="304.102662" xlink:href="#ma30d5eea23" y="166.377072"/>
     <use style="fill:#c44e52;stroke:#c44e52;" x="329.319739" xlink:href="#ma30d5eea23" y="159.924707"/>
     <use style="fill:#c44e52;stroke:#c44e52;" x="354.536816" xlink:href="#ma30d5eea23" y="156.648787"/>
     <use style="fill:#c44e52;stroke:#c44e52;" x="379.753893" xlink:href="#ma30d5eea23" y="151.968252"/>
     <use style="fill:#c44e52;stroke:#c44e52;" x="404.970969" xlink:href="#ma30d5eea23" y="147.917137"/>
     <use style="fill:#c44e52;stroke:#c44e52;" x="430.188046" xlink:href="#ma30d5eea23" y="143.009252"/>
    </g>
   </g>
   <g id="line2d_17">
    <path clip-path="url(#p8eb6636d5b)" d="M 77.148971 273.392326 
L 102.366048 249.089327 
L 127.583125 230.939094 
L 152.800201 216.683158 
L 178.017278 204.297606 
L 203.234355 194.662971 
L 228.451432 185.823137 
L 253.668509 178.135859 
L 278.885585 171.414296 
L 304.102662 165.568482 
L 329.319739 159.704718 
L 354.536816 155.731248 
L 379.753893 150.142451 
L 404.970969 146.557859 
L 430.188046 142.409946 
" style="fill:none;stroke:#8172b3;stroke-linecap:round;stroke-width:1.5;"/>
    <defs>
     <path d="M 0 3 
C 0.795609 3 1.55874 2.683901 2.12132 2.12132 
C 2.683901 1.55874 3 0.795609 3 0 
C 3 -0.795609 2.683901 -1.55874 2.12132 -2.12132 
C 1.55874 -2.683901 0.795609 -3 0 -3 
C -0.795609 -3 -1.55874 -2.683901 -2.12132 -2.12132 
C -2.683901 -1.55874 -3 -0.795609 -3 0 
C -3 0.795609 -2.683901 1.55874 -2.12132 2.12132 
C -1.55874 2.683901 -0.795609 3 0 3 
z
" id="mf1ce0fd1bc" style="stroke:#8172b3;"/>
    </defs>
    <g clip-path="url(#p8eb6636d5b)">
     <use style="fill:#8172b3;stroke:#8172b3;" x="77.148971" xlink:href="#mf1ce0fd1bc" y="273.392326"/>
     <use style="fill:#8172b3;stroke:#8172b3;" x="102.366048" xlink:href="#mf1ce0fd1bc" y="249.089327"/>
     <use style="fill:#8172b3;stroke:#8172b3;" x="127.583125" xlink:href="#mf1ce0fd1bc" y="230.939094"/>
     <use style="fill:#8172b3;stroke:#8172b3;" x="152.800201" xlink:href="#mf1ce0fd1bc" y="216.683158"/>
     <use style="fill:#8172b3;stroke:#8172b3;" x="178.017278" xlink:href="#mf1ce0fd1bc" y="204.297606"/>
     <use style="fill:#8172b3;stroke:#8172b3;" x="203.234355" xlink:href="#mf1ce0fd1bc" y="194.662971"/>
     <use style="fill:#8172b3;stroke:#8172b3;" x="228.451432" xlink:href="#mf1ce0fd1bc" y="185.823137"/>
     <use style="fill:#8172b3;stroke:#8172b3;" x="253.668509" xlink:href="#mf1ce0fd1bc" y="178.135859"/>
     <use style="fill:#8172b3;stroke:#8172b3;" x="278.885585" xlink:href="#mf1ce0fd1bc" y="171.414296"/>
     <use style="fill:#8172b3;stroke:#8172b3;" x="304.102662" xlink:href="#mf1ce0fd1bc" y="165.568482"/>
     <use style="fill:#8172b3;stroke:#8172b3;" x="329.319739" xlink:href="#mf1ce0fd1bc" y="159.704718"/>
     <use style="fill:#8172b3;stroke:#8172b3;" x="354.536816" xlink:href="#mf1ce0fd1bc" y="155.731248"/>
     <use style="fill:#8172b3;stroke:#8172b3;" x="379.753893" xlink:href="#mf1ce0fd1bc" y="150.142451"/>
     <use style="fill:#8172b3;stroke:#8172b3;" x="404.970969" xlink:href="#mf1ce0fd1bc" y="146.557859"/>
     <use style="fill:#8172b3;stroke:#8172b3;" x="430.188046" xlink:href="#mf1ce0fd1bc" y="142.409946"/>
    </g>
   </g>
   <g id="line2d_18">
    <path clip-path="url(#p8eb6636d5b)" d="M 77.148971 256.826004 
L 102.366048 231.742482 
L 127.583125 213.198905 
L 152.800201 198.458209 
L 178.017278 186.189855 
L 203.234355 176.1608 
L 228.451432 167.900934 
L 253.668509 160.791284 
L 278.885585 153.692991 
L 304.102662 146.687692 
L 329.319739 142.226286 
L 354.536816 137.850175 
L 379.753893 39.953864 
L 404.970969 129.143797 
L 430.188046 124.797066 
" style="fill:none;stroke:#937860;stroke-linecap:round;stroke-width:1.5;"/>
    <defs>
     <path d="M 0 3 
C 0.795609 3 1.55874 2.683901 2.12132 2.12132 
C 2.683901 1.55874 3 0.795609 3 0 
C 3 -0.795609 2.683901 -1.55874 2.12132 -2.12132 
C 1.55874 -2.683901 0.795609 -3 0 -3 
C -0.795609 -3 -1.55874 -2.683901 -2.12132 -2.12132 
C -2.683901 -1.55874 -3 -0.795609 -3 0 
C -3 0.795609 -2.683901 1.55874 -2.12132 2.12132 
C -1.55874 2.683901 -0.795609 3 0 3 
z
" id="m05c39a6a5f" style="stroke:#937860;"/>
    </defs>
    <g clip-path="url(#p8eb6636d5b)">
     <use style="fill:#937860;stroke:#937860;" x="77.148971" xlink:href="#m05c39a6a5f" y="256.826004"/>
     <use style="fill:#937860;stroke:#937860;" x="102.366048" xlink:href="#m05c39a6a5f" y="231.742482"/>
     <use style="fill:#937860;stroke:#937860;" x="127.583125" xlink:href="#m05c39a6a5f" y="213.198905"/>
     <use style="fill:#937860;stroke:#937860;" x="152.800201" xlink:href="#m05c39a6a5f" y="198.458209"/>
     <use style="fill:#937860;stroke:#937860;" x="178.017278" xlink:href="#m05c39a6a5f" y="186.189855"/>
     <use style="fill:#937860;stroke:#937860;" x="203.234355" xlink:href="#m05c39a6a5f" y="176.1608"/>
     <use style="fill:#937860;stroke:#937860;" x="228.451432" xlink:href="#m05c39a6a5f" y="167.900934"/>
     <use style="fill:#937860;stroke:#937860;" x="253.668509" xlink:href="#m05c39a6a5f" y="160.791284"/>
     <use style="fill:#937860;stroke:#937860;" x="278.885585" xlink:href="#m05c39a6a5f" y="153.692991"/>
     <use style="fill:#937860;stroke:#937860;" x="304.102662" xlink:href="#m05c39a6a5f" y="146.687692"/>
     <use style="fill:#937860;stroke:#937860;" x="329.319739" xlink:href="#m05c39a6a5f" y="142.226286"/>
     <use style="fill:#937860;stroke:#937860;" x="354.536816" xlink:href="#m05c39a6a5f" y="137.850175"/>
     <use style="fill:#937860;stroke:#937860;" x="379.753893" xlink:href="#m05c39a6a5f" y="39.953864"/>
     <use style="fill:#937860;stroke:#937860;" x="404.970969" xlink:href="#m05c39a6a5f" y="129.143797"/>
     <use style="fill:#937860;stroke:#937860;" x="430.188046" xlink:href="#m05c39a6a5f" y="124.797066"/>
    </g>
   </g>
   <g id="line2d_19">
    <path clip-path="url(#p8eb6636d5b)" d="M 77.148971 283.430423 
L 102.366048 243.846916 
L 127.583125 240.219213 
L 152.800201 216.202412 
L 178.017278 205.149738 
L 203.234355 194.925851 
L 228.451432 185.915861 
L 253.668509 179.20966 
L 278.885585 172.129785 
L 304.102662 166.462815 
L 329.319739 162.905119 
L 354.536816 156.265098 
L 379.753893 151.417302 
L 404.970969 147.434173 
L 430.188046 142.316696 
" style="fill:none;stroke:#da8bc3;stroke-linecap:round;stroke-width:1.5;"/>
    <defs>
     <path d="M 0 3 
C 0.795609 3 1.55874 2.683901 2.12132 2.12132 
C 2.683901 1.55874 3 0.795609 3 0 
C 3 -0.795609 2.683901 -1.55874 2.12132 -2.12132 
C 1.55874 -2.683901 0.795609 -3 0 -3 
C -0.795609 -3 -1.55874 -2.683901 -2.12132 -2.12132 
C -2.683901 -1.55874 -3 -0.795609 -3 0 
C -3 0.795609 -2.683901 1.55874 -2.12132 2.12132 
C -1.55874 2.683901 -0.795609 3 0 3 
z
" id="m385ad316a0" style="stroke:#da8bc3;"/>
    </defs>
    <g clip-path="url(#p8eb6636d5b)">
     <use style="fill:#da8bc3;stroke:#da8bc3;" x="77.148971" xlink:href="#m385ad316a0" y="283.430423"/>
     <use style="fill:#da8bc3;stroke:#da8bc3;" x="102.366048" xlink:href="#m385ad316a0" y="243.846916"/>
     <use style="fill:#da8bc3;stroke:#da8bc3;" x="127.583125" xlink:href="#m385ad316a0" y="240.219213"/>
     <use style="fill:#da8bc3;stroke:#da8bc3;" x="152.800201" xlink:href="#m385ad316a0" y="216.202412"/>
     <use style="fill:#da8bc3;stroke:#da8bc3;" x="178.017278" xlink:href="#m385ad316a0" y="205.149738"/>
     <use style="fill:#da8bc3;stroke:#da8bc3;" x="203.234355" xlink:href="#m385ad316a0" y="194.925851"/>
     <use style="fill:#da8bc3;stroke:#da8bc3;" x="228.451432" xlink:href="#m385ad316a0" y="185.915861"/>
     <use style="fill:#da8bc3;stroke:#da8bc3;" x="253.668509" xlink:href="#m385ad316a0" y="179.20966"/>
     <use style="fill:#da8bc3;stroke:#da8bc3;" x="278.885585" xlink:href="#m385ad316a0" y="172.129785"/>
     <use style="fill:#da8bc3;stroke:#da8bc3;" x="304.102662" xlink:href="#m385ad316a0" y="166.462815"/>
     <use style="fill:#da8bc3;stroke:#da8bc3;" x="329.319739" xlink:href="#m385ad316a0" y="162.905119"/>
     <use style="fill:#da8bc3;stroke:#da8bc3;" x="354.536816" xlink:href="#m385ad316a0" y="156.265098"/>
     <use style="fill:#da8bc3;stroke:#da8bc3;" x="379.753893" xlink:href="#m385ad316a0" y="151.417302"/>
     <use style="fill:#da8bc3;stroke:#da8bc3;" x="404.970969" xlink:href="#m385ad316a0" y="147.434173"/>
     <use style="fill:#da8bc3;stroke:#da8bc3;" x="430.188046" xlink:href="#m385ad316a0" y="142.316696"/>
    </g>
   </g>
   <g id="line2d_20">
    <path clip-path="url(#p8eb6636d5b)" d="M 77.148971 282.640896 
L 102.366048 258.30895 
L 127.583125 240.739225 
L 152.800201 216.750917 
L 178.017278 204.945177 
L 203.234355 195.066395 
L 228.451432 186.352908 
L 253.668509 179.007185 
L 278.885585 172.089291 
L 304.102662 165.752355 
L 329.319739 162.185575 
L 354.536816 156.211116 
L 379.753893 151.668034 
L 404.970969 147.189672 
L 430.188046 142.806652 
" style="fill:none;stroke:#8c8c8c;stroke-linecap:round;stroke-width:1.5;"/>
    <defs>
     <path d="M 0 3 
C 0.795609 3 1.55874 2.683901 2.12132 2.12132 
C 2.683901 1.55874 3 0.795609 3 0 
C 3 -0.795609 2.683901 -1.55874 2.12132 -2.12132 
C 1.55874 -2.683901 0.795609 -3 0 -3 
C -0.795609 -3 -1.55874 -2.683901 -2.12132 -2.12132 
C -2.683901 -1.55874 -3 -0.795609 -3 0 
C -3 0.795609 -2.683901 1.55874 -2.12132 2.12132 
C -1.55874 2.683901 -0.795609 3 0 3 
z
" id="mfe8b17814c" style="stroke:#8c8c8c;"/>
    </defs>
    <g clip-path="url(#p8eb6636d5b)">
     <use style="fill:#8c8c8c;stroke:#8c8c8c;" x="77.148971" xlink:href="#mfe8b17814c" y="282.640896"/>
     <use style="fill:#8c8c8c;stroke:#8c8c8c;" x="102.366048" xlink:href="#mfe8b17814c" y="258.30895"/>
     <use style="fill:#8c8c8c;stroke:#8c8c8c;" x="127.583125" xlink:href="#mfe8b17814c" y="240.739225"/>
     <use style="fill:#8c8c8c;stroke:#8c8c8c;" x="152.800201" xlink:href="#mfe8b17814c" y="216.750917"/>
     <use style="fill:#8c8c8c;stroke:#8c8c8c;" x="178.017278" xlink:href="#mfe8b17814c" y="204.945177"/>
     <use style="fill:#8c8c8c;stroke:#8c8c8c;" x="203.234355" xlink:href="#mfe8b17814c" y="195.066395"/>
     <use style="fill:#8c8c8c;stroke:#8c8c8c;" x="228.451432" xlink:href="#mfe8b17814c" y="186.352908"/>
     <use style="fill:#8c8c8c;stroke:#8c8c8c;" x="253.668509" xlink:href="#mfe8b17814c" y="179.007185"/>
     <use style="fill:#8c8c8c;stroke:#8c8c8c;" x="278.885585" xlink:href="#mfe8b17814c" y="172.089291"/>
     <use style="fill:#8c8c8c;stroke:#8c8c8c;" x="304.102662" xlink:href="#mfe8b17814c" y="165.752355"/>
     <use style="fill:#8c8c8c;stroke:#8c8c8c;" x="329.319739" xlink:href="#mfe8b17814c" y="162.185575"/>
     <use style="fill:#8c8c8c;stroke:#8c8c8c;" x="354.536816" xlink:href="#mfe8b17814c" y="156.211116"/>
     <use style="fill:#8c8c8c;stroke:#8c8c8c;" x="379.753893" xlink:href="#mfe8b17814c" y="151.668034"/>
     <use style="fill:#8c8c8c;stroke:#8c8c8c;" x="404.970969" xlink:href="#mfe8b17814c" y="147.189672"/>
     <use style="fill:#8c8c8c;stroke:#8c8c8c;" x="430.188046" xlink:href="#mfe8b17814c" y="142.806652"/>
    </g>
   </g>
   <g id="line2d_21">
    <path clip-path="url(#p8eb6636d5b)" d="M 77.148971 266.976126 
L 102.366048 241.878918 
L 127.583125 223.747667 
L 152.800201 206.180883 
L 178.017278 194.900579 
L 203.234355 184.83507 
L 228.451432 175.809054 
L 253.668509 168.341296 
L 278.885585 161.866869 
L 304.102662 155.315536 
L 329.319739 150.534906 
L 354.536816 145.587166 
L 379.753893 140.890589 
L 404.970969 136.591181 
L 430.188046 132.269323 
" style="fill:none;stroke:#ccb974;stroke-linecap:round;stroke-width:1.5;"/>
    <defs>
     <path d="M 0 3 
C 0.795609 3 1.55874 2.683901 2.12132 2.12132 
C 2.683901 1.55874 3 0.795609 3 0 
C 3 -0.795609 2.683901 -1.55874 2.12132 -2.12132 
C 1.55874 -2.683901 0.795609 -3 0 -3 
C -0.795609 -3 -1.55874 -2.683901 -2.12132 -2.12132 
C -2.683901 -1.55874 -3 -0.795609 -3 0 
C -3 0.795609 -2.683901 1.55874 -2.12132 2.12132 
C -1.55874 2.683901 -0.795609 3 0 3 
z
" id="mea5da3340d" style="stroke:#ccb974;"/>
    </defs>
    <g clip-path="url(#p8eb6636d5b)">
     <use style="fill:#ccb974;stroke:#ccb974;" x="77.148971" xlink:href="#mea5da3340d" y="266.976126"/>
     <use style="fill:#ccb974;stroke:#ccb974;" x="102.366048" xlink:href="#mea5da3340d" y="241.878918"/>
     <use style="fill:#ccb974;stroke:#ccb974;" x="127.583125" xlink:href="#mea5da3340d" y="223.747667"/>
     <use style="fill:#ccb974;stroke:#ccb974;" x="152.800201" xlink:href="#mea5da3340d" y="206.180883"/>
     <use style="fill:#ccb974;stroke:#ccb974;" x="178.017278" xlink:href="#mea5da3340d" y="194.900579"/>
     <use style="fill:#ccb974;stroke:#ccb974;" x="203.234355" xlink:href="#mea5da3340d" y="184.83507"/>
     <use style="fill:#ccb974;stroke:#ccb974;" x="228.451432" xlink:href="#mea5da3340d" y="175.809054"/>
     <use style="fill:#ccb974;stroke:#ccb974;" x="253.668509" xlink:href="#mea5da3340d" y="168.341296"/>
     <use style="fill:#ccb974;stroke:#ccb974;" x="278.885585" xlink:href="#mea5da3340d" y="161.866869"/>
     <use style="fill:#ccb974;stroke:#ccb974;" x="304.102662" xlink:href="#mea5da3340d" y="155.315536"/>
     <use style="fill:#ccb974;stroke:#ccb974;" x="329.319739" xlink:href="#mea5da3340d" y="150.534906"/>
     <use style="fill:#ccb974;stroke:#ccb974;" x="354.536816" xlink:href="#mea5da3340d" y="145.587166"/>
     <use style="fill:#ccb974;stroke:#ccb974;" x="379.753893" xlink:href="#mea5da3340d" y="140.890589"/>
     <use style="fill:#ccb974;stroke:#ccb974;" x="404.970969" xlink:href="#mea5da3340d" y="136.591181"/>
     <use style="fill:#ccb974;stroke:#ccb974;" x="430.188046" xlink:href="#mea5da3340d" y="132.269323"/>
    </g>
   </g>
   <g id="line2d_22">
    <path clip-path="url(#p8eb6636d5b)" d="M 77.148971 285.906136 
L 102.366048 261.872367 
L 127.583125 244.307007 
L 152.800201 230.029065 
L 178.017278 200.188702 
L 203.234355 208.214268 
L 228.451432 199.631122 
L 253.668509 191.688851 
L 278.885585 185.404909 
L 304.102662 179.263094 
L 329.319739 169.697367 
L 354.536816 164.591727 
L 379.753893 159.830241 
L 404.970969 155.234125 
L 430.188046 151.516955 
" style="fill:none;stroke:#64b5cd;stroke-linecap:round;stroke-width:1.5;"/>
    <defs>
     <path d="M 0 3 
C 0.795609 3 1.55874 2.683901 2.12132 2.12132 
C 2.683901 1.55874 3 0.795609 3 0 
C 3 -0.795609 2.683901 -1.55874 2.12132 -2.12132 
C 1.55874 -2.683901 0.795609 -3 0 -3 
C -0.795609 -3 -1.55874 -2.683901 -2.12132 -2.12132 
C -2.683901 -1.55874 -3 -0.795609 -3 0 
C -3 0.795609 -2.683901 1.55874 -2.12132 2.12132 
C -1.55874 2.683901 -0.795609 3 0 3 
z
" id="m57ef7528b8" style="stroke:#64b5cd;"/>
    </defs>
    <g clip-path="url(#p8eb6636d5b)">
     <use style="fill:#64b5cd;stroke:#64b5cd;" x="77.148971" xlink:href="#m57ef7528b8" y="285.906136"/>
     <use style="fill:#64b5cd;stroke:#64b5cd;" x="102.366048" xlink:href="#m57ef7528b8" y="261.872367"/>
     <use style="fill:#64b5cd;stroke:#64b5cd;" x="127.583125" xlink:href="#m57ef7528b8" y="244.307007"/>
     <use style="fill:#64b5cd;stroke:#64b5cd;" x="152.800201" xlink:href="#m57ef7528b8" y="230.029065"/>
     <use style="fill:#64b5cd;stroke:#64b5cd;" x="178.017278" xlink:href="#m57ef7528b8" y="200.188702"/>
     <use style="fill:#64b5cd;stroke:#64b5cd;" x="203.234355" xlink:href="#m57ef7528b8" y="208.214268"/>
     <use style="fill:#64b5cd;stroke:#64b5cd;" x="228.451432" xlink:href="#m57ef7528b8" y="199.631122"/>
     <use style="fill:#64b5cd;stroke:#64b5cd;" x="253.668509" xlink:href="#m57ef7528b8" y="191.688851"/>
     <use style="fill:#64b5cd;stroke:#64b5cd;" x="278.885585" xlink:href="#m57ef7528b8" y="185.404909"/>
     <use style="fill:#64b5cd;stroke:#64b5cd;" x="304.102662" xlink:href="#m57ef7528b8" y="179.263094"/>
     <use style="fill:#64b5cd;stroke:#64b5cd;" x="329.319739" xlink:href="#m57ef7528b8" y="169.697367"/>
     <use style="fill:#64b5cd;stroke:#64b5cd;" x="354.536816" xlink:href="#m57ef7528b8" y="164.591727"/>
     <use style="fill:#64b5cd;stroke:#64b5cd;" x="379.753893" xlink:href="#m57ef7528b8" y="159.830241"/>
     <use style="fill:#64b5cd;stroke:#64b5cd;" x="404.970969" xlink:href="#m57ef7528b8" y="155.234125"/>
     <use style="fill:#64b5cd;stroke:#64b5cd;" x="430.188046" xlink:href="#m57ef7528b8" y="151.516955"/>
    </g>
   </g>
   <g id="patch_3">
    <path d="M 59.497017 298.20375 
L 59.497017 27.65625 
" style="fill:none;stroke:#ffffff;stroke-linecap:square;stroke-linejoin:miter;stroke-width:1.25;"/>
   </g>
   <g id="patch_4">
    <path d="M 447.84 298.20375 
L 447.84 27.65625 
" style="fill:none;stroke:#ffffff;stroke-linecap:square;stroke-linejoin:miter;stroke-width:1.25;"/>
   </g>
   <g id="patch_5">
    <path d="M 59.497017 298.20375 
L 447.84 298.20375 
" style="fill:none;stroke:#ffffff;stroke-linecap:square;stroke-linejoin:miter;stroke-width:1.25;"/>
   </g>
   <g id="patch_6">
    <path d="M 59.497017 27.65625 
L 447.84 27.65625 
" style="fill:none;stroke:#ffffff;stroke-linecap:square;stroke-linejoin:miter;stroke-width:1.25;"/>
   </g>
   <g id="text_15">
    <!-- Runtime (8 nodes) -->
    <g style="fill:#262626;" transform="translate(204.315696 21.65625)scale(0.12 -0.12)">
     <defs>
      <path d="M 2575 0 
L 2575 419 
Q 2259 -75 1647 -75 
Q 1250 -75 917 144 
Q 584 363 401 755 
Q 219 1147 219 1656 
Q 219 2153 384 2558 
Q 550 2963 881 3178 
Q 1213 3394 1622 3394 
Q 1922 3394 2156 3267 
Q 2391 3141 2538 2938 
L 2538 4581 
L 3097 4581 
L 3097 0 
L 2575 0 
z
M 797 1656 
Q 797 1019 1065 703 
Q 1334 388 1700 388 
Q 2069 388 2326 689 
Q 2584 991 2584 1609 
Q 2584 2291 2321 2609 
Q 2059 2928 1675 2928 
Q 1300 2928 1048 2622 
Q 797 2316 797 1656 
z
" id="ArialMT-64" transform="scale(0.015625)"/>
     </defs>
     <use xlink:href="#ArialMT-52"/>
     <use x="72.216797" xlink:href="#ArialMT-75"/>
     <use x="127.832031" xlink:href="#ArialMT-6e"/>
     <use x="183.447266" xlink:href="#ArialMT-74"/>
     <use x="211.230469" xlink:href="#ArialMT-69"/>
     <use x="233.447266" xlink:href="#ArialMT-6d"/>
     <use x="316.748047" xlink:href="#ArialMT-65"/>
     <use x="372.363281" xlink:href="#ArialMT-20"/>
     <use x="400.146484" xlink:href="#ArialMT-28"/>
     <use x="433.447266" xlink:href="#ArialMT-38"/>
     <use x="489.0625" xlink:href="#ArialMT-20"/>
     <use x="516.845703" xlink:href="#ArialMT-6e"/>
     <use x="572.460938" xlink:href="#ArialMT-6f"/>
     <use x="628.076172" xlink:href="#ArialMT-64"/>
     <use x="683.691406" xlink:href="#ArialMT-65"/>
     <use x="739.306641" xlink:href="#ArialMT-73"/>
     <use x="789.306641" xlink:href="#ArialMT-29"/>
    </g>
   </g>
   <g id="legend_1">
    <g id="patch_7">
     <path d="M 67.197017 209.436562 
L 276.037173 209.436562 
Q 278.237173 209.436562 278.237173 207.236562 
L 278.237173 35.35625 
Q 278.237173 33.15625 276.037173 33.15625 
L 67.197017 33.15625 
Q 64.997017 33.15625 64.997017 35.35625 
L 64.997017 207.236562 
Q 64.997017 209.436562 67.197017 209.436562 
z
" style="fill:#eaeaf2;opacity:0.8;stroke:#cccccc;stroke-linejoin:miter;"/>
    </g>
    <g id="text_16">
     <!-- implementation -->
     <g style="fill:#262626;" transform="translate(130.932408 46.145625)scale(0.12 -0.12)">
      <defs>
       <path d="M 409 0 
L 409 4581 
L 972 4581 
L 972 0 
L 409 0 
z
" id="ArialMT-6c" transform="scale(0.015625)"/>
       <path d="M 2588 409 
Q 2275 144 1986 34 
Q 1697 -75 1366 -75 
Q 819 -75 525 192 
Q 231 459 231 875 
Q 231 1119 342 1320 
Q 453 1522 633 1644 
Q 813 1766 1038 1828 
Q 1203 1872 1538 1913 
Q 2219 1994 2541 2106 
Q 2544 2222 2544 2253 
Q 2544 2597 2384 2738 
Q 2169 2928 1744 2928 
Q 1347 2928 1158 2789 
Q 969 2650 878 2297 
L 328 2372 
Q 403 2725 575 2942 
Q 747 3159 1072 3276 
Q 1397 3394 1825 3394 
Q 2250 3394 2515 3294 
Q 2781 3194 2906 3042 
Q 3031 2891 3081 2659 
Q 3109 2516 3109 2141 
L 3109 1391 
Q 3109 606 3145 398 
Q 3181 191 3288 0 
L 2700 0 
Q 2613 175 2588 409 
z
M 2541 1666 
Q 2234 1541 1622 1453 
Q 1275 1403 1131 1340 
Q 988 1278 909 1158 
Q 831 1038 831 891 
Q 831 666 1001 516 
Q 1172 366 1500 366 
Q 1825 366 2078 508 
Q 2331 650 2450 897 
Q 2541 1088 2541 1459 
L 2541 1666 
z
" id="ArialMT-61" transform="scale(0.015625)"/>
      </defs>
      <use xlink:href="#ArialMT-69"/>
      <use x="22.216797" xlink:href="#ArialMT-6d"/>
      <use x="105.517578" xlink:href="#ArialMT-70"/>
      <use x="161.132812" xlink:href="#ArialMT-6c"/>
      <use x="183.349609" xlink:href="#ArialMT-65"/>
      <use x="238.964844" xlink:href="#ArialMT-6d"/>
      <use x="322.265625" xlink:href="#ArialMT-65"/>
      <use x="377.880859" xlink:href="#ArialMT-6e"/>
      <use x="433.496094" xlink:href="#ArialMT-74"/>
      <use x="461.279297" xlink:href="#ArialMT-61"/>
      <use x="516.894531" xlink:href="#ArialMT-74"/>
      <use x="544.677734" xlink:href="#ArialMT-69"/>
      <use x="566.894531" xlink:href="#ArialMT-6f"/>
      <use x="622.509766" xlink:href="#ArialMT-6e"/>
     </g>
    </g>
    <g id="line2d_23">
     <path d="M 69.397017 58.054219 
L 91.397017 58.054219 
" style="fill:none;stroke:#4c72b0;stroke-linecap:round;stroke-width:1.5;"/>
    </g>
    <g id="line2d_24">
     <g>
      <use style="fill:#4c72b0;stroke:#4c72b0;" x="80.397017" xlink:href="#mb93f02b05f" y="58.054219"/>
     </g>
    </g>
    <g id="text_17">
     <!-- allreduce -->
     <g style="fill:#262626;" transform="translate(100.197017 61.904219)scale(0.11 -0.11)">
      <defs>
       <path d="M 416 0 
L 416 3319 
L 922 3319 
L 922 2816 
Q 1116 3169 1280 3281 
Q 1444 3394 1641 3394 
Q 1925 3394 2219 3213 
L 2025 2691 
Q 1819 2813 1613 2813 
Q 1428 2813 1281 2702 
Q 1134 2591 1072 2394 
Q 978 2094 978 1738 
L 978 0 
L 416 0 
z
" id="ArialMT-72" transform="scale(0.015625)"/>
       <path d="M 2588 1216 
L 3141 1144 
Q 3050 572 2676 248 
Q 2303 -75 1759 -75 
Q 1078 -75 664 370 
Q 250 816 250 1647 
Q 250 2184 428 2587 
Q 606 2991 970 3192 
Q 1334 3394 1763 3394 
Q 2303 3394 2647 3120 
Q 2991 2847 3088 2344 
L 2541 2259 
Q 2463 2594 2264 2762 
Q 2066 2931 1784 2931 
Q 1359 2931 1093 2626 
Q 828 2322 828 1663 
Q 828 994 1084 691 
Q 1341 388 1753 388 
Q 2084 388 2306 591 
Q 2528 794 2588 1216 
z
" id="ArialMT-63" transform="scale(0.015625)"/>
      </defs>
      <use xlink:href="#ArialMT-61"/>
      <use x="55.615234" xlink:href="#ArialMT-6c"/>
      <use x="77.832031" xlink:href="#ArialMT-6c"/>
      <use x="100.048828" xlink:href="#ArialMT-72"/>
      <use x="133.349609" xlink:href="#ArialMT-65"/>
      <use x="188.964844" xlink:href="#ArialMT-64"/>
      <use x="244.580078" xlink:href="#ArialMT-75"/>
      <use x="300.195312" xlink:href="#ArialMT-63"/>
      <use x="350.195312" xlink:href="#ArialMT-65"/>
     </g>
    </g>
    <g id="line2d_25">
     <path d="M 69.397017 73.748125 
L 91.397017 73.748125 
" style="fill:none;stroke:#dd8452;stroke-linecap:round;stroke-width:1.5;"/>
    </g>
    <g id="line2d_26">
     <g>
      <use style="fill:#dd8452;stroke:#dd8452;" x="80.397017" xlink:href="#mc1de534a8e" y="73.748125"/>
     </g>
    </g>
    <g id="text_18">
     <!-- allreduce-butterfly -->
     <g style="fill:#262626;" transform="translate(100.197017 77.598125)scale(0.11 -0.11)">
      <defs>
       <path d="M 203 1375 
L 203 1941 
L 1931 1941 
L 1931 1375 
L 203 1375 
z
" id="ArialMT-2d" transform="scale(0.015625)"/>
       <path d="M 941 0 
L 419 0 
L 419 4581 
L 981 4581 
L 981 2947 
Q 1338 3394 1891 3394 
Q 2197 3394 2470 3270 
Q 2744 3147 2920 2923 
Q 3097 2700 3197 2384 
Q 3297 2069 3297 1709 
Q 3297 856 2875 390 
Q 2453 -75 1863 -75 
Q 1275 -75 941 416 
L 941 0 
z
M 934 1684 
Q 934 1088 1097 822 
Q 1363 388 1816 388 
Q 2184 388 2453 708 
Q 2722 1028 2722 1663 
Q 2722 2313 2464 2622 
Q 2206 2931 1841 2931 
Q 1472 2931 1203 2611 
Q 934 2291 934 1684 
z
" id="ArialMT-62" transform="scale(0.015625)"/>
       <path d="M 556 0 
L 556 2881 
L 59 2881 
L 59 3319 
L 556 3319 
L 556 3672 
Q 556 4006 616 4169 
Q 697 4388 901 4523 
Q 1106 4659 1475 4659 
Q 1713 4659 2000 4603 
L 1916 4113 
Q 1741 4144 1584 4144 
Q 1328 4144 1222 4034 
Q 1116 3925 1116 3625 
L 1116 3319 
L 1763 3319 
L 1763 2881 
L 1116 2881 
L 1116 0 
L 556 0 
z
" id="ArialMT-66" transform="scale(0.015625)"/>
       <path d="M 397 -1278 
L 334 -750 
Q 519 -800 656 -800 
Q 844 -800 956 -737 
Q 1069 -675 1141 -563 
Q 1194 -478 1313 -144 
Q 1328 -97 1363 -6 
L 103 3319 
L 709 3319 
L 1400 1397 
Q 1534 1031 1641 628 
Q 1738 1016 1872 1384 
L 2581 3319 
L 3144 3319 
L 1881 -56 
Q 1678 -603 1566 -809 
Q 1416 -1088 1222 -1217 
Q 1028 -1347 759 -1347 
Q 597 -1347 397 -1278 
z
" id="ArialMT-79" transform="scale(0.015625)"/>
      </defs>
      <use xlink:href="#ArialMT-61"/>
      <use x="55.615234" xlink:href="#ArialMT-6c"/>
      <use x="77.832031" xlink:href="#ArialMT-6c"/>
      <use x="100.048828" xlink:href="#ArialMT-72"/>
      <use x="133.349609" xlink:href="#ArialMT-65"/>
      <use x="188.964844" xlink:href="#ArialMT-64"/>
      <use x="244.580078" xlink:href="#ArialMT-75"/>
      <use x="300.195312" xlink:href="#ArialMT-63"/>
      <use x="350.195312" xlink:href="#ArialMT-65"/>
      <use x="405.810547" xlink:href="#ArialMT-2d"/>
      <use x="439.111328" xlink:href="#ArialMT-62"/>
      <use x="494.726562" xlink:href="#ArialMT-75"/>
      <use x="550.341797" xlink:href="#ArialMT-74"/>
      <use x="578.125" xlink:href="#ArialMT-74"/>
      <use x="605.908203" xlink:href="#ArialMT-65"/>
      <use x="661.523438" xlink:href="#ArialMT-72"/>
      <use x="694.824219" xlink:href="#ArialMT-66"/>
      <use x="722.607422" xlink:href="#ArialMT-6c"/>
      <use x="744.824219" xlink:href="#ArialMT-79"/>
     </g>
    </g>
    <g id="line2d_27">
     <path d="M 69.397017 89.436875 
L 91.397017 89.436875 
" style="fill:none;stroke:#55a868;stroke-linecap:round;stroke-width:1.5;"/>
    </g>
    <g id="line2d_28">
     <g>
      <use style="fill:#55a868;stroke:#55a868;" x="80.397017" xlink:href="#m8f70507bde" y="89.436875"/>
     </g>
    </g>
    <g id="text_19">
     <!-- allreduce-native-basic_linear -->
     <g style="fill:#262626;" transform="translate(100.197017 93.286875)scale(0.11 -0.11)">
      <defs>
       <path d="M 1344 0 
L 81 3319 
L 675 3319 
L 1388 1331 
Q 1503 1009 1600 663 
Q 1675 925 1809 1294 
L 2547 3319 
L 3125 3319 
L 1869 0 
L 1344 0 
z
" id="ArialMT-76" transform="scale(0.015625)"/>
       <path d="M -97 -1272 
L -97 -866 
L 3631 -866 
L 3631 -1272 
L -97 -1272 
z
" id="ArialMT-5f" transform="scale(0.015625)"/>
      </defs>
      <use xlink:href="#ArialMT-61"/>
      <use x="55.615234" xlink:href="#ArialMT-6c"/>
      <use x="77.832031" xlink:href="#ArialMT-6c"/>
      <use x="100.048828" xlink:href="#ArialMT-72"/>
      <use x="133.349609" xlink:href="#ArialMT-65"/>
      <use x="188.964844" xlink:href="#ArialMT-64"/>
      <use x="244.580078" xlink:href="#ArialMT-75"/>
      <use x="300.195312" xlink:href="#ArialMT-63"/>
      <use x="350.195312" xlink:href="#ArialMT-65"/>
      <use x="405.810547" xlink:href="#ArialMT-2d"/>
      <use x="439.111328" xlink:href="#ArialMT-6e"/>
      <use x="494.726562" xlink:href="#ArialMT-61"/>
      <use x="550.341797" xlink:href="#ArialMT-74"/>
      <use x="578.125" xlink:href="#ArialMT-69"/>
      <use x="600.341797" xlink:href="#ArialMT-76"/>
      <use x="650.341797" xlink:href="#ArialMT-65"/>
      <use x="705.957031" xlink:href="#ArialMT-2d"/>
      <use x="739.257812" xlink:href="#ArialMT-62"/>
      <use x="794.873047" xlink:href="#ArialMT-61"/>
      <use x="850.488281" xlink:href="#ArialMT-73"/>
      <use x="900.488281" xlink:href="#ArialMT-69"/>
      <use x="922.705078" xlink:href="#ArialMT-63"/>
      <use x="972.705078" xlink:href="#ArialMT-5f"/>
      <use x="1028.320312" xlink:href="#ArialMT-6c"/>
      <use x="1050.537109" xlink:href="#ArialMT-69"/>
      <use x="1072.753906" xlink:href="#ArialMT-6e"/>
      <use x="1128.369141" xlink:href="#ArialMT-65"/>
      <use x="1183.984375" xlink:href="#ArialMT-61"/>
      <use x="1239.599609" xlink:href="#ArialMT-72"/>
     </g>
    </g>
    <g id="line2d_29">
     <path d="M 69.397017 104.996719 
L 91.397017 104.996719 
" style="fill:none;stroke:#c44e52;stroke-linecap:round;stroke-width:1.5;"/>
    </g>
    <g id="line2d_30">
     <g>
      <use style="fill:#c44e52;stroke:#c44e52;" x="80.397017" xlink:href="#ma30d5eea23" y="104.996719"/>
     </g>
    </g>
    <g id="text_20">
     <!-- allreduce-native-nonoverlapping -->
     <g style="fill:#262626;" transform="translate(100.197017 108.846719)scale(0.11 -0.11)">
      <defs>
       <path d="M 319 -275 
L 866 -356 
Q 900 -609 1056 -725 
Q 1266 -881 1628 -881 
Q 2019 -881 2231 -725 
Q 2444 -569 2519 -288 
Q 2563 -116 2559 434 
Q 2191 0 1641 0 
Q 956 0 581 494 
Q 206 988 206 1678 
Q 206 2153 378 2554 
Q 550 2956 876 3175 
Q 1203 3394 1644 3394 
Q 2231 3394 2613 2919 
L 2613 3319 
L 3131 3319 
L 3131 450 
Q 3131 -325 2973 -648 
Q 2816 -972 2473 -1159 
Q 2131 -1347 1631 -1347 
Q 1038 -1347 672 -1080 
Q 306 -813 319 -275 
z
M 784 1719 
Q 784 1066 1043 766 
Q 1303 466 1694 466 
Q 2081 466 2343 764 
Q 2606 1063 2606 1700 
Q 2606 2309 2336 2618 
Q 2066 2928 1684 2928 
Q 1309 2928 1046 2623 
Q 784 2319 784 1719 
z
" id="ArialMT-67" transform="scale(0.015625)"/>
      </defs>
      <use xlink:href="#ArialMT-61"/>
      <use x="55.615234" xlink:href="#ArialMT-6c"/>
      <use x="77.832031" xlink:href="#ArialMT-6c"/>
      <use x="100.048828" xlink:href="#ArialMT-72"/>
      <use x="133.349609" xlink:href="#ArialMT-65"/>
      <use x="188.964844" xlink:href="#ArialMT-64"/>
      <use x="244.580078" xlink:href="#ArialMT-75"/>
      <use x="300.195312" xlink:href="#ArialMT-63"/>
      <use x="350.195312" xlink:href="#ArialMT-65"/>
      <use x="405.810547" xlink:href="#ArialMT-2d"/>
      <use x="439.111328" xlink:href="#ArialMT-6e"/>
      <use x="494.726562" xlink:href="#ArialMT-61"/>
      <use x="550.341797" xlink:href="#ArialMT-74"/>
      <use x="578.125" xlink:href="#ArialMT-69"/>
      <use x="600.341797" xlink:href="#ArialMT-76"/>
      <use x="650.341797" xlink:href="#ArialMT-65"/>
      <use x="705.957031" xlink:href="#ArialMT-2d"/>
      <use x="739.257812" xlink:href="#ArialMT-6e"/>
      <use x="794.873047" xlink:href="#ArialMT-6f"/>
      <use x="850.488281" xlink:href="#ArialMT-6e"/>
      <use x="906.103516" xlink:href="#ArialMT-6f"/>
      <use x="961.71875" xlink:href="#ArialMT-76"/>
      <use x="1011.71875" xlink:href="#ArialMT-65"/>
      <use x="1067.333984" xlink:href="#ArialMT-72"/>
      <use x="1100.634766" xlink:href="#ArialMT-6c"/>
      <use x="1122.851562" xlink:href="#ArialMT-61"/>
      <use x="1178.466797" xlink:href="#ArialMT-70"/>
      <use x="1234.082031" xlink:href="#ArialMT-70"/>
      <use x="1289.697266" xlink:href="#ArialMT-69"/>
      <use x="1311.914062" xlink:href="#ArialMT-6e"/>
      <use x="1367.529297" xlink:href="#ArialMT-67"/>
     </g>
    </g>
    <g id="line2d_31">
     <path d="M 69.397017 120.685469 
L 91.397017 120.685469 
" style="fill:none;stroke:#8172b3;stroke-linecap:round;stroke-width:1.5;"/>
    </g>
    <g id="line2d_32">
     <g>
      <use style="fill:#8172b3;stroke:#8172b3;" x="80.397017" xlink:href="#mf1ce0fd1bc" y="120.685469"/>
     </g>
    </g>
    <g id="text_21">
     <!-- allreduce-native-rabenseifner -->
     <g style="fill:#262626;" transform="translate(100.197017 124.535469)scale(0.11 -0.11)">
      <use xlink:href="#ArialMT-61"/>
      <use x="55.615234" xlink:href="#ArialMT-6c"/>
      <use x="77.832031" xlink:href="#ArialMT-6c"/>
      <use x="100.048828" xlink:href="#ArialMT-72"/>
      <use x="133.349609" xlink:href="#ArialMT-65"/>
      <use x="188.964844" xlink:href="#ArialMT-64"/>
      <use x="244.580078" xlink:href="#ArialMT-75"/>
      <use x="300.195312" xlink:href="#ArialMT-63"/>
      <use x="350.195312" xlink:href="#ArialMT-65"/>
      <use x="405.810547" xlink:href="#ArialMT-2d"/>
      <use x="439.111328" xlink:href="#ArialMT-6e"/>
      <use x="494.726562" xlink:href="#ArialMT-61"/>
      <use x="550.341797" xlink:href="#ArialMT-74"/>
      <use x="578.125" xlink:href="#ArialMT-69"/>
      <use x="600.341797" xlink:href="#ArialMT-76"/>
      <use x="650.341797" xlink:href="#ArialMT-65"/>
      <use x="705.957031" xlink:href="#ArialMT-2d"/>
      <use x="739.257812" xlink:href="#ArialMT-72"/>
      <use x="772.558594" xlink:href="#ArialMT-61"/>
      <use x="828.173828" xlink:href="#ArialMT-62"/>
      <use x="883.789062" xlink:href="#ArialMT-65"/>
      <use x="939.404297" xlink:href="#ArialMT-6e"/>
      <use x="995.019531" xlink:href="#ArialMT-73"/>
      <use x="1045.019531" xlink:href="#ArialMT-65"/>
      <use x="1100.634766" xlink:href="#ArialMT-69"/>
      <use x="1122.851562" xlink:href="#ArialMT-66"/>
      <use x="1150.634766" xlink:href="#ArialMT-6e"/>
      <use x="1206.25" xlink:href="#ArialMT-65"/>
      <use x="1261.865234" xlink:href="#ArialMT-72"/>
     </g>
    </g>
    <g id="line2d_33">
     <path d="M 69.397017 136.245312 
L 91.397017 136.245312 
" style="fill:none;stroke:#937860;stroke-linecap:round;stroke-width:1.5;"/>
    </g>
    <g id="line2d_34">
     <g>
      <use style="fill:#937860;stroke:#937860;" x="80.397017" xlink:href="#m05c39a6a5f" y="136.245312"/>
     </g>
    </g>
    <g id="text_22">
     <!-- allreduce-native-recursive_doubling -->
     <g style="fill:#262626;" transform="translate(100.197017 140.095312)scale(0.11 -0.11)">
      <use xlink:href="#ArialMT-61"/>
      <use x="55.615234" xlink:href="#ArialMT-6c"/>
      <use x="77.832031" xlink:href="#ArialMT-6c"/>
      <use x="100.048828" xlink:href="#ArialMT-72"/>
      <use x="133.349609" xlink:href="#ArialMT-65"/>
      <use x="188.964844" xlink:href="#ArialMT-64"/>
      <use x="244.580078" xlink:href="#ArialMT-75"/>
      <use x="300.195312" xlink:href="#ArialMT-63"/>
      <use x="350.195312" xlink:href="#ArialMT-65"/>
      <use x="405.810547" xlink:href="#ArialMT-2d"/>
      <use x="439.111328" xlink:href="#ArialMT-6e"/>
      <use x="494.726562" xlink:href="#ArialMT-61"/>
      <use x="550.341797" xlink:href="#ArialMT-74"/>
      <use x="578.125" xlink:href="#ArialMT-69"/>
      <use x="600.341797" xlink:href="#ArialMT-76"/>
      <use x="650.341797" xlink:href="#ArialMT-65"/>
      <use x="705.957031" xlink:href="#ArialMT-2d"/>
      <use x="739.257812" xlink:href="#ArialMT-72"/>
      <use x="772.558594" xlink:href="#ArialMT-65"/>
      <use x="828.173828" xlink:href="#ArialMT-63"/>
      <use x="878.173828" xlink:href="#ArialMT-75"/>
      <use x="933.789062" xlink:href="#ArialMT-72"/>
      <use x="967.089844" xlink:href="#ArialMT-73"/>
      <use x="1017.089844" xlink:href="#ArialMT-69"/>
      <use x="1039.306641" xlink:href="#ArialMT-76"/>
      <use x="1089.306641" xlink:href="#ArialMT-65"/>
      <use x="1144.921875" xlink:href="#ArialMT-5f"/>
      <use x="1200.537109" xlink:href="#ArialMT-64"/>
      <use x="1256.152344" xlink:href="#ArialMT-6f"/>
      <use x="1311.767578" xlink:href="#ArialMT-75"/>
      <use x="1367.382812" xlink:href="#ArialMT-62"/>
      <use x="1422.998047" xlink:href="#ArialMT-6c"/>
      <use x="1445.214844" xlink:href="#ArialMT-69"/>
      <use x="1467.431641" xlink:href="#ArialMT-6e"/>
      <use x="1523.046875" xlink:href="#ArialMT-67"/>
     </g>
    </g>
    <g id="line2d_35">
     <path d="M 69.397017 151.934063 
L 91.397017 151.934063 
" style="fill:none;stroke:#da8bc3;stroke-linecap:round;stroke-width:1.5;"/>
    </g>
    <g id="line2d_36">
     <g>
      <use style="fill:#da8bc3;stroke:#da8bc3;" x="80.397017" xlink:href="#m385ad316a0" y="151.934063"/>
     </g>
    </g>
    <g id="text_23">
     <!-- allreduce-native-ring -->
     <g style="fill:#262626;" transform="translate(100.197017 155.784063)scale(0.11 -0.11)">
      <use xlink:href="#ArialMT-61"/>
      <use x="55.615234" xlink:href="#ArialMT-6c"/>
      <use x="77.832031" xlink:href="#ArialMT-6c"/>
      <use x="100.048828" xlink:href="#ArialMT-72"/>
      <use x="133.349609" xlink:href="#ArialMT-65"/>
      <use x="188.964844" xlink:href="#ArialMT-64"/>
      <use x="244.580078" xlink:href="#ArialMT-75"/>
      <use x="300.195312" xlink:href="#ArialMT-63"/>
      <use x="350.195312" xlink:href="#ArialMT-65"/>
      <use x="405.810547" xlink:href="#ArialMT-2d"/>
      <use x="439.111328" xlink:href="#ArialMT-6e"/>
      <use x="494.726562" xlink:href="#ArialMT-61"/>
      <use x="550.341797" xlink:href="#ArialMT-74"/>
      <use x="578.125" xlink:href="#ArialMT-69"/>
      <use x="600.341797" xlink:href="#ArialMT-76"/>
      <use x="650.341797" xlink:href="#ArialMT-65"/>
      <use x="705.957031" xlink:href="#ArialMT-2d"/>
      <use x="739.257812" xlink:href="#ArialMT-72"/>
      <use x="772.558594" xlink:href="#ArialMT-69"/>
      <use x="794.775391" xlink:href="#ArialMT-6e"/>
      <use x="850.390625" xlink:href="#ArialMT-67"/>
     </g>
    </g>
    <g id="line2d_37">
     <path d="M 69.397017 167.622812 
L 91.397017 167.622812 
" style="fill:none;stroke:#8c8c8c;stroke-linecap:round;stroke-width:1.5;"/>
    </g>
    <g id="line2d_38">
     <g>
      <use style="fill:#8c8c8c;stroke:#8c8c8c;" x="80.397017" xlink:href="#mfe8b17814c" y="167.622812"/>
     </g>
    </g>
    <g id="text_24">
     <!-- allreduce-native-segmented_ring -->
     <g style="fill:#262626;" transform="translate(100.197017 171.472812)scale(0.11 -0.11)">
      <use xlink:href="#ArialMT-61"/>
      <use x="55.615234" xlink:href="#ArialMT-6c"/>
      <use x="77.832031" xlink:href="#ArialMT-6c"/>
      <use x="100.048828" xlink:href="#ArialMT-72"/>
      <use x="133.349609" xlink:href="#ArialMT-65"/>
      <use x="188.964844" xlink:href="#ArialMT-64"/>
      <use x="244.580078" xlink:href="#ArialMT-75"/>
      <use x="300.195312" xlink:href="#ArialMT-63"/>
      <use x="350.195312" xlink:href="#ArialMT-65"/>
      <use x="405.810547" xlink:href="#ArialMT-2d"/>
      <use x="439.111328" xlink:href="#ArialMT-6e"/>
      <use x="494.726562" xlink:href="#ArialMT-61"/>
      <use x="550.341797" xlink:href="#ArialMT-74"/>
      <use x="578.125" xlink:href="#ArialMT-69"/>
      <use x="600.341797" xlink:href="#ArialMT-76"/>
      <use x="650.341797" xlink:href="#ArialMT-65"/>
      <use x="705.957031" xlink:href="#ArialMT-2d"/>
      <use x="739.257812" xlink:href="#ArialMT-73"/>
      <use x="789.257812" xlink:href="#ArialMT-65"/>
      <use x="844.873047" xlink:href="#ArialMT-67"/>
      <use x="900.488281" xlink:href="#ArialMT-6d"/>
      <use x="983.789062" xlink:href="#ArialMT-65"/>
      <use x="1039.404297" xlink:href="#ArialMT-6e"/>
      <use x="1095.019531" xlink:href="#ArialMT-74"/>
      <use x="1122.802734" xlink:href="#ArialMT-65"/>
      <use x="1178.417969" xlink:href="#ArialMT-64"/>
      <use x="1234.033203" xlink:href="#ArialMT-5f"/>
      <use x="1289.648438" xlink:href="#ArialMT-72"/>
      <use x="1322.949219" xlink:href="#ArialMT-69"/>
      <use x="1345.166016" xlink:href="#ArialMT-6e"/>
      <use x="1400.78125" xlink:href="#ArialMT-67"/>
     </g>
    </g>
    <g id="line2d_39">
     <path d="M 69.397017 183.311563 
L 91.397017 183.311563 
" style="fill:none;stroke:#ccb974;stroke-linecap:round;stroke-width:1.5;"/>
    </g>
    <g id="line2d_40">
     <g>
      <use style="fill:#ccb974;stroke:#ccb974;" x="80.397017" xlink:href="#mea5da3340d" y="183.311563"/>
     </g>
    </g>
    <g id="text_25">
     <!-- allreduce-rabenseifner -->
     <g style="fill:#262626;" transform="translate(100.197017 187.161563)scale(0.11 -0.11)">
      <use xlink:href="#ArialMT-61"/>
      <use x="55.615234" xlink:href="#ArialMT-6c"/>
      <use x="77.832031" xlink:href="#ArialMT-6c"/>
      <use x="100.048828" xlink:href="#ArialMT-72"/>
      <use x="133.349609" xlink:href="#ArialMT-65"/>
      <use x="188.964844" xlink:href="#ArialMT-64"/>
      <use x="244.580078" xlink:href="#ArialMT-75"/>
      <use x="300.195312" xlink:href="#ArialMT-63"/>
      <use x="350.195312" xlink:href="#ArialMT-65"/>
      <use x="405.810547" xlink:href="#ArialMT-2d"/>
      <use x="439.111328" xlink:href="#ArialMT-72"/>
      <use x="472.412109" xlink:href="#ArialMT-61"/>
      <use x="528.027344" xlink:href="#ArialMT-62"/>
      <use x="583.642578" xlink:href="#ArialMT-65"/>
      <use x="639.257812" xlink:href="#ArialMT-6e"/>
      <use x="694.873047" xlink:href="#ArialMT-73"/>
      <use x="744.873047" xlink:href="#ArialMT-65"/>
      <use x="800.488281" xlink:href="#ArialMT-69"/>
      <use x="822.705078" xlink:href="#ArialMT-66"/>
      <use x="850.488281" xlink:href="#ArialMT-6e"/>
      <use x="906.103516" xlink:href="#ArialMT-65"/>
      <use x="961.71875" xlink:href="#ArialMT-72"/>
     </g>
    </g>
    <g id="line2d_41">
     <path d="M 69.397017 198.871406 
L 91.397017 198.871406 
" style="fill:none;stroke:#64b5cd;stroke-linecap:round;stroke-width:1.5;"/>
    </g>
    <g id="line2d_42">
     <g>
      <use style="fill:#64b5cd;stroke:#64b5cd;" x="80.397017" xlink:href="#m57ef7528b8" y="198.871406"/>
     </g>
    </g>
    <g id="text_26">
     <!-- allreduce-ring -->
     <g style="fill:#262626;" transform="translate(100.197017 202.721406)scale(0.11 -0.11)">
      <use xlink:href="#ArialMT-61"/>
      <use x="55.615234" xlink:href="#ArialMT-6c"/>
      <use x="77.832031" xlink:href="#ArialMT-6c"/>
      <use x="100.048828" xlink:href="#ArialMT-72"/>
      <use x="133.349609" xlink:href="#ArialMT-65"/>
      <use x="188.964844" xlink:href="#ArialMT-64"/>
      <use x="244.580078" xlink:href="#ArialMT-75"/>
      <use x="300.195312" xlink:href="#ArialMT-63"/>
      <use x="350.195312" xlink:href="#ArialMT-65"/>
      <use x="405.810547" xlink:href="#ArialMT-2d"/>
      <use x="439.111328" xlink:href="#ArialMT-72"/>
      <use x="472.412109" xlink:href="#ArialMT-69"/>
      <use x="494.628906" xlink:href="#ArialMT-6e"/>
      <use x="550.244141" xlink:href="#ArialMT-67"/>
     </g>
    </g>
   </g>
  </g>
 </g>
 <defs>
  <clipPath id="p8eb6636d5b">
   <rect height="270.5475" width="388.342983" x="59.497017" y="27.65625"/>
  </clipPath>
 </defs>
</svg>
